<?xml version="1.0" encoding="utf-8" standalone="no"?>
<!DOCTYPE svg PUBLIC "-//W3C//DTD SVG 1.1//EN"
  "http://www.w3.org/Graphics/SVG/1.1/DTD/svg11.dtd">
<svg xmlns:xlink="http://www.w3.org/1999/xlink" width="655.74pt" height="441.36pt" viewBox="0 0 655.74 441.36" xmlns="http://www.w3.org/2000/svg" version="1.1">
 <metadata>
  <rdf:RDF xmlns:dc="http://purl.org/dc/elements/1.1/" xmlns:cc="http://creativecommons.org/ns#" xmlns:rdf="http://www.w3.org/1999/02/22-rdf-syntax-ns#">
   <cc:Work>
    <dc:type rdf:resource="http://purl.org/dc/dcmitype/StillImage"/>
    <dc:date>2026-06-10T15:37:37.035215</dc:date>
    <dc:format>image/svg+xml</dc:format>
    <dc:creator>
     <cc:Agent>
      <dc:title>Matplotlib v3.10.9, https://matplotlib.org/</dc:title>
     </cc:Agent>
    </dc:creator>
   </cc:Work>
  </rdf:RDF>
 </metadata>
 <defs>
  <style type="text/css">*{stroke-linejoin: round; stroke-linecap: butt}</style>
 </defs>
 <g id="figure_1">
  <g id="patch_1">
   <path d="M 0 441.36 
L 655.74 441.36 
L 655.74 0 
L 0 0 
z
" style="fill: #fffcf0"/>
  </g>
  <g id="axes_1">
   <g id="patch_2">
    <path d="M 70.012857 343.46 
L 641.34 343.46 
L 641.34 99.925714 
L 70.012857 99.925714 
z
" style="fill: #fffcf0"/>
   </g>
   <g id="matplotlib.axis_1">
    <g id="xtick_1">
     <g id="line2d_1"/>
     <g id="text_1">
      <!-- 0,8 -->
      <g style="fill: #6f6e69" transform="translate(87.633132 357.438359) scale(0.105 -0.105)">
       <defs>
        <path id="DejaVuSans-30" d="M 2034 4250 
Q 1547 4250 1301 3770 
Q 1056 3291 1056 2328 
Q 1056 1369 1301 889 
Q 1547 409 2034 409 
Q 2525 409 2770 889 
Q 3016 1369 3016 2328 
Q 3016 3291 2770 3770 
Q 2525 4250 2034 4250 
z
M 2034 4750 
Q 2819 4750 3233 4129 
Q 3647 3509 3647 2328 
Q 3647 1150 3233 529 
Q 2819 -91 2034 -91 
Q 1250 -91 836 529 
Q 422 1150 422 2328 
Q 422 3509 836 4129 
Q 1250 4750 2034 4750 
z
" transform="scale(0.015625)"/>
        <path id="DejaVuSans-2c" d="M 750 794 
L 1409 794 
L 1409 256 
L 897 -744 
L 494 -744 
L 750 256 
L 750 794 
z
" transform="scale(0.015625)"/>
        <path id="DejaVuSans-38" d="M 2034 2216 
Q 1584 2216 1326 1975 
Q 1069 1734 1069 1313 
Q 1069 891 1326 650 
Q 1584 409 2034 409 
Q 2484 409 2743 651 
Q 3003 894 3003 1313 
Q 3003 1734 2745 1975 
Q 2488 2216 2034 2216 
z
M 1403 2484 
Q 997 2584 770 2862 
Q 544 3141 544 3541 
Q 544 4100 942 4425 
Q 1341 4750 2034 4750 
Q 2731 4750 3128 4425 
Q 3525 4100 3525 3541 
Q 3525 3141 3298 2862 
Q 3072 2584 2669 2484 
Q 3125 2378 3379 2068 
Q 3634 1759 3634 1313 
Q 3634 634 3220 271 
Q 2806 -91 2034 -91 
Q 1263 -91 848 271 
Q 434 634 434 1313 
Q 434 1759 690 2068 
Q 947 2378 1403 2484 
z
M 1172 3481 
Q 1172 3119 1398 2916 
Q 1625 2713 2034 2713 
Q 2441 2713 2670 2916 
Q 2900 3119 2900 3481 
Q 2900 3844 2670 4047 
Q 2441 4250 2034 4250 
Q 1625 4250 1398 4047 
Q 1172 3844 1172 3481 
z
" transform="scale(0.015625)"/>
       </defs>
       <use xlink:href="#DejaVuSans-30"/>
       <use xlink:href="#DejaVuSans-2c" transform="translate(63.623047 0)"/>
       <use xlink:href="#DejaVuSans-38" transform="translate(95.410156 0)"/>
      </g>
     </g>
    </g>
    <g id="xtick_2">
     <g id="line2d_2"/>
     <g id="text_2">
      <!-- 0,9 -->
      <g style="fill: #6f6e69" transform="translate(152.556671 357.438359) scale(0.105 -0.105)">
       <defs>
        <path id="DejaVuSans-39" d="M 703 97 
L 703 672 
Q 941 559 1184 500 
Q 1428 441 1663 441 
Q 2288 441 2617 861 
Q 2947 1281 2994 2138 
Q 2813 1869 2534 1725 
Q 2256 1581 1919 1581 
Q 1219 1581 811 2004 
Q 403 2428 403 3163 
Q 403 3881 828 4315 
Q 1253 4750 1959 4750 
Q 2769 4750 3195 4129 
Q 3622 3509 3622 2328 
Q 3622 1225 3098 567 
Q 2575 -91 1691 -91 
Q 1453 -91 1209 -44 
Q 966 3 703 97 
z
M 1959 2075 
Q 2384 2075 2632 2365 
Q 2881 2656 2881 3163 
Q 2881 3666 2632 3958 
Q 2384 4250 1959 4250 
Q 1534 4250 1286 3958 
Q 1038 3666 1038 3163 
Q 1038 2656 1286 2365 
Q 1534 2075 1959 2075 
z
" transform="scale(0.015625)"/>
       </defs>
       <use xlink:href="#DejaVuSans-30"/>
       <use xlink:href="#DejaVuSans-2c" transform="translate(63.623047 0)"/>
       <use xlink:href="#DejaVuSans-39" transform="translate(95.410156 0)"/>
      </g>
     </g>
    </g>
    <g id="xtick_3">
     <g id="line2d_3"/>
     <g id="text_3">
      <!-- 1 -->
      <g style="fill: #6f6e69" transform="translate(222.489038 357.438359) scale(0.105 -0.105)">
       <defs>
        <path id="DejaVuSans-31" d="M 794 531 
L 1825 531 
L 1825 4091 
L 703 3866 
L 703 4441 
L 1819 4666 
L 2450 4666 
L 2450 531 
L 3481 531 
L 3481 0 
L 794 0 
L 794 531 
z
" transform="scale(0.015625)"/>
       </defs>
       <use xlink:href="#DejaVuSans-31"/>
      </g>
     </g>
    </g>
    <g id="xtick_4">
     <g id="line2d_4"/>
     <g id="text_4">
      <!-- 1,1 -->
      <g style="fill: #6f6e69" transform="translate(282.403749 357.438359) scale(0.105 -0.105)">
       <use xlink:href="#DejaVuSans-31"/>
       <use xlink:href="#DejaVuSans-2c" transform="translate(63.623047 0)"/>
       <use xlink:href="#DejaVuSans-31" transform="translate(95.410156 0)"/>
      </g>
     </g>
    </g>
    <g id="xtick_5">
     <g id="line2d_5"/>
     <g id="text_5">
      <!-- 1,2 -->
      <g style="fill: #6f6e69" transform="translate(347.327288 357.438359) scale(0.105 -0.105)">
       <defs>
        <path id="DejaVuSans-32" d="M 1228 531 
L 3431 531 
L 3431 0 
L 469 0 
L 469 531 
Q 828 903 1448 1529 
Q 2069 2156 2228 2338 
Q 2531 2678 2651 2914 
Q 2772 3150 2772 3378 
Q 2772 3750 2511 3984 
Q 2250 4219 1831 4219 
Q 1534 4219 1204 4116 
Q 875 4013 500 3803 
L 500 4441 
Q 881 4594 1212 4672 
Q 1544 4750 1819 4750 
Q 2544 4750 2975 4387 
Q 3406 4025 3406 3419 
Q 3406 3131 3298 2873 
Q 3191 2616 2906 2266 
Q 2828 2175 2409 1742 
Q 1991 1309 1228 531 
z
" transform="scale(0.015625)"/>
       </defs>
       <use xlink:href="#DejaVuSans-31"/>
       <use xlink:href="#DejaVuSans-2c" transform="translate(63.623047 0)"/>
       <use xlink:href="#DejaVuSans-32" transform="translate(95.410156 0)"/>
      </g>
     </g>
    </g>
    <g id="xtick_6">
     <g id="line2d_6"/>
     <g id="text_6">
      <!-- 1,3 -->
      <g style="fill: #6f6e69" transform="translate(412.250827 357.438359) scale(0.105 -0.105)">
       <defs>
        <path id="DejaVuSans-33" d="M 2597 2516 
Q 3050 2419 3304 2112 
Q 3559 1806 3559 1356 
Q 3559 666 3084 287 
Q 2609 -91 1734 -91 
Q 1441 -91 1130 -33 
Q 819 25 488 141 
L 488 750 
Q 750 597 1062 519 
Q 1375 441 1716 441 
Q 2309 441 2620 675 
Q 2931 909 2931 1356 
Q 2931 1769 2642 2001 
Q 2353 2234 1838 2234 
L 1294 2234 
L 1294 2753 
L 1863 2753 
Q 2328 2753 2575 2939 
Q 2822 3125 2822 3475 
Q 2822 3834 2567 4026 
Q 2313 4219 1838 4219 
Q 1578 4219 1281 4162 
Q 984 4106 628 3988 
L 628 4550 
Q 988 4650 1302 4700 
Q 1616 4750 1894 4750 
Q 2613 4750 3031 4423 
Q 3450 4097 3450 3541 
Q 3450 3153 3228 2886 
Q 3006 2619 2597 2516 
z
" transform="scale(0.015625)"/>
       </defs>
       <use xlink:href="#DejaVuSans-31"/>
       <use xlink:href="#DejaVuSans-2c" transform="translate(63.623047 0)"/>
       <use xlink:href="#DejaVuSans-33" transform="translate(95.410156 0)"/>
      </g>
     </g>
    </g>
    <g id="xtick_7">
     <g id="line2d_7"/>
     <g id="text_7">
      <!-- 1,4 -->
      <g style="fill: #6f6e69" transform="translate(477.174366 357.438359) scale(0.105 -0.105)">
       <defs>
        <path id="DejaVuSans-34" d="M 2419 4116 
L 825 1625 
L 2419 1625 
L 2419 4116 
z
M 2253 4666 
L 3047 4666 
L 3047 1625 
L 3713 1625 
L 3713 1100 
L 3047 1100 
L 3047 0 
L 2419 0 
L 2419 1100 
L 313 1100 
L 313 1709 
L 2253 4666 
z
" transform="scale(0.015625)"/>
       </defs>
       <use xlink:href="#DejaVuSans-31"/>
       <use xlink:href="#DejaVuSans-2c" transform="translate(63.623047 0)"/>
       <use xlink:href="#DejaVuSans-34" transform="translate(95.410156 0)"/>
      </g>
     </g>
    </g>
    <g id="xtick_8">
     <g id="line2d_8"/>
     <g id="text_8">
      <!-- 1,5 -->
      <g style="fill: #6f6e69" transform="translate(542.097905 357.438359) scale(0.105 -0.105)">
       <defs>
        <path id="DejaVuSans-35" d="M 691 4666 
L 3169 4666 
L 3169 4134 
L 1269 4134 
L 1269 2991 
Q 1406 3038 1543 3061 
Q 1681 3084 1819 3084 
Q 2600 3084 3056 2656 
Q 3513 2228 3513 1497 
Q 3513 744 3044 326 
Q 2575 -91 1722 -91 
Q 1428 -91 1123 -41 
Q 819 9 494 109 
L 494 744 
Q 775 591 1075 516 
Q 1375 441 1709 441 
Q 2250 441 2565 725 
Q 2881 1009 2881 1497 
Q 2881 1984 2565 2268 
Q 2250 2553 1709 2553 
Q 1456 2553 1204 2497 
Q 953 2441 691 2322 
L 691 4666 
z
" transform="scale(0.015625)"/>
       </defs>
       <use xlink:href="#DejaVuSans-31"/>
       <use xlink:href="#DejaVuSans-2c" transform="translate(63.623047 0)"/>
       <use xlink:href="#DejaVuSans-35" transform="translate(95.410156 0)"/>
      </g>
     </g>
    </g>
    <g id="xtick_9">
     <g id="line2d_9"/>
     <g id="text_9">
      <!-- 1,6 -->
      <g style="fill: #6f6e69" transform="translate(607.021444 357.438359) scale(0.105 -0.105)">
       <defs>
        <path id="DejaVuSans-36" d="M 2113 2584 
Q 1688 2584 1439 2293 
Q 1191 2003 1191 1497 
Q 1191 994 1439 701 
Q 1688 409 2113 409 
Q 2538 409 2786 701 
Q 3034 994 3034 1497 
Q 3034 2003 2786 2293 
Q 2538 2584 2113 2584 
z
M 3366 4563 
L 3366 3988 
Q 3128 4100 2886 4159 
Q 2644 4219 2406 4219 
Q 1781 4219 1451 3797 
Q 1122 3375 1075 2522 
Q 1259 2794 1537 2939 
Q 1816 3084 2150 3084 
Q 2853 3084 3261 2657 
Q 3669 2231 3669 1497 
Q 3669 778 3244 343 
Q 2819 -91 2113 -91 
Q 1303 -91 875 529 
Q 447 1150 447 2328 
Q 447 3434 972 4092 
Q 1497 4750 2381 4750 
Q 2619 4750 2861 4703 
Q 3103 4656 3366 4563 
z
" transform="scale(0.015625)"/>
       </defs>
       <use xlink:href="#DejaVuSans-31"/>
       <use xlink:href="#DejaVuSans-2c" transform="translate(63.623047 0)"/>
       <use xlink:href="#DejaVuSans-36" transform="translate(95.410156 0)"/>
      </g>
     </g>
    </g>
    <g id="text_10">
     <!-- $q$ de Tobin (marginal) -->
     <g style="fill: #1c1b1a" transform="translate(298.818929 377.602031) scale(0.105 -0.105)">
      <defs>
       <path id="DejaVuSans-Oblique-71" d="M 2669 525 
Q 2438 222 2123 65 
Q 1809 -91 1428 -91 
Q 897 -91 595 267 
Q 294 625 294 1253 
Q 294 1759 480 2231 
Q 666 2703 1013 3078 
Q 1238 3322 1530 3453 
Q 1822 3584 2144 3584 
Q 2531 3584 2781 3431 
Q 3031 3278 3144 2969 
L 3244 3494 
L 3822 3494 
L 2888 -1319 
L 2309 -1319 
L 2669 525 
z
M 891 1338 
Q 891 875 1084 633 
Q 1278 391 1644 391 
Q 2188 391 2572 911 
Q 2956 1431 2956 2175 
Q 2956 2625 2757 2864 
Q 2559 3103 2188 3103 
Q 1916 3103 1684 2976 
Q 1453 2850 1281 2606 
Q 1100 2350 995 2006 
Q 891 1663 891 1338 
z
" transform="scale(0.015625)"/>
       <path id="DejaVuSans-20" transform="scale(0.015625)"/>
       <path id="DejaVuSans-64" d="M 2906 2969 
L 2906 4863 
L 3481 4863 
L 3481 0 
L 2906 0 
L 2906 525 
Q 2725 213 2448 61 
Q 2172 -91 1784 -91 
Q 1150 -91 751 415 
Q 353 922 353 1747 
Q 353 2572 751 3078 
Q 1150 3584 1784 3584 
Q 2172 3584 2448 3432 
Q 2725 3281 2906 2969 
z
M 947 1747 
Q 947 1113 1208 752 
Q 1469 391 1925 391 
Q 2381 391 2643 752 
Q 2906 1113 2906 1747 
Q 2906 2381 2643 2742 
Q 2381 3103 1925 3103 
Q 1469 3103 1208 2742 
Q 947 2381 947 1747 
z
" transform="scale(0.015625)"/>
       <path id="DejaVuSans-65" d="M 3597 1894 
L 3597 1613 
L 953 1613 
Q 991 1019 1311 708 
Q 1631 397 2203 397 
Q 2534 397 2845 478 
Q 3156 559 3463 722 
L 3463 178 
Q 3153 47 2828 -22 
Q 2503 -91 2169 -91 
Q 1331 -91 842 396 
Q 353 884 353 1716 
Q 353 2575 817 3079 
Q 1281 3584 2069 3584 
Q 2775 3584 3186 3129 
Q 3597 2675 3597 1894 
z
M 3022 2063 
Q 3016 2534 2758 2815 
Q 2500 3097 2075 3097 
Q 1594 3097 1305 2825 
Q 1016 2553 972 2059 
L 3022 2063 
z
" transform="scale(0.015625)"/>
       <path id="DejaVuSans-54" d="M -19 4666 
L 3928 4666 
L 3928 4134 
L 2272 4134 
L 2272 0 
L 1638 0 
L 1638 4134 
L -19 4134 
L -19 4666 
z
" transform="scale(0.015625)"/>
       <path id="DejaVuSans-6f" d="M 1959 3097 
Q 1497 3097 1228 2736 
Q 959 2375 959 1747 
Q 959 1119 1226 758 
Q 1494 397 1959 397 
Q 2419 397 2687 759 
Q 2956 1122 2956 1747 
Q 2956 2369 2687 2733 
Q 2419 3097 1959 3097 
z
M 1959 3584 
Q 2709 3584 3137 3096 
Q 3566 2609 3566 1747 
Q 3566 888 3137 398 
Q 2709 -91 1959 -91 
Q 1206 -91 779 398 
Q 353 888 353 1747 
Q 353 2609 779 3096 
Q 1206 3584 1959 3584 
z
" transform="scale(0.015625)"/>
       <path id="DejaVuSans-62" d="M 3116 1747 
Q 3116 2381 2855 2742 
Q 2594 3103 2138 3103 
Q 1681 3103 1420 2742 
Q 1159 2381 1159 1747 
Q 1159 1113 1420 752 
Q 1681 391 2138 391 
Q 2594 391 2855 752 
Q 3116 1113 3116 1747 
z
M 1159 2969 
Q 1341 3281 1617 3432 
Q 1894 3584 2278 3584 
Q 2916 3584 3314 3078 
Q 3713 2572 3713 1747 
Q 3713 922 3314 415 
Q 2916 -91 2278 -91 
Q 1894 -91 1617 61 
Q 1341 213 1159 525 
L 1159 0 
L 581 0 
L 581 4863 
L 1159 4863 
L 1159 2969 
z
" transform="scale(0.015625)"/>
       <path id="DejaVuSans-69" d="M 603 3500 
L 1178 3500 
L 1178 0 
L 603 0 
L 603 3500 
z
M 603 4863 
L 1178 4863 
L 1178 4134 
L 603 4134 
L 603 4863 
z
" transform="scale(0.015625)"/>
       <path id="DejaVuSans-6e" d="M 3513 2113 
L 3513 0 
L 2938 0 
L 2938 2094 
Q 2938 2591 2744 2837 
Q 2550 3084 2163 3084 
Q 1697 3084 1428 2787 
Q 1159 2491 1159 1978 
L 1159 0 
L 581 0 
L 581 3500 
L 1159 3500 
L 1159 2956 
Q 1366 3272 1645 3428 
Q 1925 3584 2291 3584 
Q 2894 3584 3203 3211 
Q 3513 2838 3513 2113 
z
" transform="scale(0.015625)"/>
       <path id="DejaVuSans-28" d="M 1984 4856 
Q 1566 4138 1362 3434 
Q 1159 2731 1159 2009 
Q 1159 1288 1364 580 
Q 1569 -128 1984 -844 
L 1484 -844 
Q 1016 -109 783 600 
Q 550 1309 550 2009 
Q 550 2706 781 3412 
Q 1013 4119 1484 4856 
L 1984 4856 
z
" transform="scale(0.015625)"/>
       <path id="DejaVuSans-6d" d="M 3328 2828 
Q 3544 3216 3844 3400 
Q 4144 3584 4550 3584 
Q 5097 3584 5394 3201 
Q 5691 2819 5691 2113 
L 5691 0 
L 5113 0 
L 5113 2094 
Q 5113 2597 4934 2840 
Q 4756 3084 4391 3084 
Q 3944 3084 3684 2787 
Q 3425 2491 3425 1978 
L 3425 0 
L 2847 0 
L 2847 2094 
Q 2847 2600 2669 2842 
Q 2491 3084 2119 3084 
Q 1678 3084 1418 2786 
Q 1159 2488 1159 1978 
L 1159 0 
L 581 0 
L 581 3500 
L 1159 3500 
L 1159 2956 
Q 1356 3278 1631 3431 
Q 1906 3584 2284 3584 
Q 2666 3584 2933 3390 
Q 3200 3197 3328 2828 
z
" transform="scale(0.015625)"/>
       <path id="DejaVuSans-61" d="M 2194 1759 
Q 1497 1759 1228 1600 
Q 959 1441 959 1056 
Q 959 750 1161 570 
Q 1363 391 1709 391 
Q 2188 391 2477 730 
Q 2766 1069 2766 1631 
L 2766 1759 
L 2194 1759 
z
M 3341 1997 
L 3341 0 
L 2766 0 
L 2766 531 
Q 2569 213 2275 61 
Q 1981 -91 1556 -91 
Q 1019 -91 701 211 
Q 384 513 384 1019 
Q 384 1609 779 1909 
Q 1175 2209 1959 2209 
L 2766 2209 
L 2766 2266 
Q 2766 2663 2505 2880 
Q 2244 3097 1772 3097 
Q 1472 3097 1187 3025 
Q 903 2953 641 2809 
L 641 3341 
Q 956 3463 1253 3523 
Q 1550 3584 1831 3584 
Q 2591 3584 2966 3190 
Q 3341 2797 3341 1997 
z
" transform="scale(0.015625)"/>
       <path id="DejaVuSans-72" d="M 2631 2963 
Q 2534 3019 2420 3045 
Q 2306 3072 2169 3072 
Q 1681 3072 1420 2755 
Q 1159 2438 1159 1844 
L 1159 0 
L 581 0 
L 581 3500 
L 1159 3500 
L 1159 2956 
Q 1341 3275 1631 3429 
Q 1922 3584 2338 3584 
Q 2397 3584 2469 3576 
Q 2541 3569 2628 3553 
L 2631 2963 
z
" transform="scale(0.015625)"/>
       <path id="DejaVuSans-67" d="M 2906 1791 
Q 2906 2416 2648 2759 
Q 2391 3103 1925 3103 
Q 1463 3103 1205 2759 
Q 947 2416 947 1791 
Q 947 1169 1205 825 
Q 1463 481 1925 481 
Q 2391 481 2648 825 
Q 2906 1169 2906 1791 
z
M 3481 434 
Q 3481 -459 3084 -895 
Q 2688 -1331 1869 -1331 
Q 1566 -1331 1297 -1286 
Q 1028 -1241 775 -1147 
L 775 -588 
Q 1028 -725 1275 -790 
Q 1522 -856 1778 -856 
Q 2344 -856 2625 -561 
Q 2906 -266 2906 331 
L 2906 616 
Q 2728 306 2450 153 
Q 2172 0 1784 0 
Q 1141 0 747 490 
Q 353 981 353 1791 
Q 353 2603 747 3093 
Q 1141 3584 1784 3584 
Q 2172 3584 2450 3431 
Q 2728 3278 2906 2969 
L 2906 3500 
L 3481 3500 
L 3481 434 
z
" transform="scale(0.015625)"/>
       <path id="DejaVuSans-6c" d="M 603 4863 
L 1178 4863 
L 1178 0 
L 603 0 
L 603 4863 
z
" transform="scale(0.015625)"/>
       <path id="DejaVuSans-29" d="M 513 4856 
L 1013 4856 
Q 1481 4119 1714 3412 
Q 1947 2706 1947 2009 
Q 1947 1309 1714 600 
Q 1481 -109 1013 -844 
L 513 -844 
Q 928 -128 1133 580 
Q 1338 1288 1338 2009 
Q 1338 2731 1133 3434 
Q 928 4138 513 4856 
z
" transform="scale(0.015625)"/>
      </defs>
      <use xlink:href="#DejaVuSans-Oblique-71" transform="translate(0 0.015625)"/>
      <use xlink:href="#DejaVuSans-20" transform="translate(63.476562 0.015625)"/>
      <use xlink:href="#DejaVuSans-64" transform="translate(95.263672 0.015625)"/>
      <use xlink:href="#DejaVuSans-65" transform="translate(158.740234 0.015625)"/>
      <use xlink:href="#DejaVuSans-20" transform="translate(220.263672 0.015625)"/>
      <use xlink:href="#DejaVuSans-54" transform="translate(252.050781 0.015625)"/>
      <use xlink:href="#DejaVuSans-6f" transform="translate(313.134766 0.015625)"/>
      <use xlink:href="#DejaVuSans-62" transform="translate(374.316406 0.015625)"/>
      <use xlink:href="#DejaVuSans-69" transform="translate(437.792969 0.015625)"/>
      <use xlink:href="#DejaVuSans-6e" transform="translate(465.576172 0.015625)"/>
      <use xlink:href="#DejaVuSans-20" transform="translate(528.955078 0.015625)"/>
      <use xlink:href="#DejaVuSans-28" transform="translate(560.742188 0.015625)"/>
      <use xlink:href="#DejaVuSans-6d" transform="translate(599.755859 0.015625)"/>
      <use xlink:href="#DejaVuSans-61" transform="translate(697.167969 0.015625)"/>
      <use xlink:href="#DejaVuSans-72" transform="translate(758.447266 0.015625)"/>
      <use xlink:href="#DejaVuSans-67" transform="translate(799.560547 0.015625)"/>
      <use xlink:href="#DejaVuSans-69" transform="translate(863.037109 0.015625)"/>
      <use xlink:href="#DejaVuSans-6e" transform="translate(890.820312 0.015625)"/>
      <use xlink:href="#DejaVuSans-61" transform="translate(954.199219 0.015625)"/>
      <use xlink:href="#DejaVuSans-6c" transform="translate(1015.478516 0.015625)"/>
      <use xlink:href="#DejaVuSans-29" transform="translate(1043.261719 0.015625)"/>
     </g>
    </g>
   </g>
   <g id="matplotlib.axis_2">
    <g id="ytick_1">
     <g id="line2d_10">
      <path d="M 70.012857 332.39026 
L 641.34 332.39026 
" clip-path="url(#pc7ce3d2402)" style="fill: none; stroke: #cecdc3; stroke-opacity: 0.9; stroke-width: 0.9; stroke-linecap: square"/>
     </g>
     <g id="line2d_11"/>
     <g id="text_11">
      <!-- -0,1 -->
      <g style="fill: #6f6e69" transform="translate(43.526373 336.379439) scale(0.105 -0.105)">
       <defs>
        <path id="DejaVuSans-2d" d="M 313 2009 
L 1997 2009 
L 1997 1497 
L 313 1497 
L 313 2009 
z
" transform="scale(0.015625)"/>
       </defs>
       <use xlink:href="#DejaVuSans-2d"/>
       <use xlink:href="#DejaVuSans-30" transform="translate(36.083984 0)"/>
       <use xlink:href="#DejaVuSans-2c" transform="translate(99.707031 0)"/>
       <use xlink:href="#DejaVuSans-31" transform="translate(131.494141 0)"/>
      </g>
     </g>
    </g>
    <g id="ytick_2">
     <g id="line2d_12">
      <path d="M 70.012857 304.715909 
L 641.34 304.715909 
" clip-path="url(#pc7ce3d2402)" style="fill: none; stroke: #cecdc3; stroke-opacity: 0.9; stroke-width: 0.9; stroke-linecap: square"/>
     </g>
     <g id="line2d_13"/>
     <g id="text_12">
      <!-- -0,05 -->
      <g style="fill: #6f6e69" transform="translate(36.845748 308.705089) scale(0.105 -0.105)">
       <use xlink:href="#DejaVuSans-2d"/>
       <use xlink:href="#DejaVuSans-30" transform="translate(36.083984 0)"/>
       <use xlink:href="#DejaVuSans-2c" transform="translate(99.707031 0)"/>
       <use xlink:href="#DejaVuSans-30" transform="translate(131.494141 0)"/>
       <use xlink:href="#DejaVuSans-35" transform="translate(195.117188 0)"/>
      </g>
     </g>
    </g>
    <g id="ytick_3">
     <g id="line2d_14">
      <path d="M 70.012857 277.041558 
L 641.34 277.041558 
" clip-path="url(#pc7ce3d2402)" style="fill: none; stroke: #cecdc3; stroke-opacity: 0.9; stroke-width: 0.9; stroke-linecap: square"/>
     </g>
     <g id="line2d_15"/>
     <g id="text_13">
      <!-- 0 -->
      <g style="fill: #6f6e69" transform="translate(57.332232 281.030738) scale(0.105 -0.105)">
       <use xlink:href="#DejaVuSans-30"/>
      </g>
     </g>
    </g>
    <g id="ytick_4">
     <g id="line2d_16">
      <path d="M 70.012857 249.367208 
L 641.34 249.367208 
" clip-path="url(#pc7ce3d2402)" style="fill: none; stroke: #cecdc3; stroke-opacity: 0.9; stroke-width: 0.9; stroke-linecap: square"/>
     </g>
     <g id="line2d_17"/>
     <g id="text_14">
      <!-- 0,05 -->
      <g style="fill: #6f6e69" transform="translate(40.633951 253.356387) scale(0.105 -0.105)">
       <use xlink:href="#DejaVuSans-30"/>
       <use xlink:href="#DejaVuSans-2c" transform="translate(63.623047 0)"/>
       <use xlink:href="#DejaVuSans-30" transform="translate(95.410156 0)"/>
       <use xlink:href="#DejaVuSans-35" transform="translate(159.033203 0)"/>
      </g>
     </g>
    </g>
    <g id="ytick_5">
     <g id="line2d_18">
      <path d="M 70.012857 221.692857 
L 641.34 221.692857 
" clip-path="url(#pc7ce3d2402)" style="fill: none; stroke: #cecdc3; stroke-opacity: 0.9; stroke-width: 0.9; stroke-linecap: square"/>
     </g>
     <g id="line2d_19"/>
     <g id="text_15">
      <!-- 0,1 -->
      <g style="fill: #6f6e69" transform="translate(47.314576 225.682037) scale(0.105 -0.105)">
       <use xlink:href="#DejaVuSans-30"/>
       <use xlink:href="#DejaVuSans-2c" transform="translate(63.623047 0)"/>
       <use xlink:href="#DejaVuSans-31" transform="translate(95.410156 0)"/>
      </g>
     </g>
    </g>
    <g id="ytick_6">
     <g id="line2d_20">
      <path d="M 70.012857 194.018506 
L 641.34 194.018506 
" clip-path="url(#pc7ce3d2402)" style="fill: none; stroke: #cecdc3; stroke-opacity: 0.9; stroke-width: 0.9; stroke-linecap: square"/>
     </g>
     <g id="line2d_21"/>
     <g id="text_16">
      <!-- 0,15 -->
      <g style="fill: #6f6e69" transform="translate(40.633951 198.007686) scale(0.105 -0.105)">
       <use xlink:href="#DejaVuSans-30"/>
       <use xlink:href="#DejaVuSans-2c" transform="translate(63.623047 0)"/>
       <use xlink:href="#DejaVuSans-31" transform="translate(95.410156 0)"/>
       <use xlink:href="#DejaVuSans-35" transform="translate(159.033203 0)"/>
      </g>
     </g>
    </g>
    <g id="ytick_7">
     <g id="line2d_22">
      <path d="M 70.012857 166.344156 
L 641.34 166.344156 
" clip-path="url(#pc7ce3d2402)" style="fill: none; stroke: #cecdc3; stroke-opacity: 0.9; stroke-width: 0.9; stroke-linecap: square"/>
     </g>
     <g id="line2d_23"/>
     <g id="text_17">
      <!-- 0,2 -->
      <g style="fill: #6f6e69" transform="translate(47.314576 170.333336) scale(0.105 -0.105)">
       <use xlink:href="#DejaVuSans-30"/>
       <use xlink:href="#DejaVuSans-2c" transform="translate(63.623047 0)"/>
       <use xlink:href="#DejaVuSans-32" transform="translate(95.410156 0)"/>
      </g>
     </g>
    </g>
    <g id="ytick_8">
     <g id="line2d_24">
      <path d="M 70.012857 138.669805 
L 641.34 138.669805 
" clip-path="url(#pc7ce3d2402)" style="fill: none; stroke: #cecdc3; stroke-opacity: 0.9; stroke-width: 0.9; stroke-linecap: square"/>
     </g>
     <g id="line2d_25"/>
     <g id="text_18">
      <!-- 0,25 -->
      <g style="fill: #6f6e69" transform="translate(40.633951 142.658985) scale(0.105 -0.105)">
       <use xlink:href="#DejaVuSans-30"/>
       <use xlink:href="#DejaVuSans-2c" transform="translate(63.623047 0)"/>
       <use xlink:href="#DejaVuSans-32" transform="translate(95.410156 0)"/>
       <use xlink:href="#DejaVuSans-35" transform="translate(159.033203 0)"/>
      </g>
     </g>
    </g>
    <g id="ytick_9">
     <g id="line2d_26">
      <path d="M 70.012857 110.995455 
L 641.34 110.995455 
" clip-path="url(#pc7ce3d2402)" style="fill: none; stroke: #cecdc3; stroke-opacity: 0.9; stroke-width: 0.9; stroke-linecap: square"/>
     </g>
     <g id="line2d_27"/>
     <g id="text_19">
      <!-- 0,3 -->
      <g style="fill: #6f6e69" transform="translate(47.314576 114.984634) scale(0.105 -0.105)">
       <use xlink:href="#DejaVuSans-30"/>
       <use xlink:href="#DejaVuSans-2c" transform="translate(63.623047 0)"/>
       <use xlink:href="#DejaVuSans-33" transform="translate(95.410156 0)"/>
      </g>
     </g>
    </g>
    <g id="text_20">
     <!-- Taxa de investimento  $I/K$ -->
     <g style="fill: #1c1b1a" transform="translate(24.662076 288.787857) rotate(-90) scale(0.105 -0.105)">
      <defs>
       <path id="DejaVuSans-78" d="M 3513 3500 
L 2247 1797 
L 3578 0 
L 2900 0 
L 1881 1375 
L 863 0 
L 184 0 
L 1544 1831 
L 300 3500 
L 978 3500 
L 1906 2253 
L 2834 3500 
L 3513 3500 
z
" transform="scale(0.015625)"/>
       <path id="DejaVuSans-76" d="M 191 3500 
L 800 3500 
L 1894 563 
L 2988 3500 
L 3597 3500 
L 2284 0 
L 1503 0 
L 191 3500 
z
" transform="scale(0.015625)"/>
       <path id="DejaVuSans-73" d="M 2834 3397 
L 2834 2853 
Q 2591 2978 2328 3040 
Q 2066 3103 1784 3103 
Q 1356 3103 1142 2972 
Q 928 2841 928 2578 
Q 928 2378 1081 2264 
Q 1234 2150 1697 2047 
L 1894 2003 
Q 2506 1872 2764 1633 
Q 3022 1394 3022 966 
Q 3022 478 2636 193 
Q 2250 -91 1575 -91 
Q 1294 -91 989 -36 
Q 684 19 347 128 
L 347 722 
Q 666 556 975 473 
Q 1284 391 1588 391 
Q 1994 391 2212 530 
Q 2431 669 2431 922 
Q 2431 1156 2273 1281 
Q 2116 1406 1581 1522 
L 1381 1569 
Q 847 1681 609 1914 
Q 372 2147 372 2553 
Q 372 3047 722 3315 
Q 1072 3584 1716 3584 
Q 2034 3584 2315 3537 
Q 2597 3491 2834 3397 
z
" transform="scale(0.015625)"/>
       <path id="DejaVuSans-74" d="M 1172 4494 
L 1172 3500 
L 2356 3500 
L 2356 3053 
L 1172 3053 
L 1172 1153 
Q 1172 725 1289 603 
Q 1406 481 1766 481 
L 2356 481 
L 2356 0 
L 1766 0 
Q 1100 0 847 248 
Q 594 497 594 1153 
L 594 3053 
L 172 3053 
L 172 3500 
L 594 3500 
L 594 4494 
L 1172 4494 
z
" transform="scale(0.015625)"/>
       <path id="DejaVuSans-Oblique-49" d="M 1081 4666 
L 1716 4666 
L 806 0 
L 172 0 
L 1081 4666 
z
" transform="scale(0.015625)"/>
       <path id="DejaVuSans-2f" d="M 1625 4666 
L 2156 4666 
L 531 -594 
L 0 -594 
L 1625 4666 
z
" transform="scale(0.015625)"/>
       <path id="DejaVuSans-Oblique-4b" d="M 1081 4666 
L 1716 4666 
L 1331 2700 
L 3781 4666 
L 4622 4666 
L 1850 2438 
L 3878 0 
L 3109 0 
L 1247 2272 
L 806 0 
L 172 0 
L 1081 4666 
z
" transform="scale(0.015625)"/>
      </defs>
      <use xlink:href="#DejaVuSans-54" transform="translate(0 0.015625)"/>
      <use xlink:href="#DejaVuSans-61" transform="translate(61.083984 0.015625)"/>
      <use xlink:href="#DejaVuSans-78" transform="translate(122.363281 0.015625)"/>
      <use xlink:href="#DejaVuSans-61" transform="translate(181.542969 0.015625)"/>
      <use xlink:href="#DejaVuSans-20" transform="translate(242.822266 0.015625)"/>
      <use xlink:href="#DejaVuSans-64" transform="translate(274.609375 0.015625)"/>
      <use xlink:href="#DejaVuSans-65" transform="translate(338.085938 0.015625)"/>
      <use xlink:href="#DejaVuSans-20" transform="translate(399.609375 0.015625)"/>
      <use xlink:href="#DejaVuSans-69" transform="translate(431.396484 0.015625)"/>
      <use xlink:href="#DejaVuSans-6e" transform="translate(459.179688 0.015625)"/>
      <use xlink:href="#DejaVuSans-76" transform="translate(522.558594 0.015625)"/>
      <use xlink:href="#DejaVuSans-65" transform="translate(581.738281 0.015625)"/>
      <use xlink:href="#DejaVuSans-73" transform="translate(643.261719 0.015625)"/>
      <use xlink:href="#DejaVuSans-74" transform="translate(695.361328 0.015625)"/>
      <use xlink:href="#DejaVuSans-69" transform="translate(734.570312 0.015625)"/>
      <use xlink:href="#DejaVuSans-6d" transform="translate(762.353516 0.015625)"/>
      <use xlink:href="#DejaVuSans-65" transform="translate(859.765625 0.015625)"/>
      <use xlink:href="#DejaVuSans-6e" transform="translate(921.289062 0.015625)"/>
      <use xlink:href="#DejaVuSans-74" transform="translate(984.667969 0.015625)"/>
      <use xlink:href="#DejaVuSans-6f" transform="translate(1023.876953 0.015625)"/>
      <use xlink:href="#DejaVuSans-20" transform="translate(1085.058594 0.015625)"/>
      <use xlink:href="#DejaVuSans-20" transform="translate(1116.845703 0.015625)"/>
      <use xlink:href="#DejaVuSans-Oblique-49" transform="translate(1148.632812 0.015625)"/>
      <use xlink:href="#DejaVuSans-2f" transform="translate(1178.125 0.015625)"/>
      <use xlink:href="#DejaVuSans-Oblique-4b" transform="translate(1211.816406 0.015625)"/>
     </g>
    </g>
   </g>
   <g id="line2d_28">
    <path d="M 95.982273 332.39026 
L 101.228619 330.153949 
L 106.474966 327.917637 
L 111.721312 325.681326 
L 116.967659 323.445015 
L 122.214006 321.208704 
L 127.460352 318.972393 
L 132.706699 316.736082 
L 137.953045 314.49977 
L 143.199392 312.263459 
L 148.445739 310.027148 
L 153.692085 307.790837 
L 158.938432 305.554526 
L 164.184778 303.318215 
L 169.431125 301.081903 
L 174.677471 298.845592 
L 179.923818 296.609281 
L 185.170165 294.37297 
L 190.416511 292.136659 
L 195.662858 289.900348 
L 200.909204 287.664036 
L 206.155551 285.427725 
L 211.401898 283.191414 
L 216.648244 280.955103 
L 221.894591 278.718792 
L 227.140937 276.482481 
L 232.387284 274.246169 
L 237.63363 272.009858 
L 242.879977 269.773547 
L 248.126324 267.537236 
L 253.37267 265.300925 
L 258.619017 263.064614 
L 263.865363 260.828303 
L 269.11171 258.591991 
L 274.358057 256.35568 
L 279.604403 254.119369 
L 284.85075 251.883058 
L 290.097096 249.646747 
L 295.343443 247.410436 
L 300.589789 245.174124 
L 305.836136 242.937813 
L 311.082483 240.701502 
L 316.328829 238.465191 
L 321.575176 236.22888 
L 326.821522 233.992569 
L 332.067869 231.756257 
L 337.314216 229.519946 
L 342.560562 227.283635 
L 347.806909 225.047324 
L 353.053255 222.811013 
L 358.299602 220.574702 
L 363.545948 218.33839 
L 368.792295 216.102079 
L 374.038642 213.865768 
L 379.284988 211.629457 
L 384.531335 209.393146 
L 389.777681 207.156835 
L 395.024028 204.920523 
L 400.270375 202.684212 
L 405.516721 200.447901 
L 410.763068 198.21159 
L 416.009414 195.975279 
L 421.255761 193.738968 
L 426.502107 191.502656 
L 431.748454 189.266345 
L 436.994801 187.030034 
L 442.241147 184.793723 
L 447.487494 182.557412 
L 452.73384 180.321101 
L 457.980187 178.084789 
L 463.226534 175.848478 
L 468.47288 173.612167 
L 473.719227 171.375856 
L 478.965573 169.139545 
L 484.21192 166.903234 
L 489.458266 164.666922 
L 494.704613 162.430611 
L 499.95096 160.1943 
L 505.197306 157.957989 
L 510.443653 155.721678 
L 515.689999 153.485367 
L 520.936346 151.249055 
L 526.182693 149.012744 
L 531.429039 146.776433 
L 536.675386 144.540122 
L 541.921732 142.303811 
L 547.168079 140.0675 
L 552.414425 137.831189 
L 557.660772 135.594877 
L 562.907119 133.358566 
L 568.153465 131.122255 
L 573.399812 128.885944 
L 578.646158 126.649633 
L 583.892505 124.413322 
L 589.138852 122.17701 
L 594.385198 119.940699 
L 599.631545 117.704388 
L 604.877891 115.468077 
L 610.124238 113.231766 
L 615.370584 110.995455 
" clip-path="url(#pc7ce3d2402)" style="fill: none; stroke: #3aa99f; stroke-width: 2.6; stroke-linecap: square"/>
   </g>
   <g id="line2d_29">
    <path d="M 70.012857 277.041558 
L 641.34 277.041558 
" clip-path="url(#pc7ce3d2402)" style="fill: none; stroke-dasharray: 0.9,1.485; stroke-dashoffset: 0; stroke: #878580; stroke-width: 0.9"/>
   </g>
   <g id="line2d_30">
    <path d="M 225.829351 343.46 
L 225.829351 99.925714 
" clip-path="url(#pc7ce3d2402)" style="fill: none; stroke-dasharray: 4.44,1.92; stroke-dashoffset: 0; stroke: #6f6e69; stroke-opacity: 0.75; stroke-width: 1.2"/>
   </g>
   <g id="patch_3">
    <path d="M 70.012857 343.46 
L 70.012857 99.925714 
" style="fill: none; stroke: #cecdc3; stroke-width: 0.8; stroke-linejoin: miter; stroke-linecap: square"/>
   </g>
   <g id="patch_4">
    <path d="M 70.012857 343.46 
L 641.34 343.46 
" style="fill: none; stroke: #cecdc3; stroke-width: 0.8; stroke-linejoin: miter; stroke-linecap: square"/>
   </g>
   <g id="patch_5">
    <path d="M 284.472591 315.104608 
Q 256.827873 297.161495 229.183154 279.218382 
" style="fill: none; opacity: 0.75; stroke: #6f6e69; stroke-width: 0.9; stroke-linecap: round"/>
   </g>
   <g id="text_21">
    <g id="patch_6">
     <path d="M 239.077351 338.958849 
L 366.650038 338.958849 
Q 367.778038 338.958849 367.778038 337.830849 
L 367.778038 316.233174 
Q 367.778038 315.105174 366.650038 315.105174 
L 239.077351 315.105174 
Q 237.949351 315.105174 237.949351 316.233174 
L 237.949351 337.830849 
Q 237.949351 338.958849 239.077351 338.958849 
z
" style="fill: #fffcf0; opacity: 0.96"/>
    </g>
    <!-- $q=1$: $I/K=0$ -->
    <g style="fill: #6f6e69" transform="translate(239.829351 324.127705) scale(0.094 -0.094)">
     <defs>
      <path id="DejaVuSans-3d" d="M 678 2906 
L 4684 2906 
L 4684 2381 
L 678 2381 
L 678 2906 
z
M 678 1631 
L 4684 1631 
L 4684 1100 
L 678 1100 
L 678 1631 
z
" transform="scale(0.015625)"/>
      <path id="DejaVuSans-3a" d="M 750 794 
L 1409 794 
L 1409 0 
L 750 0 
L 750 794 
z
M 750 3309 
L 1409 3309 
L 1409 2516 
L 750 2516 
L 750 3309 
z
" transform="scale(0.015625)"/>
     </defs>
     <use xlink:href="#DejaVuSans-Oblique-71" transform="translate(0 0.78125)"/>
     <use xlink:href="#DejaVuSans-3d" transform="translate(82.958984 0.78125)"/>
     <use xlink:href="#DejaVuSans-31" transform="translate(186.230469 0.78125)"/>
     <use xlink:href="#DejaVuSans-3a" transform="translate(249.853516 0.78125)"/>
     <use xlink:href="#DejaVuSans-20" transform="translate(283.544922 0.78125)"/>
     <use xlink:href="#DejaVuSans-Oblique-49" transform="translate(315.332031 0.78125)"/>
     <use xlink:href="#DejaVuSans-2f" transform="translate(344.824219 0.78125)"/>
     <use xlink:href="#DejaVuSans-Oblique-4b" transform="translate(378.515625 0.78125)"/>
     <use xlink:href="#DejaVuSans-3d" transform="translate(463.574219 0.78125)"/>
     <use xlink:href="#DejaVuSans-30" transform="translate(566.845703 0.78125)"/>
    </g>
    <!-- (sem investimento líquido) -->
    <g style="fill: #6f6e69" transform="translate(239.829351 335.123943) scale(0.094 -0.094)">
     <defs>
      <path id="DejaVuSans-ed" d="M 1322 5119 
L 1944 5119 
L 926 3944 
L 447 3944 
L 1322 5119 
z
M 603 3500 
L 1178 3500 
L 1178 0 
L 603 0 
L 603 3500 
z
M 891 3584 
L 891 3584 
z
" transform="scale(0.015625)"/>
      <path id="DejaVuSans-71" d="M 947 1747 
Q 947 1113 1208 752 
Q 1469 391 1925 391 
Q 2381 391 2643 752 
Q 2906 1113 2906 1747 
Q 2906 2381 2643 2742 
Q 2381 3103 1925 3103 
Q 1469 3103 1208 2742 
Q 947 2381 947 1747 
z
M 2906 525 
Q 2725 213 2448 61 
Q 2172 -91 1784 -91 
Q 1150 -91 751 415 
Q 353 922 353 1747 
Q 353 2572 751 3078 
Q 1150 3584 1784 3584 
Q 2172 3584 2448 3432 
Q 2725 3281 2906 2969 
L 2906 3500 
L 3481 3500 
L 3481 -1331 
L 2906 -1331 
L 2906 525 
z
" transform="scale(0.015625)"/>
      <path id="DejaVuSans-75" d="M 544 1381 
L 544 3500 
L 1119 3500 
L 1119 1403 
Q 1119 906 1312 657 
Q 1506 409 1894 409 
Q 2359 409 2629 706 
Q 2900 1003 2900 1516 
L 2900 3500 
L 3475 3500 
L 3475 0 
L 2900 0 
L 2900 538 
Q 2691 219 2414 64 
Q 2138 -91 1772 -91 
Q 1169 -91 856 284 
Q 544 659 544 1381 
z
M 1991 3584 
L 1991 3584 
z
" transform="scale(0.015625)"/>
     </defs>
     <use xlink:href="#DejaVuSans-28"/>
     <use xlink:href="#DejaVuSans-73" transform="translate(39.013672 0)"/>
     <use xlink:href="#DejaVuSans-65" transform="translate(91.113281 0)"/>
     <use xlink:href="#DejaVuSans-6d" transform="translate(152.636719 0)"/>
     <use xlink:href="#DejaVuSans-20" transform="translate(250.048828 0)"/>
     <use xlink:href="#DejaVuSans-69" transform="translate(281.835938 0)"/>
     <use xlink:href="#DejaVuSans-6e" transform="translate(309.619141 0)"/>
     <use xlink:href="#DejaVuSans-76" transform="translate(372.998047 0)"/>
     <use xlink:href="#DejaVuSans-65" transform="translate(432.177734 0)"/>
     <use xlink:href="#DejaVuSans-73" transform="translate(493.701172 0)"/>
     <use xlink:href="#DejaVuSans-74" transform="translate(545.800781 0)"/>
     <use xlink:href="#DejaVuSans-69" transform="translate(585.009766 0)"/>
     <use xlink:href="#DejaVuSans-6d" transform="translate(612.792969 0)"/>
     <use xlink:href="#DejaVuSans-65" transform="translate(710.205078 0)"/>
     <use xlink:href="#DejaVuSans-6e" transform="translate(771.728516 0)"/>
     <use xlink:href="#DejaVuSans-74" transform="translate(835.107422 0)"/>
     <use xlink:href="#DejaVuSans-6f" transform="translate(874.316406 0)"/>
     <use xlink:href="#DejaVuSans-20" transform="translate(935.498047 0)"/>
     <use xlink:href="#DejaVuSans-6c" transform="translate(967.285156 0)"/>
     <use xlink:href="#DejaVuSans-ed" transform="translate(995.068359 0)"/>
     <use xlink:href="#DejaVuSans-71" transform="translate(1022.851562 0)"/>
     <use xlink:href="#DejaVuSans-75" transform="translate(1086.328125 0)"/>
     <use xlink:href="#DejaVuSans-69" transform="translate(1149.707031 0)"/>
     <use xlink:href="#DejaVuSans-64" transform="translate(1177.490234 0)"/>
     <use xlink:href="#DejaVuSans-6f" transform="translate(1240.966797 0)"/>
     <use xlink:href="#DejaVuSans-29" transform="translate(1302.148438 0)"/>
    </g>
   </g>
   <g id="text_22">
    <g id="patch_7">
     <path d="M 457.401465 147.608255 
L 567.663465 147.608255 
Q 568.791465 147.608255 568.791465 146.480255 
L 568.791465 135.764255 
Q 568.791465 134.636255 567.663465 134.636255 
L 457.401465 134.636255 
Q 456.273465 134.636255 456.273465 135.764255 
L 456.273465 146.480255 
Q 456.273465 147.608255 457.401465 147.608255 
z
" style="fill: #fffcf0; opacity: 0.96"/>
    </g>
    <!-- Inclinação = $1/a = 0.50$ -->
    <g style="fill: #bc5215" transform="translate(458.153465 143.773349) scale(0.094 -0.094)">
     <defs>
      <path id="DejaVuSans-49" d="M 628 4666 
L 1259 4666 
L 1259 0 
L 628 0 
L 628 4666 
z
" transform="scale(0.015625)"/>
      <path id="DejaVuSans-63" d="M 3122 3366 
L 3122 2828 
Q 2878 2963 2633 3030 
Q 2388 3097 2138 3097 
Q 1578 3097 1268 2742 
Q 959 2388 959 1747 
Q 959 1106 1268 751 
Q 1578 397 2138 397 
Q 2388 397 2633 464 
Q 2878 531 3122 666 
L 3122 134 
Q 2881 22 2623 -34 
Q 2366 -91 2075 -91 
Q 1284 -91 818 406 
Q 353 903 353 1747 
Q 353 2603 823 3093 
Q 1294 3584 2113 3584 
Q 2378 3584 2631 3529 
Q 2884 3475 3122 3366 
z
" transform="scale(0.015625)"/>
      <path id="DejaVuSans-e7" d="M 3122 3366 
L 3122 2828 
Q 2878 2963 2633 3030 
Q 2388 3097 2138 3097 
Q 1578 3097 1268 2742 
Q 959 2388 959 1747 
Q 959 1106 1268 751 
Q 1578 397 2138 397 
Q 2388 397 2633 464 
Q 2878 531 3122 666 
L 3122 134 
Q 2881 22 2623 -34 
Q 2366 -91 2075 -91 
Q 1284 -91 818 406 
Q 353 903 353 1747 
Q 353 2603 823 3093 
Q 1294 3584 2113 3584 
Q 2378 3584 2631 3529 
Q 2884 3475 3122 3366 
z
M 2311 0 
Q 2482 -194 2566 -358 
Q 2651 -522 2651 -672 
Q 2651 -950 2463 -1092 
Q 2276 -1234 1907 -1234 
Q 1764 -1234 1628 -1215 
Q 1492 -1197 1357 -1159 
L 1357 -750 
Q 1464 -803 1579 -826 
Q 1695 -850 1842 -850 
Q 2026 -850 2120 -775 
Q 2214 -700 2214 -556 
Q 2214 -463 2146 -327 
Q 2079 -191 1939 0 
L 2311 0 
z
" transform="scale(0.015625)"/>
      <path id="DejaVuSans-e3" d="M 2194 1759 
Q 1497 1759 1228 1600 
Q 959 1441 959 1056 
Q 959 750 1161 570 
Q 1363 391 1709 391 
Q 2188 391 2477 730 
Q 2766 1069 2766 1631 
L 2766 1759 
L 2194 1759 
z
M 3341 1997 
L 3341 0 
L 2766 0 
L 2766 531 
Q 2569 213 2275 61 
Q 1981 -91 1556 -91 
Q 1019 -91 701 211 
Q 384 513 384 1019 
Q 384 1609 779 1909 
Q 1175 2209 1959 2209 
L 2766 2209 
L 2766 2266 
Q 2766 2663 2505 2880 
Q 2244 3097 1772 3097 
Q 1472 3097 1187 3025 
Q 903 2953 641 2809 
L 641 3341 
Q 956 3463 1253 3523 
Q 1550 3584 1831 3584 
Q 2591 3584 2966 3190 
Q 3341 2797 3341 1997 
z
M 1844 4281 
L 1665 4453 
Q 1597 4516 1545 4545 
Q 1494 4575 1453 4575 
Q 1334 4575 1278 4461 
Q 1222 4347 1215 4091 
L 825 4091 
Q 831 4513 990 4742 
Q 1150 4972 1434 4972 
Q 1553 4972 1653 4928 
Q 1753 4884 1869 4781 
L 2047 4609 
Q 2115 4547 2167 4517 
Q 2219 4488 2259 4488 
Q 2378 4488 2434 4602 
Q 2490 4716 2497 4972 
L 2887 4972 
Q 2881 4550 2721 4320 
Q 2562 4091 2278 4091 
Q 2159 4091 2059 4134 
Q 1959 4178 1844 4281 
z
" transform="scale(0.015625)"/>
      <path id="DejaVuSans-Oblique-61" d="M 3438 1997 
L 3047 0 
L 2472 0 
L 2578 531 
Q 2325 219 2001 64 
Q 1678 -91 1281 -91 
Q 834 -91 548 182 
Q 263 456 263 884 
Q 263 1497 752 1853 
Q 1241 2209 2100 2209 
L 2900 2209 
L 2931 2363 
Q 2938 2388 2941 2417 
Q 2944 2447 2944 2509 
Q 2944 2788 2717 2942 
Q 2491 3097 2081 3097 
Q 1800 3097 1504 3025 
Q 1209 2953 897 2809 
L 997 3341 
Q 1322 3463 1633 3523 
Q 1944 3584 2234 3584 
Q 2853 3584 3176 3315 
Q 3500 3047 3500 2534 
Q 3500 2431 3484 2292 
Q 3469 2153 3438 1997 
z
M 2816 1759 
L 2241 1759 
Q 1534 1759 1195 1570 
Q 856 1381 856 984 
Q 856 709 1029 553 
Q 1203 397 1509 397 
Q 1978 397 2328 733 
Q 2678 1069 2791 1631 
L 2816 1759 
z
" transform="scale(0.015625)"/>
      <path id="DejaVuSans-2e" d="M 684 794 
L 1344 794 
L 1344 0 
L 684 0 
L 684 794 
z
" transform="scale(0.015625)"/>
     </defs>
     <use xlink:href="#DejaVuSans-49" transform="translate(0 0.3125)"/>
     <use xlink:href="#DejaVuSans-6e" transform="translate(29.492188 0.3125)"/>
     <use xlink:href="#DejaVuSans-63" transform="translate(92.871094 0.3125)"/>
     <use xlink:href="#DejaVuSans-6c" transform="translate(147.851562 0.3125)"/>
     <use xlink:href="#DejaVuSans-69" transform="translate(175.634766 0.3125)"/>
     <use xlink:href="#DejaVuSans-6e" transform="translate(203.417969 0.3125)"/>
     <use xlink:href="#DejaVuSans-61" transform="translate(266.796875 0.3125)"/>
     <use xlink:href="#DejaVuSans-e7" transform="translate(328.076172 0.3125)"/>
     <use xlink:href="#DejaVuSans-e3" transform="translate(383.056641 0.3125)"/>
     <use xlink:href="#DejaVuSans-6f" transform="translate(444.335938 0.3125)"/>
     <use xlink:href="#DejaVuSans-20" transform="translate(505.517578 0.3125)"/>
     <use xlink:href="#DejaVuSans-3d" transform="translate(537.304688 0.3125)"/>
     <use xlink:href="#DejaVuSans-20" transform="translate(621.09375 0.3125)"/>
     <use xlink:href="#DejaVuSans-31" transform="translate(652.880859 0.3125)"/>
     <use xlink:href="#DejaVuSans-2f" transform="translate(716.503906 0.3125)"/>
     <use xlink:href="#DejaVuSans-Oblique-61" transform="translate(750.195312 0.3125)"/>
     <use xlink:href="#DejaVuSans-3d" transform="translate(830.957031 0.3125)"/>
     <use xlink:href="#DejaVuSans-30" transform="translate(934.228516 0.3125)"/>
     <use xlink:href="#DejaVuSans-2e" transform="translate(997.851562 0.3125)"/>
     <use xlink:href="#DejaVuSans-35" transform="translate(1029.638672 0.3125)"/>
     <use xlink:href="#DejaVuSans-30" transform="translate(1093.261719 0.3125)"/>
    </g>
   </g>
  </g>
  <g id="text_23">
   <!-- Investimento: relação linear $I/K = (q-1)/a$ -->
   <g style="fill: #1c1b1a" transform="translate(14.4 26.88) scale(0.16 -0.16)">
    <defs>
     <path id="DejaVuSans-Bold-49" d="M 588 4666 
L 1791 4666 
L 1791 0 
L 588 0 
L 588 4666 
z
" transform="scale(0.015625)"/>
     <path id="DejaVuSans-Bold-6e" d="M 4056 2131 
L 4056 0 
L 2931 0 
L 2931 347 
L 2931 1631 
Q 2931 2084 2911 2256 
Q 2891 2428 2841 2509 
Q 2775 2619 2662 2680 
Q 2550 2741 2406 2741 
Q 2056 2741 1856 2470 
Q 1656 2200 1656 1722 
L 1656 0 
L 538 0 
L 538 3500 
L 1656 3500 
L 1656 2988 
Q 1909 3294 2193 3439 
Q 2478 3584 2822 3584 
Q 3428 3584 3742 3212 
Q 4056 2841 4056 2131 
z
" transform="scale(0.015625)"/>
     <path id="DejaVuSans-Bold-76" d="M 97 3500 
L 1216 3500 
L 2088 1081 
L 2956 3500 
L 4078 3500 
L 2700 0 
L 1472 0 
L 97 3500 
z
" transform="scale(0.015625)"/>
     <path id="DejaVuSans-Bold-65" d="M 4031 1759 
L 4031 1441 
L 1416 1441 
Q 1456 1047 1700 850 
Q 1944 653 2381 653 
Q 2734 653 3104 758 
Q 3475 863 3866 1075 
L 3866 213 
Q 3469 63 3072 -14 
Q 2675 -91 2278 -91 
Q 1328 -91 801 392 
Q 275 875 275 1747 
Q 275 2603 792 3093 
Q 1309 3584 2216 3584 
Q 3041 3584 3536 3087 
Q 4031 2591 4031 1759 
z
M 2881 2131 
Q 2881 2450 2695 2645 
Q 2509 2841 2209 2841 
Q 1884 2841 1681 2658 
Q 1478 2475 1428 2131 
L 2881 2131 
z
" transform="scale(0.015625)"/>
     <path id="DejaVuSans-Bold-73" d="M 3272 3391 
L 3272 2541 
Q 2913 2691 2578 2766 
Q 2244 2841 1947 2841 
Q 1628 2841 1473 2761 
Q 1319 2681 1319 2516 
Q 1319 2381 1436 2309 
Q 1553 2238 1856 2203 
L 2053 2175 
Q 2913 2066 3209 1816 
Q 3506 1566 3506 1031 
Q 3506 472 3093 190 
Q 2681 -91 1863 -91 
Q 1516 -91 1145 -36 
Q 775 19 384 128 
L 384 978 
Q 719 816 1070 734 
Q 1422 653 1784 653 
Q 2113 653 2278 743 
Q 2444 834 2444 1013 
Q 2444 1163 2330 1236 
Q 2216 1309 1875 1350 
L 1678 1375 
Q 931 1469 631 1722 
Q 331 1975 331 2491 
Q 331 3047 712 3315 
Q 1094 3584 1881 3584 
Q 2191 3584 2531 3537 
Q 2872 3491 3272 3391 
z
" transform="scale(0.015625)"/>
     <path id="DejaVuSans-Bold-74" d="M 1759 4494 
L 1759 3500 
L 2913 3500 
L 2913 2700 
L 1759 2700 
L 1759 1216 
Q 1759 972 1856 886 
Q 1953 800 2241 800 
L 2816 800 
L 2816 0 
L 1856 0 
Q 1194 0 917 276 
Q 641 553 641 1216 
L 641 2700 
L 84 2700 
L 84 3500 
L 641 3500 
L 641 4494 
L 1759 4494 
z
" transform="scale(0.015625)"/>
     <path id="DejaVuSans-Bold-69" d="M 538 3500 
L 1656 3500 
L 1656 0 
L 538 0 
L 538 3500 
z
M 538 4863 
L 1656 4863 
L 1656 3950 
L 538 3950 
L 538 4863 
z
" transform="scale(0.015625)"/>
     <path id="DejaVuSans-Bold-6d" d="M 3781 2919 
Q 3994 3244 4286 3414 
Q 4578 3584 4928 3584 
Q 5531 3584 5847 3212 
Q 6163 2841 6163 2131 
L 6163 0 
L 5038 0 
L 5038 1825 
Q 5041 1866 5042 1909 
Q 5044 1953 5044 2034 
Q 5044 2406 4934 2573 
Q 4825 2741 4581 2741 
Q 4263 2741 4089 2478 
Q 3916 2216 3909 1719 
L 3909 0 
L 2784 0 
L 2784 1825 
Q 2784 2406 2684 2573 
Q 2584 2741 2328 2741 
Q 2006 2741 1831 2477 
Q 1656 2213 1656 1722 
L 1656 0 
L 531 0 
L 531 3500 
L 1656 3500 
L 1656 2988 
Q 1863 3284 2130 3434 
Q 2397 3584 2719 3584 
Q 3081 3584 3359 3409 
Q 3638 3234 3781 2919 
z
" transform="scale(0.015625)"/>
     <path id="DejaVuSans-Bold-6f" d="M 2203 2784 
Q 1831 2784 1636 2517 
Q 1441 2250 1441 1747 
Q 1441 1244 1636 976 
Q 1831 709 2203 709 
Q 2569 709 2762 976 
Q 2956 1244 2956 1747 
Q 2956 2250 2762 2517 
Q 2569 2784 2203 2784 
z
M 2203 3584 
Q 3106 3584 3614 3096 
Q 4122 2609 4122 1747 
Q 4122 884 3614 396 
Q 3106 -91 2203 -91 
Q 1297 -91 786 396 
Q 275 884 275 1747 
Q 275 2609 786 3096 
Q 1297 3584 2203 3584 
z
" transform="scale(0.015625)"/>
     <path id="DejaVuSans-Bold-3a" d="M 716 3500 
L 1844 3500 
L 1844 2291 
L 716 2291 
L 716 3500 
z
M 716 1209 
L 1844 1209 
L 1844 0 
L 716 0 
L 716 1209 
z
" transform="scale(0.015625)"/>
     <path id="DejaVuSans-Bold-20" transform="scale(0.015625)"/>
     <path id="DejaVuSans-Bold-72" d="M 3138 2547 
Q 2991 2616 2845 2648 
Q 2700 2681 2553 2681 
Q 2122 2681 1889 2404 
Q 1656 2128 1656 1613 
L 1656 0 
L 538 0 
L 538 3500 
L 1656 3500 
L 1656 2925 
Q 1872 3269 2151 3426 
Q 2431 3584 2822 3584 
Q 2878 3584 2943 3579 
Q 3009 3575 3134 3559 
L 3138 2547 
z
" transform="scale(0.015625)"/>
     <path id="DejaVuSans-Bold-6c" d="M 538 4863 
L 1656 4863 
L 1656 0 
L 538 0 
L 538 4863 
z
" transform="scale(0.015625)"/>
     <path id="DejaVuSans-Bold-61" d="M 2106 1575 
Q 1756 1575 1579 1456 
Q 1403 1338 1403 1106 
Q 1403 894 1545 773 
Q 1688 653 1941 653 
Q 2256 653 2472 879 
Q 2688 1106 2688 1447 
L 2688 1575 
L 2106 1575 
z
M 3816 1997 
L 3816 0 
L 2688 0 
L 2688 519 
Q 2463 200 2181 54 
Q 1900 -91 1497 -91 
Q 953 -91 614 226 
Q 275 544 275 1050 
Q 275 1666 698 1953 
Q 1122 2241 2028 2241 
L 2688 2241 
L 2688 2328 
Q 2688 2594 2478 2717 
Q 2269 2841 1825 2841 
Q 1466 2841 1156 2769 
Q 847 2697 581 2553 
L 581 3406 
Q 941 3494 1303 3539 
Q 1666 3584 2028 3584 
Q 2975 3584 3395 3211 
Q 3816 2838 3816 1997 
z
" transform="scale(0.015625)"/>
     <path id="DejaVuSans-Bold-e7" d="M 3366 3391 
L 3366 2478 
Q 3138 2634 2908 2709 
Q 2678 2784 2431 2784 
Q 1963 2784 1702 2511 
Q 1441 2238 1441 1747 
Q 1441 1256 1702 982 
Q 1963 709 2431 709 
Q 2694 709 2930 787 
Q 3166 866 3366 1019 
L 3366 103 
Q 3103 6 2833 -42 
Q 2563 -91 2291 -91 
Q 1344 -91 809 395 
Q 275 881 275 1747 
Q 275 2613 809 3098 
Q 1344 3584 2291 3584 
Q 2566 3584 2833 3536 
Q 3100 3488 3366 3391 
z
M 2457 0 
Q 2639 -194 2724 -359 
Q 2810 -525 2810 -672 
Q 2810 -969 2618 -1111 
Q 2426 -1253 2029 -1253 
Q 1879 -1253 1719 -1233 
Q 1560 -1213 1398 -1172 
L 1395 -697 
Q 1551 -747 1680 -770 
Q 1810 -794 1914 -794 
Q 2095 -794 2196 -722 
Q 2298 -650 2298 -525 
Q 2298 -444 2231 -316 
Q 2164 -188 2023 0 
L 2457 0 
z
" transform="scale(0.015625)"/>
     <path id="DejaVuSans-Bold-e3" d="M 2106 1575 
Q 1756 1575 1579 1456 
Q 1403 1338 1403 1106 
Q 1403 894 1545 773 
Q 1688 653 1941 653 
Q 2256 653 2472 879 
Q 2688 1106 2688 1447 
L 2688 1575 
L 2106 1575 
z
M 3816 1997 
L 3816 0 
L 2688 0 
L 2688 519 
Q 2463 200 2181 54 
Q 1900 -91 1497 -91 
Q 953 -91 614 226 
Q 275 544 275 1050 
Q 275 1666 698 1953 
Q 1122 2241 2028 2241 
L 2688 2241 
L 2688 2328 
Q 2688 2594 2478 2717 
Q 2269 2841 1825 2841 
Q 1466 2841 1156 2769 
Q 847 2697 581 2553 
L 581 3406 
Q 941 3494 1303 3539 
Q 1666 3584 2028 3584 
Q 2975 3584 3395 3211 
Q 3816 2838 3816 1997 
z
M 2190 4263 
L 2018 4378 
Q 2006 4384 1987 4397 
Q 1840 4494 1762 4494 
Q 1650 4494 1590 4397 
Q 1531 4300 1531 4116 
L 1531 4091 
L 1097 4091 
Q 1097 4516 1257 4747 
Q 1418 4978 1709 4978 
Q 1822 4978 1936 4936 
Q 2050 4894 2178 4800 
L 2368 4666 
Q 2437 4619 2495 4594 
Q 2553 4569 2600 4569 
Q 2712 4569 2774 4669 
Q 2837 4769 2837 4947 
L 2837 4972 
L 3272 4972 
Q 3272 4547 3111 4315 
Q 2950 4084 2659 4084 
Q 2547 4084 2442 4121 
Q 2337 4159 2190 4263 
z
" transform="scale(0.015625)"/>
     <path id="DejaVuSans-2212" d="M 678 2272 
L 4684 2272 
L 4684 1741 
L 678 1741 
L 678 2272 
z
" transform="scale(0.015625)"/>
    </defs>
    <use xlink:href="#DejaVuSans-Bold-49" transform="translate(0 0.21875)"/>
    <use xlink:href="#DejaVuSans-Bold-6e" transform="translate(37.207031 0.21875)"/>
    <use xlink:href="#DejaVuSans-Bold-76" transform="translate(108.398438 0.21875)"/>
    <use xlink:href="#DejaVuSans-Bold-65" transform="translate(173.583984 0.21875)"/>
    <use xlink:href="#DejaVuSans-Bold-73" transform="translate(241.40625 0.21875)"/>
    <use xlink:href="#DejaVuSans-Bold-74" transform="translate(300.927734 0.21875)"/>
    <use xlink:href="#DejaVuSans-Bold-69" transform="translate(348.730469 0.21875)"/>
    <use xlink:href="#DejaVuSans-Bold-6d" transform="translate(383.007812 0.21875)"/>
    <use xlink:href="#DejaVuSans-Bold-65" transform="translate(487.207031 0.21875)"/>
    <use xlink:href="#DejaVuSans-Bold-6e" transform="translate(555.029297 0.21875)"/>
    <use xlink:href="#DejaVuSans-Bold-74" transform="translate(626.220703 0.21875)"/>
    <use xlink:href="#DejaVuSans-Bold-6f" transform="translate(674.023438 0.21875)"/>
    <use xlink:href="#DejaVuSans-Bold-3a" transform="translate(742.724609 0.21875)"/>
    <use xlink:href="#DejaVuSans-Bold-20" transform="translate(782.714844 0.21875)"/>
    <use xlink:href="#DejaVuSans-Bold-72" transform="translate(817.529297 0.21875)"/>
    <use xlink:href="#DejaVuSans-Bold-65" transform="translate(866.845703 0.21875)"/>
    <use xlink:href="#DejaVuSans-Bold-6c" transform="translate(934.667969 0.21875)"/>
    <use xlink:href="#DejaVuSans-Bold-61" transform="translate(968.945312 0.21875)"/>
    <use xlink:href="#DejaVuSans-Bold-e7" transform="translate(1036.425781 0.21875)"/>
    <use xlink:href="#DejaVuSans-Bold-e3" transform="translate(1095.703125 0.21875)"/>
    <use xlink:href="#DejaVuSans-Bold-6f" transform="translate(1163.183594 0.21875)"/>
    <use xlink:href="#DejaVuSans-Bold-20" transform="translate(1231.884766 0.21875)"/>
    <use xlink:href="#DejaVuSans-Bold-6c" transform="translate(1266.699219 0.21875)"/>
    <use xlink:href="#DejaVuSans-Bold-69" transform="translate(1300.976562 0.21875)"/>
    <use xlink:href="#DejaVuSans-Bold-6e" transform="translate(1335.253906 0.21875)"/>
    <use xlink:href="#DejaVuSans-Bold-65" transform="translate(1406.445312 0.21875)"/>
    <use xlink:href="#DejaVuSans-Bold-61" transform="translate(1474.267578 0.21875)"/>
    <use xlink:href="#DejaVuSans-Bold-72" transform="translate(1541.748047 0.21875)"/>
    <use xlink:href="#DejaVuSans-Bold-20" transform="translate(1591.064453 0.21875)"/>
    <use xlink:href="#DejaVuSans-Oblique-49" transform="translate(1625.878906 0.21875)"/>
    <use xlink:href="#DejaVuSans-2f" transform="translate(1655.371094 0.21875)"/>
    <use xlink:href="#DejaVuSans-Oblique-4b" transform="translate(1689.0625 0.21875)"/>
    <use xlink:href="#DejaVuSans-3d" transform="translate(1774.121094 0.21875)"/>
    <use xlink:href="#DejaVuSans-28" transform="translate(1877.392578 0.21875)"/>
    <use xlink:href="#DejaVuSans-Oblique-71" transform="translate(1916.40625 0.21875)"/>
    <use xlink:href="#DejaVuSans-2212" transform="translate(1999.365234 0.21875)"/>
    <use xlink:href="#DejaVuSans-31" transform="translate(2102.636719 0.21875)"/>
    <use xlink:href="#DejaVuSans-29" transform="translate(2166.259766 0.21875)"/>
    <use xlink:href="#DejaVuSans-2f" transform="translate(2205.273438 0.21875)"/>
    <use xlink:href="#DejaVuSans-Oblique-61" transform="translate(2238.964844 0.21875)"/>
   </g>
  </g>
  <g id="text_24">
   <!-- Custos de ajustamento convexos implicam que o investimento responde linearmente a $q$, com inclinação $1/a$. -->
   <g style="fill: #6f6e69" transform="translate(14.4 39.636) scale(0.102 -0.102)">
    <defs>
     <path id="DejaVuSans-43" d="M 4122 4306 
L 4122 3641 
Q 3803 3938 3442 4084 
Q 3081 4231 2675 4231 
Q 1875 4231 1450 3742 
Q 1025 3253 1025 2328 
Q 1025 1406 1450 917 
Q 1875 428 2675 428 
Q 3081 428 3442 575 
Q 3803 722 4122 1019 
L 4122 359 
Q 3791 134 3420 21 
Q 3050 -91 2638 -91 
Q 1578 -91 968 557 
Q 359 1206 359 2328 
Q 359 3453 968 4101 
Q 1578 4750 2638 4750 
Q 3056 4750 3426 4639 
Q 3797 4528 4122 4306 
z
" transform="scale(0.015625)"/>
     <path id="DejaVuSans-6a" d="M 603 3500 
L 1178 3500 
L 1178 -63 
Q 1178 -731 923 -1031 
Q 669 -1331 103 -1331 
L -116 -1331 
L -116 -844 
L 38 -844 
Q 366 -844 484 -692 
Q 603 -541 603 -63 
L 603 3500 
z
M 603 4863 
L 1178 4863 
L 1178 4134 
L 603 4134 
L 603 4863 
z
" transform="scale(0.015625)"/>
     <path id="DejaVuSans-70" d="M 1159 525 
L 1159 -1331 
L 581 -1331 
L 581 3500 
L 1159 3500 
L 1159 2969 
Q 1341 3281 1617 3432 
Q 1894 3584 2278 3584 
Q 2916 3584 3314 3078 
Q 3713 2572 3713 1747 
Q 3713 922 3314 415 
Q 2916 -91 2278 -91 
Q 1894 -91 1617 61 
Q 1341 213 1159 525 
z
M 3116 1747 
Q 3116 2381 2855 2742 
Q 2594 3103 2138 3103 
Q 1681 3103 1420 2742 
Q 1159 2381 1159 1747 
Q 1159 1113 1420 752 
Q 1681 391 2138 391 
Q 2594 391 2855 752 
Q 3116 1113 3116 1747 
z
" transform="scale(0.015625)"/>
    </defs>
    <use xlink:href="#DejaVuSans-43" transform="translate(0 0.3125)"/>
    <use xlink:href="#DejaVuSans-75" transform="translate(69.824219 0.3125)"/>
    <use xlink:href="#DejaVuSans-73" transform="translate(133.203125 0.3125)"/>
    <use xlink:href="#DejaVuSans-74" transform="translate(185.302734 0.3125)"/>
    <use xlink:href="#DejaVuSans-6f" transform="translate(224.511719 0.3125)"/>
    <use xlink:href="#DejaVuSans-73" transform="translate(285.693359 0.3125)"/>
    <use xlink:href="#DejaVuSans-20" transform="translate(337.792969 0.3125)"/>
    <use xlink:href="#DejaVuSans-64" transform="translate(369.580078 0.3125)"/>
    <use xlink:href="#DejaVuSans-65" transform="translate(433.056641 0.3125)"/>
    <use xlink:href="#DejaVuSans-20" transform="translate(494.580078 0.3125)"/>
    <use xlink:href="#DejaVuSans-61" transform="translate(526.367188 0.3125)"/>
    <use xlink:href="#DejaVuSans-6a" transform="translate(587.646484 0.3125)"/>
    <use xlink:href="#DejaVuSans-75" transform="translate(615.429688 0.3125)"/>
    <use xlink:href="#DejaVuSans-73" transform="translate(678.808594 0.3125)"/>
    <use xlink:href="#DejaVuSans-74" transform="translate(730.908203 0.3125)"/>
    <use xlink:href="#DejaVuSans-61" transform="translate(770.117188 0.3125)"/>
    <use xlink:href="#DejaVuSans-6d" transform="translate(831.396484 0.3125)"/>
    <use xlink:href="#DejaVuSans-65" transform="translate(928.808594 0.3125)"/>
    <use xlink:href="#DejaVuSans-6e" transform="translate(990.332031 0.3125)"/>
    <use xlink:href="#DejaVuSans-74" transform="translate(1053.710938 0.3125)"/>
    <use xlink:href="#DejaVuSans-6f" transform="translate(1092.919922 0.3125)"/>
    <use xlink:href="#DejaVuSans-20" transform="translate(1154.101562 0.3125)"/>
    <use xlink:href="#DejaVuSans-63" transform="translate(1185.888672 0.3125)"/>
    <use xlink:href="#DejaVuSans-6f" transform="translate(1240.869141 0.3125)"/>
    <use xlink:href="#DejaVuSans-6e" transform="translate(1302.050781 0.3125)"/>
    <use xlink:href="#DejaVuSans-76" transform="translate(1365.429688 0.3125)"/>
    <use xlink:href="#DejaVuSans-65" transform="translate(1424.609375 0.3125)"/>
    <use xlink:href="#DejaVuSans-78" transform="translate(1486.132812 0.3125)"/>
    <use xlink:href="#DejaVuSans-6f" transform="translate(1545.3125 0.3125)"/>
    <use xlink:href="#DejaVuSans-73" transform="translate(1606.494141 0.3125)"/>
    <use xlink:href="#DejaVuSans-20" transform="translate(1658.59375 0.3125)"/>
    <use xlink:href="#DejaVuSans-69" transform="translate(1690.380859 0.3125)"/>
    <use xlink:href="#DejaVuSans-6d" transform="translate(1718.164062 0.3125)"/>
    <use xlink:href="#DejaVuSans-70" transform="translate(1815.576172 0.3125)"/>
    <use xlink:href="#DejaVuSans-6c" transform="translate(1879.052734 0.3125)"/>
    <use xlink:href="#DejaVuSans-69" transform="translate(1906.835938 0.3125)"/>
    <use xlink:href="#DejaVuSans-63" transform="translate(1934.619141 0.3125)"/>
    <use xlink:href="#DejaVuSans-61" transform="translate(1989.599609 0.3125)"/>
    <use xlink:href="#DejaVuSans-6d" transform="translate(2050.878906 0.3125)"/>
    <use xlink:href="#DejaVuSans-20" transform="translate(2148.291016 0.3125)"/>
    <use xlink:href="#DejaVuSans-71" transform="translate(2180.078125 0.3125)"/>
    <use xlink:href="#DejaVuSans-75" transform="translate(2243.554688 0.3125)"/>
    <use xlink:href="#DejaVuSans-65" transform="translate(2306.933594 0.3125)"/>
    <use xlink:href="#DejaVuSans-20" transform="translate(2368.457031 0.3125)"/>
    <use xlink:href="#DejaVuSans-6f" transform="translate(2400.244141 0.3125)"/>
    <use xlink:href="#DejaVuSans-20" transform="translate(2461.425781 0.3125)"/>
    <use xlink:href="#DejaVuSans-69" transform="translate(2493.212891 0.3125)"/>
    <use xlink:href="#DejaVuSans-6e" transform="translate(2520.996094 0.3125)"/>
    <use xlink:href="#DejaVuSans-76" transform="translate(2584.375 0.3125)"/>
    <use xlink:href="#DejaVuSans-65" transform="translate(2643.554688 0.3125)"/>
    <use xlink:href="#DejaVuSans-73" transform="translate(2705.078125 0.3125)"/>
    <use xlink:href="#DejaVuSans-74" transform="translate(2757.177734 0.3125)"/>
    <use xlink:href="#DejaVuSans-69" transform="translate(2796.386719 0.3125)"/>
    <use xlink:href="#DejaVuSans-6d" transform="translate(2824.169922 0.3125)"/>
    <use xlink:href="#DejaVuSans-65" transform="translate(2921.582031 0.3125)"/>
    <use xlink:href="#DejaVuSans-6e" transform="translate(2983.105469 0.3125)"/>
    <use xlink:href="#DejaVuSans-74" transform="translate(3046.484375 0.3125)"/>
    <use xlink:href="#DejaVuSans-6f" transform="translate(3085.693359 0.3125)"/>
    <use xlink:href="#DejaVuSans-20" transform="translate(3146.875 0.3125)"/>
    <use xlink:href="#DejaVuSans-72" transform="translate(3178.662109 0.3125)"/>
    <use xlink:href="#DejaVuSans-65" transform="translate(3219.775391 0.3125)"/>
    <use xlink:href="#DejaVuSans-73" transform="translate(3281.298828 0.3125)"/>
    <use xlink:href="#DejaVuSans-70" transform="translate(3333.398438 0.3125)"/>
    <use xlink:href="#DejaVuSans-6f" transform="translate(3396.875 0.3125)"/>
    <use xlink:href="#DejaVuSans-6e" transform="translate(3458.056641 0.3125)"/>
    <use xlink:href="#DejaVuSans-64" transform="translate(3521.435547 0.3125)"/>
    <use xlink:href="#DejaVuSans-65" transform="translate(3584.912109 0.3125)"/>
    <use xlink:href="#DejaVuSans-20" transform="translate(3646.435547 0.3125)"/>
    <use xlink:href="#DejaVuSans-6c" transform="translate(3678.222656 0.3125)"/>
    <use xlink:href="#DejaVuSans-69" transform="translate(3706.005859 0.3125)"/>
    <use xlink:href="#DejaVuSans-6e" transform="translate(3733.789062 0.3125)"/>
    <use xlink:href="#DejaVuSans-65" transform="translate(3797.167969 0.3125)"/>
    <use xlink:href="#DejaVuSans-61" transform="translate(3858.691406 0.3125)"/>
    <use xlink:href="#DejaVuSans-72" transform="translate(3919.970703 0.3125)"/>
    <use xlink:href="#DejaVuSans-6d" transform="translate(3961.083984 0.3125)"/>
    <use xlink:href="#DejaVuSans-65" transform="translate(4058.496094 0.3125)"/>
    <use xlink:href="#DejaVuSans-6e" transform="translate(4120.019531 0.3125)"/>
    <use xlink:href="#DejaVuSans-74" transform="translate(4183.398438 0.3125)"/>
    <use xlink:href="#DejaVuSans-65" transform="translate(4222.607422 0.3125)"/>
    <use xlink:href="#DejaVuSans-20" transform="translate(4284.130859 0.3125)"/>
    <use xlink:href="#DejaVuSans-61" transform="translate(4315.917969 0.3125)"/>
    <use xlink:href="#DejaVuSans-20" transform="translate(4377.197266 0.3125)"/>
    <use xlink:href="#DejaVuSans-Oblique-71" transform="translate(4408.984375 0.3125)"/>
    <use xlink:href="#DejaVuSans-2c" transform="translate(4472.460938 0.3125)"/>
    <use xlink:href="#DejaVuSans-20" transform="translate(4504.248047 0.3125)"/>
    <use xlink:href="#DejaVuSans-63" transform="translate(4536.035156 0.3125)"/>
    <use xlink:href="#DejaVuSans-6f" transform="translate(4591.015625 0.3125)"/>
    <use xlink:href="#DejaVuSans-6d" transform="translate(4652.197266 0.3125)"/>
    <use xlink:href="#DejaVuSans-20" transform="translate(4749.609375 0.3125)"/>
    <use xlink:href="#DejaVuSans-69" transform="translate(4781.396484 0.3125)"/>
    <use xlink:href="#DejaVuSans-6e" transform="translate(4809.179688 0.3125)"/>
    <use xlink:href="#DejaVuSans-63" transform="translate(4872.558594 0.3125)"/>
    <use xlink:href="#DejaVuSans-6c" transform="translate(4927.539062 0.3125)"/>
    <use xlink:href="#DejaVuSans-69" transform="translate(4955.322266 0.3125)"/>
    <use xlink:href="#DejaVuSans-6e" transform="translate(4983.105469 0.3125)"/>
    <use xlink:href="#DejaVuSans-61" transform="translate(5046.484375 0.3125)"/>
    <use xlink:href="#DejaVuSans-e7" transform="translate(5107.763672 0.3125)"/>
    <use xlink:href="#DejaVuSans-e3" transform="translate(5162.744141 0.3125)"/>
    <use xlink:href="#DejaVuSans-6f" transform="translate(5224.023438 0.3125)"/>
    <use xlink:href="#DejaVuSans-20" transform="translate(5285.205078 0.3125)"/>
    <use xlink:href="#DejaVuSans-31" transform="translate(5316.992188 0.3125)"/>
    <use xlink:href="#DejaVuSans-2f" transform="translate(5380.615234 0.3125)"/>
    <use xlink:href="#DejaVuSans-Oblique-61" transform="translate(5414.306641 0.3125)"/>
    <use xlink:href="#DejaVuSans-2e" transform="translate(5475.585938 0.3125)"/>
   </g>
  </g>
  <g id="text_25">
   <!-- Obs.: a=2.0 · δ=0.06. Pelo teorema de Hayashi, q marginal = q médio (Q de Tobin observável). -->
   <g style="fill: #6f6e69" transform="translate(14.4 425.150672) scale(0.087 -0.087)">
    <defs>
     <path id="DejaVuSans-4f" d="M 2522 4238 
Q 1834 4238 1429 3725 
Q 1025 3213 1025 2328 
Q 1025 1447 1429 934 
Q 1834 422 2522 422 
Q 3209 422 3611 934 
Q 4013 1447 4013 2328 
Q 4013 3213 3611 3725 
Q 3209 4238 2522 4238 
z
M 2522 4750 
Q 3503 4750 4090 4092 
Q 4678 3434 4678 2328 
Q 4678 1225 4090 567 
Q 3503 -91 2522 -91 
Q 1538 -91 948 565 
Q 359 1222 359 2328 
Q 359 3434 948 4092 
Q 1538 4750 2522 4750 
z
" transform="scale(0.015625)"/>
     <path id="DejaVuSans-b7" d="M 684 2619 
L 1344 2619 
L 1344 1825 
L 684 1825 
L 684 2619 
z
" transform="scale(0.015625)"/>
     <path id="DejaVuSans-3b4" d="M 3138 4053 
Q 2819 4272 2072 4272 
Q 1281 4272 1281 3906 
Q 1281 3619 2106 3469 
Q 2756 3353 3122 3003 
Q 3566 2581 3566 1716 
Q 3566 888 3138 400 
Q 2709 -91 1959 -91 
Q 1213 -91 781 400 
Q 353 888 353 1747 
Q 353 2384 781 2900 
Q 947 3100 1181 3213 
Q 694 3459 694 3900 
Q 694 4750 2072 4750 
Q 2763 4750 3138 4531 
L 3138 4053 
z
M 1613 3056 
Q 1400 2966 1228 2738 
Q 959 2384 959 1747 
Q 959 1113 1225 756 
Q 1494 397 1959 397 
Q 2419 397 2687 759 
Q 2956 1122 2956 1716 
Q 2956 2338 2672 2638 
Q 2369 2959 1975 2994 
Q 1775 3013 1613 3056 
z
" transform="scale(0.015625)"/>
     <path id="DejaVuSans-50" d="M 1259 4147 
L 1259 2394 
L 2053 2394 
Q 2494 2394 2734 2622 
Q 2975 2850 2975 3272 
Q 2975 3691 2734 3919 
Q 2494 4147 2053 4147 
L 1259 4147 
z
M 628 4666 
L 2053 4666 
Q 2838 4666 3239 4311 
Q 3641 3956 3641 3272 
Q 3641 2581 3239 2228 
Q 2838 1875 2053 1875 
L 1259 1875 
L 1259 0 
L 628 0 
L 628 4666 
z
" transform="scale(0.015625)"/>
     <path id="DejaVuSans-48" d="M 628 4666 
L 1259 4666 
L 1259 2753 
L 3553 2753 
L 3553 4666 
L 4184 4666 
L 4184 0 
L 3553 0 
L 3553 2222 
L 1259 2222 
L 1259 0 
L 628 0 
L 628 4666 
z
" transform="scale(0.015625)"/>
     <path id="DejaVuSans-79" d="M 2059 -325 
Q 1816 -950 1584 -1140 
Q 1353 -1331 966 -1331 
L 506 -1331 
L 506 -850 
L 844 -850 
Q 1081 -850 1212 -737 
Q 1344 -625 1503 -206 
L 1606 56 
L 191 3500 
L 800 3500 
L 1894 763 
L 2988 3500 
L 3597 3500 
L 2059 -325 
z
" transform="scale(0.015625)"/>
     <path id="DejaVuSans-68" d="M 3513 2113 
L 3513 0 
L 2938 0 
L 2938 2094 
Q 2938 2591 2744 2837 
Q 2550 3084 2163 3084 
Q 1697 3084 1428 2787 
Q 1159 2491 1159 1978 
L 1159 0 
L 581 0 
L 581 4863 
L 1159 4863 
L 1159 2956 
Q 1366 3272 1645 3428 
Q 1925 3584 2291 3584 
Q 2894 3584 3203 3211 
Q 3513 2838 3513 2113 
z
" transform="scale(0.015625)"/>
     <path id="DejaVuSans-e9" d="M 3597 1894 
L 3597 1613 
L 953 1613 
Q 991 1019 1311 708 
Q 1631 397 2203 397 
Q 2534 397 2845 478 
Q 3156 559 3463 722 
L 3463 178 
Q 3153 47 2828 -22 
Q 2503 -91 2169 -91 
Q 1331 -91 842 396 
Q 353 884 353 1716 
Q 353 2575 817 3079 
Q 1281 3584 2069 3584 
Q 2775 3584 3186 3129 
Q 3597 2675 3597 1894 
z
M 3022 2063 
Q 3016 2534 2758 2815 
Q 2500 3097 2075 3097 
Q 1594 3097 1305 2825 
Q 1016 2553 972 2059 
L 3022 2063 
z
M 2466 5119 
L 3088 5119 
L 2070 3944 
L 1591 3944 
L 2466 5119 
z
" transform="scale(0.015625)"/>
     <path id="DejaVuSans-51" d="M 2522 4238 
Q 1834 4238 1429 3725 
Q 1025 3213 1025 2328 
Q 1025 1447 1429 934 
Q 1834 422 2522 422 
Q 3209 422 3611 934 
Q 4013 1447 4013 2328 
Q 4013 3213 3611 3725 
Q 3209 4238 2522 4238 
z
M 3406 84 
L 4238 -825 
L 3475 -825 
L 2784 -78 
Q 2681 -84 2626 -87 
Q 2572 -91 2522 -91 
Q 1538 -91 948 567 
Q 359 1225 359 2328 
Q 359 3434 948 4092 
Q 1538 4750 2522 4750 
Q 3503 4750 4090 4092 
Q 4678 3434 4678 2328 
Q 4678 1516 4351 937 
Q 4025 359 3406 84 
z
" transform="scale(0.015625)"/>
     <path id="DejaVuSans-e1" d="M 2194 1759 
Q 1497 1759 1228 1600 
Q 959 1441 959 1056 
Q 959 750 1161 570 
Q 1363 391 1709 391 
Q 2188 391 2477 730 
Q 2766 1069 2766 1631 
L 2766 1759 
L 2194 1759 
z
M 3341 1997 
L 3341 0 
L 2766 0 
L 2766 531 
Q 2569 213 2275 61 
Q 1981 -91 1556 -91 
Q 1019 -91 701 211 
Q 384 513 384 1019 
Q 384 1609 779 1909 
Q 1175 2209 1959 2209 
L 2766 2209 
L 2766 2266 
Q 2766 2663 2505 2880 
Q 2244 3097 1772 3097 
Q 1472 3097 1187 3025 
Q 903 2953 641 2809 
L 641 3341 
Q 956 3463 1253 3523 
Q 1550 3584 1831 3584 
Q 2591 3584 2966 3190 
Q 3341 2797 3341 1997 
z
M 2290 5119 
L 2912 5119 
L 1894 3944 
L 1415 3944 
L 2290 5119 
z
" transform="scale(0.015625)"/>
    </defs>
    <use xlink:href="#DejaVuSans-4f"/>
    <use xlink:href="#DejaVuSans-62" transform="translate(78.710938 0)"/>
    <use xlink:href="#DejaVuSans-73" transform="translate(142.1875 0)"/>
    <use xlink:href="#DejaVuSans-2e" transform="translate(194.287109 0)"/>
    <use xlink:href="#DejaVuSans-3a" transform="translate(226.074219 0)"/>
    <use xlink:href="#DejaVuSans-20" transform="translate(259.765625 0)"/>
    <use xlink:href="#DejaVuSans-61" transform="translate(291.552734 0)"/>
    <use xlink:href="#DejaVuSans-3d" transform="translate(352.832031 0)"/>
    <use xlink:href="#DejaVuSans-32" transform="translate(436.621094 0)"/>
    <use xlink:href="#DejaVuSans-2e" transform="translate(500.244141 0)"/>
    <use xlink:href="#DejaVuSans-30" transform="translate(532.03125 0)"/>
    <use xlink:href="#DejaVuSans-20" transform="translate(595.654297 0)"/>
    <use xlink:href="#DejaVuSans-b7" transform="translate(627.441406 0)"/>
    <use xlink:href="#DejaVuSans-20" transform="translate(659.228516 0)"/>
    <use xlink:href="#DejaVuSans-3b4" transform="translate(691.015625 0)"/>
    <use xlink:href="#DejaVuSans-3d" transform="translate(752.197266 0)"/>
    <use xlink:href="#DejaVuSans-30" transform="translate(835.986328 0)"/>
    <use xlink:href="#DejaVuSans-2e" transform="translate(899.609375 0)"/>
    <use xlink:href="#DejaVuSans-30" transform="translate(931.396484 0)"/>
    <use xlink:href="#DejaVuSans-36" transform="translate(995.019531 0)"/>
    <use xlink:href="#DejaVuSans-2e" transform="translate(1058.642578 0)"/>
    <use xlink:href="#DejaVuSans-20" transform="translate(1090.429688 0)"/>
    <use xlink:href="#DejaVuSans-50" transform="translate(1122.216797 0)"/>
    <use xlink:href="#DejaVuSans-65" transform="translate(1178.894531 0)"/>
    <use xlink:href="#DejaVuSans-6c" transform="translate(1240.417969 0)"/>
    <use xlink:href="#DejaVuSans-6f" transform="translate(1268.201172 0)"/>
    <use xlink:href="#DejaVuSans-20" transform="translate(1329.382812 0)"/>
    <use xlink:href="#DejaVuSans-74" transform="translate(1361.169922 0)"/>
    <use xlink:href="#DejaVuSans-65" transform="translate(1400.378906 0)"/>
    <use xlink:href="#DejaVuSans-6f" transform="translate(1461.902344 0)"/>
    <use xlink:href="#DejaVuSans-72" transform="translate(1523.083984 0)"/>
    <use xlink:href="#DejaVuSans-65" transform="translate(1561.947266 0)"/>
    <use xlink:href="#DejaVuSans-6d" transform="translate(1623.470703 0)"/>
    <use xlink:href="#DejaVuSans-61" transform="translate(1720.882812 0)"/>
    <use xlink:href="#DejaVuSans-20" transform="translate(1782.162109 0)"/>
    <use xlink:href="#DejaVuSans-64" transform="translate(1813.949219 0)"/>
    <use xlink:href="#DejaVuSans-65" transform="translate(1877.425781 0)"/>
    <use xlink:href="#DejaVuSans-20" transform="translate(1938.949219 0)"/>
    <use xlink:href="#DejaVuSans-48" transform="translate(1970.736328 0)"/>
    <use xlink:href="#DejaVuSans-61" transform="translate(2045.931641 0)"/>
    <use xlink:href="#DejaVuSans-79" transform="translate(2107.210938 0)"/>
    <use xlink:href="#DejaVuSans-61" transform="translate(2166.390625 0)"/>
    <use xlink:href="#DejaVuSans-73" transform="translate(2227.669922 0)"/>
    <use xlink:href="#DejaVuSans-68" transform="translate(2279.769531 0)"/>
    <use xlink:href="#DejaVuSans-69" transform="translate(2343.148438 0)"/>
    <use xlink:href="#DejaVuSans-2c" transform="translate(2370.931641 0)"/>
    <use xlink:href="#DejaVuSans-20" transform="translate(2402.71875 0)"/>
    <use xlink:href="#DejaVuSans-71" transform="translate(2434.505859 0)"/>
    <use xlink:href="#DejaVuSans-20" transform="translate(2497.982422 0)"/>
    <use xlink:href="#DejaVuSans-6d" transform="translate(2529.769531 0)"/>
    <use xlink:href="#DejaVuSans-61" transform="translate(2627.181641 0)"/>
    <use xlink:href="#DejaVuSans-72" transform="translate(2688.460938 0)"/>
    <use xlink:href="#DejaVuSans-67" transform="translate(2727.824219 0)"/>
    <use xlink:href="#DejaVuSans-69" transform="translate(2791.300781 0)"/>
    <use xlink:href="#DejaVuSans-6e" transform="translate(2819.083984 0)"/>
    <use xlink:href="#DejaVuSans-61" transform="translate(2882.462891 0)"/>
    <use xlink:href="#DejaVuSans-6c" transform="translate(2943.742188 0)"/>
    <use xlink:href="#DejaVuSans-20" transform="translate(2971.525391 0)"/>
    <use xlink:href="#DejaVuSans-3d" transform="translate(3003.3125 0)"/>
    <use xlink:href="#DejaVuSans-20" transform="translate(3087.101562 0)"/>
    <use xlink:href="#DejaVuSans-71" transform="translate(3118.888672 0)"/>
    <use xlink:href="#DejaVuSans-20" transform="translate(3182.365234 0)"/>
    <use xlink:href="#DejaVuSans-6d" transform="translate(3214.152344 0)"/>
    <use xlink:href="#DejaVuSans-e9" transform="translate(3311.564453 0)"/>
    <use xlink:href="#DejaVuSans-64" transform="translate(3373.087891 0)"/>
    <use xlink:href="#DejaVuSans-69" transform="translate(3436.564453 0)"/>
    <use xlink:href="#DejaVuSans-6f" transform="translate(3464.347656 0)"/>
    <use xlink:href="#DejaVuSans-20" transform="translate(3525.529297 0)"/>
    <use xlink:href="#DejaVuSans-28" transform="translate(3557.316406 0)"/>
    <use xlink:href="#DejaVuSans-51" transform="translate(3596.330078 0)"/>
    <use xlink:href="#DejaVuSans-20" transform="translate(3675.041016 0)"/>
    <use xlink:href="#DejaVuSans-64" transform="translate(3706.828125 0)"/>
    <use xlink:href="#DejaVuSans-65" transform="translate(3770.304688 0)"/>
    <use xlink:href="#DejaVuSans-20" transform="translate(3831.828125 0)"/>
    <use xlink:href="#DejaVuSans-54" transform="translate(3863.615234 0)"/>
    <use xlink:href="#DejaVuSans-6f" transform="translate(3907.699219 0)"/>
    <use xlink:href="#DejaVuSans-62" transform="translate(3968.880859 0)"/>
    <use xlink:href="#DejaVuSans-69" transform="translate(4032.357422 0)"/>
    <use xlink:href="#DejaVuSans-6e" transform="translate(4060.140625 0)"/>
    <use xlink:href="#DejaVuSans-20" transform="translate(4123.519531 0)"/>
    <use xlink:href="#DejaVuSans-6f" transform="translate(4155.306641 0)"/>
    <use xlink:href="#DejaVuSans-62" transform="translate(4216.488281 0)"/>
    <use xlink:href="#DejaVuSans-73" transform="translate(4279.964844 0)"/>
    <use xlink:href="#DejaVuSans-65" transform="translate(4332.064453 0)"/>
    <use xlink:href="#DejaVuSans-72" transform="translate(4393.587891 0)"/>
    <use xlink:href="#DejaVuSans-76" transform="translate(4434.701172 0)"/>
    <use xlink:href="#DejaVuSans-e1" transform="translate(4493.880859 0)"/>
    <use xlink:href="#DejaVuSans-76" transform="translate(4555.160156 0)"/>
    <use xlink:href="#DejaVuSans-65" transform="translate(4614.339844 0)"/>
    <use xlink:href="#DejaVuSans-6c" transform="translate(4675.863281 0)"/>
    <use xlink:href="#DejaVuSans-29" transform="translate(4703.646484 0)"/>
    <use xlink:href="#DejaVuSans-2e" transform="translate(4742.660156 0)"/>
   </g>
  </g>
 </g>
 <defs>
  <clipPath id="pc7ce3d2402">
   <rect x="70.012857" y="99.925714" width="571.327143" height="243.534286"/>
  </clipPath>
 </defs>
</svg>
