<?xml version="1.0" encoding="utf-8" standalone="no"?>
<!DOCTYPE svg PUBLIC "-//W3C//DTD SVG 1.1//EN"
  "http://www.w3.org/Graphics/SVG/1.1/DTD/svg11.dtd">
<svg xmlns:xlink="http://www.w3.org/1999/xlink" width="1000.158884pt" height="331.344pt" viewBox="0 0 1000.158884 331.344" xmlns="http://www.w3.org/2000/svg" version="1.1">
 <metadata>
  <rdf:RDF xmlns:dc="http://purl.org/dc/elements/1.1/" xmlns:cc="http://creativecommons.org/ns#" xmlns:rdf="http://www.w3.org/1999/02/22-rdf-syntax-ns#">
   <cc:Work>
    <dc:type rdf:resource="http://purl.org/dc/dcmitype/StillImage"/>
    <dc:date>2026-04-02T15:03:54.590641</dc:date>
    <dc:format>image/svg+xml</dc:format>
    <dc:creator>
     <cc:Agent>
      <dc:title>Matplotlib v3.10.7, https://matplotlib.org/</dc:title>
     </cc:Agent>
    </dc:creator>
   </cc:Work>
  </rdf:RDF>
 </metadata>
 <defs>
  <style type="text/css">*{stroke-linejoin: round; stroke-linecap: butt}</style>
 </defs>
 <g id="figure_1">
  <g id="patch_1">
   <path d="M 0 331.344 
L 1000.158884 331.344 
L 1000.158884 0 
L 0 0 
z
" style="fill: #fffcf0"/>
  </g>
  <g id="axes_1">
   <g id="patch_2">
    <path d="M 51.260313 238.381143 
L 340.099836 238.381143 
L 340.099836 112.930286 
L 51.260313 112.930286 
z
" style="fill: #fffcf0"/>
   </g>
   <g id="matplotlib.axis_1">
    <g id="xtick_1">
     <g id="line2d_1"/>
     <g id="text_1">
      <!-- 0 -->
      <g style="fill: #6f6e69" transform="translate(61.049069 252.359502) scale(0.105 -0.105)">
       <defs>
        <path id="DejaVuSans-30" d="M 2034 4250 
Q 1547 4250 1301 3770 
Q 1056 3291 1056 2328 
Q 1056 1369 1301 889 
Q 1547 409 2034 409 
Q 2525 409 2770 889 
Q 3016 1369 3016 2328 
Q 3016 3291 2770 3770 
Q 2525 4250 2034 4250 
z
M 2034 4750 
Q 2819 4750 3233 4129 
Q 3647 3509 3647 2328 
Q 3647 1150 3233 529 
Q 2819 -91 2034 -91 
Q 1250 -91 836 529 
Q 422 1150 422 2328 
Q 422 3509 836 4129 
Q 1250 4750 2034 4750 
z
" transform="scale(0.015625)"/>
       </defs>
       <use xlink:href="#DejaVuSans-30"/>
      </g>
     </g>
    </g>
    <g id="xtick_2">
     <g id="line2d_2"/>
     <g id="text_2">
      <!-- 10 -->
      <g style="fill: #6f6e69" transform="translate(101.472321 252.359502) scale(0.105 -0.105)">
       <defs>
        <path id="DejaVuSans-31" d="M 794 531 
L 1825 531 
L 1825 4091 
L 703 3866 
L 703 4441 
L 1819 4666 
L 2450 4666 
L 2450 531 
L 3481 531 
L 3481 0 
L 794 0 
L 794 531 
z
" transform="scale(0.015625)"/>
       </defs>
       <use xlink:href="#DejaVuSans-31"/>
       <use xlink:href="#DejaVuSans-30" transform="translate(63.623047 0)"/>
      </g>
     </g>
    </g>
    <g id="xtick_3">
     <g id="line2d_3"/>
     <g id="text_3">
      <!-- 20 -->
      <g style="fill: #6f6e69" transform="translate(145.235885 252.359502) scale(0.105 -0.105)">
       <defs>
        <path id="DejaVuSans-32" d="M 1228 531 
L 3431 531 
L 3431 0 
L 469 0 
L 469 531 
Q 828 903 1448 1529 
Q 2069 2156 2228 2338 
Q 2531 2678 2651 2914 
Q 2772 3150 2772 3378 
Q 2772 3750 2511 3984 
Q 2250 4219 1831 4219 
Q 1534 4219 1204 4116 
Q 875 4013 500 3803 
L 500 4441 
Q 881 4594 1212 4672 
Q 1544 4750 1819 4750 
Q 2544 4750 2975 4387 
Q 3406 4025 3406 3419 
Q 3406 3131 3298 2873 
Q 3191 2616 2906 2266 
Q 2828 2175 2409 1742 
Q 1991 1309 1228 531 
z
" transform="scale(0.015625)"/>
       </defs>
       <use xlink:href="#DejaVuSans-32"/>
       <use xlink:href="#DejaVuSans-30" transform="translate(63.623047 0)"/>
      </g>
     </g>
    </g>
    <g id="xtick_4">
     <g id="line2d_4"/>
     <g id="text_4">
      <!-- 30 -->
      <g style="fill: #6f6e69" transform="translate(188.999449 252.359502) scale(0.105 -0.105)">
       <defs>
        <path id="DejaVuSans-33" d="M 2597 2516 
Q 3050 2419 3304 2112 
Q 3559 1806 3559 1356 
Q 3559 666 3084 287 
Q 2609 -91 1734 -91 
Q 1441 -91 1130 -33 
Q 819 25 488 141 
L 488 750 
Q 750 597 1062 519 
Q 1375 441 1716 441 
Q 2309 441 2620 675 
Q 2931 909 2931 1356 
Q 2931 1769 2642 2001 
Q 2353 2234 1838 2234 
L 1294 2234 
L 1294 2753 
L 1863 2753 
Q 2328 2753 2575 2939 
Q 2822 3125 2822 3475 
Q 2822 3834 2567 4026 
Q 2313 4219 1838 4219 
Q 1578 4219 1281 4162 
Q 984 4106 628 3988 
L 628 4550 
Q 988 4650 1302 4700 
Q 1616 4750 1894 4750 
Q 2613 4750 3031 4423 
Q 3450 4097 3450 3541 
Q 3450 3153 3228 2886 
Q 3006 2619 2597 2516 
z
" transform="scale(0.015625)"/>
       </defs>
       <use xlink:href="#DejaVuSans-33"/>
       <use xlink:href="#DejaVuSans-30" transform="translate(63.623047 0)"/>
      </g>
     </g>
    </g>
    <g id="xtick_5">
     <g id="line2d_5"/>
     <g id="text_5">
      <!-- 40 -->
      <g style="fill: #6f6e69" transform="translate(232.763014 252.359502) scale(0.105 -0.105)">
       <defs>
        <path id="DejaVuSans-34" d="M 2419 4116 
L 825 1625 
L 2419 1625 
L 2419 4116 
z
M 2253 4666 
L 3047 4666 
L 3047 1625 
L 3713 1625 
L 3713 1100 
L 3047 1100 
L 3047 0 
L 2419 0 
L 2419 1100 
L 313 1100 
L 313 1709 
L 2253 4666 
z
" transform="scale(0.015625)"/>
       </defs>
       <use xlink:href="#DejaVuSans-34"/>
       <use xlink:href="#DejaVuSans-30" transform="translate(63.623047 0)"/>
      </g>
     </g>
    </g>
    <g id="xtick_6">
     <g id="line2d_6"/>
     <g id="text_6">
      <!-- 50 -->
      <g style="fill: #6f6e69" transform="translate(276.526578 252.359502) scale(0.105 -0.105)">
       <defs>
        <path id="DejaVuSans-35" d="M 691 4666 
L 3169 4666 
L 3169 4134 
L 1269 4134 
L 1269 2991 
Q 1406 3038 1543 3061 
Q 1681 3084 1819 3084 
Q 2600 3084 3056 2656 
Q 3513 2228 3513 1497 
Q 3513 744 3044 326 
Q 2575 -91 1722 -91 
Q 1428 -91 1123 -41 
Q 819 9 494 109 
L 494 744 
Q 775 591 1075 516 
Q 1375 441 1709 441 
Q 2250 441 2565 725 
Q 2881 1009 2881 1497 
Q 2881 1984 2565 2268 
Q 2250 2553 1709 2553 
Q 1456 2553 1204 2497 
Q 953 2441 691 2322 
L 691 4666 
z
" transform="scale(0.015625)"/>
       </defs>
       <use xlink:href="#DejaVuSans-35"/>
       <use xlink:href="#DejaVuSans-30" transform="translate(63.623047 0)"/>
      </g>
     </g>
    </g>
    <g id="xtick_7">
     <g id="line2d_7"/>
     <g id="text_7">
      <!-- 60 -->
      <g style="fill: #6f6e69" transform="translate(320.290142 252.359502) scale(0.105 -0.105)">
       <defs>
        <path id="DejaVuSans-36" d="M 2113 2584 
Q 1688 2584 1439 2293 
Q 1191 2003 1191 1497 
Q 1191 994 1439 701 
Q 1688 409 2113 409 
Q 2538 409 2786 701 
Q 3034 994 3034 1497 
Q 3034 2003 2786 2293 
Q 2538 2584 2113 2584 
z
M 3366 4563 
L 3366 3988 
Q 3128 4100 2886 4159 
Q 2644 4219 2406 4219 
Q 1781 4219 1451 3797 
Q 1122 3375 1075 2522 
Q 1259 2794 1537 2939 
Q 1816 3084 2150 3084 
Q 2853 3084 3261 2657 
Q 3669 2231 3669 1497 
Q 3669 778 3244 343 
Q 2819 -91 2113 -91 
Q 1303 -91 875 529 
Q 447 1150 447 2328 
Q 447 3434 972 4092 
Q 1497 4750 2381 4750 
Q 2619 4750 2861 4703 
Q 3103 4656 3366 4563 
z
" transform="scale(0.015625)"/>
       </defs>
       <use xlink:href="#DejaVuSans-36"/>
       <use xlink:href="#DejaVuSans-30" transform="translate(63.623047 0)"/>
      </g>
     </g>
    </g>
    <g id="text_8">
     <!-- Tempo -->
     <g style="fill: #1c1b1a" transform="translate(178.476481 272.521533) scale(0.105 -0.105)">
      <defs>
       <path id="DejaVuSans-54" d="M -19 4666 
L 3928 4666 
L 3928 4134 
L 2272 4134 
L 2272 0 
L 1638 0 
L 1638 4134 
L -19 4134 
L -19 4666 
z
" transform="scale(0.015625)"/>
       <path id="DejaVuSans-65" d="M 3597 1894 
L 3597 1613 
L 953 1613 
Q 991 1019 1311 708 
Q 1631 397 2203 397 
Q 2534 397 2845 478 
Q 3156 559 3463 722 
L 3463 178 
Q 3153 47 2828 -22 
Q 2503 -91 2169 -91 
Q 1331 -91 842 396 
Q 353 884 353 1716 
Q 353 2575 817 3079 
Q 1281 3584 2069 3584 
Q 2775 3584 3186 3129 
Q 3597 2675 3597 1894 
z
M 3022 2063 
Q 3016 2534 2758 2815 
Q 2500 3097 2075 3097 
Q 1594 3097 1305 2825 
Q 1016 2553 972 2059 
L 3022 2063 
z
" transform="scale(0.015625)"/>
       <path id="DejaVuSans-6d" d="M 3328 2828 
Q 3544 3216 3844 3400 
Q 4144 3584 4550 3584 
Q 5097 3584 5394 3201 
Q 5691 2819 5691 2113 
L 5691 0 
L 5113 0 
L 5113 2094 
Q 5113 2597 4934 2840 
Q 4756 3084 4391 3084 
Q 3944 3084 3684 2787 
Q 3425 2491 3425 1978 
L 3425 0 
L 2847 0 
L 2847 2094 
Q 2847 2600 2669 2842 
Q 2491 3084 2119 3084 
Q 1678 3084 1418 2786 
Q 1159 2488 1159 1978 
L 1159 0 
L 581 0 
L 581 3500 
L 1159 3500 
L 1159 2956 
Q 1356 3278 1631 3431 
Q 1906 3584 2284 3584 
Q 2666 3584 2933 3390 
Q 3200 3197 3328 2828 
z
" transform="scale(0.015625)"/>
       <path id="DejaVuSans-70" d="M 1159 525 
L 1159 -1331 
L 581 -1331 
L 581 3500 
L 1159 3500 
L 1159 2969 
Q 1341 3281 1617 3432 
Q 1894 3584 2278 3584 
Q 2916 3584 3314 3078 
Q 3713 2572 3713 1747 
Q 3713 922 3314 415 
Q 2916 -91 2278 -91 
Q 1894 -91 1617 61 
Q 1341 213 1159 525 
z
M 3116 1747 
Q 3116 2381 2855 2742 
Q 2594 3103 2138 3103 
Q 1681 3103 1420 2742 
Q 1159 2381 1159 1747 
Q 1159 1113 1420 752 
Q 1681 391 2138 391 
Q 2594 391 2855 752 
Q 3116 1113 3116 1747 
z
" transform="scale(0.015625)"/>
       <path id="DejaVuSans-6f" d="M 1959 3097 
Q 1497 3097 1228 2736 
Q 959 2375 959 1747 
Q 959 1119 1226 758 
Q 1494 397 1959 397 
Q 2419 397 2687 759 
Q 2956 1122 2956 1747 
Q 2956 2369 2687 2733 
Q 2419 3097 1959 3097 
z
M 1959 3584 
Q 2709 3584 3137 3096 
Q 3566 2609 3566 1747 
Q 3566 888 3137 398 
Q 2709 -91 1959 -91 
Q 1206 -91 779 398 
Q 353 888 353 1747 
Q 353 2609 779 3096 
Q 1206 3584 1959 3584 
z
" transform="scale(0.015625)"/>
      </defs>
      <use xlink:href="#DejaVuSans-54"/>
      <use xlink:href="#DejaVuSans-65" transform="translate(44.083984 0)"/>
      <use xlink:href="#DejaVuSans-6d" transform="translate(105.607422 0)"/>
      <use xlink:href="#DejaVuSans-70" transform="translate(203.019531 0)"/>
      <use xlink:href="#DejaVuSans-6f" transform="translate(266.496094 0)"/>
     </g>
    </g>
   </g>
   <g id="matplotlib.axis_2">
    <g id="ytick_1">
     <g id="line2d_8">
      <path d="M 51.260313 219.784291 
L 340.099836 219.784291 
" clip-path="url(#pa4d71b9ce1)" style="fill: none; stroke: #cecdc3; stroke-opacity: 0.9; stroke-width: 0.9; stroke-linecap: square"/>
     </g>
     <g id="line2d_9"/>
     <g id="text_9">
      <!-- 2 -->
      <g style="fill: #6f6e69" transform="translate(38.579688 223.773471) scale(0.105 -0.105)">
       <use xlink:href="#DejaVuSans-32"/>
      </g>
     </g>
    </g>
    <g id="ytick_2">
     <g id="line2d_10">
      <path d="M 51.260313 192.153996 
L 340.099836 192.153996 
" clip-path="url(#pa4d71b9ce1)" style="fill: none; stroke: #cecdc3; stroke-opacity: 0.9; stroke-width: 0.9; stroke-linecap: square"/>
     </g>
     <g id="line2d_11"/>
     <g id="text_10">
      <!-- 2,5 -->
      <g style="fill: #6f6e69" transform="translate(28.562031 196.143176) scale(0.105 -0.105)">
       <defs>
        <path id="DejaVuSans-2c" d="M 750 794 
L 1409 794 
L 1409 256 
L 897 -744 
L 494 -744 
L 750 256 
L 750 794 
z
" transform="scale(0.015625)"/>
       </defs>
       <use xlink:href="#DejaVuSans-32"/>
       <use xlink:href="#DejaVuSans-2c" transform="translate(63.623047 0)"/>
       <use xlink:href="#DejaVuSans-35" transform="translate(95.410156 0)"/>
      </g>
     </g>
    </g>
    <g id="ytick_3">
     <g id="line2d_12">
      <path d="M 51.260313 164.523701 
L 340.099836 164.523701 
" clip-path="url(#pa4d71b9ce1)" style="fill: none; stroke: #cecdc3; stroke-opacity: 0.9; stroke-width: 0.9; stroke-linecap: square"/>
     </g>
     <g id="line2d_13"/>
     <g id="text_11">
      <!-- 3 -->
      <g style="fill: #6f6e69" transform="translate(38.579688 168.512881) scale(0.105 -0.105)">
       <use xlink:href="#DejaVuSans-33"/>
      </g>
     </g>
    </g>
    <g id="ytick_4">
     <g id="line2d_14">
      <path d="M 51.260313 136.893406 
L 340.099836 136.893406 
" clip-path="url(#pa4d71b9ce1)" style="fill: none; stroke: #cecdc3; stroke-opacity: 0.9; stroke-width: 0.9; stroke-linecap: square"/>
     </g>
     <g id="line2d_15"/>
     <g id="text_12">
      <!-- 3,5 -->
      <g style="fill: #6f6e69" transform="translate(28.562031 140.882586) scale(0.105 -0.105)">
       <use xlink:href="#DejaVuSans-33"/>
       <use xlink:href="#DejaVuSans-2c" transform="translate(63.623047 0)"/>
       <use xlink:href="#DejaVuSans-35" transform="translate(95.410156 0)"/>
      </g>
     </g>
    </g>
    <g id="text_13">
     <!-- Nível -->
     <g style="fill: #1c1b1a" transform="translate(22.378359 188.838136) rotate(-90) scale(0.105 -0.105)">
      <defs>
       <path id="DejaVuSans-4e" d="M 628 4666 
L 1478 4666 
L 3547 763 
L 3547 4666 
L 4159 4666 
L 4159 0 
L 3309 0 
L 1241 3903 
L 1241 0 
L 628 0 
L 628 4666 
z
" transform="scale(0.015625)"/>
       <path id="DejaVuSans-ed" d="M 1322 5119 
L 1944 5119 
L 926 3944 
L 447 3944 
L 1322 5119 
z
M 603 3500 
L 1178 3500 
L 1178 0 
L 603 0 
L 603 3500 
z
M 891 3584 
L 891 3584 
z
" transform="scale(0.015625)"/>
       <path id="DejaVuSans-76" d="M 191 3500 
L 800 3500 
L 1894 563 
L 2988 3500 
L 3597 3500 
L 2284 0 
L 1503 0 
L 191 3500 
z
" transform="scale(0.015625)"/>
       <path id="DejaVuSans-6c" d="M 603 4863 
L 1178 4863 
L 1178 0 
L 603 0 
L 603 4863 
z
" transform="scale(0.015625)"/>
      </defs>
      <use xlink:href="#DejaVuSans-4e"/>
      <use xlink:href="#DejaVuSans-ed" transform="translate(74.804688 0)"/>
      <use xlink:href="#DejaVuSans-76" transform="translate(102.587891 0)"/>
      <use xlink:href="#DejaVuSans-65" transform="translate(161.767578 0)"/>
      <use xlink:href="#DejaVuSans-6c" transform="translate(223.291016 0)"/>
     </g>
    </g>
   </g>
   <g id="line2d_16">
    <path d="M 64.389382 232.678831 
L 70.516281 225.106895 
L 76.64318 217.917991 
L 82.770079 211.110882 
L 88.896978 204.679895 
L 95.023877 198.616095 
L 101.150776 192.908184 
L 107.277675 187.543209 
L 113.404574 182.507106 
L 119.531473 177.785129 
L 125.658372 173.362184 
L 131.785271 169.223081 
L 137.91217 165.352738 
L 144.039069 161.736331 
L 150.165968 158.359403 
L 157.168138 154.775358 
L 164.170308 151.465753 
L 171.172478 148.411457 
L 178.174649 145.594334 
L 185.176819 142.997255 
L 193.054261 140.318531 
L 200.931702 137.876476 
L 208.809144 135.651185 
L 217.561857 133.410507 
L 226.314569 131.391489 
L 235.942553 129.401323 
L 246.445809 127.47686 
L 256.949064 125.780828 
L 268.327591 124.170515 
L 280.581389 122.667179 
L 293.710458 121.286109 
L 307.714799 120.036802 
L 323.469682 118.863996 
L 326.970767 118.632597 
L 326.970767 118.632597 
" clip-path="url(#pa4d71b9ce1)" style="fill: none; stroke: #3aa99f; stroke-width: 2.4; stroke-linecap: square"/>
   </g>
   <g id="line2d_17">
    <path d="M 51.260313 113.357382 
L 340.099836 113.357382 
" clip-path="url(#pa4d71b9ce1)" style="fill: none; stroke-dasharray: 1.2,1.98; stroke-dashoffset: 0; stroke: #6f6e69; stroke-width: 1.2"/>
   </g>
   <g id="patch_3">
    <path d="M 51.260313 238.381143 
L 51.260313 112.930286 
" style="fill: none; stroke: #cecdc3; stroke-width: 0.8; stroke-linejoin: miter; stroke-linecap: square"/>
   </g>
   <g id="patch_4">
    <path d="M 51.260313 238.381143 
L 340.099836 238.381143 
" style="fill: none; stroke: #cecdc3; stroke-width: 0.8; stroke-linejoin: miter; stroke-linecap: square"/>
   </g>
   <g id="text_14">
    <!-- Capital -->
    <g style="fill: #1c1b1a" transform="translate(51.260313 106.930286) scale(0.115 -0.115)">
     <defs>
      <path id="DejaVuSans-Bold-43" d="M 4288 256 
Q 3956 84 3597 -3 
Q 3238 -91 2847 -91 
Q 1681 -91 1000 561 
Q 319 1213 319 2328 
Q 319 3447 1000 4098 
Q 1681 4750 2847 4750 
Q 3238 4750 3597 4662 
Q 3956 4575 4288 4403 
L 4288 3438 
Q 3953 3666 3628 3772 
Q 3303 3878 2944 3878 
Q 2300 3878 1931 3465 
Q 1563 3053 1563 2328 
Q 1563 1606 1931 1193 
Q 2300 781 2944 781 
Q 3303 781 3628 887 
Q 3953 994 4288 1222 
L 4288 256 
z
" transform="scale(0.015625)"/>
      <path id="DejaVuSans-Bold-61" d="M 2106 1575 
Q 1756 1575 1579 1456 
Q 1403 1338 1403 1106 
Q 1403 894 1545 773 
Q 1688 653 1941 653 
Q 2256 653 2472 879 
Q 2688 1106 2688 1447 
L 2688 1575 
L 2106 1575 
z
M 3816 1997 
L 3816 0 
L 2688 0 
L 2688 519 
Q 2463 200 2181 54 
Q 1900 -91 1497 -91 
Q 953 -91 614 226 
Q 275 544 275 1050 
Q 275 1666 698 1953 
Q 1122 2241 2028 2241 
L 2688 2241 
L 2688 2328 
Q 2688 2594 2478 2717 
Q 2269 2841 1825 2841 
Q 1466 2841 1156 2769 
Q 847 2697 581 2553 
L 581 3406 
Q 941 3494 1303 3539 
Q 1666 3584 2028 3584 
Q 2975 3584 3395 3211 
Q 3816 2838 3816 1997 
z
" transform="scale(0.015625)"/>
      <path id="DejaVuSans-Bold-70" d="M 1656 506 
L 1656 -1331 
L 538 -1331 
L 538 3500 
L 1656 3500 
L 1656 2988 
Q 1888 3294 2169 3439 
Q 2450 3584 2816 3584 
Q 3463 3584 3878 3070 
Q 4294 2556 4294 1747 
Q 4294 938 3878 423 
Q 3463 -91 2816 -91 
Q 2450 -91 2169 54 
Q 1888 200 1656 506 
z
M 2400 2772 
Q 2041 2772 1848 2508 
Q 1656 2244 1656 1747 
Q 1656 1250 1848 986 
Q 2041 722 2400 722 
Q 2759 722 2948 984 
Q 3138 1247 3138 1747 
Q 3138 2247 2948 2509 
Q 2759 2772 2400 2772 
z
" transform="scale(0.015625)"/>
      <path id="DejaVuSans-Bold-69" d="M 538 3500 
L 1656 3500 
L 1656 0 
L 538 0 
L 538 3500 
z
M 538 4863 
L 1656 4863 
L 1656 3950 
L 538 3950 
L 538 4863 
z
" transform="scale(0.015625)"/>
      <path id="DejaVuSans-Bold-74" d="M 1759 4494 
L 1759 3500 
L 2913 3500 
L 2913 2700 
L 1759 2700 
L 1759 1216 
Q 1759 972 1856 886 
Q 1953 800 2241 800 
L 2816 800 
L 2816 0 
L 1856 0 
Q 1194 0 917 276 
Q 641 553 641 1216 
L 641 2700 
L 84 2700 
L 84 3500 
L 641 3500 
L 641 4494 
L 1759 4494 
z
" transform="scale(0.015625)"/>
      <path id="DejaVuSans-Bold-6c" d="M 538 4863 
L 1656 4863 
L 1656 0 
L 538 0 
L 538 4863 
z
" transform="scale(0.015625)"/>
     </defs>
     <use xlink:href="#DejaVuSans-Bold-43"/>
     <use xlink:href="#DejaVuSans-Bold-61" transform="translate(73.388672 0)"/>
     <use xlink:href="#DejaVuSans-Bold-70" transform="translate(140.869141 0)"/>
     <use xlink:href="#DejaVuSans-Bold-69" transform="translate(212.451172 0)"/>
     <use xlink:href="#DejaVuSans-Bold-74" transform="translate(246.728516 0)"/>
     <use xlink:href="#DejaVuSans-Bold-61" transform="translate(294.53125 0)"/>
     <use xlink:href="#DejaVuSans-Bold-6c" transform="translate(362.011719 0)"/>
    </g>
   </g>
  </g>
  <g id="axes_2">
   <g id="patch_5">
    <path d="M 374.089836 238.381143 
L 662.92936 238.381143 
L 662.92936 112.930286 
L 374.089836 112.930286 
z
" style="fill: #fffcf0"/>
   </g>
   <g id="matplotlib.axis_3">
    <g id="xtick_8">
     <g id="line2d_18"/>
     <g id="text_15">
      <!-- 0 -->
      <g style="fill: #6f6e69" transform="translate(383.878593 252.359502) scale(0.105 -0.105)">
       <use xlink:href="#DejaVuSans-30"/>
      </g>
     </g>
    </g>
    <g id="xtick_9">
     <g id="line2d_19"/>
     <g id="text_16">
      <!-- 10 -->
      <g style="fill: #6f6e69" transform="translate(424.301845 252.359502) scale(0.105 -0.105)">
       <use xlink:href="#DejaVuSans-31"/>
       <use xlink:href="#DejaVuSans-30" transform="translate(63.623047 0)"/>
      </g>
     </g>
    </g>
    <g id="xtick_10">
     <g id="line2d_20"/>
     <g id="text_17">
      <!-- 20 -->
      <g style="fill: #6f6e69" transform="translate(468.065409 252.359502) scale(0.105 -0.105)">
       <use xlink:href="#DejaVuSans-32"/>
       <use xlink:href="#DejaVuSans-30" transform="translate(63.623047 0)"/>
      </g>
     </g>
    </g>
    <g id="xtick_11">
     <g id="line2d_21"/>
     <g id="text_18">
      <!-- 30 -->
      <g style="fill: #6f6e69" transform="translate(511.828973 252.359502) scale(0.105 -0.105)">
       <use xlink:href="#DejaVuSans-33"/>
       <use xlink:href="#DejaVuSans-30" transform="translate(63.623047 0)"/>
      </g>
     </g>
    </g>
    <g id="xtick_12">
     <g id="line2d_22"/>
     <g id="text_19">
      <!-- 40 -->
      <g style="fill: #6f6e69" transform="translate(555.592537 252.359502) scale(0.105 -0.105)">
       <use xlink:href="#DejaVuSans-34"/>
       <use xlink:href="#DejaVuSans-30" transform="translate(63.623047 0)"/>
      </g>
     </g>
    </g>
    <g id="xtick_13">
     <g id="line2d_23"/>
     <g id="text_20">
      <!-- 50 -->
      <g style="fill: #6f6e69" transform="translate(599.356102 252.359502) scale(0.105 -0.105)">
       <use xlink:href="#DejaVuSans-35"/>
       <use xlink:href="#DejaVuSans-30" transform="translate(63.623047 0)"/>
      </g>
     </g>
    </g>
    <g id="xtick_14">
     <g id="line2d_24"/>
     <g id="text_21">
      <!-- 60 -->
      <g style="fill: #6f6e69" transform="translate(643.119666 252.359502) scale(0.105 -0.105)">
       <use xlink:href="#DejaVuSans-36"/>
       <use xlink:href="#DejaVuSans-30" transform="translate(63.623047 0)"/>
      </g>
     </g>
    </g>
    <g id="text_22">
     <!-- Tempo -->
     <g style="fill: #1c1b1a" transform="translate(501.306004 272.521533) scale(0.105 -0.105)">
      <use xlink:href="#DejaVuSans-54"/>
      <use xlink:href="#DejaVuSans-65" transform="translate(44.083984 0)"/>
      <use xlink:href="#DejaVuSans-6d" transform="translate(105.607422 0)"/>
      <use xlink:href="#DejaVuSans-70" transform="translate(203.019531 0)"/>
      <use xlink:href="#DejaVuSans-6f" transform="translate(266.496094 0)"/>
     </g>
    </g>
   </g>
   <g id="matplotlib.axis_4">
    <g id="ytick_5">
     <g id="line2d_25">
      <path d="M 374.089836 234.820274 
L 662.92936 234.820274 
" clip-path="url(#p6721b89392)" style="fill: none; stroke: #cecdc3; stroke-opacity: 0.9; stroke-width: 0.9; stroke-linecap: square"/>
     </g>
     <g id="line2d_26"/>
     <g id="text_23">
      <!-- 1,2 -->
      <g style="fill: #6f6e69" transform="translate(351.391555 238.809453) scale(0.105 -0.105)">
       <use xlink:href="#DejaVuSans-31"/>
       <use xlink:href="#DejaVuSans-2c" transform="translate(63.623047 0)"/>
       <use xlink:href="#DejaVuSans-32" transform="translate(95.410156 0)"/>
      </g>
     </g>
    </g>
    <g id="ytick_6">
     <g id="line2d_27">
      <path d="M 374.089836 202.334675 
L 662.92936 202.334675 
" clip-path="url(#p6721b89392)" style="fill: none; stroke: #cecdc3; stroke-opacity: 0.9; stroke-width: 0.9; stroke-linecap: square"/>
     </g>
     <g id="line2d_28"/>
     <g id="text_24">
      <!-- 1,3 -->
      <g style="fill: #6f6e69" transform="translate(351.391555 206.323855) scale(0.105 -0.105)">
       <use xlink:href="#DejaVuSans-31"/>
       <use xlink:href="#DejaVuSans-2c" transform="translate(63.623047 0)"/>
       <use xlink:href="#DejaVuSans-33" transform="translate(95.410156 0)"/>
      </g>
     </g>
    </g>
    <g id="ytick_7">
     <g id="line2d_29">
      <path d="M 374.089836 169.849077 
L 662.92936 169.849077 
" clip-path="url(#p6721b89392)" style="fill: none; stroke: #cecdc3; stroke-opacity: 0.9; stroke-width: 0.9; stroke-linecap: square"/>
     </g>
     <g id="line2d_30"/>
     <g id="text_25">
      <!-- 1,4 -->
      <g style="fill: #6f6e69" transform="translate(351.391555 173.838256) scale(0.105 -0.105)">
       <use xlink:href="#DejaVuSans-31"/>
       <use xlink:href="#DejaVuSans-2c" transform="translate(63.623047 0)"/>
       <use xlink:href="#DejaVuSans-34" transform="translate(95.410156 0)"/>
      </g>
     </g>
    </g>
    <g id="ytick_8">
     <g id="line2d_31">
      <path d="M 374.089836 137.363478 
L 662.92936 137.363478 
" clip-path="url(#p6721b89392)" style="fill: none; stroke: #cecdc3; stroke-opacity: 0.9; stroke-width: 0.9; stroke-linecap: square"/>
     </g>
     <g id="line2d_32"/>
     <g id="text_26">
      <!-- 1,5 -->
      <g style="fill: #6f6e69" transform="translate(351.391555 141.352658) scale(0.105 -0.105)">
       <use xlink:href="#DejaVuSans-31"/>
       <use xlink:href="#DejaVuSans-2c" transform="translate(63.623047 0)"/>
       <use xlink:href="#DejaVuSans-35" transform="translate(95.410156 0)"/>
      </g>
     </g>
    </g>
   </g>
   <g id="line2d_33">
    <path d="M 387.218906 232.678831 
L 391.595262 225.592045 
L 395.971618 218.993063 
L 400.347975 212.839401 
L 404.724331 207.093609 
L 409.100688 201.722468 
L 413.477044 196.69635 
L 417.853401 191.988701 
L 422.229757 187.575613 
L 426.606113 183.435479 
L 431.857741 178.800149 
L 437.109369 174.499188 
L 442.360996 170.505197 
L 447.612624 166.793512 
L 452.864252 163.341861 
L 458.11588 160.130064 
L 464.242779 156.661756 
L 470.369678 153.46872 
L 476.496577 150.527289 
L 482.623476 147.816124 
L 489.625646 144.974949 
L 496.627816 142.38348 
L 503.629986 140.018508 
L 511.507428 137.602796 
L 519.384869 135.420924 
L 528.137582 133.242275 
L 536.890295 131.294579 
L 546.518279 129.388761 
L 556.146263 127.702256 
L 566.649519 126.082226 
L 578.028046 124.553147 
L 590.281844 123.133514 
L 603.410913 121.835947 
L 618.290525 120.601096 
L 634.045408 119.520704 
L 649.800291 118.632597 
L 649.800291 118.632597 
" clip-path="url(#p6721b89392)" style="fill: none; stroke: #4385be; stroke-width: 2.4; stroke-linecap: square"/>
   </g>
   <g id="line2d_34">
    <path d="M 374.089836 114.505345 
L 662.92936 114.505345 
" clip-path="url(#p6721b89392)" style="fill: none; stroke-dasharray: 1.2,1.98; stroke-dashoffset: 0; stroke: #6f6e69; stroke-width: 1.2"/>
   </g>
   <g id="patch_6">
    <path d="M 374.089836 238.381143 
L 374.089836 112.930286 
" style="fill: none; stroke: #cecdc3; stroke-width: 0.8; stroke-linejoin: miter; stroke-linecap: square"/>
   </g>
   <g id="patch_7">
    <path d="M 374.089836 238.381143 
L 662.92936 238.381143 
" style="fill: none; stroke: #cecdc3; stroke-width: 0.8; stroke-linejoin: miter; stroke-linecap: square"/>
   </g>
   <g id="text_27">
    <!-- Produto -->
    <g style="fill: #1c1b1a" transform="translate(374.089836 106.930286) scale(0.115 -0.115)">
     <defs>
      <path id="DejaVuSans-Bold-50" d="M 588 4666 
L 2584 4666 
Q 3475 4666 3951 4270 
Q 4428 3875 4428 3144 
Q 4428 2409 3951 2014 
Q 3475 1619 2584 1619 
L 1791 1619 
L 1791 0 
L 588 0 
L 588 4666 
z
M 1791 3794 
L 1791 2491 
L 2456 2491 
Q 2806 2491 2997 2661 
Q 3188 2831 3188 3144 
Q 3188 3456 2997 3625 
Q 2806 3794 2456 3794 
L 1791 3794 
z
" transform="scale(0.015625)"/>
      <path id="DejaVuSans-Bold-72" d="M 3138 2547 
Q 2991 2616 2845 2648 
Q 2700 2681 2553 2681 
Q 2122 2681 1889 2404 
Q 1656 2128 1656 1613 
L 1656 0 
L 538 0 
L 538 3500 
L 1656 3500 
L 1656 2925 
Q 1872 3269 2151 3426 
Q 2431 3584 2822 3584 
Q 2878 3584 2943 3579 
Q 3009 3575 3134 3559 
L 3138 2547 
z
" transform="scale(0.015625)"/>
      <path id="DejaVuSans-Bold-6f" d="M 2203 2784 
Q 1831 2784 1636 2517 
Q 1441 2250 1441 1747 
Q 1441 1244 1636 976 
Q 1831 709 2203 709 
Q 2569 709 2762 976 
Q 2956 1244 2956 1747 
Q 2956 2250 2762 2517 
Q 2569 2784 2203 2784 
z
M 2203 3584 
Q 3106 3584 3614 3096 
Q 4122 2609 4122 1747 
Q 4122 884 3614 396 
Q 3106 -91 2203 -91 
Q 1297 -91 786 396 
Q 275 884 275 1747 
Q 275 2609 786 3096 
Q 1297 3584 2203 3584 
z
" transform="scale(0.015625)"/>
      <path id="DejaVuSans-Bold-64" d="M 2919 2988 
L 2919 4863 
L 4044 4863 
L 4044 0 
L 2919 0 
L 2919 506 
Q 2688 197 2409 53 
Q 2131 -91 1766 -91 
Q 1119 -91 703 423 
Q 288 938 288 1747 
Q 288 2556 703 3070 
Q 1119 3584 1766 3584 
Q 2128 3584 2408 3439 
Q 2688 3294 2919 2988 
z
M 2181 722 
Q 2541 722 2730 984 
Q 2919 1247 2919 1747 
Q 2919 2247 2730 2509 
Q 2541 2772 2181 2772 
Q 1825 2772 1636 2509 
Q 1447 2247 1447 1747 
Q 1447 1247 1636 984 
Q 1825 722 2181 722 
z
" transform="scale(0.015625)"/>
      <path id="DejaVuSans-Bold-75" d="M 500 1363 
L 500 3500 
L 1625 3500 
L 1625 3150 
Q 1625 2866 1622 2436 
Q 1619 2006 1619 1863 
Q 1619 1441 1641 1255 
Q 1663 1069 1716 984 
Q 1784 875 1895 815 
Q 2006 756 2150 756 
Q 2500 756 2700 1025 
Q 2900 1294 2900 1772 
L 2900 3500 
L 4019 3500 
L 4019 0 
L 2900 0 
L 2900 506 
Q 2647 200 2364 54 
Q 2081 -91 1741 -91 
Q 1134 -91 817 281 
Q 500 653 500 1363 
z
" transform="scale(0.015625)"/>
     </defs>
     <use xlink:href="#DejaVuSans-Bold-50"/>
     <use xlink:href="#DejaVuSans-Bold-72" transform="translate(73.291016 0)"/>
     <use xlink:href="#DejaVuSans-Bold-6f" transform="translate(122.607422 0)"/>
     <use xlink:href="#DejaVuSans-Bold-64" transform="translate(191.308594 0)"/>
     <use xlink:href="#DejaVuSans-Bold-75" transform="translate(262.890625 0)"/>
     <use xlink:href="#DejaVuSans-Bold-74" transform="translate(334.082031 0)"/>
     <use xlink:href="#DejaVuSans-Bold-6f" transform="translate(381.884766 0)"/>
    </g>
   </g>
  </g>
  <g id="axes_3">
   <g id="patch_8">
    <path d="M 696.91936 238.381143 
L 985.758884 238.381143 
L 985.758884 112.930286 
L 696.91936 112.930286 
z
" style="fill: #fffcf0"/>
   </g>
   <g id="matplotlib.axis_5">
    <g id="xtick_15">
     <g id="line2d_35"/>
     <g id="text_28">
      <!-- 0 -->
      <g style="fill: #6f6e69" transform="translate(706.708117 252.359502) scale(0.105 -0.105)">
       <use xlink:href="#DejaVuSans-30"/>
      </g>
     </g>
    </g>
    <g id="xtick_16">
     <g id="line2d_36"/>
     <g id="text_29">
      <!-- 10 -->
      <g style="fill: #6f6e69" transform="translate(747.131369 252.359502) scale(0.105 -0.105)">
       <use xlink:href="#DejaVuSans-31"/>
       <use xlink:href="#DejaVuSans-30" transform="translate(63.623047 0)"/>
      </g>
     </g>
    </g>
    <g id="xtick_17">
     <g id="line2d_37"/>
     <g id="text_30">
      <!-- 20 -->
      <g style="fill: #6f6e69" transform="translate(790.894933 252.359502) scale(0.105 -0.105)">
       <use xlink:href="#DejaVuSans-32"/>
       <use xlink:href="#DejaVuSans-30" transform="translate(63.623047 0)"/>
      </g>
     </g>
    </g>
    <g id="xtick_18">
     <g id="line2d_38"/>
     <g id="text_31">
      <!-- 30 -->
      <g style="fill: #6f6e69" transform="translate(834.658497 252.359502) scale(0.105 -0.105)">
       <use xlink:href="#DejaVuSans-33"/>
       <use xlink:href="#DejaVuSans-30" transform="translate(63.623047 0)"/>
      </g>
     </g>
    </g>
    <g id="xtick_19">
     <g id="line2d_39"/>
     <g id="text_32">
      <!-- 40 -->
      <g style="fill: #6f6e69" transform="translate(878.422061 252.359502) scale(0.105 -0.105)">
       <use xlink:href="#DejaVuSans-34"/>
       <use xlink:href="#DejaVuSans-30" transform="translate(63.623047 0)"/>
      </g>
     </g>
    </g>
    <g id="xtick_20">
     <g id="line2d_40"/>
     <g id="text_33">
      <!-- 50 -->
      <g style="fill: #6f6e69" transform="translate(922.185625 252.359502) scale(0.105 -0.105)">
       <use xlink:href="#DejaVuSans-35"/>
       <use xlink:href="#DejaVuSans-30" transform="translate(63.623047 0)"/>
      </g>
     </g>
    </g>
    <g id="xtick_21">
     <g id="line2d_41"/>
     <g id="text_34">
      <!-- 60 -->
      <g style="fill: #6f6e69" transform="translate(965.94919 252.359502) scale(0.105 -0.105)">
       <use xlink:href="#DejaVuSans-36"/>
       <use xlink:href="#DejaVuSans-30" transform="translate(63.623047 0)"/>
      </g>
     </g>
    </g>
    <g id="text_35">
     <!-- Tempo -->
     <g style="fill: #1c1b1a" transform="translate(824.135528 272.521533) scale(0.105 -0.105)">
      <use xlink:href="#DejaVuSans-54"/>
      <use xlink:href="#DejaVuSans-65" transform="translate(44.083984 0)"/>
      <use xlink:href="#DejaVuSans-6d" transform="translate(105.607422 0)"/>
      <use xlink:href="#DejaVuSans-70" transform="translate(203.019531 0)"/>
      <use xlink:href="#DejaVuSans-6f" transform="translate(266.496094 0)"/>
     </g>
    </g>
   </g>
   <g id="matplotlib.axis_6">
    <g id="ytick_9">
     <g id="line2d_42">
      <path d="M 696.91936 218.577474 
L 985.758884 218.577474 
" clip-path="url(#pac7c786912)" style="fill: none; stroke: #cecdc3; stroke-opacity: 0.9; stroke-width: 0.9; stroke-linecap: square"/>
     </g>
     <g id="line2d_43"/>
     <g id="text_36">
      <!-- 1 -->
      <g style="fill: #6f6e69" transform="translate(684.238735 222.566654) scale(0.105 -0.105)">
       <use xlink:href="#DejaVuSans-31"/>
      </g>
     </g>
    </g>
    <g id="ytick_10">
     <g id="line2d_44">
      <path d="M 696.91936 177.970476 
L 985.758884 177.970476 
" clip-path="url(#pac7c786912)" style="fill: none; stroke: #cecdc3; stroke-opacity: 0.9; stroke-width: 0.9; stroke-linecap: square"/>
     </g>
     <g id="line2d_45"/>
     <g id="text_37">
      <!-- 1,1 -->
      <g style="fill: #6f6e69" transform="translate(674.221079 181.959656) scale(0.105 -0.105)">
       <use xlink:href="#DejaVuSans-31"/>
       <use xlink:href="#DejaVuSans-2c" transform="translate(63.623047 0)"/>
       <use xlink:href="#DejaVuSans-31" transform="translate(95.410156 0)"/>
      </g>
     </g>
    </g>
    <g id="ytick_11">
     <g id="line2d_46">
      <path d="M 696.91936 137.363478 
L 985.758884 137.363478 
" clip-path="url(#pac7c786912)" style="fill: none; stroke: #cecdc3; stroke-opacity: 0.9; stroke-width: 0.9; stroke-linecap: square"/>
     </g>
     <g id="line2d_47"/>
     <g id="text_38">
      <!-- 1,2 -->
      <g style="fill: #6f6e69" transform="translate(674.221079 141.352658) scale(0.105 -0.105)">
       <use xlink:href="#DejaVuSans-31"/>
       <use xlink:href="#DejaVuSans-2c" transform="translate(63.623047 0)"/>
       <use xlink:href="#DejaVuSans-32" transform="translate(95.410156 0)"/>
      </g>
     </g>
    </g>
   </g>
   <g id="line2d_48">
    <path d="M 710.048429 232.678831 
L 714.424786 225.592045 
L 718.801142 218.993063 
L 723.177499 212.839401 
L 727.553855 207.093609 
L 731.930211 201.722468 
L 736.306568 196.69635 
L 740.682924 191.988701 
L 745.059281 187.575613 
L 749.435637 183.435479 
L 754.687265 178.800149 
L 759.938893 174.499188 
L 765.19052 170.505197 
L 770.442148 166.793512 
L 775.693776 163.341861 
L 780.945403 160.130064 
L 787.072302 156.661756 
L 793.199201 153.46872 
L 799.3261 150.527289 
L 805.452999 147.816124 
L 812.45517 144.974949 
L 819.45734 142.38348 
L 826.45951 140.018508 
L 834.336952 137.602796 
L 842.214393 135.420924 
L 850.967106 133.242275 
L 859.719819 131.294579 
L 869.347803 129.388761 
L 878.975787 127.702256 
L 889.479043 126.082226 
L 900.857569 124.553147 
L 913.111367 123.133514 
L 926.240437 121.835947 
L 941.120048 120.601096 
L 956.874932 119.520704 
L 972.629815 118.632597 
L 972.629815 118.632597 
" clip-path="url(#pac7c786912)" style="fill: none; stroke: #da702c; stroke-width: 2.4; stroke-linecap: square"/>
   </g>
   <g id="line2d_49">
    <path d="M 696.91936 114.505345 
L 985.758884 114.505345 
" clip-path="url(#pac7c786912)" style="fill: none; stroke-dasharray: 1.2,1.98; stroke-dashoffset: 0; stroke: #6f6e69; stroke-width: 1.2"/>
   </g>
   <g id="patch_9">
    <path d="M 696.91936 238.381143 
L 696.91936 112.930286 
" style="fill: none; stroke: #cecdc3; stroke-width: 0.8; stroke-linejoin: miter; stroke-linecap: square"/>
   </g>
   <g id="patch_10">
    <path d="M 696.91936 238.381143 
L 985.758884 238.381143 
" style="fill: none; stroke: #cecdc3; stroke-width: 0.8; stroke-linejoin: miter; stroke-linecap: square"/>
   </g>
   <g id="text_39">
    <!-- Consumo -->
    <g style="fill: #1c1b1a" transform="translate(696.91936 106.930286) scale(0.115 -0.115)">
     <defs>
      <path id="DejaVuSans-Bold-6e" d="M 4056 2131 
L 4056 0 
L 2931 0 
L 2931 347 
L 2931 1631 
Q 2931 2084 2911 2256 
Q 2891 2428 2841 2509 
Q 2775 2619 2662 2680 
Q 2550 2741 2406 2741 
Q 2056 2741 1856 2470 
Q 1656 2200 1656 1722 
L 1656 0 
L 538 0 
L 538 3500 
L 1656 3500 
L 1656 2988 
Q 1909 3294 2193 3439 
Q 2478 3584 2822 3584 
Q 3428 3584 3742 3212 
Q 4056 2841 4056 2131 
z
" transform="scale(0.015625)"/>
      <path id="DejaVuSans-Bold-73" d="M 3272 3391 
L 3272 2541 
Q 2913 2691 2578 2766 
Q 2244 2841 1947 2841 
Q 1628 2841 1473 2761 
Q 1319 2681 1319 2516 
Q 1319 2381 1436 2309 
Q 1553 2238 1856 2203 
L 2053 2175 
Q 2913 2066 3209 1816 
Q 3506 1566 3506 1031 
Q 3506 472 3093 190 
Q 2681 -91 1863 -91 
Q 1516 -91 1145 -36 
Q 775 19 384 128 
L 384 978 
Q 719 816 1070 734 
Q 1422 653 1784 653 
Q 2113 653 2278 743 
Q 2444 834 2444 1013 
Q 2444 1163 2330 1236 
Q 2216 1309 1875 1350 
L 1678 1375 
Q 931 1469 631 1722 
Q 331 1975 331 2491 
Q 331 3047 712 3315 
Q 1094 3584 1881 3584 
Q 2191 3584 2531 3537 
Q 2872 3491 3272 3391 
z
" transform="scale(0.015625)"/>
      <path id="DejaVuSans-Bold-6d" d="M 3781 2919 
Q 3994 3244 4286 3414 
Q 4578 3584 4928 3584 
Q 5531 3584 5847 3212 
Q 6163 2841 6163 2131 
L 6163 0 
L 5038 0 
L 5038 1825 
Q 5041 1866 5042 1909 
Q 5044 1953 5044 2034 
Q 5044 2406 4934 2573 
Q 4825 2741 4581 2741 
Q 4263 2741 4089 2478 
Q 3916 2216 3909 1719 
L 3909 0 
L 2784 0 
L 2784 1825 
Q 2784 2406 2684 2573 
Q 2584 2741 2328 2741 
Q 2006 2741 1831 2477 
Q 1656 2213 1656 1722 
L 1656 0 
L 531 0 
L 531 3500 
L 1656 3500 
L 1656 2988 
Q 1863 3284 2130 3434 
Q 2397 3584 2719 3584 
Q 3081 3584 3359 3409 
Q 3638 3234 3781 2919 
z
" transform="scale(0.015625)"/>
     </defs>
     <use xlink:href="#DejaVuSans-Bold-43"/>
     <use xlink:href="#DejaVuSans-Bold-6f" transform="translate(73.388672 0)"/>
     <use xlink:href="#DejaVuSans-Bold-6e" transform="translate(142.089844 0)"/>
     <use xlink:href="#DejaVuSans-Bold-73" transform="translate(213.28125 0)"/>
     <use xlink:href="#DejaVuSans-Bold-75" transform="translate(272.802734 0)"/>
     <use xlink:href="#DejaVuSans-Bold-6d" transform="translate(343.994141 0)"/>
     <use xlink:href="#DejaVuSans-Bold-6f" transform="translate(448.193359 0)"/>
    </g>
   </g>
  </g>
  <g id="text_40">
   <!-- Trajetória de transição no modelo de Solow -->
   <g style="fill: #1c1b1a" transform="translate(18.402884 27.1975) scale(0.16 -0.16)">
    <defs>
     <path id="DejaVuSans-Bold-54" d="M 31 4666 
L 4331 4666 
L 4331 3756 
L 2784 3756 
L 2784 0 
L 1581 0 
L 1581 3756 
L 31 3756 
L 31 4666 
z
" transform="scale(0.015625)"/>
     <path id="DejaVuSans-Bold-6a" d="M 538 3500 
L 1656 3500 
L 1656 63 
Q 1656 -641 1318 -1011 
Q 981 -1381 341 -1381 
L -213 -1381 
L -213 -647 
L -19 -647 
Q 300 -647 419 -503 
Q 538 -359 538 63 
L 538 3500 
z
M 538 4863 
L 1656 4863 
L 1656 3950 
L 538 3950 
L 538 4863 
z
" transform="scale(0.015625)"/>
     <path id="DejaVuSans-Bold-65" d="M 4031 1759 
L 4031 1441 
L 1416 1441 
Q 1456 1047 1700 850 
Q 1944 653 2381 653 
Q 2734 653 3104 758 
Q 3475 863 3866 1075 
L 3866 213 
Q 3469 63 3072 -14 
Q 2675 -91 2278 -91 
Q 1328 -91 801 392 
Q 275 875 275 1747 
Q 275 2603 792 3093 
Q 1309 3584 2216 3584 
Q 3041 3584 3536 3087 
Q 4031 2591 4031 1759 
z
M 2881 2131 
Q 2881 2450 2695 2645 
Q 2509 2841 2209 2841 
Q 1884 2841 1681 2658 
Q 1478 2475 1428 2131 
L 2881 2131 
z
" transform="scale(0.015625)"/>
     <path id="DejaVuSans-Bold-f3" d="M 2203 2784 
Q 1831 2784 1636 2517 
Q 1441 2250 1441 1747 
Q 1441 1244 1636 976 
Q 1831 709 2203 709 
Q 2569 709 2762 976 
Q 2956 1244 2956 1747 
Q 2956 2250 2762 2517 
Q 2569 2784 2203 2784 
z
M 2203 3584 
Q 3106 3584 3614 3096 
Q 4122 2609 4122 1747 
Q 4122 884 3614 396 
Q 3106 -91 2203 -91 
Q 1297 -91 786 396 
Q 275 884 275 1747 
Q 275 2609 786 3096 
Q 1297 3584 2203 3584 
z
M 2694 5119 
L 3578 5119 
L 2425 3944 
L 1813 3944 
L 2694 5119 
z
" transform="scale(0.015625)"/>
     <path id="DejaVuSans-Bold-20" transform="scale(0.015625)"/>
     <path id="DejaVuSans-Bold-e7" d="M 3366 3391 
L 3366 2478 
Q 3138 2634 2908 2709 
Q 2678 2784 2431 2784 
Q 1963 2784 1702 2511 
Q 1441 2238 1441 1747 
Q 1441 1256 1702 982 
Q 1963 709 2431 709 
Q 2694 709 2930 787 
Q 3166 866 3366 1019 
L 3366 103 
Q 3103 6 2833 -42 
Q 2563 -91 2291 -91 
Q 1344 -91 809 395 
Q 275 881 275 1747 
Q 275 2613 809 3098 
Q 1344 3584 2291 3584 
Q 2566 3584 2833 3536 
Q 3100 3488 3366 3391 
z
M 2457 0 
Q 2639 -194 2724 -359 
Q 2810 -525 2810 -672 
Q 2810 -969 2618 -1111 
Q 2426 -1253 2029 -1253 
Q 1879 -1253 1719 -1233 
Q 1560 -1213 1398 -1172 
L 1395 -697 
Q 1551 -747 1680 -770 
Q 1810 -794 1914 -794 
Q 2095 -794 2196 -722 
Q 2298 -650 2298 -525 
Q 2298 -444 2231 -316 
Q 2164 -188 2023 0 
L 2457 0 
z
" transform="scale(0.015625)"/>
     <path id="DejaVuSans-Bold-e3" d="M 2106 1575 
Q 1756 1575 1579 1456 
Q 1403 1338 1403 1106 
Q 1403 894 1545 773 
Q 1688 653 1941 653 
Q 2256 653 2472 879 
Q 2688 1106 2688 1447 
L 2688 1575 
L 2106 1575 
z
M 3816 1997 
L 3816 0 
L 2688 0 
L 2688 519 
Q 2463 200 2181 54 
Q 1900 -91 1497 -91 
Q 953 -91 614 226 
Q 275 544 275 1050 
Q 275 1666 698 1953 
Q 1122 2241 2028 2241 
L 2688 2241 
L 2688 2328 
Q 2688 2594 2478 2717 
Q 2269 2841 1825 2841 
Q 1466 2841 1156 2769 
Q 847 2697 581 2553 
L 581 3406 
Q 941 3494 1303 3539 
Q 1666 3584 2028 3584 
Q 2975 3584 3395 3211 
Q 3816 2838 3816 1997 
z
M 2190 4263 
L 2018 4378 
Q 2006 4384 1987 4397 
Q 1840 4494 1762 4494 
Q 1650 4494 1590 4397 
Q 1531 4300 1531 4116 
L 1531 4091 
L 1097 4091 
Q 1097 4516 1257 4747 
Q 1418 4978 1709 4978 
Q 1822 4978 1936 4936 
Q 2050 4894 2178 4800 
L 2368 4666 
Q 2437 4619 2495 4594 
Q 2553 4569 2600 4569 
Q 2712 4569 2774 4669 
Q 2837 4769 2837 4947 
L 2837 4972 
L 3272 4972 
Q 3272 4547 3111 4315 
Q 2950 4084 2659 4084 
Q 2547 4084 2442 4121 
Q 2337 4159 2190 4263 
z
" transform="scale(0.015625)"/>
     <path id="DejaVuSans-Bold-53" d="M 3834 4519 
L 3834 3531 
Q 3450 3703 3084 3790 
Q 2719 3878 2394 3878 
Q 1963 3878 1756 3759 
Q 1550 3641 1550 3391 
Q 1550 3203 1689 3098 
Q 1828 2994 2194 2919 
L 2706 2816 
Q 3484 2659 3812 2340 
Q 4141 2022 4141 1434 
Q 4141 663 3683 286 
Q 3225 -91 2284 -91 
Q 1841 -91 1394 -6 
Q 947 78 500 244 
L 500 1259 
Q 947 1022 1364 901 
Q 1781 781 2169 781 
Q 2563 781 2772 912 
Q 2981 1044 2981 1288 
Q 2981 1506 2839 1625 
Q 2697 1744 2272 1838 
L 1806 1941 
Q 1106 2091 782 2419 
Q 459 2747 459 3303 
Q 459 4000 909 4375 
Q 1359 4750 2203 4750 
Q 2588 4750 2994 4692 
Q 3400 4634 3834 4519 
z
" transform="scale(0.015625)"/>
     <path id="DejaVuSans-Bold-77" d="M 225 3500 
L 1313 3500 
L 1900 1088 
L 2491 3500 
L 3425 3500 
L 4013 1113 
L 4603 3500 
L 5691 3500 
L 4769 0 
L 3547 0 
L 2956 2406 
L 2369 0 
L 1147 0 
L 225 3500 
z
" transform="scale(0.015625)"/>
    </defs>
    <use xlink:href="#DejaVuSans-Bold-54"/>
    <use xlink:href="#DejaVuSans-Bold-72" transform="translate(57.212891 0)"/>
    <use xlink:href="#DejaVuSans-Bold-61" transform="translate(106.529297 0)"/>
    <use xlink:href="#DejaVuSans-Bold-6a" transform="translate(174.009766 0)"/>
    <use xlink:href="#DejaVuSans-Bold-65" transform="translate(208.287109 0)"/>
    <use xlink:href="#DejaVuSans-Bold-74" transform="translate(276.109375 0)"/>
    <use xlink:href="#DejaVuSans-Bold-f3" transform="translate(323.912109 0)"/>
    <use xlink:href="#DejaVuSans-Bold-72" transform="translate(392.613281 0)"/>
    <use xlink:href="#DejaVuSans-Bold-69" transform="translate(441.929688 0)"/>
    <use xlink:href="#DejaVuSans-Bold-61" transform="translate(476.207031 0)"/>
    <use xlink:href="#DejaVuSans-Bold-20" transform="translate(543.6875 0)"/>
    <use xlink:href="#DejaVuSans-Bold-64" transform="translate(578.501953 0)"/>
    <use xlink:href="#DejaVuSans-Bold-65" transform="translate(650.083984 0)"/>
    <use xlink:href="#DejaVuSans-Bold-20" transform="translate(717.90625 0)"/>
    <use xlink:href="#DejaVuSans-Bold-74" transform="translate(752.720703 0)"/>
    <use xlink:href="#DejaVuSans-Bold-72" transform="translate(800.523438 0)"/>
    <use xlink:href="#DejaVuSans-Bold-61" transform="translate(849.839844 0)"/>
    <use xlink:href="#DejaVuSans-Bold-6e" transform="translate(917.320312 0)"/>
    <use xlink:href="#DejaVuSans-Bold-73" transform="translate(988.511719 0)"/>
    <use xlink:href="#DejaVuSans-Bold-69" transform="translate(1048.033203 0)"/>
    <use xlink:href="#DejaVuSans-Bold-e7" transform="translate(1082.310547 0)"/>
    <use xlink:href="#DejaVuSans-Bold-e3" transform="translate(1141.587891 0)"/>
    <use xlink:href="#DejaVuSans-Bold-6f" transform="translate(1209.068359 0)"/>
    <use xlink:href="#DejaVuSans-Bold-20" transform="translate(1277.769531 0)"/>
    <use xlink:href="#DejaVuSans-Bold-6e" transform="translate(1312.583984 0)"/>
    <use xlink:href="#DejaVuSans-Bold-6f" transform="translate(1383.775391 0)"/>
    <use xlink:href="#DejaVuSans-Bold-20" transform="translate(1452.476562 0)"/>
    <use xlink:href="#DejaVuSans-Bold-6d" transform="translate(1487.291016 0)"/>
    <use xlink:href="#DejaVuSans-Bold-6f" transform="translate(1591.490234 0)"/>
    <use xlink:href="#DejaVuSans-Bold-64" transform="translate(1660.191406 0)"/>
    <use xlink:href="#DejaVuSans-Bold-65" transform="translate(1731.773438 0)"/>
    <use xlink:href="#DejaVuSans-Bold-6c" transform="translate(1799.595703 0)"/>
    <use xlink:href="#DejaVuSans-Bold-6f" transform="translate(1833.873047 0)"/>
    <use xlink:href="#DejaVuSans-Bold-20" transform="translate(1902.574219 0)"/>
    <use xlink:href="#DejaVuSans-Bold-64" transform="translate(1937.388672 0)"/>
    <use xlink:href="#DejaVuSans-Bold-65" transform="translate(2008.970703 0)"/>
    <use xlink:href="#DejaVuSans-Bold-20" transform="translate(2076.792969 0)"/>
    <use xlink:href="#DejaVuSans-Bold-53" transform="translate(2111.607422 0)"/>
    <use xlink:href="#DejaVuSans-Bold-6f" transform="translate(2183.628906 0)"/>
    <use xlink:href="#DejaVuSans-Bold-6c" transform="translate(2252.330078 0)"/>
    <use xlink:href="#DejaVuSans-Bold-6f" transform="translate(2286.607422 0)"/>
    <use xlink:href="#DejaVuSans-Bold-77" transform="translate(2355.308594 0)"/>
   </g>
  </g>
  <g id="text_41">
   <!-- Partindo de um nível inicial de capital abaixo do estado estacionário, produto e consumo convergem gradualmente. -->
   <g style="fill: #6f6e69" transform="translate(18.402884 35.230406) scale(0.102 -0.102)">
    <defs>
     <path id="DejaVuSans-50" d="M 1259 4147 
L 1259 2394 
L 2053 2394 
Q 2494 2394 2734 2622 
Q 2975 2850 2975 3272 
Q 2975 3691 2734 3919 
Q 2494 4147 2053 4147 
L 1259 4147 
z
M 628 4666 
L 2053 4666 
Q 2838 4666 3239 4311 
Q 3641 3956 3641 3272 
Q 3641 2581 3239 2228 
Q 2838 1875 2053 1875 
L 1259 1875 
L 1259 0 
L 628 0 
L 628 4666 
z
" transform="scale(0.015625)"/>
     <path id="DejaVuSans-61" d="M 2194 1759 
Q 1497 1759 1228 1600 
Q 959 1441 959 1056 
Q 959 750 1161 570 
Q 1363 391 1709 391 
Q 2188 391 2477 730 
Q 2766 1069 2766 1631 
L 2766 1759 
L 2194 1759 
z
M 3341 1997 
L 3341 0 
L 2766 0 
L 2766 531 
Q 2569 213 2275 61 
Q 1981 -91 1556 -91 
Q 1019 -91 701 211 
Q 384 513 384 1019 
Q 384 1609 779 1909 
Q 1175 2209 1959 2209 
L 2766 2209 
L 2766 2266 
Q 2766 2663 2505 2880 
Q 2244 3097 1772 3097 
Q 1472 3097 1187 3025 
Q 903 2953 641 2809 
L 641 3341 
Q 956 3463 1253 3523 
Q 1550 3584 1831 3584 
Q 2591 3584 2966 3190 
Q 3341 2797 3341 1997 
z
" transform="scale(0.015625)"/>
     <path id="DejaVuSans-72" d="M 2631 2963 
Q 2534 3019 2420 3045 
Q 2306 3072 2169 3072 
Q 1681 3072 1420 2755 
Q 1159 2438 1159 1844 
L 1159 0 
L 581 0 
L 581 3500 
L 1159 3500 
L 1159 2956 
Q 1341 3275 1631 3429 
Q 1922 3584 2338 3584 
Q 2397 3584 2469 3576 
Q 2541 3569 2628 3553 
L 2631 2963 
z
" transform="scale(0.015625)"/>
     <path id="DejaVuSans-74" d="M 1172 4494 
L 1172 3500 
L 2356 3500 
L 2356 3053 
L 1172 3053 
L 1172 1153 
Q 1172 725 1289 603 
Q 1406 481 1766 481 
L 2356 481 
L 2356 0 
L 1766 0 
Q 1100 0 847 248 
Q 594 497 594 1153 
L 594 3053 
L 172 3053 
L 172 3500 
L 594 3500 
L 594 4494 
L 1172 4494 
z
" transform="scale(0.015625)"/>
     <path id="DejaVuSans-69" d="M 603 3500 
L 1178 3500 
L 1178 0 
L 603 0 
L 603 3500 
z
M 603 4863 
L 1178 4863 
L 1178 4134 
L 603 4134 
L 603 4863 
z
" transform="scale(0.015625)"/>
     <path id="DejaVuSans-6e" d="M 3513 2113 
L 3513 0 
L 2938 0 
L 2938 2094 
Q 2938 2591 2744 2837 
Q 2550 3084 2163 3084 
Q 1697 3084 1428 2787 
Q 1159 2491 1159 1978 
L 1159 0 
L 581 0 
L 581 3500 
L 1159 3500 
L 1159 2956 
Q 1366 3272 1645 3428 
Q 1925 3584 2291 3584 
Q 2894 3584 3203 3211 
Q 3513 2838 3513 2113 
z
" transform="scale(0.015625)"/>
     <path id="DejaVuSans-64" d="M 2906 2969 
L 2906 4863 
L 3481 4863 
L 3481 0 
L 2906 0 
L 2906 525 
Q 2725 213 2448 61 
Q 2172 -91 1784 -91 
Q 1150 -91 751 415 
Q 353 922 353 1747 
Q 353 2572 751 3078 
Q 1150 3584 1784 3584 
Q 2172 3584 2448 3432 
Q 2725 3281 2906 2969 
z
M 947 1747 
Q 947 1113 1208 752 
Q 1469 391 1925 391 
Q 2381 391 2643 752 
Q 2906 1113 2906 1747 
Q 2906 2381 2643 2742 
Q 2381 3103 1925 3103 
Q 1469 3103 1208 2742 
Q 947 2381 947 1747 
z
" transform="scale(0.015625)"/>
     <path id="DejaVuSans-20" transform="scale(0.015625)"/>
     <path id="DejaVuSans-75" d="M 544 1381 
L 544 3500 
L 1119 3500 
L 1119 1403 
Q 1119 906 1312 657 
Q 1506 409 1894 409 
Q 2359 409 2629 706 
Q 2900 1003 2900 1516 
L 2900 3500 
L 3475 3500 
L 3475 0 
L 2900 0 
L 2900 538 
Q 2691 219 2414 64 
Q 2138 -91 1772 -91 
Q 1169 -91 856 284 
Q 544 659 544 1381 
z
M 1991 3584 
L 1991 3584 
z
" transform="scale(0.015625)"/>
     <path id="DejaVuSans-63" d="M 3122 3366 
L 3122 2828 
Q 2878 2963 2633 3030 
Q 2388 3097 2138 3097 
Q 1578 3097 1268 2742 
Q 959 2388 959 1747 
Q 959 1106 1268 751 
Q 1578 397 2138 397 
Q 2388 397 2633 464 
Q 2878 531 3122 666 
L 3122 134 
Q 2881 22 2623 -34 
Q 2366 -91 2075 -91 
Q 1284 -91 818 406 
Q 353 903 353 1747 
Q 353 2603 823 3093 
Q 1294 3584 2113 3584 
Q 2378 3584 2631 3529 
Q 2884 3475 3122 3366 
z
" transform="scale(0.015625)"/>
     <path id="DejaVuSans-62" d="M 3116 1747 
Q 3116 2381 2855 2742 
Q 2594 3103 2138 3103 
Q 1681 3103 1420 2742 
Q 1159 2381 1159 1747 
Q 1159 1113 1420 752 
Q 1681 391 2138 391 
Q 2594 391 2855 752 
Q 3116 1113 3116 1747 
z
M 1159 2969 
Q 1341 3281 1617 3432 
Q 1894 3584 2278 3584 
Q 2916 3584 3314 3078 
Q 3713 2572 3713 1747 
Q 3713 922 3314 415 
Q 2916 -91 2278 -91 
Q 1894 -91 1617 61 
Q 1341 213 1159 525 
L 1159 0 
L 581 0 
L 581 4863 
L 1159 4863 
L 1159 2969 
z
" transform="scale(0.015625)"/>
     <path id="DejaVuSans-78" d="M 3513 3500 
L 2247 1797 
L 3578 0 
L 2900 0 
L 1881 1375 
L 863 0 
L 184 0 
L 1544 1831 
L 300 3500 
L 978 3500 
L 1906 2253 
L 2834 3500 
L 3513 3500 
z
" transform="scale(0.015625)"/>
     <path id="DejaVuSans-73" d="M 2834 3397 
L 2834 2853 
Q 2591 2978 2328 3040 
Q 2066 3103 1784 3103 
Q 1356 3103 1142 2972 
Q 928 2841 928 2578 
Q 928 2378 1081 2264 
Q 1234 2150 1697 2047 
L 1894 2003 
Q 2506 1872 2764 1633 
Q 3022 1394 3022 966 
Q 3022 478 2636 193 
Q 2250 -91 1575 -91 
Q 1294 -91 989 -36 
Q 684 19 347 128 
L 347 722 
Q 666 556 975 473 
Q 1284 391 1588 391 
Q 1994 391 2212 530 
Q 2431 669 2431 922 
Q 2431 1156 2273 1281 
Q 2116 1406 1581 1522 
L 1381 1569 
Q 847 1681 609 1914 
Q 372 2147 372 2553 
Q 372 3047 722 3315 
Q 1072 3584 1716 3584 
Q 2034 3584 2315 3537 
Q 2597 3491 2834 3397 
z
" transform="scale(0.015625)"/>
     <path id="DejaVuSans-e1" d="M 2194 1759 
Q 1497 1759 1228 1600 
Q 959 1441 959 1056 
Q 959 750 1161 570 
Q 1363 391 1709 391 
Q 2188 391 2477 730 
Q 2766 1069 2766 1631 
L 2766 1759 
L 2194 1759 
z
M 3341 1997 
L 3341 0 
L 2766 0 
L 2766 531 
Q 2569 213 2275 61 
Q 1981 -91 1556 -91 
Q 1019 -91 701 211 
Q 384 513 384 1019 
Q 384 1609 779 1909 
Q 1175 2209 1959 2209 
L 2766 2209 
L 2766 2266 
Q 2766 2663 2505 2880 
Q 2244 3097 1772 3097 
Q 1472 3097 1187 3025 
Q 903 2953 641 2809 
L 641 3341 
Q 956 3463 1253 3523 
Q 1550 3584 1831 3584 
Q 2591 3584 2966 3190 
Q 3341 2797 3341 1997 
z
M 2290 5119 
L 2912 5119 
L 1894 3944 
L 1415 3944 
L 2290 5119 
z
" transform="scale(0.015625)"/>
     <path id="DejaVuSans-67" d="M 2906 1791 
Q 2906 2416 2648 2759 
Q 2391 3103 1925 3103 
Q 1463 3103 1205 2759 
Q 947 2416 947 1791 
Q 947 1169 1205 825 
Q 1463 481 1925 481 
Q 2391 481 2648 825 
Q 2906 1169 2906 1791 
z
M 3481 434 
Q 3481 -459 3084 -895 
Q 2688 -1331 1869 -1331 
Q 1566 -1331 1297 -1286 
Q 1028 -1241 775 -1147 
L 775 -588 
Q 1028 -725 1275 -790 
Q 1522 -856 1778 -856 
Q 2344 -856 2625 -561 
Q 2906 -266 2906 331 
L 2906 616 
Q 2728 306 2450 153 
Q 2172 0 1784 0 
Q 1141 0 747 490 
Q 353 981 353 1791 
Q 353 2603 747 3093 
Q 1141 3584 1784 3584 
Q 2172 3584 2450 3431 
Q 2728 3278 2906 2969 
L 2906 3500 
L 3481 3500 
L 3481 434 
z
" transform="scale(0.015625)"/>
     <path id="DejaVuSans-2e" d="M 684 794 
L 1344 794 
L 1344 0 
L 684 0 
L 684 794 
z
" transform="scale(0.015625)"/>
    </defs>
    <use xlink:href="#DejaVuSans-50"/>
    <use xlink:href="#DejaVuSans-61" transform="translate(55.802734 0)"/>
    <use xlink:href="#DejaVuSans-72" transform="translate(117.082031 0)"/>
    <use xlink:href="#DejaVuSans-74" transform="translate(158.195312 0)"/>
    <use xlink:href="#DejaVuSans-69" transform="translate(197.404297 0)"/>
    <use xlink:href="#DejaVuSans-6e" transform="translate(225.1875 0)"/>
    <use xlink:href="#DejaVuSans-64" transform="translate(288.566406 0)"/>
    <use xlink:href="#DejaVuSans-6f" transform="translate(352.042969 0)"/>
    <use xlink:href="#DejaVuSans-20" transform="translate(413.224609 0)"/>
    <use xlink:href="#DejaVuSans-64" transform="translate(445.011719 0)"/>
    <use xlink:href="#DejaVuSans-65" transform="translate(508.488281 0)"/>
    <use xlink:href="#DejaVuSans-20" transform="translate(570.011719 0)"/>
    <use xlink:href="#DejaVuSans-75" transform="translate(601.798828 0)"/>
    <use xlink:href="#DejaVuSans-6d" transform="translate(665.177734 0)"/>
    <use xlink:href="#DejaVuSans-20" transform="translate(762.589844 0)"/>
    <use xlink:href="#DejaVuSans-6e" transform="translate(794.376953 0)"/>
    <use xlink:href="#DejaVuSans-ed" transform="translate(857.755859 0)"/>
    <use xlink:href="#DejaVuSans-76" transform="translate(885.539062 0)"/>
    <use xlink:href="#DejaVuSans-65" transform="translate(944.71875 0)"/>
    <use xlink:href="#DejaVuSans-6c" transform="translate(1006.242188 0)"/>
    <use xlink:href="#DejaVuSans-20" transform="translate(1034.025391 0)"/>
    <use xlink:href="#DejaVuSans-69" transform="translate(1065.8125 0)"/>
    <use xlink:href="#DejaVuSans-6e" transform="translate(1093.595703 0)"/>
    <use xlink:href="#DejaVuSans-69" transform="translate(1156.974609 0)"/>
    <use xlink:href="#DejaVuSans-63" transform="translate(1184.757812 0)"/>
    <use xlink:href="#DejaVuSans-69" transform="translate(1239.738281 0)"/>
    <use xlink:href="#DejaVuSans-61" transform="translate(1267.521484 0)"/>
    <use xlink:href="#DejaVuSans-6c" transform="translate(1328.800781 0)"/>
    <use xlink:href="#DejaVuSans-20" transform="translate(1356.583984 0)"/>
    <use xlink:href="#DejaVuSans-64" transform="translate(1388.371094 0)"/>
    <use xlink:href="#DejaVuSans-65" transform="translate(1451.847656 0)"/>
    <use xlink:href="#DejaVuSans-20" transform="translate(1513.371094 0)"/>
    <use xlink:href="#DejaVuSans-63" transform="translate(1545.158203 0)"/>
    <use xlink:href="#DejaVuSans-61" transform="translate(1600.138672 0)"/>
    <use xlink:href="#DejaVuSans-70" transform="translate(1661.417969 0)"/>
    <use xlink:href="#DejaVuSans-69" transform="translate(1724.894531 0)"/>
    <use xlink:href="#DejaVuSans-74" transform="translate(1752.677734 0)"/>
    <use xlink:href="#DejaVuSans-61" transform="translate(1791.886719 0)"/>
    <use xlink:href="#DejaVuSans-6c" transform="translate(1853.166016 0)"/>
    <use xlink:href="#DejaVuSans-20" transform="translate(1880.949219 0)"/>
    <use xlink:href="#DejaVuSans-61" transform="translate(1912.736328 0)"/>
    <use xlink:href="#DejaVuSans-62" transform="translate(1974.015625 0)"/>
    <use xlink:href="#DejaVuSans-61" transform="translate(2037.492188 0)"/>
    <use xlink:href="#DejaVuSans-69" transform="translate(2098.771484 0)"/>
    <use xlink:href="#DejaVuSans-78" transform="translate(2126.554688 0)"/>
    <use xlink:href="#DejaVuSans-6f" transform="translate(2182.609375 0)"/>
    <use xlink:href="#DejaVuSans-20" transform="translate(2243.791016 0)"/>
    <use xlink:href="#DejaVuSans-64" transform="translate(2275.578125 0)"/>
    <use xlink:href="#DejaVuSans-6f" transform="translate(2339.054688 0)"/>
    <use xlink:href="#DejaVuSans-20" transform="translate(2400.236328 0)"/>
    <use xlink:href="#DejaVuSans-65" transform="translate(2432.023438 0)"/>
    <use xlink:href="#DejaVuSans-73" transform="translate(2493.546875 0)"/>
    <use xlink:href="#DejaVuSans-74" transform="translate(2545.646484 0)"/>
    <use xlink:href="#DejaVuSans-61" transform="translate(2584.855469 0)"/>
    <use xlink:href="#DejaVuSans-64" transform="translate(2646.134766 0)"/>
    <use xlink:href="#DejaVuSans-6f" transform="translate(2709.611328 0)"/>
    <use xlink:href="#DejaVuSans-20" transform="translate(2770.792969 0)"/>
    <use xlink:href="#DejaVuSans-65" transform="translate(2802.580078 0)"/>
    <use xlink:href="#DejaVuSans-73" transform="translate(2864.103516 0)"/>
    <use xlink:href="#DejaVuSans-74" transform="translate(2916.203125 0)"/>
    <use xlink:href="#DejaVuSans-61" transform="translate(2955.412109 0)"/>
    <use xlink:href="#DejaVuSans-63" transform="translate(3016.691406 0)"/>
    <use xlink:href="#DejaVuSans-69" transform="translate(3071.671875 0)"/>
    <use xlink:href="#DejaVuSans-6f" transform="translate(3099.455078 0)"/>
    <use xlink:href="#DejaVuSans-6e" transform="translate(3160.636719 0)"/>
    <use xlink:href="#DejaVuSans-e1" transform="translate(3224.015625 0)"/>
    <use xlink:href="#DejaVuSans-72" transform="translate(3285.294922 0)"/>
    <use xlink:href="#DejaVuSans-69" transform="translate(3326.408203 0)"/>
    <use xlink:href="#DejaVuSans-6f" transform="translate(3354.191406 0)"/>
    <use xlink:href="#DejaVuSans-2c" transform="translate(3415.373047 0)"/>
    <use xlink:href="#DejaVuSans-20" transform="translate(3447.160156 0)"/>
    <use xlink:href="#DejaVuSans-70" transform="translate(3478.947266 0)"/>
    <use xlink:href="#DejaVuSans-72" transform="translate(3542.423828 0)"/>
    <use xlink:href="#DejaVuSans-6f" transform="translate(3581.287109 0)"/>
    <use xlink:href="#DejaVuSans-64" transform="translate(3642.46875 0)"/>
    <use xlink:href="#DejaVuSans-75" transform="translate(3705.945312 0)"/>
    <use xlink:href="#DejaVuSans-74" transform="translate(3769.324219 0)"/>
    <use xlink:href="#DejaVuSans-6f" transform="translate(3808.533203 0)"/>
    <use xlink:href="#DejaVuSans-20" transform="translate(3869.714844 0)"/>
    <use xlink:href="#DejaVuSans-65" transform="translate(3901.501953 0)"/>
    <use xlink:href="#DejaVuSans-20" transform="translate(3963.025391 0)"/>
    <use xlink:href="#DejaVuSans-63" transform="translate(3994.8125 0)"/>
    <use xlink:href="#DejaVuSans-6f" transform="translate(4049.792969 0)"/>
    <use xlink:href="#DejaVuSans-6e" transform="translate(4110.974609 0)"/>
    <use xlink:href="#DejaVuSans-73" transform="translate(4174.353516 0)"/>
    <use xlink:href="#DejaVuSans-75" transform="translate(4226.453125 0)"/>
    <use xlink:href="#DejaVuSans-6d" transform="translate(4289.832031 0)"/>
    <use xlink:href="#DejaVuSans-6f" transform="translate(4387.244141 0)"/>
    <use xlink:href="#DejaVuSans-20" transform="translate(4448.425781 0)"/>
    <use xlink:href="#DejaVuSans-63" transform="translate(4480.212891 0)"/>
    <use xlink:href="#DejaVuSans-6f" transform="translate(4535.193359 0)"/>
    <use xlink:href="#DejaVuSans-6e" transform="translate(4596.375 0)"/>
    <use xlink:href="#DejaVuSans-76" transform="translate(4659.753906 0)"/>
    <use xlink:href="#DejaVuSans-65" transform="translate(4718.933594 0)"/>
    <use xlink:href="#DejaVuSans-72" transform="translate(4780.457031 0)"/>
    <use xlink:href="#DejaVuSans-67" transform="translate(4819.820312 0)"/>
    <use xlink:href="#DejaVuSans-65" transform="translate(4883.296875 0)"/>
    <use xlink:href="#DejaVuSans-6d" transform="translate(4944.820312 0)"/>
    <use xlink:href="#DejaVuSans-20" transform="translate(5042.232422 0)"/>
    <use xlink:href="#DejaVuSans-67" transform="translate(5074.019531 0)"/>
    <use xlink:href="#DejaVuSans-72" transform="translate(5137.496094 0)"/>
    <use xlink:href="#DejaVuSans-61" transform="translate(5178.609375 0)"/>
    <use xlink:href="#DejaVuSans-64" transform="translate(5239.888672 0)"/>
    <use xlink:href="#DejaVuSans-75" transform="translate(5303.365234 0)"/>
    <use xlink:href="#DejaVuSans-61" transform="translate(5366.744141 0)"/>
    <use xlink:href="#DejaVuSans-6c" transform="translate(5428.023438 0)"/>
    <use xlink:href="#DejaVuSans-6d" transform="translate(5455.806641 0)"/>
    <use xlink:href="#DejaVuSans-65" transform="translate(5553.21875 0)"/>
    <use xlink:href="#DejaVuSans-6e" transform="translate(5614.742188 0)"/>
    <use xlink:href="#DejaVuSans-74" transform="translate(5678.121094 0)"/>
    <use xlink:href="#DejaVuSans-65" transform="translate(5717.330078 0)"/>
    <use xlink:href="#DejaVuSans-2e" transform="translate(5778.853516 0)"/>
   </g>
  </g>
  <g id="text_42">
   <!-- Obs.: Linhas pontilhadas marcam os níveis de estado estacionário de cada variável. -->
   <g style="fill: #6f6e69" transform="translate(18.402884 315.134672) scale(0.087 -0.087)">
    <defs>
     <path id="DejaVuSans-4f" d="M 2522 4238 
Q 1834 4238 1429 3725 
Q 1025 3213 1025 2328 
Q 1025 1447 1429 934 
Q 1834 422 2522 422 
Q 3209 422 3611 934 
Q 4013 1447 4013 2328 
Q 4013 3213 3611 3725 
Q 3209 4238 2522 4238 
z
M 2522 4750 
Q 3503 4750 4090 4092 
Q 4678 3434 4678 2328 
Q 4678 1225 4090 567 
Q 3503 -91 2522 -91 
Q 1538 -91 948 565 
Q 359 1222 359 2328 
Q 359 3434 948 4092 
Q 1538 4750 2522 4750 
z
" transform="scale(0.015625)"/>
     <path id="DejaVuSans-3a" d="M 750 794 
L 1409 794 
L 1409 0 
L 750 0 
L 750 794 
z
M 750 3309 
L 1409 3309 
L 1409 2516 
L 750 2516 
L 750 3309 
z
" transform="scale(0.015625)"/>
     <path id="DejaVuSans-4c" d="M 628 4666 
L 1259 4666 
L 1259 531 
L 3531 531 
L 3531 0 
L 628 0 
L 628 4666 
z
" transform="scale(0.015625)"/>
     <path id="DejaVuSans-68" d="M 3513 2113 
L 3513 0 
L 2938 0 
L 2938 2094 
Q 2938 2591 2744 2837 
Q 2550 3084 2163 3084 
Q 1697 3084 1428 2787 
Q 1159 2491 1159 1978 
L 1159 0 
L 581 0 
L 581 4863 
L 1159 4863 
L 1159 2956 
Q 1366 3272 1645 3428 
Q 1925 3584 2291 3584 
Q 2894 3584 3203 3211 
Q 3513 2838 3513 2113 
z
" transform="scale(0.015625)"/>
    </defs>
    <use xlink:href="#DejaVuSans-4f"/>
    <use xlink:href="#DejaVuSans-62" transform="translate(78.710938 0)"/>
    <use xlink:href="#DejaVuSans-73" transform="translate(142.1875 0)"/>
    <use xlink:href="#DejaVuSans-2e" transform="translate(194.287109 0)"/>
    <use xlink:href="#DejaVuSans-3a" transform="translate(226.074219 0)"/>
    <use xlink:href="#DejaVuSans-20" transform="translate(259.765625 0)"/>
    <use xlink:href="#DejaVuSans-4c" transform="translate(291.552734 0)"/>
    <use xlink:href="#DejaVuSans-69" transform="translate(347.265625 0)"/>
    <use xlink:href="#DejaVuSans-6e" transform="translate(375.048828 0)"/>
    <use xlink:href="#DejaVuSans-68" transform="translate(438.427734 0)"/>
    <use xlink:href="#DejaVuSans-61" transform="translate(501.806641 0)"/>
    <use xlink:href="#DejaVuSans-73" transform="translate(563.085938 0)"/>
    <use xlink:href="#DejaVuSans-20" transform="translate(615.185547 0)"/>
    <use xlink:href="#DejaVuSans-70" transform="translate(646.972656 0)"/>
    <use xlink:href="#DejaVuSans-6f" transform="translate(710.449219 0)"/>
    <use xlink:href="#DejaVuSans-6e" transform="translate(771.630859 0)"/>
    <use xlink:href="#DejaVuSans-74" transform="translate(835.009766 0)"/>
    <use xlink:href="#DejaVuSans-69" transform="translate(874.21875 0)"/>
    <use xlink:href="#DejaVuSans-6c" transform="translate(902.001953 0)"/>
    <use xlink:href="#DejaVuSans-68" transform="translate(929.785156 0)"/>
    <use xlink:href="#DejaVuSans-61" transform="translate(993.164062 0)"/>
    <use xlink:href="#DejaVuSans-64" transform="translate(1054.443359 0)"/>
    <use xlink:href="#DejaVuSans-61" transform="translate(1117.919922 0)"/>
    <use xlink:href="#DejaVuSans-73" transform="translate(1179.199219 0)"/>
    <use xlink:href="#DejaVuSans-20" transform="translate(1231.298828 0)"/>
    <use xlink:href="#DejaVuSans-6d" transform="translate(1263.085938 0)"/>
    <use xlink:href="#DejaVuSans-61" transform="translate(1360.498047 0)"/>
    <use xlink:href="#DejaVuSans-72" transform="translate(1421.777344 0)"/>
    <use xlink:href="#DejaVuSans-63" transform="translate(1460.640625 0)"/>
    <use xlink:href="#DejaVuSans-61" transform="translate(1515.621094 0)"/>
    <use xlink:href="#DejaVuSans-6d" transform="translate(1576.900391 0)"/>
    <use xlink:href="#DejaVuSans-20" transform="translate(1674.3125 0)"/>
    <use xlink:href="#DejaVuSans-6f" transform="translate(1706.099609 0)"/>
    <use xlink:href="#DejaVuSans-73" transform="translate(1767.28125 0)"/>
    <use xlink:href="#DejaVuSans-20" transform="translate(1819.380859 0)"/>
    <use xlink:href="#DejaVuSans-6e" transform="translate(1851.167969 0)"/>
    <use xlink:href="#DejaVuSans-ed" transform="translate(1914.546875 0)"/>
    <use xlink:href="#DejaVuSans-76" transform="translate(1942.330078 0)"/>
    <use xlink:href="#DejaVuSans-65" transform="translate(2001.509766 0)"/>
    <use xlink:href="#DejaVuSans-69" transform="translate(2063.033203 0)"/>
    <use xlink:href="#DejaVuSans-73" transform="translate(2090.816406 0)"/>
    <use xlink:href="#DejaVuSans-20" transform="translate(2142.916016 0)"/>
    <use xlink:href="#DejaVuSans-64" transform="translate(2174.703125 0)"/>
    <use xlink:href="#DejaVuSans-65" transform="translate(2238.179688 0)"/>
    <use xlink:href="#DejaVuSans-20" transform="translate(2299.703125 0)"/>
    <use xlink:href="#DejaVuSans-65" transform="translate(2331.490234 0)"/>
    <use xlink:href="#DejaVuSans-73" transform="translate(2393.013672 0)"/>
    <use xlink:href="#DejaVuSans-74" transform="translate(2445.113281 0)"/>
    <use xlink:href="#DejaVuSans-61" transform="translate(2484.322266 0)"/>
    <use xlink:href="#DejaVuSans-64" transform="translate(2545.601562 0)"/>
    <use xlink:href="#DejaVuSans-6f" transform="translate(2609.078125 0)"/>
    <use xlink:href="#DejaVuSans-20" transform="translate(2670.259766 0)"/>
    <use xlink:href="#DejaVuSans-65" transform="translate(2702.046875 0)"/>
    <use xlink:href="#DejaVuSans-73" transform="translate(2763.570312 0)"/>
    <use xlink:href="#DejaVuSans-74" transform="translate(2815.669922 0)"/>
    <use xlink:href="#DejaVuSans-61" transform="translate(2854.878906 0)"/>
    <use xlink:href="#DejaVuSans-63" transform="translate(2916.158203 0)"/>
    <use xlink:href="#DejaVuSans-69" transform="translate(2971.138672 0)"/>
    <use xlink:href="#DejaVuSans-6f" transform="translate(2998.921875 0)"/>
    <use xlink:href="#DejaVuSans-6e" transform="translate(3060.103516 0)"/>
    <use xlink:href="#DejaVuSans-e1" transform="translate(3123.482422 0)"/>
    <use xlink:href="#DejaVuSans-72" transform="translate(3184.761719 0)"/>
    <use xlink:href="#DejaVuSans-69" transform="translate(3225.875 0)"/>
    <use xlink:href="#DejaVuSans-6f" transform="translate(3253.658203 0)"/>
    <use xlink:href="#DejaVuSans-20" transform="translate(3314.839844 0)"/>
    <use xlink:href="#DejaVuSans-64" transform="translate(3346.626953 0)"/>
    <use xlink:href="#DejaVuSans-65" transform="translate(3410.103516 0)"/>
    <use xlink:href="#DejaVuSans-20" transform="translate(3471.626953 0)"/>
    <use xlink:href="#DejaVuSans-63" transform="translate(3503.414062 0)"/>
    <use xlink:href="#DejaVuSans-61" transform="translate(3558.394531 0)"/>
    <use xlink:href="#DejaVuSans-64" transform="translate(3619.673828 0)"/>
    <use xlink:href="#DejaVuSans-61" transform="translate(3683.150391 0)"/>
    <use xlink:href="#DejaVuSans-20" transform="translate(3744.429688 0)"/>
    <use xlink:href="#DejaVuSans-76" transform="translate(3776.216797 0)"/>
    <use xlink:href="#DejaVuSans-61" transform="translate(3835.396484 0)"/>
    <use xlink:href="#DejaVuSans-72" transform="translate(3896.675781 0)"/>
    <use xlink:href="#DejaVuSans-69" transform="translate(3937.789062 0)"/>
    <use xlink:href="#DejaVuSans-e1" transform="translate(3965.572266 0)"/>
    <use xlink:href="#DejaVuSans-76" transform="translate(4026.851562 0)"/>
    <use xlink:href="#DejaVuSans-65" transform="translate(4086.03125 0)"/>
    <use xlink:href="#DejaVuSans-6c" transform="translate(4147.554688 0)"/>
    <use xlink:href="#DejaVuSans-2e" transform="translate(4175.337891 0)"/>
   </g>
  </g>
 </g>
 <defs>
  <clipPath id="pa4d71b9ce1">
   <rect x="51.260313" y="112.930286" width="288.839524" height="125.450857"/>
  </clipPath>
  <clipPath id="p6721b89392">
   <rect x="374.089836" y="112.930286" width="288.839524" height="125.450857"/>
  </clipPath>
  <clipPath id="pac7c786912">
   <rect x="696.91936" y="112.930286" width="288.839524" height="125.450857"/>
  </clipPath>
 </defs>
</svg>
