<?xml version="1.0" encoding="utf-8" standalone="no"?>
<!DOCTYPE svg PUBLIC "-//W3C//DTD SVG 1.1//EN"
  "http://www.w3.org/Graphics/SVG/1.1/DTD/svg11.dtd">
<svg xmlns:xlink="http://www.w3.org/1999/xlink" width="641.556pt" height="393.228pt" viewBox="0 0 641.556 393.228" xmlns="http://www.w3.org/2000/svg" version="1.1">
 <metadata>
  <rdf:RDF xmlns:dc="http://purl.org/dc/elements/1.1/" xmlns:cc="http://creativecommons.org/ns#" xmlns:rdf="http://www.w3.org/1999/02/22-rdf-syntax-ns#">
   <cc:Work>
    <dc:type rdf:resource="http://purl.org/dc/dcmitype/StillImage"/>
    <dc:date>2026-04-02T15:03:52.943895</dc:date>
    <dc:format>image/svg+xml</dc:format>
    <dc:creator>
     <cc:Agent>
      <dc:title>Matplotlib v3.10.7, https://matplotlib.org/</dc:title>
     </cc:Agent>
    </dc:creator>
   </cc:Work>
  </rdf:RDF>
 </metadata>
 <defs>
  <style type="text/css">*{stroke-linejoin: round; stroke-linecap: butt}</style>
 </defs>
 <g id="figure_1">
  <g id="patch_1">
   <path d="M 0 393.228 
L 641.556 393.228 
L 641.556 -0 
L 0 -0 
z
" style="fill: #fffcf0"/>
  </g>
  <g id="axes_1">
   <g id="patch_2">
    <path d="M 67.957429 299.36 
L 627.156 299.36 
L 627.156 88.246286 
L 67.957429 88.246286 
z
" style="fill: #fffcf0"/>
   </g>
   <g id="line2d_1">
    <path d="M 67.957429 153.790886 
L 627.156 153.790886 
" clip-path="url(#p80a4558ada)" style="fill: none; stroke: #6f6e69; stroke-linecap: square"/>
   </g>
   <g id="FillBetweenPolyCollection_1">
    <defs>
     <path id="m1b045f814e" d="M 93.375545 -243.827483 
L 93.375545 -239.437114 
L 94.649637 -239.437114 
L 95.923728 -239.437114 
L 97.197819 -239.437114 
L 98.47191 -239.437114 
L 99.746001 -239.437114 
L 101.020092 -239.437114 
L 102.294183 -239.437114 
L 103.568274 -239.437114 
L 104.842365 -239.437114 
L 106.116456 -239.437114 
L 107.390547 -239.437114 
L 108.664638 -239.437114 
L 109.938729 -239.437114 
L 111.21282 -239.437114 
L 112.486912 -239.437114 
L 113.761003 -239.437114 
L 115.035094 -239.437114 
L 116.309185 -239.437114 
L 117.583276 -239.437114 
L 118.857367 -239.437114 
L 120.131458 -239.437114 
L 121.405549 -239.437114 
L 122.67964 -239.437114 
L 123.953731 -239.437114 
L 125.227822 -239.437114 
L 126.501913 -239.437114 
L 127.776004 -239.437114 
L 129.050095 -239.437114 
L 130.324187 -239.437114 
L 131.598278 -239.437114 
L 132.872369 -239.437114 
L 134.14646 -239.437114 
L 135.420551 -239.437114 
L 136.694642 -239.437114 
L 137.968733 -239.437114 
L 139.242824 -239.437114 
L 140.516915 -239.437114 
L 141.791006 -239.437114 
L 143.065097 -239.437114 
L 144.339188 -239.437114 
L 145.613279 -239.437114 
L 146.88737 -239.437114 
L 148.161462 -239.437114 
L 149.435553 -239.437114 
L 150.709644 -239.437114 
L 151.983735 -239.437114 
L 153.257826 -239.437114 
L 154.531917 -239.437114 
L 155.806008 -239.437114 
L 157.080099 -239.437114 
L 158.35419 -239.437114 
L 159.628281 -239.437114 
L 160.902372 -239.437114 
L 162.176463 -239.437114 
L 163.450554 -239.437114 
L 164.724645 -239.437114 
L 165.998737 -239.437114 
L 167.272828 -239.437114 
L 168.546919 -239.437114 
L 169.82101 -239.437114 
L 171.095101 -239.437114 
L 172.369192 -239.437114 
L 173.643283 -239.437114 
L 174.917374 -239.437114 
L 176.191465 -239.437114 
L 177.465556 -239.437114 
L 178.739647 -239.437114 
L 180.013738 -239.437114 
L 181.287829 -239.437114 
L 182.56192 -239.437114 
L 183.836012 -239.437114 
L 185.110103 -239.437114 
L 186.384194 -239.437114 
L 187.658285 -239.437114 
L 188.932376 -239.437114 
L 190.206467 -239.437114 
L 191.480558 -239.437114 
L 192.754649 -239.437114 
L 194.02874 -239.437114 
L 195.302831 -239.437114 
L 196.576922 -239.437114 
L 197.851013 -239.437114 
L 199.125104 -239.437114 
L 200.399195 -239.437114 
L 201.673287 -239.437114 
L 202.947378 -239.437114 
L 204.221469 -239.437114 
L 205.49556 -239.437114 
L 206.769651 -239.437114 
L 208.043742 -239.437114 
L 209.317833 -239.437114 
L 210.591924 -239.437114 
L 211.866015 -239.437114 
L 213.140106 -239.437114 
L 214.414197 -239.437114 
L 215.688288 -239.437114 
L 216.962379 -239.437114 
L 218.23647 -239.437114 
L 219.510562 -239.437114 
L 220.784653 -239.437114 
L 222.058744 -239.437114 
L 223.332835 -239.437114 
L 224.606926 -239.437114 
L 225.881017 -239.437114 
L 227.155108 -239.437114 
L 228.429199 -239.437114 
L 229.70329 -239.437114 
L 230.977381 -239.437114 
L 232.251472 -239.437114 
L 233.525563 -239.437114 
L 234.799654 -239.437114 
L 236.073746 -239.437114 
L 237.347837 -239.437114 
L 238.621928 -239.437114 
L 239.896019 -239.437114 
L 241.17011 -239.437114 
L 242.444201 -239.437114 
L 243.718292 -239.437114 
L 244.992383 -239.437114 
L 246.266474 -239.437114 
L 247.540565 -239.437114 
L 248.814656 -239.437114 
L 250.088747 -239.437114 
L 251.362838 -239.437114 
L 252.636929 -239.437114 
L 253.911021 -239.437114 
L 255.185112 -239.437114 
L 256.459203 -239.437114 
L 257.733294 -239.437114 
L 259.007385 -239.437114 
L 260.281476 -239.437114 
L 261.555567 -239.437114 
L 262.829658 -239.437114 
L 264.103749 -239.437114 
L 265.37784 -239.437114 
L 266.651931 -239.437114 
L 267.926022 -239.437114 
L 269.200113 -239.437114 
L 270.474204 -239.437114 
L 271.748296 -239.437114 
L 273.022387 -239.437114 
L 274.296478 -239.437114 
L 275.570569 -239.437114 
L 276.84466 -239.437114 
L 278.118751 -239.437114 
L 279.392842 -239.437114 
L 280.666933 -239.437114 
L 281.941024 -239.437114 
L 283.215115 -239.437114 
L 284.489206 -239.437114 
L 285.763297 -239.437114 
L 287.037388 -239.437114 
L 288.311479 -239.437114 
L 289.585571 -239.437114 
L 290.859662 -239.437114 
L 292.133753 -239.437114 
L 293.407844 -239.437114 
L 294.681935 -239.437114 
L 295.956026 -239.437114 
L 297.230117 -239.437114 
L 298.504208 -239.437114 
L 299.778299 -239.437114 
L 301.05239 -239.437114 
L 302.326481 -239.437114 
L 303.600572 -239.437114 
L 304.874663 -239.437114 
L 306.148754 -239.437114 
L 307.422846 -239.437114 
L 308.696937 -239.437114 
L 309.971028 -239.437114 
L 311.245119 -239.437114 
L 312.51921 -239.437114 
L 313.793301 -239.437114 
L 315.067392 -239.437114 
L 316.341483 -239.437114 
L 317.615574 -239.437114 
L 318.889665 -239.437114 
L 318.889665 -239.617253 
L 318.889665 -239.617253 
L 317.615574 -240.16109 
L 316.341483 -240.703901 
L 315.067392 -241.245675 
L 313.793301 -241.786404 
L 312.51921 -242.326076 
L 311.245119 -242.864681 
L 309.971028 -243.40221 
L 308.696937 -243.93865 
L 307.422846 -244.473993 
L 306.148754 -245.008226 
L 304.874663 -245.541338 
L 303.600572 -246.073319 
L 302.326481 -246.604157 
L 301.05239 -247.133839 
L 299.778299 -247.662355 
L 298.504208 -248.189692 
L 297.230117 -248.715838 
L 295.956026 -249.24078 
L 294.681935 -249.764507 
L 293.407844 -250.287004 
L 292.133753 -250.808259 
L 290.859662 -251.328258 
L 289.585571 -251.846988 
L 288.311479 -252.364436 
L 287.037388 -252.880587 
L 285.763297 -253.395426 
L 284.489206 -253.90894 
L 283.215115 -254.421113 
L 281.941024 -254.931931 
L 280.666933 -255.441378 
L 279.392842 -255.949438 
L 278.118751 -256.456096 
L 276.84466 -256.961336 
L 275.570569 -257.46514 
L 274.296478 -257.967493 
L 273.022387 -258.468376 
L 271.748296 -258.967773 
L 270.474204 -259.465666 
L 269.200113 -259.962037 
L 267.926022 -260.456867 
L 266.651931 -260.950137 
L 265.37784 -261.441829 
L 264.103749 -261.931922 
L 262.829658 -262.420396 
L 261.555567 -262.907232 
L 260.281476 -263.392409 
L 259.007385 -263.875905 
L 257.733294 -264.357698 
L 256.459203 -264.837767 
L 255.185112 -265.31609 
L 253.911021 -265.792642 
L 252.636929 -266.2674 
L 251.362838 -266.740341 
L 250.088747 -267.21144 
L 248.814656 -267.680671 
L 247.540565 -268.14801 
L 246.266474 -268.613429 
L 244.992383 -269.076903 
L 243.718292 -269.538404 
L 242.444201 -269.997903 
L 241.17011 -270.455373 
L 239.896019 -270.910783 
L 238.621928 -271.364105 
L 237.347837 -271.815306 
L 236.073746 -272.264356 
L 234.799654 -272.711223 
L 233.525563 -273.155873 
L 232.251472 -273.598273 
L 230.977381 -274.038389 
L 229.70329 -274.476184 
L 228.429199 -274.911623 
L 227.155108 -275.344668 
L 225.881017 -275.775282 
L 224.606926 -276.203424 
L 223.332835 -276.629055 
L 222.058744 -277.052133 
L 220.784653 -277.472616 
L 219.510562 -277.890461 
L 218.23647 -278.305623 
L 216.962379 -278.718057 
L 215.688288 -279.127714 
L 214.414197 -279.534546 
L 213.140106 -279.938505 
L 211.866015 -280.339537 
L 210.591924 -280.737592 
L 209.317833 -281.132614 
L 208.043742 -281.524547 
L 206.769651 -281.913335 
L 205.49556 -282.298917 
L 204.221469 -282.681233 
L 202.947378 -283.06022 
L 201.673287 -283.435813 
L 200.399195 -283.807945 
L 199.125104 -284.176547 
L 197.851013 -284.541547 
L 196.576922 -284.902872 
L 195.302831 -285.260446 
L 194.02874 -285.614191 
L 192.754649 -285.964024 
L 191.480558 -286.309862 
L 190.206467 -286.651618 
L 188.932376 -286.989201 
L 187.658285 -287.322519 
L 186.384194 -287.651475 
L 185.110103 -287.975968 
L 183.836012 -288.295894 
L 182.56192 -288.611146 
L 181.287829 -288.921611 
L 180.013738 -289.227174 
L 178.739647 -289.527712 
L 177.465556 -289.8231 
L 176.191465 -290.113208 
L 174.917374 -290.397899 
L 173.643283 -290.67703 
L 172.369192 -290.950454 
L 171.095101 -291.218016 
L 169.82101 -291.479554 
L 168.546919 -291.734901 
L 167.272828 -291.983879 
L 165.998737 -292.226305 
L 164.724645 -292.461985 
L 163.450554 -292.690716 
L 162.176463 -292.912288 
L 160.902372 -293.126476 
L 159.628281 -293.333046 
L 158.35419 -293.531753 
L 157.080099 -293.722337 
L 155.806008 -293.904526 
L 154.531917 -294.07803 
L 153.257826 -294.242546 
L 151.983735 -294.397752 
L 150.709644 -294.543307 
L 149.435553 -294.678851 
L 148.161462 -294.804001 
L 146.88737 -294.918349 
L 145.613279 -295.021464 
L 144.339188 -295.112883 
L 143.065097 -295.192114 
L 141.791006 -295.258631 
L 140.516915 -295.311869 
L 139.242824 -295.351225 
L 137.968733 -295.376047 
L 136.694642 -295.385636 
L 135.420551 -295.379236 
L 134.14646 -295.35603 
L 132.872369 -295.31513 
L 131.598278 -295.255573 
L 130.324187 -295.176309 
L 129.050095 -295.076189 
L 127.776004 -294.953955 
L 126.501913 -294.80822 
L 125.227822 -294.637455 
L 123.953731 -294.439965 
L 122.67964 -294.213864 
L 121.405549 -293.957042 
L 120.131458 -293.667131 
L 118.857367 -293.341455 
L 117.583276 -292.976975 
L 116.309185 -292.570218 
L 115.035094 -292.117185 
L 113.761003 -291.613234 
L 112.486912 -291.052933 
L 111.21282 -290.429858 
L 109.938729 -289.736329 
L 108.664638 -288.963042 
L 107.390547 -288.098561 
L 106.116456 -287.128578 
L 104.842365 -286.034817 
L 103.568274 -284.793349 
L 102.294183 -283.371863 
L 101.020092 -281.725013 
L 99.746001 -279.785872 
L 98.47191 -277.448659 
L 97.197819 -274.528799 
L 95.923728 -270.649187 
L 94.649637 -264.766639 
L 93.375545 -243.827483 
z
" style="stroke: #879a39; stroke-opacity: 0.2; stroke-width: 0.6"/>
    </defs>
    <g clip-path="url(#p80a4558ada)">
     <use xlink:href="#m1b045f814e" x="0" y="393.228" style="fill: #879a39; fill-opacity: 0.2; stroke: #879a39; stroke-opacity: 0.2; stroke-width: 0.6"/>
    </g>
   </g>
   <g id="FillBetweenPolyCollection_2">
    <defs>
     <path id="m4b8d189003" d="M 320.163756 -239.072399 
L 320.163756 -239.437114 
L 321.437847 -239.437114 
L 322.711938 -239.437114 
L 323.986029 -239.437114 
L 325.260121 -239.437114 
L 326.534212 -239.437114 
L 327.808303 -239.437114 
L 329.082394 -239.437114 
L 330.356485 -239.437114 
L 331.630576 -239.437114 
L 332.904667 -239.437114 
L 334.178758 -239.437114 
L 335.452849 -239.437114 
L 336.72694 -239.437114 
L 338.001031 -239.437114 
L 339.275122 -239.437114 
L 340.549213 -239.437114 
L 341.823304 -239.437114 
L 343.097396 -239.437114 
L 344.371487 -239.437114 
L 345.645578 -239.437114 
L 346.919669 -239.437114 
L 348.19376 -239.437114 
L 349.467851 -239.437114 
L 350.741942 -239.437114 
L 352.016033 -239.437114 
L 353.290124 -239.437114 
L 354.564215 -239.437114 
L 355.838306 -239.437114 
L 357.112397 -239.437114 
L 358.386488 -239.437114 
L 359.660579 -239.437114 
L 360.934671 -239.437114 
L 362.208762 -239.437114 
L 363.482853 -239.437114 
L 364.756944 -239.437114 
L 366.031035 -239.437114 
L 367.305126 -239.437114 
L 368.579217 -239.437114 
L 369.853308 -239.437114 
L 371.127399 -239.437114 
L 372.40149 -239.437114 
L 373.675581 -239.437114 
L 374.949672 -239.437114 
L 376.223763 -239.437114 
L 377.497854 -239.437114 
L 378.771946 -239.437114 
L 380.046037 -239.437114 
L 381.320128 -239.437114 
L 382.594219 -239.437114 
L 383.86831 -239.437114 
L 385.142401 -239.437114 
L 386.416492 -239.437114 
L 387.690583 -239.437114 
L 388.964674 -239.437114 
L 390.238765 -239.437114 
L 391.512856 -239.437114 
L 392.786947 -239.437114 
L 394.061038 -239.437114 
L 395.335129 -239.437114 
L 396.609221 -239.437114 
L 397.883312 -239.437114 
L 399.157403 -239.437114 
L 400.431494 -239.437114 
L 401.705585 -239.437114 
L 402.979676 -239.437114 
L 404.253767 -239.437114 
L 405.527858 -239.437114 
L 406.801949 -239.437114 
L 408.07604 -239.437114 
L 409.350131 -239.437114 
L 410.624222 -239.437114 
L 411.898313 -239.437114 
L 413.172404 -239.437114 
L 414.446496 -239.437114 
L 415.720587 -239.437114 
L 416.994678 -239.437114 
L 418.268769 -239.437114 
L 419.54286 -239.437114 
L 420.816951 -239.437114 
L 422.091042 -239.437114 
L 423.365133 -239.437114 
L 424.639224 -239.437114 
L 425.913315 -239.437114 
L 427.187406 -239.437114 
L 428.461497 -239.437114 
L 429.735588 -239.437114 
L 431.009679 -239.437114 
L 432.283771 -239.437114 
L 433.557862 -239.437114 
L 434.831953 -239.437114 
L 436.106044 -239.437114 
L 437.380135 -239.437114 
L 438.654226 -239.437114 
L 439.928317 -239.437114 
L 441.202408 -239.437114 
L 442.476499 -239.437114 
L 443.75059 -239.437114 
L 445.024681 -239.437114 
L 446.298772 -239.437114 
L 447.572863 -239.437114 
L 448.846954 -239.437114 
L 450.121046 -239.437114 
L 451.395137 -239.437114 
L 452.669228 -239.437114 
L 453.943319 -239.437114 
L 455.21741 -239.437114 
L 456.491501 -239.437114 
L 457.765592 -239.437114 
L 459.039683 -239.437114 
L 460.313774 -239.437114 
L 461.587865 -239.437114 
L 462.861956 -239.437114 
L 464.136047 -239.437114 
L 465.410138 -239.437114 
L 466.68423 -239.437114 
L 467.958321 -239.437114 
L 469.232412 -239.437114 
L 470.506503 -239.437114 
L 471.780594 -239.437114 
L 473.054685 -239.437114 
L 474.328776 -239.437114 
L 475.602867 -239.437114 
L 476.876958 -239.437114 
L 478.151049 -239.437114 
L 479.42514 -239.437114 
L 480.699231 -239.437114 
L 481.973322 -239.437114 
L 483.247413 -239.437114 
L 484.521505 -239.437114 
L 485.795596 -239.437114 
L 487.069687 -239.437114 
L 488.343778 -239.437114 
L 489.617869 -239.437114 
L 490.89196 -239.437114 
L 492.166051 -239.437114 
L 493.440142 -239.437114 
L 494.714233 -239.437114 
L 495.988324 -239.437114 
L 497.262415 -239.437114 
L 498.536506 -239.437114 
L 499.810597 -239.437114 
L 501.084688 -239.437114 
L 502.35878 -239.437114 
L 503.632871 -239.437114 
L 504.906962 -239.437114 
L 506.181053 -239.437114 
L 507.455144 -239.437114 
L 508.729235 -239.437114 
L 510.003326 -239.437114 
L 511.277417 -239.437114 
L 512.551508 -239.437114 
L 513.825599 -239.437114 
L 515.09969 -239.437114 
L 516.373781 -239.437114 
L 517.647872 -239.437114 
L 518.921963 -239.437114 
L 520.196055 -239.437114 
L 521.470146 -239.437114 
L 522.744237 -239.437114 
L 524.018328 -239.437114 
L 525.292419 -239.437114 
L 526.56651 -239.437114 
L 527.840601 -239.437114 
L 529.114692 -239.437114 
L 530.388783 -239.437114 
L 531.662874 -239.437114 
L 532.936965 -239.437114 
L 534.211056 -239.437114 
L 535.485147 -239.437114 
L 536.759238 -239.437114 
L 538.03333 -239.437114 
L 539.307421 -239.437114 
L 540.581512 -239.437114 
L 541.855603 -239.437114 
L 543.129694 -239.437114 
L 544.403785 -239.437114 
L 545.677876 -239.437114 
L 546.951967 -239.437114 
L 548.226058 -239.437114 
L 549.500149 -239.437114 
L 550.77424 -239.437114 
L 552.048331 -239.437114 
L 553.322422 -239.437114 
L 554.596513 -239.437114 
L 555.870605 -239.437114 
L 557.144696 -239.437114 
L 558.418787 -239.437114 
L 559.692878 -239.437114 
L 560.966969 -239.437114 
L 562.24106 -239.437114 
L 563.515151 -239.437114 
L 564.789242 -239.437114 
L 566.063333 -239.437114 
L 567.337424 -239.437114 
L 568.611515 -239.437114 
L 569.885606 -239.437114 
L 571.159697 -239.437114 
L 572.433788 -239.437114 
L 573.70788 -239.437114 
L 574.981971 -239.437114 
L 576.256062 -239.437114 
L 577.530153 -239.437114 
L 578.804244 -239.437114 
L 580.078335 -239.437114 
L 581.352426 -239.437114 
L 582.626517 -239.437114 
L 583.900608 -239.437114 
L 585.174699 -239.437114 
L 586.44879 -239.437114 
L 587.722881 -239.437114 
L 588.996972 -239.437114 
L 590.271063 -239.437114 
L 591.545155 -239.437114 
L 592.819246 -239.437114 
L 594.093337 -239.437114 
L 595.367428 -239.437114 
L 596.641519 -239.437114 
L 597.91561 -239.437114 
L 599.189701 -239.437114 
L 600.463792 -239.437114 
L 601.737883 -239.437114 
L 601.737883 -103.464078 
L 601.737883 -103.464078 
L 600.463792 -104.121088 
L 599.189701 -104.777835 
L 597.91561 -105.434318 
L 596.641519 -106.090536 
L 595.367428 -106.746488 
L 594.093337 -107.402173 
L 592.819246 -108.057589 
L 591.545155 -108.712736 
L 590.271063 -109.367613 
L 588.996972 -110.022217 
L 587.722881 -110.676549 
L 586.44879 -111.330606 
L 585.174699 -111.984388 
L 583.900608 -112.637894 
L 582.626517 -113.291121 
L 581.352426 -113.94407 
L 580.078335 -114.596739 
L 578.804244 -115.249126 
L 577.530153 -115.901231 
L 576.256062 -116.553052 
L 574.981971 -117.204588 
L 573.70788 -117.855837 
L 572.433788 -118.506799 
L 571.159697 -119.157472 
L 569.885606 -119.807854 
L 568.611515 -120.457945 
L 567.337424 -121.107743 
L 566.063333 -121.757248 
L 564.789242 -122.406456 
L 563.515151 -123.055368 
L 562.24106 -123.703982 
L 560.966969 -124.352296 
L 559.692878 -125.00031 
L 558.418787 -125.648021 
L 557.144696 -126.295429 
L 555.870605 -126.942531 
L 554.596513 -127.589327 
L 553.322422 -128.235816 
L 552.048331 -128.881995 
L 550.77424 -129.527863 
L 549.500149 -130.17342 
L 548.226058 -130.818662 
L 546.951967 -131.46359 
L 545.677876 -132.108201 
L 544.403785 -132.752494 
L 543.129694 -133.396468 
L 541.855603 -134.04012 
L 540.581512 -134.68345 
L 539.307421 -135.326456 
L 538.03333 -135.969136 
L 536.759238 -136.611489 
L 535.485147 -137.253514 
L 534.211056 -137.895207 
L 532.936965 -138.536569 
L 531.662874 -139.177598 
L 530.388783 -139.818291 
L 529.114692 -140.458647 
L 527.840601 -141.098665 
L 526.56651 -141.738343 
L 525.292419 -142.377679 
L 524.018328 -143.016671 
L 522.744237 -143.655318 
L 521.470146 -144.293619 
L 520.196055 -144.931571 
L 518.921963 -145.569172 
L 517.647872 -146.206421 
L 516.373781 -146.843317 
L 515.09969 -147.479856 
L 513.825599 -148.116039 
L 512.551508 -148.751862 
L 511.277417 -149.387323 
L 510.003326 -150.022422 
L 508.729235 -150.657157 
L 507.455144 -151.291524 
L 506.181053 -151.925523 
L 504.906962 -152.559151 
L 503.632871 -153.192408 
L 502.35878 -153.825289 
L 501.084688 -154.457795 
L 499.810597 -155.089922 
L 498.536506 -155.721669 
L 497.262415 -156.353034 
L 495.988324 -156.984015 
L 494.714233 -157.61461 
L 493.440142 -158.244816 
L 492.166051 -158.874632 
L 490.89196 -159.504055 
L 489.617869 -160.133084 
L 488.343778 -160.761716 
L 487.069687 -161.389949 
L 485.795596 -162.017782 
L 484.521505 -162.645211 
L 483.247413 -163.272235 
L 481.973322 -163.898851 
L 480.699231 -164.525058 
L 479.42514 -165.150852 
L 478.151049 -165.776232 
L 476.876958 -166.401196 
L 475.602867 -167.025741 
L 474.328776 -167.649864 
L 473.054685 -168.273564 
L 471.780594 -168.896838 
L 470.506503 -169.519683 
L 469.232412 -170.142098 
L 467.958321 -170.764079 
L 466.68423 -171.385624 
L 465.410138 -172.006732 
L 464.136047 -172.627399 
L 462.861956 -173.247622 
L 461.587865 -173.8674 
L 460.313774 -174.486729 
L 459.039683 -175.105607 
L 457.765592 -175.724032 
L 456.491501 -176.342001 
L 455.21741 -176.95951 
L 453.943319 -177.576558 
L 452.669228 -178.193141 
L 451.395137 -178.809258 
L 450.121046 -179.424904 
L 448.846954 -180.040078 
L 447.572863 -180.654776 
L 446.298772 -181.268996 
L 445.024681 -181.882735 
L 443.75059 -182.495989 
L 442.476499 -183.108757 
L 441.202408 -183.721034 
L 439.928317 -184.332818 
L 438.654226 -184.944106 
L 437.380135 -185.554894 
L 436.106044 -186.165181 
L 434.831953 -186.774962 
L 433.557862 -187.384234 
L 432.283771 -187.992995 
L 431.009679 -188.60124 
L 429.735588 -189.208968 
L 428.461497 -189.816174 
L 427.187406 -190.422855 
L 425.913315 -191.029008 
L 424.639224 -191.634629 
L 423.365133 -192.239715 
L 422.091042 -192.844263 
L 420.816951 -193.448269 
L 419.54286 -194.05173 
L 418.268769 -194.654641 
L 416.994678 -195.257 
L 415.720587 -195.858803 
L 414.446496 -196.460046 
L 413.172404 -197.060725 
L 411.898313 -197.660837 
L 410.624222 -198.260377 
L 409.350131 -198.859343 
L 408.07604 -199.457729 
L 406.801949 -200.055533 
L 405.527858 -200.65275 
L 404.253767 -201.249376 
L 402.979676 -201.845408 
L 401.705585 -202.44084 
L 400.431494 -203.03567 
L 399.157403 -203.629892 
L 397.883312 -204.223503 
L 396.609221 -204.816497 
L 395.335129 -205.408872 
L 394.061038 -206.000623 
L 392.786947 -206.591744 
L 391.512856 -207.182232 
L 390.238765 -207.772082 
L 388.964674 -208.36129 
L 387.690583 -208.94985 
L 386.416492 -209.537759 
L 385.142401 -210.125012 
L 383.86831 -210.711602 
L 382.594219 -211.297527 
L 381.320128 -211.882781 
L 380.046037 -212.467359 
L 378.771946 -213.051255 
L 377.497854 -213.634466 
L 376.223763 -214.216985 
L 374.949672 -214.798807 
L 373.675581 -215.379928 
L 372.40149 -215.960342 
L 371.127399 -216.540043 
L 369.853308 -217.119026 
L 368.579217 -217.697286 
L 367.305126 -218.274816 
L 366.031035 -218.851612 
L 364.756944 -219.427667 
L 363.482853 -220.002976 
L 362.208762 -220.577533 
L 360.934671 -221.151331 
L 359.660579 -221.724365 
L 358.386488 -222.296629 
L 357.112397 -222.868116 
L 355.838306 -223.438821 
L 354.564215 -224.008736 
L 353.290124 -224.577855 
L 352.016033 -225.146173 
L 350.741942 -225.713681 
L 349.467851 -226.280375 
L 348.19376 -226.846246 
L 346.919669 -227.411287 
L 345.645578 -227.975493 
L 344.371487 -228.538856 
L 343.097396 -229.101368 
L 341.823304 -229.663023 
L 340.549213 -230.223813 
L 339.275122 -230.78373 
L 338.001031 -231.342767 
L 336.72694 -231.900917 
L 335.452849 -232.458172 
L 334.178758 -233.014523 
L 332.904667 -233.569963 
L 331.630576 -234.124483 
L 330.356485 -234.678076 
L 329.082394 -235.230733 
L 327.808303 -235.782446 
L 326.534212 -236.333205 
L 325.260121 -236.883003 
L 323.986029 -237.43183 
L 322.711938 -237.979678 
L 321.437847 -238.526537 
L 320.163756 -239.072399 
z
" style="stroke: #d14d41; stroke-opacity: 0.16; stroke-width: 0.6"/>
    </defs>
    <g clip-path="url(#p80a4558ada)">
     <use xlink:href="#m4b8d189003" x="0" y="393.228" style="fill: #d14d41; fill-opacity: 0.16; stroke: #d14d41; stroke-opacity: 0.16; stroke-width: 0.6"/>
    </g>
   </g>
   <g id="Quiver_1">
    <path d="M 93.375545 153.185082 
L 93.981349 153.185082 
L 93.375545 151.973475 
L 99.433581 153.790886 
L 93.375545 155.608297 
L 93.981349 154.396689 
L 93.375545 154.396689 
L 93.375545 153.185082 
" clip-path="url(#p80a4558ada)" style="fill: #b7b5ac; fill-opacity: 0.85"/>
    <path d="M 125.227822 153.185082 
L 125.833626 153.185082 
L 125.227822 151.973475 
L 131.285858 153.790886 
L 125.227822 155.608297 
L 125.833626 154.396689 
L 125.227822 154.396689 
L 125.227822 153.185082 
" clip-path="url(#p80a4558ada)" style="fill: #b7b5ac; fill-opacity: 0.85"/>
    <path d="M 157.080099 153.185082 
L 157.685903 153.185082 
L 157.080099 151.973475 
L 163.138135 153.790886 
L 157.080099 155.608297 
L 157.685903 154.396689 
L 157.080099 154.396689 
L 157.080099 153.185082 
" clip-path="url(#p80a4558ada)" style="fill: #b7b5ac; fill-opacity: 0.85"/>
    <path d="M 188.932376 153.185082 
L 189.538179 153.185082 
L 188.932376 151.973475 
L 194.990412 153.790886 
L 188.932376 155.608297 
L 189.538179 154.396689 
L 188.932376 154.396689 
L 188.932376 153.185082 
" clip-path="url(#p80a4558ada)" style="fill: #b7b5ac; fill-opacity: 0.85"/>
    <path d="M 220.784653 153.185082 
L 221.390456 153.185082 
L 220.784653 151.973475 
L 226.842689 153.790886 
L 220.784653 155.608297 
L 221.390456 154.396689 
L 220.784653 154.396689 
L 220.784653 153.185082 
" clip-path="url(#p80a4558ada)" style="fill: #b7b5ac; fill-opacity: 0.85"/>
    <path d="M 252.636929 153.185082 
L 253.242733 153.185082 
L 252.636929 151.973475 
L 258.694965 153.790886 
L 252.636929 155.608297 
L 253.242733 154.396689 
L 252.636929 154.396689 
L 252.636929 153.185082 
" clip-path="url(#p80a4558ada)" style="fill: #b7b5ac; fill-opacity: 0.85"/>
    <path d="M 284.489206 153.185082 
L 285.09501 153.185082 
L 284.489206 151.973475 
L 290.547242 153.790886 
L 284.489206 155.608297 
L 285.09501 154.396689 
L 284.489206 154.396689 
L 284.489206 153.185082 
" clip-path="url(#p80a4558ada)" style="fill: #b7b5ac; fill-opacity: 0.85"/>
    <path d="M 316.341483 153.185082 
L 316.947287 153.185082 
L 316.341483 151.973475 
L 322.399519 153.790886 
L 316.341483 155.608297 
L 316.947287 154.396689 
L 316.341483 154.396689 
L 316.341483 153.185082 
" clip-path="url(#p80a4558ada)" style="fill: #b7b5ac; fill-opacity: 0.85"/>
    <path d="M 348.19376 154.396689 
L 347.587956 154.396689 
L 348.19376 155.608297 
L 342.135724 153.790886 
L 348.19376 151.973475 
L 347.587956 153.185082 
L 348.19376 153.185082 
L 348.19376 154.396689 
" clip-path="url(#p80a4558ada)" style="fill: #b7b5ac; fill-opacity: 0.85"/>
    <path d="M 380.046037 154.396689 
L 379.440233 154.396689 
L 380.046037 155.608297 
L 373.988001 153.790886 
L 380.046037 151.973475 
L 379.440233 153.185082 
L 380.046037 153.185082 
L 380.046037 154.396689 
" clip-path="url(#p80a4558ada)" style="fill: #b7b5ac; fill-opacity: 0.85"/>
    <path d="M 411.898313 154.396689 
L 411.29251 154.396689 
L 411.898313 155.608297 
L 405.840277 153.790886 
L 411.898313 151.973475 
L 411.29251 153.185082 
L 411.898313 153.185082 
L 411.898313 154.396689 
" clip-path="url(#p80a4558ada)" style="fill: #b7b5ac; fill-opacity: 0.85"/>
    <path d="M 443.75059 154.396689 
L 443.144787 154.396689 
L 443.75059 155.608297 
L 437.692554 153.790886 
L 443.75059 151.973475 
L 443.144787 153.185082 
L 443.75059 153.185082 
L 443.75059 154.396689 
" clip-path="url(#p80a4558ada)" style="fill: #b7b5ac; fill-opacity: 0.85"/>
    <path d="M 475.602867 154.396689 
L 474.997063 154.396689 
L 475.602867 155.608297 
L 469.544831 153.790886 
L 475.602867 151.973475 
L 474.997063 153.185082 
L 475.602867 153.185082 
L 475.602867 154.396689 
" clip-path="url(#p80a4558ada)" style="fill: #b7b5ac; fill-opacity: 0.85"/>
    <path d="M 507.455144 154.396689 
L 506.84934 154.396689 
L 507.455144 155.608297 
L 501.397108 153.790886 
L 507.455144 151.973475 
L 506.84934 153.185082 
L 507.455144 153.185082 
L 507.455144 154.396689 
" clip-path="url(#p80a4558ada)" style="fill: #b7b5ac; fill-opacity: 0.85"/>
    <path d="M 539.307421 154.396689 
L 538.701617 154.396689 
L 539.307421 155.608297 
L 533.249385 153.790886 
L 539.307421 151.973475 
L 538.701617 153.185082 
L 539.307421 153.185082 
L 539.307421 154.396689 
" clip-path="url(#p80a4558ada)" style="fill: #b7b5ac; fill-opacity: 0.85"/>
    <path d="M 571.159697 154.396689 
L 570.553894 154.396689 
L 571.159697 155.608297 
L 565.101661 153.790886 
L 571.159697 151.973475 
L 570.553894 153.185082 
L 571.159697 153.185082 
L 571.159697 154.396689 
" clip-path="url(#p80a4558ada)" style="fill: #b7b5ac; fill-opacity: 0.85"/>
   </g>
   <g id="matplotlib.axis_1">
    <g id="xtick_1">
     <g id="line2d_2"/>
     <g id="text_1">
      <!-- 0 -->
      <g style="fill: #6f6e69" transform="translate(90.029478 313.338359) scale(0.105 -0.105)">
       <defs>
        <path id="DejaVuSans-30" d="M 2034 4250 
Q 1547 4250 1301 3770 
Q 1056 3291 1056 2328 
Q 1056 1369 1301 889 
Q 1547 409 2034 409 
Q 2525 409 2770 889 
Q 3016 1369 3016 2328 
Q 3016 3291 2770 3770 
Q 2525 4250 2034 4250 
z
M 2034 4750 
Q 2819 4750 3233 4129 
Q 3647 3509 3647 2328 
Q 3647 1150 3233 529 
Q 2819 -91 2034 -91 
Q 1250 -91 836 529 
Q 422 1150 422 2328 
Q 422 3509 836 4129 
Q 1250 4750 2034 4750 
z
" transform="scale(0.015625)"/>
       </defs>
       <use xlink:href="#DejaVuSans-30"/>
      </g>
     </g>
    </g>
    <g id="xtick_2">
     <g id="line2d_3"/>
     <g id="text_2">
      <!-- 2 -->
      <g style="fill: #6f6e69" transform="translate(205.132162 313.338359) scale(0.105 -0.105)">
       <defs>
        <path id="DejaVuSans-32" d="M 1228 531 
L 3431 531 
L 3431 0 
L 469 0 
L 469 531 
Q 828 903 1448 1529 
Q 2069 2156 2228 2338 
Q 2531 2678 2651 2914 
Q 2772 3150 2772 3378 
Q 2772 3750 2511 3984 
Q 2250 4219 1831 4219 
Q 1534 4219 1204 4116 
Q 875 4013 500 3803 
L 500 4441 
Q 881 4594 1212 4672 
Q 1544 4750 1819 4750 
Q 2544 4750 2975 4387 
Q 3406 4025 3406 3419 
Q 3406 3131 3298 2873 
Q 3191 2616 2906 2266 
Q 2828 2175 2409 1742 
Q 1991 1309 1228 531 
z
" transform="scale(0.015625)"/>
       </defs>
       <use xlink:href="#DejaVuSans-32"/>
      </g>
     </g>
    </g>
    <g id="xtick_3">
     <g id="line2d_4"/>
     <g id="text_3">
      <!-- 4 -->
      <g style="fill: #6f6e69" transform="translate(320.234846 313.338359) scale(0.105 -0.105)">
       <defs>
        <path id="DejaVuSans-34" d="M 2419 4116 
L 825 1625 
L 2419 1625 
L 2419 4116 
z
M 2253 4666 
L 3047 4666 
L 3047 1625 
L 3713 1625 
L 3713 1100 
L 3047 1100 
L 3047 0 
L 2419 0 
L 2419 1100 
L 313 1100 
L 313 1709 
L 2253 4666 
z
" transform="scale(0.015625)"/>
       </defs>
       <use xlink:href="#DejaVuSans-34"/>
      </g>
     </g>
    </g>
    <g id="xtick_4">
     <g id="line2d_5"/>
     <g id="text_4">
      <!-- 6 -->
      <g style="fill: #6f6e69" transform="translate(435.33753 313.338359) scale(0.105 -0.105)">
       <defs>
        <path id="DejaVuSans-36" d="M 2113 2584 
Q 1688 2584 1439 2293 
Q 1191 2003 1191 1497 
Q 1191 994 1439 701 
Q 1688 409 2113 409 
Q 2538 409 2786 701 
Q 3034 994 3034 1497 
Q 3034 2003 2786 2293 
Q 2538 2584 2113 2584 
z
M 3366 4563 
L 3366 3988 
Q 3128 4100 2886 4159 
Q 2644 4219 2406 4219 
Q 1781 4219 1451 3797 
Q 1122 3375 1075 2522 
Q 1259 2794 1537 2939 
Q 1816 3084 2150 3084 
Q 2853 3084 3261 2657 
Q 3669 2231 3669 1497 
Q 3669 778 3244 343 
Q 2819 -91 2113 -91 
Q 1303 -91 875 529 
Q 447 1150 447 2328 
Q 447 3434 972 4092 
Q 1497 4750 2381 4750 
Q 2619 4750 2861 4703 
Q 3103 4656 3366 4563 
z
" transform="scale(0.015625)"/>
       </defs>
       <use xlink:href="#DejaVuSans-36"/>
      </g>
     </g>
    </g>
    <g id="xtick_5">
     <g id="line2d_6"/>
     <g id="text_5">
      <!-- 8 -->
      <g style="fill: #6f6e69" transform="translate(550.440214 313.338359) scale(0.105 -0.105)">
       <defs>
        <path id="DejaVuSans-38" d="M 2034 2216 
Q 1584 2216 1326 1975 
Q 1069 1734 1069 1313 
Q 1069 891 1326 650 
Q 1584 409 2034 409 
Q 2484 409 2743 651 
Q 3003 894 3003 1313 
Q 3003 1734 2745 1975 
Q 2488 2216 2034 2216 
z
M 1403 2484 
Q 997 2584 770 2862 
Q 544 3141 544 3541 
Q 544 4100 942 4425 
Q 1341 4750 2034 4750 
Q 2731 4750 3128 4425 
Q 3525 4100 3525 3541 
Q 3525 3141 3298 2862 
Q 3072 2584 2669 2484 
Q 3125 2378 3379 2068 
Q 3634 1759 3634 1313 
Q 3634 634 3220 271 
Q 2806 -91 2034 -91 
Q 1263 -91 848 271 
Q 434 634 434 1313 
Q 434 1759 690 2068 
Q 947 2378 1403 2484 
z
M 1172 3481 
Q 1172 3119 1398 2916 
Q 1625 2713 2034 2713 
Q 2441 2713 2670 2916 
Q 2900 3119 2900 3481 
Q 2900 3844 2670 4047 
Q 2441 4250 2034 4250 
Q 1625 4250 1398 4047 
Q 1172 3844 1172 3481 
z
" transform="scale(0.015625)"/>
       </defs>
       <use xlink:href="#DejaVuSans-38"/>
      </g>
     </g>
    </g>
    <g id="text_6">
     <!-- Capital por trabalhador efetivo, $k$ -->
     <g style="fill: #1c1b1a" transform="translate(260.196714 333.502031) scale(0.105 -0.105)">
      <defs>
       <path id="DejaVuSans-43" d="M 4122 4306 
L 4122 3641 
Q 3803 3938 3442 4084 
Q 3081 4231 2675 4231 
Q 1875 4231 1450 3742 
Q 1025 3253 1025 2328 
Q 1025 1406 1450 917 
Q 1875 428 2675 428 
Q 3081 428 3442 575 
Q 3803 722 4122 1019 
L 4122 359 
Q 3791 134 3420 21 
Q 3050 -91 2638 -91 
Q 1578 -91 968 557 
Q 359 1206 359 2328 
Q 359 3453 968 4101 
Q 1578 4750 2638 4750 
Q 3056 4750 3426 4639 
Q 3797 4528 4122 4306 
z
" transform="scale(0.015625)"/>
       <path id="DejaVuSans-61" d="M 2194 1759 
Q 1497 1759 1228 1600 
Q 959 1441 959 1056 
Q 959 750 1161 570 
Q 1363 391 1709 391 
Q 2188 391 2477 730 
Q 2766 1069 2766 1631 
L 2766 1759 
L 2194 1759 
z
M 3341 1997 
L 3341 0 
L 2766 0 
L 2766 531 
Q 2569 213 2275 61 
Q 1981 -91 1556 -91 
Q 1019 -91 701 211 
Q 384 513 384 1019 
Q 384 1609 779 1909 
Q 1175 2209 1959 2209 
L 2766 2209 
L 2766 2266 
Q 2766 2663 2505 2880 
Q 2244 3097 1772 3097 
Q 1472 3097 1187 3025 
Q 903 2953 641 2809 
L 641 3341 
Q 956 3463 1253 3523 
Q 1550 3584 1831 3584 
Q 2591 3584 2966 3190 
Q 3341 2797 3341 1997 
z
" transform="scale(0.015625)"/>
       <path id="DejaVuSans-70" d="M 1159 525 
L 1159 -1331 
L 581 -1331 
L 581 3500 
L 1159 3500 
L 1159 2969 
Q 1341 3281 1617 3432 
Q 1894 3584 2278 3584 
Q 2916 3584 3314 3078 
Q 3713 2572 3713 1747 
Q 3713 922 3314 415 
Q 2916 -91 2278 -91 
Q 1894 -91 1617 61 
Q 1341 213 1159 525 
z
M 3116 1747 
Q 3116 2381 2855 2742 
Q 2594 3103 2138 3103 
Q 1681 3103 1420 2742 
Q 1159 2381 1159 1747 
Q 1159 1113 1420 752 
Q 1681 391 2138 391 
Q 2594 391 2855 752 
Q 3116 1113 3116 1747 
z
" transform="scale(0.015625)"/>
       <path id="DejaVuSans-69" d="M 603 3500 
L 1178 3500 
L 1178 0 
L 603 0 
L 603 3500 
z
M 603 4863 
L 1178 4863 
L 1178 4134 
L 603 4134 
L 603 4863 
z
" transform="scale(0.015625)"/>
       <path id="DejaVuSans-74" d="M 1172 4494 
L 1172 3500 
L 2356 3500 
L 2356 3053 
L 1172 3053 
L 1172 1153 
Q 1172 725 1289 603 
Q 1406 481 1766 481 
L 2356 481 
L 2356 0 
L 1766 0 
Q 1100 0 847 248 
Q 594 497 594 1153 
L 594 3053 
L 172 3053 
L 172 3500 
L 594 3500 
L 594 4494 
L 1172 4494 
z
" transform="scale(0.015625)"/>
       <path id="DejaVuSans-6c" d="M 603 4863 
L 1178 4863 
L 1178 0 
L 603 0 
L 603 4863 
z
" transform="scale(0.015625)"/>
       <path id="DejaVuSans-20" transform="scale(0.015625)"/>
       <path id="DejaVuSans-6f" d="M 1959 3097 
Q 1497 3097 1228 2736 
Q 959 2375 959 1747 
Q 959 1119 1226 758 
Q 1494 397 1959 397 
Q 2419 397 2687 759 
Q 2956 1122 2956 1747 
Q 2956 2369 2687 2733 
Q 2419 3097 1959 3097 
z
M 1959 3584 
Q 2709 3584 3137 3096 
Q 3566 2609 3566 1747 
Q 3566 888 3137 398 
Q 2709 -91 1959 -91 
Q 1206 -91 779 398 
Q 353 888 353 1747 
Q 353 2609 779 3096 
Q 1206 3584 1959 3584 
z
" transform="scale(0.015625)"/>
       <path id="DejaVuSans-72" d="M 2631 2963 
Q 2534 3019 2420 3045 
Q 2306 3072 2169 3072 
Q 1681 3072 1420 2755 
Q 1159 2438 1159 1844 
L 1159 0 
L 581 0 
L 581 3500 
L 1159 3500 
L 1159 2956 
Q 1341 3275 1631 3429 
Q 1922 3584 2338 3584 
Q 2397 3584 2469 3576 
Q 2541 3569 2628 3553 
L 2631 2963 
z
" transform="scale(0.015625)"/>
       <path id="DejaVuSans-62" d="M 3116 1747 
Q 3116 2381 2855 2742 
Q 2594 3103 2138 3103 
Q 1681 3103 1420 2742 
Q 1159 2381 1159 1747 
Q 1159 1113 1420 752 
Q 1681 391 2138 391 
Q 2594 391 2855 752 
Q 3116 1113 3116 1747 
z
M 1159 2969 
Q 1341 3281 1617 3432 
Q 1894 3584 2278 3584 
Q 2916 3584 3314 3078 
Q 3713 2572 3713 1747 
Q 3713 922 3314 415 
Q 2916 -91 2278 -91 
Q 1894 -91 1617 61 
Q 1341 213 1159 525 
L 1159 0 
L 581 0 
L 581 4863 
L 1159 4863 
L 1159 2969 
z
" transform="scale(0.015625)"/>
       <path id="DejaVuSans-68" d="M 3513 2113 
L 3513 0 
L 2938 0 
L 2938 2094 
Q 2938 2591 2744 2837 
Q 2550 3084 2163 3084 
Q 1697 3084 1428 2787 
Q 1159 2491 1159 1978 
L 1159 0 
L 581 0 
L 581 4863 
L 1159 4863 
L 1159 2956 
Q 1366 3272 1645 3428 
Q 1925 3584 2291 3584 
Q 2894 3584 3203 3211 
Q 3513 2838 3513 2113 
z
" transform="scale(0.015625)"/>
       <path id="DejaVuSans-64" d="M 2906 2969 
L 2906 4863 
L 3481 4863 
L 3481 0 
L 2906 0 
L 2906 525 
Q 2725 213 2448 61 
Q 2172 -91 1784 -91 
Q 1150 -91 751 415 
Q 353 922 353 1747 
Q 353 2572 751 3078 
Q 1150 3584 1784 3584 
Q 2172 3584 2448 3432 
Q 2725 3281 2906 2969 
z
M 947 1747 
Q 947 1113 1208 752 
Q 1469 391 1925 391 
Q 2381 391 2643 752 
Q 2906 1113 2906 1747 
Q 2906 2381 2643 2742 
Q 2381 3103 1925 3103 
Q 1469 3103 1208 2742 
Q 947 2381 947 1747 
z
" transform="scale(0.015625)"/>
       <path id="DejaVuSans-65" d="M 3597 1894 
L 3597 1613 
L 953 1613 
Q 991 1019 1311 708 
Q 1631 397 2203 397 
Q 2534 397 2845 478 
Q 3156 559 3463 722 
L 3463 178 
Q 3153 47 2828 -22 
Q 2503 -91 2169 -91 
Q 1331 -91 842 396 
Q 353 884 353 1716 
Q 353 2575 817 3079 
Q 1281 3584 2069 3584 
Q 2775 3584 3186 3129 
Q 3597 2675 3597 1894 
z
M 3022 2063 
Q 3016 2534 2758 2815 
Q 2500 3097 2075 3097 
Q 1594 3097 1305 2825 
Q 1016 2553 972 2059 
L 3022 2063 
z
" transform="scale(0.015625)"/>
       <path id="DejaVuSans-66" d="M 2375 4863 
L 2375 4384 
L 1825 4384 
Q 1516 4384 1395 4259 
Q 1275 4134 1275 3809 
L 1275 3500 
L 2222 3500 
L 2222 3053 
L 1275 3053 
L 1275 0 
L 697 0 
L 697 3053 
L 147 3053 
L 147 3500 
L 697 3500 
L 697 3744 
Q 697 4328 969 4595 
Q 1241 4863 1831 4863 
L 2375 4863 
z
" transform="scale(0.015625)"/>
       <path id="DejaVuSans-76" d="M 191 3500 
L 800 3500 
L 1894 563 
L 2988 3500 
L 3597 3500 
L 2284 0 
L 1503 0 
L 191 3500 
z
" transform="scale(0.015625)"/>
       <path id="DejaVuSans-2c" d="M 750 794 
L 1409 794 
L 1409 256 
L 897 -744 
L 494 -744 
L 750 256 
L 750 794 
z
" transform="scale(0.015625)"/>
       <path id="DejaVuSans-Oblique-6b" d="M 1172 4863 
L 1747 4863 
L 1197 2028 
L 3169 3500 
L 3916 3500 
L 1716 1825 
L 3322 0 
L 2625 0 
L 1131 1709 
L 800 0 
L 225 0 
L 1172 4863 
z
" transform="scale(0.015625)"/>
      </defs>
      <use xlink:href="#DejaVuSans-43" transform="translate(0 0.015625)"/>
      <use xlink:href="#DejaVuSans-61" transform="translate(69.824219 0.015625)"/>
      <use xlink:href="#DejaVuSans-70" transform="translate(131.103516 0.015625)"/>
      <use xlink:href="#DejaVuSans-69" transform="translate(194.580078 0.015625)"/>
      <use xlink:href="#DejaVuSans-74" transform="translate(222.363281 0.015625)"/>
      <use xlink:href="#DejaVuSans-61" transform="translate(261.572266 0.015625)"/>
      <use xlink:href="#DejaVuSans-6c" transform="translate(322.851562 0.015625)"/>
      <use xlink:href="#DejaVuSans-20" transform="translate(350.634766 0.015625)"/>
      <use xlink:href="#DejaVuSans-70" transform="translate(382.421875 0.015625)"/>
      <use xlink:href="#DejaVuSans-6f" transform="translate(445.898438 0.015625)"/>
      <use xlink:href="#DejaVuSans-72" transform="translate(507.080078 0.015625)"/>
      <use xlink:href="#DejaVuSans-20" transform="translate(548.193359 0.015625)"/>
      <use xlink:href="#DejaVuSans-74" transform="translate(579.980469 0.015625)"/>
      <use xlink:href="#DejaVuSans-72" transform="translate(619.189453 0.015625)"/>
      <use xlink:href="#DejaVuSans-61" transform="translate(660.302734 0.015625)"/>
      <use xlink:href="#DejaVuSans-62" transform="translate(721.582031 0.015625)"/>
      <use xlink:href="#DejaVuSans-61" transform="translate(785.058594 0.015625)"/>
      <use xlink:href="#DejaVuSans-6c" transform="translate(846.337891 0.015625)"/>
      <use xlink:href="#DejaVuSans-68" transform="translate(874.121094 0.015625)"/>
      <use xlink:href="#DejaVuSans-61" transform="translate(937.5 0.015625)"/>
      <use xlink:href="#DejaVuSans-64" transform="translate(998.779297 0.015625)"/>
      <use xlink:href="#DejaVuSans-6f" transform="translate(1062.255859 0.015625)"/>
      <use xlink:href="#DejaVuSans-72" transform="translate(1123.4375 0.015625)"/>
      <use xlink:href="#DejaVuSans-20" transform="translate(1164.550781 0.015625)"/>
      <use xlink:href="#DejaVuSans-65" transform="translate(1196.337891 0.015625)"/>
      <use xlink:href="#DejaVuSans-66" transform="translate(1257.861328 0.015625)"/>
      <use xlink:href="#DejaVuSans-65" transform="translate(1293.066406 0.015625)"/>
      <use xlink:href="#DejaVuSans-74" transform="translate(1354.589844 0.015625)"/>
      <use xlink:href="#DejaVuSans-69" transform="translate(1393.798828 0.015625)"/>
      <use xlink:href="#DejaVuSans-76" transform="translate(1421.582031 0.015625)"/>
      <use xlink:href="#DejaVuSans-6f" transform="translate(1480.761719 0.015625)"/>
      <use xlink:href="#DejaVuSans-2c" transform="translate(1541.943359 0.015625)"/>
      <use xlink:href="#DejaVuSans-20" transform="translate(1573.730469 0.015625)"/>
      <use xlink:href="#DejaVuSans-Oblique-6b" transform="translate(1605.517578 0.015625)"/>
     </g>
    </g>
   </g>
   <g id="matplotlib.axis_2">
    <g id="ytick_1">
     <g id="line2d_7">
      <path d="M 67.957429 291.497673 
L 627.156 291.497673 
" clip-path="url(#p80a4558ada)" style="fill: none; stroke: #cecdc3; stroke-opacity: 0.9; stroke-width: 0.9; stroke-linecap: square"/>
     </g>
     <g id="line2d_8"/>
     <g id="text_7">
      <!-- -0,3 -->
      <g style="fill: #6f6e69" transform="translate(41.470944 295.486853) scale(0.105 -0.105)">
       <defs>
        <path id="DejaVuSans-2d" d="M 313 2009 
L 1997 2009 
L 1997 1497 
L 313 1497 
L 313 2009 
z
" transform="scale(0.015625)"/>
        <path id="DejaVuSans-33" d="M 2597 2516 
Q 3050 2419 3304 2112 
Q 3559 1806 3559 1356 
Q 3559 666 3084 287 
Q 2609 -91 1734 -91 
Q 1441 -91 1130 -33 
Q 819 25 488 141 
L 488 750 
Q 750 597 1062 519 
Q 1375 441 1716 441 
Q 2309 441 2620 675 
Q 2931 909 2931 1356 
Q 2931 1769 2642 2001 
Q 2353 2234 1838 2234 
L 1294 2234 
L 1294 2753 
L 1863 2753 
Q 2328 2753 2575 2939 
Q 2822 3125 2822 3475 
Q 2822 3834 2567 4026 
Q 2313 4219 1838 4219 
Q 1578 4219 1281 4162 
Q 984 4106 628 3988 
L 628 4550 
Q 988 4650 1302 4700 
Q 1616 4750 1894 4750 
Q 2613 4750 3031 4423 
Q 3450 4097 3450 3541 
Q 3450 3153 3228 2886 
Q 3006 2619 2597 2516 
z
" transform="scale(0.015625)"/>
       </defs>
       <use xlink:href="#DejaVuSans-2d"/>
       <use xlink:href="#DejaVuSans-30" transform="translate(36.083984 0)"/>
       <use xlink:href="#DejaVuSans-2c" transform="translate(99.707031 0)"/>
       <use xlink:href="#DejaVuSans-33" transform="translate(131.494141 0)"/>
      </g>
     </g>
    </g>
    <g id="ytick_2">
     <g id="line2d_9">
      <path d="M 67.957429 245.595411 
L 627.156 245.595411 
" clip-path="url(#p80a4558ada)" style="fill: none; stroke: #cecdc3; stroke-opacity: 0.9; stroke-width: 0.9; stroke-linecap: square"/>
     </g>
     <g id="line2d_10"/>
     <g id="text_8">
      <!-- -0,2 -->
      <g style="fill: #6f6e69" transform="translate(41.470944 249.58459) scale(0.105 -0.105)">
       <use xlink:href="#DejaVuSans-2d"/>
       <use xlink:href="#DejaVuSans-30" transform="translate(36.083984 0)"/>
       <use xlink:href="#DejaVuSans-2c" transform="translate(99.707031 0)"/>
       <use xlink:href="#DejaVuSans-32" transform="translate(131.494141 0)"/>
      </g>
     </g>
    </g>
    <g id="ytick_3">
     <g id="line2d_11">
      <path d="M 67.957429 199.693148 
L 627.156 199.693148 
" clip-path="url(#p80a4558ada)" style="fill: none; stroke: #cecdc3; stroke-opacity: 0.9; stroke-width: 0.9; stroke-linecap: square"/>
     </g>
     <g id="line2d_12"/>
     <g id="text_9">
      <!-- -0,1 -->
      <g style="fill: #6f6e69" transform="translate(41.470944 203.682328) scale(0.105 -0.105)">
       <defs>
        <path id="DejaVuSans-31" d="M 794 531 
L 1825 531 
L 1825 4091 
L 703 3866 
L 703 4441 
L 1819 4666 
L 2450 4666 
L 2450 531 
L 3481 531 
L 3481 0 
L 794 0 
L 794 531 
z
" transform="scale(0.015625)"/>
       </defs>
       <use xlink:href="#DejaVuSans-2d"/>
       <use xlink:href="#DejaVuSans-30" transform="translate(36.083984 0)"/>
       <use xlink:href="#DejaVuSans-2c" transform="translate(99.707031 0)"/>
       <use xlink:href="#DejaVuSans-31" transform="translate(131.494141 0)"/>
      </g>
     </g>
    </g>
    <g id="ytick_4">
     <g id="line2d_13">
      <path d="M 67.957429 153.790886 
L 627.156 153.790886 
" clip-path="url(#p80a4558ada)" style="fill: none; stroke: #cecdc3; stroke-opacity: 0.9; stroke-width: 0.9; stroke-linecap: square"/>
     </g>
     <g id="line2d_14"/>
     <g id="text_10">
      <!-- 0 -->
      <g style="fill: #6f6e69" transform="translate(55.276804 157.780066) scale(0.105 -0.105)">
       <use xlink:href="#DejaVuSans-30"/>
      </g>
     </g>
    </g>
    <g id="ytick_5">
     <g id="line2d_15">
      <path d="M 67.957429 107.888624 
L 627.156 107.888624 
" clip-path="url(#p80a4558ada)" style="fill: none; stroke: #cecdc3; stroke-opacity: 0.9; stroke-width: 0.9; stroke-linecap: square"/>
     </g>
     <g id="line2d_16"/>
     <g id="text_11">
      <!-- 0,1 -->
      <g style="fill: #6f6e69" transform="translate(45.259147 111.877803) scale(0.105 -0.105)">
       <use xlink:href="#DejaVuSans-30"/>
       <use xlink:href="#DejaVuSans-2c" transform="translate(63.623047 0)"/>
       <use xlink:href="#DejaVuSans-31" transform="translate(95.410156 0)"/>
      </g>
     </g>
    </g>
    <g id="text_12">
     <!-- Variação do capital, $\dot{k}$ -->
     <g style="fill: #1c1b1a" transform="translate(29.265944 250.660643) rotate(-90) scale(0.105 -0.105)">
      <defs>
       <path id="DejaVuSans-56" d="M 1831 0 
L 50 4666 
L 709 4666 
L 2188 738 
L 3669 4666 
L 4325 4666 
L 2547 0 
L 1831 0 
z
" transform="scale(0.015625)"/>
       <path id="DejaVuSans-e7" d="M 3122 3366 
L 3122 2828 
Q 2878 2963 2633 3030 
Q 2388 3097 2138 3097 
Q 1578 3097 1268 2742 
Q 959 2388 959 1747 
Q 959 1106 1268 751 
Q 1578 397 2138 397 
Q 2388 397 2633 464 
Q 2878 531 3122 666 
L 3122 134 
Q 2881 22 2623 -34 
Q 2366 -91 2075 -91 
Q 1284 -91 818 406 
Q 353 903 353 1747 
Q 353 2603 823 3093 
Q 1294 3584 2113 3584 
Q 2378 3584 2631 3529 
Q 2884 3475 3122 3366 
z
M 2311 0 
Q 2482 -194 2566 -358 
Q 2651 -522 2651 -672 
Q 2651 -950 2463 -1092 
Q 2276 -1234 1907 -1234 
Q 1764 -1234 1628 -1215 
Q 1492 -1197 1357 -1159 
L 1357 -750 
Q 1464 -803 1579 -826 
Q 1695 -850 1842 -850 
Q 2026 -850 2120 -775 
Q 2214 -700 2214 -556 
Q 2214 -463 2146 -327 
Q 2079 -191 1939 0 
L 2311 0 
z
" transform="scale(0.015625)"/>
       <path id="DejaVuSans-e3" d="M 2194 1759 
Q 1497 1759 1228 1600 
Q 959 1441 959 1056 
Q 959 750 1161 570 
Q 1363 391 1709 391 
Q 2188 391 2477 730 
Q 2766 1069 2766 1631 
L 2766 1759 
L 2194 1759 
z
M 3341 1997 
L 3341 0 
L 2766 0 
L 2766 531 
Q 2569 213 2275 61 
Q 1981 -91 1556 -91 
Q 1019 -91 701 211 
Q 384 513 384 1019 
Q 384 1609 779 1909 
Q 1175 2209 1959 2209 
L 2766 2209 
L 2766 2266 
Q 2766 2663 2505 2880 
Q 2244 3097 1772 3097 
Q 1472 3097 1187 3025 
Q 903 2953 641 2809 
L 641 3341 
Q 956 3463 1253 3523 
Q 1550 3584 1831 3584 
Q 2591 3584 2966 3190 
Q 3341 2797 3341 1997 
z
M 1844 4281 
L 1665 4453 
Q 1597 4516 1545 4545 
Q 1494 4575 1453 4575 
Q 1334 4575 1278 4461 
Q 1222 4347 1215 4091 
L 825 4091 
Q 831 4513 990 4742 
Q 1150 4972 1434 4972 
Q 1553 4972 1653 4928 
Q 1753 4884 1869 4781 
L 2047 4609 
Q 2115 4547 2167 4517 
Q 2219 4488 2259 4488 
Q 2378 4488 2434 4602 
Q 2490 4716 2497 4972 
L 2887 4972 
Q 2881 4550 2721 4320 
Q 2562 4091 2278 4091 
Q 2159 4091 2059 4134 
Q 1959 4178 1844 4281 
z
" transform="scale(0.015625)"/>
       <path id="DejaVuSans-63" d="M 3122 3366 
L 3122 2828 
Q 2878 2963 2633 3030 
Q 2388 3097 2138 3097 
Q 1578 3097 1268 2742 
Q 959 2388 959 1747 
Q 959 1106 1268 751 
Q 1578 397 2138 397 
Q 2388 397 2633 464 
Q 2878 531 3122 666 
L 3122 134 
Q 2881 22 2623 -34 
Q 2366 -91 2075 -91 
Q 1284 -91 818 406 
Q 353 903 353 1747 
Q 353 2603 823 3093 
Q 1294 3584 2113 3584 
Q 2378 3584 2631 3529 
Q 2884 3475 3122 3366 
z
" transform="scale(0.015625)"/>
       <path id="DejaVuSans-307" d="M -1894 4863 
L -1319 4863 
L -1319 4134 
L -1894 4134 
L -1894 4863 
z
M -1600 3584 
L -1600 3584 
z
" transform="scale(0.015625)"/>
      </defs>
      <use xlink:href="#DejaVuSans-56" transform="translate(0 0.53125)"/>
      <use xlink:href="#DejaVuSans-61" transform="translate(68.408203 0.53125)"/>
      <use xlink:href="#DejaVuSans-72" transform="translate(129.6875 0.53125)"/>
      <use xlink:href="#DejaVuSans-69" transform="translate(170.800781 0.53125)"/>
      <use xlink:href="#DejaVuSans-61" transform="translate(198.583984 0.53125)"/>
      <use xlink:href="#DejaVuSans-e7" transform="translate(259.863281 0.53125)"/>
      <use xlink:href="#DejaVuSans-e3" transform="translate(314.84375 0.53125)"/>
      <use xlink:href="#DejaVuSans-6f" transform="translate(376.123047 0.53125)"/>
      <use xlink:href="#DejaVuSans-20" transform="translate(437.304688 0.53125)"/>
      <use xlink:href="#DejaVuSans-64" transform="translate(469.091797 0.53125)"/>
      <use xlink:href="#DejaVuSans-6f" transform="translate(532.568359 0.53125)"/>
      <use xlink:href="#DejaVuSans-20" transform="translate(593.75 0.53125)"/>
      <use xlink:href="#DejaVuSans-63" transform="translate(625.537109 0.53125)"/>
      <use xlink:href="#DejaVuSans-61" transform="translate(680.517578 0.53125)"/>
      <use xlink:href="#DejaVuSans-70" transform="translate(741.796875 0.53125)"/>
      <use xlink:href="#DejaVuSans-69" transform="translate(805.273438 0.53125)"/>
      <use xlink:href="#DejaVuSans-74" transform="translate(833.056641 0.53125)"/>
      <use xlink:href="#DejaVuSans-61" transform="translate(872.265625 0.53125)"/>
      <use xlink:href="#DejaVuSans-6c" transform="translate(933.544922 0.53125)"/>
      <use xlink:href="#DejaVuSans-2c" transform="translate(961.328125 0.53125)"/>
      <use xlink:href="#DejaVuSans-20" transform="translate(993.115234 0.53125)"/>
      <use xlink:href="#DejaVuSans-307" transform="translate(1085.973633 33.015625)"/>
      <use xlink:href="#DejaVuSans-Oblique-6b" transform="translate(1024.902344 0.53125)"/>
     </g>
    </g>
   </g>
   <g id="line2d_17">
    <path d="M 93.375545 149.400517 
L 94.649637 128.461361 
L 95.923728 122.578813 
L 97.197819 118.699201 
L 98.47191 115.779341 
L 99.746001 113.442128 
L 101.020092 111.502987 
L 102.294183 109.856137 
L 103.568274 108.434651 
L 106.116456 106.099422 
L 108.664638 104.264958 
L 111.21282 102.798142 
L 113.761003 101.614766 
L 116.309185 100.657782 
L 118.857367 99.886545 
L 122.67964 99.014136 
L 126.501913 98.41978 
L 130.324187 98.051691 
L 134.14646 97.87197 
L 139.242824 97.876775 
L 144.339188 98.115117 
L 149.435553 98.549149 
L 155.806008 99.323474 
L 162.176463 100.315712 
L 169.82101 101.748446 
L 177.465556 103.4049 
L 186.384194 105.576525 
L 195.302831 107.967554 
L 205.49556 110.929083 
L 216.962379 114.509943 
L 228.429199 118.316377 
L 241.17011 122.772627 
L 255.185112 127.91191 
L 270.474204 133.762334 
L 287.037388 140.347413 
L 304.874663 147.686662 
L 323.986029 155.79617 
L 344.371487 164.689144 
L 366.031035 174.376388 
L 390.238765 185.455918 
L 415.720587 197.369197 
L 442.476499 210.119243 
L 471.780594 224.331162 
L 503.632871 240.035592 
L 536.759238 256.616511 
L 572.433788 274.721201 
L 601.737883 289.763922 
L 601.737883 289.763922 
" clip-path="url(#p80a4558ada)" style="fill: none; stroke: #4385be; stroke-width: 2.4; stroke-linecap: square"/>
   </g>
   <g id="line2d_18">
    <path d="M 319.311165 299.36 
L 319.311165 88.246286 
" clip-path="url(#p80a4558ada)" style="fill: none; stroke-dasharray: 1.3,2.145; stroke-dashoffset: 0; stroke: #6f6e69; stroke-width: 1.3"/>
   </g>
   <g id="patch_3">
    <path d="M 67.957429 299.36 
L 67.957429 88.246286 
" style="fill: none; stroke: #cecdc3; stroke-width: 0.8; stroke-linejoin: miter; stroke-linecap: square"/>
   </g>
   <g id="patch_4">
    <path d="M 67.957429 299.36 
L 627.156 299.36 
" style="fill: none; stroke: #cecdc3; stroke-width: 0.8; stroke-linejoin: miter; stroke-linecap: square"/>
   </g>
   <g id="text_13">
    <!-- $k^*$ -->
    <g style="fill: #6f6e69" transform="translate(312.433665 171.790886) scale(0.105 -0.105)">
     <defs>
      <path id="DejaVuSans-2a" d="M 3009 3897 
L 1888 3291 
L 3009 2681 
L 2828 2375 
L 1778 3009 
L 1778 1831 
L 1422 1831 
L 1422 3009 
L 372 2375 
L 191 2681 
L 1313 3291 
L 191 3897 
L 372 4206 
L 1422 3572 
L 1422 4750 
L 1778 4750 
L 1778 3572 
L 2828 4206 
L 3009 3897 
z
" transform="scale(0.015625)"/>
     </defs>
     <use xlink:href="#DejaVuSans-Oblique-6b" transform="translate(0 0.765625)"/>
     <use xlink:href="#DejaVuSans-2a" transform="translate(78.99556 39.046875) scale(0.7)"/>
    </g>
   </g>
  </g>
  <g id="text_14">
   <!-- Diagrama de fase do Solow -->
   <g style="fill: #1c1b1a" transform="translate(14.4 26.5575) scale(0.16 -0.16)">
    <defs>
     <path id="DejaVuSans-Bold-44" d="M 1791 3756 
L 1791 909 
L 2222 909 
Q 2959 909 3348 1275 
Q 3738 1641 3738 2338 
Q 3738 3031 3350 3393 
Q 2963 3756 2222 3756 
L 1791 3756 
z
M 588 4666 
L 1856 4666 
Q 2919 4666 3439 4514 
Q 3959 4363 4331 4000 
Q 4659 3684 4818 3271 
Q 4978 2859 4978 2338 
Q 4978 1809 4818 1395 
Q 4659 981 4331 666 
Q 3956 303 3431 151 
Q 2906 0 1856 0 
L 588 0 
L 588 4666 
z
" transform="scale(0.015625)"/>
     <path id="DejaVuSans-Bold-69" d="M 538 3500 
L 1656 3500 
L 1656 0 
L 538 0 
L 538 3500 
z
M 538 4863 
L 1656 4863 
L 1656 3950 
L 538 3950 
L 538 4863 
z
" transform="scale(0.015625)"/>
     <path id="DejaVuSans-Bold-61" d="M 2106 1575 
Q 1756 1575 1579 1456 
Q 1403 1338 1403 1106 
Q 1403 894 1545 773 
Q 1688 653 1941 653 
Q 2256 653 2472 879 
Q 2688 1106 2688 1447 
L 2688 1575 
L 2106 1575 
z
M 3816 1997 
L 3816 0 
L 2688 0 
L 2688 519 
Q 2463 200 2181 54 
Q 1900 -91 1497 -91 
Q 953 -91 614 226 
Q 275 544 275 1050 
Q 275 1666 698 1953 
Q 1122 2241 2028 2241 
L 2688 2241 
L 2688 2328 
Q 2688 2594 2478 2717 
Q 2269 2841 1825 2841 
Q 1466 2841 1156 2769 
Q 847 2697 581 2553 
L 581 3406 
Q 941 3494 1303 3539 
Q 1666 3584 2028 3584 
Q 2975 3584 3395 3211 
Q 3816 2838 3816 1997 
z
" transform="scale(0.015625)"/>
     <path id="DejaVuSans-Bold-67" d="M 2919 594 
Q 2688 288 2409 144 
Q 2131 0 1766 0 
Q 1125 0 706 504 
Q 288 1009 288 1791 
Q 288 2575 706 3076 
Q 1125 3578 1766 3578 
Q 2131 3578 2409 3434 
Q 2688 3291 2919 2981 
L 2919 3500 
L 4044 3500 
L 4044 353 
Q 4044 -491 3511 -936 
Q 2978 -1381 1966 -1381 
Q 1638 -1381 1331 -1331 
Q 1025 -1281 716 -1178 
L 716 -306 
Q 1009 -475 1290 -558 
Q 1572 -641 1856 -641 
Q 2406 -641 2662 -400 
Q 2919 -159 2919 353 
L 2919 594 
z
M 2181 2772 
Q 1834 2772 1640 2515 
Q 1447 2259 1447 1791 
Q 1447 1309 1634 1061 
Q 1822 813 2181 813 
Q 2531 813 2725 1069 
Q 2919 1325 2919 1791 
Q 2919 2259 2725 2515 
Q 2531 2772 2181 2772 
z
" transform="scale(0.015625)"/>
     <path id="DejaVuSans-Bold-72" d="M 3138 2547 
Q 2991 2616 2845 2648 
Q 2700 2681 2553 2681 
Q 2122 2681 1889 2404 
Q 1656 2128 1656 1613 
L 1656 0 
L 538 0 
L 538 3500 
L 1656 3500 
L 1656 2925 
Q 1872 3269 2151 3426 
Q 2431 3584 2822 3584 
Q 2878 3584 2943 3579 
Q 3009 3575 3134 3559 
L 3138 2547 
z
" transform="scale(0.015625)"/>
     <path id="DejaVuSans-Bold-6d" d="M 3781 2919 
Q 3994 3244 4286 3414 
Q 4578 3584 4928 3584 
Q 5531 3584 5847 3212 
Q 6163 2841 6163 2131 
L 6163 0 
L 5038 0 
L 5038 1825 
Q 5041 1866 5042 1909 
Q 5044 1953 5044 2034 
Q 5044 2406 4934 2573 
Q 4825 2741 4581 2741 
Q 4263 2741 4089 2478 
Q 3916 2216 3909 1719 
L 3909 0 
L 2784 0 
L 2784 1825 
Q 2784 2406 2684 2573 
Q 2584 2741 2328 2741 
Q 2006 2741 1831 2477 
Q 1656 2213 1656 1722 
L 1656 0 
L 531 0 
L 531 3500 
L 1656 3500 
L 1656 2988 
Q 1863 3284 2130 3434 
Q 2397 3584 2719 3584 
Q 3081 3584 3359 3409 
Q 3638 3234 3781 2919 
z
" transform="scale(0.015625)"/>
     <path id="DejaVuSans-Bold-20" transform="scale(0.015625)"/>
     <path id="DejaVuSans-Bold-64" d="M 2919 2988 
L 2919 4863 
L 4044 4863 
L 4044 0 
L 2919 0 
L 2919 506 
Q 2688 197 2409 53 
Q 2131 -91 1766 -91 
Q 1119 -91 703 423 
Q 288 938 288 1747 
Q 288 2556 703 3070 
Q 1119 3584 1766 3584 
Q 2128 3584 2408 3439 
Q 2688 3294 2919 2988 
z
M 2181 722 
Q 2541 722 2730 984 
Q 2919 1247 2919 1747 
Q 2919 2247 2730 2509 
Q 2541 2772 2181 2772 
Q 1825 2772 1636 2509 
Q 1447 2247 1447 1747 
Q 1447 1247 1636 984 
Q 1825 722 2181 722 
z
" transform="scale(0.015625)"/>
     <path id="DejaVuSans-Bold-65" d="M 4031 1759 
L 4031 1441 
L 1416 1441 
Q 1456 1047 1700 850 
Q 1944 653 2381 653 
Q 2734 653 3104 758 
Q 3475 863 3866 1075 
L 3866 213 
Q 3469 63 3072 -14 
Q 2675 -91 2278 -91 
Q 1328 -91 801 392 
Q 275 875 275 1747 
Q 275 2603 792 3093 
Q 1309 3584 2216 3584 
Q 3041 3584 3536 3087 
Q 4031 2591 4031 1759 
z
M 2881 2131 
Q 2881 2450 2695 2645 
Q 2509 2841 2209 2841 
Q 1884 2841 1681 2658 
Q 1478 2475 1428 2131 
L 2881 2131 
z
" transform="scale(0.015625)"/>
     <path id="DejaVuSans-Bold-66" d="M 2841 4863 
L 2841 4128 
L 2222 4128 
Q 1984 4128 1890 4042 
Q 1797 3956 1797 3744 
L 1797 3500 
L 2753 3500 
L 2753 2700 
L 1797 2700 
L 1797 0 
L 678 0 
L 678 2700 
L 122 2700 
L 122 3500 
L 678 3500 
L 678 3744 
Q 678 4316 997 4589 
Q 1316 4863 1984 4863 
L 2841 4863 
z
" transform="scale(0.015625)"/>
     <path id="DejaVuSans-Bold-73" d="M 3272 3391 
L 3272 2541 
Q 2913 2691 2578 2766 
Q 2244 2841 1947 2841 
Q 1628 2841 1473 2761 
Q 1319 2681 1319 2516 
Q 1319 2381 1436 2309 
Q 1553 2238 1856 2203 
L 2053 2175 
Q 2913 2066 3209 1816 
Q 3506 1566 3506 1031 
Q 3506 472 3093 190 
Q 2681 -91 1863 -91 
Q 1516 -91 1145 -36 
Q 775 19 384 128 
L 384 978 
Q 719 816 1070 734 
Q 1422 653 1784 653 
Q 2113 653 2278 743 
Q 2444 834 2444 1013 
Q 2444 1163 2330 1236 
Q 2216 1309 1875 1350 
L 1678 1375 
Q 931 1469 631 1722 
Q 331 1975 331 2491 
Q 331 3047 712 3315 
Q 1094 3584 1881 3584 
Q 2191 3584 2531 3537 
Q 2872 3491 3272 3391 
z
" transform="scale(0.015625)"/>
     <path id="DejaVuSans-Bold-6f" d="M 2203 2784 
Q 1831 2784 1636 2517 
Q 1441 2250 1441 1747 
Q 1441 1244 1636 976 
Q 1831 709 2203 709 
Q 2569 709 2762 976 
Q 2956 1244 2956 1747 
Q 2956 2250 2762 2517 
Q 2569 2784 2203 2784 
z
M 2203 3584 
Q 3106 3584 3614 3096 
Q 4122 2609 4122 1747 
Q 4122 884 3614 396 
Q 3106 -91 2203 -91 
Q 1297 -91 786 396 
Q 275 884 275 1747 
Q 275 2609 786 3096 
Q 1297 3584 2203 3584 
z
" transform="scale(0.015625)"/>
     <path id="DejaVuSans-Bold-53" d="M 3834 4519 
L 3834 3531 
Q 3450 3703 3084 3790 
Q 2719 3878 2394 3878 
Q 1963 3878 1756 3759 
Q 1550 3641 1550 3391 
Q 1550 3203 1689 3098 
Q 1828 2994 2194 2919 
L 2706 2816 
Q 3484 2659 3812 2340 
Q 4141 2022 4141 1434 
Q 4141 663 3683 286 
Q 3225 -91 2284 -91 
Q 1841 -91 1394 -6 
Q 947 78 500 244 
L 500 1259 
Q 947 1022 1364 901 
Q 1781 781 2169 781 
Q 2563 781 2772 912 
Q 2981 1044 2981 1288 
Q 2981 1506 2839 1625 
Q 2697 1744 2272 1838 
L 1806 1941 
Q 1106 2091 782 2419 
Q 459 2747 459 3303 
Q 459 4000 909 4375 
Q 1359 4750 2203 4750 
Q 2588 4750 2994 4692 
Q 3400 4634 3834 4519 
z
" transform="scale(0.015625)"/>
     <path id="DejaVuSans-Bold-6c" d="M 538 4863 
L 1656 4863 
L 1656 0 
L 538 0 
L 538 4863 
z
" transform="scale(0.015625)"/>
     <path id="DejaVuSans-Bold-77" d="M 225 3500 
L 1313 3500 
L 1900 1088 
L 2491 3500 
L 3425 3500 
L 4013 1113 
L 4603 3500 
L 5691 3500 
L 4769 0 
L 3547 0 
L 2956 2406 
L 2369 0 
L 1147 0 
L 225 3500 
z
" transform="scale(0.015625)"/>
    </defs>
    <use xlink:href="#DejaVuSans-Bold-44"/>
    <use xlink:href="#DejaVuSans-Bold-69" transform="translate(83.007812 0)"/>
    <use xlink:href="#DejaVuSans-Bold-61" transform="translate(117.285156 0)"/>
    <use xlink:href="#DejaVuSans-Bold-67" transform="translate(184.765625 0)"/>
    <use xlink:href="#DejaVuSans-Bold-72" transform="translate(256.347656 0)"/>
    <use xlink:href="#DejaVuSans-Bold-61" transform="translate(305.664062 0)"/>
    <use xlink:href="#DejaVuSans-Bold-6d" transform="translate(373.144531 0)"/>
    <use xlink:href="#DejaVuSans-Bold-61" transform="translate(477.34375 0)"/>
    <use xlink:href="#DejaVuSans-Bold-20" transform="translate(544.824219 0)"/>
    <use xlink:href="#DejaVuSans-Bold-64" transform="translate(579.638672 0)"/>
    <use xlink:href="#DejaVuSans-Bold-65" transform="translate(651.220703 0)"/>
    <use xlink:href="#DejaVuSans-Bold-20" transform="translate(719.042969 0)"/>
    <use xlink:href="#DejaVuSans-Bold-66" transform="translate(753.857422 0)"/>
    <use xlink:href="#DejaVuSans-Bold-61" transform="translate(797.363281 0)"/>
    <use xlink:href="#DejaVuSans-Bold-73" transform="translate(864.84375 0)"/>
    <use xlink:href="#DejaVuSans-Bold-65" transform="translate(924.365234 0)"/>
    <use xlink:href="#DejaVuSans-Bold-20" transform="translate(992.1875 0)"/>
    <use xlink:href="#DejaVuSans-Bold-64" transform="translate(1027.001953 0)"/>
    <use xlink:href="#DejaVuSans-Bold-6f" transform="translate(1098.583984 0)"/>
    <use xlink:href="#DejaVuSans-Bold-20" transform="translate(1167.285156 0)"/>
    <use xlink:href="#DejaVuSans-Bold-53" transform="translate(1202.099609 0)"/>
    <use xlink:href="#DejaVuSans-Bold-6f" transform="translate(1274.121094 0)"/>
    <use xlink:href="#DejaVuSans-Bold-6c" transform="translate(1342.822266 0)"/>
    <use xlink:href="#DejaVuSans-Bold-6f" transform="translate(1377.099609 0)"/>
    <use xlink:href="#DejaVuSans-Bold-77" transform="translate(1445.800781 0)"/>
   </g>
  </g>
  <g id="text_15">
   <!-- À esquerda de k* o capital cresce; à direita de k* ele recua em direção ao estado estacionário. -->
   <g style="fill: #6f6e69" transform="translate(14.4 39.100594) scale(0.102 -0.102)">
    <defs>
     <path id="DejaVuSans-c0" d="M 2188 4044 
L 1331 1722 
L 3047 1722 
L 2188 4044 
z
M 1831 4666 
L 2547 4666 
L 4325 0 
L 3669 0 
L 3244 1197 
L 1141 1197 
L 716 0 
L 50 0 
L 1831 4666 
z
M 2006 5921 
L 2618 5096 
L 2140 5096 
L 1422 5921 
L 2006 5921 
z
" transform="scale(0.015625)"/>
     <path id="DejaVuSans-73" d="M 2834 3397 
L 2834 2853 
Q 2591 2978 2328 3040 
Q 2066 3103 1784 3103 
Q 1356 3103 1142 2972 
Q 928 2841 928 2578 
Q 928 2378 1081 2264 
Q 1234 2150 1697 2047 
L 1894 2003 
Q 2506 1872 2764 1633 
Q 3022 1394 3022 966 
Q 3022 478 2636 193 
Q 2250 -91 1575 -91 
Q 1294 -91 989 -36 
Q 684 19 347 128 
L 347 722 
Q 666 556 975 473 
Q 1284 391 1588 391 
Q 1994 391 2212 530 
Q 2431 669 2431 922 
Q 2431 1156 2273 1281 
Q 2116 1406 1581 1522 
L 1381 1569 
Q 847 1681 609 1914 
Q 372 2147 372 2553 
Q 372 3047 722 3315 
Q 1072 3584 1716 3584 
Q 2034 3584 2315 3537 
Q 2597 3491 2834 3397 
z
" transform="scale(0.015625)"/>
     <path id="DejaVuSans-71" d="M 947 1747 
Q 947 1113 1208 752 
Q 1469 391 1925 391 
Q 2381 391 2643 752 
Q 2906 1113 2906 1747 
Q 2906 2381 2643 2742 
Q 2381 3103 1925 3103 
Q 1469 3103 1208 2742 
Q 947 2381 947 1747 
z
M 2906 525 
Q 2725 213 2448 61 
Q 2172 -91 1784 -91 
Q 1150 -91 751 415 
Q 353 922 353 1747 
Q 353 2572 751 3078 
Q 1150 3584 1784 3584 
Q 2172 3584 2448 3432 
Q 2725 3281 2906 2969 
L 2906 3500 
L 3481 3500 
L 3481 -1331 
L 2906 -1331 
L 2906 525 
z
" transform="scale(0.015625)"/>
     <path id="DejaVuSans-75" d="M 544 1381 
L 544 3500 
L 1119 3500 
L 1119 1403 
Q 1119 906 1312 657 
Q 1506 409 1894 409 
Q 2359 409 2629 706 
Q 2900 1003 2900 1516 
L 2900 3500 
L 3475 3500 
L 3475 0 
L 2900 0 
L 2900 538 
Q 2691 219 2414 64 
Q 2138 -91 1772 -91 
Q 1169 -91 856 284 
Q 544 659 544 1381 
z
M 1991 3584 
L 1991 3584 
z
" transform="scale(0.015625)"/>
     <path id="DejaVuSans-6b" d="M 581 4863 
L 1159 4863 
L 1159 1991 
L 2875 3500 
L 3609 3500 
L 1753 1863 
L 3688 0 
L 2938 0 
L 1159 1709 
L 1159 0 
L 581 0 
L 581 4863 
z
" transform="scale(0.015625)"/>
     <path id="DejaVuSans-3b" d="M 750 3309 
L 1409 3309 
L 1409 2516 
L 750 2516 
L 750 3309 
z
M 750 794 
L 1409 794 
L 1409 256 
L 897 -744 
L 494 -744 
L 750 256 
L 750 794 
z
" transform="scale(0.015625)"/>
     <path id="DejaVuSans-e0" d="M 2194 1759 
Q 1497 1759 1228 1600 
Q 959 1441 959 1056 
Q 959 750 1161 570 
Q 1363 391 1709 391 
Q 2188 391 2477 730 
Q 2766 1069 2766 1631 
L 2766 1759 
L 2194 1759 
z
M 3341 1997 
L 3341 0 
L 2766 0 
L 2766 531 
Q 2569 213 2275 61 
Q 1981 -91 1556 -91 
Q 1019 -91 701 211 
Q 384 513 384 1019 
Q 384 1609 779 1909 
Q 1175 2209 1959 2209 
L 2766 2209 
L 2766 2266 
Q 2766 2663 2505 2880 
Q 2244 3097 1772 3097 
Q 1472 3097 1187 3025 
Q 903 2953 641 2809 
L 641 3341 
Q 956 3463 1253 3523 
Q 1550 3584 1831 3584 
Q 2591 3584 2966 3190 
Q 3341 2797 3341 1997 
z
M 1403 5119 
L 2284 3950 
L 1806 3950 
L 787 5119 
L 1403 5119 
z
" transform="scale(0.015625)"/>
     <path id="DejaVuSans-6d" d="M 3328 2828 
Q 3544 3216 3844 3400 
Q 4144 3584 4550 3584 
Q 5097 3584 5394 3201 
Q 5691 2819 5691 2113 
L 5691 0 
L 5113 0 
L 5113 2094 
Q 5113 2597 4934 2840 
Q 4756 3084 4391 3084 
Q 3944 3084 3684 2787 
Q 3425 2491 3425 1978 
L 3425 0 
L 2847 0 
L 2847 2094 
Q 2847 2600 2669 2842 
Q 2491 3084 2119 3084 
Q 1678 3084 1418 2786 
Q 1159 2488 1159 1978 
L 1159 0 
L 581 0 
L 581 3500 
L 1159 3500 
L 1159 2956 
Q 1356 3278 1631 3431 
Q 1906 3584 2284 3584 
Q 2666 3584 2933 3390 
Q 3200 3197 3328 2828 
z
" transform="scale(0.015625)"/>
     <path id="DejaVuSans-6e" d="M 3513 2113 
L 3513 0 
L 2938 0 
L 2938 2094 
Q 2938 2591 2744 2837 
Q 2550 3084 2163 3084 
Q 1697 3084 1428 2787 
Q 1159 2491 1159 1978 
L 1159 0 
L 581 0 
L 581 3500 
L 1159 3500 
L 1159 2956 
Q 1366 3272 1645 3428 
Q 1925 3584 2291 3584 
Q 2894 3584 3203 3211 
Q 3513 2838 3513 2113 
z
" transform="scale(0.015625)"/>
     <path id="DejaVuSans-e1" d="M 2194 1759 
Q 1497 1759 1228 1600 
Q 959 1441 959 1056 
Q 959 750 1161 570 
Q 1363 391 1709 391 
Q 2188 391 2477 730 
Q 2766 1069 2766 1631 
L 2766 1759 
L 2194 1759 
z
M 3341 1997 
L 3341 0 
L 2766 0 
L 2766 531 
Q 2569 213 2275 61 
Q 1981 -91 1556 -91 
Q 1019 -91 701 211 
Q 384 513 384 1019 
Q 384 1609 779 1909 
Q 1175 2209 1959 2209 
L 2766 2209 
L 2766 2266 
Q 2766 2663 2505 2880 
Q 2244 3097 1772 3097 
Q 1472 3097 1187 3025 
Q 903 2953 641 2809 
L 641 3341 
Q 956 3463 1253 3523 
Q 1550 3584 1831 3584 
Q 2591 3584 2966 3190 
Q 3341 2797 3341 1997 
z
M 2290 5119 
L 2912 5119 
L 1894 3944 
L 1415 3944 
L 2290 5119 
z
" transform="scale(0.015625)"/>
     <path id="DejaVuSans-2e" d="M 684 794 
L 1344 794 
L 1344 0 
L 684 0 
L 684 794 
z
" transform="scale(0.015625)"/>
    </defs>
    <use xlink:href="#DejaVuSans-c0"/>
    <use xlink:href="#DejaVuSans-20" transform="translate(68.408203 0)"/>
    <use xlink:href="#DejaVuSans-65" transform="translate(100.195312 0)"/>
    <use xlink:href="#DejaVuSans-73" transform="translate(161.71875 0)"/>
    <use xlink:href="#DejaVuSans-71" transform="translate(213.818359 0)"/>
    <use xlink:href="#DejaVuSans-75" transform="translate(277.294922 0)"/>
    <use xlink:href="#DejaVuSans-65" transform="translate(340.673828 0)"/>
    <use xlink:href="#DejaVuSans-72" transform="translate(402.197266 0)"/>
    <use xlink:href="#DejaVuSans-64" transform="translate(441.560547 0)"/>
    <use xlink:href="#DejaVuSans-61" transform="translate(505.037109 0)"/>
    <use xlink:href="#DejaVuSans-20" transform="translate(566.316406 0)"/>
    <use xlink:href="#DejaVuSans-64" transform="translate(598.103516 0)"/>
    <use xlink:href="#DejaVuSans-65" transform="translate(661.580078 0)"/>
    <use xlink:href="#DejaVuSans-20" transform="translate(723.103516 0)"/>
    <use xlink:href="#DejaVuSans-6b" transform="translate(754.890625 0)"/>
    <use xlink:href="#DejaVuSans-2a" transform="translate(812.800781 0)"/>
    <use xlink:href="#DejaVuSans-20" transform="translate(862.800781 0)"/>
    <use xlink:href="#DejaVuSans-6f" transform="translate(894.587891 0)"/>
    <use xlink:href="#DejaVuSans-20" transform="translate(955.769531 0)"/>
    <use xlink:href="#DejaVuSans-63" transform="translate(987.556641 0)"/>
    <use xlink:href="#DejaVuSans-61" transform="translate(1042.537109 0)"/>
    <use xlink:href="#DejaVuSans-70" transform="translate(1103.816406 0)"/>
    <use xlink:href="#DejaVuSans-69" transform="translate(1167.292969 0)"/>
    <use xlink:href="#DejaVuSans-74" transform="translate(1195.076172 0)"/>
    <use xlink:href="#DejaVuSans-61" transform="translate(1234.285156 0)"/>
    <use xlink:href="#DejaVuSans-6c" transform="translate(1295.564453 0)"/>
    <use xlink:href="#DejaVuSans-20" transform="translate(1323.347656 0)"/>
    <use xlink:href="#DejaVuSans-63" transform="translate(1355.134766 0)"/>
    <use xlink:href="#DejaVuSans-72" transform="translate(1410.115234 0)"/>
    <use xlink:href="#DejaVuSans-65" transform="translate(1448.978516 0)"/>
    <use xlink:href="#DejaVuSans-73" transform="translate(1510.501953 0)"/>
    <use xlink:href="#DejaVuSans-63" transform="translate(1562.601562 0)"/>
    <use xlink:href="#DejaVuSans-65" transform="translate(1617.582031 0)"/>
    <use xlink:href="#DejaVuSans-3b" transform="translate(1679.105469 0)"/>
    <use xlink:href="#DejaVuSans-20" transform="translate(1712.796875 0)"/>
    <use xlink:href="#DejaVuSans-e0" transform="translate(1744.583984 0)"/>
    <use xlink:href="#DejaVuSans-20" transform="translate(1805.863281 0)"/>
    <use xlink:href="#DejaVuSans-64" transform="translate(1837.650391 0)"/>
    <use xlink:href="#DejaVuSans-69" transform="translate(1901.126953 0)"/>
    <use xlink:href="#DejaVuSans-72" transform="translate(1928.910156 0)"/>
    <use xlink:href="#DejaVuSans-65" transform="translate(1967.773438 0)"/>
    <use xlink:href="#DejaVuSans-69" transform="translate(2029.296875 0)"/>
    <use xlink:href="#DejaVuSans-74" transform="translate(2057.080078 0)"/>
    <use xlink:href="#DejaVuSans-61" transform="translate(2096.289062 0)"/>
    <use xlink:href="#DejaVuSans-20" transform="translate(2157.568359 0)"/>
    <use xlink:href="#DejaVuSans-64" transform="translate(2189.355469 0)"/>
    <use xlink:href="#DejaVuSans-65" transform="translate(2252.832031 0)"/>
    <use xlink:href="#DejaVuSans-20" transform="translate(2314.355469 0)"/>
    <use xlink:href="#DejaVuSans-6b" transform="translate(2346.142578 0)"/>
    <use xlink:href="#DejaVuSans-2a" transform="translate(2404.052734 0)"/>
    <use xlink:href="#DejaVuSans-20" transform="translate(2454.052734 0)"/>
    <use xlink:href="#DejaVuSans-65" transform="translate(2485.839844 0)"/>
    <use xlink:href="#DejaVuSans-6c" transform="translate(2547.363281 0)"/>
    <use xlink:href="#DejaVuSans-65" transform="translate(2575.146484 0)"/>
    <use xlink:href="#DejaVuSans-20" transform="translate(2636.669922 0)"/>
    <use xlink:href="#DejaVuSans-72" transform="translate(2668.457031 0)"/>
    <use xlink:href="#DejaVuSans-65" transform="translate(2707.320312 0)"/>
    <use xlink:href="#DejaVuSans-63" transform="translate(2768.84375 0)"/>
    <use xlink:href="#DejaVuSans-75" transform="translate(2823.824219 0)"/>
    <use xlink:href="#DejaVuSans-61" transform="translate(2887.203125 0)"/>
    <use xlink:href="#DejaVuSans-20" transform="translate(2948.482422 0)"/>
    <use xlink:href="#DejaVuSans-65" transform="translate(2980.269531 0)"/>
    <use xlink:href="#DejaVuSans-6d" transform="translate(3041.792969 0)"/>
    <use xlink:href="#DejaVuSans-20" transform="translate(3139.205078 0)"/>
    <use xlink:href="#DejaVuSans-64" transform="translate(3170.992188 0)"/>
    <use xlink:href="#DejaVuSans-69" transform="translate(3234.46875 0)"/>
    <use xlink:href="#DejaVuSans-72" transform="translate(3262.251953 0)"/>
    <use xlink:href="#DejaVuSans-65" transform="translate(3301.115234 0)"/>
    <use xlink:href="#DejaVuSans-e7" transform="translate(3362.638672 0)"/>
    <use xlink:href="#DejaVuSans-e3" transform="translate(3417.619141 0)"/>
    <use xlink:href="#DejaVuSans-6f" transform="translate(3478.898438 0)"/>
    <use xlink:href="#DejaVuSans-20" transform="translate(3540.080078 0)"/>
    <use xlink:href="#DejaVuSans-61" transform="translate(3571.867188 0)"/>
    <use xlink:href="#DejaVuSans-6f" transform="translate(3633.146484 0)"/>
    <use xlink:href="#DejaVuSans-20" transform="translate(3694.328125 0)"/>
    <use xlink:href="#DejaVuSans-65" transform="translate(3726.115234 0)"/>
    <use xlink:href="#DejaVuSans-73" transform="translate(3787.638672 0)"/>
    <use xlink:href="#DejaVuSans-74" transform="translate(3839.738281 0)"/>
    <use xlink:href="#DejaVuSans-61" transform="translate(3878.947266 0)"/>
    <use xlink:href="#DejaVuSans-64" transform="translate(3940.226562 0)"/>
    <use xlink:href="#DejaVuSans-6f" transform="translate(4003.703125 0)"/>
    <use xlink:href="#DejaVuSans-20" transform="translate(4064.884766 0)"/>
    <use xlink:href="#DejaVuSans-65" transform="translate(4096.671875 0)"/>
    <use xlink:href="#DejaVuSans-73" transform="translate(4158.195312 0)"/>
    <use xlink:href="#DejaVuSans-74" transform="translate(4210.294922 0)"/>
    <use xlink:href="#DejaVuSans-61" transform="translate(4249.503906 0)"/>
    <use xlink:href="#DejaVuSans-63" transform="translate(4310.783203 0)"/>
    <use xlink:href="#DejaVuSans-69" transform="translate(4365.763672 0)"/>
    <use xlink:href="#DejaVuSans-6f" transform="translate(4393.546875 0)"/>
    <use xlink:href="#DejaVuSans-6e" transform="translate(4454.728516 0)"/>
    <use xlink:href="#DejaVuSans-e1" transform="translate(4518.107422 0)"/>
    <use xlink:href="#DejaVuSans-72" transform="translate(4579.386719 0)"/>
    <use xlink:href="#DejaVuSans-69" transform="translate(4620.5 0)"/>
    <use xlink:href="#DejaVuSans-6f" transform="translate(4648.283203 0)"/>
    <use xlink:href="#DejaVuSans-2e" transform="translate(4707.714844 0)"/>
   </g>
  </g>
  <g id="text_16">
   <!-- Obs.: As áreas em verde indicam crescimento de k; as áreas em vermelho indicam contração. -->
   <g style="fill: #6f6e69" transform="translate(14.4 377.018672) scale(0.087 -0.087)">
    <defs>
     <path id="DejaVuSans-4f" d="M 2522 4238 
Q 1834 4238 1429 3725 
Q 1025 3213 1025 2328 
Q 1025 1447 1429 934 
Q 1834 422 2522 422 
Q 3209 422 3611 934 
Q 4013 1447 4013 2328 
Q 4013 3213 3611 3725 
Q 3209 4238 2522 4238 
z
M 2522 4750 
Q 3503 4750 4090 4092 
Q 4678 3434 4678 2328 
Q 4678 1225 4090 567 
Q 3503 -91 2522 -91 
Q 1538 -91 948 565 
Q 359 1222 359 2328 
Q 359 3434 948 4092 
Q 1538 4750 2522 4750 
z
" transform="scale(0.015625)"/>
     <path id="DejaVuSans-3a" d="M 750 794 
L 1409 794 
L 1409 0 
L 750 0 
L 750 794 
z
M 750 3309 
L 1409 3309 
L 1409 2516 
L 750 2516 
L 750 3309 
z
" transform="scale(0.015625)"/>
     <path id="DejaVuSans-41" d="M 2188 4044 
L 1331 1722 
L 3047 1722 
L 2188 4044 
z
M 1831 4666 
L 2547 4666 
L 4325 0 
L 3669 0 
L 3244 1197 
L 1141 1197 
L 716 0 
L 50 0 
L 1831 4666 
z
" transform="scale(0.015625)"/>
    </defs>
    <use xlink:href="#DejaVuSans-4f"/>
    <use xlink:href="#DejaVuSans-62" transform="translate(78.710938 0)"/>
    <use xlink:href="#DejaVuSans-73" transform="translate(142.1875 0)"/>
    <use xlink:href="#DejaVuSans-2e" transform="translate(194.287109 0)"/>
    <use xlink:href="#DejaVuSans-3a" transform="translate(226.074219 0)"/>
    <use xlink:href="#DejaVuSans-20" transform="translate(259.765625 0)"/>
    <use xlink:href="#DejaVuSans-41" transform="translate(291.552734 0)"/>
    <use xlink:href="#DejaVuSans-73" transform="translate(359.960938 0)"/>
    <use xlink:href="#DejaVuSans-20" transform="translate(412.060547 0)"/>
    <use xlink:href="#DejaVuSans-e1" transform="translate(443.847656 0)"/>
    <use xlink:href="#DejaVuSans-72" transform="translate(505.126953 0)"/>
    <use xlink:href="#DejaVuSans-65" transform="translate(543.990234 0)"/>
    <use xlink:href="#DejaVuSans-61" transform="translate(605.513672 0)"/>
    <use xlink:href="#DejaVuSans-73" transform="translate(666.792969 0)"/>
    <use xlink:href="#DejaVuSans-20" transform="translate(718.892578 0)"/>
    <use xlink:href="#DejaVuSans-65" transform="translate(750.679688 0)"/>
    <use xlink:href="#DejaVuSans-6d" transform="translate(812.203125 0)"/>
    <use xlink:href="#DejaVuSans-20" transform="translate(909.615234 0)"/>
    <use xlink:href="#DejaVuSans-76" transform="translate(941.402344 0)"/>
    <use xlink:href="#DejaVuSans-65" transform="translate(1000.582031 0)"/>
    <use xlink:href="#DejaVuSans-72" transform="translate(1062.105469 0)"/>
    <use xlink:href="#DejaVuSans-64" transform="translate(1101.46875 0)"/>
    <use xlink:href="#DejaVuSans-65" transform="translate(1164.945312 0)"/>
    <use xlink:href="#DejaVuSans-20" transform="translate(1226.46875 0)"/>
    <use xlink:href="#DejaVuSans-69" transform="translate(1258.255859 0)"/>
    <use xlink:href="#DejaVuSans-6e" transform="translate(1286.039062 0)"/>
    <use xlink:href="#DejaVuSans-64" transform="translate(1349.417969 0)"/>
    <use xlink:href="#DejaVuSans-69" transform="translate(1412.894531 0)"/>
    <use xlink:href="#DejaVuSans-63" transform="translate(1440.677734 0)"/>
    <use xlink:href="#DejaVuSans-61" transform="translate(1495.658203 0)"/>
    <use xlink:href="#DejaVuSans-6d" transform="translate(1556.9375 0)"/>
    <use xlink:href="#DejaVuSans-20" transform="translate(1654.349609 0)"/>
    <use xlink:href="#DejaVuSans-63" transform="translate(1686.136719 0)"/>
    <use xlink:href="#DejaVuSans-72" transform="translate(1741.117188 0)"/>
    <use xlink:href="#DejaVuSans-65" transform="translate(1779.980469 0)"/>
    <use xlink:href="#DejaVuSans-73" transform="translate(1841.503906 0)"/>
    <use xlink:href="#DejaVuSans-63" transform="translate(1893.603516 0)"/>
    <use xlink:href="#DejaVuSans-69" transform="translate(1948.583984 0)"/>
    <use xlink:href="#DejaVuSans-6d" transform="translate(1976.367188 0)"/>
    <use xlink:href="#DejaVuSans-65" transform="translate(2073.779297 0)"/>
    <use xlink:href="#DejaVuSans-6e" transform="translate(2135.302734 0)"/>
    <use xlink:href="#DejaVuSans-74" transform="translate(2198.681641 0)"/>
    <use xlink:href="#DejaVuSans-6f" transform="translate(2237.890625 0)"/>
    <use xlink:href="#DejaVuSans-20" transform="translate(2299.072266 0)"/>
    <use xlink:href="#DejaVuSans-64" transform="translate(2330.859375 0)"/>
    <use xlink:href="#DejaVuSans-65" transform="translate(2394.335938 0)"/>
    <use xlink:href="#DejaVuSans-20" transform="translate(2455.859375 0)"/>
    <use xlink:href="#DejaVuSans-6b" transform="translate(2487.646484 0)"/>
    <use xlink:href="#DejaVuSans-3b" transform="translate(2545.556641 0)"/>
    <use xlink:href="#DejaVuSans-20" transform="translate(2579.248047 0)"/>
    <use xlink:href="#DejaVuSans-61" transform="translate(2611.035156 0)"/>
    <use xlink:href="#DejaVuSans-73" transform="translate(2672.314453 0)"/>
    <use xlink:href="#DejaVuSans-20" transform="translate(2724.414062 0)"/>
    <use xlink:href="#DejaVuSans-e1" transform="translate(2756.201172 0)"/>
    <use xlink:href="#DejaVuSans-72" transform="translate(2817.480469 0)"/>
    <use xlink:href="#DejaVuSans-65" transform="translate(2856.34375 0)"/>
    <use xlink:href="#DejaVuSans-61" transform="translate(2917.867188 0)"/>
    <use xlink:href="#DejaVuSans-73" transform="translate(2979.146484 0)"/>
    <use xlink:href="#DejaVuSans-20" transform="translate(3031.246094 0)"/>
    <use xlink:href="#DejaVuSans-65" transform="translate(3063.033203 0)"/>
    <use xlink:href="#DejaVuSans-6d" transform="translate(3124.556641 0)"/>
    <use xlink:href="#DejaVuSans-20" transform="translate(3221.96875 0)"/>
    <use xlink:href="#DejaVuSans-76" transform="translate(3253.755859 0)"/>
    <use xlink:href="#DejaVuSans-65" transform="translate(3312.935547 0)"/>
    <use xlink:href="#DejaVuSans-72" transform="translate(3374.458984 0)"/>
    <use xlink:href="#DejaVuSans-6d" transform="translate(3413.822266 0)"/>
    <use xlink:href="#DejaVuSans-65" transform="translate(3511.234375 0)"/>
    <use xlink:href="#DejaVuSans-6c" transform="translate(3572.757812 0)"/>
    <use xlink:href="#DejaVuSans-68" transform="translate(3600.541016 0)"/>
    <use xlink:href="#DejaVuSans-6f" transform="translate(3663.919922 0)"/>
    <use xlink:href="#DejaVuSans-20" transform="translate(3725.101562 0)"/>
    <use xlink:href="#DejaVuSans-69" transform="translate(3756.888672 0)"/>
    <use xlink:href="#DejaVuSans-6e" transform="translate(3784.671875 0)"/>
    <use xlink:href="#DejaVuSans-64" transform="translate(3848.050781 0)"/>
    <use xlink:href="#DejaVuSans-69" transform="translate(3911.527344 0)"/>
    <use xlink:href="#DejaVuSans-63" transform="translate(3939.310547 0)"/>
    <use xlink:href="#DejaVuSans-61" transform="translate(3994.291016 0)"/>
    <use xlink:href="#DejaVuSans-6d" transform="translate(4055.570312 0)"/>
    <use xlink:href="#DejaVuSans-20" transform="translate(4152.982422 0)"/>
    <use xlink:href="#DejaVuSans-63" transform="translate(4184.769531 0)"/>
    <use xlink:href="#DejaVuSans-6f" transform="translate(4239.75 0)"/>
    <use xlink:href="#DejaVuSans-6e" transform="translate(4300.931641 0)"/>
    <use xlink:href="#DejaVuSans-74" transform="translate(4364.310547 0)"/>
    <use xlink:href="#DejaVuSans-72" transform="translate(4403.519531 0)"/>
    <use xlink:href="#DejaVuSans-61" transform="translate(4444.632812 0)"/>
    <use xlink:href="#DejaVuSans-e7" transform="translate(4505.912109 0)"/>
    <use xlink:href="#DejaVuSans-e3" transform="translate(4560.892578 0)"/>
    <use xlink:href="#DejaVuSans-6f" transform="translate(4622.171875 0)"/>
    <use xlink:href="#DejaVuSans-2e" transform="translate(4681.603516 0)"/>
   </g>
  </g>
 </g>
 <defs>
  <clipPath id="p80a4558ada">
   <rect x="67.957429" y="88.246286" width="559.198571" height="211.113714"/>
  </clipPath>
 </defs>
</svg>
