<?xml version="1.0" encoding="utf-8" standalone="no"?>
<!DOCTYPE svg PUBLIC "-//W3C//DTD SVG 1.1//EN"
  "http://www.w3.org/Graphics/SVG/1.1/DTD/svg11.dtd">
<svg xmlns:xlink="http://www.w3.org/1999/xlink" width="1000.105513pt" height="331.344pt" viewBox="0 0 1000.105513 331.344" xmlns="http://www.w3.org/2000/svg" version="1.1">
 <metadata>
  <rdf:RDF xmlns:dc="http://purl.org/dc/elements/1.1/" xmlns:cc="http://creativecommons.org/ns#" xmlns:rdf="http://www.w3.org/1999/02/22-rdf-syntax-ns#">
   <cc:Work>
    <dc:type rdf:resource="http://purl.org/dc/dcmitype/StillImage"/>
    <dc:date>2026-04-02T15:03:56.283244</dc:date>
    <dc:format>image/svg+xml</dc:format>
    <dc:creator>
     <cc:Agent>
      <dc:title>Matplotlib v3.10.7, https://matplotlib.org/</dc:title>
     </cc:Agent>
    </dc:creator>
   </cc:Work>
  </rdf:RDF>
 </metadata>
 <defs>
  <style type="text/css">*{stroke-linejoin: round; stroke-linecap: butt}</style>
 </defs>
 <g id="figure_1">
  <g id="patch_1">
   <path d="M 0 331.344 
L 1000.105513 331.344 
L 1000.105513 0 
L 0 0 
z
" style="fill: #fffcf0"/>
  </g>
  <g id="axes_1">
   <g id="patch_2">
    <path d="M 41.242656 238.381143 
L 333.403609 238.381143 
L 333.403609 112.158857 
L 41.242656 112.158857 
z
" style="fill: #fffcf0"/>
   </g>
   <g id="matplotlib.axis_1">
    <g id="xtick_1">
     <g id="line2d_1"/>
     <g id="text_1">
      <!-- 0 -->
      <g style="fill: #6f6e69" transform="translate(51.182387 252.359502) scale(0.105 -0.105)">
       <defs>
        <path id="DejaVuSans-30" d="M 2034 4250 
Q 1547 4250 1301 3770 
Q 1056 3291 1056 2328 
Q 1056 1369 1301 889 
Q 1547 409 2034 409 
Q 2525 409 2770 889 
Q 3016 1369 3016 2328 
Q 3016 3291 2770 3770 
Q 2525 4250 2034 4250 
z
M 2034 4750 
Q 2819 4750 3233 4129 
Q 3647 3509 3647 2328 
Q 3647 1150 3233 529 
Q 2819 -91 2034 -91 
Q 1250 -91 836 529 
Q 422 1150 422 2328 
Q 422 3509 836 4129 
Q 1250 4750 2034 4750 
z
" transform="scale(0.015625)"/>
       </defs>
       <use xlink:href="#DejaVuSans-30"/>
      </g>
     </g>
    </g>
    <g id="xtick_2">
     <g id="line2d_2"/>
     <g id="text_2">
      <!-- 10 -->
      <g style="fill: #6f6e69" transform="translate(92.108886 252.359502) scale(0.105 -0.105)">
       <defs>
        <path id="DejaVuSans-31" d="M 794 531 
L 1825 531 
L 1825 4091 
L 703 3866 
L 703 4441 
L 1819 4666 
L 2450 4666 
L 2450 531 
L 3481 531 
L 3481 0 
L 794 0 
L 794 531 
z
" transform="scale(0.015625)"/>
       </defs>
       <use xlink:href="#DejaVuSans-31"/>
       <use xlink:href="#DejaVuSans-30" transform="translate(63.623047 0)"/>
      </g>
     </g>
    </g>
    <g id="xtick_3">
     <g id="line2d_3"/>
     <g id="text_3">
      <!-- 20 -->
      <g style="fill: #6f6e69" transform="translate(136.375696 252.359502) scale(0.105 -0.105)">
       <defs>
        <path id="DejaVuSans-32" d="M 1228 531 
L 3431 531 
L 3431 0 
L 469 0 
L 469 531 
Q 828 903 1448 1529 
Q 2069 2156 2228 2338 
Q 2531 2678 2651 2914 
Q 2772 3150 2772 3378 
Q 2772 3750 2511 3984 
Q 2250 4219 1831 4219 
Q 1534 4219 1204 4116 
Q 875 4013 500 3803 
L 500 4441 
Q 881 4594 1212 4672 
Q 1544 4750 1819 4750 
Q 2544 4750 2975 4387 
Q 3406 4025 3406 3419 
Q 3406 3131 3298 2873 
Q 3191 2616 2906 2266 
Q 2828 2175 2409 1742 
Q 1991 1309 1228 531 
z
" transform="scale(0.015625)"/>
       </defs>
       <use xlink:href="#DejaVuSans-32"/>
       <use xlink:href="#DejaVuSans-30" transform="translate(63.623047 0)"/>
      </g>
     </g>
    </g>
    <g id="xtick_4">
     <g id="line2d_4"/>
     <g id="text_4">
      <!-- 30 -->
      <g style="fill: #6f6e69" transform="translate(180.642507 252.359502) scale(0.105 -0.105)">
       <defs>
        <path id="DejaVuSans-33" d="M 2597 2516 
Q 3050 2419 3304 2112 
Q 3559 1806 3559 1356 
Q 3559 666 3084 287 
Q 2609 -91 1734 -91 
Q 1441 -91 1130 -33 
Q 819 25 488 141 
L 488 750 
Q 750 597 1062 519 
Q 1375 441 1716 441 
Q 2309 441 2620 675 
Q 2931 909 2931 1356 
Q 2931 1769 2642 2001 
Q 2353 2234 1838 2234 
L 1294 2234 
L 1294 2753 
L 1863 2753 
Q 2328 2753 2575 2939 
Q 2822 3125 2822 3475 
Q 2822 3834 2567 4026 
Q 2313 4219 1838 4219 
Q 1578 4219 1281 4162 
Q 984 4106 628 3988 
L 628 4550 
Q 988 4650 1302 4700 
Q 1616 4750 1894 4750 
Q 2613 4750 3031 4423 
Q 3450 4097 3450 3541 
Q 3450 3153 3228 2886 
Q 3006 2619 2597 2516 
z
" transform="scale(0.015625)"/>
       </defs>
       <use xlink:href="#DejaVuSans-33"/>
       <use xlink:href="#DejaVuSans-30" transform="translate(63.623047 0)"/>
      </g>
     </g>
    </g>
    <g id="xtick_5">
     <g id="line2d_5"/>
     <g id="text_5">
      <!-- 40 -->
      <g style="fill: #6f6e69" transform="translate(224.909318 252.359502) scale(0.105 -0.105)">
       <defs>
        <path id="DejaVuSans-34" d="M 2419 4116 
L 825 1625 
L 2419 1625 
L 2419 4116 
z
M 2253 4666 
L 3047 4666 
L 3047 1625 
L 3713 1625 
L 3713 1100 
L 3047 1100 
L 3047 0 
L 2419 0 
L 2419 1100 
L 313 1100 
L 313 1709 
L 2253 4666 
z
" transform="scale(0.015625)"/>
       </defs>
       <use xlink:href="#DejaVuSans-34"/>
       <use xlink:href="#DejaVuSans-30" transform="translate(63.623047 0)"/>
      </g>
     </g>
    </g>
    <g id="xtick_6">
     <g id="line2d_6"/>
     <g id="text_6">
      <!-- 50 -->
      <g style="fill: #6f6e69" transform="translate(269.176129 252.359502) scale(0.105 -0.105)">
       <defs>
        <path id="DejaVuSans-35" d="M 691 4666 
L 3169 4666 
L 3169 4134 
L 1269 4134 
L 1269 2991 
Q 1406 3038 1543 3061 
Q 1681 3084 1819 3084 
Q 2600 3084 3056 2656 
Q 3513 2228 3513 1497 
Q 3513 744 3044 326 
Q 2575 -91 1722 -91 
Q 1428 -91 1123 -41 
Q 819 9 494 109 
L 494 744 
Q 775 591 1075 516 
Q 1375 441 1709 441 
Q 2250 441 2565 725 
Q 2881 1009 2881 1497 
Q 2881 1984 2565 2268 
Q 2250 2553 1709 2553 
Q 1456 2553 1204 2497 
Q 953 2441 691 2322 
L 691 4666 
z
" transform="scale(0.015625)"/>
       </defs>
       <use xlink:href="#DejaVuSans-35"/>
       <use xlink:href="#DejaVuSans-30" transform="translate(63.623047 0)"/>
      </g>
     </g>
    </g>
    <g id="xtick_7">
     <g id="line2d_7"/>
     <g id="text_7">
      <!-- 60 -->
      <g style="fill: #6f6e69" transform="translate(313.44294 252.359502) scale(0.105 -0.105)">
       <defs>
        <path id="DejaVuSans-36" d="M 2113 2584 
Q 1688 2584 1439 2293 
Q 1191 2003 1191 1497 
Q 1191 994 1439 701 
Q 1688 409 2113 409 
Q 2538 409 2786 701 
Q 3034 994 3034 1497 
Q 3034 2003 2786 2293 
Q 2538 2584 2113 2584 
z
M 3366 4563 
L 3366 3988 
Q 3128 4100 2886 4159 
Q 2644 4219 2406 4219 
Q 1781 4219 1451 3797 
Q 1122 3375 1075 2522 
Q 1259 2794 1537 2939 
Q 1816 3084 2150 3084 
Q 2853 3084 3261 2657 
Q 3669 2231 3669 1497 
Q 3669 778 3244 343 
Q 2819 -91 2113 -91 
Q 1303 -91 875 529 
Q 447 1150 447 2328 
Q 447 3434 972 4092 
Q 1497 4750 2381 4750 
Q 2619 4750 2861 4703 
Q 3103 4656 3366 4563 
z
" transform="scale(0.015625)"/>
       </defs>
       <use xlink:href="#DejaVuSans-36"/>
       <use xlink:href="#DejaVuSans-30" transform="translate(63.623047 0)"/>
      </g>
     </g>
    </g>
    <g id="text_8">
     <!-- Tempo -->
     <g style="fill: #1c1b1a" transform="translate(170.119539 272.521533) scale(0.105 -0.105)">
      <defs>
       <path id="DejaVuSans-54" d="M -19 4666 
L 3928 4666 
L 3928 4134 
L 2272 4134 
L 2272 0 
L 1638 0 
L 1638 4134 
L -19 4134 
L -19 4666 
z
" transform="scale(0.015625)"/>
       <path id="DejaVuSans-65" d="M 3597 1894 
L 3597 1613 
L 953 1613 
Q 991 1019 1311 708 
Q 1631 397 2203 397 
Q 2534 397 2845 478 
Q 3156 559 3463 722 
L 3463 178 
Q 3153 47 2828 -22 
Q 2503 -91 2169 -91 
Q 1331 -91 842 396 
Q 353 884 353 1716 
Q 353 2575 817 3079 
Q 1281 3584 2069 3584 
Q 2775 3584 3186 3129 
Q 3597 2675 3597 1894 
z
M 3022 2063 
Q 3016 2534 2758 2815 
Q 2500 3097 2075 3097 
Q 1594 3097 1305 2825 
Q 1016 2553 972 2059 
L 3022 2063 
z
" transform="scale(0.015625)"/>
       <path id="DejaVuSans-6d" d="M 3328 2828 
Q 3544 3216 3844 3400 
Q 4144 3584 4550 3584 
Q 5097 3584 5394 3201 
Q 5691 2819 5691 2113 
L 5691 0 
L 5113 0 
L 5113 2094 
Q 5113 2597 4934 2840 
Q 4756 3084 4391 3084 
Q 3944 3084 3684 2787 
Q 3425 2491 3425 1978 
L 3425 0 
L 2847 0 
L 2847 2094 
Q 2847 2600 2669 2842 
Q 2491 3084 2119 3084 
Q 1678 3084 1418 2786 
Q 1159 2488 1159 1978 
L 1159 0 
L 581 0 
L 581 3500 
L 1159 3500 
L 1159 2956 
Q 1356 3278 1631 3431 
Q 1906 3584 2284 3584 
Q 2666 3584 2933 3390 
Q 3200 3197 3328 2828 
z
" transform="scale(0.015625)"/>
       <path id="DejaVuSans-70" d="M 1159 525 
L 1159 -1331 
L 581 -1331 
L 581 3500 
L 1159 3500 
L 1159 2969 
Q 1341 3281 1617 3432 
Q 1894 3584 2278 3584 
Q 2916 3584 3314 3078 
Q 3713 2572 3713 1747 
Q 3713 922 3314 415 
Q 2916 -91 2278 -91 
Q 1894 -91 1617 61 
Q 1341 213 1159 525 
z
M 3116 1747 
Q 3116 2381 2855 2742 
Q 2594 3103 2138 3103 
Q 1681 3103 1420 2742 
Q 1159 2381 1159 1747 
Q 1159 1113 1420 752 
Q 1681 391 2138 391 
Q 2594 391 2855 752 
Q 3116 1113 3116 1747 
z
" transform="scale(0.015625)"/>
       <path id="DejaVuSans-6f" d="M 1959 3097 
Q 1497 3097 1228 2736 
Q 959 2375 959 1747 
Q 959 1119 1226 758 
Q 1494 397 1959 397 
Q 2419 397 2687 759 
Q 2956 1122 2956 1747 
Q 2956 2369 2687 2733 
Q 2419 3097 1959 3097 
z
M 1959 3584 
Q 2709 3584 3137 3096 
Q 3566 2609 3566 1747 
Q 3566 888 3137 398 
Q 2709 -91 1959 -91 
Q 1206 -91 779 398 
Q 353 888 353 1747 
Q 353 2609 779 3096 
Q 1206 3584 1959 3584 
z
" transform="scale(0.015625)"/>
      </defs>
      <use xlink:href="#DejaVuSans-54"/>
      <use xlink:href="#DejaVuSans-65" transform="translate(44.083984 0)"/>
      <use xlink:href="#DejaVuSans-6d" transform="translate(105.607422 0)"/>
      <use xlink:href="#DejaVuSans-70" transform="translate(203.019531 0)"/>
      <use xlink:href="#DejaVuSans-6f" transform="translate(266.496094 0)"/>
     </g>
    </g>
   </g>
   <g id="matplotlib.axis_2">
    <g id="ytick_1">
     <g id="line2d_8">
      <path d="M 41.242656 226.971414 
L 333.403609 226.971414 
" clip-path="url(#p7de6bc16e6)" style="fill: none; stroke: #cecdc3; stroke-opacity: 0.9; stroke-width: 0.9; stroke-linecap: square"/>
     </g>
     <g id="line2d_9"/>
     <g id="text_9">
      <!-- 2 -->
      <g style="fill: #6f6e69" transform="translate(28.562031 230.960594) scale(0.105 -0.105)">
       <use xlink:href="#DejaVuSans-32"/>
      </g>
     </g>
    </g>
    <g id="ytick_2">
     <g id="line2d_10">
      <path d="M 41.242656 202.662094 
L 333.403609 202.662094 
" clip-path="url(#p7de6bc16e6)" style="fill: none; stroke: #cecdc3; stroke-opacity: 0.9; stroke-width: 0.9; stroke-linecap: square"/>
     </g>
     <g id="line2d_11"/>
     <g id="text_10">
      <!-- 3 -->
      <g style="fill: #6f6e69" transform="translate(28.562031 206.651274) scale(0.105 -0.105)">
       <use xlink:href="#DejaVuSans-33"/>
      </g>
     </g>
    </g>
    <g id="ytick_3">
     <g id="line2d_12">
      <path d="M 41.242656 178.352773 
L 333.403609 178.352773 
" clip-path="url(#p7de6bc16e6)" style="fill: none; stroke: #cecdc3; stroke-opacity: 0.9; stroke-width: 0.9; stroke-linecap: square"/>
     </g>
     <g id="line2d_13"/>
     <g id="text_11">
      <!-- 4 -->
      <g style="fill: #6f6e69" transform="translate(28.562031 182.341953) scale(0.105 -0.105)">
       <use xlink:href="#DejaVuSans-34"/>
      </g>
     </g>
    </g>
    <g id="ytick_4">
     <g id="line2d_14">
      <path d="M 41.242656 154.043453 
L 333.403609 154.043453 
" clip-path="url(#p7de6bc16e6)" style="fill: none; stroke: #cecdc3; stroke-opacity: 0.9; stroke-width: 0.9; stroke-linecap: square"/>
     </g>
     <g id="line2d_15"/>
     <g id="text_12">
      <!-- 5 -->
      <g style="fill: #6f6e69" transform="translate(28.562031 158.032632) scale(0.105 -0.105)">
       <use xlink:href="#DejaVuSans-35"/>
      </g>
     </g>
    </g>
    <g id="ytick_5">
     <g id="line2d_16">
      <path d="M 41.242656 129.734132 
L 333.403609 129.734132 
" clip-path="url(#p7de6bc16e6)" style="fill: none; stroke: #cecdc3; stroke-opacity: 0.9; stroke-width: 0.9; stroke-linecap: square"/>
     </g>
     <g id="line2d_17"/>
     <g id="text_13">
      <!-- 6 -->
      <g style="fill: #6f6e69" transform="translate(28.562031 133.723312) scale(0.105 -0.105)">
       <use xlink:href="#DejaVuSans-36"/>
      </g>
     </g>
    </g>
    <g id="text_14">
     <!-- Nível -->
     <g style="fill: #1c1b1a" transform="translate(22.378359 188.452422) rotate(-90) scale(0.105 -0.105)">
      <defs>
       <path id="DejaVuSans-4e" d="M 628 4666 
L 1478 4666 
L 3547 763 
L 3547 4666 
L 4159 4666 
L 4159 0 
L 3309 0 
L 1241 3903 
L 1241 0 
L 628 0 
L 628 4666 
z
" transform="scale(0.015625)"/>
       <path id="DejaVuSans-ed" d="M 1322 5119 
L 1944 5119 
L 926 3944 
L 447 3944 
L 1322 5119 
z
M 603 3500 
L 1178 3500 
L 1178 0 
L 603 0 
L 603 3500 
z
M 891 3584 
L 891 3584 
z
" transform="scale(0.015625)"/>
       <path id="DejaVuSans-76" d="M 191 3500 
L 800 3500 
L 1894 563 
L 2988 3500 
L 3597 3500 
L 2284 0 
L 1503 0 
L 191 3500 
z
" transform="scale(0.015625)"/>
       <path id="DejaVuSans-6c" d="M 603 4863 
L 1178 4863 
L 1178 0 
L 603 0 
L 603 4863 
z
" transform="scale(0.015625)"/>
      </defs>
      <use xlink:href="#DejaVuSans-4e"/>
      <use xlink:href="#DejaVuSans-ed" transform="translate(74.804688 0)"/>
      <use xlink:href="#DejaVuSans-76" transform="translate(102.587891 0)"/>
      <use xlink:href="#DejaVuSans-65" transform="translate(161.767578 0)"/>
      <use xlink:href="#DejaVuSans-6c" transform="translate(223.291016 0)"/>
     </g>
    </g>
   </g>
   <g id="line2d_18">
    <path d="M 54.5227 232.643766 
L 55.408036 232.15765 
L 56.293372 231.674945 
L 57.178708 231.19566 
L 58.064044 230.719803 
L 58.949381 230.247379 
L 59.834717 229.778392 
L 60.720053 229.312846 
L 61.605389 228.850743 
L 62.490726 228.392084 
L 63.376062 227.936869 
L 64.261398 227.485098 
L 65.146734 227.036769 
L 66.03207 226.591878 
L 66.917407 226.150423 
L 67.802743 225.712398 
L 68.688079 225.277799 
L 69.573415 224.84662 
L 70.458751 224.418853 
L 71.344088 223.994492 
L 72.229424 223.573528 
L 73.11476 223.155952 
L 74.000096 222.741756 
L 74.885433 222.330928 
L 75.770769 221.92346 
L 76.656105 221.519338 
L 77.541441 221.118552 
L 78.426777 220.72109 
L 79.312114 220.32694 
L 80.19745 219.936087 
L 81.082786 219.548519 
L 81.968122 219.164222 
L 82.853459 218.783182 
L 83.738795 218.405384 
L 84.624131 218.030813 
L 85.509467 217.659453 
L 86.394803 217.29129 
L 87.28014 216.926308 
L 88.165476 216.564489 
L 89.050812 216.205818 
L 89.936148 215.850278 
L 90.821485 215.497853 
L 91.706821 215.148524 
L 92.592157 214.802275 
L 93.477493 214.459087 
L 94.362829 214.118944 
L 95.248166 213.781828 
L 96.133502 213.447719 
L 97.018838 213.1166 
L 97.904174 212.788453 
L 98.789511 212.463259 
L 99.674847 212.140999 
L 100.560183 211.821655 
L 101.445519 211.505207 
L 102.330855 211.191637 
L 103.216192 210.880926 
L 104.101528 210.573054 
L 104.986864 210.268003 
L 105.8722 209.965753 
L 106.757536 209.666284 
L 107.642873 209.369578 
L 108.528209 209.075616 
L 109.413545 208.784376 
L 110.298881 208.495841 
L 111.184218 208.20999 
L 112.069554 207.926805 
L 112.95489 207.646265 
L 113.840226 207.368351 
L 114.725562 207.093044 
L 115.610899 206.820324 
L 116.496235 206.550172 
L 117.381571 206.282568 
L 118.266907 206.017493 
L 119.152244 205.754926 
L 120.03758 205.49485 
L 120.922916 205.237244 
L 121.808252 204.98209 
L 122.693588 204.729367 
L 123.578925 204.479057 
L 124.464261 204.23114 
L 125.349597 203.985598 
L 126.234933 203.74241 
L 127.12027 203.501559 
L 128.005606 203.263026 
L 128.890942 203.02679 
L 129.776278 202.792834 
L 130.661614 202.561139 
L 131.546951 202.331685 
L 132.432287 202.104455 
L 133.317623 201.87943 
L 134.202959 201.656591 
L 135.088295 201.43592 
L 135.973632 201.217399 
L 136.858968 201.001009 
L 137.744304 200.786732 
L 138.62964 200.574551 
L 139.514977 200.364447 
L 140.400313 200.156402 
L 141.285649 199.950398 
L 142.170985 199.746419 
L 143.056321 199.544446 
L 143.941658 199.344461 
L 144.826994 199.146448 
L 145.71233 198.950389 
L 146.597666 198.756267 
L 147.483003 198.564064 
L 148.368339 198.373765 
L 149.253675 198.185351 
L 150.139011 197.998806 
L 151.024347 197.814113 
L 151.909684 197.631257 
L 152.79502 197.450219 
L 153.680356 197.270984 
L 154.565692 197.093536 
L 155.451029 196.917858 
L 156.336365 196.743935 
L 157.221701 196.571749 
L 158.107037 196.401287 
L 158.992373 196.232531 
L 159.87771 196.065466 
L 160.763046 195.900077 
L 161.648382 195.736347 
L 162.533718 195.574263 
L 163.419055 195.413808 
L 164.304391 195.254968 
L 165.189727 195.097728 
" clip-path="url(#p7de6bc16e6)" style="fill: none; stroke: #3aa99f; stroke-width: 2.4; stroke-linecap: square"/>
   </g>
   <g id="line2d_19">
    <path d="M 165.189727 195.097728 
L 171.38708 190.085074 
L 177.584434 185.34702 
L 183.781788 180.877562 
L 189.979141 176.668838 
L 196.176495 172.711677 
L 202.373848 168.996013 
L 208.571202 165.511221 
L 215.653891 161.797274 
L 222.736581 158.354121 
L 229.819271 155.165401 
L 236.901961 152.215075 
L 243.98465 149.487587 
L 251.952676 146.666907 
L 259.920702 144.089014 
L 267.888728 141.734733 
L 276.742091 139.359263 
L 285.595453 137.214654 
L 295.334151 135.09693 
L 305.07285 133.206984 
L 315.696884 131.377407 
L 320.123565 130.680177 
L 320.123565 130.680177 
" clip-path="url(#p7de6bc16e6)" style="fill: none; stroke: #da702c; stroke-width: 2.4; stroke-linecap: square"/>
   </g>
   <g id="line2d_20">
    <path d="M 165.189727 238.381143 
L 165.189727 112.158857 
" clip-path="url(#p7de6bc16e6)" style="fill: none; stroke-dasharray: 1.1,1.815; stroke-dashoffset: 0; stroke: #6f6e69; stroke-width: 1.1"/>
   </g>
   <g id="line2d_21">
    <path d="M 41.242656 180.153857 
L 333.403609 180.153857 
" clip-path="url(#p7de6bc16e6)" style="fill: none; stroke-dasharray: 1,1.65; stroke-dashoffset: 0; stroke: #3aa99f"/>
   </g>
   <g id="line2d_22">
    <path d="M 41.242656 117.896234 
L 333.403609 117.896234 
" clip-path="url(#p7de6bc16e6)" style="fill: none; stroke-dasharray: 1,1.65; stroke-dashoffset: 0; stroke: #da702c"/>
   </g>
   <g id="patch_3">
    <path d="M 41.242656 238.381143 
L 41.242656 112.158857 
" style="fill: none; stroke: #cecdc3; stroke-width: 0.8; stroke-linejoin: miter; stroke-linecap: square"/>
   </g>
   <g id="patch_4">
    <path d="M 41.242656 238.381143 
L 333.403609 238.381143 
" style="fill: none; stroke: #cecdc3; stroke-width: 0.8; stroke-linejoin: miter; stroke-linecap: square"/>
   </g>
   <g id="text_15">
    <!-- Capital -->
    <g style="fill: #1c1b1a" transform="translate(41.242656 106.158857) scale(0.115 -0.115)">
     <defs>
      <path id="DejaVuSans-Bold-43" d="M 4288 256 
Q 3956 84 3597 -3 
Q 3238 -91 2847 -91 
Q 1681 -91 1000 561 
Q 319 1213 319 2328 
Q 319 3447 1000 4098 
Q 1681 4750 2847 4750 
Q 3238 4750 3597 4662 
Q 3956 4575 4288 4403 
L 4288 3438 
Q 3953 3666 3628 3772 
Q 3303 3878 2944 3878 
Q 2300 3878 1931 3465 
Q 1563 3053 1563 2328 
Q 1563 1606 1931 1193 
Q 2300 781 2944 781 
Q 3303 781 3628 887 
Q 3953 994 4288 1222 
L 4288 256 
z
" transform="scale(0.015625)"/>
      <path id="DejaVuSans-Bold-61" d="M 2106 1575 
Q 1756 1575 1579 1456 
Q 1403 1338 1403 1106 
Q 1403 894 1545 773 
Q 1688 653 1941 653 
Q 2256 653 2472 879 
Q 2688 1106 2688 1447 
L 2688 1575 
L 2106 1575 
z
M 3816 1997 
L 3816 0 
L 2688 0 
L 2688 519 
Q 2463 200 2181 54 
Q 1900 -91 1497 -91 
Q 953 -91 614 226 
Q 275 544 275 1050 
Q 275 1666 698 1953 
Q 1122 2241 2028 2241 
L 2688 2241 
L 2688 2328 
Q 2688 2594 2478 2717 
Q 2269 2841 1825 2841 
Q 1466 2841 1156 2769 
Q 847 2697 581 2553 
L 581 3406 
Q 941 3494 1303 3539 
Q 1666 3584 2028 3584 
Q 2975 3584 3395 3211 
Q 3816 2838 3816 1997 
z
" transform="scale(0.015625)"/>
      <path id="DejaVuSans-Bold-70" d="M 1656 506 
L 1656 -1331 
L 538 -1331 
L 538 3500 
L 1656 3500 
L 1656 2988 
Q 1888 3294 2169 3439 
Q 2450 3584 2816 3584 
Q 3463 3584 3878 3070 
Q 4294 2556 4294 1747 
Q 4294 938 3878 423 
Q 3463 -91 2816 -91 
Q 2450 -91 2169 54 
Q 1888 200 1656 506 
z
M 2400 2772 
Q 2041 2772 1848 2508 
Q 1656 2244 1656 1747 
Q 1656 1250 1848 986 
Q 2041 722 2400 722 
Q 2759 722 2948 984 
Q 3138 1247 3138 1747 
Q 3138 2247 2948 2509 
Q 2759 2772 2400 2772 
z
" transform="scale(0.015625)"/>
      <path id="DejaVuSans-Bold-69" d="M 538 3500 
L 1656 3500 
L 1656 0 
L 538 0 
L 538 3500 
z
M 538 4863 
L 1656 4863 
L 1656 3950 
L 538 3950 
L 538 4863 
z
" transform="scale(0.015625)"/>
      <path id="DejaVuSans-Bold-74" d="M 1759 4494 
L 1759 3500 
L 2913 3500 
L 2913 2700 
L 1759 2700 
L 1759 1216 
Q 1759 972 1856 886 
Q 1953 800 2241 800 
L 2816 800 
L 2816 0 
L 1856 0 
Q 1194 0 917 276 
Q 641 553 641 1216 
L 641 2700 
L 84 2700 
L 84 3500 
L 641 3500 
L 641 4494 
L 1759 4494 
z
" transform="scale(0.015625)"/>
      <path id="DejaVuSans-Bold-6c" d="M 538 4863 
L 1656 4863 
L 1656 0 
L 538 0 
L 538 4863 
z
" transform="scale(0.015625)"/>
     </defs>
     <use xlink:href="#DejaVuSans-Bold-43"/>
     <use xlink:href="#DejaVuSans-Bold-61" transform="translate(73.388672 0)"/>
     <use xlink:href="#DejaVuSans-Bold-70" transform="translate(140.869141 0)"/>
     <use xlink:href="#DejaVuSans-Bold-69" transform="translate(212.451172 0)"/>
     <use xlink:href="#DejaVuSans-Bold-74" transform="translate(246.728516 0)"/>
     <use xlink:href="#DejaVuSans-Bold-61" transform="translate(294.53125 0)"/>
     <use xlink:href="#DejaVuSans-Bold-6c" transform="translate(362.011719 0)"/>
    </g>
   </g>
   <g id="legend_1">
    <g id="patch_5">
     <path d="M 52.642656 162.847295 
L 182.721406 162.847295 
Q 184.621406 162.847295 184.621406 160.947295 
L 184.621406 123.558857 
Q 184.621406 121.658857 182.721406 121.658857 
L 52.642656 121.658857 
Q 50.742656 121.658857 50.742656 123.558857 
L 50.742656 160.947295 
Q 50.742656 162.847295 52.642656 162.847295 
z
" style="fill: #fffcf0; opacity: 0.96; stroke: #cecdc3; stroke-width: 0.8; stroke-linejoin: miter"/>
    </g>
    <g id="line2d_23">
     <path d="M 57.867656 132.677373 
L 71.167656 132.677373 
L 84.467656 132.677373 
" style="fill: none; stroke: #3aa99f; stroke-width: 2.4; stroke-linecap: square"/>
    </g>
    <g id="text_16">
     <!-- Antes do choque -->
     <g style="fill: #1c1b1a" transform="translate(92.067656 136.002373) scale(0.095 -0.095)">
      <defs>
       <path id="DejaVuSans-41" d="M 2188 4044 
L 1331 1722 
L 3047 1722 
L 2188 4044 
z
M 1831 4666 
L 2547 4666 
L 4325 0 
L 3669 0 
L 3244 1197 
L 1141 1197 
L 716 0 
L 50 0 
L 1831 4666 
z
" transform="scale(0.015625)"/>
       <path id="DejaVuSans-6e" d="M 3513 2113 
L 3513 0 
L 2938 0 
L 2938 2094 
Q 2938 2591 2744 2837 
Q 2550 3084 2163 3084 
Q 1697 3084 1428 2787 
Q 1159 2491 1159 1978 
L 1159 0 
L 581 0 
L 581 3500 
L 1159 3500 
L 1159 2956 
Q 1366 3272 1645 3428 
Q 1925 3584 2291 3584 
Q 2894 3584 3203 3211 
Q 3513 2838 3513 2113 
z
" transform="scale(0.015625)"/>
       <path id="DejaVuSans-74" d="M 1172 4494 
L 1172 3500 
L 2356 3500 
L 2356 3053 
L 1172 3053 
L 1172 1153 
Q 1172 725 1289 603 
Q 1406 481 1766 481 
L 2356 481 
L 2356 0 
L 1766 0 
Q 1100 0 847 248 
Q 594 497 594 1153 
L 594 3053 
L 172 3053 
L 172 3500 
L 594 3500 
L 594 4494 
L 1172 4494 
z
" transform="scale(0.015625)"/>
       <path id="DejaVuSans-73" d="M 2834 3397 
L 2834 2853 
Q 2591 2978 2328 3040 
Q 2066 3103 1784 3103 
Q 1356 3103 1142 2972 
Q 928 2841 928 2578 
Q 928 2378 1081 2264 
Q 1234 2150 1697 2047 
L 1894 2003 
Q 2506 1872 2764 1633 
Q 3022 1394 3022 966 
Q 3022 478 2636 193 
Q 2250 -91 1575 -91 
Q 1294 -91 989 -36 
Q 684 19 347 128 
L 347 722 
Q 666 556 975 473 
Q 1284 391 1588 391 
Q 1994 391 2212 530 
Q 2431 669 2431 922 
Q 2431 1156 2273 1281 
Q 2116 1406 1581 1522 
L 1381 1569 
Q 847 1681 609 1914 
Q 372 2147 372 2553 
Q 372 3047 722 3315 
Q 1072 3584 1716 3584 
Q 2034 3584 2315 3537 
Q 2597 3491 2834 3397 
z
" transform="scale(0.015625)"/>
       <path id="DejaVuSans-20" transform="scale(0.015625)"/>
       <path id="DejaVuSans-64" d="M 2906 2969 
L 2906 4863 
L 3481 4863 
L 3481 0 
L 2906 0 
L 2906 525 
Q 2725 213 2448 61 
Q 2172 -91 1784 -91 
Q 1150 -91 751 415 
Q 353 922 353 1747 
Q 353 2572 751 3078 
Q 1150 3584 1784 3584 
Q 2172 3584 2448 3432 
Q 2725 3281 2906 2969 
z
M 947 1747 
Q 947 1113 1208 752 
Q 1469 391 1925 391 
Q 2381 391 2643 752 
Q 2906 1113 2906 1747 
Q 2906 2381 2643 2742 
Q 2381 3103 1925 3103 
Q 1469 3103 1208 2742 
Q 947 2381 947 1747 
z
" transform="scale(0.015625)"/>
       <path id="DejaVuSans-63" d="M 3122 3366 
L 3122 2828 
Q 2878 2963 2633 3030 
Q 2388 3097 2138 3097 
Q 1578 3097 1268 2742 
Q 959 2388 959 1747 
Q 959 1106 1268 751 
Q 1578 397 2138 397 
Q 2388 397 2633 464 
Q 2878 531 3122 666 
L 3122 134 
Q 2881 22 2623 -34 
Q 2366 -91 2075 -91 
Q 1284 -91 818 406 
Q 353 903 353 1747 
Q 353 2603 823 3093 
Q 1294 3584 2113 3584 
Q 2378 3584 2631 3529 
Q 2884 3475 3122 3366 
z
" transform="scale(0.015625)"/>
       <path id="DejaVuSans-68" d="M 3513 2113 
L 3513 0 
L 2938 0 
L 2938 2094 
Q 2938 2591 2744 2837 
Q 2550 3084 2163 3084 
Q 1697 3084 1428 2787 
Q 1159 2491 1159 1978 
L 1159 0 
L 581 0 
L 581 4863 
L 1159 4863 
L 1159 2956 
Q 1366 3272 1645 3428 
Q 1925 3584 2291 3584 
Q 2894 3584 3203 3211 
Q 3513 2838 3513 2113 
z
" transform="scale(0.015625)"/>
       <path id="DejaVuSans-71" d="M 947 1747 
Q 947 1113 1208 752 
Q 1469 391 1925 391 
Q 2381 391 2643 752 
Q 2906 1113 2906 1747 
Q 2906 2381 2643 2742 
Q 2381 3103 1925 3103 
Q 1469 3103 1208 2742 
Q 947 2381 947 1747 
z
M 2906 525 
Q 2725 213 2448 61 
Q 2172 -91 1784 -91 
Q 1150 -91 751 415 
Q 353 922 353 1747 
Q 353 2572 751 3078 
Q 1150 3584 1784 3584 
Q 2172 3584 2448 3432 
Q 2725 3281 2906 2969 
L 2906 3500 
L 3481 3500 
L 3481 -1331 
L 2906 -1331 
L 2906 525 
z
" transform="scale(0.015625)"/>
       <path id="DejaVuSans-75" d="M 544 1381 
L 544 3500 
L 1119 3500 
L 1119 1403 
Q 1119 906 1312 657 
Q 1506 409 1894 409 
Q 2359 409 2629 706 
Q 2900 1003 2900 1516 
L 2900 3500 
L 3475 3500 
L 3475 0 
L 2900 0 
L 2900 538 
Q 2691 219 2414 64 
Q 2138 -91 1772 -91 
Q 1169 -91 856 284 
Q 544 659 544 1381 
z
M 1991 3584 
L 1991 3584 
z
" transform="scale(0.015625)"/>
      </defs>
      <use xlink:href="#DejaVuSans-41"/>
      <use xlink:href="#DejaVuSans-6e" transform="translate(68.408203 0)"/>
      <use xlink:href="#DejaVuSans-74" transform="translate(131.787109 0)"/>
      <use xlink:href="#DejaVuSans-65" transform="translate(170.996094 0)"/>
      <use xlink:href="#DejaVuSans-73" transform="translate(232.519531 0)"/>
      <use xlink:href="#DejaVuSans-20" transform="translate(284.619141 0)"/>
      <use xlink:href="#DejaVuSans-64" transform="translate(316.40625 0)"/>
      <use xlink:href="#DejaVuSans-6f" transform="translate(379.882812 0)"/>
      <use xlink:href="#DejaVuSans-20" transform="translate(441.064453 0)"/>
      <use xlink:href="#DejaVuSans-63" transform="translate(472.851562 0)"/>
      <use xlink:href="#DejaVuSans-68" transform="translate(527.832031 0)"/>
      <use xlink:href="#DejaVuSans-6f" transform="translate(591.210938 0)"/>
      <use xlink:href="#DejaVuSans-71" transform="translate(652.392578 0)"/>
      <use xlink:href="#DejaVuSans-75" transform="translate(715.869141 0)"/>
      <use xlink:href="#DejaVuSans-65" transform="translate(779.248047 0)"/>
     </g>
    </g>
    <g id="line2d_24">
     <path d="M 57.867656 150.421592 
L 71.167656 150.421592 
L 84.467656 150.421592 
" style="fill: none; stroke: #da702c; stroke-width: 2.4; stroke-linecap: square"/>
    </g>
    <g id="text_17">
     <!-- Depois do choque -->
     <g style="fill: #1c1b1a" transform="translate(92.067656 153.746592) scale(0.095 -0.095)">
      <defs>
       <path id="DejaVuSans-44" d="M 1259 4147 
L 1259 519 
L 2022 519 
Q 2988 519 3436 956 
Q 3884 1394 3884 2338 
Q 3884 3275 3436 3711 
Q 2988 4147 2022 4147 
L 1259 4147 
z
M 628 4666 
L 1925 4666 
Q 3281 4666 3915 4102 
Q 4550 3538 4550 2338 
Q 4550 1131 3912 565 
Q 3275 0 1925 0 
L 628 0 
L 628 4666 
z
" transform="scale(0.015625)"/>
       <path id="DejaVuSans-69" d="M 603 3500 
L 1178 3500 
L 1178 0 
L 603 0 
L 603 3500 
z
M 603 4863 
L 1178 4863 
L 1178 4134 
L 603 4134 
L 603 4863 
z
" transform="scale(0.015625)"/>
      </defs>
      <use xlink:href="#DejaVuSans-44"/>
      <use xlink:href="#DejaVuSans-65" transform="translate(77.001953 0)"/>
      <use xlink:href="#DejaVuSans-70" transform="translate(138.525391 0)"/>
      <use xlink:href="#DejaVuSans-6f" transform="translate(202.001953 0)"/>
      <use xlink:href="#DejaVuSans-69" transform="translate(263.183594 0)"/>
      <use xlink:href="#DejaVuSans-73" transform="translate(290.966797 0)"/>
      <use xlink:href="#DejaVuSans-20" transform="translate(343.066406 0)"/>
      <use xlink:href="#DejaVuSans-64" transform="translate(374.853516 0)"/>
      <use xlink:href="#DejaVuSans-6f" transform="translate(438.330078 0)"/>
      <use xlink:href="#DejaVuSans-20" transform="translate(499.511719 0)"/>
      <use xlink:href="#DejaVuSans-63" transform="translate(531.298828 0)"/>
      <use xlink:href="#DejaVuSans-68" transform="translate(586.279297 0)"/>
      <use xlink:href="#DejaVuSans-6f" transform="translate(649.658203 0)"/>
      <use xlink:href="#DejaVuSans-71" transform="translate(710.839844 0)"/>
      <use xlink:href="#DejaVuSans-75" transform="translate(774.316406 0)"/>
      <use xlink:href="#DejaVuSans-65" transform="translate(837.695312 0)"/>
     </g>
    </g>
   </g>
  </g>
  <g id="axes_2">
   <g id="patch_6">
    <path d="M 367.393609 238.381143 
L 659.554561 238.381143 
L 659.554561 112.158857 
L 367.393609 112.158857 
z
" style="fill: #fffcf0"/>
   </g>
   <g id="matplotlib.axis_3">
    <g id="xtick_8">
     <g id="line2d_25"/>
     <g id="text_18">
      <!-- 0 -->
      <g style="fill: #6f6e69" transform="translate(377.333339 252.359502) scale(0.105 -0.105)">
       <use xlink:href="#DejaVuSans-30"/>
      </g>
     </g>
    </g>
    <g id="xtick_9">
     <g id="line2d_26"/>
     <g id="text_19">
      <!-- 10 -->
      <g style="fill: #6f6e69" transform="translate(418.259838 252.359502) scale(0.105 -0.105)">
       <use xlink:href="#DejaVuSans-31"/>
       <use xlink:href="#DejaVuSans-30" transform="translate(63.623047 0)"/>
      </g>
     </g>
    </g>
    <g id="xtick_10">
     <g id="line2d_27"/>
     <g id="text_20">
      <!-- 20 -->
      <g style="fill: #6f6e69" transform="translate(462.526649 252.359502) scale(0.105 -0.105)">
       <use xlink:href="#DejaVuSans-32"/>
       <use xlink:href="#DejaVuSans-30" transform="translate(63.623047 0)"/>
      </g>
     </g>
    </g>
    <g id="xtick_11">
     <g id="line2d_28"/>
     <g id="text_21">
      <!-- 30 -->
      <g style="fill: #6f6e69" transform="translate(506.79346 252.359502) scale(0.105 -0.105)">
       <use xlink:href="#DejaVuSans-33"/>
       <use xlink:href="#DejaVuSans-30" transform="translate(63.623047 0)"/>
      </g>
     </g>
    </g>
    <g id="xtick_12">
     <g id="line2d_29"/>
     <g id="text_22">
      <!-- 40 -->
      <g style="fill: #6f6e69" transform="translate(551.060271 252.359502) scale(0.105 -0.105)">
       <use xlink:href="#DejaVuSans-34"/>
       <use xlink:href="#DejaVuSans-30" transform="translate(63.623047 0)"/>
      </g>
     </g>
    </g>
    <g id="xtick_13">
     <g id="line2d_30"/>
     <g id="text_23">
      <!-- 50 -->
      <g style="fill: #6f6e69" transform="translate(595.327082 252.359502) scale(0.105 -0.105)">
       <use xlink:href="#DejaVuSans-35"/>
       <use xlink:href="#DejaVuSans-30" transform="translate(63.623047 0)"/>
      </g>
     </g>
    </g>
    <g id="xtick_14">
     <g id="line2d_31"/>
     <g id="text_24">
      <!-- 60 -->
      <g style="fill: #6f6e69" transform="translate(639.593893 252.359502) scale(0.105 -0.105)">
       <use xlink:href="#DejaVuSans-36"/>
       <use xlink:href="#DejaVuSans-30" transform="translate(63.623047 0)"/>
      </g>
     </g>
    </g>
    <g id="text_25">
     <!-- Tempo -->
     <g style="fill: #1c1b1a" transform="translate(496.270491 272.521533) scale(0.105 -0.105)">
      <use xlink:href="#DejaVuSans-54"/>
      <use xlink:href="#DejaVuSans-65" transform="translate(44.083984 0)"/>
      <use xlink:href="#DejaVuSans-6d" transform="translate(105.607422 0)"/>
      <use xlink:href="#DejaVuSans-70" transform="translate(203.019531 0)"/>
      <use xlink:href="#DejaVuSans-6f" transform="translate(266.496094 0)"/>
     </g>
    </g>
   </g>
   <g id="matplotlib.axis_4">
    <g id="ytick_6">
     <g id="line2d_32">
      <path d="M 367.393609 233.813185 
L 659.554561 233.813185 
" clip-path="url(#p1428cb046d)" style="fill: none; stroke: #cecdc3; stroke-opacity: 0.9; stroke-width: 0.9; stroke-linecap: square"/>
     </g>
     <g id="line2d_33"/>
     <g id="text_26">
      <!-- 1,2 -->
      <g style="fill: #6f6e69" transform="translate(344.695327 237.802365) scale(0.105 -0.105)">
       <defs>
        <path id="DejaVuSans-2c" d="M 750 794 
L 1409 794 
L 1409 256 
L 897 -744 
L 494 -744 
L 750 256 
L 750 794 
z
" transform="scale(0.015625)"/>
       </defs>
       <use xlink:href="#DejaVuSans-31"/>
       <use xlink:href="#DejaVuSans-2c" transform="translate(63.623047 0)"/>
       <use xlink:href="#DejaVuSans-32" transform="translate(95.410156 0)"/>
      </g>
     </g>
    </g>
    <g id="ytick_7">
     <g id="line2d_34">
      <path d="M 367.393609 198.333103 
L 659.554561 198.333103 
" clip-path="url(#p1428cb046d)" style="fill: none; stroke: #cecdc3; stroke-opacity: 0.9; stroke-width: 0.9; stroke-linecap: square"/>
     </g>
     <g id="line2d_35"/>
     <g id="text_27">
      <!-- 1,4 -->
      <g style="fill: #6f6e69" transform="translate(344.695327 202.322283) scale(0.105 -0.105)">
       <use xlink:href="#DejaVuSans-31"/>
       <use xlink:href="#DejaVuSans-2c" transform="translate(63.623047 0)"/>
       <use xlink:href="#DejaVuSans-34" transform="translate(95.410156 0)"/>
      </g>
     </g>
    </g>
    <g id="ytick_8">
     <g id="line2d_36">
      <path d="M 367.393609 162.853021 
L 659.554561 162.853021 
" clip-path="url(#p1428cb046d)" style="fill: none; stroke: #cecdc3; stroke-opacity: 0.9; stroke-width: 0.9; stroke-linecap: square"/>
     </g>
     <g id="line2d_37"/>
     <g id="text_28">
      <!-- 1,6 -->
      <g style="fill: #6f6e69" transform="translate(344.695327 166.842201) scale(0.105 -0.105)">
       <use xlink:href="#DejaVuSans-31"/>
       <use xlink:href="#DejaVuSans-2c" transform="translate(63.623047 0)"/>
       <use xlink:href="#DejaVuSans-36" transform="translate(95.410156 0)"/>
      </g>
     </g>
    </g>
    <g id="ytick_9">
     <g id="line2d_38">
      <path d="M 367.393609 127.372939 
L 659.554561 127.372939 
" clip-path="url(#p1428cb046d)" style="fill: none; stroke: #cecdc3; stroke-opacity: 0.9; stroke-width: 0.9; stroke-linecap: square"/>
     </g>
     <g id="line2d_39"/>
     <g id="text_29">
      <!-- 1,8 -->
      <g style="fill: #6f6e69" transform="translate(344.695327 131.362119) scale(0.105 -0.105)">
       <defs>
        <path id="DejaVuSans-38" d="M 2034 2216 
Q 1584 2216 1326 1975 
Q 1069 1734 1069 1313 
Q 1069 891 1326 650 
Q 1584 409 2034 409 
Q 2484 409 2743 651 
Q 3003 894 3003 1313 
Q 3003 1734 2745 1975 
Q 2488 2216 2034 2216 
z
M 1403 2484 
Q 997 2584 770 2862 
Q 544 3141 544 3541 
Q 544 4100 942 4425 
Q 1341 4750 2034 4750 
Q 2731 4750 3128 4425 
Q 3525 4100 3525 3541 
Q 3525 3141 3298 2862 
Q 3072 2584 2669 2484 
Q 3125 2378 3379 2068 
Q 3634 1759 3634 1313 
Q 3634 634 3220 271 
Q 2806 -91 2034 -91 
Q 1263 -91 848 271 
Q 434 634 434 1313 
Q 434 1759 690 2068 
Q 947 2378 1403 2484 
z
M 1172 3481 
Q 1172 3119 1398 2916 
Q 1625 2713 2034 2713 
Q 2441 2713 2670 2916 
Q 2900 3119 2900 3481 
Q 2900 3844 2670 4047 
Q 2441 4250 2034 4250 
Q 1625 4250 1398 4047 
Q 1172 3844 1172 3481 
z
" transform="scale(0.015625)"/>
       </defs>
       <use xlink:href="#DejaVuSans-31"/>
       <use xlink:href="#DejaVuSans-2c" transform="translate(63.623047 0)"/>
       <use xlink:href="#DejaVuSans-38" transform="translate(95.410156 0)"/>
      </g>
     </g>
    </g>
   </g>
   <g id="line2d_40">
    <path d="M 380.673652 232.643766 
L 381.558988 231.847232 
L 382.444324 231.062178 
L 383.329661 230.288386 
L 384.214997 229.525644 
L 385.100333 228.773748 
L 385.985669 228.032496 
L 386.871005 227.301694 
L 387.756342 226.581153 
L 388.641678 225.870686 
L 389.527014 225.170113 
L 390.41235 224.479259 
L 391.297687 223.797953 
L 392.183023 223.126026 
L 393.068359 222.463316 
L 393.953695 221.809664 
L 394.839031 221.164913 
L 395.724368 220.528913 
L 396.609704 219.901514 
L 397.49504 219.282573 
L 398.380376 218.671947 
L 399.265713 218.069499 
L 400.151049 217.475094 
L 401.036385 216.888598 
L 401.921721 216.309884 
L 402.807057 215.738824 
L 403.692394 215.175296 
L 404.57773 214.619178 
L 405.463066 214.070352 
L 406.348402 213.528702 
L 407.233739 212.994115 
L 408.119075 212.46648 
L 409.004411 211.945688 
L 409.889747 211.431632 
L 410.775083 210.92421 
L 411.66042 210.423317 
L 412.545756 209.928855 
L 413.431092 209.440725 
L 414.316428 208.958832 
L 415.201764 208.483079 
L 416.087101 208.013377 
L 416.972437 207.549633 
L 417.857773 207.091759 
L 418.743109 206.639668 
L 419.628446 206.193274 
L 420.513782 205.752494 
L 421.399118 205.317244 
L 422.284454 204.887445 
L 423.16979 204.463018 
L 424.055127 204.043883 
L 424.940463 203.629965 
L 425.825799 203.221189 
L 426.711135 202.817481 
L 427.596472 202.41877 
L 428.481808 202.024983 
L 429.367144 201.636051 
L 430.25248 201.251906 
L 431.137816 200.87248 
L 432.023153 200.497707 
L 432.908489 200.127522 
L 433.793825 199.761862 
L 434.679161 199.400663 
L 435.564498 199.043864 
L 436.449834 198.691403 
L 437.33517 198.343223 
L 438.220506 197.999263 
L 439.105842 197.659466 
L 439.991179 197.323775 
L 440.876515 196.992136 
L 441.761851 196.664492 
L 442.647187 196.34079 
L 443.532523 196.020977 
L 444.41786 195.705 
L 445.303196 195.392809 
L 446.188532 195.084353 
L 447.073868 194.779581 
L 447.959205 194.478446 
L 448.844541 194.180899 
L 449.729877 193.886892 
L 450.615213 193.59638 
L 451.500549 193.309315 
L 452.385886 193.025653 
L 453.271222 192.74535 
L 454.156558 192.468361 
L 455.041894 192.194643 
L 455.927231 191.924155 
L 456.812567 191.656853 
L 457.697903 191.392697 
L 458.583239 191.131647 
L 459.468575 190.873662 
L 460.353912 190.618704 
L 461.239248 190.366732 
L 462.124584 190.11771 
L 463.00992 189.871599 
L 463.895257 189.628362 
L 464.780593 189.387964 
L 465.665929 189.150367 
L 466.551265 188.915537 
L 467.436601 188.683439 
L 468.321938 188.454037 
L 469.207274 188.227299 
L 470.09261 188.003191 
L 470.977946 187.78168 
L 471.863283 187.562733 
L 472.748619 187.346318 
L 473.633955 187.132404 
L 474.519291 186.92096 
L 475.404627 186.711955 
L 476.289964 186.505359 
L 477.1753 186.301141 
L 478.060636 186.099274 
L 478.945972 185.899727 
L 479.831308 185.702472 
L 480.716645 185.507481 
L 481.601981 185.314726 
L 482.487317 185.12418 
L 483.372653 184.935815 
L 484.25799 184.749606 
L 485.143326 184.565525 
L 486.028662 184.383547 
L 486.913998 184.203647 
L 487.799334 184.025798 
L 488.684671 183.849977 
L 489.570007 183.676158 
L 490.455343 183.504318 
L 491.340679 183.334432 
" clip-path="url(#p1428cb046d)" style="fill: none; stroke: #3aa99f; stroke-width: 2.4; stroke-linecap: square"/>
   </g>
   <g id="line2d_41">
    <path d="M 491.340679 183.334432 
L 495.76736 179.495183 
L 500.194042 175.908396 
L 505.506059 171.909115 
L 510.818076 168.213296 
L 516.130093 164.793657 
L 521.442111 161.626047 
L 526.754128 158.68898 
L 532.951482 155.528272 
L 539.148835 152.628146 
L 545.346189 149.964554 
L 552.428878 147.182738 
L 559.511568 144.653672 
L 566.594258 142.352354 
L 574.562284 140.008112 
L 582.53031 137.896273 
L 591.383672 135.792635 
L 600.237034 133.916212 
L 609.975733 132.083915 
L 620.599767 130.328093 
L 631.223802 128.793444 
L 642.733173 127.347209 
L 646.274518 126.942666 
L 646.274518 126.942666 
" clip-path="url(#p1428cb046d)" style="fill: none; stroke: #da702c; stroke-width: 2.4; stroke-linecap: square"/>
   </g>
   <g id="line2d_42">
    <path d="M 491.340679 238.381143 
L 491.340679 112.158857 
" clip-path="url(#p1428cb046d)" style="fill: none; stroke-dasharray: 1.1,1.815; stroke-dashoffset: 0; stroke: #6f6e69; stroke-width: 1.1"/>
   </g>
   <g id="line2d_43">
    <path d="M 367.393609 168.110478 
L 659.554561 168.110478 
" clip-path="url(#p1428cb046d)" style="fill: none; stroke-dasharray: 1,1.65; stroke-dashoffset: 0; stroke: #3aa99f"/>
   </g>
   <g id="line2d_44">
    <path d="M 367.393609 117.896234 
L 659.554561 117.896234 
" clip-path="url(#p1428cb046d)" style="fill: none; stroke-dasharray: 1,1.65; stroke-dashoffset: 0; stroke: #da702c"/>
   </g>
   <g id="patch_7">
    <path d="M 367.393609 238.381143 
L 367.393609 112.158857 
" style="fill: none; stroke: #cecdc3; stroke-width: 0.8; stroke-linejoin: miter; stroke-linecap: square"/>
   </g>
   <g id="patch_8">
    <path d="M 367.393609 238.381143 
L 659.554561 238.381143 
" style="fill: none; stroke: #cecdc3; stroke-width: 0.8; stroke-linejoin: miter; stroke-linecap: square"/>
   </g>
   <g id="text_30">
    <!-- Produto -->
    <g style="fill: #1c1b1a" transform="translate(367.393609 106.158857) scale(0.115 -0.115)">
     <defs>
      <path id="DejaVuSans-Bold-50" d="M 588 4666 
L 2584 4666 
Q 3475 4666 3951 4270 
Q 4428 3875 4428 3144 
Q 4428 2409 3951 2014 
Q 3475 1619 2584 1619 
L 1791 1619 
L 1791 0 
L 588 0 
L 588 4666 
z
M 1791 3794 
L 1791 2491 
L 2456 2491 
Q 2806 2491 2997 2661 
Q 3188 2831 3188 3144 
Q 3188 3456 2997 3625 
Q 2806 3794 2456 3794 
L 1791 3794 
z
" transform="scale(0.015625)"/>
      <path id="DejaVuSans-Bold-72" d="M 3138 2547 
Q 2991 2616 2845 2648 
Q 2700 2681 2553 2681 
Q 2122 2681 1889 2404 
Q 1656 2128 1656 1613 
L 1656 0 
L 538 0 
L 538 3500 
L 1656 3500 
L 1656 2925 
Q 1872 3269 2151 3426 
Q 2431 3584 2822 3584 
Q 2878 3584 2943 3579 
Q 3009 3575 3134 3559 
L 3138 2547 
z
" transform="scale(0.015625)"/>
      <path id="DejaVuSans-Bold-6f" d="M 2203 2784 
Q 1831 2784 1636 2517 
Q 1441 2250 1441 1747 
Q 1441 1244 1636 976 
Q 1831 709 2203 709 
Q 2569 709 2762 976 
Q 2956 1244 2956 1747 
Q 2956 2250 2762 2517 
Q 2569 2784 2203 2784 
z
M 2203 3584 
Q 3106 3584 3614 3096 
Q 4122 2609 4122 1747 
Q 4122 884 3614 396 
Q 3106 -91 2203 -91 
Q 1297 -91 786 396 
Q 275 884 275 1747 
Q 275 2609 786 3096 
Q 1297 3584 2203 3584 
z
" transform="scale(0.015625)"/>
      <path id="DejaVuSans-Bold-64" d="M 2919 2988 
L 2919 4863 
L 4044 4863 
L 4044 0 
L 2919 0 
L 2919 506 
Q 2688 197 2409 53 
Q 2131 -91 1766 -91 
Q 1119 -91 703 423 
Q 288 938 288 1747 
Q 288 2556 703 3070 
Q 1119 3584 1766 3584 
Q 2128 3584 2408 3439 
Q 2688 3294 2919 2988 
z
M 2181 722 
Q 2541 722 2730 984 
Q 2919 1247 2919 1747 
Q 2919 2247 2730 2509 
Q 2541 2772 2181 2772 
Q 1825 2772 1636 2509 
Q 1447 2247 1447 1747 
Q 1447 1247 1636 984 
Q 1825 722 2181 722 
z
" transform="scale(0.015625)"/>
      <path id="DejaVuSans-Bold-75" d="M 500 1363 
L 500 3500 
L 1625 3500 
L 1625 3150 
Q 1625 2866 1622 2436 
Q 1619 2006 1619 1863 
Q 1619 1441 1641 1255 
Q 1663 1069 1716 984 
Q 1784 875 1895 815 
Q 2006 756 2150 756 
Q 2500 756 2700 1025 
Q 2900 1294 2900 1772 
L 2900 3500 
L 4019 3500 
L 4019 0 
L 2900 0 
L 2900 506 
Q 2647 200 2364 54 
Q 2081 -91 1741 -91 
Q 1134 -91 817 281 
Q 500 653 500 1363 
z
" transform="scale(0.015625)"/>
     </defs>
     <use xlink:href="#DejaVuSans-Bold-50"/>
     <use xlink:href="#DejaVuSans-Bold-72" transform="translate(73.291016 0)"/>
     <use xlink:href="#DejaVuSans-Bold-6f" transform="translate(122.607422 0)"/>
     <use xlink:href="#DejaVuSans-Bold-64" transform="translate(191.308594 0)"/>
     <use xlink:href="#DejaVuSans-Bold-75" transform="translate(262.890625 0)"/>
     <use xlink:href="#DejaVuSans-Bold-74" transform="translate(334.082031 0)"/>
     <use xlink:href="#DejaVuSans-Bold-6f" transform="translate(381.884766 0)"/>
    </g>
   </g>
  </g>
  <g id="axes_3">
   <g id="patch_9">
    <path d="M 693.544561 238.381143 
L 985.705513 238.381143 
L 985.705513 112.158857 
L 693.544561 112.158857 
z
" style="fill: #fffcf0"/>
   </g>
   <g id="matplotlib.axis_5">
    <g id="xtick_15">
     <g id="line2d_45"/>
     <g id="text_31">
      <!-- 0 -->
      <g style="fill: #6f6e69" transform="translate(703.484292 252.359502) scale(0.105 -0.105)">
       <use xlink:href="#DejaVuSans-30"/>
      </g>
     </g>
    </g>
    <g id="xtick_16">
     <g id="line2d_46"/>
     <g id="text_32">
      <!-- 10 -->
      <g style="fill: #6f6e69" transform="translate(744.41079 252.359502) scale(0.105 -0.105)">
       <use xlink:href="#DejaVuSans-31"/>
       <use xlink:href="#DejaVuSans-30" transform="translate(63.623047 0)"/>
      </g>
     </g>
    </g>
    <g id="xtick_17">
     <g id="line2d_47"/>
     <g id="text_33">
      <!-- 20 -->
      <g style="fill: #6f6e69" transform="translate(788.677601 252.359502) scale(0.105 -0.105)">
       <use xlink:href="#DejaVuSans-32"/>
       <use xlink:href="#DejaVuSans-30" transform="translate(63.623047 0)"/>
      </g>
     </g>
    </g>
    <g id="xtick_18">
     <g id="line2d_48"/>
     <g id="text_34">
      <!-- 30 -->
      <g style="fill: #6f6e69" transform="translate(832.944412 252.359502) scale(0.105 -0.105)">
       <use xlink:href="#DejaVuSans-33"/>
       <use xlink:href="#DejaVuSans-30" transform="translate(63.623047 0)"/>
      </g>
     </g>
    </g>
    <g id="xtick_19">
     <g id="line2d_49"/>
     <g id="text_35">
      <!-- 40 -->
      <g style="fill: #6f6e69" transform="translate(877.211223 252.359502) scale(0.105 -0.105)">
       <use xlink:href="#DejaVuSans-34"/>
       <use xlink:href="#DejaVuSans-30" transform="translate(63.623047 0)"/>
      </g>
     </g>
    </g>
    <g id="xtick_20">
     <g id="line2d_50"/>
     <g id="text_36">
      <!-- 50 -->
      <g style="fill: #6f6e69" transform="translate(921.478034 252.359502) scale(0.105 -0.105)">
       <use xlink:href="#DejaVuSans-35"/>
       <use xlink:href="#DejaVuSans-30" transform="translate(63.623047 0)"/>
      </g>
     </g>
    </g>
    <g id="xtick_21">
     <g id="line2d_51"/>
     <g id="text_37">
      <!-- 60 -->
      <g style="fill: #6f6e69" transform="translate(965.744845 252.359502) scale(0.105 -0.105)">
       <use xlink:href="#DejaVuSans-36"/>
       <use xlink:href="#DejaVuSans-30" transform="translate(63.623047 0)"/>
      </g>
     </g>
    </g>
    <g id="text_38">
     <!-- Tempo -->
     <g style="fill: #1c1b1a" transform="translate(822.421443 272.521533) scale(0.105 -0.105)">
      <use xlink:href="#DejaVuSans-54"/>
      <use xlink:href="#DejaVuSans-65" transform="translate(44.083984 0)"/>
      <use xlink:href="#DejaVuSans-6d" transform="translate(105.607422 0)"/>
      <use xlink:href="#DejaVuSans-70" transform="translate(203.019531 0)"/>
      <use xlink:href="#DejaVuSans-6f" transform="translate(266.496094 0)"/>
     </g>
    </g>
   </g>
   <g id="matplotlib.axis_6">
    <g id="ytick_10">
     <g id="line2d_52">
      <path d="M 693.544561 221.850449 
L 985.705513 221.850449 
" clip-path="url(#p3a479aaf5e)" style="fill: none; stroke: #cecdc3; stroke-opacity: 0.9; stroke-width: 0.9; stroke-linecap: square"/>
     </g>
     <g id="line2d_53"/>
     <g id="text_39">
      <!-- 1 -->
      <g style="fill: #6f6e69" transform="translate(680.863936 225.839629) scale(0.105 -0.105)">
       <use xlink:href="#DejaVuSans-31"/>
      </g>
     </g>
    </g>
    <g id="ytick_11">
     <g id="line2d_54">
      <path d="M 693.544561 190.769453 
L 985.705513 190.769453 
" clip-path="url(#p3a479aaf5e)" style="fill: none; stroke: #cecdc3; stroke-opacity: 0.9; stroke-width: 0.9; stroke-linecap: square"/>
     </g>
     <g id="line2d_55"/>
     <g id="text_40">
      <!-- 1,1 -->
      <g style="fill: #6f6e69" transform="translate(670.84628 194.758632) scale(0.105 -0.105)">
       <use xlink:href="#DejaVuSans-31"/>
       <use xlink:href="#DejaVuSans-2c" transform="translate(63.623047 0)"/>
       <use xlink:href="#DejaVuSans-31" transform="translate(95.410156 0)"/>
      </g>
     </g>
    </g>
    <g id="ytick_12">
     <g id="line2d_56">
      <path d="M 693.544561 159.688456 
L 985.705513 159.688456 
" clip-path="url(#p3a479aaf5e)" style="fill: none; stroke: #cecdc3; stroke-opacity: 0.9; stroke-width: 0.9; stroke-linecap: square"/>
     </g>
     <g id="line2d_57"/>
     <g id="text_41">
      <!-- 1,2 -->
      <g style="fill: #6f6e69" transform="translate(670.84628 163.677636) scale(0.105 -0.105)">
       <use xlink:href="#DejaVuSans-31"/>
       <use xlink:href="#DejaVuSans-2c" transform="translate(63.623047 0)"/>
       <use xlink:href="#DejaVuSans-32" transform="translate(95.410156 0)"/>
      </g>
     </g>
    </g>
    <g id="ytick_13">
     <g id="line2d_58">
      <path d="M 693.544561 128.60746 
L 985.705513 128.60746 
" clip-path="url(#p3a479aaf5e)" style="fill: none; stroke: #cecdc3; stroke-opacity: 0.9; stroke-width: 0.9; stroke-linecap: square"/>
     </g>
     <g id="line2d_59"/>
     <g id="text_42">
      <!-- 1,3 -->
      <g style="fill: #6f6e69" transform="translate(670.84628 132.59664) scale(0.105 -0.105)">
       <use xlink:href="#DejaVuSans-31"/>
       <use xlink:href="#DejaVuSans-2c" transform="translate(63.623047 0)"/>
       <use xlink:href="#DejaVuSans-33" transform="translate(95.410156 0)"/>
      </g>
     </g>
    </g>
   </g>
   <g id="line2d_60">
    <path d="M 706.824604 232.643766 
L 707.709941 231.527329 
L 708.595277 230.42698 
L 709.480613 229.342418 
L 710.365949 228.273344 
L 711.251285 227.219471 
L 712.136622 226.180518 
L 713.021958 225.156211 
L 713.907294 224.146285 
L 714.79263 223.150481 
L 715.677966 222.168544 
L 716.563303 221.20023 
L 717.448639 220.245297 
L 718.333975 219.303511 
L 719.219311 218.374643 
L 720.104648 217.458471 
L 720.989984 216.554775 
L 721.87532 215.663345 
L 722.760656 214.78397 
L 723.645992 213.91645 
L 724.531329 213.060585 
L 725.416665 212.216182 
L 726.302001 211.383051 
L 727.187337 210.561007 
L 728.072674 209.749869 
L 728.95801 208.949461 
L 729.843346 208.159608 
L 730.728682 207.380142 
L 731.614018 206.610896 
L 732.499355 205.851709 
L 733.384691 205.102421 
L 734.270027 204.362877 
L 735.155363 203.632924 
L 736.0407 202.912414 
L 736.926036 202.201201 
L 737.811372 201.49914 
L 738.696708 200.806092 
L 739.582044 200.121919 
L 740.467381 199.446487 
L 741.352717 198.779663 
L 742.238053 198.121319 
L 743.123389 197.471326 
L 744.008726 196.829561 
L 744.894062 196.195901 
L 745.779398 195.570226 
L 746.664734 194.95242 
L 747.55007 194.342366 
L 748.435407 193.739951 
L 749.320743 193.145064 
L 750.206079 192.557597 
L 751.091415 191.977441 
L 751.976751 191.404493 
L 752.862088 190.838648 
L 753.747424 190.279805 
L 754.63276 189.727866 
L 755.518096 189.182731 
L 756.403433 188.644306 
L 757.288769 188.112495 
L 758.174105 187.587206 
L 759.059441 187.068347 
L 759.944777 186.55583 
L 760.830114 186.049566 
L 761.71545 185.549469 
L 762.600786 185.055454 
L 763.486122 184.567437 
L 764.371459 184.085336 
L 765.256795 183.60907 
L 766.142131 183.138559 
L 767.027467 182.673726 
L 767.912803 182.214494 
L 768.79814 181.760787 
L 769.683476 181.312531 
L 770.568812 180.869652 
L 771.454148 180.432078 
L 772.339485 179.99974 
L 773.224821 179.572566 
L 774.110157 179.150489 
L 774.995493 178.733441 
L 775.880829 178.321355 
L 776.766166 177.914167 
L 777.651502 177.511811 
L 778.536838 177.114225 
L 779.422174 176.721346 
L 780.307511 176.333113 
L 781.192847 175.949465 
L 782.078183 175.570343 
L 782.963519 175.195687 
L 783.848855 174.825442 
L 784.734192 174.459548 
L 785.619528 174.097952 
L 786.504864 173.740596 
L 787.3902 173.387428 
L 788.275536 173.038393 
L 789.160873 172.693439 
L 790.046209 172.352514 
L 790.931545 172.015567 
L 791.816881 171.682547 
L 792.702218 171.353404 
L 793.587554 171.02809 
L 794.47289 170.706557 
L 795.358226 170.388756 
L 796.243562 170.074641 
L 797.128899 169.764167 
L 798.014235 169.457286 
L 798.899571 169.153955 
L 799.784907 168.854129 
L 800.670244 168.557765 
L 801.55558 168.264819 
L 802.440916 167.97525 
L 803.326252 167.689015 
L 804.211588 167.406073 
L 805.096925 167.126384 
L 805.982261 166.849907 
L 806.867597 166.576604 
L 807.752933 166.306435 
L 808.63827 166.039362 
L 809.523606 165.775346 
L 810.408942 165.514351 
L 811.294278 165.25634 
L 812.179614 165.001276 
L 813.064951 164.749124 
L 813.950287 164.499848 
L 814.835623 164.253413 
L 815.720959 164.009785 
L 816.606295 163.76893 
L 817.491632 163.530815 
" clip-path="url(#p3a479aaf5e)" style="fill: none; stroke: #3aa99f; stroke-width: 2.4; stroke-linecap: square"/>
   </g>
   <g id="line2d_61">
    <path d="M 817.491632 200.443775 
L 821.918313 195.600723 
L 826.344994 191.076142 
L 830.771675 186.84446 
L 835.198356 182.882815 
L 840.510373 178.45652 
L 845.822391 174.357905 
L 851.134408 170.558803 
L 856.446425 167.034077 
L 861.758443 163.761191 
L 867.07046 160.719873 
L 873.267814 157.440022 
L 879.465167 154.42439 
L 885.662521 151.649619 
L 891.859874 149.094755 
L 898.942564 146.420086 
L 906.025254 143.982858 
L 913.99328 141.496888 
L 921.961306 139.254584 
L 929.929332 137.230782 
L 938.782694 135.211319 
L 948.521392 133.237527 
L 958.260091 131.4927 
L 968.884125 129.818242 
L 972.42547 129.307929 
L 972.42547 129.307929 
" clip-path="url(#p3a479aaf5e)" style="fill: none; stroke: #da702c; stroke-width: 2.4; stroke-linecap: square"/>
   </g>
   <g id="line2d_62">
    <path d="M 817.491632 238.381143 
L 817.491632 112.158857 
" clip-path="url(#p3a479aaf5e)" style="fill: none; stroke-dasharray: 1.1,1.815; stroke-dashoffset: 0; stroke: #6f6e69; stroke-width: 1.1"/>
   </g>
   <g id="line2d_63">
    <path d="M 693.544561 142.192616 
L 985.705513 142.192616 
" clip-path="url(#p3a479aaf5e)" style="fill: none; stroke-dasharray: 1,1.65; stroke-dashoffset: 0; stroke: #3aa99f"/>
   </g>
   <g id="line2d_64">
    <path d="M 693.544561 117.896234 
L 985.705513 117.896234 
" clip-path="url(#p3a479aaf5e)" style="fill: none; stroke-dasharray: 1,1.65; stroke-dashoffset: 0; stroke: #da702c"/>
   </g>
   <g id="patch_10">
    <path d="M 693.544561 238.381143 
L 693.544561 112.158857 
" style="fill: none; stroke: #cecdc3; stroke-width: 0.8; stroke-linejoin: miter; stroke-linecap: square"/>
   </g>
   <g id="patch_11">
    <path d="M 693.544561 238.381143 
L 985.705513 238.381143 
" style="fill: none; stroke: #cecdc3; stroke-width: 0.8; stroke-linejoin: miter; stroke-linecap: square"/>
   </g>
   <g id="text_43">
    <!-- Consumo -->
    <g style="fill: #1c1b1a" transform="translate(693.544561 106.158857) scale(0.115 -0.115)">
     <defs>
      <path id="DejaVuSans-Bold-6e" d="M 4056 2131 
L 4056 0 
L 2931 0 
L 2931 347 
L 2931 1631 
Q 2931 2084 2911 2256 
Q 2891 2428 2841 2509 
Q 2775 2619 2662 2680 
Q 2550 2741 2406 2741 
Q 2056 2741 1856 2470 
Q 1656 2200 1656 1722 
L 1656 0 
L 538 0 
L 538 3500 
L 1656 3500 
L 1656 2988 
Q 1909 3294 2193 3439 
Q 2478 3584 2822 3584 
Q 3428 3584 3742 3212 
Q 4056 2841 4056 2131 
z
" transform="scale(0.015625)"/>
      <path id="DejaVuSans-Bold-73" d="M 3272 3391 
L 3272 2541 
Q 2913 2691 2578 2766 
Q 2244 2841 1947 2841 
Q 1628 2841 1473 2761 
Q 1319 2681 1319 2516 
Q 1319 2381 1436 2309 
Q 1553 2238 1856 2203 
L 2053 2175 
Q 2913 2066 3209 1816 
Q 3506 1566 3506 1031 
Q 3506 472 3093 190 
Q 2681 -91 1863 -91 
Q 1516 -91 1145 -36 
Q 775 19 384 128 
L 384 978 
Q 719 816 1070 734 
Q 1422 653 1784 653 
Q 2113 653 2278 743 
Q 2444 834 2444 1013 
Q 2444 1163 2330 1236 
Q 2216 1309 1875 1350 
L 1678 1375 
Q 931 1469 631 1722 
Q 331 1975 331 2491 
Q 331 3047 712 3315 
Q 1094 3584 1881 3584 
Q 2191 3584 2531 3537 
Q 2872 3491 3272 3391 
z
" transform="scale(0.015625)"/>
      <path id="DejaVuSans-Bold-6d" d="M 3781 2919 
Q 3994 3244 4286 3414 
Q 4578 3584 4928 3584 
Q 5531 3584 5847 3212 
Q 6163 2841 6163 2131 
L 6163 0 
L 5038 0 
L 5038 1825 
Q 5041 1866 5042 1909 
Q 5044 1953 5044 2034 
Q 5044 2406 4934 2573 
Q 4825 2741 4581 2741 
Q 4263 2741 4089 2478 
Q 3916 2216 3909 1719 
L 3909 0 
L 2784 0 
L 2784 1825 
Q 2784 2406 2684 2573 
Q 2584 2741 2328 2741 
Q 2006 2741 1831 2477 
Q 1656 2213 1656 1722 
L 1656 0 
L 531 0 
L 531 3500 
L 1656 3500 
L 1656 2988 
Q 1863 3284 2130 3434 
Q 2397 3584 2719 3584 
Q 3081 3584 3359 3409 
Q 3638 3234 3781 2919 
z
" transform="scale(0.015625)"/>
     </defs>
     <use xlink:href="#DejaVuSans-Bold-43"/>
     <use xlink:href="#DejaVuSans-Bold-6f" transform="translate(73.388672 0)"/>
     <use xlink:href="#DejaVuSans-Bold-6e" transform="translate(142.089844 0)"/>
     <use xlink:href="#DejaVuSans-Bold-73" transform="translate(213.28125 0)"/>
     <use xlink:href="#DejaVuSans-Bold-75" transform="translate(272.802734 0)"/>
     <use xlink:href="#DejaVuSans-Bold-6d" transform="translate(343.994141 0)"/>
     <use xlink:href="#DejaVuSans-Bold-6f" transform="translate(448.193359 0)"/>
    </g>
   </g>
  </g>
  <g id="text_44">
   <!-- Choque de poupança no modelo de Solow -->
   <g style="fill: #1c1b1a" transform="translate(18.349513 26.5575) scale(0.16 -0.16)">
    <defs>
     <path id="DejaVuSans-Bold-68" d="M 4056 2131 
L 4056 0 
L 2931 0 
L 2931 347 
L 2931 1625 
Q 2931 2084 2911 2256 
Q 2891 2428 2841 2509 
Q 2775 2619 2662 2680 
Q 2550 2741 2406 2741 
Q 2056 2741 1856 2470 
Q 1656 2200 1656 1722 
L 1656 0 
L 538 0 
L 538 4863 
L 1656 4863 
L 1656 2988 
Q 1909 3294 2193 3439 
Q 2478 3584 2822 3584 
Q 3428 3584 3742 3212 
Q 4056 2841 4056 2131 
z
" transform="scale(0.015625)"/>
     <path id="DejaVuSans-Bold-71" d="M 2181 2772 
Q 1825 2772 1636 2509 
Q 1447 2247 1447 1747 
Q 1447 1247 1636 984 
Q 1825 722 2181 722 
Q 2541 722 2730 984 
Q 2919 1247 2919 1747 
Q 2919 2247 2730 2509 
Q 2541 2772 2181 2772 
z
M 2919 506 
Q 2688 197 2409 53 
Q 2131 -91 1766 -91 
Q 1119 -91 703 423 
Q 288 938 288 1747 
Q 288 2556 703 3067 
Q 1119 3578 1766 3578 
Q 2131 3578 2409 3434 
Q 2688 3291 2919 2981 
L 2919 3500 
L 4044 3500 
L 4044 -1331 
L 2919 -1331 
L 2919 506 
z
" transform="scale(0.015625)"/>
     <path id="DejaVuSans-Bold-65" d="M 4031 1759 
L 4031 1441 
L 1416 1441 
Q 1456 1047 1700 850 
Q 1944 653 2381 653 
Q 2734 653 3104 758 
Q 3475 863 3866 1075 
L 3866 213 
Q 3469 63 3072 -14 
Q 2675 -91 2278 -91 
Q 1328 -91 801 392 
Q 275 875 275 1747 
Q 275 2603 792 3093 
Q 1309 3584 2216 3584 
Q 3041 3584 3536 3087 
Q 4031 2591 4031 1759 
z
M 2881 2131 
Q 2881 2450 2695 2645 
Q 2509 2841 2209 2841 
Q 1884 2841 1681 2658 
Q 1478 2475 1428 2131 
L 2881 2131 
z
" transform="scale(0.015625)"/>
     <path id="DejaVuSans-Bold-20" transform="scale(0.015625)"/>
     <path id="DejaVuSans-Bold-e7" d="M 3366 3391 
L 3366 2478 
Q 3138 2634 2908 2709 
Q 2678 2784 2431 2784 
Q 1963 2784 1702 2511 
Q 1441 2238 1441 1747 
Q 1441 1256 1702 982 
Q 1963 709 2431 709 
Q 2694 709 2930 787 
Q 3166 866 3366 1019 
L 3366 103 
Q 3103 6 2833 -42 
Q 2563 -91 2291 -91 
Q 1344 -91 809 395 
Q 275 881 275 1747 
Q 275 2613 809 3098 
Q 1344 3584 2291 3584 
Q 2566 3584 2833 3536 
Q 3100 3488 3366 3391 
z
M 2457 0 
Q 2639 -194 2724 -359 
Q 2810 -525 2810 -672 
Q 2810 -969 2618 -1111 
Q 2426 -1253 2029 -1253 
Q 1879 -1253 1719 -1233 
Q 1560 -1213 1398 -1172 
L 1395 -697 
Q 1551 -747 1680 -770 
Q 1810 -794 1914 -794 
Q 2095 -794 2196 -722 
Q 2298 -650 2298 -525 
Q 2298 -444 2231 -316 
Q 2164 -188 2023 0 
L 2457 0 
z
" transform="scale(0.015625)"/>
     <path id="DejaVuSans-Bold-53" d="M 3834 4519 
L 3834 3531 
Q 3450 3703 3084 3790 
Q 2719 3878 2394 3878 
Q 1963 3878 1756 3759 
Q 1550 3641 1550 3391 
Q 1550 3203 1689 3098 
Q 1828 2994 2194 2919 
L 2706 2816 
Q 3484 2659 3812 2340 
Q 4141 2022 4141 1434 
Q 4141 663 3683 286 
Q 3225 -91 2284 -91 
Q 1841 -91 1394 -6 
Q 947 78 500 244 
L 500 1259 
Q 947 1022 1364 901 
Q 1781 781 2169 781 
Q 2563 781 2772 912 
Q 2981 1044 2981 1288 
Q 2981 1506 2839 1625 
Q 2697 1744 2272 1838 
L 1806 1941 
Q 1106 2091 782 2419 
Q 459 2747 459 3303 
Q 459 4000 909 4375 
Q 1359 4750 2203 4750 
Q 2588 4750 2994 4692 
Q 3400 4634 3834 4519 
z
" transform="scale(0.015625)"/>
     <path id="DejaVuSans-Bold-77" d="M 225 3500 
L 1313 3500 
L 1900 1088 
L 2491 3500 
L 3425 3500 
L 4013 1113 
L 4603 3500 
L 5691 3500 
L 4769 0 
L 3547 0 
L 2956 2406 
L 2369 0 
L 1147 0 
L 225 3500 
z
" transform="scale(0.015625)"/>
    </defs>
    <use xlink:href="#DejaVuSans-Bold-43"/>
    <use xlink:href="#DejaVuSans-Bold-68" transform="translate(73.388672 0)"/>
    <use xlink:href="#DejaVuSans-Bold-6f" transform="translate(144.580078 0)"/>
    <use xlink:href="#DejaVuSans-Bold-71" transform="translate(213.28125 0)"/>
    <use xlink:href="#DejaVuSans-Bold-75" transform="translate(284.863281 0)"/>
    <use xlink:href="#DejaVuSans-Bold-65" transform="translate(356.054688 0)"/>
    <use xlink:href="#DejaVuSans-Bold-20" transform="translate(423.876953 0)"/>
    <use xlink:href="#DejaVuSans-Bold-64" transform="translate(458.691406 0)"/>
    <use xlink:href="#DejaVuSans-Bold-65" transform="translate(530.273438 0)"/>
    <use xlink:href="#DejaVuSans-Bold-20" transform="translate(598.095703 0)"/>
    <use xlink:href="#DejaVuSans-Bold-70" transform="translate(632.910156 0)"/>
    <use xlink:href="#DejaVuSans-Bold-6f" transform="translate(704.492188 0)"/>
    <use xlink:href="#DejaVuSans-Bold-75" transform="translate(773.193359 0)"/>
    <use xlink:href="#DejaVuSans-Bold-70" transform="translate(844.384766 0)"/>
    <use xlink:href="#DejaVuSans-Bold-61" transform="translate(915.966797 0)"/>
    <use xlink:href="#DejaVuSans-Bold-6e" transform="translate(983.447266 0)"/>
    <use xlink:href="#DejaVuSans-Bold-e7" transform="translate(1054.638672 0)"/>
    <use xlink:href="#DejaVuSans-Bold-61" transform="translate(1113.916016 0)"/>
    <use xlink:href="#DejaVuSans-Bold-20" transform="translate(1181.396484 0)"/>
    <use xlink:href="#DejaVuSans-Bold-6e" transform="translate(1216.210938 0)"/>
    <use xlink:href="#DejaVuSans-Bold-6f" transform="translate(1287.402344 0)"/>
    <use xlink:href="#DejaVuSans-Bold-20" transform="translate(1356.103516 0)"/>
    <use xlink:href="#DejaVuSans-Bold-6d" transform="translate(1390.917969 0)"/>
    <use xlink:href="#DejaVuSans-Bold-6f" transform="translate(1495.117188 0)"/>
    <use xlink:href="#DejaVuSans-Bold-64" transform="translate(1563.818359 0)"/>
    <use xlink:href="#DejaVuSans-Bold-65" transform="translate(1635.400391 0)"/>
    <use xlink:href="#DejaVuSans-Bold-6c" transform="translate(1703.222656 0)"/>
    <use xlink:href="#DejaVuSans-Bold-6f" transform="translate(1737.5 0)"/>
    <use xlink:href="#DejaVuSans-Bold-20" transform="translate(1806.201172 0)"/>
    <use xlink:href="#DejaVuSans-Bold-64" transform="translate(1841.015625 0)"/>
    <use xlink:href="#DejaVuSans-Bold-65" transform="translate(1912.597656 0)"/>
    <use xlink:href="#DejaVuSans-Bold-20" transform="translate(1980.419922 0)"/>
    <use xlink:href="#DejaVuSans-Bold-53" transform="translate(2015.234375 0)"/>
    <use xlink:href="#DejaVuSans-Bold-6f" transform="translate(2087.255859 0)"/>
    <use xlink:href="#DejaVuSans-Bold-6c" transform="translate(2155.957031 0)"/>
    <use xlink:href="#DejaVuSans-Bold-6f" transform="translate(2190.234375 0)"/>
    <use xlink:href="#DejaVuSans-Bold-77" transform="translate(2258.935547 0)"/>
   </g>
  </g>
  <g id="text_45">
   <!-- Um aumento da taxa de poupança desloca o estado estacionário para cima e altera a trajetória de convergência. -->
   <g style="fill: #6f6e69" transform="translate(18.349513 35.230406) scale(0.102 -0.102)">
    <defs>
     <path id="DejaVuSans-55" d="M 556 4666 
L 1191 4666 
L 1191 1831 
Q 1191 1081 1462 751 
Q 1734 422 2344 422 
Q 2950 422 3222 751 
Q 3494 1081 3494 1831 
L 3494 4666 
L 4128 4666 
L 4128 1753 
Q 4128 841 3676 375 
Q 3225 -91 2344 -91 
Q 1459 -91 1007 375 
Q 556 841 556 1753 
L 556 4666 
z
" transform="scale(0.015625)"/>
     <path id="DejaVuSans-61" d="M 2194 1759 
Q 1497 1759 1228 1600 
Q 959 1441 959 1056 
Q 959 750 1161 570 
Q 1363 391 1709 391 
Q 2188 391 2477 730 
Q 2766 1069 2766 1631 
L 2766 1759 
L 2194 1759 
z
M 3341 1997 
L 3341 0 
L 2766 0 
L 2766 531 
Q 2569 213 2275 61 
Q 1981 -91 1556 -91 
Q 1019 -91 701 211 
Q 384 513 384 1019 
Q 384 1609 779 1909 
Q 1175 2209 1959 2209 
L 2766 2209 
L 2766 2266 
Q 2766 2663 2505 2880 
Q 2244 3097 1772 3097 
Q 1472 3097 1187 3025 
Q 903 2953 641 2809 
L 641 3341 
Q 956 3463 1253 3523 
Q 1550 3584 1831 3584 
Q 2591 3584 2966 3190 
Q 3341 2797 3341 1997 
z
" transform="scale(0.015625)"/>
     <path id="DejaVuSans-78" d="M 3513 3500 
L 2247 1797 
L 3578 0 
L 2900 0 
L 1881 1375 
L 863 0 
L 184 0 
L 1544 1831 
L 300 3500 
L 978 3500 
L 1906 2253 
L 2834 3500 
L 3513 3500 
z
" transform="scale(0.015625)"/>
     <path id="DejaVuSans-e7" d="M 3122 3366 
L 3122 2828 
Q 2878 2963 2633 3030 
Q 2388 3097 2138 3097 
Q 1578 3097 1268 2742 
Q 959 2388 959 1747 
Q 959 1106 1268 751 
Q 1578 397 2138 397 
Q 2388 397 2633 464 
Q 2878 531 3122 666 
L 3122 134 
Q 2881 22 2623 -34 
Q 2366 -91 2075 -91 
Q 1284 -91 818 406 
Q 353 903 353 1747 
Q 353 2603 823 3093 
Q 1294 3584 2113 3584 
Q 2378 3584 2631 3529 
Q 2884 3475 3122 3366 
z
M 2311 0 
Q 2482 -194 2566 -358 
Q 2651 -522 2651 -672 
Q 2651 -950 2463 -1092 
Q 2276 -1234 1907 -1234 
Q 1764 -1234 1628 -1215 
Q 1492 -1197 1357 -1159 
L 1357 -750 
Q 1464 -803 1579 -826 
Q 1695 -850 1842 -850 
Q 2026 -850 2120 -775 
Q 2214 -700 2214 -556 
Q 2214 -463 2146 -327 
Q 2079 -191 1939 0 
L 2311 0 
z
" transform="scale(0.015625)"/>
     <path id="DejaVuSans-e1" d="M 2194 1759 
Q 1497 1759 1228 1600 
Q 959 1441 959 1056 
Q 959 750 1161 570 
Q 1363 391 1709 391 
Q 2188 391 2477 730 
Q 2766 1069 2766 1631 
L 2766 1759 
L 2194 1759 
z
M 3341 1997 
L 3341 0 
L 2766 0 
L 2766 531 
Q 2569 213 2275 61 
Q 1981 -91 1556 -91 
Q 1019 -91 701 211 
Q 384 513 384 1019 
Q 384 1609 779 1909 
Q 1175 2209 1959 2209 
L 2766 2209 
L 2766 2266 
Q 2766 2663 2505 2880 
Q 2244 3097 1772 3097 
Q 1472 3097 1187 3025 
Q 903 2953 641 2809 
L 641 3341 
Q 956 3463 1253 3523 
Q 1550 3584 1831 3584 
Q 2591 3584 2966 3190 
Q 3341 2797 3341 1997 
z
M 2290 5119 
L 2912 5119 
L 1894 3944 
L 1415 3944 
L 2290 5119 
z
" transform="scale(0.015625)"/>
     <path id="DejaVuSans-72" d="M 2631 2963 
Q 2534 3019 2420 3045 
Q 2306 3072 2169 3072 
Q 1681 3072 1420 2755 
Q 1159 2438 1159 1844 
L 1159 0 
L 581 0 
L 581 3500 
L 1159 3500 
L 1159 2956 
Q 1341 3275 1631 3429 
Q 1922 3584 2338 3584 
Q 2397 3584 2469 3576 
Q 2541 3569 2628 3553 
L 2631 2963 
z
" transform="scale(0.015625)"/>
     <path id="DejaVuSans-6a" d="M 603 3500 
L 1178 3500 
L 1178 -63 
Q 1178 -731 923 -1031 
Q 669 -1331 103 -1331 
L -116 -1331 
L -116 -844 
L 38 -844 
Q 366 -844 484 -692 
Q 603 -541 603 -63 
L 603 3500 
z
M 603 4863 
L 1178 4863 
L 1178 4134 
L 603 4134 
L 603 4863 
z
" transform="scale(0.015625)"/>
     <path id="DejaVuSans-f3" d="M 1959 3097 
Q 1497 3097 1228 2736 
Q 959 2375 959 1747 
Q 959 1119 1226 758 
Q 1494 397 1959 397 
Q 2419 397 2687 759 
Q 2956 1122 2956 1747 
Q 2956 2369 2687 2733 
Q 2419 3097 1959 3097 
z
M 1959 3584 
Q 2709 3584 3137 3096 
Q 3566 2609 3566 1747 
Q 3566 888 3137 398 
Q 2709 -91 1959 -91 
Q 1206 -91 779 398 
Q 353 888 353 1747 
Q 353 2609 779 3096 
Q 1206 3584 1959 3584 
z
M 2394 5119 
L 3016 5119 
L 1998 3944 
L 1519 3944 
L 2394 5119 
z
" transform="scale(0.015625)"/>
     <path id="DejaVuSans-67" d="M 2906 1791 
Q 2906 2416 2648 2759 
Q 2391 3103 1925 3103 
Q 1463 3103 1205 2759 
Q 947 2416 947 1791 
Q 947 1169 1205 825 
Q 1463 481 1925 481 
Q 2391 481 2648 825 
Q 2906 1169 2906 1791 
z
M 3481 434 
Q 3481 -459 3084 -895 
Q 2688 -1331 1869 -1331 
Q 1566 -1331 1297 -1286 
Q 1028 -1241 775 -1147 
L 775 -588 
Q 1028 -725 1275 -790 
Q 1522 -856 1778 -856 
Q 2344 -856 2625 -561 
Q 2906 -266 2906 331 
L 2906 616 
Q 2728 306 2450 153 
Q 2172 0 1784 0 
Q 1141 0 747 490 
Q 353 981 353 1791 
Q 353 2603 747 3093 
Q 1141 3584 1784 3584 
Q 2172 3584 2450 3431 
Q 2728 3278 2906 2969 
L 2906 3500 
L 3481 3500 
L 3481 434 
z
" transform="scale(0.015625)"/>
     <path id="DejaVuSans-ea" d="M 3597 1894 
L 3597 1613 
L 953 1613 
Q 991 1019 1311 708 
Q 1631 397 2203 397 
Q 2534 397 2845 478 
Q 3156 559 3463 722 
L 3463 178 
Q 3153 47 2828 -22 
Q 2503 -91 2169 -91 
Q 1331 -91 842 396 
Q 353 884 353 1716 
Q 353 2575 817 3079 
Q 1281 3584 2069 3584 
Q 2775 3584 3186 3129 
Q 3597 2675 3597 1894 
z
M 3022 2063 
Q 3016 2534 2758 2815 
Q 2500 3097 2075 3097 
Q 1594 3097 1305 2825 
Q 1016 2553 972 2059 
L 3022 2063 
z
M 1801 5119 
L 2263 5119 
L 3029 3944 
L 2595 3944 
L 2032 4709 
L 1470 3944 
L 1035 3944 
L 1801 5119 
z
" transform="scale(0.015625)"/>
     <path id="DejaVuSans-2e" d="M 684 794 
L 1344 794 
L 1344 0 
L 684 0 
L 684 794 
z
" transform="scale(0.015625)"/>
    </defs>
    <use xlink:href="#DejaVuSans-55"/>
    <use xlink:href="#DejaVuSans-6d" transform="translate(73.193359 0)"/>
    <use xlink:href="#DejaVuSans-20" transform="translate(170.605469 0)"/>
    <use xlink:href="#DejaVuSans-61" transform="translate(202.392578 0)"/>
    <use xlink:href="#DejaVuSans-75" transform="translate(263.671875 0)"/>
    <use xlink:href="#DejaVuSans-6d" transform="translate(327.050781 0)"/>
    <use xlink:href="#DejaVuSans-65" transform="translate(424.462891 0)"/>
    <use xlink:href="#DejaVuSans-6e" transform="translate(485.986328 0)"/>
    <use xlink:href="#DejaVuSans-74" transform="translate(549.365234 0)"/>
    <use xlink:href="#DejaVuSans-6f" transform="translate(588.574219 0)"/>
    <use xlink:href="#DejaVuSans-20" transform="translate(649.755859 0)"/>
    <use xlink:href="#DejaVuSans-64" transform="translate(681.542969 0)"/>
    <use xlink:href="#DejaVuSans-61" transform="translate(745.019531 0)"/>
    <use xlink:href="#DejaVuSans-20" transform="translate(806.298828 0)"/>
    <use xlink:href="#DejaVuSans-74" transform="translate(838.085938 0)"/>
    <use xlink:href="#DejaVuSans-61" transform="translate(877.294922 0)"/>
    <use xlink:href="#DejaVuSans-78" transform="translate(938.574219 0)"/>
    <use xlink:href="#DejaVuSans-61" transform="translate(997.753906 0)"/>
    <use xlink:href="#DejaVuSans-20" transform="translate(1059.033203 0)"/>
    <use xlink:href="#DejaVuSans-64" transform="translate(1090.820312 0)"/>
    <use xlink:href="#DejaVuSans-65" transform="translate(1154.296875 0)"/>
    <use xlink:href="#DejaVuSans-20" transform="translate(1215.820312 0)"/>
    <use xlink:href="#DejaVuSans-70" transform="translate(1247.607422 0)"/>
    <use xlink:href="#DejaVuSans-6f" transform="translate(1311.083984 0)"/>
    <use xlink:href="#DejaVuSans-75" transform="translate(1372.265625 0)"/>
    <use xlink:href="#DejaVuSans-70" transform="translate(1435.644531 0)"/>
    <use xlink:href="#DejaVuSans-61" transform="translate(1499.121094 0)"/>
    <use xlink:href="#DejaVuSans-6e" transform="translate(1560.400391 0)"/>
    <use xlink:href="#DejaVuSans-e7" transform="translate(1623.779297 0)"/>
    <use xlink:href="#DejaVuSans-61" transform="translate(1678.759766 0)"/>
    <use xlink:href="#DejaVuSans-20" transform="translate(1740.039062 0)"/>
    <use xlink:href="#DejaVuSans-64" transform="translate(1771.826172 0)"/>
    <use xlink:href="#DejaVuSans-65" transform="translate(1835.302734 0)"/>
    <use xlink:href="#DejaVuSans-73" transform="translate(1896.826172 0)"/>
    <use xlink:href="#DejaVuSans-6c" transform="translate(1948.925781 0)"/>
    <use xlink:href="#DejaVuSans-6f" transform="translate(1976.708984 0)"/>
    <use xlink:href="#DejaVuSans-63" transform="translate(2037.890625 0)"/>
    <use xlink:href="#DejaVuSans-61" transform="translate(2092.871094 0)"/>
    <use xlink:href="#DejaVuSans-20" transform="translate(2154.150391 0)"/>
    <use xlink:href="#DejaVuSans-6f" transform="translate(2185.9375 0)"/>
    <use xlink:href="#DejaVuSans-20" transform="translate(2247.119141 0)"/>
    <use xlink:href="#DejaVuSans-65" transform="translate(2278.90625 0)"/>
    <use xlink:href="#DejaVuSans-73" transform="translate(2340.429688 0)"/>
    <use xlink:href="#DejaVuSans-74" transform="translate(2392.529297 0)"/>
    <use xlink:href="#DejaVuSans-61" transform="translate(2431.738281 0)"/>
    <use xlink:href="#DejaVuSans-64" transform="translate(2493.017578 0)"/>
    <use xlink:href="#DejaVuSans-6f" transform="translate(2556.494141 0)"/>
    <use xlink:href="#DejaVuSans-20" transform="translate(2617.675781 0)"/>
    <use xlink:href="#DejaVuSans-65" transform="translate(2649.462891 0)"/>
    <use xlink:href="#DejaVuSans-73" transform="translate(2710.986328 0)"/>
    <use xlink:href="#DejaVuSans-74" transform="translate(2763.085938 0)"/>
    <use xlink:href="#DejaVuSans-61" transform="translate(2802.294922 0)"/>
    <use xlink:href="#DejaVuSans-63" transform="translate(2863.574219 0)"/>
    <use xlink:href="#DejaVuSans-69" transform="translate(2918.554688 0)"/>
    <use xlink:href="#DejaVuSans-6f" transform="translate(2946.337891 0)"/>
    <use xlink:href="#DejaVuSans-6e" transform="translate(3007.519531 0)"/>
    <use xlink:href="#DejaVuSans-e1" transform="translate(3070.898438 0)"/>
    <use xlink:href="#DejaVuSans-72" transform="translate(3132.177734 0)"/>
    <use xlink:href="#DejaVuSans-69" transform="translate(3173.291016 0)"/>
    <use xlink:href="#DejaVuSans-6f" transform="translate(3201.074219 0)"/>
    <use xlink:href="#DejaVuSans-20" transform="translate(3262.255859 0)"/>
    <use xlink:href="#DejaVuSans-70" transform="translate(3294.042969 0)"/>
    <use xlink:href="#DejaVuSans-61" transform="translate(3357.519531 0)"/>
    <use xlink:href="#DejaVuSans-72" transform="translate(3418.798828 0)"/>
    <use xlink:href="#DejaVuSans-61" transform="translate(3459.912109 0)"/>
    <use xlink:href="#DejaVuSans-20" transform="translate(3521.191406 0)"/>
    <use xlink:href="#DejaVuSans-63" transform="translate(3552.978516 0)"/>
    <use xlink:href="#DejaVuSans-69" transform="translate(3607.958984 0)"/>
    <use xlink:href="#DejaVuSans-6d" transform="translate(3635.742188 0)"/>
    <use xlink:href="#DejaVuSans-61" transform="translate(3733.154297 0)"/>
    <use xlink:href="#DejaVuSans-20" transform="translate(3794.433594 0)"/>
    <use xlink:href="#DejaVuSans-65" transform="translate(3826.220703 0)"/>
    <use xlink:href="#DejaVuSans-20" transform="translate(3887.744141 0)"/>
    <use xlink:href="#DejaVuSans-61" transform="translate(3919.53125 0)"/>
    <use xlink:href="#DejaVuSans-6c" transform="translate(3980.810547 0)"/>
    <use xlink:href="#DejaVuSans-74" transform="translate(4008.59375 0)"/>
    <use xlink:href="#DejaVuSans-65" transform="translate(4047.802734 0)"/>
    <use xlink:href="#DejaVuSans-72" transform="translate(4109.326172 0)"/>
    <use xlink:href="#DejaVuSans-61" transform="translate(4150.439453 0)"/>
    <use xlink:href="#DejaVuSans-20" transform="translate(4211.71875 0)"/>
    <use xlink:href="#DejaVuSans-61" transform="translate(4243.505859 0)"/>
    <use xlink:href="#DejaVuSans-20" transform="translate(4304.785156 0)"/>
    <use xlink:href="#DejaVuSans-74" transform="translate(4336.572266 0)"/>
    <use xlink:href="#DejaVuSans-72" transform="translate(4375.78125 0)"/>
    <use xlink:href="#DejaVuSans-61" transform="translate(4416.894531 0)"/>
    <use xlink:href="#DejaVuSans-6a" transform="translate(4478.173828 0)"/>
    <use xlink:href="#DejaVuSans-65" transform="translate(4505.957031 0)"/>
    <use xlink:href="#DejaVuSans-74" transform="translate(4567.480469 0)"/>
    <use xlink:href="#DejaVuSans-f3" transform="translate(4606.689453 0)"/>
    <use xlink:href="#DejaVuSans-72" transform="translate(4667.871094 0)"/>
    <use xlink:href="#DejaVuSans-69" transform="translate(4708.984375 0)"/>
    <use xlink:href="#DejaVuSans-61" transform="translate(4736.767578 0)"/>
    <use xlink:href="#DejaVuSans-20" transform="translate(4798.046875 0)"/>
    <use xlink:href="#DejaVuSans-64" transform="translate(4829.833984 0)"/>
    <use xlink:href="#DejaVuSans-65" transform="translate(4893.310547 0)"/>
    <use xlink:href="#DejaVuSans-20" transform="translate(4954.833984 0)"/>
    <use xlink:href="#DejaVuSans-63" transform="translate(4986.621094 0)"/>
    <use xlink:href="#DejaVuSans-6f" transform="translate(5041.601562 0)"/>
    <use xlink:href="#DejaVuSans-6e" transform="translate(5102.783203 0)"/>
    <use xlink:href="#DejaVuSans-76" transform="translate(5166.162109 0)"/>
    <use xlink:href="#DejaVuSans-65" transform="translate(5225.341797 0)"/>
    <use xlink:href="#DejaVuSans-72" transform="translate(5286.865234 0)"/>
    <use xlink:href="#DejaVuSans-67" transform="translate(5326.228516 0)"/>
    <use xlink:href="#DejaVuSans-ea" transform="translate(5389.705078 0)"/>
    <use xlink:href="#DejaVuSans-6e" transform="translate(5451.228516 0)"/>
    <use xlink:href="#DejaVuSans-63" transform="translate(5514.607422 0)"/>
    <use xlink:href="#DejaVuSans-69" transform="translate(5569.587891 0)"/>
    <use xlink:href="#DejaVuSans-61" transform="translate(5597.371094 0)"/>
    <use xlink:href="#DejaVuSans-2e" transform="translate(5658.650391 0)"/>
   </g>
  </g>
  <g id="text_46">
   <!-- Obs.: A taxa de poupança sobe de 20% para 28%. -->
   <g style="fill: #6f6e69" transform="translate(18.349513 315.134672) scale(0.087 -0.087)">
    <defs>
     <path id="DejaVuSans-4f" d="M 2522 4238 
Q 1834 4238 1429 3725 
Q 1025 3213 1025 2328 
Q 1025 1447 1429 934 
Q 1834 422 2522 422 
Q 3209 422 3611 934 
Q 4013 1447 4013 2328 
Q 4013 3213 3611 3725 
Q 3209 4238 2522 4238 
z
M 2522 4750 
Q 3503 4750 4090 4092 
Q 4678 3434 4678 2328 
Q 4678 1225 4090 567 
Q 3503 -91 2522 -91 
Q 1538 -91 948 565 
Q 359 1222 359 2328 
Q 359 3434 948 4092 
Q 1538 4750 2522 4750 
z
" transform="scale(0.015625)"/>
     <path id="DejaVuSans-62" d="M 3116 1747 
Q 3116 2381 2855 2742 
Q 2594 3103 2138 3103 
Q 1681 3103 1420 2742 
Q 1159 2381 1159 1747 
Q 1159 1113 1420 752 
Q 1681 391 2138 391 
Q 2594 391 2855 752 
Q 3116 1113 3116 1747 
z
M 1159 2969 
Q 1341 3281 1617 3432 
Q 1894 3584 2278 3584 
Q 2916 3584 3314 3078 
Q 3713 2572 3713 1747 
Q 3713 922 3314 415 
Q 2916 -91 2278 -91 
Q 1894 -91 1617 61 
Q 1341 213 1159 525 
L 1159 0 
L 581 0 
L 581 4863 
L 1159 4863 
L 1159 2969 
z
" transform="scale(0.015625)"/>
     <path id="DejaVuSans-3a" d="M 750 794 
L 1409 794 
L 1409 0 
L 750 0 
L 750 794 
z
M 750 3309 
L 1409 3309 
L 1409 2516 
L 750 2516 
L 750 3309 
z
" transform="scale(0.015625)"/>
     <path id="DejaVuSans-25" d="M 4653 2053 
Q 4381 2053 4226 1822 
Q 4072 1591 4072 1178 
Q 4072 772 4226 539 
Q 4381 306 4653 306 
Q 4919 306 5073 539 
Q 5228 772 5228 1178 
Q 5228 1588 5073 1820 
Q 4919 2053 4653 2053 
z
M 4653 2450 
Q 5147 2450 5437 2106 
Q 5728 1763 5728 1178 
Q 5728 594 5436 251 
Q 5144 -91 4653 -91 
Q 4153 -91 3862 251 
Q 3572 594 3572 1178 
Q 3572 1766 3864 2108 
Q 4156 2450 4653 2450 
z
M 1428 4353 
Q 1159 4353 1004 4120 
Q 850 3888 850 3481 
Q 850 3069 1003 2837 
Q 1156 2606 1428 2606 
Q 1700 2606 1854 2837 
Q 2009 3069 2009 3481 
Q 2009 3884 1853 4118 
Q 1697 4353 1428 4353 
z
M 4250 4750 
L 4750 4750 
L 1831 -91 
L 1331 -91 
L 4250 4750 
z
M 1428 4750 
Q 1922 4750 2215 4408 
Q 2509 4066 2509 3481 
Q 2509 2891 2217 2550 
Q 1925 2209 1428 2209 
Q 931 2209 642 2551 
Q 353 2894 353 3481 
Q 353 4063 643 4406 
Q 934 4750 1428 4750 
z
" transform="scale(0.015625)"/>
    </defs>
    <use xlink:href="#DejaVuSans-4f"/>
    <use xlink:href="#DejaVuSans-62" transform="translate(78.710938 0)"/>
    <use xlink:href="#DejaVuSans-73" transform="translate(142.1875 0)"/>
    <use xlink:href="#DejaVuSans-2e" transform="translate(194.287109 0)"/>
    <use xlink:href="#DejaVuSans-3a" transform="translate(226.074219 0)"/>
    <use xlink:href="#DejaVuSans-20" transform="translate(259.765625 0)"/>
    <use xlink:href="#DejaVuSans-41" transform="translate(291.552734 0)"/>
    <use xlink:href="#DejaVuSans-20" transform="translate(359.960938 0)"/>
    <use xlink:href="#DejaVuSans-74" transform="translate(391.748047 0)"/>
    <use xlink:href="#DejaVuSans-61" transform="translate(430.957031 0)"/>
    <use xlink:href="#DejaVuSans-78" transform="translate(492.236328 0)"/>
    <use xlink:href="#DejaVuSans-61" transform="translate(551.416016 0)"/>
    <use xlink:href="#DejaVuSans-20" transform="translate(612.695312 0)"/>
    <use xlink:href="#DejaVuSans-64" transform="translate(644.482422 0)"/>
    <use xlink:href="#DejaVuSans-65" transform="translate(707.958984 0)"/>
    <use xlink:href="#DejaVuSans-20" transform="translate(769.482422 0)"/>
    <use xlink:href="#DejaVuSans-70" transform="translate(801.269531 0)"/>
    <use xlink:href="#DejaVuSans-6f" transform="translate(864.746094 0)"/>
    <use xlink:href="#DejaVuSans-75" transform="translate(925.927734 0)"/>
    <use xlink:href="#DejaVuSans-70" transform="translate(989.306641 0)"/>
    <use xlink:href="#DejaVuSans-61" transform="translate(1052.783203 0)"/>
    <use xlink:href="#DejaVuSans-6e" transform="translate(1114.0625 0)"/>
    <use xlink:href="#DejaVuSans-e7" transform="translate(1177.441406 0)"/>
    <use xlink:href="#DejaVuSans-61" transform="translate(1232.421875 0)"/>
    <use xlink:href="#DejaVuSans-20" transform="translate(1293.701172 0)"/>
    <use xlink:href="#DejaVuSans-73" transform="translate(1325.488281 0)"/>
    <use xlink:href="#DejaVuSans-6f" transform="translate(1377.587891 0)"/>
    <use xlink:href="#DejaVuSans-62" transform="translate(1438.769531 0)"/>
    <use xlink:href="#DejaVuSans-65" transform="translate(1502.246094 0)"/>
    <use xlink:href="#DejaVuSans-20" transform="translate(1563.769531 0)"/>
    <use xlink:href="#DejaVuSans-64" transform="translate(1595.556641 0)"/>
    <use xlink:href="#DejaVuSans-65" transform="translate(1659.033203 0)"/>
    <use xlink:href="#DejaVuSans-20" transform="translate(1720.556641 0)"/>
    <use xlink:href="#DejaVuSans-32" transform="translate(1752.34375 0)"/>
    <use xlink:href="#DejaVuSans-30" transform="translate(1815.966797 0)"/>
    <use xlink:href="#DejaVuSans-25" transform="translate(1879.589844 0)"/>
    <use xlink:href="#DejaVuSans-20" transform="translate(1974.609375 0)"/>
    <use xlink:href="#DejaVuSans-70" transform="translate(2006.396484 0)"/>
    <use xlink:href="#DejaVuSans-61" transform="translate(2069.873047 0)"/>
    <use xlink:href="#DejaVuSans-72" transform="translate(2131.152344 0)"/>
    <use xlink:href="#DejaVuSans-61" transform="translate(2172.265625 0)"/>
    <use xlink:href="#DejaVuSans-20" transform="translate(2233.544922 0)"/>
    <use xlink:href="#DejaVuSans-32" transform="translate(2265.332031 0)"/>
    <use xlink:href="#DejaVuSans-38" transform="translate(2328.955078 0)"/>
    <use xlink:href="#DejaVuSans-25" transform="translate(2392.578125 0)"/>
    <use xlink:href="#DejaVuSans-2e" transform="translate(2487.597656 0)"/>
   </g>
  </g>
 </g>
 <defs>
  <clipPath id="p7de6bc16e6">
   <rect x="41.242656" y="112.158857" width="292.160952" height="126.222286"/>
  </clipPath>
  <clipPath id="p1428cb046d">
   <rect x="367.393609" y="112.158857" width="292.160952" height="126.222286"/>
  </clipPath>
  <clipPath id="p3a479aaf5e">
   <rect x="693.544561" y="112.158857" width="292.160952" height="126.222286"/>
  </clipPath>
 </defs>
</svg>
