<?xml version="1.0" encoding="utf-8" standalone="no"?>
<!DOCTYPE svg PUBLIC "-//W3C//DTD SVG 1.1//EN"
  "http://www.w3.org/Graphics/SVG/1.1/DTD/svg11.dtd">
<svg xmlns:xlink="http://www.w3.org/1999/xlink" width="641.556pt" height="406.98pt" viewBox="0 0 641.556 406.98" xmlns="http://www.w3.org/2000/svg" version="1.1">
 <metadata>
  <rdf:RDF xmlns:dc="http://purl.org/dc/elements/1.1/" xmlns:cc="http://creativecommons.org/ns#" xmlns:rdf="http://www.w3.org/1999/02/22-rdf-syntax-ns#">
   <cc:Work>
    <dc:type rdf:resource="http://purl.org/dc/dcmitype/StillImage"/>
    <dc:date>2026-04-02T15:03:57.577502</dc:date>
    <dc:format>image/svg+xml</dc:format>
    <dc:creator>
     <cc:Agent>
      <dc:title>Matplotlib v3.10.7, https://matplotlib.org/</dc:title>
     </cc:Agent>
    </dc:creator>
   </cc:Work>
  </rdf:RDF>
 </metadata>
 <defs>
  <style type="text/css">*{stroke-linejoin: round; stroke-linecap: butt}</style>
 </defs>
 <g id="figure_1">
  <g id="patch_1">
   <path d="M 0 406.98 
L 641.556 406.98 
L 641.556 0 
L 0 0 
z
" style="fill: #fffcf0"/>
  </g>
  <g id="axes_1">
   <g id="patch_2">
    <path d="M 58.657429 314.017143 
L 627.156 314.017143 
L 627.156 92.217046 
L 58.657429 92.217046 
z
" style="fill: #fffcf0"/>
   </g>
   <g id="matplotlib.axis_1">
    <g id="xtick_1">
     <g id="line2d_1"/>
     <g id="text_1">
      <!-- 0% -->
      <g style="fill: #6f6e69" transform="translate(162.305787 327.995502) scale(0.105 -0.105)">
       <defs>
        <path id="DejaVuSans-30" d="M 2034 4250 
Q 1547 4250 1301 3770 
Q 1056 3291 1056 2328 
Q 1056 1369 1301 889 
Q 1547 409 2034 409 
Q 2525 409 2770 889 
Q 3016 1369 3016 2328 
Q 3016 3291 2770 3770 
Q 2525 4250 2034 4250 
z
M 2034 4750 
Q 2819 4750 3233 4129 
Q 3647 3509 3647 2328 
Q 3647 1150 3233 529 
Q 2819 -91 2034 -91 
Q 1250 -91 836 529 
Q 422 1150 422 2328 
Q 422 3509 836 4129 
Q 1250 4750 2034 4750 
z
" transform="scale(0.015625)"/>
        <path id="DejaVuSans-25" d="M 4653 2053 
Q 4381 2053 4226 1822 
Q 4072 1591 4072 1178 
Q 4072 772 4226 539 
Q 4381 306 4653 306 
Q 4919 306 5073 539 
Q 5228 772 5228 1178 
Q 5228 1588 5073 1820 
Q 4919 2053 4653 2053 
z
M 4653 2450 
Q 5147 2450 5437 2106 
Q 5728 1763 5728 1178 
Q 5728 594 5436 251 
Q 5144 -91 4653 -91 
Q 4153 -91 3862 251 
Q 3572 594 3572 1178 
Q 3572 1766 3864 2108 
Q 4156 2450 4653 2450 
z
M 1428 4353 
Q 1159 4353 1004 4120 
Q 850 3888 850 3481 
Q 850 3069 1003 2837 
Q 1156 2606 1428 2606 
Q 1700 2606 1854 2837 
Q 2009 3069 2009 3481 
Q 2009 3884 1853 4118 
Q 1697 4353 1428 4353 
z
M 4250 4750 
L 4750 4750 
L 1831 -91 
L 1331 -91 
L 4250 4750 
z
M 1428 4750 
Q 1922 4750 2215 4408 
Q 2509 4066 2509 3481 
Q 2509 2891 2217 2550 
Q 1925 2209 1428 2209 
Q 931 2209 642 2551 
Q 353 2894 353 3481 
Q 353 4063 643 4406 
Q 934 4750 1428 4750 
z
" transform="scale(0.015625)"/>
       </defs>
       <use xlink:href="#DejaVuSans-30"/>
       <use xlink:href="#DejaVuSans-25" transform="translate(63.623047 0)"/>
      </g>
     </g>
    </g>
    <g id="xtick_2">
     <g id="line2d_2"/>
     <g id="text_2">
      <!-- 0% -->
      <g style="fill: #6f6e69" transform="translate(277.153983 327.995502) scale(0.105 -0.105)">
       <use xlink:href="#DejaVuSans-30"/>
       <use xlink:href="#DejaVuSans-25" transform="translate(63.623047 0)"/>
      </g>
     </g>
    </g>
    <g id="xtick_3">
     <g id="line2d_3"/>
     <g id="text_3">
      <!-- 1% -->
      <g style="fill: #6f6e69" transform="translate(392.00218 327.995502) scale(0.105 -0.105)">
       <defs>
        <path id="DejaVuSans-31" d="M 794 531 
L 1825 531 
L 1825 4091 
L 703 3866 
L 703 4441 
L 1819 4666 
L 2450 4666 
L 2450 531 
L 3481 531 
L 3481 0 
L 794 0 
L 794 531 
z
" transform="scale(0.015625)"/>
       </defs>
       <use xlink:href="#DejaVuSans-31"/>
       <use xlink:href="#DejaVuSans-25" transform="translate(63.623047 0)"/>
      </g>
     </g>
    </g>
    <g id="xtick_4">
     <g id="line2d_4"/>
     <g id="text_4">
      <!-- 1% -->
      <g style="fill: #6f6e69" transform="translate(506.850376 327.995502) scale(0.105 -0.105)">
       <use xlink:href="#DejaVuSans-31"/>
       <use xlink:href="#DejaVuSans-25" transform="translate(63.623047 0)"/>
      </g>
     </g>
    </g>
    <g id="text_5">
     <!-- Taxa de poupança, s -->
     <g style="fill: #1c1b1a" transform="translate(289.198394 348.157533) scale(0.105 -0.105)">
      <defs>
       <path id="DejaVuSans-54" d="M -19 4666 
L 3928 4666 
L 3928 4134 
L 2272 4134 
L 2272 0 
L 1638 0 
L 1638 4134 
L -19 4134 
L -19 4666 
z
" transform="scale(0.015625)"/>
       <path id="DejaVuSans-61" d="M 2194 1759 
Q 1497 1759 1228 1600 
Q 959 1441 959 1056 
Q 959 750 1161 570 
Q 1363 391 1709 391 
Q 2188 391 2477 730 
Q 2766 1069 2766 1631 
L 2766 1759 
L 2194 1759 
z
M 3341 1997 
L 3341 0 
L 2766 0 
L 2766 531 
Q 2569 213 2275 61 
Q 1981 -91 1556 -91 
Q 1019 -91 701 211 
Q 384 513 384 1019 
Q 384 1609 779 1909 
Q 1175 2209 1959 2209 
L 2766 2209 
L 2766 2266 
Q 2766 2663 2505 2880 
Q 2244 3097 1772 3097 
Q 1472 3097 1187 3025 
Q 903 2953 641 2809 
L 641 3341 
Q 956 3463 1253 3523 
Q 1550 3584 1831 3584 
Q 2591 3584 2966 3190 
Q 3341 2797 3341 1997 
z
" transform="scale(0.015625)"/>
       <path id="DejaVuSans-78" d="M 3513 3500 
L 2247 1797 
L 3578 0 
L 2900 0 
L 1881 1375 
L 863 0 
L 184 0 
L 1544 1831 
L 300 3500 
L 978 3500 
L 1906 2253 
L 2834 3500 
L 3513 3500 
z
" transform="scale(0.015625)"/>
       <path id="DejaVuSans-20" transform="scale(0.015625)"/>
       <path id="DejaVuSans-64" d="M 2906 2969 
L 2906 4863 
L 3481 4863 
L 3481 0 
L 2906 0 
L 2906 525 
Q 2725 213 2448 61 
Q 2172 -91 1784 -91 
Q 1150 -91 751 415 
Q 353 922 353 1747 
Q 353 2572 751 3078 
Q 1150 3584 1784 3584 
Q 2172 3584 2448 3432 
Q 2725 3281 2906 2969 
z
M 947 1747 
Q 947 1113 1208 752 
Q 1469 391 1925 391 
Q 2381 391 2643 752 
Q 2906 1113 2906 1747 
Q 2906 2381 2643 2742 
Q 2381 3103 1925 3103 
Q 1469 3103 1208 2742 
Q 947 2381 947 1747 
z
" transform="scale(0.015625)"/>
       <path id="DejaVuSans-65" d="M 3597 1894 
L 3597 1613 
L 953 1613 
Q 991 1019 1311 708 
Q 1631 397 2203 397 
Q 2534 397 2845 478 
Q 3156 559 3463 722 
L 3463 178 
Q 3153 47 2828 -22 
Q 2503 -91 2169 -91 
Q 1331 -91 842 396 
Q 353 884 353 1716 
Q 353 2575 817 3079 
Q 1281 3584 2069 3584 
Q 2775 3584 3186 3129 
Q 3597 2675 3597 1894 
z
M 3022 2063 
Q 3016 2534 2758 2815 
Q 2500 3097 2075 3097 
Q 1594 3097 1305 2825 
Q 1016 2553 972 2059 
L 3022 2063 
z
" transform="scale(0.015625)"/>
       <path id="DejaVuSans-70" d="M 1159 525 
L 1159 -1331 
L 581 -1331 
L 581 3500 
L 1159 3500 
L 1159 2969 
Q 1341 3281 1617 3432 
Q 1894 3584 2278 3584 
Q 2916 3584 3314 3078 
Q 3713 2572 3713 1747 
Q 3713 922 3314 415 
Q 2916 -91 2278 -91 
Q 1894 -91 1617 61 
Q 1341 213 1159 525 
z
M 3116 1747 
Q 3116 2381 2855 2742 
Q 2594 3103 2138 3103 
Q 1681 3103 1420 2742 
Q 1159 2381 1159 1747 
Q 1159 1113 1420 752 
Q 1681 391 2138 391 
Q 2594 391 2855 752 
Q 3116 1113 3116 1747 
z
" transform="scale(0.015625)"/>
       <path id="DejaVuSans-6f" d="M 1959 3097 
Q 1497 3097 1228 2736 
Q 959 2375 959 1747 
Q 959 1119 1226 758 
Q 1494 397 1959 397 
Q 2419 397 2687 759 
Q 2956 1122 2956 1747 
Q 2956 2369 2687 2733 
Q 2419 3097 1959 3097 
z
M 1959 3584 
Q 2709 3584 3137 3096 
Q 3566 2609 3566 1747 
Q 3566 888 3137 398 
Q 2709 -91 1959 -91 
Q 1206 -91 779 398 
Q 353 888 353 1747 
Q 353 2609 779 3096 
Q 1206 3584 1959 3584 
z
" transform="scale(0.015625)"/>
       <path id="DejaVuSans-75" d="M 544 1381 
L 544 3500 
L 1119 3500 
L 1119 1403 
Q 1119 906 1312 657 
Q 1506 409 1894 409 
Q 2359 409 2629 706 
Q 2900 1003 2900 1516 
L 2900 3500 
L 3475 3500 
L 3475 0 
L 2900 0 
L 2900 538 
Q 2691 219 2414 64 
Q 2138 -91 1772 -91 
Q 1169 -91 856 284 
Q 544 659 544 1381 
z
M 1991 3584 
L 1991 3584 
z
" transform="scale(0.015625)"/>
       <path id="DejaVuSans-6e" d="M 3513 2113 
L 3513 0 
L 2938 0 
L 2938 2094 
Q 2938 2591 2744 2837 
Q 2550 3084 2163 3084 
Q 1697 3084 1428 2787 
Q 1159 2491 1159 1978 
L 1159 0 
L 581 0 
L 581 3500 
L 1159 3500 
L 1159 2956 
Q 1366 3272 1645 3428 
Q 1925 3584 2291 3584 
Q 2894 3584 3203 3211 
Q 3513 2838 3513 2113 
z
" transform="scale(0.015625)"/>
       <path id="DejaVuSans-e7" d="M 3122 3366 
L 3122 2828 
Q 2878 2963 2633 3030 
Q 2388 3097 2138 3097 
Q 1578 3097 1268 2742 
Q 959 2388 959 1747 
Q 959 1106 1268 751 
Q 1578 397 2138 397 
Q 2388 397 2633 464 
Q 2878 531 3122 666 
L 3122 134 
Q 2881 22 2623 -34 
Q 2366 -91 2075 -91 
Q 1284 -91 818 406 
Q 353 903 353 1747 
Q 353 2603 823 3093 
Q 1294 3584 2113 3584 
Q 2378 3584 2631 3529 
Q 2884 3475 3122 3366 
z
M 2311 0 
Q 2482 -194 2566 -358 
Q 2651 -522 2651 -672 
Q 2651 -950 2463 -1092 
Q 2276 -1234 1907 -1234 
Q 1764 -1234 1628 -1215 
Q 1492 -1197 1357 -1159 
L 1357 -750 
Q 1464 -803 1579 -826 
Q 1695 -850 1842 -850 
Q 2026 -850 2120 -775 
Q 2214 -700 2214 -556 
Q 2214 -463 2146 -327 
Q 2079 -191 1939 0 
L 2311 0 
z
" transform="scale(0.015625)"/>
       <path id="DejaVuSans-2c" d="M 750 794 
L 1409 794 
L 1409 256 
L 897 -744 
L 494 -744 
L 750 256 
L 750 794 
z
" transform="scale(0.015625)"/>
       <path id="DejaVuSans-73" d="M 2834 3397 
L 2834 2853 
Q 2591 2978 2328 3040 
Q 2066 3103 1784 3103 
Q 1356 3103 1142 2972 
Q 928 2841 928 2578 
Q 928 2378 1081 2264 
Q 1234 2150 1697 2047 
L 1894 2003 
Q 2506 1872 2764 1633 
Q 3022 1394 3022 966 
Q 3022 478 2636 193 
Q 2250 -91 1575 -91 
Q 1294 -91 989 -36 
Q 684 19 347 128 
L 347 722 
Q 666 556 975 473 
Q 1284 391 1588 391 
Q 1994 391 2212 530 
Q 2431 669 2431 922 
Q 2431 1156 2273 1281 
Q 2116 1406 1581 1522 
L 1381 1569 
Q 847 1681 609 1914 
Q 372 2147 372 2553 
Q 372 3047 722 3315 
Q 1072 3584 1716 3584 
Q 2034 3584 2315 3537 
Q 2597 3491 2834 3397 
z
" transform="scale(0.015625)"/>
      </defs>
      <use xlink:href="#DejaVuSans-54"/>
      <use xlink:href="#DejaVuSans-61" transform="translate(44.583984 0)"/>
      <use xlink:href="#DejaVuSans-78" transform="translate(105.863281 0)"/>
      <use xlink:href="#DejaVuSans-61" transform="translate(165.042969 0)"/>
      <use xlink:href="#DejaVuSans-20" transform="translate(226.322266 0)"/>
      <use xlink:href="#DejaVuSans-64" transform="translate(258.109375 0)"/>
      <use xlink:href="#DejaVuSans-65" transform="translate(321.585938 0)"/>
      <use xlink:href="#DejaVuSans-20" transform="translate(383.109375 0)"/>
      <use xlink:href="#DejaVuSans-70" transform="translate(414.896484 0)"/>
      <use xlink:href="#DejaVuSans-6f" transform="translate(478.373047 0)"/>
      <use xlink:href="#DejaVuSans-75" transform="translate(539.554688 0)"/>
      <use xlink:href="#DejaVuSans-70" transform="translate(602.933594 0)"/>
      <use xlink:href="#DejaVuSans-61" transform="translate(666.410156 0)"/>
      <use xlink:href="#DejaVuSans-6e" transform="translate(727.689453 0)"/>
      <use xlink:href="#DejaVuSans-e7" transform="translate(791.068359 0)"/>
      <use xlink:href="#DejaVuSans-61" transform="translate(846.048828 0)"/>
      <use xlink:href="#DejaVuSans-2c" transform="translate(907.328125 0)"/>
      <use xlink:href="#DejaVuSans-20" transform="translate(939.115234 0)"/>
      <use xlink:href="#DejaVuSans-73" transform="translate(970.902344 0)"/>
     </g>
    </g>
   </g>
   <g id="matplotlib.axis_2">
    <g id="ytick_1">
     <g id="line2d_5">
      <path d="M 58.657429 298.651372 
L 627.156 298.651372 
" clip-path="url(#pcd9805d918)" style="fill: none; stroke: #cecdc3; stroke-opacity: 0.9; stroke-width: 0.9; stroke-linecap: square"/>
     </g>
     <g id="line2d_6"/>
     <g id="text_6">
      <!-- 0,2 -->
      <g style="fill: #6f6e69" transform="translate(35.959147 302.640552) scale(0.105 -0.105)">
       <defs>
        <path id="DejaVuSans-32" d="M 1228 531 
L 3431 531 
L 3431 0 
L 469 0 
L 469 531 
Q 828 903 1448 1529 
Q 2069 2156 2228 2338 
Q 2531 2678 2651 2914 
Q 2772 3150 2772 3378 
Q 2772 3750 2511 3984 
Q 2250 4219 1831 4219 
Q 1534 4219 1204 4116 
Q 875 4013 500 3803 
L 500 4441 
Q 881 4594 1212 4672 
Q 1544 4750 1819 4750 
Q 2544 4750 2975 4387 
Q 3406 4025 3406 3419 
Q 3406 3131 3298 2873 
Q 3191 2616 2906 2266 
Q 2828 2175 2409 1742 
Q 1991 1309 1228 531 
z
" transform="scale(0.015625)"/>
       </defs>
       <use xlink:href="#DejaVuSans-30"/>
       <use xlink:href="#DejaVuSans-2c" transform="translate(63.623047 0)"/>
       <use xlink:href="#DejaVuSans-32" transform="translate(95.410156 0)"/>
      </g>
     </g>
    </g>
    <g id="ytick_2">
     <g id="line2d_7">
      <path d="M 58.657429 264.397725 
L 627.156 264.397725 
" clip-path="url(#pcd9805d918)" style="fill: none; stroke: #cecdc3; stroke-opacity: 0.9; stroke-width: 0.9; stroke-linecap: square"/>
     </g>
     <g id="line2d_8"/>
     <g id="text_7">
      <!-- 0,4 -->
      <g style="fill: #6f6e69" transform="translate(35.959147 268.386905) scale(0.105 -0.105)">
       <defs>
        <path id="DejaVuSans-34" d="M 2419 4116 
L 825 1625 
L 2419 1625 
L 2419 4116 
z
M 2253 4666 
L 3047 4666 
L 3047 1625 
L 3713 1625 
L 3713 1100 
L 3047 1100 
L 3047 0 
L 2419 0 
L 2419 1100 
L 313 1100 
L 313 1709 
L 2253 4666 
z
" transform="scale(0.015625)"/>
       </defs>
       <use xlink:href="#DejaVuSans-30"/>
       <use xlink:href="#DejaVuSans-2c" transform="translate(63.623047 0)"/>
       <use xlink:href="#DejaVuSans-34" transform="translate(95.410156 0)"/>
      </g>
     </g>
    </g>
    <g id="ytick_3">
     <g id="line2d_9">
      <path d="M 58.657429 230.144078 
L 627.156 230.144078 
" clip-path="url(#pcd9805d918)" style="fill: none; stroke: #cecdc3; stroke-opacity: 0.9; stroke-width: 0.9; stroke-linecap: square"/>
     </g>
     <g id="line2d_10"/>
     <g id="text_8">
      <!-- 0,6 -->
      <g style="fill: #6f6e69" transform="translate(35.959147 234.133257) scale(0.105 -0.105)">
       <defs>
        <path id="DejaVuSans-36" d="M 2113 2584 
Q 1688 2584 1439 2293 
Q 1191 2003 1191 1497 
Q 1191 994 1439 701 
Q 1688 409 2113 409 
Q 2538 409 2786 701 
Q 3034 994 3034 1497 
Q 3034 2003 2786 2293 
Q 2538 2584 2113 2584 
z
M 3366 4563 
L 3366 3988 
Q 3128 4100 2886 4159 
Q 2644 4219 2406 4219 
Q 1781 4219 1451 3797 
Q 1122 3375 1075 2522 
Q 1259 2794 1537 2939 
Q 1816 3084 2150 3084 
Q 2853 3084 3261 2657 
Q 3669 2231 3669 1497 
Q 3669 778 3244 343 
Q 2819 -91 2113 -91 
Q 1303 -91 875 529 
Q 447 1150 447 2328 
Q 447 3434 972 4092 
Q 1497 4750 2381 4750 
Q 2619 4750 2861 4703 
Q 3103 4656 3366 4563 
z
" transform="scale(0.015625)"/>
       </defs>
       <use xlink:href="#DejaVuSans-30"/>
       <use xlink:href="#DejaVuSans-2c" transform="translate(63.623047 0)"/>
       <use xlink:href="#DejaVuSans-36" transform="translate(95.410156 0)"/>
      </g>
     </g>
    </g>
    <g id="ytick_4">
     <g id="line2d_11">
      <path d="M 58.657429 195.890431 
L 627.156 195.890431 
" clip-path="url(#pcd9805d918)" style="fill: none; stroke: #cecdc3; stroke-opacity: 0.9; stroke-width: 0.9; stroke-linecap: square"/>
     </g>
     <g id="line2d_12"/>
     <g id="text_9">
      <!-- 0,8 -->
      <g style="fill: #6f6e69" transform="translate(35.959147 199.87961) scale(0.105 -0.105)">
       <defs>
        <path id="DejaVuSans-38" d="M 2034 2216 
Q 1584 2216 1326 1975 
Q 1069 1734 1069 1313 
Q 1069 891 1326 650 
Q 1584 409 2034 409 
Q 2484 409 2743 651 
Q 3003 894 3003 1313 
Q 3003 1734 2745 1975 
Q 2488 2216 2034 2216 
z
M 1403 2484 
Q 997 2584 770 2862 
Q 544 3141 544 3541 
Q 544 4100 942 4425 
Q 1341 4750 2034 4750 
Q 2731 4750 3128 4425 
Q 3525 4100 3525 3541 
Q 3525 3141 3298 2862 
Q 3072 2584 2669 2484 
Q 3125 2378 3379 2068 
Q 3634 1759 3634 1313 
Q 3634 634 3220 271 
Q 2806 -91 2034 -91 
Q 1263 -91 848 271 
Q 434 634 434 1313 
Q 434 1759 690 2068 
Q 947 2378 1403 2484 
z
M 1172 3481 
Q 1172 3119 1398 2916 
Q 1625 2713 2034 2713 
Q 2441 2713 2670 2916 
Q 2900 3119 2900 3481 
Q 2900 3844 2670 4047 
Q 2441 4250 2034 4250 
Q 1625 4250 1398 4047 
Q 1172 3844 1172 3481 
z
" transform="scale(0.015625)"/>
       </defs>
       <use xlink:href="#DejaVuSans-30"/>
       <use xlink:href="#DejaVuSans-2c" transform="translate(63.623047 0)"/>
       <use xlink:href="#DejaVuSans-38" transform="translate(95.410156 0)"/>
      </g>
     </g>
    </g>
    <g id="ytick_5">
     <g id="line2d_13">
      <path d="M 58.657429 161.636783 
L 627.156 161.636783 
" clip-path="url(#pcd9805d918)" style="fill: none; stroke: #cecdc3; stroke-opacity: 0.9; stroke-width: 0.9; stroke-linecap: square"/>
     </g>
     <g id="line2d_14"/>
     <g id="text_10">
      <!-- 1 -->
      <g style="fill: #6f6e69" transform="translate(45.976804 165.625963) scale(0.105 -0.105)">
       <use xlink:href="#DejaVuSans-31"/>
      </g>
     </g>
    </g>
    <g id="ytick_6">
     <g id="line2d_15">
      <path d="M 58.657429 127.383136 
L 627.156 127.383136 
" clip-path="url(#pcd9805d918)" style="fill: none; stroke: #cecdc3; stroke-opacity: 0.9; stroke-width: 0.9; stroke-linecap: square"/>
     </g>
     <g id="line2d_16"/>
     <g id="text_11">
      <!-- 1,2 -->
      <g style="fill: #6f6e69" transform="translate(35.959147 131.372316) scale(0.105 -0.105)">
       <use xlink:href="#DejaVuSans-31"/>
       <use xlink:href="#DejaVuSans-2c" transform="translate(63.623047 0)"/>
       <use xlink:href="#DejaVuSans-32" transform="translate(95.410156 0)"/>
      </g>
     </g>
    </g>
    <g id="ytick_7">
     <g id="line2d_17">
      <path d="M 58.657429 93.129489 
L 627.156 93.129489 
" clip-path="url(#pcd9805d918)" style="fill: none; stroke: #cecdc3; stroke-opacity: 0.9; stroke-width: 0.9; stroke-linecap: square"/>
     </g>
     <g id="line2d_18"/>
     <g id="text_12">
      <!-- 1,4 -->
      <g style="fill: #6f6e69" transform="translate(35.959147 97.118669) scale(0.105 -0.105)">
       <use xlink:href="#DejaVuSans-31"/>
       <use xlink:href="#DejaVuSans-2c" transform="translate(63.623047 0)"/>
       <use xlink:href="#DejaVuSans-34" transform="translate(95.410156 0)"/>
      </g>
     </g>
    </g>
    <g id="text_13">
     <!-- Consumo de estado estacionário -->
     <g style="fill: #1c1b1a" transform="translate(23.775475 289.237602) rotate(-90) scale(0.105 -0.105)">
      <defs>
       <path id="DejaVuSans-43" d="M 4122 4306 
L 4122 3641 
Q 3803 3938 3442 4084 
Q 3081 4231 2675 4231 
Q 1875 4231 1450 3742 
Q 1025 3253 1025 2328 
Q 1025 1406 1450 917 
Q 1875 428 2675 428 
Q 3081 428 3442 575 
Q 3803 722 4122 1019 
L 4122 359 
Q 3791 134 3420 21 
Q 3050 -91 2638 -91 
Q 1578 -91 968 557 
Q 359 1206 359 2328 
Q 359 3453 968 4101 
Q 1578 4750 2638 4750 
Q 3056 4750 3426 4639 
Q 3797 4528 4122 4306 
z
" transform="scale(0.015625)"/>
       <path id="DejaVuSans-6d" d="M 3328 2828 
Q 3544 3216 3844 3400 
Q 4144 3584 4550 3584 
Q 5097 3584 5394 3201 
Q 5691 2819 5691 2113 
L 5691 0 
L 5113 0 
L 5113 2094 
Q 5113 2597 4934 2840 
Q 4756 3084 4391 3084 
Q 3944 3084 3684 2787 
Q 3425 2491 3425 1978 
L 3425 0 
L 2847 0 
L 2847 2094 
Q 2847 2600 2669 2842 
Q 2491 3084 2119 3084 
Q 1678 3084 1418 2786 
Q 1159 2488 1159 1978 
L 1159 0 
L 581 0 
L 581 3500 
L 1159 3500 
L 1159 2956 
Q 1356 3278 1631 3431 
Q 1906 3584 2284 3584 
Q 2666 3584 2933 3390 
Q 3200 3197 3328 2828 
z
" transform="scale(0.015625)"/>
       <path id="DejaVuSans-74" d="M 1172 4494 
L 1172 3500 
L 2356 3500 
L 2356 3053 
L 1172 3053 
L 1172 1153 
Q 1172 725 1289 603 
Q 1406 481 1766 481 
L 2356 481 
L 2356 0 
L 1766 0 
Q 1100 0 847 248 
Q 594 497 594 1153 
L 594 3053 
L 172 3053 
L 172 3500 
L 594 3500 
L 594 4494 
L 1172 4494 
z
" transform="scale(0.015625)"/>
       <path id="DejaVuSans-63" d="M 3122 3366 
L 3122 2828 
Q 2878 2963 2633 3030 
Q 2388 3097 2138 3097 
Q 1578 3097 1268 2742 
Q 959 2388 959 1747 
Q 959 1106 1268 751 
Q 1578 397 2138 397 
Q 2388 397 2633 464 
Q 2878 531 3122 666 
L 3122 134 
Q 2881 22 2623 -34 
Q 2366 -91 2075 -91 
Q 1284 -91 818 406 
Q 353 903 353 1747 
Q 353 2603 823 3093 
Q 1294 3584 2113 3584 
Q 2378 3584 2631 3529 
Q 2884 3475 3122 3366 
z
" transform="scale(0.015625)"/>
       <path id="DejaVuSans-69" d="M 603 3500 
L 1178 3500 
L 1178 0 
L 603 0 
L 603 3500 
z
M 603 4863 
L 1178 4863 
L 1178 4134 
L 603 4134 
L 603 4863 
z
" transform="scale(0.015625)"/>
       <path id="DejaVuSans-e1" d="M 2194 1759 
Q 1497 1759 1228 1600 
Q 959 1441 959 1056 
Q 959 750 1161 570 
Q 1363 391 1709 391 
Q 2188 391 2477 730 
Q 2766 1069 2766 1631 
L 2766 1759 
L 2194 1759 
z
M 3341 1997 
L 3341 0 
L 2766 0 
L 2766 531 
Q 2569 213 2275 61 
Q 1981 -91 1556 -91 
Q 1019 -91 701 211 
Q 384 513 384 1019 
Q 384 1609 779 1909 
Q 1175 2209 1959 2209 
L 2766 2209 
L 2766 2266 
Q 2766 2663 2505 2880 
Q 2244 3097 1772 3097 
Q 1472 3097 1187 3025 
Q 903 2953 641 2809 
L 641 3341 
Q 956 3463 1253 3523 
Q 1550 3584 1831 3584 
Q 2591 3584 2966 3190 
Q 3341 2797 3341 1997 
z
M 2290 5119 
L 2912 5119 
L 1894 3944 
L 1415 3944 
L 2290 5119 
z
" transform="scale(0.015625)"/>
       <path id="DejaVuSans-72" d="M 2631 2963 
Q 2534 3019 2420 3045 
Q 2306 3072 2169 3072 
Q 1681 3072 1420 2755 
Q 1159 2438 1159 1844 
L 1159 0 
L 581 0 
L 581 3500 
L 1159 3500 
L 1159 2956 
Q 1341 3275 1631 3429 
Q 1922 3584 2338 3584 
Q 2397 3584 2469 3576 
Q 2541 3569 2628 3553 
L 2631 2963 
z
" transform="scale(0.015625)"/>
      </defs>
      <use xlink:href="#DejaVuSans-43"/>
      <use xlink:href="#DejaVuSans-6f" transform="translate(69.824219 0)"/>
      <use xlink:href="#DejaVuSans-6e" transform="translate(131.005859 0)"/>
      <use xlink:href="#DejaVuSans-73" transform="translate(194.384766 0)"/>
      <use xlink:href="#DejaVuSans-75" transform="translate(246.484375 0)"/>
      <use xlink:href="#DejaVuSans-6d" transform="translate(309.863281 0)"/>
      <use xlink:href="#DejaVuSans-6f" transform="translate(407.275391 0)"/>
      <use xlink:href="#DejaVuSans-20" transform="translate(468.457031 0)"/>
      <use xlink:href="#DejaVuSans-64" transform="translate(500.244141 0)"/>
      <use xlink:href="#DejaVuSans-65" transform="translate(563.720703 0)"/>
      <use xlink:href="#DejaVuSans-20" transform="translate(625.244141 0)"/>
      <use xlink:href="#DejaVuSans-65" transform="translate(657.03125 0)"/>
      <use xlink:href="#DejaVuSans-73" transform="translate(718.554688 0)"/>
      <use xlink:href="#DejaVuSans-74" transform="translate(770.654297 0)"/>
      <use xlink:href="#DejaVuSans-61" transform="translate(809.863281 0)"/>
      <use xlink:href="#DejaVuSans-64" transform="translate(871.142578 0)"/>
      <use xlink:href="#DejaVuSans-6f" transform="translate(934.619141 0)"/>
      <use xlink:href="#DejaVuSans-20" transform="translate(995.800781 0)"/>
      <use xlink:href="#DejaVuSans-65" transform="translate(1027.587891 0)"/>
      <use xlink:href="#DejaVuSans-73" transform="translate(1089.111328 0)"/>
      <use xlink:href="#DejaVuSans-74" transform="translate(1141.210938 0)"/>
      <use xlink:href="#DejaVuSans-61" transform="translate(1180.419922 0)"/>
      <use xlink:href="#DejaVuSans-63" transform="translate(1241.699219 0)"/>
      <use xlink:href="#DejaVuSans-69" transform="translate(1296.679688 0)"/>
      <use xlink:href="#DejaVuSans-6f" transform="translate(1324.462891 0)"/>
      <use xlink:href="#DejaVuSans-6e" transform="translate(1385.644531 0)"/>
      <use xlink:href="#DejaVuSans-e1" transform="translate(1449.023438 0)"/>
      <use xlink:href="#DejaVuSans-72" transform="translate(1510.302734 0)"/>
      <use xlink:href="#DejaVuSans-69" transform="translate(1551.416016 0)"/>
      <use xlink:href="#DejaVuSans-6f" transform="translate(1579.199219 0)"/>
     </g>
    </g>
   </g>
   <g id="line2d_19">
    <path d="M 84.498273 203.823603 
L 87.369478 198.331575 
L 90.240683 193.182088 
L 93.111887 188.336717 
L 95.983092 183.764183 
L 98.854297 179.438598 
L 101.725502 175.338242 
L 104.596707 171.444664 
L 110.339117 164.216609 
L 116.081527 157.650923 
L 121.823937 151.667611 
L 127.566346 146.203233 
L 133.308756 141.206405 
L 139.051166 136.634759 
L 144.793576 132.452835 
L 150.535986 128.630567 
L 156.278395 125.142177 
L 162.020805 121.965343 
L 167.763215 119.080566 
L 173.505625 116.470684 
L 179.248035 114.120482 
L 184.990444 112.016392 
L 190.732854 110.146242 
L 196.475264 108.499057 
L 202.217674 107.064896 
L 207.960084 105.834713 
L 213.702494 104.800246 
L 219.444903 103.953922 
L 225.187313 103.288773 
L 230.929723 102.79837 
L 236.672133 102.476762 
L 242.414543 102.318428 
L 248.156952 102.318228 
L 253.899362 102.471372 
L 262.512977 102.978886 
L 271.126592 103.807463 
L 279.740206 104.944399 
L 288.353821 106.378082 
L 296.967436 108.097856 
L 305.581051 110.093904 
L 314.194665 112.357159 
L 322.80828 114.87922 
L 331.421895 117.652276 
L 340.035509 120.669055 
L 348.649124 123.922762 
L 357.262739 127.407038 
L 365.876354 131.115917 
L 374.489968 135.043792 
L 383.103583 139.185382 
L 391.717198 143.535704 
L 400.330812 148.090052 
L 408.944427 152.843968 
L 417.558042 157.793227 
L 429.042861 164.689203 
L 440.527681 171.916381 
L 452.012501 179.466361 
L 463.49732 187.331252 
L 474.98214 195.503635 
L 486.46696 203.976512 
L 497.951779 212.743277 
L 509.436599 221.797679 
L 520.921418 231.133796 
L 532.406238 240.74601 
L 543.891058 250.628979 
L 555.375877 260.777622 
L 566.860697 271.187095 
L 578.345517 281.852779 
L 589.830336 292.770261 
L 601.315156 303.93532 
L 601.315156 303.93532 
" clip-path="url(#pcd9805d918)" style="fill: none; stroke: #879a39; stroke-width: 2.4; stroke-linecap: square"/>
   </g>
   <g id="line2d_20">
    <path d="M 170.63442 314.017143 
L 170.63442 92.217046 
" clip-path="url(#pcd9805d918)" style="fill: none; stroke-dasharray: 4.44,1.92; stroke-dashoffset: 0; stroke: #3aa99f; stroke-width: 1.2"/>
   </g>
   <g id="line2d_21">
    <path d="M 245.285747 314.017143 
L 245.285747 92.217046 
" clip-path="url(#pcd9805d918)" style="fill: none; stroke-dasharray: 4.44,1.92; stroke-dashoffset: 0; stroke: #da702c; stroke-width: 1.2"/>
   </g>
   <g id="patch_3">
    <path d="M 58.657429 314.017143 
L 58.657429 92.217046 
" style="fill: none; stroke: #cecdc3; stroke-width: 0.8; stroke-linejoin: miter; stroke-linecap: square"/>
   </g>
   <g id="patch_4">
    <path d="M 58.657429 314.017143 
L 627.156 314.017143 
" style="fill: none; stroke: #cecdc3; stroke-width: 0.8; stroke-linejoin: miter; stroke-linecap: square"/>
   </g>
   <g id="text_14">
    <!-- Poupança atual -->
    <g style="fill: #3aa99f" transform="translate(178.63442 133.742256) scale(0.105 -0.105)">
     <defs>
      <path id="DejaVuSans-50" d="M 1259 4147 
L 1259 2394 
L 2053 2394 
Q 2494 2394 2734 2622 
Q 2975 2850 2975 3272 
Q 2975 3691 2734 3919 
Q 2494 4147 2053 4147 
L 1259 4147 
z
M 628 4666 
L 2053 4666 
Q 2838 4666 3239 4311 
Q 3641 3956 3641 3272 
Q 3641 2581 3239 2228 
Q 2838 1875 2053 1875 
L 1259 1875 
L 1259 0 
L 628 0 
L 628 4666 
z
" transform="scale(0.015625)"/>
      <path id="DejaVuSans-6c" d="M 603 4863 
L 1178 4863 
L 1178 0 
L 603 0 
L 603 4863 
z
" transform="scale(0.015625)"/>
     </defs>
     <use xlink:href="#DejaVuSans-50"/>
     <use xlink:href="#DejaVuSans-6f" transform="translate(56.677734 0)"/>
     <use xlink:href="#DejaVuSans-75" transform="translate(117.859375 0)"/>
     <use xlink:href="#DejaVuSans-70" transform="translate(181.238281 0)"/>
     <use xlink:href="#DejaVuSans-61" transform="translate(244.714844 0)"/>
     <use xlink:href="#DejaVuSans-6e" transform="translate(305.994141 0)"/>
     <use xlink:href="#DejaVuSans-e7" transform="translate(369.373047 0)"/>
     <use xlink:href="#DejaVuSans-61" transform="translate(424.353516 0)"/>
     <use xlink:href="#DejaVuSans-20" transform="translate(485.632812 0)"/>
     <use xlink:href="#DejaVuSans-61" transform="translate(517.419922 0)"/>
     <use xlink:href="#DejaVuSans-74" transform="translate(578.699219 0)"/>
     <use xlink:href="#DejaVuSans-75" transform="translate(617.908203 0)"/>
     <use xlink:href="#DejaVuSans-61" transform="translate(681.287109 0)"/>
     <use xlink:href="#DejaVuSans-6c" transform="translate(742.566406 0)"/>
    </g>
   </g>
   <g id="text_15">
    <!-- Regra de Ouro -->
    <g style="fill: #da702c" transform="translate(253.285747 94.298868) scale(0.105 -0.105)">
     <defs>
      <path id="DejaVuSans-52" d="M 2841 2188 
Q 3044 2119 3236 1894 
Q 3428 1669 3622 1275 
L 4263 0 
L 3584 0 
L 2988 1197 
Q 2756 1666 2539 1819 
Q 2322 1972 1947 1972 
L 1259 1972 
L 1259 0 
L 628 0 
L 628 4666 
L 2053 4666 
Q 2853 4666 3247 4331 
Q 3641 3997 3641 3322 
Q 3641 2881 3436 2590 
Q 3231 2300 2841 2188 
z
M 1259 4147 
L 1259 2491 
L 2053 2491 
Q 2509 2491 2742 2702 
Q 2975 2913 2975 3322 
Q 2975 3731 2742 3939 
Q 2509 4147 2053 4147 
L 1259 4147 
z
" transform="scale(0.015625)"/>
      <path id="DejaVuSans-67" d="M 2906 1791 
Q 2906 2416 2648 2759 
Q 2391 3103 1925 3103 
Q 1463 3103 1205 2759 
Q 947 2416 947 1791 
Q 947 1169 1205 825 
Q 1463 481 1925 481 
Q 2391 481 2648 825 
Q 2906 1169 2906 1791 
z
M 3481 434 
Q 3481 -459 3084 -895 
Q 2688 -1331 1869 -1331 
Q 1566 -1331 1297 -1286 
Q 1028 -1241 775 -1147 
L 775 -588 
Q 1028 -725 1275 -790 
Q 1522 -856 1778 -856 
Q 2344 -856 2625 -561 
Q 2906 -266 2906 331 
L 2906 616 
Q 2728 306 2450 153 
Q 2172 0 1784 0 
Q 1141 0 747 490 
Q 353 981 353 1791 
Q 353 2603 747 3093 
Q 1141 3584 1784 3584 
Q 2172 3584 2450 3431 
Q 2728 3278 2906 2969 
L 2906 3500 
L 3481 3500 
L 3481 434 
z
" transform="scale(0.015625)"/>
      <path id="DejaVuSans-4f" d="M 2522 4238 
Q 1834 4238 1429 3725 
Q 1025 3213 1025 2328 
Q 1025 1447 1429 934 
Q 1834 422 2522 422 
Q 3209 422 3611 934 
Q 4013 1447 4013 2328 
Q 4013 3213 3611 3725 
Q 3209 4238 2522 4238 
z
M 2522 4750 
Q 3503 4750 4090 4092 
Q 4678 3434 4678 2328 
Q 4678 1225 4090 567 
Q 3503 -91 2522 -91 
Q 1538 -91 948 565 
Q 359 1222 359 2328 
Q 359 3434 948 4092 
Q 1538 4750 2522 4750 
z
" transform="scale(0.015625)"/>
     </defs>
     <use xlink:href="#DejaVuSans-52"/>
     <use xlink:href="#DejaVuSans-65" transform="translate(64.982422 0)"/>
     <use xlink:href="#DejaVuSans-67" transform="translate(126.505859 0)"/>
     <use xlink:href="#DejaVuSans-72" transform="translate(189.982422 0)"/>
     <use xlink:href="#DejaVuSans-61" transform="translate(231.095703 0)"/>
     <use xlink:href="#DejaVuSans-20" transform="translate(292.375 0)"/>
     <use xlink:href="#DejaVuSans-64" transform="translate(324.162109 0)"/>
     <use xlink:href="#DejaVuSans-65" transform="translate(387.638672 0)"/>
     <use xlink:href="#DejaVuSans-20" transform="translate(449.162109 0)"/>
     <use xlink:href="#DejaVuSans-4f" transform="translate(480.949219 0)"/>
     <use xlink:href="#DejaVuSans-75" transform="translate(559.660156 0)"/>
     <use xlink:href="#DejaVuSans-72" transform="translate(623.039062 0)"/>
     <use xlink:href="#DejaVuSans-6f" transform="translate(661.902344 0)"/>
    </g>
   </g>
   <g id="PathCollection_1">
    <defs>
     <path id="mdbbc2c58df" d="M 0 3 
C 0.795609 3 1.55874 2.683901 2.12132 2.12132 
C 2.683901 1.55874 3 0.795609 3 0 
C 3 -0.795609 2.683901 -1.55874 2.12132 -2.12132 
C 1.55874 -2.683901 0.795609 -3 0 -3 
C -0.795609 -3 -1.55874 -2.683901 -2.12132 -2.12132 
C -2.683901 -1.55874 -3 -0.795609 -3 0 
C -3 0.795609 -2.683901 1.55874 -2.12132 2.12132 
C -1.55874 2.683901 -0.795609 3 0 3 
z
" style="stroke: #3aa99f; stroke-width: 0.6"/>
    </defs>
    <g clip-path="url(#pcd9805d918)">
     <use xlink:href="#mdbbc2c58df" x="170.63442" y="117.742256" style="fill: #3aa99f; stroke: #3aa99f; stroke-width: 0.6"/>
    </g>
   </g>
   <g id="PathCollection_2">
    <defs>
     <path id="mb239053248" d="M 0 3 
C 0.795609 3 1.55874 2.683901 2.12132 2.12132 
C 2.683901 1.55874 3 0.795609 3 0 
C 3 -0.795609 2.683901 -1.55874 2.12132 -2.12132 
C 1.55874 -2.683901 0.795609 -3 0 -3 
C -0.795609 -3 -1.55874 -2.683901 -2.12132 -2.12132 
C -2.683901 -1.55874 -3 -0.795609 -3 0 
C -3 0.795609 -2.683901 1.55874 -2.12132 2.12132 
C -1.55874 2.683901 -0.795609 3 0 3 
z
" style="stroke: #da702c; stroke-width: 0.6"/>
    </defs>
    <g clip-path="url(#pcd9805d918)">
     <use xlink:href="#mb239053248" x="245.285747" y="102.298868" style="fill: #da702c; stroke: #da702c; stroke-width: 0.6"/>
    </g>
   </g>
  </g>
  <g id="text_16">
   <!-- Curva da Regra de Ouro -->
   <g style="fill: #1c1b1a" transform="translate(14.4 26.5575) scale(0.16 -0.16)">
    <defs>
     <path id="DejaVuSans-Bold-43" d="M 4288 256 
Q 3956 84 3597 -3 
Q 3238 -91 2847 -91 
Q 1681 -91 1000 561 
Q 319 1213 319 2328 
Q 319 3447 1000 4098 
Q 1681 4750 2847 4750 
Q 3238 4750 3597 4662 
Q 3956 4575 4288 4403 
L 4288 3438 
Q 3953 3666 3628 3772 
Q 3303 3878 2944 3878 
Q 2300 3878 1931 3465 
Q 1563 3053 1563 2328 
Q 1563 1606 1931 1193 
Q 2300 781 2944 781 
Q 3303 781 3628 887 
Q 3953 994 4288 1222 
L 4288 256 
z
" transform="scale(0.015625)"/>
     <path id="DejaVuSans-Bold-75" d="M 500 1363 
L 500 3500 
L 1625 3500 
L 1625 3150 
Q 1625 2866 1622 2436 
Q 1619 2006 1619 1863 
Q 1619 1441 1641 1255 
Q 1663 1069 1716 984 
Q 1784 875 1895 815 
Q 2006 756 2150 756 
Q 2500 756 2700 1025 
Q 2900 1294 2900 1772 
L 2900 3500 
L 4019 3500 
L 4019 0 
L 2900 0 
L 2900 506 
Q 2647 200 2364 54 
Q 2081 -91 1741 -91 
Q 1134 -91 817 281 
Q 500 653 500 1363 
z
" transform="scale(0.015625)"/>
     <path id="DejaVuSans-Bold-72" d="M 3138 2547 
Q 2991 2616 2845 2648 
Q 2700 2681 2553 2681 
Q 2122 2681 1889 2404 
Q 1656 2128 1656 1613 
L 1656 0 
L 538 0 
L 538 3500 
L 1656 3500 
L 1656 2925 
Q 1872 3269 2151 3426 
Q 2431 3584 2822 3584 
Q 2878 3584 2943 3579 
Q 3009 3575 3134 3559 
L 3138 2547 
z
" transform="scale(0.015625)"/>
     <path id="DejaVuSans-Bold-76" d="M 97 3500 
L 1216 3500 
L 2088 1081 
L 2956 3500 
L 4078 3500 
L 2700 0 
L 1472 0 
L 97 3500 
z
" transform="scale(0.015625)"/>
     <path id="DejaVuSans-Bold-61" d="M 2106 1575 
Q 1756 1575 1579 1456 
Q 1403 1338 1403 1106 
Q 1403 894 1545 773 
Q 1688 653 1941 653 
Q 2256 653 2472 879 
Q 2688 1106 2688 1447 
L 2688 1575 
L 2106 1575 
z
M 3816 1997 
L 3816 0 
L 2688 0 
L 2688 519 
Q 2463 200 2181 54 
Q 1900 -91 1497 -91 
Q 953 -91 614 226 
Q 275 544 275 1050 
Q 275 1666 698 1953 
Q 1122 2241 2028 2241 
L 2688 2241 
L 2688 2328 
Q 2688 2594 2478 2717 
Q 2269 2841 1825 2841 
Q 1466 2841 1156 2769 
Q 847 2697 581 2553 
L 581 3406 
Q 941 3494 1303 3539 
Q 1666 3584 2028 3584 
Q 2975 3584 3395 3211 
Q 3816 2838 3816 1997 
z
" transform="scale(0.015625)"/>
     <path id="DejaVuSans-Bold-20" transform="scale(0.015625)"/>
     <path id="DejaVuSans-Bold-64" d="M 2919 2988 
L 2919 4863 
L 4044 4863 
L 4044 0 
L 2919 0 
L 2919 506 
Q 2688 197 2409 53 
Q 2131 -91 1766 -91 
Q 1119 -91 703 423 
Q 288 938 288 1747 
Q 288 2556 703 3070 
Q 1119 3584 1766 3584 
Q 2128 3584 2408 3439 
Q 2688 3294 2919 2988 
z
M 2181 722 
Q 2541 722 2730 984 
Q 2919 1247 2919 1747 
Q 2919 2247 2730 2509 
Q 2541 2772 2181 2772 
Q 1825 2772 1636 2509 
Q 1447 2247 1447 1747 
Q 1447 1247 1636 984 
Q 1825 722 2181 722 
z
" transform="scale(0.015625)"/>
     <path id="DejaVuSans-Bold-52" d="M 2297 2597 
Q 2675 2597 2839 2737 
Q 3003 2878 3003 3200 
Q 3003 3519 2839 3656 
Q 2675 3794 2297 3794 
L 1791 3794 
L 1791 2597 
L 2297 2597 
z
M 1791 1766 
L 1791 0 
L 588 0 
L 588 4666 
L 2425 4666 
Q 3347 4666 3776 4356 
Q 4206 4047 4206 3378 
Q 4206 2916 3982 2619 
Q 3759 2322 3309 2181 
Q 3556 2125 3751 1926 
Q 3947 1728 4147 1325 
L 4800 0 
L 3519 0 
L 2950 1159 
Q 2778 1509 2601 1637 
Q 2425 1766 2131 1766 
L 1791 1766 
z
" transform="scale(0.015625)"/>
     <path id="DejaVuSans-Bold-65" d="M 4031 1759 
L 4031 1441 
L 1416 1441 
Q 1456 1047 1700 850 
Q 1944 653 2381 653 
Q 2734 653 3104 758 
Q 3475 863 3866 1075 
L 3866 213 
Q 3469 63 3072 -14 
Q 2675 -91 2278 -91 
Q 1328 -91 801 392 
Q 275 875 275 1747 
Q 275 2603 792 3093 
Q 1309 3584 2216 3584 
Q 3041 3584 3536 3087 
Q 4031 2591 4031 1759 
z
M 2881 2131 
Q 2881 2450 2695 2645 
Q 2509 2841 2209 2841 
Q 1884 2841 1681 2658 
Q 1478 2475 1428 2131 
L 2881 2131 
z
" transform="scale(0.015625)"/>
     <path id="DejaVuSans-Bold-67" d="M 2919 594 
Q 2688 288 2409 144 
Q 2131 0 1766 0 
Q 1125 0 706 504 
Q 288 1009 288 1791 
Q 288 2575 706 3076 
Q 1125 3578 1766 3578 
Q 2131 3578 2409 3434 
Q 2688 3291 2919 2981 
L 2919 3500 
L 4044 3500 
L 4044 353 
Q 4044 -491 3511 -936 
Q 2978 -1381 1966 -1381 
Q 1638 -1381 1331 -1331 
Q 1025 -1281 716 -1178 
L 716 -306 
Q 1009 -475 1290 -558 
Q 1572 -641 1856 -641 
Q 2406 -641 2662 -400 
Q 2919 -159 2919 353 
L 2919 594 
z
M 2181 2772 
Q 1834 2772 1640 2515 
Q 1447 2259 1447 1791 
Q 1447 1309 1634 1061 
Q 1822 813 2181 813 
Q 2531 813 2725 1069 
Q 2919 1325 2919 1791 
Q 2919 2259 2725 2515 
Q 2531 2772 2181 2772 
z
" transform="scale(0.015625)"/>
     <path id="DejaVuSans-Bold-4f" d="M 2719 3878 
Q 2169 3878 1866 3472 
Q 1563 3066 1563 2328 
Q 1563 1594 1866 1187 
Q 2169 781 2719 781 
Q 3272 781 3575 1187 
Q 3878 1594 3878 2328 
Q 3878 3066 3575 3472 
Q 3272 3878 2719 3878 
z
M 2719 4750 
Q 3844 4750 4481 4106 
Q 5119 3463 5119 2328 
Q 5119 1197 4481 553 
Q 3844 -91 2719 -91 
Q 1597 -91 958 553 
Q 319 1197 319 2328 
Q 319 3463 958 4106 
Q 1597 4750 2719 4750 
z
" transform="scale(0.015625)"/>
     <path id="DejaVuSans-Bold-6f" d="M 2203 2784 
Q 1831 2784 1636 2517 
Q 1441 2250 1441 1747 
Q 1441 1244 1636 976 
Q 1831 709 2203 709 
Q 2569 709 2762 976 
Q 2956 1244 2956 1747 
Q 2956 2250 2762 2517 
Q 2569 2784 2203 2784 
z
M 2203 3584 
Q 3106 3584 3614 3096 
Q 4122 2609 4122 1747 
Q 4122 884 3614 396 
Q 3106 -91 2203 -91 
Q 1297 -91 786 396 
Q 275 884 275 1747 
Q 275 2609 786 3096 
Q 1297 3584 2203 3584 
z
" transform="scale(0.015625)"/>
    </defs>
    <use xlink:href="#DejaVuSans-Bold-43"/>
    <use xlink:href="#DejaVuSans-Bold-75" transform="translate(73.388672 0)"/>
    <use xlink:href="#DejaVuSans-Bold-72" transform="translate(144.580078 0)"/>
    <use xlink:href="#DejaVuSans-Bold-76" transform="translate(193.896484 0)"/>
    <use xlink:href="#DejaVuSans-Bold-61" transform="translate(259.082031 0)"/>
    <use xlink:href="#DejaVuSans-Bold-20" transform="translate(326.5625 0)"/>
    <use xlink:href="#DejaVuSans-Bold-64" transform="translate(361.376953 0)"/>
    <use xlink:href="#DejaVuSans-Bold-61" transform="translate(432.958984 0)"/>
    <use xlink:href="#DejaVuSans-Bold-20" transform="translate(500.439453 0)"/>
    <use xlink:href="#DejaVuSans-Bold-52" transform="translate(535.253906 0)"/>
    <use xlink:href="#DejaVuSans-Bold-65" transform="translate(612.255859 0)"/>
    <use xlink:href="#DejaVuSans-Bold-67" transform="translate(680.078125 0)"/>
    <use xlink:href="#DejaVuSans-Bold-72" transform="translate(751.660156 0)"/>
    <use xlink:href="#DejaVuSans-Bold-61" transform="translate(800.976562 0)"/>
    <use xlink:href="#DejaVuSans-Bold-20" transform="translate(868.457031 0)"/>
    <use xlink:href="#DejaVuSans-Bold-64" transform="translate(903.271484 0)"/>
    <use xlink:href="#DejaVuSans-Bold-65" transform="translate(974.853516 0)"/>
    <use xlink:href="#DejaVuSans-Bold-20" transform="translate(1042.675781 0)"/>
    <use xlink:href="#DejaVuSans-Bold-4f" transform="translate(1077.490234 0)"/>
    <use xlink:href="#DejaVuSans-Bold-75" transform="translate(1162.5 0)"/>
    <use xlink:href="#DejaVuSans-Bold-72" transform="translate(1233.691406 0)"/>
    <use xlink:href="#DejaVuSans-Bold-6f" transform="translate(1283.007812 0)"/>
   </g>
  </g>
  <g id="text_17">
   <!-- No caso Cobb-Douglas, a taxa de poupança que maximiza o consumo de longo prazo coincide com alpha. -->
   <g style="fill: #6f6e69" transform="translate(14.4 37.990406) scale(0.102 -0.102)">
    <defs>
     <path id="DejaVuSans-4e" d="M 628 4666 
L 1478 4666 
L 3547 763 
L 3547 4666 
L 4159 4666 
L 4159 0 
L 3309 0 
L 1241 3903 
L 1241 0 
L 628 0 
L 628 4666 
z
" transform="scale(0.015625)"/>
     <path id="DejaVuSans-62" d="M 3116 1747 
Q 3116 2381 2855 2742 
Q 2594 3103 2138 3103 
Q 1681 3103 1420 2742 
Q 1159 2381 1159 1747 
Q 1159 1113 1420 752 
Q 1681 391 2138 391 
Q 2594 391 2855 752 
Q 3116 1113 3116 1747 
z
M 1159 2969 
Q 1341 3281 1617 3432 
Q 1894 3584 2278 3584 
Q 2916 3584 3314 3078 
Q 3713 2572 3713 1747 
Q 3713 922 3314 415 
Q 2916 -91 2278 -91 
Q 1894 -91 1617 61 
Q 1341 213 1159 525 
L 1159 0 
L 581 0 
L 581 4863 
L 1159 4863 
L 1159 2969 
z
" transform="scale(0.015625)"/>
     <path id="DejaVuSans-2d" d="M 313 2009 
L 1997 2009 
L 1997 1497 
L 313 1497 
L 313 2009 
z
" transform="scale(0.015625)"/>
     <path id="DejaVuSans-44" d="M 1259 4147 
L 1259 519 
L 2022 519 
Q 2988 519 3436 956 
Q 3884 1394 3884 2338 
Q 3884 3275 3436 3711 
Q 2988 4147 2022 4147 
L 1259 4147 
z
M 628 4666 
L 1925 4666 
Q 3281 4666 3915 4102 
Q 4550 3538 4550 2338 
Q 4550 1131 3912 565 
Q 3275 0 1925 0 
L 628 0 
L 628 4666 
z
" transform="scale(0.015625)"/>
     <path id="DejaVuSans-71" d="M 947 1747 
Q 947 1113 1208 752 
Q 1469 391 1925 391 
Q 2381 391 2643 752 
Q 2906 1113 2906 1747 
Q 2906 2381 2643 2742 
Q 2381 3103 1925 3103 
Q 1469 3103 1208 2742 
Q 947 2381 947 1747 
z
M 2906 525 
Q 2725 213 2448 61 
Q 2172 -91 1784 -91 
Q 1150 -91 751 415 
Q 353 922 353 1747 
Q 353 2572 751 3078 
Q 1150 3584 1784 3584 
Q 2172 3584 2448 3432 
Q 2725 3281 2906 2969 
L 2906 3500 
L 3481 3500 
L 3481 -1331 
L 2906 -1331 
L 2906 525 
z
" transform="scale(0.015625)"/>
     <path id="DejaVuSans-7a" d="M 353 3500 
L 3084 3500 
L 3084 2975 
L 922 459 
L 3084 459 
L 3084 0 
L 275 0 
L 275 525 
L 2438 3041 
L 353 3041 
L 353 3500 
z
" transform="scale(0.015625)"/>
     <path id="DejaVuSans-68" d="M 3513 2113 
L 3513 0 
L 2938 0 
L 2938 2094 
Q 2938 2591 2744 2837 
Q 2550 3084 2163 3084 
Q 1697 3084 1428 2787 
Q 1159 2491 1159 1978 
L 1159 0 
L 581 0 
L 581 4863 
L 1159 4863 
L 1159 2956 
Q 1366 3272 1645 3428 
Q 1925 3584 2291 3584 
Q 2894 3584 3203 3211 
Q 3513 2838 3513 2113 
z
" transform="scale(0.015625)"/>
     <path id="DejaVuSans-2e" d="M 684 794 
L 1344 794 
L 1344 0 
L 684 0 
L 684 794 
z
" transform="scale(0.015625)"/>
    </defs>
    <use xlink:href="#DejaVuSans-4e"/>
    <use xlink:href="#DejaVuSans-6f" transform="translate(74.804688 0)"/>
    <use xlink:href="#DejaVuSans-20" transform="translate(135.986328 0)"/>
    <use xlink:href="#DejaVuSans-63" transform="translate(167.773438 0)"/>
    <use xlink:href="#DejaVuSans-61" transform="translate(222.753906 0)"/>
    <use xlink:href="#DejaVuSans-73" transform="translate(284.033203 0)"/>
    <use xlink:href="#DejaVuSans-6f" transform="translate(336.132812 0)"/>
    <use xlink:href="#DejaVuSans-20" transform="translate(397.314453 0)"/>
    <use xlink:href="#DejaVuSans-43" transform="translate(429.101562 0)"/>
    <use xlink:href="#DejaVuSans-6f" transform="translate(498.925781 0)"/>
    <use xlink:href="#DejaVuSans-62" transform="translate(560.107422 0)"/>
    <use xlink:href="#DejaVuSans-62" transform="translate(623.583984 0)"/>
    <use xlink:href="#DejaVuSans-2d" transform="translate(687.060547 0)"/>
    <use xlink:href="#DejaVuSans-44" transform="translate(723.144531 0)"/>
    <use xlink:href="#DejaVuSans-6f" transform="translate(800.146484 0)"/>
    <use xlink:href="#DejaVuSans-75" transform="translate(861.328125 0)"/>
    <use xlink:href="#DejaVuSans-67" transform="translate(924.707031 0)"/>
    <use xlink:href="#DejaVuSans-6c" transform="translate(988.183594 0)"/>
    <use xlink:href="#DejaVuSans-61" transform="translate(1015.966797 0)"/>
    <use xlink:href="#DejaVuSans-73" transform="translate(1077.246094 0)"/>
    <use xlink:href="#DejaVuSans-2c" transform="translate(1129.345703 0)"/>
    <use xlink:href="#DejaVuSans-20" transform="translate(1161.132812 0)"/>
    <use xlink:href="#DejaVuSans-61" transform="translate(1192.919922 0)"/>
    <use xlink:href="#DejaVuSans-20" transform="translate(1254.199219 0)"/>
    <use xlink:href="#DejaVuSans-74" transform="translate(1285.986328 0)"/>
    <use xlink:href="#DejaVuSans-61" transform="translate(1325.195312 0)"/>
    <use xlink:href="#DejaVuSans-78" transform="translate(1386.474609 0)"/>
    <use xlink:href="#DejaVuSans-61" transform="translate(1445.654297 0)"/>
    <use xlink:href="#DejaVuSans-20" transform="translate(1506.933594 0)"/>
    <use xlink:href="#DejaVuSans-64" transform="translate(1538.720703 0)"/>
    <use xlink:href="#DejaVuSans-65" transform="translate(1602.197266 0)"/>
    <use xlink:href="#DejaVuSans-20" transform="translate(1663.720703 0)"/>
    <use xlink:href="#DejaVuSans-70" transform="translate(1695.507812 0)"/>
    <use xlink:href="#DejaVuSans-6f" transform="translate(1758.984375 0)"/>
    <use xlink:href="#DejaVuSans-75" transform="translate(1820.166016 0)"/>
    <use xlink:href="#DejaVuSans-70" transform="translate(1883.544922 0)"/>
    <use xlink:href="#DejaVuSans-61" transform="translate(1947.021484 0)"/>
    <use xlink:href="#DejaVuSans-6e" transform="translate(2008.300781 0)"/>
    <use xlink:href="#DejaVuSans-e7" transform="translate(2071.679688 0)"/>
    <use xlink:href="#DejaVuSans-61" transform="translate(2126.660156 0)"/>
    <use xlink:href="#DejaVuSans-20" transform="translate(2187.939453 0)"/>
    <use xlink:href="#DejaVuSans-71" transform="translate(2219.726562 0)"/>
    <use xlink:href="#DejaVuSans-75" transform="translate(2283.203125 0)"/>
    <use xlink:href="#DejaVuSans-65" transform="translate(2346.582031 0)"/>
    <use xlink:href="#DejaVuSans-20" transform="translate(2408.105469 0)"/>
    <use xlink:href="#DejaVuSans-6d" transform="translate(2439.892578 0)"/>
    <use xlink:href="#DejaVuSans-61" transform="translate(2537.304688 0)"/>
    <use xlink:href="#DejaVuSans-78" transform="translate(2598.583984 0)"/>
    <use xlink:href="#DejaVuSans-69" transform="translate(2657.763672 0)"/>
    <use xlink:href="#DejaVuSans-6d" transform="translate(2685.546875 0)"/>
    <use xlink:href="#DejaVuSans-69" transform="translate(2782.958984 0)"/>
    <use xlink:href="#DejaVuSans-7a" transform="translate(2810.742188 0)"/>
    <use xlink:href="#DejaVuSans-61" transform="translate(2863.232422 0)"/>
    <use xlink:href="#DejaVuSans-20" transform="translate(2924.511719 0)"/>
    <use xlink:href="#DejaVuSans-6f" transform="translate(2956.298828 0)"/>
    <use xlink:href="#DejaVuSans-20" transform="translate(3017.480469 0)"/>
    <use xlink:href="#DejaVuSans-63" transform="translate(3049.267578 0)"/>
    <use xlink:href="#DejaVuSans-6f" transform="translate(3104.248047 0)"/>
    <use xlink:href="#DejaVuSans-6e" transform="translate(3165.429688 0)"/>
    <use xlink:href="#DejaVuSans-73" transform="translate(3228.808594 0)"/>
    <use xlink:href="#DejaVuSans-75" transform="translate(3280.908203 0)"/>
    <use xlink:href="#DejaVuSans-6d" transform="translate(3344.287109 0)"/>
    <use xlink:href="#DejaVuSans-6f" transform="translate(3441.699219 0)"/>
    <use xlink:href="#DejaVuSans-20" transform="translate(3502.880859 0)"/>
    <use xlink:href="#DejaVuSans-64" transform="translate(3534.667969 0)"/>
    <use xlink:href="#DejaVuSans-65" transform="translate(3598.144531 0)"/>
    <use xlink:href="#DejaVuSans-20" transform="translate(3659.667969 0)"/>
    <use xlink:href="#DejaVuSans-6c" transform="translate(3691.455078 0)"/>
    <use xlink:href="#DejaVuSans-6f" transform="translate(3719.238281 0)"/>
    <use xlink:href="#DejaVuSans-6e" transform="translate(3780.419922 0)"/>
    <use xlink:href="#DejaVuSans-67" transform="translate(3843.798828 0)"/>
    <use xlink:href="#DejaVuSans-6f" transform="translate(3907.275391 0)"/>
    <use xlink:href="#DejaVuSans-20" transform="translate(3968.457031 0)"/>
    <use xlink:href="#DejaVuSans-70" transform="translate(4000.244141 0)"/>
    <use xlink:href="#DejaVuSans-72" transform="translate(4063.720703 0)"/>
    <use xlink:href="#DejaVuSans-61" transform="translate(4104.833984 0)"/>
    <use xlink:href="#DejaVuSans-7a" transform="translate(4166.113281 0)"/>
    <use xlink:href="#DejaVuSans-6f" transform="translate(4218.603516 0)"/>
    <use xlink:href="#DejaVuSans-20" transform="translate(4279.785156 0)"/>
    <use xlink:href="#DejaVuSans-63" transform="translate(4311.572266 0)"/>
    <use xlink:href="#DejaVuSans-6f" transform="translate(4366.552734 0)"/>
    <use xlink:href="#DejaVuSans-69" transform="translate(4427.734375 0)"/>
    <use xlink:href="#DejaVuSans-6e" transform="translate(4455.517578 0)"/>
    <use xlink:href="#DejaVuSans-63" transform="translate(4518.896484 0)"/>
    <use xlink:href="#DejaVuSans-69" transform="translate(4573.876953 0)"/>
    <use xlink:href="#DejaVuSans-64" transform="translate(4601.660156 0)"/>
    <use xlink:href="#DejaVuSans-65" transform="translate(4665.136719 0)"/>
    <use xlink:href="#DejaVuSans-20" transform="translate(4726.660156 0)"/>
    <use xlink:href="#DejaVuSans-63" transform="translate(4758.447266 0)"/>
    <use xlink:href="#DejaVuSans-6f" transform="translate(4813.427734 0)"/>
    <use xlink:href="#DejaVuSans-6d" transform="translate(4874.609375 0)"/>
    <use xlink:href="#DejaVuSans-20" transform="translate(4972.021484 0)"/>
    <use xlink:href="#DejaVuSans-61" transform="translate(5003.808594 0)"/>
    <use xlink:href="#DejaVuSans-6c" transform="translate(5065.087891 0)"/>
    <use xlink:href="#DejaVuSans-70" transform="translate(5092.871094 0)"/>
    <use xlink:href="#DejaVuSans-68" transform="translate(5156.347656 0)"/>
    <use xlink:href="#DejaVuSans-61" transform="translate(5219.726562 0)"/>
    <use xlink:href="#DejaVuSans-2e" transform="translate(5281.005859 0)"/>
   </g>
  </g>
  <g id="text_18">
   <!-- Obs.: O pico da curva identifica a combinação de poupança e capital que maximiza o consumo de estado estacionário. -->
   <g style="fill: #6f6e69" transform="translate(14.4 390.770672) scale(0.087 -0.087)">
    <defs>
     <path id="DejaVuSans-3a" d="M 750 794 
L 1409 794 
L 1409 0 
L 750 0 
L 750 794 
z
M 750 3309 
L 1409 3309 
L 1409 2516 
L 750 2516 
L 750 3309 
z
" transform="scale(0.015625)"/>
     <path id="DejaVuSans-76" d="M 191 3500 
L 800 3500 
L 1894 563 
L 2988 3500 
L 3597 3500 
L 2284 0 
L 1503 0 
L 191 3500 
z
" transform="scale(0.015625)"/>
     <path id="DejaVuSans-66" d="M 2375 4863 
L 2375 4384 
L 1825 4384 
Q 1516 4384 1395 4259 
Q 1275 4134 1275 3809 
L 1275 3500 
L 2222 3500 
L 2222 3053 
L 1275 3053 
L 1275 0 
L 697 0 
L 697 3053 
L 147 3053 
L 147 3500 
L 697 3500 
L 697 3744 
Q 697 4328 969 4595 
Q 1241 4863 1831 4863 
L 2375 4863 
z
" transform="scale(0.015625)"/>
     <path id="DejaVuSans-e3" d="M 2194 1759 
Q 1497 1759 1228 1600 
Q 959 1441 959 1056 
Q 959 750 1161 570 
Q 1363 391 1709 391 
Q 2188 391 2477 730 
Q 2766 1069 2766 1631 
L 2766 1759 
L 2194 1759 
z
M 3341 1997 
L 3341 0 
L 2766 0 
L 2766 531 
Q 2569 213 2275 61 
Q 1981 -91 1556 -91 
Q 1019 -91 701 211 
Q 384 513 384 1019 
Q 384 1609 779 1909 
Q 1175 2209 1959 2209 
L 2766 2209 
L 2766 2266 
Q 2766 2663 2505 2880 
Q 2244 3097 1772 3097 
Q 1472 3097 1187 3025 
Q 903 2953 641 2809 
L 641 3341 
Q 956 3463 1253 3523 
Q 1550 3584 1831 3584 
Q 2591 3584 2966 3190 
Q 3341 2797 3341 1997 
z
M 1844 4281 
L 1665 4453 
Q 1597 4516 1545 4545 
Q 1494 4575 1453 4575 
Q 1334 4575 1278 4461 
Q 1222 4347 1215 4091 
L 825 4091 
Q 831 4513 990 4742 
Q 1150 4972 1434 4972 
Q 1553 4972 1653 4928 
Q 1753 4884 1869 4781 
L 2047 4609 
Q 2115 4547 2167 4517 
Q 2219 4488 2259 4488 
Q 2378 4488 2434 4602 
Q 2490 4716 2497 4972 
L 2887 4972 
Q 2881 4550 2721 4320 
Q 2562 4091 2278 4091 
Q 2159 4091 2059 4134 
Q 1959 4178 1844 4281 
z
" transform="scale(0.015625)"/>
    </defs>
    <use xlink:href="#DejaVuSans-4f"/>
    <use xlink:href="#DejaVuSans-62" transform="translate(78.710938 0)"/>
    <use xlink:href="#DejaVuSans-73" transform="translate(142.1875 0)"/>
    <use xlink:href="#DejaVuSans-2e" transform="translate(194.287109 0)"/>
    <use xlink:href="#DejaVuSans-3a" transform="translate(226.074219 0)"/>
    <use xlink:href="#DejaVuSans-20" transform="translate(259.765625 0)"/>
    <use xlink:href="#DejaVuSans-4f" transform="translate(291.552734 0)"/>
    <use xlink:href="#DejaVuSans-20" transform="translate(370.263672 0)"/>
    <use xlink:href="#DejaVuSans-70" transform="translate(402.050781 0)"/>
    <use xlink:href="#DejaVuSans-69" transform="translate(465.527344 0)"/>
    <use xlink:href="#DejaVuSans-63" transform="translate(493.310547 0)"/>
    <use xlink:href="#DejaVuSans-6f" transform="translate(548.291016 0)"/>
    <use xlink:href="#DejaVuSans-20" transform="translate(609.472656 0)"/>
    <use xlink:href="#DejaVuSans-64" transform="translate(641.259766 0)"/>
    <use xlink:href="#DejaVuSans-61" transform="translate(704.736328 0)"/>
    <use xlink:href="#DejaVuSans-20" transform="translate(766.015625 0)"/>
    <use xlink:href="#DejaVuSans-63" transform="translate(797.802734 0)"/>
    <use xlink:href="#DejaVuSans-75" transform="translate(852.783203 0)"/>
    <use xlink:href="#DejaVuSans-72" transform="translate(916.162109 0)"/>
    <use xlink:href="#DejaVuSans-76" transform="translate(957.275391 0)"/>
    <use xlink:href="#DejaVuSans-61" transform="translate(1016.455078 0)"/>
    <use xlink:href="#DejaVuSans-20" transform="translate(1077.734375 0)"/>
    <use xlink:href="#DejaVuSans-69" transform="translate(1109.521484 0)"/>
    <use xlink:href="#DejaVuSans-64" transform="translate(1137.304688 0)"/>
    <use xlink:href="#DejaVuSans-65" transform="translate(1200.78125 0)"/>
    <use xlink:href="#DejaVuSans-6e" transform="translate(1262.304688 0)"/>
    <use xlink:href="#DejaVuSans-74" transform="translate(1325.683594 0)"/>
    <use xlink:href="#DejaVuSans-69" transform="translate(1364.892578 0)"/>
    <use xlink:href="#DejaVuSans-66" transform="translate(1392.675781 0)"/>
    <use xlink:href="#DejaVuSans-69" transform="translate(1427.880859 0)"/>
    <use xlink:href="#DejaVuSans-63" transform="translate(1455.664062 0)"/>
    <use xlink:href="#DejaVuSans-61" transform="translate(1510.644531 0)"/>
    <use xlink:href="#DejaVuSans-20" transform="translate(1571.923828 0)"/>
    <use xlink:href="#DejaVuSans-61" transform="translate(1603.710938 0)"/>
    <use xlink:href="#DejaVuSans-20" transform="translate(1664.990234 0)"/>
    <use xlink:href="#DejaVuSans-63" transform="translate(1696.777344 0)"/>
    <use xlink:href="#DejaVuSans-6f" transform="translate(1751.757812 0)"/>
    <use xlink:href="#DejaVuSans-6d" transform="translate(1812.939453 0)"/>
    <use xlink:href="#DejaVuSans-62" transform="translate(1910.351562 0)"/>
    <use xlink:href="#DejaVuSans-69" transform="translate(1973.828125 0)"/>
    <use xlink:href="#DejaVuSans-6e" transform="translate(2001.611328 0)"/>
    <use xlink:href="#DejaVuSans-61" transform="translate(2064.990234 0)"/>
    <use xlink:href="#DejaVuSans-e7" transform="translate(2126.269531 0)"/>
    <use xlink:href="#DejaVuSans-e3" transform="translate(2181.25 0)"/>
    <use xlink:href="#DejaVuSans-6f" transform="translate(2242.529297 0)"/>
    <use xlink:href="#DejaVuSans-20" transform="translate(2303.710938 0)"/>
    <use xlink:href="#DejaVuSans-64" transform="translate(2335.498047 0)"/>
    <use xlink:href="#DejaVuSans-65" transform="translate(2398.974609 0)"/>
    <use xlink:href="#DejaVuSans-20" transform="translate(2460.498047 0)"/>
    <use xlink:href="#DejaVuSans-70" transform="translate(2492.285156 0)"/>
    <use xlink:href="#DejaVuSans-6f" transform="translate(2555.761719 0)"/>
    <use xlink:href="#DejaVuSans-75" transform="translate(2616.943359 0)"/>
    <use xlink:href="#DejaVuSans-70" transform="translate(2680.322266 0)"/>
    <use xlink:href="#DejaVuSans-61" transform="translate(2743.798828 0)"/>
    <use xlink:href="#DejaVuSans-6e" transform="translate(2805.078125 0)"/>
    <use xlink:href="#DejaVuSans-e7" transform="translate(2868.457031 0)"/>
    <use xlink:href="#DejaVuSans-61" transform="translate(2923.4375 0)"/>
    <use xlink:href="#DejaVuSans-20" transform="translate(2984.716797 0)"/>
    <use xlink:href="#DejaVuSans-65" transform="translate(3016.503906 0)"/>
    <use xlink:href="#DejaVuSans-20" transform="translate(3078.027344 0)"/>
    <use xlink:href="#DejaVuSans-63" transform="translate(3109.814453 0)"/>
    <use xlink:href="#DejaVuSans-61" transform="translate(3164.794922 0)"/>
    <use xlink:href="#DejaVuSans-70" transform="translate(3226.074219 0)"/>
    <use xlink:href="#DejaVuSans-69" transform="translate(3289.550781 0)"/>
    <use xlink:href="#DejaVuSans-74" transform="translate(3317.333984 0)"/>
    <use xlink:href="#DejaVuSans-61" transform="translate(3356.542969 0)"/>
    <use xlink:href="#DejaVuSans-6c" transform="translate(3417.822266 0)"/>
    <use xlink:href="#DejaVuSans-20" transform="translate(3445.605469 0)"/>
    <use xlink:href="#DejaVuSans-71" transform="translate(3477.392578 0)"/>
    <use xlink:href="#DejaVuSans-75" transform="translate(3540.869141 0)"/>
    <use xlink:href="#DejaVuSans-65" transform="translate(3604.248047 0)"/>
    <use xlink:href="#DejaVuSans-20" transform="translate(3665.771484 0)"/>
    <use xlink:href="#DejaVuSans-6d" transform="translate(3697.558594 0)"/>
    <use xlink:href="#DejaVuSans-61" transform="translate(3794.970703 0)"/>
    <use xlink:href="#DejaVuSans-78" transform="translate(3856.25 0)"/>
    <use xlink:href="#DejaVuSans-69" transform="translate(3915.429688 0)"/>
    <use xlink:href="#DejaVuSans-6d" transform="translate(3943.212891 0)"/>
    <use xlink:href="#DejaVuSans-69" transform="translate(4040.625 0)"/>
    <use xlink:href="#DejaVuSans-7a" transform="translate(4068.408203 0)"/>
    <use xlink:href="#DejaVuSans-61" transform="translate(4120.898438 0)"/>
    <use xlink:href="#DejaVuSans-20" transform="translate(4182.177734 0)"/>
    <use xlink:href="#DejaVuSans-6f" transform="translate(4213.964844 0)"/>
    <use xlink:href="#DejaVuSans-20" transform="translate(4275.146484 0)"/>
    <use xlink:href="#DejaVuSans-63" transform="translate(4306.933594 0)"/>
    <use xlink:href="#DejaVuSans-6f" transform="translate(4361.914062 0)"/>
    <use xlink:href="#DejaVuSans-6e" transform="translate(4423.095703 0)"/>
    <use xlink:href="#DejaVuSans-73" transform="translate(4486.474609 0)"/>
    <use xlink:href="#DejaVuSans-75" transform="translate(4538.574219 0)"/>
    <use xlink:href="#DejaVuSans-6d" transform="translate(4601.953125 0)"/>
    <use xlink:href="#DejaVuSans-6f" transform="translate(4699.365234 0)"/>
    <use xlink:href="#DejaVuSans-20" transform="translate(4760.546875 0)"/>
    <use xlink:href="#DejaVuSans-64" transform="translate(4792.333984 0)"/>
    <use xlink:href="#DejaVuSans-65" transform="translate(4855.810547 0)"/>
    <use xlink:href="#DejaVuSans-20" transform="translate(4917.333984 0)"/>
    <use xlink:href="#DejaVuSans-65" transform="translate(4949.121094 0)"/>
    <use xlink:href="#DejaVuSans-73" transform="translate(5010.644531 0)"/>
    <use xlink:href="#DejaVuSans-74" transform="translate(5062.744141 0)"/>
    <use xlink:href="#DejaVuSans-61" transform="translate(5101.953125 0)"/>
    <use xlink:href="#DejaVuSans-64" transform="translate(5163.232422 0)"/>
    <use xlink:href="#DejaVuSans-6f" transform="translate(5226.708984 0)"/>
    <use xlink:href="#DejaVuSans-20" transform="translate(5287.890625 0)"/>
    <use xlink:href="#DejaVuSans-65" transform="translate(5319.677734 0)"/>
    <use xlink:href="#DejaVuSans-73" transform="translate(5381.201172 0)"/>
    <use xlink:href="#DejaVuSans-74" transform="translate(5433.300781 0)"/>
    <use xlink:href="#DejaVuSans-61" transform="translate(5472.509766 0)"/>
    <use xlink:href="#DejaVuSans-63" transform="translate(5533.789062 0)"/>
    <use xlink:href="#DejaVuSans-69" transform="translate(5588.769531 0)"/>
    <use xlink:href="#DejaVuSans-6f" transform="translate(5616.552734 0)"/>
    <use xlink:href="#DejaVuSans-6e" transform="translate(5677.734375 0)"/>
    <use xlink:href="#DejaVuSans-e1" transform="translate(5741.113281 0)"/>
    <use xlink:href="#DejaVuSans-72" transform="translate(5802.392578 0)"/>
    <use xlink:href="#DejaVuSans-69" transform="translate(5843.505859 0)"/>
    <use xlink:href="#DejaVuSans-6f" transform="translate(5871.289062 0)"/>
    <use xlink:href="#DejaVuSans-2e" transform="translate(5930.720703 0)"/>
   </g>
  </g>
 </g>
 <defs>
  <clipPath id="pcd9805d918">
   <rect x="58.657429" y="92.217046" width="568.498571" height="221.800097"/>
  </clipPath>
 </defs>
</svg>
