<?xml version="1.0" encoding="utf-8" standalone="no"?>
<!DOCTYPE svg PUBLIC "-//W3C//DTD SVG 1.1//EN"
  "http://www.w3.org/Graphics/SVG/1.1/DTD/svg11.dtd">
<svg xmlns:xlink="http://www.w3.org/1999/xlink" width="740.755219pt" height="427.608pt" viewBox="0 0 740.755219 427.608" xmlns="http://www.w3.org/2000/svg" version="1.1">
 <metadata>
  <rdf:RDF xmlns:dc="http://purl.org/dc/elements/1.1/" xmlns:cc="http://creativecommons.org/ns#" xmlns:rdf="http://www.w3.org/1999/02/22-rdf-syntax-ns#">
   <cc:Work>
    <dc:type rdf:resource="http://purl.org/dc/dcmitype/StillImage"/>
    <dc:date>2026-04-02T15:09:44.295180</dc:date>
    <dc:format>image/svg+xml</dc:format>
    <dc:creator>
     <cc:Agent>
      <dc:title>Matplotlib v3.10.7, https://matplotlib.org/</dc:title>
     </cc:Agent>
    </dc:creator>
   </cc:Work>
  </rdf:RDF>
 </metadata>
 <defs>
  <style type="text/css">*{stroke-linejoin: round; stroke-linecap: butt}</style>
 </defs>
 <g id="figure_1">
  <g id="patch_1">
   <path d="M 0 427.608 
L 740.755219 427.608 
L 740.755219 0 
L 0 0 
z
" style="fill: #fffcf0"/>
  </g>
  <g id="axes_1">
   <g id="patch_2">
    <path d="M 58.657429 332.917143 
L 627.156 332.917143 
L 627.156 92.437714 
L 58.657429 92.437714 
z
" style="fill: #fffcf0"/>
   </g>
   <g id="PathCollection_1">
    <defs>
     <path id="C0_0_5b43b1ff6f" d="M 0 3.24037 
C 0.859356 3.24037 1.683631 2.898944 2.291288 2.291288 
C 2.898944 1.683631 3.24037 0.859356 3.24037 -0 
C 3.24037 -0.859356 2.898944 -1.683631 2.291288 -2.291288 
C 1.683631 -2.898944 0.859356 -3.24037 0 -3.24037 
C -0.859356 -3.24037 -1.683631 -2.898944 -2.291288 -2.291288 
C -2.898944 -1.683631 -3.24037 -0.859356 -3.24037 0 
C -3.24037 0.859356 -2.898944 1.683631 -2.291288 2.291288 
C -1.683631 2.898944 -0.859356 3.24037 0 3.24037 
z
"/>
    </defs>
    <g clip-path="url(#pce9d533652)">
     <use xlink:href="#C0_0_5b43b1ff6f" x="446.566577" y="276.541779" style="fill: #da702c; fill-opacity: 0.72"/>
    </g>
    <g clip-path="url(#pce9d533652)">
     <use xlink:href="#C0_0_5b43b1ff6f" x="476.129994" y="286.914902" style="fill: #da702c; fill-opacity: 0.72"/>
    </g>
    <g clip-path="url(#pce9d533652)">
     <use xlink:href="#C0_0_5b43b1ff6f" x="484.694657" y="280.888835" style="fill: #da702c; fill-opacity: 0.72"/>
    </g>
    <g clip-path="url(#pce9d533652)">
     <use xlink:href="#C0_0_5b43b1ff6f" x="290.275192" y="274.749317" style="fill: #3aa99f; fill-opacity: 0.72"/>
    </g>
    <g clip-path="url(#pce9d533652)">
     <use xlink:href="#C0_0_5b43b1ff6f" x="449.448986" y="285.719944" style="fill: #da702c; fill-opacity: 0.72"/>
    </g>
    <g clip-path="url(#pce9d533652)">
     <use xlink:href="#C0_0_5b43b1ff6f" x="339.826503" y="265.19289" style="fill: #da702c; fill-opacity: 0.72"/>
    </g>
    <g clip-path="url(#pce9d533652)">
     <use xlink:href="#C0_0_5b43b1ff6f" x="84.498273" y="103.368597" style="fill: #3aa99f; fill-opacity: 0.72"/>
    </g>
    <g clip-path="url(#pce9d533652)">
     <use xlink:href="#C0_0_5b43b1ff6f" x="254.570627" y="251.446884" style="fill: #da702c; fill-opacity: 0.72"/>
    </g>
    <g clip-path="url(#pce9d533652)">
     <use xlink:href="#C0_0_5b43b1ff6f" x="309.004686" y="243.94174" style="fill: #da702c; fill-opacity: 0.72"/>
    </g>
    <g clip-path="url(#pce9d533652)">
     <use xlink:href="#C0_0_5b43b1ff6f" x="384.213408" y="246.634123" style="fill: #da702c; fill-opacity: 0.72"/>
    </g>
    <g clip-path="url(#pce9d533652)">
     <use xlink:href="#C0_0_5b43b1ff6f" x="472.980533" y="279.443896" style="fill: #da702c; fill-opacity: 0.72"/>
    </g>
    <g clip-path="url(#pce9d533652)">
     <use xlink:href="#C0_0_5b43b1ff6f" x="338.064514" y="235.251097" style="fill: #da702c; fill-opacity: 0.72"/>
    </g>
    <g clip-path="url(#pce9d533652)">
     <use xlink:href="#C0_0_5b43b1ff6f" x="452.0936" y="281.651848" style="fill: #da702c; fill-opacity: 0.72"/>
    </g>
    <g clip-path="url(#pce9d533652)">
     <use xlink:href="#C0_0_5b43b1ff6f" x="465.28134" y="285.080378" style="fill: #da702c; fill-opacity: 0.72"/>
    </g>
    <g clip-path="url(#pce9d533652)">
     <use xlink:href="#C0_0_5b43b1ff6f" x="464.64603" y="281.424167" style="fill: #da702c; fill-opacity: 0.72"/>
    </g>
    <g clip-path="url(#pce9d533652)">
     <use xlink:href="#C0_0_5b43b1ff6f" x="415.527905" y="285.84678" style="fill: #da702c; fill-opacity: 0.72"/>
    </g>
    <g clip-path="url(#pce9d533652)">
     <use xlink:href="#C0_0_5b43b1ff6f" x="367.712996" y="254.204735" style="fill: #da702c; fill-opacity: 0.72"/>
    </g>
    <g clip-path="url(#pce9d533652)">
     <use xlink:href="#C0_0_5b43b1ff6f" x="434.330784" y="266.169671" style="fill: #da702c; fill-opacity: 0.72"/>
    </g>
    <g clip-path="url(#pce9d533652)">
     <use xlink:href="#C0_0_5b43b1ff6f" x="98.491759" y="182.058438" style="fill: #3aa99f; fill-opacity: 0.72"/>
    </g>
    <g clip-path="url(#pce9d533652)">
     <use xlink:href="#C0_0_5b43b1ff6f" x="471.06671" y="217.991398" style="fill: #da702c; fill-opacity: 0.72"/>
    </g>
    <g clip-path="url(#pce9d533652)">
     <use xlink:href="#C0_0_5b43b1ff6f" x="421.677186" y="267.196076" style="fill: #da702c; fill-opacity: 0.72"/>
    </g>
    <g clip-path="url(#pce9d533652)">
     <use xlink:href="#C0_0_5b43b1ff6f" x="491.433979" y="301.620504" style="fill: #da702c; fill-opacity: 0.72"/>
    </g>
    <g clip-path="url(#pce9d533652)">
     <use xlink:href="#C0_0_5b43b1ff6f" x="416.471795" y="285.85775" style="fill: #da702c; fill-opacity: 0.72"/>
    </g>
    <g clip-path="url(#pce9d533652)">
     <use xlink:href="#C0_0_5b43b1ff6f" x="375.811234" y="238.702031" style="fill: #da702c; fill-opacity: 0.72"/>
    </g>
    <g clip-path="url(#pce9d533652)">
     <use xlink:href="#C0_0_5b43b1ff6f" x="295.528764" y="205.522937" style="fill: #da702c; fill-opacity: 0.72"/>
    </g>
    <g clip-path="url(#pce9d533652)">
     <use xlink:href="#C0_0_5b43b1ff6f" x="301.15894" y="190.340601" style="fill: #da702c; fill-opacity: 0.72"/>
    </g>
    <g clip-path="url(#pce9d533652)">
     <use xlink:href="#C0_0_5b43b1ff6f" x="601.315156" y="305.287868" style="fill: #da702c; fill-opacity: 0.72"/>
    </g>
    <g clip-path="url(#pce9d533652)">
     <use xlink:href="#C0_0_5b43b1ff6f" x="368.621359" y="311.215064" style="fill: #da702c; fill-opacity: 0.72"/>
    </g>
    <g clip-path="url(#pce9d533652)">
     <use xlink:href="#C0_0_5b43b1ff6f" x="464.268403" y="279.030342" style="fill: #da702c; fill-opacity: 0.72"/>
    </g>
    <g clip-path="url(#pce9d533652)">
     <use xlink:href="#C0_0_5b43b1ff6f" x="414.018167" y="280.818034" style="fill: #da702c; fill-opacity: 0.72"/>
    </g>
    <g clip-path="url(#pce9d533652)">
     <use xlink:href="#C0_0_5b43b1ff6f" x="515.534658" y="286.305168" style="fill: #da702c; fill-opacity: 0.72"/>
    </g>
    <g clip-path="url(#pce9d533652)">
     <use xlink:href="#C0_0_5b43b1ff6f" x="335.413827" y="216.446486" style="fill: #da702c; fill-opacity: 0.72"/>
    </g>
    <g clip-path="url(#pce9d533652)">
     <use xlink:href="#C0_0_5b43b1ff6f" x="408.416826" y="280.399377" style="fill: #da702c; fill-opacity: 0.72"/>
    </g>
    <g clip-path="url(#pce9d533652)">
     <use xlink:href="#C0_0_5b43b1ff6f" x="323.678982" y="221.087635" style="fill: #da702c; fill-opacity: 0.72"/>
    </g>
    <g clip-path="url(#pce9d533652)">
     <use xlink:href="#C0_0_5b43b1ff6f" x="393.346539" y="249.272669" style="fill: #da702c; fill-opacity: 0.72"/>
    </g>
    <g clip-path="url(#pce9d533652)">
     <use xlink:href="#C0_0_5b43b1ff6f" x="288.606998" y="286.722545" style="fill: #3aa99f; fill-opacity: 0.72"/>
    </g>
    <g clip-path="url(#pce9d533652)">
     <use xlink:href="#C0_0_5b43b1ff6f" x="444.524341" y="292.287537" style="fill: #da702c; fill-opacity: 0.72"/>
    </g>
    <g clip-path="url(#pce9d533652)">
     <use xlink:href="#C0_0_5b43b1ff6f" x="455.189894" y="277.177005" style="fill: #da702c; fill-opacity: 0.72"/>
    </g>
    <g clip-path="url(#pce9d533652)">
     <use xlink:href="#C0_0_5b43b1ff6f" x="489.473653" y="280.625742" style="fill: #da702c; fill-opacity: 0.72"/>
    </g>
    <g clip-path="url(#pce9d533652)">
     <use xlink:href="#C0_0_5b43b1ff6f" x="339.129713" y="222.911718" style="fill: #da702c; fill-opacity: 0.72"/>
    </g>
    <g clip-path="url(#pce9d533652)">
     <use xlink:href="#C0_0_5b43b1ff6f" x="441.317362" y="280.296344" style="fill: #da702c; fill-opacity: 0.72"/>
    </g>
    <g clip-path="url(#pce9d533652)">
     <use xlink:href="#C0_0_5b43b1ff6f" x="469.602014" y="263.918382" style="fill: #da702c; fill-opacity: 0.72"/>
    </g>
   </g>
   <g id="PathCollection_2"/>
   <g id="PathCollection_3"/>
   <g id="matplotlib.axis_1">
    <g id="xtick_1">
     <g id="line2d_1"/>
     <g id="text_1">
      <!-- 10 -->
      <g style="fill: #6f6e69" transform="translate(123.828288 346.895502) scale(0.105 -0.105)">
       <defs>
        <path id="DejaVuSans-31" d="M 794 531 
L 1825 531 
L 1825 4091 
L 703 3866 
L 703 4441 
L 1819 4666 
L 2450 4666 
L 2450 531 
L 3481 531 
L 3481 0 
L 794 0 
L 794 531 
z
" transform="scale(0.015625)"/>
        <path id="DejaVuSans-30" d="M 2034 4250 
Q 1547 4250 1301 3770 
Q 1056 3291 1056 2328 
Q 1056 1369 1301 889 
Q 1547 409 2034 409 
Q 2525 409 2770 889 
Q 3016 1369 3016 2328 
Q 3016 3291 2770 3770 
Q 2525 4250 2034 4250 
z
M 2034 4750 
Q 2819 4750 3233 4129 
Q 3647 3509 3647 2328 
Q 3647 1150 3233 529 
Q 2819 -91 2034 -91 
Q 1250 -91 836 529 
Q 422 1150 422 2328 
Q 422 3509 836 4129 
Q 1250 4750 2034 4750 
z
" transform="scale(0.015625)"/>
       </defs>
       <use xlink:href="#DejaVuSans-31"/>
       <use xlink:href="#DejaVuSans-30" transform="translate(63.623047 0)"/>
      </g>
     </g>
    </g>
    <g id="xtick_2">
     <g id="line2d_2"/>
     <g id="text_2">
      <!-- 100 -->
      <g style="fill: #6f6e69" transform="translate(451.815975 346.895502) scale(0.105 -0.105)">
       <use xlink:href="#DejaVuSans-31"/>
       <use xlink:href="#DejaVuSans-30" transform="translate(63.623047 0)"/>
       <use xlink:href="#DejaVuSans-30" transform="translate(127.246094 0)"/>
      </g>
     </g>
    </g>
    <g id="xtick_3">
     <g id="line2d_3">
      <defs>
       <path id="m18cf71c4db" d="M 0 0 
L 0 2 
" style="stroke: #6f6e69; stroke-width: 0.6"/>
      </defs>
      <g>
       <use xlink:href="#m18cf71c4db" x="79.185556" y="332.917143" style="fill: #6f6e69; stroke: #6f6e69; stroke-width: 0.6"/>
      </g>
     </g>
    </g>
    <g id="xtick_4">
     <g id="line2d_4">
      <g>
       <use xlink:href="#m18cf71c4db" x="98.399912" y="332.917143" style="fill: #6f6e69; stroke: #6f6e69; stroke-width: 0.6"/>
      </g>
     </g>
    </g>
    <g id="xtick_5">
     <g id="line2d_5">
      <g>
       <use xlink:href="#m18cf71c4db" x="115.348175" y="332.917143" style="fill: #6f6e69; stroke: #6f6e69; stroke-width: 0.6"/>
      </g>
     </g>
    </g>
    <g id="xtick_6">
     <g id="line2d_6">
      <g>
       <use xlink:href="#m18cf71c4db" x="230.248579" y="332.917143" style="fill: #6f6e69; stroke: #6f6e69; stroke-width: 0.6"/>
      </g>
     </g>
    </g>
    <g id="xtick_7">
     <g id="line2d_7">
      <g>
       <use xlink:href="#m18cf71c4db" x="288.592544" y="332.917143" style="fill: #6f6e69; stroke: #6f6e69; stroke-width: 0.6"/>
      </g>
     </g>
    </g>
    <g id="xtick_8">
     <g id="line2d_8">
      <g>
       <use xlink:href="#m18cf71c4db" x="329.988246" y="332.917143" style="fill: #6f6e69; stroke: #6f6e69; stroke-width: 0.6"/>
      </g>
     </g>
    </g>
    <g id="xtick_9">
     <g id="line2d_9">
      <g>
       <use xlink:href="#m18cf71c4db" x="362.097247" y="332.917143" style="fill: #6f6e69; stroke: #6f6e69; stroke-width: 0.6"/>
      </g>
     </g>
    </g>
    <g id="xtick_10">
     <g id="line2d_10">
      <g>
       <use xlink:href="#m18cf71c4db" x="388.33221" y="332.917143" style="fill: #6f6e69; stroke: #6f6e69; stroke-width: 0.6"/>
      </g>
     </g>
    </g>
    <g id="xtick_11">
     <g id="line2d_11">
      <g>
       <use xlink:href="#m18cf71c4db" x="410.513556" y="332.917143" style="fill: #6f6e69; stroke: #6f6e69; stroke-width: 0.6"/>
      </g>
     </g>
    </g>
    <g id="xtick_12">
     <g id="line2d_12">
      <g>
       <use xlink:href="#m18cf71c4db" x="429.727912" y="332.917143" style="fill: #6f6e69; stroke: #6f6e69; stroke-width: 0.6"/>
      </g>
     </g>
    </g>
    <g id="xtick_13">
     <g id="line2d_13">
      <g>
       <use xlink:href="#m18cf71c4db" x="446.676175" y="332.917143" style="fill: #6f6e69; stroke: #6f6e69; stroke-width: 0.6"/>
      </g>
     </g>
    </g>
    <g id="xtick_14">
     <g id="line2d_14">
      <g>
       <use xlink:href="#m18cf71c4db" x="561.576579" y="332.917143" style="fill: #6f6e69; stroke: #6f6e69; stroke-width: 0.6"/>
      </g>
     </g>
    </g>
    <g id="xtick_15">
     <g id="line2d_15">
      <g>
       <use xlink:href="#m18cf71c4db" x="619.920544" y="332.917143" style="fill: #6f6e69; stroke: #6f6e69; stroke-width: 0.6"/>
      </g>
     </g>
    </g>
    <g id="text_3">
     <!-- PIB inicial por trabalhador em 2000 (US$ mil PPC, escala log) -->
     <g style="fill: #1c1b1a" transform="translate(182.483121 367.057533) scale(0.105 -0.105)">
      <defs>
       <path id="DejaVuSans-50" d="M 1259 4147 
L 1259 2394 
L 2053 2394 
Q 2494 2394 2734 2622 
Q 2975 2850 2975 3272 
Q 2975 3691 2734 3919 
Q 2494 4147 2053 4147 
L 1259 4147 
z
M 628 4666 
L 2053 4666 
Q 2838 4666 3239 4311 
Q 3641 3956 3641 3272 
Q 3641 2581 3239 2228 
Q 2838 1875 2053 1875 
L 1259 1875 
L 1259 0 
L 628 0 
L 628 4666 
z
" transform="scale(0.015625)"/>
       <path id="DejaVuSans-49" d="M 628 4666 
L 1259 4666 
L 1259 0 
L 628 0 
L 628 4666 
z
" transform="scale(0.015625)"/>
       <path id="DejaVuSans-42" d="M 1259 2228 
L 1259 519 
L 2272 519 
Q 2781 519 3026 730 
Q 3272 941 3272 1375 
Q 3272 1813 3026 2020 
Q 2781 2228 2272 2228 
L 1259 2228 
z
M 1259 4147 
L 1259 2741 
L 2194 2741 
Q 2656 2741 2882 2914 
Q 3109 3088 3109 3444 
Q 3109 3797 2882 3972 
Q 2656 4147 2194 4147 
L 1259 4147 
z
M 628 4666 
L 2241 4666 
Q 2963 4666 3353 4366 
Q 3744 4066 3744 3513 
Q 3744 3084 3544 2831 
Q 3344 2578 2956 2516 
Q 3422 2416 3680 2098 
Q 3938 1781 3938 1306 
Q 3938 681 3513 340 
Q 3088 0 2303 0 
L 628 0 
L 628 4666 
z
" transform="scale(0.015625)"/>
       <path id="DejaVuSans-20" transform="scale(0.015625)"/>
       <path id="DejaVuSans-69" d="M 603 3500 
L 1178 3500 
L 1178 0 
L 603 0 
L 603 3500 
z
M 603 4863 
L 1178 4863 
L 1178 4134 
L 603 4134 
L 603 4863 
z
" transform="scale(0.015625)"/>
       <path id="DejaVuSans-6e" d="M 3513 2113 
L 3513 0 
L 2938 0 
L 2938 2094 
Q 2938 2591 2744 2837 
Q 2550 3084 2163 3084 
Q 1697 3084 1428 2787 
Q 1159 2491 1159 1978 
L 1159 0 
L 581 0 
L 581 3500 
L 1159 3500 
L 1159 2956 
Q 1366 3272 1645 3428 
Q 1925 3584 2291 3584 
Q 2894 3584 3203 3211 
Q 3513 2838 3513 2113 
z
" transform="scale(0.015625)"/>
       <path id="DejaVuSans-63" d="M 3122 3366 
L 3122 2828 
Q 2878 2963 2633 3030 
Q 2388 3097 2138 3097 
Q 1578 3097 1268 2742 
Q 959 2388 959 1747 
Q 959 1106 1268 751 
Q 1578 397 2138 397 
Q 2388 397 2633 464 
Q 2878 531 3122 666 
L 3122 134 
Q 2881 22 2623 -34 
Q 2366 -91 2075 -91 
Q 1284 -91 818 406 
Q 353 903 353 1747 
Q 353 2603 823 3093 
Q 1294 3584 2113 3584 
Q 2378 3584 2631 3529 
Q 2884 3475 3122 3366 
z
" transform="scale(0.015625)"/>
       <path id="DejaVuSans-61" d="M 2194 1759 
Q 1497 1759 1228 1600 
Q 959 1441 959 1056 
Q 959 750 1161 570 
Q 1363 391 1709 391 
Q 2188 391 2477 730 
Q 2766 1069 2766 1631 
L 2766 1759 
L 2194 1759 
z
M 3341 1997 
L 3341 0 
L 2766 0 
L 2766 531 
Q 2569 213 2275 61 
Q 1981 -91 1556 -91 
Q 1019 -91 701 211 
Q 384 513 384 1019 
Q 384 1609 779 1909 
Q 1175 2209 1959 2209 
L 2766 2209 
L 2766 2266 
Q 2766 2663 2505 2880 
Q 2244 3097 1772 3097 
Q 1472 3097 1187 3025 
Q 903 2953 641 2809 
L 641 3341 
Q 956 3463 1253 3523 
Q 1550 3584 1831 3584 
Q 2591 3584 2966 3190 
Q 3341 2797 3341 1997 
z
" transform="scale(0.015625)"/>
       <path id="DejaVuSans-6c" d="M 603 4863 
L 1178 4863 
L 1178 0 
L 603 0 
L 603 4863 
z
" transform="scale(0.015625)"/>
       <path id="DejaVuSans-70" d="M 1159 525 
L 1159 -1331 
L 581 -1331 
L 581 3500 
L 1159 3500 
L 1159 2969 
Q 1341 3281 1617 3432 
Q 1894 3584 2278 3584 
Q 2916 3584 3314 3078 
Q 3713 2572 3713 1747 
Q 3713 922 3314 415 
Q 2916 -91 2278 -91 
Q 1894 -91 1617 61 
Q 1341 213 1159 525 
z
M 3116 1747 
Q 3116 2381 2855 2742 
Q 2594 3103 2138 3103 
Q 1681 3103 1420 2742 
Q 1159 2381 1159 1747 
Q 1159 1113 1420 752 
Q 1681 391 2138 391 
Q 2594 391 2855 752 
Q 3116 1113 3116 1747 
z
" transform="scale(0.015625)"/>
       <path id="DejaVuSans-6f" d="M 1959 3097 
Q 1497 3097 1228 2736 
Q 959 2375 959 1747 
Q 959 1119 1226 758 
Q 1494 397 1959 397 
Q 2419 397 2687 759 
Q 2956 1122 2956 1747 
Q 2956 2369 2687 2733 
Q 2419 3097 1959 3097 
z
M 1959 3584 
Q 2709 3584 3137 3096 
Q 3566 2609 3566 1747 
Q 3566 888 3137 398 
Q 2709 -91 1959 -91 
Q 1206 -91 779 398 
Q 353 888 353 1747 
Q 353 2609 779 3096 
Q 1206 3584 1959 3584 
z
" transform="scale(0.015625)"/>
       <path id="DejaVuSans-72" d="M 2631 2963 
Q 2534 3019 2420 3045 
Q 2306 3072 2169 3072 
Q 1681 3072 1420 2755 
Q 1159 2438 1159 1844 
L 1159 0 
L 581 0 
L 581 3500 
L 1159 3500 
L 1159 2956 
Q 1341 3275 1631 3429 
Q 1922 3584 2338 3584 
Q 2397 3584 2469 3576 
Q 2541 3569 2628 3553 
L 2631 2963 
z
" transform="scale(0.015625)"/>
       <path id="DejaVuSans-74" d="M 1172 4494 
L 1172 3500 
L 2356 3500 
L 2356 3053 
L 1172 3053 
L 1172 1153 
Q 1172 725 1289 603 
Q 1406 481 1766 481 
L 2356 481 
L 2356 0 
L 1766 0 
Q 1100 0 847 248 
Q 594 497 594 1153 
L 594 3053 
L 172 3053 
L 172 3500 
L 594 3500 
L 594 4494 
L 1172 4494 
z
" transform="scale(0.015625)"/>
       <path id="DejaVuSans-62" d="M 3116 1747 
Q 3116 2381 2855 2742 
Q 2594 3103 2138 3103 
Q 1681 3103 1420 2742 
Q 1159 2381 1159 1747 
Q 1159 1113 1420 752 
Q 1681 391 2138 391 
Q 2594 391 2855 752 
Q 3116 1113 3116 1747 
z
M 1159 2969 
Q 1341 3281 1617 3432 
Q 1894 3584 2278 3584 
Q 2916 3584 3314 3078 
Q 3713 2572 3713 1747 
Q 3713 922 3314 415 
Q 2916 -91 2278 -91 
Q 1894 -91 1617 61 
Q 1341 213 1159 525 
L 1159 0 
L 581 0 
L 581 4863 
L 1159 4863 
L 1159 2969 
z
" transform="scale(0.015625)"/>
       <path id="DejaVuSans-68" d="M 3513 2113 
L 3513 0 
L 2938 0 
L 2938 2094 
Q 2938 2591 2744 2837 
Q 2550 3084 2163 3084 
Q 1697 3084 1428 2787 
Q 1159 2491 1159 1978 
L 1159 0 
L 581 0 
L 581 4863 
L 1159 4863 
L 1159 2956 
Q 1366 3272 1645 3428 
Q 1925 3584 2291 3584 
Q 2894 3584 3203 3211 
Q 3513 2838 3513 2113 
z
" transform="scale(0.015625)"/>
       <path id="DejaVuSans-64" d="M 2906 2969 
L 2906 4863 
L 3481 4863 
L 3481 0 
L 2906 0 
L 2906 525 
Q 2725 213 2448 61 
Q 2172 -91 1784 -91 
Q 1150 -91 751 415 
Q 353 922 353 1747 
Q 353 2572 751 3078 
Q 1150 3584 1784 3584 
Q 2172 3584 2448 3432 
Q 2725 3281 2906 2969 
z
M 947 1747 
Q 947 1113 1208 752 
Q 1469 391 1925 391 
Q 2381 391 2643 752 
Q 2906 1113 2906 1747 
Q 2906 2381 2643 2742 
Q 2381 3103 1925 3103 
Q 1469 3103 1208 2742 
Q 947 2381 947 1747 
z
" transform="scale(0.015625)"/>
       <path id="DejaVuSans-65" d="M 3597 1894 
L 3597 1613 
L 953 1613 
Q 991 1019 1311 708 
Q 1631 397 2203 397 
Q 2534 397 2845 478 
Q 3156 559 3463 722 
L 3463 178 
Q 3153 47 2828 -22 
Q 2503 -91 2169 -91 
Q 1331 -91 842 396 
Q 353 884 353 1716 
Q 353 2575 817 3079 
Q 1281 3584 2069 3584 
Q 2775 3584 3186 3129 
Q 3597 2675 3597 1894 
z
M 3022 2063 
Q 3016 2534 2758 2815 
Q 2500 3097 2075 3097 
Q 1594 3097 1305 2825 
Q 1016 2553 972 2059 
L 3022 2063 
z
" transform="scale(0.015625)"/>
       <path id="DejaVuSans-6d" d="M 3328 2828 
Q 3544 3216 3844 3400 
Q 4144 3584 4550 3584 
Q 5097 3584 5394 3201 
Q 5691 2819 5691 2113 
L 5691 0 
L 5113 0 
L 5113 2094 
Q 5113 2597 4934 2840 
Q 4756 3084 4391 3084 
Q 3944 3084 3684 2787 
Q 3425 2491 3425 1978 
L 3425 0 
L 2847 0 
L 2847 2094 
Q 2847 2600 2669 2842 
Q 2491 3084 2119 3084 
Q 1678 3084 1418 2786 
Q 1159 2488 1159 1978 
L 1159 0 
L 581 0 
L 581 3500 
L 1159 3500 
L 1159 2956 
Q 1356 3278 1631 3431 
Q 1906 3584 2284 3584 
Q 2666 3584 2933 3390 
Q 3200 3197 3328 2828 
z
" transform="scale(0.015625)"/>
       <path id="DejaVuSans-32" d="M 1228 531 
L 3431 531 
L 3431 0 
L 469 0 
L 469 531 
Q 828 903 1448 1529 
Q 2069 2156 2228 2338 
Q 2531 2678 2651 2914 
Q 2772 3150 2772 3378 
Q 2772 3750 2511 3984 
Q 2250 4219 1831 4219 
Q 1534 4219 1204 4116 
Q 875 4013 500 3803 
L 500 4441 
Q 881 4594 1212 4672 
Q 1544 4750 1819 4750 
Q 2544 4750 2975 4387 
Q 3406 4025 3406 3419 
Q 3406 3131 3298 2873 
Q 3191 2616 2906 2266 
Q 2828 2175 2409 1742 
Q 1991 1309 1228 531 
z
" transform="scale(0.015625)"/>
       <path id="DejaVuSans-28" d="M 1984 4856 
Q 1566 4138 1362 3434 
Q 1159 2731 1159 2009 
Q 1159 1288 1364 580 
Q 1569 -128 1984 -844 
L 1484 -844 
Q 1016 -109 783 600 
Q 550 1309 550 2009 
Q 550 2706 781 3412 
Q 1013 4119 1484 4856 
L 1984 4856 
z
" transform="scale(0.015625)"/>
       <path id="DejaVuSans-55" d="M 556 4666 
L 1191 4666 
L 1191 1831 
Q 1191 1081 1462 751 
Q 1734 422 2344 422 
Q 2950 422 3222 751 
Q 3494 1081 3494 1831 
L 3494 4666 
L 4128 4666 
L 4128 1753 
Q 4128 841 3676 375 
Q 3225 -91 2344 -91 
Q 1459 -91 1007 375 
Q 556 841 556 1753 
L 556 4666 
z
" transform="scale(0.015625)"/>
       <path id="DejaVuSans-53" d="M 3425 4513 
L 3425 3897 
Q 3066 4069 2747 4153 
Q 2428 4238 2131 4238 
Q 1616 4238 1336 4038 
Q 1056 3838 1056 3469 
Q 1056 3159 1242 3001 
Q 1428 2844 1947 2747 
L 2328 2669 
Q 3034 2534 3370 2195 
Q 3706 1856 3706 1288 
Q 3706 609 3251 259 
Q 2797 -91 1919 -91 
Q 1588 -91 1214 -16 
Q 841 59 441 206 
L 441 856 
Q 825 641 1194 531 
Q 1563 422 1919 422 
Q 2459 422 2753 634 
Q 3047 847 3047 1241 
Q 3047 1584 2836 1778 
Q 2625 1972 2144 2069 
L 1759 2144 
Q 1053 2284 737 2584 
Q 422 2884 422 3419 
Q 422 4038 858 4394 
Q 1294 4750 2059 4750 
Q 2388 4750 2728 4690 
Q 3069 4631 3425 4513 
z
" transform="scale(0.015625)"/>
       <path id="DejaVuSans-24" d="M 2163 -941 
L 1850 -941 
L 1847 0 
Q 1519 6 1191 76 
Q 863 147 531 288 
L 531 850 
Q 850 650 1176 548 
Q 1503 447 1850 444 
L 1850 1869 
Q 1159 1981 845 2250 
Q 531 2519 531 2988 
Q 531 3497 872 3790 
Q 1213 4084 1850 4128 
L 1850 4863 
L 2163 4863 
L 2163 4138 
Q 2453 4125 2725 4076 
Q 2997 4028 3256 3944 
L 3256 3397 
Q 2997 3528 2723 3600 
Q 2450 3672 2163 3684 
L 2163 2350 
Q 2872 2241 3206 1959 
Q 3541 1678 3541 1191 
Q 3541 663 3186 358 
Q 2831 53 2163 6 
L 2163 -941 
z
M 1850 2406 
L 1850 3688 
Q 1488 3647 1297 3481 
Q 1106 3316 1106 3041 
Q 1106 2772 1282 2622 
Q 1459 2472 1850 2406 
z
M 2163 1806 
L 2163 453 
Q 2559 506 2761 678 
Q 2963 850 2963 1131 
Q 2963 1406 2770 1568 
Q 2578 1731 2163 1806 
z
" transform="scale(0.015625)"/>
       <path id="DejaVuSans-43" d="M 4122 4306 
L 4122 3641 
Q 3803 3938 3442 4084 
Q 3081 4231 2675 4231 
Q 1875 4231 1450 3742 
Q 1025 3253 1025 2328 
Q 1025 1406 1450 917 
Q 1875 428 2675 428 
Q 3081 428 3442 575 
Q 3803 722 4122 1019 
L 4122 359 
Q 3791 134 3420 21 
Q 3050 -91 2638 -91 
Q 1578 -91 968 557 
Q 359 1206 359 2328 
Q 359 3453 968 4101 
Q 1578 4750 2638 4750 
Q 3056 4750 3426 4639 
Q 3797 4528 4122 4306 
z
" transform="scale(0.015625)"/>
       <path id="DejaVuSans-2c" d="M 750 794 
L 1409 794 
L 1409 256 
L 897 -744 
L 494 -744 
L 750 256 
L 750 794 
z
" transform="scale(0.015625)"/>
       <path id="DejaVuSans-73" d="M 2834 3397 
L 2834 2853 
Q 2591 2978 2328 3040 
Q 2066 3103 1784 3103 
Q 1356 3103 1142 2972 
Q 928 2841 928 2578 
Q 928 2378 1081 2264 
Q 1234 2150 1697 2047 
L 1894 2003 
Q 2506 1872 2764 1633 
Q 3022 1394 3022 966 
Q 3022 478 2636 193 
Q 2250 -91 1575 -91 
Q 1294 -91 989 -36 
Q 684 19 347 128 
L 347 722 
Q 666 556 975 473 
Q 1284 391 1588 391 
Q 1994 391 2212 530 
Q 2431 669 2431 922 
Q 2431 1156 2273 1281 
Q 2116 1406 1581 1522 
L 1381 1569 
Q 847 1681 609 1914 
Q 372 2147 372 2553 
Q 372 3047 722 3315 
Q 1072 3584 1716 3584 
Q 2034 3584 2315 3537 
Q 2597 3491 2834 3397 
z
" transform="scale(0.015625)"/>
       <path id="DejaVuSans-67" d="M 2906 1791 
Q 2906 2416 2648 2759 
Q 2391 3103 1925 3103 
Q 1463 3103 1205 2759 
Q 947 2416 947 1791 
Q 947 1169 1205 825 
Q 1463 481 1925 481 
Q 2391 481 2648 825 
Q 2906 1169 2906 1791 
z
M 3481 434 
Q 3481 -459 3084 -895 
Q 2688 -1331 1869 -1331 
Q 1566 -1331 1297 -1286 
Q 1028 -1241 775 -1147 
L 775 -588 
Q 1028 -725 1275 -790 
Q 1522 -856 1778 -856 
Q 2344 -856 2625 -561 
Q 2906 -266 2906 331 
L 2906 616 
Q 2728 306 2450 153 
Q 2172 0 1784 0 
Q 1141 0 747 490 
Q 353 981 353 1791 
Q 353 2603 747 3093 
Q 1141 3584 1784 3584 
Q 2172 3584 2450 3431 
Q 2728 3278 2906 2969 
L 2906 3500 
L 3481 3500 
L 3481 434 
z
" transform="scale(0.015625)"/>
       <path id="DejaVuSans-29" d="M 513 4856 
L 1013 4856 
Q 1481 4119 1714 3412 
Q 1947 2706 1947 2009 
Q 1947 1309 1714 600 
Q 1481 -109 1013 -844 
L 513 -844 
Q 928 -128 1133 580 
Q 1338 1288 1338 2009 
Q 1338 2731 1133 3434 
Q 928 4138 513 4856 
z
" transform="scale(0.015625)"/>
      </defs>
      <use xlink:href="#DejaVuSans-50"/>
      <use xlink:href="#DejaVuSans-49" transform="translate(60.302734 0)"/>
      <use xlink:href="#DejaVuSans-42" transform="translate(89.794922 0)"/>
      <use xlink:href="#DejaVuSans-20" transform="translate(158.398438 0)"/>
      <use xlink:href="#DejaVuSans-69" transform="translate(190.185547 0)"/>
      <use xlink:href="#DejaVuSans-6e" transform="translate(217.96875 0)"/>
      <use xlink:href="#DejaVuSans-69" transform="translate(281.347656 0)"/>
      <use xlink:href="#DejaVuSans-63" transform="translate(309.130859 0)"/>
      <use xlink:href="#DejaVuSans-69" transform="translate(364.111328 0)"/>
      <use xlink:href="#DejaVuSans-61" transform="translate(391.894531 0)"/>
      <use xlink:href="#DejaVuSans-6c" transform="translate(453.173828 0)"/>
      <use xlink:href="#DejaVuSans-20" transform="translate(480.957031 0)"/>
      <use xlink:href="#DejaVuSans-70" transform="translate(512.744141 0)"/>
      <use xlink:href="#DejaVuSans-6f" transform="translate(576.220703 0)"/>
      <use xlink:href="#DejaVuSans-72" transform="translate(637.402344 0)"/>
      <use xlink:href="#DejaVuSans-20" transform="translate(678.515625 0)"/>
      <use xlink:href="#DejaVuSans-74" transform="translate(710.302734 0)"/>
      <use xlink:href="#DejaVuSans-72" transform="translate(749.511719 0)"/>
      <use xlink:href="#DejaVuSans-61" transform="translate(790.625 0)"/>
      <use xlink:href="#DejaVuSans-62" transform="translate(851.904297 0)"/>
      <use xlink:href="#DejaVuSans-61" transform="translate(915.380859 0)"/>
      <use xlink:href="#DejaVuSans-6c" transform="translate(976.660156 0)"/>
      <use xlink:href="#DejaVuSans-68" transform="translate(1004.443359 0)"/>
      <use xlink:href="#DejaVuSans-61" transform="translate(1067.822266 0)"/>
      <use xlink:href="#DejaVuSans-64" transform="translate(1129.101562 0)"/>
      <use xlink:href="#DejaVuSans-6f" transform="translate(1192.578125 0)"/>
      <use xlink:href="#DejaVuSans-72" transform="translate(1253.759766 0)"/>
      <use xlink:href="#DejaVuSans-20" transform="translate(1294.873047 0)"/>
      <use xlink:href="#DejaVuSans-65" transform="translate(1326.660156 0)"/>
      <use xlink:href="#DejaVuSans-6d" transform="translate(1388.183594 0)"/>
      <use xlink:href="#DejaVuSans-20" transform="translate(1485.595703 0)"/>
      <use xlink:href="#DejaVuSans-32" transform="translate(1517.382812 0)"/>
      <use xlink:href="#DejaVuSans-30" transform="translate(1581.005859 0)"/>
      <use xlink:href="#DejaVuSans-30" transform="translate(1644.628906 0)"/>
      <use xlink:href="#DejaVuSans-30" transform="translate(1708.251953 0)"/>
      <use xlink:href="#DejaVuSans-20" transform="translate(1771.875 0)"/>
      <use xlink:href="#DejaVuSans-28" transform="translate(1803.662109 0)"/>
      <use xlink:href="#DejaVuSans-55" transform="translate(1842.675781 0)"/>
      <use xlink:href="#DejaVuSans-53" transform="translate(1915.869141 0)"/>
      <use xlink:href="#DejaVuSans-24" transform="translate(1979.345703 0)"/>
      <use xlink:href="#DejaVuSans-20" transform="translate(2042.96875 0)"/>
      <use xlink:href="#DejaVuSans-6d" transform="translate(2074.755859 0)"/>
      <use xlink:href="#DejaVuSans-69" transform="translate(2172.167969 0)"/>
      <use xlink:href="#DejaVuSans-6c" transform="translate(2199.951172 0)"/>
      <use xlink:href="#DejaVuSans-20" transform="translate(2227.734375 0)"/>
      <use xlink:href="#DejaVuSans-50" transform="translate(2259.521484 0)"/>
      <use xlink:href="#DejaVuSans-50" transform="translate(2319.824219 0)"/>
      <use xlink:href="#DejaVuSans-43" transform="translate(2380.126953 0)"/>
      <use xlink:href="#DejaVuSans-2c" transform="translate(2449.951172 0)"/>
      <use xlink:href="#DejaVuSans-20" transform="translate(2481.738281 0)"/>
      <use xlink:href="#DejaVuSans-65" transform="translate(2513.525391 0)"/>
      <use xlink:href="#DejaVuSans-73" transform="translate(2575.048828 0)"/>
      <use xlink:href="#DejaVuSans-63" transform="translate(2627.148438 0)"/>
      <use xlink:href="#DejaVuSans-61" transform="translate(2682.128906 0)"/>
      <use xlink:href="#DejaVuSans-6c" transform="translate(2743.408203 0)"/>
      <use xlink:href="#DejaVuSans-61" transform="translate(2771.191406 0)"/>
      <use xlink:href="#DejaVuSans-20" transform="translate(2832.470703 0)"/>
      <use xlink:href="#DejaVuSans-6c" transform="translate(2864.257812 0)"/>
      <use xlink:href="#DejaVuSans-6f" transform="translate(2892.041016 0)"/>
      <use xlink:href="#DejaVuSans-67" transform="translate(2953.222656 0)"/>
      <use xlink:href="#DejaVuSans-29" transform="translate(3016.699219 0)"/>
     </g>
    </g>
   </g>
   <g id="matplotlib.axis_2">
    <g id="ytick_1">
     <g id="line2d_16">
      <path d="M 58.657429 299.769599 
L 627.156 299.769599 
" clip-path="url(#pce9d533652)" style="fill: none; stroke: #cecdc3; stroke-opacity: 0.9; stroke-width: 0.9; stroke-linecap: square"/>
     </g>
     <g id="line2d_17"/>
     <g id="text_4">
      <!-- 0% -->
      <g style="fill: #6f6e69" transform="translate(36.000163 303.758779) scale(0.105 -0.105)">
       <defs>
        <path id="DejaVuSans-25" d="M 4653 2053 
Q 4381 2053 4226 1822 
Q 4072 1591 4072 1178 
Q 4072 772 4226 539 
Q 4381 306 4653 306 
Q 4919 306 5073 539 
Q 5228 772 5228 1178 
Q 5228 1588 5073 1820 
Q 4919 2053 4653 2053 
z
M 4653 2450 
Q 5147 2450 5437 2106 
Q 5728 1763 5728 1178 
Q 5728 594 5436 251 
Q 5144 -91 4653 -91 
Q 4153 -91 3862 251 
Q 3572 594 3572 1178 
Q 3572 1766 3864 2108 
Q 4156 2450 4653 2450 
z
M 1428 4353 
Q 1159 4353 1004 4120 
Q 850 3888 850 3481 
Q 850 3069 1003 2837 
Q 1156 2606 1428 2606 
Q 1700 2606 1854 2837 
Q 2009 3069 2009 3481 
Q 2009 3884 1853 4118 
Q 1697 4353 1428 4353 
z
M 4250 4750 
L 4750 4750 
L 1831 -91 
L 1331 -91 
L 4250 4750 
z
M 1428 4750 
Q 1922 4750 2215 4408 
Q 2509 4066 2509 3481 
Q 2509 2891 2217 2550 
Q 1925 2209 1428 2209 
Q 931 2209 642 2551 
Q 353 2894 353 3481 
Q 353 4063 643 4406 
Q 934 4750 1428 4750 
z
" transform="scale(0.015625)"/>
       </defs>
       <use xlink:href="#DejaVuSans-30"/>
       <use xlink:href="#DejaVuSans-25" transform="translate(63.623047 0)"/>
      </g>
     </g>
    </g>
    <g id="ytick_2">
     <g id="line2d_18">
      <path d="M 58.657429 247.801382 
L 627.156 247.801382 
" clip-path="url(#pce9d533652)" style="fill: none; stroke: #cecdc3; stroke-opacity: 0.9; stroke-width: 0.9; stroke-linecap: square"/>
     </g>
     <g id="line2d_19"/>
     <g id="text_5">
      <!-- 2% -->
      <g style="fill: #6f6e69" transform="translate(36.000163 251.790562) scale(0.105 -0.105)">
       <use xlink:href="#DejaVuSans-32"/>
       <use xlink:href="#DejaVuSans-25" transform="translate(63.623047 0)"/>
      </g>
     </g>
    </g>
    <g id="ytick_3">
     <g id="line2d_20">
      <path d="M 58.657429 195.833165 
L 627.156 195.833165 
" clip-path="url(#pce9d533652)" style="fill: none; stroke: #cecdc3; stroke-opacity: 0.9; stroke-width: 0.9; stroke-linecap: square"/>
     </g>
     <g id="line2d_21"/>
     <g id="text_6">
      <!-- 4% -->
      <g style="fill: #6f6e69" transform="translate(36.000163 199.822345) scale(0.105 -0.105)">
       <defs>
        <path id="DejaVuSans-34" d="M 2419 4116 
L 825 1625 
L 2419 1625 
L 2419 4116 
z
M 2253 4666 
L 3047 4666 
L 3047 1625 
L 3713 1625 
L 3713 1100 
L 3047 1100 
L 3047 0 
L 2419 0 
L 2419 1100 
L 313 1100 
L 313 1709 
L 2253 4666 
z
" transform="scale(0.015625)"/>
       </defs>
       <use xlink:href="#DejaVuSans-34"/>
       <use xlink:href="#DejaVuSans-25" transform="translate(63.623047 0)"/>
      </g>
     </g>
    </g>
    <g id="ytick_4">
     <g id="line2d_22">
      <path d="M 58.657429 143.864948 
L 627.156 143.864948 
" clip-path="url(#pce9d533652)" style="fill: none; stroke: #cecdc3; stroke-opacity: 0.9; stroke-width: 0.9; stroke-linecap: square"/>
     </g>
     <g id="line2d_23"/>
     <g id="text_7">
      <!-- 6% -->
      <g style="fill: #6f6e69" transform="translate(36.000163 147.854128) scale(0.105 -0.105)">
       <defs>
        <path id="DejaVuSans-36" d="M 2113 2584 
Q 1688 2584 1439 2293 
Q 1191 2003 1191 1497 
Q 1191 994 1439 701 
Q 1688 409 2113 409 
Q 2538 409 2786 701 
Q 3034 994 3034 1497 
Q 3034 2003 2786 2293 
Q 2538 2584 2113 2584 
z
M 3366 4563 
L 3366 3988 
Q 3128 4100 2886 4159 
Q 2644 4219 2406 4219 
Q 1781 4219 1451 3797 
Q 1122 3375 1075 2522 
Q 1259 2794 1537 2939 
Q 1816 3084 2150 3084 
Q 2853 3084 3261 2657 
Q 3669 2231 3669 1497 
Q 3669 778 3244 343 
Q 2819 -91 2113 -91 
Q 1303 -91 875 529 
Q 447 1150 447 2328 
Q 447 3434 972 4092 
Q 1497 4750 2381 4750 
Q 2619 4750 2861 4703 
Q 3103 4656 3366 4563 
z
" transform="scale(0.015625)"/>
       </defs>
       <use xlink:href="#DejaVuSans-36"/>
       <use xlink:href="#DejaVuSans-25" transform="translate(63.623047 0)"/>
      </g>
     </g>
    </g>
    <g id="text_8">
     <!-- Crescimento anualizado 2000-2023 (%) -->
     <g style="fill: #1c1b1a" transform="translate(23.816491 316.86696) rotate(-90) scale(0.105 -0.105)">
      <defs>
       <path id="DejaVuSans-75" d="M 544 1381 
L 544 3500 
L 1119 3500 
L 1119 1403 
Q 1119 906 1312 657 
Q 1506 409 1894 409 
Q 2359 409 2629 706 
Q 2900 1003 2900 1516 
L 2900 3500 
L 3475 3500 
L 3475 0 
L 2900 0 
L 2900 538 
Q 2691 219 2414 64 
Q 2138 -91 1772 -91 
Q 1169 -91 856 284 
Q 544 659 544 1381 
z
M 1991 3584 
L 1991 3584 
z
" transform="scale(0.015625)"/>
       <path id="DejaVuSans-7a" d="M 353 3500 
L 3084 3500 
L 3084 2975 
L 922 459 
L 3084 459 
L 3084 0 
L 275 0 
L 275 525 
L 2438 3041 
L 353 3041 
L 353 3500 
z
" transform="scale(0.015625)"/>
       <path id="DejaVuSans-2d" d="M 313 2009 
L 1997 2009 
L 1997 1497 
L 313 1497 
L 313 2009 
z
" transform="scale(0.015625)"/>
       <path id="DejaVuSans-33" d="M 2597 2516 
Q 3050 2419 3304 2112 
Q 3559 1806 3559 1356 
Q 3559 666 3084 287 
Q 2609 -91 1734 -91 
Q 1441 -91 1130 -33 
Q 819 25 488 141 
L 488 750 
Q 750 597 1062 519 
Q 1375 441 1716 441 
Q 2309 441 2620 675 
Q 2931 909 2931 1356 
Q 2931 1769 2642 2001 
Q 2353 2234 1838 2234 
L 1294 2234 
L 1294 2753 
L 1863 2753 
Q 2328 2753 2575 2939 
Q 2822 3125 2822 3475 
Q 2822 3834 2567 4026 
Q 2313 4219 1838 4219 
Q 1578 4219 1281 4162 
Q 984 4106 628 3988 
L 628 4550 
Q 988 4650 1302 4700 
Q 1616 4750 1894 4750 
Q 2613 4750 3031 4423 
Q 3450 4097 3450 3541 
Q 3450 3153 3228 2886 
Q 3006 2619 2597 2516 
z
" transform="scale(0.015625)"/>
      </defs>
      <use xlink:href="#DejaVuSans-43"/>
      <use xlink:href="#DejaVuSans-72" transform="translate(69.824219 0)"/>
      <use xlink:href="#DejaVuSans-65" transform="translate(108.6875 0)"/>
      <use xlink:href="#DejaVuSans-73" transform="translate(170.210938 0)"/>
      <use xlink:href="#DejaVuSans-63" transform="translate(222.310547 0)"/>
      <use xlink:href="#DejaVuSans-69" transform="translate(277.291016 0)"/>
      <use xlink:href="#DejaVuSans-6d" transform="translate(305.074219 0)"/>
      <use xlink:href="#DejaVuSans-65" transform="translate(402.486328 0)"/>
      <use xlink:href="#DejaVuSans-6e" transform="translate(464.009766 0)"/>
      <use xlink:href="#DejaVuSans-74" transform="translate(527.388672 0)"/>
      <use xlink:href="#DejaVuSans-6f" transform="translate(566.597656 0)"/>
      <use xlink:href="#DejaVuSans-20" transform="translate(627.779297 0)"/>
      <use xlink:href="#DejaVuSans-61" transform="translate(659.566406 0)"/>
      <use xlink:href="#DejaVuSans-6e" transform="translate(720.845703 0)"/>
      <use xlink:href="#DejaVuSans-75" transform="translate(784.224609 0)"/>
      <use xlink:href="#DejaVuSans-61" transform="translate(847.603516 0)"/>
      <use xlink:href="#DejaVuSans-6c" transform="translate(908.882812 0)"/>
      <use xlink:href="#DejaVuSans-69" transform="translate(936.666016 0)"/>
      <use xlink:href="#DejaVuSans-7a" transform="translate(964.449219 0)"/>
      <use xlink:href="#DejaVuSans-61" transform="translate(1016.939453 0)"/>
      <use xlink:href="#DejaVuSans-64" transform="translate(1078.21875 0)"/>
      <use xlink:href="#DejaVuSans-6f" transform="translate(1141.695312 0)"/>
      <use xlink:href="#DejaVuSans-20" transform="translate(1202.876953 0)"/>
      <use xlink:href="#DejaVuSans-32" transform="translate(1234.664062 0)"/>
      <use xlink:href="#DejaVuSans-30" transform="translate(1298.287109 0)"/>
      <use xlink:href="#DejaVuSans-30" transform="translate(1361.910156 0)"/>
      <use xlink:href="#DejaVuSans-30" transform="translate(1425.533203 0)"/>
      <use xlink:href="#DejaVuSans-2d" transform="translate(1489.15625 0)"/>
      <use xlink:href="#DejaVuSans-32" transform="translate(1525.240234 0)"/>
      <use xlink:href="#DejaVuSans-30" transform="translate(1588.863281 0)"/>
      <use xlink:href="#DejaVuSans-32" transform="translate(1652.486328 0)"/>
      <use xlink:href="#DejaVuSans-33" transform="translate(1716.109375 0)"/>
      <use xlink:href="#DejaVuSans-20" transform="translate(1779.732422 0)"/>
      <use xlink:href="#DejaVuSans-28" transform="translate(1811.519531 0)"/>
      <use xlink:href="#DejaVuSans-25" transform="translate(1850.533203 0)"/>
      <use xlink:href="#DejaVuSans-29" transform="translate(1945.552734 0)"/>
     </g>
    </g>
   </g>
   <g id="line2d_24">
    <path d="M 84.498273 166.615816 
L 88.841272 167.92145 
L 93.184271 169.227084 
L 97.52727 170.532718 
L 101.870269 171.838352 
L 106.213268 173.143986 
L 110.556267 174.44962 
L 114.899266 175.755254 
L 119.242265 177.060888 
L 123.585264 178.366522 
L 127.928263 179.672156 
L 132.271262 180.97779 
L 136.614261 182.283424 
L 140.95726 183.589058 
L 145.300259 184.894692 
L 149.643258 186.200326 
L 153.986257 187.50596 
L 158.329256 188.811594 
L 162.672255 190.117228 
L 167.015254 191.422862 
L 171.358253 192.728496 
L 175.701252 194.03413 
L 180.044251 195.339764 
L 184.38725 196.645398 
L 188.730249 197.951032 
L 193.073248 199.256666 
L 197.416247 200.5623 
L 201.759246 201.867934 
L 206.102245 203.173567 
L 210.445244 204.479201 
L 214.788243 205.784835 
L 219.131242 207.090469 
L 223.474241 208.396103 
L 227.81724 209.701737 
L 232.160239 211.007371 
L 236.503238 212.313005 
L 240.846237 213.618639 
L 245.189236 214.924273 
L 249.532235 216.229907 
L 253.875234 217.535541 
L 258.218233 218.841175 
L 262.561232 220.146809 
L 266.904231 221.452443 
L 271.24723 222.758077 
L 275.59023 224.063711 
L 279.933229 225.369345 
L 284.276228 226.674979 
L 288.619227 227.980613 
L 292.962226 229.286247 
L 297.305225 230.591881 
L 301.648224 231.897515 
L 305.991223 233.203149 
L 310.334222 234.508783 
L 314.677221 235.814417 
L 319.02022 237.120051 
L 323.363219 238.425685 
L 327.706218 239.731319 
L 332.049217 241.036953 
L 336.392216 242.342587 
L 340.735215 243.648221 
L 345.078214 244.953855 
L 349.421213 246.259489 
L 353.764212 247.565123 
L 358.107211 248.870757 
L 362.45021 250.176391 
L 366.793209 251.482025 
L 371.136208 252.787659 
L 375.479207 254.093293 
L 379.822206 255.398927 
L 384.165205 256.704561 
L 388.508204 258.010195 
L 392.851203 259.315829 
L 397.194202 260.621463 
L 401.537201 261.927097 
L 405.8802 263.232731 
L 410.223199 264.538365 
L 414.566198 265.843999 
L 418.909197 267.149633 
L 423.252196 268.455267 
L 427.595195 269.760901 
L 431.938194 271.066534 
L 436.281193 272.372168 
L 440.624192 273.677802 
L 444.967191 274.983436 
L 449.31019 276.28907 
L 453.653189 277.594704 
L 457.996188 278.900338 
L 462.339187 280.205972 
L 466.682186 281.511606 
L 471.025185 282.81724 
L 475.368184 284.122874 
L 479.711183 285.428508 
L 484.054182 286.734142 
L 488.397181 288.039776 
L 492.74018 289.34541 
L 497.083179 290.651044 
L 501.426178 291.956678 
L 505.769177 293.262312 
L 510.112176 294.567946 
L 514.455175 295.87358 
L 518.798175 297.179214 
L 523.141174 298.484848 
L 527.484173 299.790482 
L 531.827172 301.096116 
L 536.170171 302.40175 
L 540.51317 303.707384 
L 544.856169 305.013018 
L 549.199168 306.318652 
L 553.542167 307.624286 
L 557.885166 308.92992 
L 562.228165 310.235554 
L 566.571164 311.541188 
L 570.914163 312.846822 
L 575.257162 314.152456 
L 579.600161 315.45809 
L 583.94316 316.763724 
L 588.286159 318.069358 
L 592.629158 319.374992 
L 596.972157 320.680626 
L 601.315156 321.98626 
" clip-path="url(#pce9d533652)" style="fill: none; stroke-dasharray: 1.6,2.64; stroke-dashoffset: 0; stroke: #6f6e69; stroke-width: 1.6"/>
   </g>
   <g id="patch_3">
    <path d="M 58.657429 332.917143 
L 58.657429 92.437714 
" style="fill: none; stroke: #cecdc3; stroke-width: 0.8; stroke-linejoin: miter; stroke-linecap: square"/>
   </g>
   <g id="patch_4">
    <path d="M 58.657429 332.917143 
L 627.156 332.917143 
" style="fill: none; stroke: #cecdc3; stroke-width: 0.8; stroke-linejoin: miter; stroke-linecap: square"/>
   </g>
   <g id="AnnotationBbox_1">
    <g id="patch_5">
     <path d="M 299.882632 271.660906 
Q 296.028866 272.899739 292.175101 274.138572 
" style="fill: none; opacity: 0.7; stroke: #6f6e69; stroke-linecap: round"/>
    </g>
    <g id="patch_6">
     <path d="M 300.275192 270.749317 
L 318.275192 270.749317 
L 318.275192 258.749317 
L 300.275192 258.749317 
z
" style="fill: #ffffff; stroke: #cecdc3; stroke-width: 0.45; stroke-linejoin: miter"/>
    </g>
    <g id="patch_7">
     <path d="M 300.275192 270.749317 
L 318.275192 270.749317 
L 318.275192 258.749317 
L 300.275192 258.749317 
z
" style="fill: #009b3a"/>
    </g>
    <g id="patch_8">
     <path d="M 309.275192 259.709317 
L 316.115192 264.749317 
L 309.275192 269.789317 
L 302.435192 264.749317 
z
" style="fill: #ffdf00"/>
    </g>
    <g id="patch_9">
     <path d="M 309.275192 267.149317 
C 309.911679 267.149317 310.522184 266.896438 310.972248 266.446374 
C 311.422313 265.996309 311.675192 265.385805 311.675192 264.749317 
C 311.675192 264.11283 311.422313 263.502326 310.972248 263.052261 
C 310.522184 262.602196 309.911679 262.349317 309.275192 262.349317 
C 308.638704 262.349317 308.0282 262.602196 307.578136 263.052261 
C 307.128071 263.502326 306.875192 264.11283 306.875192 264.749317 
C 306.875192 265.385805 307.128071 265.996309 307.578136 266.446374 
C 308.0282 266.896438 308.638704 267.149317 309.275192 267.149317 
z
" style="fill: #002776"/>
    </g>
    <g id="text_9">
     <!-- BRA -->
     <g style="fill: #2f968d" transform="translate(321.275192 269.826567) scale(0.092 -0.092)">
      <defs>
       <path id="DejaVuSans-Bold-42" d="M 2456 2859 
Q 2741 2859 2887 2984 
Q 3034 3109 3034 3353 
Q 3034 3594 2887 3720 
Q 2741 3847 2456 3847 
L 1791 3847 
L 1791 2859 
L 2456 2859 
z
M 2497 819 
Q 2859 819 3042 972 
Q 3225 1125 3225 1434 
Q 3225 1738 3044 1889 
Q 2863 2041 2497 2041 
L 1791 2041 
L 1791 819 
L 2497 819 
z
M 3616 2497 
Q 4003 2384 4215 2081 
Q 4428 1778 4428 1338 
Q 4428 663 3972 331 
Q 3516 0 2584 0 
L 588 0 
L 588 4666 
L 2394 4666 
Q 3366 4666 3802 4372 
Q 4238 4078 4238 3431 
Q 4238 3091 4078 2852 
Q 3919 2613 3616 2497 
z
" transform="scale(0.015625)"/>
       <path id="DejaVuSans-Bold-52" d="M 2297 2597 
Q 2675 2597 2839 2737 
Q 3003 2878 3003 3200 
Q 3003 3519 2839 3656 
Q 2675 3794 2297 3794 
L 1791 3794 
L 1791 2597 
L 2297 2597 
z
M 1791 1766 
L 1791 0 
L 588 0 
L 588 4666 
L 2425 4666 
Q 3347 4666 3776 4356 
Q 4206 4047 4206 3378 
Q 4206 2916 3982 2619 
Q 3759 2322 3309 2181 
Q 3556 2125 3751 1926 
Q 3947 1728 4147 1325 
L 4800 0 
L 3519 0 
L 2950 1159 
Q 2778 1509 2601 1637 
Q 2425 1766 2131 1766 
L 1791 1766 
z
" transform="scale(0.015625)"/>
       <path id="DejaVuSans-Bold-41" d="M 3419 850 
L 1538 850 
L 1241 0 
L 31 0 
L 1759 4666 
L 3194 4666 
L 4922 0 
L 3713 0 
L 3419 850 
z
M 1838 1716 
L 3116 1716 
L 2478 3572 
L 1838 1716 
z
" transform="scale(0.015625)"/>
      </defs>
      <use xlink:href="#DejaVuSans-Bold-42"/>
      <use xlink:href="#DejaVuSans-Bold-52" transform="translate(76.220703 0)"/>
      <use xlink:href="#DejaVuSans-Bold-41" transform="translate(153.222656 0)"/>
     </g>
    </g>
   </g>
   <g id="legend_1">
    <g id="patch_10">
     <path d="M 521.915297 160.870371 
L 615.756 160.870371 
Q 617.656 160.870371 617.656 158.970371 
L 617.656 103.837714 
Q 617.656 101.937714 615.756 101.937714 
L 521.915297 101.937714 
Q 520.015297 101.937714 520.015297 103.837714 
L 520.015297 158.970371 
Q 520.015297 160.870371 521.915297 160.870371 
z
" style="fill: #fffcf0; opacity: 0.96; stroke: #cecdc3; stroke-width: 0.8; stroke-linejoin: miter"/>
    </g>
    <g id="line2d_25">
     <path d="M 527.140297 112.95623 
L 540.440297 112.95623 
L 553.740297 112.95623 
" style="fill: none; stroke-dasharray: 1.6,2.64; stroke-dashoffset: 0; stroke: #6f6e69; stroke-width: 1.6"/>
    </g>
    <g id="text_10">
     <!-- Tendência -->
     <g style="fill: #1c1b1a" transform="translate(561.340297 116.28123) scale(0.095 -0.095)">
      <defs>
       <path id="DejaVuSans-54" d="M -19 4666 
L 3928 4666 
L 3928 4134 
L 2272 4134 
L 2272 0 
L 1638 0 
L 1638 4134 
L -19 4134 
L -19 4666 
z
" transform="scale(0.015625)"/>
       <path id="DejaVuSans-ea" d="M 3597 1894 
L 3597 1613 
L 953 1613 
Q 991 1019 1311 708 
Q 1631 397 2203 397 
Q 2534 397 2845 478 
Q 3156 559 3463 722 
L 3463 178 
Q 3153 47 2828 -22 
Q 2503 -91 2169 -91 
Q 1331 -91 842 396 
Q 353 884 353 1716 
Q 353 2575 817 3079 
Q 1281 3584 2069 3584 
Q 2775 3584 3186 3129 
Q 3597 2675 3597 1894 
z
M 3022 2063 
Q 3016 2534 2758 2815 
Q 2500 3097 2075 3097 
Q 1594 3097 1305 2825 
Q 1016 2553 972 2059 
L 3022 2063 
z
M 1801 5119 
L 2263 5119 
L 3029 3944 
L 2595 3944 
L 2032 4709 
L 1470 3944 
L 1035 3944 
L 1801 5119 
z
" transform="scale(0.015625)"/>
      </defs>
      <use xlink:href="#DejaVuSans-54"/>
      <use xlink:href="#DejaVuSans-65" transform="translate(44.083984 0)"/>
      <use xlink:href="#DejaVuSans-6e" transform="translate(105.607422 0)"/>
      <use xlink:href="#DejaVuSans-64" transform="translate(168.986328 0)"/>
      <use xlink:href="#DejaVuSans-ea" transform="translate(232.462891 0)"/>
      <use xlink:href="#DejaVuSans-6e" transform="translate(293.986328 0)"/>
      <use xlink:href="#DejaVuSans-63" transform="translate(357.365234 0)"/>
      <use xlink:href="#DejaVuSans-69" transform="translate(412.345703 0)"/>
      <use xlink:href="#DejaVuSans-61" transform="translate(440.128906 0)"/>
     </g>
    </g>
    <g id="PathCollection_4">
     <defs>
      <path id="m6f22f3dc51" d="M 0 3 
C 0.795609 3 1.55874 2.683901 2.12132 2.12132 
C 2.683901 1.55874 3 0.795609 3 0 
C 3 -0.795609 2.683901 -1.55874 2.12132 -2.12132 
C 1.55874 -2.683901 0.795609 -3 0 -3 
C -0.795609 -3 -1.55874 -2.683901 -2.12132 -2.12132 
C -2.683901 -1.55874 -3 -0.795609 -3 0 
C -3 0.795609 -2.683901 1.55874 -2.12132 2.12132 
C -1.55874 2.683901 -0.795609 3 0 3 
z
" style="stroke: #3aa99f; stroke-width: 0.6"/>
     </defs>
     <g>
      <use xlink:href="#m6f22f3dc51" x="540.440297" y="131.531699" style="fill: #3aa99f; stroke: #3aa99f; stroke-width: 0.6"/>
     </g>
    </g>
    <g id="text_11">
     <!-- Não OCDE -->
     <g style="fill: #1c1b1a" transform="translate(561.340297 134.025449) scale(0.095 -0.095)">
      <defs>
       <path id="DejaVuSans-4e" d="M 628 4666 
L 1478 4666 
L 3547 763 
L 3547 4666 
L 4159 4666 
L 4159 0 
L 3309 0 
L 1241 3903 
L 1241 0 
L 628 0 
L 628 4666 
z
" transform="scale(0.015625)"/>
       <path id="DejaVuSans-e3" d="M 2194 1759 
Q 1497 1759 1228 1600 
Q 959 1441 959 1056 
Q 959 750 1161 570 
Q 1363 391 1709 391 
Q 2188 391 2477 730 
Q 2766 1069 2766 1631 
L 2766 1759 
L 2194 1759 
z
M 3341 1997 
L 3341 0 
L 2766 0 
L 2766 531 
Q 2569 213 2275 61 
Q 1981 -91 1556 -91 
Q 1019 -91 701 211 
Q 384 513 384 1019 
Q 384 1609 779 1909 
Q 1175 2209 1959 2209 
L 2766 2209 
L 2766 2266 
Q 2766 2663 2505 2880 
Q 2244 3097 1772 3097 
Q 1472 3097 1187 3025 
Q 903 2953 641 2809 
L 641 3341 
Q 956 3463 1253 3523 
Q 1550 3584 1831 3584 
Q 2591 3584 2966 3190 
Q 3341 2797 3341 1997 
z
M 1844 4281 
L 1665 4453 
Q 1597 4516 1545 4545 
Q 1494 4575 1453 4575 
Q 1334 4575 1278 4461 
Q 1222 4347 1215 4091 
L 825 4091 
Q 831 4513 990 4742 
Q 1150 4972 1434 4972 
Q 1553 4972 1653 4928 
Q 1753 4884 1869 4781 
L 2047 4609 
Q 2115 4547 2167 4517 
Q 2219 4488 2259 4488 
Q 2378 4488 2434 4602 
Q 2490 4716 2497 4972 
L 2887 4972 
Q 2881 4550 2721 4320 
Q 2562 4091 2278 4091 
Q 2159 4091 2059 4134 
Q 1959 4178 1844 4281 
z
" transform="scale(0.015625)"/>
       <path id="DejaVuSans-4f" d="M 2522 4238 
Q 1834 4238 1429 3725 
Q 1025 3213 1025 2328 
Q 1025 1447 1429 934 
Q 1834 422 2522 422 
Q 3209 422 3611 934 
Q 4013 1447 4013 2328 
Q 4013 3213 3611 3725 
Q 3209 4238 2522 4238 
z
M 2522 4750 
Q 3503 4750 4090 4092 
Q 4678 3434 4678 2328 
Q 4678 1225 4090 567 
Q 3503 -91 2522 -91 
Q 1538 -91 948 565 
Q 359 1222 359 2328 
Q 359 3434 948 4092 
Q 1538 4750 2522 4750 
z
" transform="scale(0.015625)"/>
       <path id="DejaVuSans-44" d="M 1259 4147 
L 1259 519 
L 2022 519 
Q 2988 519 3436 956 
Q 3884 1394 3884 2338 
Q 3884 3275 3436 3711 
Q 2988 4147 2022 4147 
L 1259 4147 
z
M 628 4666 
L 1925 4666 
Q 3281 4666 3915 4102 
Q 4550 3538 4550 2338 
Q 4550 1131 3912 565 
Q 3275 0 1925 0 
L 628 0 
L 628 4666 
z
" transform="scale(0.015625)"/>
       <path id="DejaVuSans-45" d="M 628 4666 
L 3578 4666 
L 3578 4134 
L 1259 4134 
L 1259 2753 
L 3481 2753 
L 3481 2222 
L 1259 2222 
L 1259 531 
L 3634 531 
L 3634 0 
L 628 0 
L 628 4666 
z
" transform="scale(0.015625)"/>
      </defs>
      <use xlink:href="#DejaVuSans-4e"/>
      <use xlink:href="#DejaVuSans-e3" transform="translate(74.804688 0)"/>
      <use xlink:href="#DejaVuSans-6f" transform="translate(136.083984 0)"/>
      <use xlink:href="#DejaVuSans-20" transform="translate(197.265625 0)"/>
      <use xlink:href="#DejaVuSans-4f" transform="translate(229.052734 0)"/>
      <use xlink:href="#DejaVuSans-43" transform="translate(307.763672 0)"/>
      <use xlink:href="#DejaVuSans-44" transform="translate(377.587891 0)"/>
      <use xlink:href="#DejaVuSans-45" transform="translate(454.589844 0)"/>
     </g>
    </g>
    <g id="PathCollection_5">
     <defs>
      <path id="m2fb917828b" d="M 0 3 
C 0.795609 3 1.55874 2.683901 2.12132 2.12132 
C 2.683901 1.55874 3 0.795609 3 0 
C 3 -0.795609 2.683901 -1.55874 2.12132 -2.12132 
C 1.55874 -2.683901 0.795609 -3 0 -3 
C -0.795609 -3 -1.55874 -2.683901 -2.12132 -2.12132 
C -2.683901 -1.55874 -3 -0.795609 -3 0 
C -3 0.795609 -2.683901 1.55874 -2.12132 2.12132 
C -1.55874 2.683901 -0.795609 3 0 3 
z
" style="stroke: #da702c; stroke-width: 0.6"/>
     </defs>
     <g>
      <use xlink:href="#m2fb917828b" x="540.440297" y="149.275917" style="fill: #da702c; stroke: #da702c; stroke-width: 0.6"/>
     </g>
    </g>
    <g id="text_12">
     <!-- OCDE -->
     <g style="fill: #1c1b1a" transform="translate(561.340297 151.769667) scale(0.095 -0.095)">
      <use xlink:href="#DejaVuSans-4f"/>
      <use xlink:href="#DejaVuSans-43" transform="translate(78.710938 0)"/>
      <use xlink:href="#DejaVuSans-44" transform="translate(148.535156 0)"/>
      <use xlink:href="#DejaVuSans-45" transform="translate(225.537109 0)"/>
     </g>
    </g>
   </g>
  </g>
  <g id="text_13">
   <!-- Convergência condicional: OCDE versus resto do mundo -->
   <g style="fill: #1c1b1a" transform="translate(14.4 27.1975) scale(0.16 -0.16)">
    <defs>
     <path id="DejaVuSans-Bold-43" d="M 4288 256 
Q 3956 84 3597 -3 
Q 3238 -91 2847 -91 
Q 1681 -91 1000 561 
Q 319 1213 319 2328 
Q 319 3447 1000 4098 
Q 1681 4750 2847 4750 
Q 3238 4750 3597 4662 
Q 3956 4575 4288 4403 
L 4288 3438 
Q 3953 3666 3628 3772 
Q 3303 3878 2944 3878 
Q 2300 3878 1931 3465 
Q 1563 3053 1563 2328 
Q 1563 1606 1931 1193 
Q 2300 781 2944 781 
Q 3303 781 3628 887 
Q 3953 994 4288 1222 
L 4288 256 
z
" transform="scale(0.015625)"/>
     <path id="DejaVuSans-Bold-6f" d="M 2203 2784 
Q 1831 2784 1636 2517 
Q 1441 2250 1441 1747 
Q 1441 1244 1636 976 
Q 1831 709 2203 709 
Q 2569 709 2762 976 
Q 2956 1244 2956 1747 
Q 2956 2250 2762 2517 
Q 2569 2784 2203 2784 
z
M 2203 3584 
Q 3106 3584 3614 3096 
Q 4122 2609 4122 1747 
Q 4122 884 3614 396 
Q 3106 -91 2203 -91 
Q 1297 -91 786 396 
Q 275 884 275 1747 
Q 275 2609 786 3096 
Q 1297 3584 2203 3584 
z
" transform="scale(0.015625)"/>
     <path id="DejaVuSans-Bold-6e" d="M 4056 2131 
L 4056 0 
L 2931 0 
L 2931 347 
L 2931 1631 
Q 2931 2084 2911 2256 
Q 2891 2428 2841 2509 
Q 2775 2619 2662 2680 
Q 2550 2741 2406 2741 
Q 2056 2741 1856 2470 
Q 1656 2200 1656 1722 
L 1656 0 
L 538 0 
L 538 3500 
L 1656 3500 
L 1656 2988 
Q 1909 3294 2193 3439 
Q 2478 3584 2822 3584 
Q 3428 3584 3742 3212 
Q 4056 2841 4056 2131 
z
" transform="scale(0.015625)"/>
     <path id="DejaVuSans-Bold-76" d="M 97 3500 
L 1216 3500 
L 2088 1081 
L 2956 3500 
L 4078 3500 
L 2700 0 
L 1472 0 
L 97 3500 
z
" transform="scale(0.015625)"/>
     <path id="DejaVuSans-Bold-65" d="M 4031 1759 
L 4031 1441 
L 1416 1441 
Q 1456 1047 1700 850 
Q 1944 653 2381 653 
Q 2734 653 3104 758 
Q 3475 863 3866 1075 
L 3866 213 
Q 3469 63 3072 -14 
Q 2675 -91 2278 -91 
Q 1328 -91 801 392 
Q 275 875 275 1747 
Q 275 2603 792 3093 
Q 1309 3584 2216 3584 
Q 3041 3584 3536 3087 
Q 4031 2591 4031 1759 
z
M 2881 2131 
Q 2881 2450 2695 2645 
Q 2509 2841 2209 2841 
Q 1884 2841 1681 2658 
Q 1478 2475 1428 2131 
L 2881 2131 
z
" transform="scale(0.015625)"/>
     <path id="DejaVuSans-Bold-72" d="M 3138 2547 
Q 2991 2616 2845 2648 
Q 2700 2681 2553 2681 
Q 2122 2681 1889 2404 
Q 1656 2128 1656 1613 
L 1656 0 
L 538 0 
L 538 3500 
L 1656 3500 
L 1656 2925 
Q 1872 3269 2151 3426 
Q 2431 3584 2822 3584 
Q 2878 3584 2943 3579 
Q 3009 3575 3134 3559 
L 3138 2547 
z
" transform="scale(0.015625)"/>
     <path id="DejaVuSans-Bold-67" d="M 2919 594 
Q 2688 288 2409 144 
Q 2131 0 1766 0 
Q 1125 0 706 504 
Q 288 1009 288 1791 
Q 288 2575 706 3076 
Q 1125 3578 1766 3578 
Q 2131 3578 2409 3434 
Q 2688 3291 2919 2981 
L 2919 3500 
L 4044 3500 
L 4044 353 
Q 4044 -491 3511 -936 
Q 2978 -1381 1966 -1381 
Q 1638 -1381 1331 -1331 
Q 1025 -1281 716 -1178 
L 716 -306 
Q 1009 -475 1290 -558 
Q 1572 -641 1856 -641 
Q 2406 -641 2662 -400 
Q 2919 -159 2919 353 
L 2919 594 
z
M 2181 2772 
Q 1834 2772 1640 2515 
Q 1447 2259 1447 1791 
Q 1447 1309 1634 1061 
Q 1822 813 2181 813 
Q 2531 813 2725 1069 
Q 2919 1325 2919 1791 
Q 2919 2259 2725 2515 
Q 2531 2772 2181 2772 
z
" transform="scale(0.015625)"/>
     <path id="DejaVuSans-Bold-ea" d="M 4031 1759 
L 4031 1441 
L 1416 1441 
Q 1456 1047 1700 850 
Q 1944 653 2381 653 
Q 2734 653 3104 758 
Q 3475 863 3866 1075 
L 3866 213 
Q 3469 63 3072 -14 
Q 2675 -91 2278 -91 
Q 1328 -91 801 392 
Q 275 875 275 1747 
Q 275 2603 792 3093 
Q 1309 3584 2216 3584 
Q 3041 3584 3536 3087 
Q 4031 2591 4031 1759 
z
M 2881 2131 
Q 2881 2450 2695 2645 
Q 2509 2841 2209 2841 
Q 1884 2841 1681 2658 
Q 1478 2475 1428 2131 
L 2881 2131 
z
M 1902 5119 
L 2658 5119 
L 3458 3944 
L 2902 3944 
L 2280 4647 
L 1658 3944 
L 1102 3944 
L 1902 5119 
z
" transform="scale(0.015625)"/>
     <path id="DejaVuSans-Bold-63" d="M 3366 3391 
L 3366 2478 
Q 3138 2634 2908 2709 
Q 2678 2784 2431 2784 
Q 1963 2784 1702 2511 
Q 1441 2238 1441 1747 
Q 1441 1256 1702 982 
Q 1963 709 2431 709 
Q 2694 709 2930 787 
Q 3166 866 3366 1019 
L 3366 103 
Q 3103 6 2833 -42 
Q 2563 -91 2291 -91 
Q 1344 -91 809 395 
Q 275 881 275 1747 
Q 275 2613 809 3098 
Q 1344 3584 2291 3584 
Q 2566 3584 2833 3536 
Q 3100 3488 3366 3391 
z
" transform="scale(0.015625)"/>
     <path id="DejaVuSans-Bold-69" d="M 538 3500 
L 1656 3500 
L 1656 0 
L 538 0 
L 538 3500 
z
M 538 4863 
L 1656 4863 
L 1656 3950 
L 538 3950 
L 538 4863 
z
" transform="scale(0.015625)"/>
     <path id="DejaVuSans-Bold-61" d="M 2106 1575 
Q 1756 1575 1579 1456 
Q 1403 1338 1403 1106 
Q 1403 894 1545 773 
Q 1688 653 1941 653 
Q 2256 653 2472 879 
Q 2688 1106 2688 1447 
L 2688 1575 
L 2106 1575 
z
M 3816 1997 
L 3816 0 
L 2688 0 
L 2688 519 
Q 2463 200 2181 54 
Q 1900 -91 1497 -91 
Q 953 -91 614 226 
Q 275 544 275 1050 
Q 275 1666 698 1953 
Q 1122 2241 2028 2241 
L 2688 2241 
L 2688 2328 
Q 2688 2594 2478 2717 
Q 2269 2841 1825 2841 
Q 1466 2841 1156 2769 
Q 847 2697 581 2553 
L 581 3406 
Q 941 3494 1303 3539 
Q 1666 3584 2028 3584 
Q 2975 3584 3395 3211 
Q 3816 2838 3816 1997 
z
" transform="scale(0.015625)"/>
     <path id="DejaVuSans-Bold-20" transform="scale(0.015625)"/>
     <path id="DejaVuSans-Bold-64" d="M 2919 2988 
L 2919 4863 
L 4044 4863 
L 4044 0 
L 2919 0 
L 2919 506 
Q 2688 197 2409 53 
Q 2131 -91 1766 -91 
Q 1119 -91 703 423 
Q 288 938 288 1747 
Q 288 2556 703 3070 
Q 1119 3584 1766 3584 
Q 2128 3584 2408 3439 
Q 2688 3294 2919 2988 
z
M 2181 722 
Q 2541 722 2730 984 
Q 2919 1247 2919 1747 
Q 2919 2247 2730 2509 
Q 2541 2772 2181 2772 
Q 1825 2772 1636 2509 
Q 1447 2247 1447 1747 
Q 1447 1247 1636 984 
Q 1825 722 2181 722 
z
" transform="scale(0.015625)"/>
     <path id="DejaVuSans-Bold-6c" d="M 538 4863 
L 1656 4863 
L 1656 0 
L 538 0 
L 538 4863 
z
" transform="scale(0.015625)"/>
     <path id="DejaVuSans-Bold-3a" d="M 716 3500 
L 1844 3500 
L 1844 2291 
L 716 2291 
L 716 3500 
z
M 716 1209 
L 1844 1209 
L 1844 0 
L 716 0 
L 716 1209 
z
" transform="scale(0.015625)"/>
     <path id="DejaVuSans-Bold-4f" d="M 2719 3878 
Q 2169 3878 1866 3472 
Q 1563 3066 1563 2328 
Q 1563 1594 1866 1187 
Q 2169 781 2719 781 
Q 3272 781 3575 1187 
Q 3878 1594 3878 2328 
Q 3878 3066 3575 3472 
Q 3272 3878 2719 3878 
z
M 2719 4750 
Q 3844 4750 4481 4106 
Q 5119 3463 5119 2328 
Q 5119 1197 4481 553 
Q 3844 -91 2719 -91 
Q 1597 -91 958 553 
Q 319 1197 319 2328 
Q 319 3463 958 4106 
Q 1597 4750 2719 4750 
z
" transform="scale(0.015625)"/>
     <path id="DejaVuSans-Bold-44" d="M 1791 3756 
L 1791 909 
L 2222 909 
Q 2959 909 3348 1275 
Q 3738 1641 3738 2338 
Q 3738 3031 3350 3393 
Q 2963 3756 2222 3756 
L 1791 3756 
z
M 588 4666 
L 1856 4666 
Q 2919 4666 3439 4514 
Q 3959 4363 4331 4000 
Q 4659 3684 4818 3271 
Q 4978 2859 4978 2338 
Q 4978 1809 4818 1395 
Q 4659 981 4331 666 
Q 3956 303 3431 151 
Q 2906 0 1856 0 
L 588 0 
L 588 4666 
z
" transform="scale(0.015625)"/>
     <path id="DejaVuSans-Bold-45" d="M 588 4666 
L 3834 4666 
L 3834 3756 
L 1791 3756 
L 1791 2888 
L 3713 2888 
L 3713 1978 
L 1791 1978 
L 1791 909 
L 3903 909 
L 3903 0 
L 588 0 
L 588 4666 
z
" transform="scale(0.015625)"/>
     <path id="DejaVuSans-Bold-73" d="M 3272 3391 
L 3272 2541 
Q 2913 2691 2578 2766 
Q 2244 2841 1947 2841 
Q 1628 2841 1473 2761 
Q 1319 2681 1319 2516 
Q 1319 2381 1436 2309 
Q 1553 2238 1856 2203 
L 2053 2175 
Q 2913 2066 3209 1816 
Q 3506 1566 3506 1031 
Q 3506 472 3093 190 
Q 2681 -91 1863 -91 
Q 1516 -91 1145 -36 
Q 775 19 384 128 
L 384 978 
Q 719 816 1070 734 
Q 1422 653 1784 653 
Q 2113 653 2278 743 
Q 2444 834 2444 1013 
Q 2444 1163 2330 1236 
Q 2216 1309 1875 1350 
L 1678 1375 
Q 931 1469 631 1722 
Q 331 1975 331 2491 
Q 331 3047 712 3315 
Q 1094 3584 1881 3584 
Q 2191 3584 2531 3537 
Q 2872 3491 3272 3391 
z
" transform="scale(0.015625)"/>
     <path id="DejaVuSans-Bold-75" d="M 500 1363 
L 500 3500 
L 1625 3500 
L 1625 3150 
Q 1625 2866 1622 2436 
Q 1619 2006 1619 1863 
Q 1619 1441 1641 1255 
Q 1663 1069 1716 984 
Q 1784 875 1895 815 
Q 2006 756 2150 756 
Q 2500 756 2700 1025 
Q 2900 1294 2900 1772 
L 2900 3500 
L 4019 3500 
L 4019 0 
L 2900 0 
L 2900 506 
Q 2647 200 2364 54 
Q 2081 -91 1741 -91 
Q 1134 -91 817 281 
Q 500 653 500 1363 
z
" transform="scale(0.015625)"/>
     <path id="DejaVuSans-Bold-74" d="M 1759 4494 
L 1759 3500 
L 2913 3500 
L 2913 2700 
L 1759 2700 
L 1759 1216 
Q 1759 972 1856 886 
Q 1953 800 2241 800 
L 2816 800 
L 2816 0 
L 1856 0 
Q 1194 0 917 276 
Q 641 553 641 1216 
L 641 2700 
L 84 2700 
L 84 3500 
L 641 3500 
L 641 4494 
L 1759 4494 
z
" transform="scale(0.015625)"/>
     <path id="DejaVuSans-Bold-6d" d="M 3781 2919 
Q 3994 3244 4286 3414 
Q 4578 3584 4928 3584 
Q 5531 3584 5847 3212 
Q 6163 2841 6163 2131 
L 6163 0 
L 5038 0 
L 5038 1825 
Q 5041 1866 5042 1909 
Q 5044 1953 5044 2034 
Q 5044 2406 4934 2573 
Q 4825 2741 4581 2741 
Q 4263 2741 4089 2478 
Q 3916 2216 3909 1719 
L 3909 0 
L 2784 0 
L 2784 1825 
Q 2784 2406 2684 2573 
Q 2584 2741 2328 2741 
Q 2006 2741 1831 2477 
Q 1656 2213 1656 1722 
L 1656 0 
L 531 0 
L 531 3500 
L 1656 3500 
L 1656 2988 
Q 1863 3284 2130 3434 
Q 2397 3584 2719 3584 
Q 3081 3584 3359 3409 
Q 3638 3234 3781 2919 
z
" transform="scale(0.015625)"/>
    </defs>
    <use xlink:href="#DejaVuSans-Bold-43"/>
    <use xlink:href="#DejaVuSans-Bold-6f" transform="translate(73.388672 0)"/>
    <use xlink:href="#DejaVuSans-Bold-6e" transform="translate(142.089844 0)"/>
    <use xlink:href="#DejaVuSans-Bold-76" transform="translate(213.28125 0)"/>
    <use xlink:href="#DejaVuSans-Bold-65" transform="translate(278.466797 0)"/>
    <use xlink:href="#DejaVuSans-Bold-72" transform="translate(346.289062 0)"/>
    <use xlink:href="#DejaVuSans-Bold-67" transform="translate(395.605469 0)"/>
    <use xlink:href="#DejaVuSans-Bold-ea" transform="translate(467.1875 0)"/>
    <use xlink:href="#DejaVuSans-Bold-6e" transform="translate(535.009766 0)"/>
    <use xlink:href="#DejaVuSans-Bold-63" transform="translate(606.201172 0)"/>
    <use xlink:href="#DejaVuSans-Bold-69" transform="translate(665.478516 0)"/>
    <use xlink:href="#DejaVuSans-Bold-61" transform="translate(699.755859 0)"/>
    <use xlink:href="#DejaVuSans-Bold-20" transform="translate(767.236328 0)"/>
    <use xlink:href="#DejaVuSans-Bold-63" transform="translate(802.050781 0)"/>
    <use xlink:href="#DejaVuSans-Bold-6f" transform="translate(861.328125 0)"/>
    <use xlink:href="#DejaVuSans-Bold-6e" transform="translate(930.029297 0)"/>
    <use xlink:href="#DejaVuSans-Bold-64" transform="translate(1001.220703 0)"/>
    <use xlink:href="#DejaVuSans-Bold-69" transform="translate(1072.802734 0)"/>
    <use xlink:href="#DejaVuSans-Bold-63" transform="translate(1107.080078 0)"/>
    <use xlink:href="#DejaVuSans-Bold-69" transform="translate(1166.357422 0)"/>
    <use xlink:href="#DejaVuSans-Bold-6f" transform="translate(1200.634766 0)"/>
    <use xlink:href="#DejaVuSans-Bold-6e" transform="translate(1269.335938 0)"/>
    <use xlink:href="#DejaVuSans-Bold-61" transform="translate(1340.527344 0)"/>
    <use xlink:href="#DejaVuSans-Bold-6c" transform="translate(1408.007812 0)"/>
    <use xlink:href="#DejaVuSans-Bold-3a" transform="translate(1442.285156 0)"/>
    <use xlink:href="#DejaVuSans-Bold-20" transform="translate(1482.275391 0)"/>
    <use xlink:href="#DejaVuSans-Bold-4f" transform="translate(1517.089844 0)"/>
    <use xlink:href="#DejaVuSans-Bold-43" transform="translate(1602.099609 0)"/>
    <use xlink:href="#DejaVuSans-Bold-44" transform="translate(1675.488281 0)"/>
    <use xlink:href="#DejaVuSans-Bold-45" transform="translate(1758.496094 0)"/>
    <use xlink:href="#DejaVuSans-Bold-20" transform="translate(1826.806641 0)"/>
    <use xlink:href="#DejaVuSans-Bold-76" transform="translate(1861.621094 0)"/>
    <use xlink:href="#DejaVuSans-Bold-65" transform="translate(1926.806641 0)"/>
    <use xlink:href="#DejaVuSans-Bold-72" transform="translate(1994.628906 0)"/>
    <use xlink:href="#DejaVuSans-Bold-73" transform="translate(2043.945312 0)"/>
    <use xlink:href="#DejaVuSans-Bold-75" transform="translate(2103.466797 0)"/>
    <use xlink:href="#DejaVuSans-Bold-73" transform="translate(2174.658203 0)"/>
    <use xlink:href="#DejaVuSans-Bold-20" transform="translate(2234.179688 0)"/>
    <use xlink:href="#DejaVuSans-Bold-72" transform="translate(2268.994141 0)"/>
    <use xlink:href="#DejaVuSans-Bold-65" transform="translate(2318.310547 0)"/>
    <use xlink:href="#DejaVuSans-Bold-73" transform="translate(2386.132812 0)"/>
    <use xlink:href="#DejaVuSans-Bold-74" transform="translate(2445.654297 0)"/>
    <use xlink:href="#DejaVuSans-Bold-6f" transform="translate(2493.457031 0)"/>
    <use xlink:href="#DejaVuSans-Bold-20" transform="translate(2562.158203 0)"/>
    <use xlink:href="#DejaVuSans-Bold-64" transform="translate(2596.972656 0)"/>
    <use xlink:href="#DejaVuSans-Bold-6f" transform="translate(2668.554688 0)"/>
    <use xlink:href="#DejaVuSans-Bold-20" transform="translate(2737.255859 0)"/>
    <use xlink:href="#DejaVuSans-Bold-6d" transform="translate(2772.070312 0)"/>
    <use xlink:href="#DejaVuSans-Bold-75" transform="translate(2876.269531 0)"/>
    <use xlink:href="#DejaVuSans-Bold-6e" transform="translate(2947.460938 0)"/>
    <use xlink:href="#DejaVuSans-Bold-64" transform="translate(3018.652344 0)"/>
    <use xlink:href="#DejaVuSans-Bold-6f" transform="translate(3090.234375 0)"/>
   </g>
  </g>
  <g id="text_14">
   <!-- Países com observações válidas em 2000 e 2023; a relação negativa sugere maior crescimento entre economias inicialmente mais pobres. -->
   <g style="fill: #6f6e69" transform="translate(14.4 39.262406) scale(0.102 -0.102)">
    <defs>
     <path id="DejaVuSans-ed" d="M 1322 5119 
L 1944 5119 
L 926 3944 
L 447 3944 
L 1322 5119 
z
M 603 3500 
L 1178 3500 
L 1178 0 
L 603 0 
L 603 3500 
z
M 891 3584 
L 891 3584 
z
" transform="scale(0.015625)"/>
     <path id="DejaVuSans-76" d="M 191 3500 
L 800 3500 
L 1894 563 
L 2988 3500 
L 3597 3500 
L 2284 0 
L 1503 0 
L 191 3500 
z
" transform="scale(0.015625)"/>
     <path id="DejaVuSans-e7" d="M 3122 3366 
L 3122 2828 
Q 2878 2963 2633 3030 
Q 2388 3097 2138 3097 
Q 1578 3097 1268 2742 
Q 959 2388 959 1747 
Q 959 1106 1268 751 
Q 1578 397 2138 397 
Q 2388 397 2633 464 
Q 2878 531 3122 666 
L 3122 134 
Q 2881 22 2623 -34 
Q 2366 -91 2075 -91 
Q 1284 -91 818 406 
Q 353 903 353 1747 
Q 353 2603 823 3093 
Q 1294 3584 2113 3584 
Q 2378 3584 2631 3529 
Q 2884 3475 3122 3366 
z
M 2311 0 
Q 2482 -194 2566 -358 
Q 2651 -522 2651 -672 
Q 2651 -950 2463 -1092 
Q 2276 -1234 1907 -1234 
Q 1764 -1234 1628 -1215 
Q 1492 -1197 1357 -1159 
L 1357 -750 
Q 1464 -803 1579 -826 
Q 1695 -850 1842 -850 
Q 2026 -850 2120 -775 
Q 2214 -700 2214 -556 
Q 2214 -463 2146 -327 
Q 2079 -191 1939 0 
L 2311 0 
z
" transform="scale(0.015625)"/>
     <path id="DejaVuSans-f5" d="M 1959 3097 
Q 1497 3097 1228 2736 
Q 959 2375 959 1747 
Q 959 1119 1226 758 
Q 1494 397 1959 397 
Q 2419 397 2687 759 
Q 2956 1122 2956 1747 
Q 2956 2369 2687 2733 
Q 2419 3097 1959 3097 
z
M 1959 3584 
Q 2709 3584 3137 3096 
Q 3566 2609 3566 1747 
Q 3566 888 3137 398 
Q 2709 -91 1959 -91 
Q 1206 -91 779 398 
Q 353 888 353 1747 
Q 353 2609 779 3096 
Q 1206 3584 1959 3584 
z
M 1948 4281 
L 1769 4453 
Q 1701 4516 1649 4545 
Q 1598 4575 1557 4575 
Q 1438 4575 1382 4461 
Q 1326 4347 1319 4091 
L 929 4091 
Q 935 4513 1094 4742 
Q 1254 4972 1538 4972 
Q 1657 4972 1757 4928 
Q 1857 4884 1973 4781 
L 2151 4609 
Q 2219 4547 2271 4517 
Q 2323 4488 2363 4488 
Q 2482 4488 2538 4602 
Q 2594 4716 2601 4972 
L 2991 4972 
Q 2985 4550 2825 4320 
Q 2666 4091 2382 4091 
Q 2263 4091 2163 4134 
Q 2063 4178 1948 4281 
z
" transform="scale(0.015625)"/>
     <path id="DejaVuSans-e1" d="M 2194 1759 
Q 1497 1759 1228 1600 
Q 959 1441 959 1056 
Q 959 750 1161 570 
Q 1363 391 1709 391 
Q 2188 391 2477 730 
Q 2766 1069 2766 1631 
L 2766 1759 
L 2194 1759 
z
M 3341 1997 
L 3341 0 
L 2766 0 
L 2766 531 
Q 2569 213 2275 61 
Q 1981 -91 1556 -91 
Q 1019 -91 701 211 
Q 384 513 384 1019 
Q 384 1609 779 1909 
Q 1175 2209 1959 2209 
L 2766 2209 
L 2766 2266 
Q 2766 2663 2505 2880 
Q 2244 3097 1772 3097 
Q 1472 3097 1187 3025 
Q 903 2953 641 2809 
L 641 3341 
Q 956 3463 1253 3523 
Q 1550 3584 1831 3584 
Q 2591 3584 2966 3190 
Q 3341 2797 3341 1997 
z
M 2290 5119 
L 2912 5119 
L 1894 3944 
L 1415 3944 
L 2290 5119 
z
" transform="scale(0.015625)"/>
     <path id="DejaVuSans-3b" d="M 750 3309 
L 1409 3309 
L 1409 2516 
L 750 2516 
L 750 3309 
z
M 750 794 
L 1409 794 
L 1409 256 
L 897 -744 
L 494 -744 
L 750 256 
L 750 794 
z
" transform="scale(0.015625)"/>
     <path id="DejaVuSans-2e" d="M 684 794 
L 1344 794 
L 1344 0 
L 684 0 
L 684 794 
z
" transform="scale(0.015625)"/>
    </defs>
    <use xlink:href="#DejaVuSans-50"/>
    <use xlink:href="#DejaVuSans-61" transform="translate(55.802734 0)"/>
    <use xlink:href="#DejaVuSans-ed" transform="translate(117.082031 0)"/>
    <use xlink:href="#DejaVuSans-73" transform="translate(144.865234 0)"/>
    <use xlink:href="#DejaVuSans-65" transform="translate(196.964844 0)"/>
    <use xlink:href="#DejaVuSans-73" transform="translate(258.488281 0)"/>
    <use xlink:href="#DejaVuSans-20" transform="translate(310.587891 0)"/>
    <use xlink:href="#DejaVuSans-63" transform="translate(342.375 0)"/>
    <use xlink:href="#DejaVuSans-6f" transform="translate(397.355469 0)"/>
    <use xlink:href="#DejaVuSans-6d" transform="translate(458.537109 0)"/>
    <use xlink:href="#DejaVuSans-20" transform="translate(555.949219 0)"/>
    <use xlink:href="#DejaVuSans-6f" transform="translate(587.736328 0)"/>
    <use xlink:href="#DejaVuSans-62" transform="translate(648.917969 0)"/>
    <use xlink:href="#DejaVuSans-73" transform="translate(712.394531 0)"/>
    <use xlink:href="#DejaVuSans-65" transform="translate(764.494141 0)"/>
    <use xlink:href="#DejaVuSans-72" transform="translate(826.017578 0)"/>
    <use xlink:href="#DejaVuSans-76" transform="translate(867.130859 0)"/>
    <use xlink:href="#DejaVuSans-61" transform="translate(926.310547 0)"/>
    <use xlink:href="#DejaVuSans-e7" transform="translate(987.589844 0)"/>
    <use xlink:href="#DejaVuSans-f5" transform="translate(1042.570312 0)"/>
    <use xlink:href="#DejaVuSans-65" transform="translate(1103.751953 0)"/>
    <use xlink:href="#DejaVuSans-73" transform="translate(1165.275391 0)"/>
    <use xlink:href="#DejaVuSans-20" transform="translate(1217.375 0)"/>
    <use xlink:href="#DejaVuSans-76" transform="translate(1249.162109 0)"/>
    <use xlink:href="#DejaVuSans-e1" transform="translate(1308.341797 0)"/>
    <use xlink:href="#DejaVuSans-6c" transform="translate(1369.621094 0)"/>
    <use xlink:href="#DejaVuSans-69" transform="translate(1397.404297 0)"/>
    <use xlink:href="#DejaVuSans-64" transform="translate(1425.1875 0)"/>
    <use xlink:href="#DejaVuSans-61" transform="translate(1488.664062 0)"/>
    <use xlink:href="#DejaVuSans-73" transform="translate(1549.943359 0)"/>
    <use xlink:href="#DejaVuSans-20" transform="translate(1602.042969 0)"/>
    <use xlink:href="#DejaVuSans-65" transform="translate(1633.830078 0)"/>
    <use xlink:href="#DejaVuSans-6d" transform="translate(1695.353516 0)"/>
    <use xlink:href="#DejaVuSans-20" transform="translate(1792.765625 0)"/>
    <use xlink:href="#DejaVuSans-32" transform="translate(1824.552734 0)"/>
    <use xlink:href="#DejaVuSans-30" transform="translate(1888.175781 0)"/>
    <use xlink:href="#DejaVuSans-30" transform="translate(1951.798828 0)"/>
    <use xlink:href="#DejaVuSans-30" transform="translate(2015.421875 0)"/>
    <use xlink:href="#DejaVuSans-20" transform="translate(2079.044922 0)"/>
    <use xlink:href="#DejaVuSans-65" transform="translate(2110.832031 0)"/>
    <use xlink:href="#DejaVuSans-20" transform="translate(2172.355469 0)"/>
    <use xlink:href="#DejaVuSans-32" transform="translate(2204.142578 0)"/>
    <use xlink:href="#DejaVuSans-30" transform="translate(2267.765625 0)"/>
    <use xlink:href="#DejaVuSans-32" transform="translate(2331.388672 0)"/>
    <use xlink:href="#DejaVuSans-33" transform="translate(2395.011719 0)"/>
    <use xlink:href="#DejaVuSans-3b" transform="translate(2458.634766 0)"/>
    <use xlink:href="#DejaVuSans-20" transform="translate(2492.326172 0)"/>
    <use xlink:href="#DejaVuSans-61" transform="translate(2524.113281 0)"/>
    <use xlink:href="#DejaVuSans-20" transform="translate(2585.392578 0)"/>
    <use xlink:href="#DejaVuSans-72" transform="translate(2617.179688 0)"/>
    <use xlink:href="#DejaVuSans-65" transform="translate(2656.042969 0)"/>
    <use xlink:href="#DejaVuSans-6c" transform="translate(2717.566406 0)"/>
    <use xlink:href="#DejaVuSans-61" transform="translate(2745.349609 0)"/>
    <use xlink:href="#DejaVuSans-e7" transform="translate(2806.628906 0)"/>
    <use xlink:href="#DejaVuSans-e3" transform="translate(2861.609375 0)"/>
    <use xlink:href="#DejaVuSans-6f" transform="translate(2922.888672 0)"/>
    <use xlink:href="#DejaVuSans-20" transform="translate(2984.070312 0)"/>
    <use xlink:href="#DejaVuSans-6e" transform="translate(3015.857422 0)"/>
    <use xlink:href="#DejaVuSans-65" transform="translate(3079.236328 0)"/>
    <use xlink:href="#DejaVuSans-67" transform="translate(3140.759766 0)"/>
    <use xlink:href="#DejaVuSans-61" transform="translate(3204.236328 0)"/>
    <use xlink:href="#DejaVuSans-74" transform="translate(3265.515625 0)"/>
    <use xlink:href="#DejaVuSans-69" transform="translate(3304.724609 0)"/>
    <use xlink:href="#DejaVuSans-76" transform="translate(3332.507812 0)"/>
    <use xlink:href="#DejaVuSans-61" transform="translate(3391.6875 0)"/>
    <use xlink:href="#DejaVuSans-20" transform="translate(3452.966797 0)"/>
    <use xlink:href="#DejaVuSans-73" transform="translate(3484.753906 0)"/>
    <use xlink:href="#DejaVuSans-75" transform="translate(3536.853516 0)"/>
    <use xlink:href="#DejaVuSans-67" transform="translate(3600.232422 0)"/>
    <use xlink:href="#DejaVuSans-65" transform="translate(3663.708984 0)"/>
    <use xlink:href="#DejaVuSans-72" transform="translate(3725.232422 0)"/>
    <use xlink:href="#DejaVuSans-65" transform="translate(3764.095703 0)"/>
    <use xlink:href="#DejaVuSans-20" transform="translate(3825.619141 0)"/>
    <use xlink:href="#DejaVuSans-6d" transform="translate(3857.40625 0)"/>
    <use xlink:href="#DejaVuSans-61" transform="translate(3954.818359 0)"/>
    <use xlink:href="#DejaVuSans-69" transform="translate(4016.097656 0)"/>
    <use xlink:href="#DejaVuSans-6f" transform="translate(4043.880859 0)"/>
    <use xlink:href="#DejaVuSans-72" transform="translate(4105.0625 0)"/>
    <use xlink:href="#DejaVuSans-20" transform="translate(4146.175781 0)"/>
    <use xlink:href="#DejaVuSans-63" transform="translate(4177.962891 0)"/>
    <use xlink:href="#DejaVuSans-72" transform="translate(4232.943359 0)"/>
    <use xlink:href="#DejaVuSans-65" transform="translate(4271.806641 0)"/>
    <use xlink:href="#DejaVuSans-73" transform="translate(4333.330078 0)"/>
    <use xlink:href="#DejaVuSans-63" transform="translate(4385.429688 0)"/>
    <use xlink:href="#DejaVuSans-69" transform="translate(4440.410156 0)"/>
    <use xlink:href="#DejaVuSans-6d" transform="translate(4468.193359 0)"/>
    <use xlink:href="#DejaVuSans-65" transform="translate(4565.605469 0)"/>
    <use xlink:href="#DejaVuSans-6e" transform="translate(4627.128906 0)"/>
    <use xlink:href="#DejaVuSans-74" transform="translate(4690.507812 0)"/>
    <use xlink:href="#DejaVuSans-6f" transform="translate(4729.716797 0)"/>
    <use xlink:href="#DejaVuSans-20" transform="translate(4790.898438 0)"/>
    <use xlink:href="#DejaVuSans-65" transform="translate(4822.685547 0)"/>
    <use xlink:href="#DejaVuSans-6e" transform="translate(4884.208984 0)"/>
    <use xlink:href="#DejaVuSans-74" transform="translate(4947.587891 0)"/>
    <use xlink:href="#DejaVuSans-72" transform="translate(4986.796875 0)"/>
    <use xlink:href="#DejaVuSans-65" transform="translate(5025.660156 0)"/>
    <use xlink:href="#DejaVuSans-20" transform="translate(5087.183594 0)"/>
    <use xlink:href="#DejaVuSans-65" transform="translate(5118.970703 0)"/>
    <use xlink:href="#DejaVuSans-63" transform="translate(5180.494141 0)"/>
    <use xlink:href="#DejaVuSans-6f" transform="translate(5235.474609 0)"/>
    <use xlink:href="#DejaVuSans-6e" transform="translate(5296.65625 0)"/>
    <use xlink:href="#DejaVuSans-6f" transform="translate(5360.035156 0)"/>
    <use xlink:href="#DejaVuSans-6d" transform="translate(5421.216797 0)"/>
    <use xlink:href="#DejaVuSans-69" transform="translate(5518.628906 0)"/>
    <use xlink:href="#DejaVuSans-61" transform="translate(5546.412109 0)"/>
    <use xlink:href="#DejaVuSans-73" transform="translate(5607.691406 0)"/>
    <use xlink:href="#DejaVuSans-20" transform="translate(5659.791016 0)"/>
    <use xlink:href="#DejaVuSans-69" transform="translate(5691.578125 0)"/>
    <use xlink:href="#DejaVuSans-6e" transform="translate(5719.361328 0)"/>
    <use xlink:href="#DejaVuSans-69" transform="translate(5782.740234 0)"/>
    <use xlink:href="#DejaVuSans-63" transform="translate(5810.523438 0)"/>
    <use xlink:href="#DejaVuSans-69" transform="translate(5865.503906 0)"/>
    <use xlink:href="#DejaVuSans-61" transform="translate(5893.287109 0)"/>
    <use xlink:href="#DejaVuSans-6c" transform="translate(5954.566406 0)"/>
    <use xlink:href="#DejaVuSans-6d" transform="translate(5982.349609 0)"/>
    <use xlink:href="#DejaVuSans-65" transform="translate(6079.761719 0)"/>
    <use xlink:href="#DejaVuSans-6e" transform="translate(6141.285156 0)"/>
    <use xlink:href="#DejaVuSans-74" transform="translate(6204.664062 0)"/>
    <use xlink:href="#DejaVuSans-65" transform="translate(6243.873047 0)"/>
    <use xlink:href="#DejaVuSans-20" transform="translate(6305.396484 0)"/>
    <use xlink:href="#DejaVuSans-6d" transform="translate(6337.183594 0)"/>
    <use xlink:href="#DejaVuSans-61" transform="translate(6434.595703 0)"/>
    <use xlink:href="#DejaVuSans-69" transform="translate(6495.875 0)"/>
    <use xlink:href="#DejaVuSans-73" transform="translate(6523.658203 0)"/>
    <use xlink:href="#DejaVuSans-20" transform="translate(6575.757812 0)"/>
    <use xlink:href="#DejaVuSans-70" transform="translate(6607.544922 0)"/>
    <use xlink:href="#DejaVuSans-6f" transform="translate(6671.021484 0)"/>
    <use xlink:href="#DejaVuSans-62" transform="translate(6732.203125 0)"/>
    <use xlink:href="#DejaVuSans-72" transform="translate(6795.679688 0)"/>
    <use xlink:href="#DejaVuSans-65" transform="translate(6834.542969 0)"/>
    <use xlink:href="#DejaVuSans-73" transform="translate(6896.066406 0)"/>
    <use xlink:href="#DejaVuSans-2e" transform="translate(6948.166016 0)"/>
   </g>
  </g>
  <g id="text_15">
   <!-- Fonte: World Bank API; cálculos do projeto.   Obs.: A linha pontilhada resume a tendência média da amostra. -->
   <g style="fill: #6f6e69" transform="translate(14.4 411.398672) scale(0.087 -0.087)">
    <defs>
     <path id="DejaVuSans-46" d="M 628 4666 
L 3309 4666 
L 3309 4134 
L 1259 4134 
L 1259 2759 
L 3109 2759 
L 3109 2228 
L 1259 2228 
L 1259 0 
L 628 0 
L 628 4666 
z
" transform="scale(0.015625)"/>
     <path id="DejaVuSans-3a" d="M 750 794 
L 1409 794 
L 1409 0 
L 750 0 
L 750 794 
z
M 750 3309 
L 1409 3309 
L 1409 2516 
L 750 2516 
L 750 3309 
z
" transform="scale(0.015625)"/>
     <path id="DejaVuSans-57" d="M 213 4666 
L 850 4666 
L 1831 722 
L 2809 4666 
L 3519 4666 
L 4500 722 
L 5478 4666 
L 6119 4666 
L 4947 0 
L 4153 0 
L 3169 4050 
L 2175 0 
L 1381 0 
L 213 4666 
z
" transform="scale(0.015625)"/>
     <path id="DejaVuSans-6b" d="M 581 4863 
L 1159 4863 
L 1159 1991 
L 2875 3500 
L 3609 3500 
L 1753 1863 
L 3688 0 
L 2938 0 
L 1159 1709 
L 1159 0 
L 581 0 
L 581 4863 
z
" transform="scale(0.015625)"/>
     <path id="DejaVuSans-41" d="M 2188 4044 
L 1331 1722 
L 3047 1722 
L 2188 4044 
z
M 1831 4666 
L 2547 4666 
L 4325 0 
L 3669 0 
L 3244 1197 
L 1141 1197 
L 716 0 
L 50 0 
L 1831 4666 
z
" transform="scale(0.015625)"/>
     <path id="DejaVuSans-6a" d="M 603 3500 
L 1178 3500 
L 1178 -63 
Q 1178 -731 923 -1031 
Q 669 -1331 103 -1331 
L -116 -1331 
L -116 -844 
L 38 -844 
Q 366 -844 484 -692 
Q 603 -541 603 -63 
L 603 3500 
z
M 603 4863 
L 1178 4863 
L 1178 4134 
L 603 4134 
L 603 4863 
z
" transform="scale(0.015625)"/>
     <path id="DejaVuSans-e9" d="M 3597 1894 
L 3597 1613 
L 953 1613 
Q 991 1019 1311 708 
Q 1631 397 2203 397 
Q 2534 397 2845 478 
Q 3156 559 3463 722 
L 3463 178 
Q 3153 47 2828 -22 
Q 2503 -91 2169 -91 
Q 1331 -91 842 396 
Q 353 884 353 1716 
Q 353 2575 817 3079 
Q 1281 3584 2069 3584 
Q 2775 3584 3186 3129 
Q 3597 2675 3597 1894 
z
M 3022 2063 
Q 3016 2534 2758 2815 
Q 2500 3097 2075 3097 
Q 1594 3097 1305 2825 
Q 1016 2553 972 2059 
L 3022 2063 
z
M 2466 5119 
L 3088 5119 
L 2070 3944 
L 1591 3944 
L 2466 5119 
z
" transform="scale(0.015625)"/>
    </defs>
    <use xlink:href="#DejaVuSans-46"/>
    <use xlink:href="#DejaVuSans-6f" transform="translate(53.894531 0)"/>
    <use xlink:href="#DejaVuSans-6e" transform="translate(115.076172 0)"/>
    <use xlink:href="#DejaVuSans-74" transform="translate(178.455078 0)"/>
    <use xlink:href="#DejaVuSans-65" transform="translate(217.664062 0)"/>
    <use xlink:href="#DejaVuSans-3a" transform="translate(279.1875 0)"/>
    <use xlink:href="#DejaVuSans-20" transform="translate(312.878906 0)"/>
    <use xlink:href="#DejaVuSans-57" transform="translate(344.666016 0)"/>
    <use xlink:href="#DejaVuSans-6f" transform="translate(437.667969 0)"/>
    <use xlink:href="#DejaVuSans-72" transform="translate(498.849609 0)"/>
    <use xlink:href="#DejaVuSans-6c" transform="translate(539.962891 0)"/>
    <use xlink:href="#DejaVuSans-64" transform="translate(567.746094 0)"/>
    <use xlink:href="#DejaVuSans-20" transform="translate(631.222656 0)"/>
    <use xlink:href="#DejaVuSans-42" transform="translate(663.009766 0)"/>
    <use xlink:href="#DejaVuSans-61" transform="translate(731.613281 0)"/>
    <use xlink:href="#DejaVuSans-6e" transform="translate(792.892578 0)"/>
    <use xlink:href="#DejaVuSans-6b" transform="translate(856.271484 0)"/>
    <use xlink:href="#DejaVuSans-20" transform="translate(914.181641 0)"/>
    <use xlink:href="#DejaVuSans-41" transform="translate(945.96875 0)"/>
    <use xlink:href="#DejaVuSans-50" transform="translate(1014.376953 0)"/>
    <use xlink:href="#DejaVuSans-49" transform="translate(1074.679688 0)"/>
    <use xlink:href="#DejaVuSans-3b" transform="translate(1104.171875 0)"/>
    <use xlink:href="#DejaVuSans-20" transform="translate(1137.863281 0)"/>
    <use xlink:href="#DejaVuSans-63" transform="translate(1169.650391 0)"/>
    <use xlink:href="#DejaVuSans-e1" transform="translate(1224.630859 0)"/>
    <use xlink:href="#DejaVuSans-6c" transform="translate(1285.910156 0)"/>
    <use xlink:href="#DejaVuSans-63" transform="translate(1313.693359 0)"/>
    <use xlink:href="#DejaVuSans-75" transform="translate(1368.673828 0)"/>
    <use xlink:href="#DejaVuSans-6c" transform="translate(1432.052734 0)"/>
    <use xlink:href="#DejaVuSans-6f" transform="translate(1459.835938 0)"/>
    <use xlink:href="#DejaVuSans-73" transform="translate(1521.017578 0)"/>
    <use xlink:href="#DejaVuSans-20" transform="translate(1573.117188 0)"/>
    <use xlink:href="#DejaVuSans-64" transform="translate(1604.904297 0)"/>
    <use xlink:href="#DejaVuSans-6f" transform="translate(1668.380859 0)"/>
    <use xlink:href="#DejaVuSans-20" transform="translate(1729.5625 0)"/>
    <use xlink:href="#DejaVuSans-70" transform="translate(1761.349609 0)"/>
    <use xlink:href="#DejaVuSans-72" transform="translate(1824.826172 0)"/>
    <use xlink:href="#DejaVuSans-6f" transform="translate(1863.689453 0)"/>
    <use xlink:href="#DejaVuSans-6a" transform="translate(1924.871094 0)"/>
    <use xlink:href="#DejaVuSans-65" transform="translate(1952.654297 0)"/>
    <use xlink:href="#DejaVuSans-74" transform="translate(2014.177734 0)"/>
    <use xlink:href="#DejaVuSans-6f" transform="translate(2053.386719 0)"/>
    <use xlink:href="#DejaVuSans-2e" transform="translate(2112.818359 0)"/>
    <use xlink:href="#DejaVuSans-20" transform="translate(2144.605469 0)"/>
    <use xlink:href="#DejaVuSans-20" transform="translate(2176.392578 0)"/>
    <use xlink:href="#DejaVuSans-20" transform="translate(2208.179688 0)"/>
    <use xlink:href="#DejaVuSans-4f" transform="translate(2239.966797 0)"/>
    <use xlink:href="#DejaVuSans-62" transform="translate(2318.677734 0)"/>
    <use xlink:href="#DejaVuSans-73" transform="translate(2382.154297 0)"/>
    <use xlink:href="#DejaVuSans-2e" transform="translate(2434.253906 0)"/>
    <use xlink:href="#DejaVuSans-3a" transform="translate(2466.041016 0)"/>
    <use xlink:href="#DejaVuSans-20" transform="translate(2499.732422 0)"/>
    <use xlink:href="#DejaVuSans-41" transform="translate(2531.519531 0)"/>
    <use xlink:href="#DejaVuSans-20" transform="translate(2599.927734 0)"/>
    <use xlink:href="#DejaVuSans-6c" transform="translate(2631.714844 0)"/>
    <use xlink:href="#DejaVuSans-69" transform="translate(2659.498047 0)"/>
    <use xlink:href="#DejaVuSans-6e" transform="translate(2687.28125 0)"/>
    <use xlink:href="#DejaVuSans-68" transform="translate(2750.660156 0)"/>
    <use xlink:href="#DejaVuSans-61" transform="translate(2814.039062 0)"/>
    <use xlink:href="#DejaVuSans-20" transform="translate(2875.318359 0)"/>
    <use xlink:href="#DejaVuSans-70" transform="translate(2907.105469 0)"/>
    <use xlink:href="#DejaVuSans-6f" transform="translate(2970.582031 0)"/>
    <use xlink:href="#DejaVuSans-6e" transform="translate(3031.763672 0)"/>
    <use xlink:href="#DejaVuSans-74" transform="translate(3095.142578 0)"/>
    <use xlink:href="#DejaVuSans-69" transform="translate(3134.351562 0)"/>
    <use xlink:href="#DejaVuSans-6c" transform="translate(3162.134766 0)"/>
    <use xlink:href="#DejaVuSans-68" transform="translate(3189.917969 0)"/>
    <use xlink:href="#DejaVuSans-61" transform="translate(3253.296875 0)"/>
    <use xlink:href="#DejaVuSans-64" transform="translate(3314.576172 0)"/>
    <use xlink:href="#DejaVuSans-61" transform="translate(3378.052734 0)"/>
    <use xlink:href="#DejaVuSans-20" transform="translate(3439.332031 0)"/>
    <use xlink:href="#DejaVuSans-72" transform="translate(3471.119141 0)"/>
    <use xlink:href="#DejaVuSans-65" transform="translate(3509.982422 0)"/>
    <use xlink:href="#DejaVuSans-73" transform="translate(3571.505859 0)"/>
    <use xlink:href="#DejaVuSans-75" transform="translate(3623.605469 0)"/>
    <use xlink:href="#DejaVuSans-6d" transform="translate(3686.984375 0)"/>
    <use xlink:href="#DejaVuSans-65" transform="translate(3784.396484 0)"/>
    <use xlink:href="#DejaVuSans-20" transform="translate(3845.919922 0)"/>
    <use xlink:href="#DejaVuSans-61" transform="translate(3877.707031 0)"/>
    <use xlink:href="#DejaVuSans-20" transform="translate(3938.986328 0)"/>
    <use xlink:href="#DejaVuSans-74" transform="translate(3970.773438 0)"/>
    <use xlink:href="#DejaVuSans-65" transform="translate(4009.982422 0)"/>
    <use xlink:href="#DejaVuSans-6e" transform="translate(4071.505859 0)"/>
    <use xlink:href="#DejaVuSans-64" transform="translate(4134.884766 0)"/>
    <use xlink:href="#DejaVuSans-ea" transform="translate(4198.361328 0)"/>
    <use xlink:href="#DejaVuSans-6e" transform="translate(4259.884766 0)"/>
    <use xlink:href="#DejaVuSans-63" transform="translate(4323.263672 0)"/>
    <use xlink:href="#DejaVuSans-69" transform="translate(4378.244141 0)"/>
    <use xlink:href="#DejaVuSans-61" transform="translate(4406.027344 0)"/>
    <use xlink:href="#DejaVuSans-20" transform="translate(4467.306641 0)"/>
    <use xlink:href="#DejaVuSans-6d" transform="translate(4499.09375 0)"/>
    <use xlink:href="#DejaVuSans-e9" transform="translate(4596.505859 0)"/>
    <use xlink:href="#DejaVuSans-64" transform="translate(4658.029297 0)"/>
    <use xlink:href="#DejaVuSans-69" transform="translate(4721.505859 0)"/>
    <use xlink:href="#DejaVuSans-61" transform="translate(4749.289062 0)"/>
    <use xlink:href="#DejaVuSans-20" transform="translate(4810.568359 0)"/>
    <use xlink:href="#DejaVuSans-64" transform="translate(4842.355469 0)"/>
    <use xlink:href="#DejaVuSans-61" transform="translate(4905.832031 0)"/>
    <use xlink:href="#DejaVuSans-20" transform="translate(4967.111328 0)"/>
    <use xlink:href="#DejaVuSans-61" transform="translate(4998.898438 0)"/>
    <use xlink:href="#DejaVuSans-6d" transform="translate(5060.177734 0)"/>
    <use xlink:href="#DejaVuSans-6f" transform="translate(5157.589844 0)"/>
    <use xlink:href="#DejaVuSans-73" transform="translate(5218.771484 0)"/>
    <use xlink:href="#DejaVuSans-74" transform="translate(5270.871094 0)"/>
    <use xlink:href="#DejaVuSans-72" transform="translate(5310.080078 0)"/>
    <use xlink:href="#DejaVuSans-61" transform="translate(5351.193359 0)"/>
    <use xlink:href="#DejaVuSans-2e" transform="translate(5412.472656 0)"/>
   </g>
  </g>
 </g>
 <defs>
  <clipPath id="pce9d533652">
   <rect x="58.657429" y="92.437714" width="568.498571" height="240.479429"/>
  </clipPath>
 </defs>
</svg>
