<?xml version="1.0" encoding="utf-8" standalone="no"?>
<!DOCTYPE svg PUBLIC "-//W3C//DTD SVG 1.1//EN"
  "http://www.w3.org/Graphics/SVG/1.1/DTD/svg11.dtd">
<svg xmlns:xlink="http://www.w3.org/1999/xlink" width="652.433588pt" height="400.104pt" viewBox="0 0 652.433588 400.104" xmlns="http://www.w3.org/2000/svg" version="1.1">
 <metadata>
  <rdf:RDF xmlns:dc="http://purl.org/dc/elements/1.1/" xmlns:cc="http://creativecommons.org/ns#" xmlns:rdf="http://www.w3.org/1999/02/22-rdf-syntax-ns#">
   <cc:Work>
    <dc:type rdf:resource="http://purl.org/dc/dcmitype/StillImage"/>
    <dc:date>2026-05-14T22:01:04.651992</dc:date>
    <dc:format>image/svg+xml</dc:format>
    <dc:creator>
     <cc:Agent>
      <dc:title>Matplotlib v3.10.9, https://matplotlib.org/</dc:title>
     </cc:Agent>
    </dc:creator>
   </cc:Work>
  </rdf:RDF>
 </metadata>
 <defs>
  <style type="text/css">*{stroke-linejoin: round; stroke-linecap: butt}</style>
 </defs>
 <g id="figure_1">
  <g id="patch_1">
   <path d="M 0 400.104 
L 652.433588 400.104 
L 652.433588 0 
L 0 0 
z
" style="fill: #fffcf0"/>
  </g>
  <g id="axes_1">
   <g id="patch_2">
    <path d="M 65.127143 325.431429 
L 592.615893 325.431429 
L 592.615893 92.818286 
L 65.127143 92.818286 
z
" style="fill: #fffcf0"/>
   </g>
   <g id="matplotlib.axis_1">
    <g id="xtick_1">
     <g id="line2d_1"/>
     <g id="text_1">
      <!-- C -->
      <g style="fill: #6f6e69" transform="translate(159.841596 340.549554) scale(0.12 -0.12)">
       <defs>
        <path id="DejaVuSans-43" d="M 4122 4306 
L 4122 3641 
Q 3803 3938 3442 4084 
Q 3081 4231 2675 4231 
Q 1875 4231 1450 3742 
Q 1025 3253 1025 2328 
Q 1025 1406 1450 917 
Q 1875 428 2675 428 
Q 3081 428 3442 575 
Q 3803 722 4122 1019 
L 4122 359 
Q 3791 134 3420 21 
Q 3050 -91 2638 -91 
Q 1578 -91 968 557 
Q 359 1206 359 2328 
Q 359 3453 968 4101 
Q 1578 4750 2638 4750 
Q 3056 4750 3426 4639 
Q 3797 4528 4122 4306 
z
" transform="scale(0.015625)"/>
       </defs>
       <use xlink:href="#DejaVuSans-43"/>
      </g>
     </g>
    </g>
    <g id="xtick_2">
     <g id="line2d_2"/>
     <g id="text_2">
      <!-- I -->
      <g style="fill: #6f6e69" transform="translate(327.101518 340.549554) scale(0.12 -0.12)">
       <defs>
        <path id="DejaVuSans-49" d="M 628 4666 
L 1259 4666 
L 1259 0 
L 628 0 
L 628 4666 
z
" transform="scale(0.015625)"/>
       </defs>
       <use xlink:href="#DejaVuSans-49"/>
      </g>
     </g>
    </g>
    <g id="xtick_3">
     <g id="line2d_3"/>
     <g id="text_3">
      <!-- K -->
      <g style="fill: #6f6e69" transform="translate(489.777065 340.549554) scale(0.12 -0.12)">
       <defs>
        <path id="DejaVuSans-4b" d="M 628 4666 
L 1259 4666 
L 1259 2694 
L 3353 4666 
L 4166 4666 
L 1850 2491 
L 4331 0 
L 3500 0 
L 1259 2247 
L 1259 0 
L 628 0 
L 628 4666 
z
" transform="scale(0.015625)"/>
       </defs>
       <use xlink:href="#DejaVuSans-4b"/>
      </g>
     </g>
    </g>
   </g>
   <g id="matplotlib.axis_2">
    <g id="ytick_1">
     <g id="line2d_4">
      <path d="M 65.127143 325.431429 
L 592.615893 325.431429 
" clip-path="url(#p0bf5c62d8a)" style="fill: none; stroke: #cecdc3; stroke-opacity: 0.9; stroke-width: 0.9; stroke-linecap: square"/>
     </g>
     <g id="line2d_5"/>
     <g id="text_4">
      <!-- 0 -->
      <g style="fill: #6f6e69" transform="translate(52.446518 329.420608) scale(0.105 -0.105)">
       <defs>
        <path id="DejaVuSans-30" d="M 2034 4250 
Q 1547 4250 1301 3770 
Q 1056 3291 1056 2328 
Q 1056 1369 1301 889 
Q 1547 409 2034 409 
Q 2525 409 2770 889 
Q 3016 1369 3016 2328 
Q 3016 3291 2770 3770 
Q 2525 4250 2034 4250 
z
M 2034 4750 
Q 2819 4750 3233 4129 
Q 3647 3509 3647 2328 
Q 3647 1150 3233 529 
Q 2819 -91 2034 -91 
Q 1250 -91 836 529 
Q 422 1150 422 2328 
Q 422 3509 836 4129 
Q 1250 4750 2034 4750 
z
" transform="scale(0.015625)"/>
       </defs>
       <use xlink:href="#DejaVuSans-30"/>
      </g>
     </g>
    </g>
    <g id="ytick_2">
     <g id="line2d_6">
      <path d="M 65.127143 299.061743 
L 592.615893 299.061743 
" clip-path="url(#p0bf5c62d8a)" style="fill: none; stroke: #cecdc3; stroke-opacity: 0.9; stroke-width: 0.9; stroke-linecap: square"/>
     </g>
     <g id="line2d_7"/>
     <g id="text_5">
      <!-- 0,25 -->
      <g style="fill: #6f6e69" transform="translate(35.748237 303.050923) scale(0.105 -0.105)">
       <defs>
        <path id="DejaVuSans-2c" d="M 750 794 
L 1409 794 
L 1409 256 
L 897 -744 
L 494 -744 
L 750 256 
L 750 794 
z
" transform="scale(0.015625)"/>
        <path id="DejaVuSans-32" d="M 1228 531 
L 3431 531 
L 3431 0 
L 469 0 
L 469 531 
Q 828 903 1448 1529 
Q 2069 2156 2228 2338 
Q 2531 2678 2651 2914 
Q 2772 3150 2772 3378 
Q 2772 3750 2511 3984 
Q 2250 4219 1831 4219 
Q 1534 4219 1204 4116 
Q 875 4013 500 3803 
L 500 4441 
Q 881 4594 1212 4672 
Q 1544 4750 1819 4750 
Q 2544 4750 2975 4387 
Q 3406 4025 3406 3419 
Q 3406 3131 3298 2873 
Q 3191 2616 2906 2266 
Q 2828 2175 2409 1742 
Q 1991 1309 1228 531 
z
" transform="scale(0.015625)"/>
        <path id="DejaVuSans-35" d="M 691 4666 
L 3169 4666 
L 3169 4134 
L 1269 4134 
L 1269 2991 
Q 1406 3038 1543 3061 
Q 1681 3084 1819 3084 
Q 2600 3084 3056 2656 
Q 3513 2228 3513 1497 
Q 3513 744 3044 326 
Q 2575 -91 1722 -91 
Q 1428 -91 1123 -41 
Q 819 9 494 109 
L 494 744 
Q 775 591 1075 516 
Q 1375 441 1709 441 
Q 2250 441 2565 725 
Q 2881 1009 2881 1497 
Q 2881 1984 2565 2268 
Q 2250 2553 1709 2553 
Q 1456 2553 1204 2497 
Q 953 2441 691 2322 
L 691 4666 
z
" transform="scale(0.015625)"/>
       </defs>
       <use xlink:href="#DejaVuSans-30"/>
       <use xlink:href="#DejaVuSans-2c" transform="translate(63.623047 0)"/>
       <use xlink:href="#DejaVuSans-32" transform="translate(95.410156 0)"/>
       <use xlink:href="#DejaVuSans-35" transform="translate(159.033203 0)"/>
      </g>
     </g>
    </g>
    <g id="ytick_3">
     <g id="line2d_8">
      <path d="M 65.127143 272.692057 
L 592.615893 272.692057 
" clip-path="url(#p0bf5c62d8a)" style="fill: none; stroke: #cecdc3; stroke-opacity: 0.9; stroke-width: 0.9; stroke-linecap: square"/>
     </g>
     <g id="line2d_9"/>
     <g id="text_6">
      <!-- 0,5 -->
      <g style="fill: #6f6e69" transform="translate(42.428862 276.681237) scale(0.105 -0.105)">
       <use xlink:href="#DejaVuSans-30"/>
       <use xlink:href="#DejaVuSans-2c" transform="translate(63.623047 0)"/>
       <use xlink:href="#DejaVuSans-35" transform="translate(95.410156 0)"/>
      </g>
     </g>
    </g>
    <g id="ytick_4">
     <g id="line2d_10">
      <path d="M 65.127143 246.322371 
L 592.615893 246.322371 
" clip-path="url(#p0bf5c62d8a)" style="fill: none; stroke: #cecdc3; stroke-opacity: 0.9; stroke-width: 0.9; stroke-linecap: square"/>
     </g>
     <g id="line2d_11"/>
     <g id="text_7">
      <!-- 0,75 -->
      <g style="fill: #6f6e69" transform="translate(35.748237 250.311551) scale(0.105 -0.105)">
       <defs>
        <path id="DejaVuSans-37" d="M 525 4666 
L 3525 4666 
L 3525 4397 
L 1831 0 
L 1172 0 
L 2766 4134 
L 525 4134 
L 525 4666 
z
" transform="scale(0.015625)"/>
       </defs>
       <use xlink:href="#DejaVuSans-30"/>
       <use xlink:href="#DejaVuSans-2c" transform="translate(63.623047 0)"/>
       <use xlink:href="#DejaVuSans-37" transform="translate(95.410156 0)"/>
       <use xlink:href="#DejaVuSans-35" transform="translate(159.033203 0)"/>
      </g>
     </g>
    </g>
    <g id="ytick_5">
     <g id="line2d_12">
      <path d="M 65.127143 219.952686 
L 592.615893 219.952686 
" clip-path="url(#p0bf5c62d8a)" style="fill: none; stroke: #cecdc3; stroke-opacity: 0.9; stroke-width: 0.9; stroke-linecap: square"/>
     </g>
     <g id="line2d_13"/>
     <g id="text_8">
      <!-- 1 -->
      <g style="fill: #6f6e69" transform="translate(52.446518 223.941865) scale(0.105 -0.105)">
       <defs>
        <path id="DejaVuSans-31" d="M 794 531 
L 1825 531 
L 1825 4091 
L 703 3866 
L 703 4441 
L 1819 4666 
L 2450 4666 
L 2450 531 
L 3481 531 
L 3481 0 
L 794 0 
L 794 531 
z
" transform="scale(0.015625)"/>
       </defs>
       <use xlink:href="#DejaVuSans-31"/>
      </g>
     </g>
    </g>
    <g id="ytick_6">
     <g id="line2d_14">
      <path d="M 65.127143 193.583 
L 592.615893 193.583 
" clip-path="url(#p0bf5c62d8a)" style="fill: none; stroke: #cecdc3; stroke-opacity: 0.9; stroke-width: 0.9; stroke-linecap: square"/>
     </g>
     <g id="line2d_15"/>
     <g id="text_9">
      <!-- 1,25 -->
      <g style="fill: #6f6e69" transform="translate(35.748237 197.57218) scale(0.105 -0.105)">
       <use xlink:href="#DejaVuSans-31"/>
       <use xlink:href="#DejaVuSans-2c" transform="translate(63.623047 0)"/>
       <use xlink:href="#DejaVuSans-32" transform="translate(95.410156 0)"/>
       <use xlink:href="#DejaVuSans-35" transform="translate(159.033203 0)"/>
      </g>
     </g>
    </g>
    <g id="ytick_7">
     <g id="line2d_16">
      <path d="M 65.127143 167.213314 
L 592.615893 167.213314 
" clip-path="url(#p0bf5c62d8a)" style="fill: none; stroke: #cecdc3; stroke-opacity: 0.9; stroke-width: 0.9; stroke-linecap: square"/>
     </g>
     <g id="line2d_17"/>
     <g id="text_10">
      <!-- 1,5 -->
      <g style="fill: #6f6e69" transform="translate(42.428862 171.202494) scale(0.105 -0.105)">
       <use xlink:href="#DejaVuSans-31"/>
       <use xlink:href="#DejaVuSans-2c" transform="translate(63.623047 0)"/>
       <use xlink:href="#DejaVuSans-35" transform="translate(95.410156 0)"/>
      </g>
     </g>
    </g>
    <g id="ytick_8">
     <g id="line2d_18">
      <path d="M 65.127143 140.843628 
L 592.615893 140.843628 
" clip-path="url(#p0bf5c62d8a)" style="fill: none; stroke: #cecdc3; stroke-opacity: 0.9; stroke-width: 0.9; stroke-linecap: square"/>
     </g>
     <g id="line2d_19"/>
     <g id="text_11">
      <!-- 1,75 -->
      <g style="fill: #6f6e69" transform="translate(35.748237 144.832808) scale(0.105 -0.105)">
       <use xlink:href="#DejaVuSans-31"/>
       <use xlink:href="#DejaVuSans-2c" transform="translate(63.623047 0)"/>
       <use xlink:href="#DejaVuSans-37" transform="translate(95.410156 0)"/>
       <use xlink:href="#DejaVuSans-35" transform="translate(159.033203 0)"/>
      </g>
     </g>
    </g>
    <g id="ytick_9">
     <g id="line2d_20">
      <path d="M 65.127143 114.473943 
L 592.615893 114.473943 
" clip-path="url(#p0bf5c62d8a)" style="fill: none; stroke: #cecdc3; stroke-opacity: 0.9; stroke-width: 0.9; stroke-linecap: square"/>
     </g>
     <g id="line2d_21"/>
     <g id="text_12">
      <!-- 2 -->
      <g style="fill: #6f6e69" transform="translate(52.446518 118.463122) scale(0.105 -0.105)">
       <use xlink:href="#DejaVuSans-32"/>
      </g>
     </g>
    </g>
    <g id="text_13">
     <!-- Volatilidade relativa ao PIB   σ(X) / σ(Y) -->
     <g style="fill: #1c1b1a" transform="translate(23.564565 311.045404) rotate(-90) scale(0.105 -0.105)">
      <defs>
       <path id="DejaVuSans-56" d="M 1831 0 
L 50 4666 
L 709 4666 
L 2188 738 
L 3669 4666 
L 4325 4666 
L 2547 0 
L 1831 0 
z
" transform="scale(0.015625)"/>
       <path id="DejaVuSans-6f" d="M 1959 3097 
Q 1497 3097 1228 2736 
Q 959 2375 959 1747 
Q 959 1119 1226 758 
Q 1494 397 1959 397 
Q 2419 397 2687 759 
Q 2956 1122 2956 1747 
Q 2956 2369 2687 2733 
Q 2419 3097 1959 3097 
z
M 1959 3584 
Q 2709 3584 3137 3096 
Q 3566 2609 3566 1747 
Q 3566 888 3137 398 
Q 2709 -91 1959 -91 
Q 1206 -91 779 398 
Q 353 888 353 1747 
Q 353 2609 779 3096 
Q 1206 3584 1959 3584 
z
" transform="scale(0.015625)"/>
       <path id="DejaVuSans-6c" d="M 603 4863 
L 1178 4863 
L 1178 0 
L 603 0 
L 603 4863 
z
" transform="scale(0.015625)"/>
       <path id="DejaVuSans-61" d="M 2194 1759 
Q 1497 1759 1228 1600 
Q 959 1441 959 1056 
Q 959 750 1161 570 
Q 1363 391 1709 391 
Q 2188 391 2477 730 
Q 2766 1069 2766 1631 
L 2766 1759 
L 2194 1759 
z
M 3341 1997 
L 3341 0 
L 2766 0 
L 2766 531 
Q 2569 213 2275 61 
Q 1981 -91 1556 -91 
Q 1019 -91 701 211 
Q 384 513 384 1019 
Q 384 1609 779 1909 
Q 1175 2209 1959 2209 
L 2766 2209 
L 2766 2266 
Q 2766 2663 2505 2880 
Q 2244 3097 1772 3097 
Q 1472 3097 1187 3025 
Q 903 2953 641 2809 
L 641 3341 
Q 956 3463 1253 3523 
Q 1550 3584 1831 3584 
Q 2591 3584 2966 3190 
Q 3341 2797 3341 1997 
z
" transform="scale(0.015625)"/>
       <path id="DejaVuSans-74" d="M 1172 4494 
L 1172 3500 
L 2356 3500 
L 2356 3053 
L 1172 3053 
L 1172 1153 
Q 1172 725 1289 603 
Q 1406 481 1766 481 
L 2356 481 
L 2356 0 
L 1766 0 
Q 1100 0 847 248 
Q 594 497 594 1153 
L 594 3053 
L 172 3053 
L 172 3500 
L 594 3500 
L 594 4494 
L 1172 4494 
z
" transform="scale(0.015625)"/>
       <path id="DejaVuSans-69" d="M 603 3500 
L 1178 3500 
L 1178 0 
L 603 0 
L 603 3500 
z
M 603 4863 
L 1178 4863 
L 1178 4134 
L 603 4134 
L 603 4863 
z
" transform="scale(0.015625)"/>
       <path id="DejaVuSans-64" d="M 2906 2969 
L 2906 4863 
L 3481 4863 
L 3481 0 
L 2906 0 
L 2906 525 
Q 2725 213 2448 61 
Q 2172 -91 1784 -91 
Q 1150 -91 751 415 
Q 353 922 353 1747 
Q 353 2572 751 3078 
Q 1150 3584 1784 3584 
Q 2172 3584 2448 3432 
Q 2725 3281 2906 2969 
z
M 947 1747 
Q 947 1113 1208 752 
Q 1469 391 1925 391 
Q 2381 391 2643 752 
Q 2906 1113 2906 1747 
Q 2906 2381 2643 2742 
Q 2381 3103 1925 3103 
Q 1469 3103 1208 2742 
Q 947 2381 947 1747 
z
" transform="scale(0.015625)"/>
       <path id="DejaVuSans-65" d="M 3597 1894 
L 3597 1613 
L 953 1613 
Q 991 1019 1311 708 
Q 1631 397 2203 397 
Q 2534 397 2845 478 
Q 3156 559 3463 722 
L 3463 178 
Q 3153 47 2828 -22 
Q 2503 -91 2169 -91 
Q 1331 -91 842 396 
Q 353 884 353 1716 
Q 353 2575 817 3079 
Q 1281 3584 2069 3584 
Q 2775 3584 3186 3129 
Q 3597 2675 3597 1894 
z
M 3022 2063 
Q 3016 2534 2758 2815 
Q 2500 3097 2075 3097 
Q 1594 3097 1305 2825 
Q 1016 2553 972 2059 
L 3022 2063 
z
" transform="scale(0.015625)"/>
       <path id="DejaVuSans-20" transform="scale(0.015625)"/>
       <path id="DejaVuSans-72" d="M 2631 2963 
Q 2534 3019 2420 3045 
Q 2306 3072 2169 3072 
Q 1681 3072 1420 2755 
Q 1159 2438 1159 1844 
L 1159 0 
L 581 0 
L 581 3500 
L 1159 3500 
L 1159 2956 
Q 1341 3275 1631 3429 
Q 1922 3584 2338 3584 
Q 2397 3584 2469 3576 
Q 2541 3569 2628 3553 
L 2631 2963 
z
" transform="scale(0.015625)"/>
       <path id="DejaVuSans-76" d="M 191 3500 
L 800 3500 
L 1894 563 
L 2988 3500 
L 3597 3500 
L 2284 0 
L 1503 0 
L 191 3500 
z
" transform="scale(0.015625)"/>
       <path id="DejaVuSans-50" d="M 1259 4147 
L 1259 2394 
L 2053 2394 
Q 2494 2394 2734 2622 
Q 2975 2850 2975 3272 
Q 2975 3691 2734 3919 
Q 2494 4147 2053 4147 
L 1259 4147 
z
M 628 4666 
L 2053 4666 
Q 2838 4666 3239 4311 
Q 3641 3956 3641 3272 
Q 3641 2581 3239 2228 
Q 2838 1875 2053 1875 
L 1259 1875 
L 1259 0 
L 628 0 
L 628 4666 
z
" transform="scale(0.015625)"/>
       <path id="DejaVuSans-42" d="M 1259 2228 
L 1259 519 
L 2272 519 
Q 2781 519 3026 730 
Q 3272 941 3272 1375 
Q 3272 1813 3026 2020 
Q 2781 2228 2272 2228 
L 1259 2228 
z
M 1259 4147 
L 1259 2741 
L 2194 2741 
Q 2656 2741 2882 2914 
Q 3109 3088 3109 3444 
Q 3109 3797 2882 3972 
Q 2656 4147 2194 4147 
L 1259 4147 
z
M 628 4666 
L 2241 4666 
Q 2963 4666 3353 4366 
Q 3744 4066 3744 3513 
Q 3744 3084 3544 2831 
Q 3344 2578 2956 2516 
Q 3422 2416 3680 2098 
Q 3938 1781 3938 1306 
Q 3938 681 3513 340 
Q 3088 0 2303 0 
L 628 0 
L 628 4666 
z
" transform="scale(0.015625)"/>
       <path id="DejaVuSans-3c3" d="M 1959 3044 
Q 1484 3044 1228 2700 
Q 959 2341 959 1747 
Q 959 1119 1226 758 
Q 1494 397 1959 397 
Q 2419 397 2687 759 
Q 2956 1122 2956 1747 
Q 2956 2319 2688 2700 
Q 2441 3044 1959 3044 
z
M 1959 3500 
L 3869 3500 
L 3869 2925 
L 3225 2925 
Q 3566 2438 3566 1747 
Q 3566 888 3138 400 
Q 2709 -91 1959 -91 
Q 1206 -91 781 400 
Q 353 888 353 1747 
Q 353 2613 781 3097 
Q 1134 3500 1959 3500 
z
" transform="scale(0.015625)"/>
       <path id="DejaVuSans-28" d="M 1984 4856 
Q 1566 4138 1362 3434 
Q 1159 2731 1159 2009 
Q 1159 1288 1364 580 
Q 1569 -128 1984 -844 
L 1484 -844 
Q 1016 -109 783 600 
Q 550 1309 550 2009 
Q 550 2706 781 3412 
Q 1013 4119 1484 4856 
L 1984 4856 
z
" transform="scale(0.015625)"/>
       <path id="DejaVuSans-58" d="M 403 4666 
L 1081 4666 
L 2241 2931 
L 3406 4666 
L 4084 4666 
L 2584 2425 
L 4184 0 
L 3506 0 
L 2194 1984 
L 872 0 
L 191 0 
L 1856 2491 
L 403 4666 
z
" transform="scale(0.015625)"/>
       <path id="DejaVuSans-29" d="M 513 4856 
L 1013 4856 
Q 1481 4119 1714 3412 
Q 1947 2706 1947 2009 
Q 1947 1309 1714 600 
Q 1481 -109 1013 -844 
L 513 -844 
Q 928 -128 1133 580 
Q 1338 1288 1338 2009 
Q 1338 2731 1133 3434 
Q 928 4138 513 4856 
z
" transform="scale(0.015625)"/>
       <path id="DejaVuSans-2f" d="M 1625 4666 
L 2156 4666 
L 531 -594 
L 0 -594 
L 1625 4666 
z
" transform="scale(0.015625)"/>
       <path id="DejaVuSans-59" d="M -13 4666 
L 666 4666 
L 1959 2747 
L 3244 4666 
L 3922 4666 
L 2272 2222 
L 2272 0 
L 1638 0 
L 1638 2222 
L -13 4666 
z
" transform="scale(0.015625)"/>
      </defs>
      <use xlink:href="#DejaVuSans-56"/>
      <use xlink:href="#DejaVuSans-6f" transform="translate(60.658203 0)"/>
      <use xlink:href="#DejaVuSans-6c" transform="translate(121.839844 0)"/>
      <use xlink:href="#DejaVuSans-61" transform="translate(149.623047 0)"/>
      <use xlink:href="#DejaVuSans-74" transform="translate(210.902344 0)"/>
      <use xlink:href="#DejaVuSans-69" transform="translate(250.111328 0)"/>
      <use xlink:href="#DejaVuSans-6c" transform="translate(277.894531 0)"/>
      <use xlink:href="#DejaVuSans-69" transform="translate(305.677734 0)"/>
      <use xlink:href="#DejaVuSans-64" transform="translate(333.460938 0)"/>
      <use xlink:href="#DejaVuSans-61" transform="translate(396.9375 0)"/>
      <use xlink:href="#DejaVuSans-64" transform="translate(458.216797 0)"/>
      <use xlink:href="#DejaVuSans-65" transform="translate(521.693359 0)"/>
      <use xlink:href="#DejaVuSans-20" transform="translate(583.216797 0)"/>
      <use xlink:href="#DejaVuSans-72" transform="translate(615.003906 0)"/>
      <use xlink:href="#DejaVuSans-65" transform="translate(653.867188 0)"/>
      <use xlink:href="#DejaVuSans-6c" transform="translate(715.390625 0)"/>
      <use xlink:href="#DejaVuSans-61" transform="translate(743.173828 0)"/>
      <use xlink:href="#DejaVuSans-74" transform="translate(804.453125 0)"/>
      <use xlink:href="#DejaVuSans-69" transform="translate(843.662109 0)"/>
      <use xlink:href="#DejaVuSans-76" transform="translate(871.445312 0)"/>
      <use xlink:href="#DejaVuSans-61" transform="translate(930.625 0)"/>
      <use xlink:href="#DejaVuSans-20" transform="translate(991.904297 0)"/>
      <use xlink:href="#DejaVuSans-61" transform="translate(1023.691406 0)"/>
      <use xlink:href="#DejaVuSans-6f" transform="translate(1084.970703 0)"/>
      <use xlink:href="#DejaVuSans-20" transform="translate(1146.152344 0)"/>
      <use xlink:href="#DejaVuSans-50" transform="translate(1177.939453 0)"/>
      <use xlink:href="#DejaVuSans-49" transform="translate(1238.242188 0)"/>
      <use xlink:href="#DejaVuSans-42" transform="translate(1267.734375 0)"/>
      <use xlink:href="#DejaVuSans-20" transform="translate(1336.337891 0)"/>
      <use xlink:href="#DejaVuSans-20" transform="translate(1368.125 0)"/>
      <use xlink:href="#DejaVuSans-20" transform="translate(1399.912109 0)"/>
      <use xlink:href="#DejaVuSans-3c3" transform="translate(1431.699219 0)"/>
      <use xlink:href="#DejaVuSans-28" transform="translate(1495.078125 0)"/>
      <use xlink:href="#DejaVuSans-58" transform="translate(1534.091797 0)"/>
      <use xlink:href="#DejaVuSans-29" transform="translate(1602.597656 0)"/>
      <use xlink:href="#DejaVuSans-20" transform="translate(1641.611328 0)"/>
      <use xlink:href="#DejaVuSans-2f" transform="translate(1673.398438 0)"/>
      <use xlink:href="#DejaVuSans-20" transform="translate(1707.089844 0)"/>
      <use xlink:href="#DejaVuSans-3c3" transform="translate(1738.876953 0)"/>
      <use xlink:href="#DejaVuSans-28" transform="translate(1802.255859 0)"/>
      <use xlink:href="#DejaVuSans-59" transform="translate(1841.269531 0)"/>
      <use xlink:href="#DejaVuSans-29" transform="translate(1902.353516 0)"/>
     </g>
    </g>
   </g>
   <g id="line2d_22">
    <path d="M 65.127143 219.952686 
L 592.615893 219.952686 
" clip-path="url(#p0bf5c62d8a)" style="fill: none; stroke-dasharray: 4.81,2.08; stroke-dashoffset: 0; stroke: #878580; stroke-opacity: 0.85; stroke-width: 1.3"/>
   </g>
   <g id="patch_3">
    <path d="M 65.127143 325.431429 
L 65.127143 92.818286 
" style="fill: none; stroke: #cecdc3; stroke-width: 0.8; stroke-linejoin: miter; stroke-linecap: square"/>
   </g>
   <g id="patch_4">
    <path d="M 65.127143 325.431429 
L 592.615893 325.431429 
" style="fill: none; stroke: #cecdc3; stroke-width: 0.8; stroke-linejoin: miter; stroke-linecap: square"/>
   </g>
   <g id="patch_5">
    <path d="M 118.700219 325.431429 
L 209.362348 325.431429 
L 209.362348 242.696409 
L 118.700219 242.696409 
z
" clip-path="url(#p0bf5c62d8a)" style="fill: #3aa99f; opacity: 0.88"/>
   </g>
   <g id="patch_6">
    <path d="M 283.540453 325.431429 
L 374.202582 325.431429 
L 374.202582 103.895102 
L 283.540453 103.895102 
z
" clip-path="url(#p0bf5c62d8a)" style="fill: #3aa99f; opacity: 0.88"/>
   </g>
   <g id="patch_7">
    <path d="M 448.380688 325.431429 
L 539.042817 325.431429 
L 539.042817 216.780908 
L 448.380688 216.780908 
z
" clip-path="url(#p0bf5c62d8a)" style="fill: #3aa99f; opacity: 0.88"/>
   </g>
   <g id="text_14">
    <g id="patch_8">
     <path d="M 519.443776 216.381404 
L 638.785588 216.381404 
Q 639.913588 216.381404 639.913588 215.253404 
L 639.913588 204.651967 
Q 639.913588 203.523967 638.785588 203.523967 
L 519.443776 203.523967 
Q 518.315776 203.523967 518.315776 204.651967 
L 518.315776 215.253404 
Q 518.315776 216.381404 519.443776 216.381404 
z
" style="fill: #fffcf0; opacity: 0.96"/>
    </g>
    <!-- Referência: σ(X)/σ(Y) = 1 -->
    <g style="fill: #6f6e69" transform="translate(520.195776 212.546498) scale(0.094 -0.094)">
     <defs>
      <path id="DejaVuSans-52" d="M 2841 2188 
Q 3044 2119 3236 1894 
Q 3428 1669 3622 1275 
L 4263 0 
L 3584 0 
L 2988 1197 
Q 2756 1666 2539 1819 
Q 2322 1972 1947 1972 
L 1259 1972 
L 1259 0 
L 628 0 
L 628 4666 
L 2053 4666 
Q 2853 4666 3247 4331 
Q 3641 3997 3641 3322 
Q 3641 2881 3436 2590 
Q 3231 2300 2841 2188 
z
M 1259 4147 
L 1259 2491 
L 2053 2491 
Q 2509 2491 2742 2702 
Q 2975 2913 2975 3322 
Q 2975 3731 2742 3939 
Q 2509 4147 2053 4147 
L 1259 4147 
z
" transform="scale(0.015625)"/>
      <path id="DejaVuSans-66" d="M 2375 4863 
L 2375 4384 
L 1825 4384 
Q 1516 4384 1395 4259 
Q 1275 4134 1275 3809 
L 1275 3500 
L 2222 3500 
L 2222 3053 
L 1275 3053 
L 1275 0 
L 697 0 
L 697 3053 
L 147 3053 
L 147 3500 
L 697 3500 
L 697 3744 
Q 697 4328 969 4595 
Q 1241 4863 1831 4863 
L 2375 4863 
z
" transform="scale(0.015625)"/>
      <path id="DejaVuSans-ea" d="M 3597 1894 
L 3597 1613 
L 953 1613 
Q 991 1019 1311 708 
Q 1631 397 2203 397 
Q 2534 397 2845 478 
Q 3156 559 3463 722 
L 3463 178 
Q 3153 47 2828 -22 
Q 2503 -91 2169 -91 
Q 1331 -91 842 396 
Q 353 884 353 1716 
Q 353 2575 817 3079 
Q 1281 3584 2069 3584 
Q 2775 3584 3186 3129 
Q 3597 2675 3597 1894 
z
M 3022 2063 
Q 3016 2534 2758 2815 
Q 2500 3097 2075 3097 
Q 1594 3097 1305 2825 
Q 1016 2553 972 2059 
L 3022 2063 
z
M 1801 5119 
L 2263 5119 
L 3029 3944 
L 2595 3944 
L 2032 4709 
L 1470 3944 
L 1035 3944 
L 1801 5119 
z
" transform="scale(0.015625)"/>
      <path id="DejaVuSans-6e" d="M 3513 2113 
L 3513 0 
L 2938 0 
L 2938 2094 
Q 2938 2591 2744 2837 
Q 2550 3084 2163 3084 
Q 1697 3084 1428 2787 
Q 1159 2491 1159 1978 
L 1159 0 
L 581 0 
L 581 3500 
L 1159 3500 
L 1159 2956 
Q 1366 3272 1645 3428 
Q 1925 3584 2291 3584 
Q 2894 3584 3203 3211 
Q 3513 2838 3513 2113 
z
" transform="scale(0.015625)"/>
      <path id="DejaVuSans-63" d="M 3122 3366 
L 3122 2828 
Q 2878 2963 2633 3030 
Q 2388 3097 2138 3097 
Q 1578 3097 1268 2742 
Q 959 2388 959 1747 
Q 959 1106 1268 751 
Q 1578 397 2138 397 
Q 2388 397 2633 464 
Q 2878 531 3122 666 
L 3122 134 
Q 2881 22 2623 -34 
Q 2366 -91 2075 -91 
Q 1284 -91 818 406 
Q 353 903 353 1747 
Q 353 2603 823 3093 
Q 1294 3584 2113 3584 
Q 2378 3584 2631 3529 
Q 2884 3475 3122 3366 
z
" transform="scale(0.015625)"/>
      <path id="DejaVuSans-3a" d="M 750 794 
L 1409 794 
L 1409 0 
L 750 0 
L 750 794 
z
M 750 3309 
L 1409 3309 
L 1409 2516 
L 750 2516 
L 750 3309 
z
" transform="scale(0.015625)"/>
      <path id="DejaVuSans-3d" d="M 678 2906 
L 4684 2906 
L 4684 2381 
L 678 2381 
L 678 2906 
z
M 678 1631 
L 4684 1631 
L 4684 1100 
L 678 1100 
L 678 1631 
z
" transform="scale(0.015625)"/>
     </defs>
     <use xlink:href="#DejaVuSans-52"/>
     <use xlink:href="#DejaVuSans-65" transform="translate(64.982422 0)"/>
     <use xlink:href="#DejaVuSans-66" transform="translate(126.505859 0)"/>
     <use xlink:href="#DejaVuSans-65" transform="translate(161.710938 0)"/>
     <use xlink:href="#DejaVuSans-72" transform="translate(223.234375 0)"/>
     <use xlink:href="#DejaVuSans-ea" transform="translate(262.097656 0)"/>
     <use xlink:href="#DejaVuSans-6e" transform="translate(323.621094 0)"/>
     <use xlink:href="#DejaVuSans-63" transform="translate(387 0)"/>
     <use xlink:href="#DejaVuSans-69" transform="translate(441.980469 0)"/>
     <use xlink:href="#DejaVuSans-61" transform="translate(469.763672 0)"/>
     <use xlink:href="#DejaVuSans-3a" transform="translate(531.042969 0)"/>
     <use xlink:href="#DejaVuSans-20" transform="translate(564.734375 0)"/>
     <use xlink:href="#DejaVuSans-3c3" transform="translate(596.521484 0)"/>
     <use xlink:href="#DejaVuSans-28" transform="translate(659.900391 0)"/>
     <use xlink:href="#DejaVuSans-58" transform="translate(698.914062 0)"/>
     <use xlink:href="#DejaVuSans-29" transform="translate(767.419922 0)"/>
     <use xlink:href="#DejaVuSans-2f" transform="translate(806.433594 0)"/>
     <use xlink:href="#DejaVuSans-3c3" transform="translate(840.125 0)"/>
     <use xlink:href="#DejaVuSans-28" transform="translate(903.503906 0)"/>
     <use xlink:href="#DejaVuSans-59" transform="translate(942.517578 0)"/>
     <use xlink:href="#DejaVuSans-29" transform="translate(1003.601562 0)"/>
     <use xlink:href="#DejaVuSans-20" transform="translate(1042.615234 0)"/>
     <use xlink:href="#DejaVuSans-3d" transform="translate(1074.402344 0)"/>
     <use xlink:href="#DejaVuSans-20" transform="translate(1158.191406 0)"/>
     <use xlink:href="#DejaVuSans-31" transform="translate(1189.978516 0)"/>
    </g>
   </g>
   <g id="text_15">
    <!-- 0.78 -->
    <g style="fill: #1c1b1a" transform="translate(152.312143 238.083737) scale(0.095 -0.095)">
     <defs>
      <path id="DejaVuSans-Bold-30" d="M 2944 2338 
Q 2944 3213 2780 3570 
Q 2616 3928 2228 3928 
Q 1841 3928 1675 3570 
Q 1509 3213 1509 2338 
Q 1509 1453 1675 1090 
Q 1841 728 2228 728 
Q 2613 728 2778 1090 
Q 2944 1453 2944 2338 
z
M 4147 2328 
Q 4147 1169 3647 539 
Q 3147 -91 2228 -91 
Q 1306 -91 806 539 
Q 306 1169 306 2328 
Q 306 3491 806 4120 
Q 1306 4750 2228 4750 
Q 3147 4750 3647 4120 
Q 4147 3491 4147 2328 
z
" transform="scale(0.015625)"/>
      <path id="DejaVuSans-Bold-2e" d="M 653 1209 
L 1778 1209 
L 1778 0 
L 653 0 
L 653 1209 
z
" transform="scale(0.015625)"/>
      <path id="DejaVuSans-Bold-37" d="M 428 4666 
L 3944 4666 
L 3944 3988 
L 2125 0 
L 953 0 
L 2675 3781 
L 428 3781 
L 428 4666 
z
" transform="scale(0.015625)"/>
      <path id="DejaVuSans-Bold-38" d="M 2228 2088 
Q 1891 2088 1709 1903 
Q 1528 1719 1528 1375 
Q 1528 1031 1709 848 
Q 1891 666 2228 666 
Q 2563 666 2741 848 
Q 2919 1031 2919 1375 
Q 2919 1722 2741 1905 
Q 2563 2088 2228 2088 
z
M 1350 2484 
Q 925 2613 709 2878 
Q 494 3144 494 3541 
Q 494 4131 934 4440 
Q 1375 4750 2228 4750 
Q 3075 4750 3515 4442 
Q 3956 4134 3956 3541 
Q 3956 3144 3739 2878 
Q 3522 2613 3097 2484 
Q 3572 2353 3814 2058 
Q 4056 1763 4056 1313 
Q 4056 619 3595 264 
Q 3134 -91 2228 -91 
Q 1319 -91 855 264 
Q 391 619 391 1313 
Q 391 1763 633 2058 
Q 875 2353 1350 2484 
z
M 1631 3419 
Q 1631 3141 1786 2991 
Q 1941 2841 2228 2841 
Q 2509 2841 2662 2991 
Q 2816 3141 2816 3419 
Q 2816 3697 2662 3845 
Q 2509 3994 2228 3994 
Q 1941 3994 1786 3844 
Q 1631 3694 1631 3419 
z
" transform="scale(0.015625)"/>
     </defs>
     <use xlink:href="#DejaVuSans-Bold-30"/>
     <use xlink:href="#DejaVuSans-Bold-2e" transform="translate(69.580078 0)"/>
     <use xlink:href="#DejaVuSans-Bold-37" transform="translate(107.568359 0)"/>
     <use xlink:href="#DejaVuSans-Bold-38" transform="translate(177.148438 0)"/>
    </g>
   </g>
   <g id="text_16">
    <!-- 2.10 -->
    <g style="fill: #1c1b1a" transform="translate(317.152377 99.28243) scale(0.095 -0.095)">
     <defs>
      <path id="DejaVuSans-Bold-32" d="M 1844 884 
L 3897 884 
L 3897 0 
L 506 0 
L 506 884 
L 2209 2388 
Q 2438 2594 2547 2791 
Q 2656 2988 2656 3200 
Q 2656 3528 2436 3728 
Q 2216 3928 1850 3928 
Q 1569 3928 1234 3808 
Q 900 3688 519 3450 
L 519 4475 
Q 925 4609 1322 4679 
Q 1719 4750 2100 4750 
Q 2938 4750 3402 4381 
Q 3866 4013 3866 3353 
Q 3866 2972 3669 2642 
Q 3472 2313 2841 1759 
L 1844 884 
z
" transform="scale(0.015625)"/>
      <path id="DejaVuSans-Bold-31" d="M 750 831 
L 1813 831 
L 1813 3847 
L 722 3622 
L 722 4441 
L 1806 4666 
L 2950 4666 
L 2950 831 
L 4013 831 
L 4013 0 
L 750 0 
L 750 831 
z
" transform="scale(0.015625)"/>
     </defs>
     <use xlink:href="#DejaVuSans-Bold-32"/>
     <use xlink:href="#DejaVuSans-Bold-2e" transform="translate(69.580078 0)"/>
     <use xlink:href="#DejaVuSans-Bold-31" transform="translate(107.568359 0)"/>
     <use xlink:href="#DejaVuSans-Bold-30" transform="translate(177.148438 0)"/>
    </g>
   </g>
   <g id="text_17">
    <!-- 1.03 -->
    <g style="fill: #1c1b1a" transform="translate(481.992612 212.168236) scale(0.095 -0.095)">
     <defs>
      <path id="DejaVuSans-Bold-33" d="M 2981 2516 
Q 3453 2394 3698 2092 
Q 3944 1791 3944 1325 
Q 3944 631 3412 270 
Q 2881 -91 1863 -91 
Q 1503 -91 1142 -33 
Q 781 25 428 141 
L 428 1069 
Q 766 900 1098 814 
Q 1431 728 1753 728 
Q 2231 728 2486 893 
Q 2741 1059 2741 1369 
Q 2741 1688 2480 1852 
Q 2219 2016 1709 2016 
L 1228 2016 
L 1228 2791 
L 1734 2791 
Q 2188 2791 2409 2933 
Q 2631 3075 2631 3366 
Q 2631 3634 2415 3781 
Q 2200 3928 1806 3928 
Q 1516 3928 1219 3862 
Q 922 3797 628 3669 
L 628 4550 
Q 984 4650 1334 4700 
Q 1684 4750 2022 4750 
Q 2931 4750 3382 4451 
Q 3834 4153 3834 3553 
Q 3834 3144 3618 2883 
Q 3403 2622 2981 2516 
z
" transform="scale(0.015625)"/>
     </defs>
     <use xlink:href="#DejaVuSans-Bold-31"/>
     <use xlink:href="#DejaVuSans-Bold-2e" transform="translate(69.580078 0)"/>
     <use xlink:href="#DejaVuSans-Bold-30" transform="translate(107.568359 0)"/>
     <use xlink:href="#DejaVuSans-Bold-33" transform="translate(177.148438 0)"/>
    </g>
   </g>
   <g id="legend_1">
    <g id="patch_9">
     <path d="M 479.622299 125.762504 
L 581.215893 125.762504 
Q 583.115893 125.762504 583.115893 123.862504 
L 583.115893 104.218286 
Q 583.115893 102.318286 581.215893 102.318286 
L 479.622299 102.318286 
Q 477.722299 102.318286 477.722299 104.218286 
L 477.722299 123.862504 
Q 477.722299 125.762504 479.622299 125.762504 
z
" style="fill: #fffcf0; opacity: 0.96; stroke: #cecdc3; stroke-width: 0.8; stroke-linejoin: miter"/>
    </g>
    <g id="patch_10">
     <path d="M 484.847299 116.661801 
L 511.447299 116.661801 
L 511.447299 110.011801 
L 484.847299 110.011801 
z
" style="fill: #3aa99f; opacity: 0.88"/>
    </g>
    <g id="text_18">
     <!-- Modelo RBC -->
     <g style="fill: #1c1b1a" transform="translate(519.047299 116.661801) scale(0.095 -0.095)">
      <defs>
       <path id="DejaVuSans-4d" d="M 628 4666 
L 1569 4666 
L 2759 1491 
L 3956 4666 
L 4897 4666 
L 4897 0 
L 4281 0 
L 4281 4097 
L 3078 897 
L 2444 897 
L 1241 4097 
L 1241 0 
L 628 0 
L 628 4666 
z
" transform="scale(0.015625)"/>
      </defs>
      <use xlink:href="#DejaVuSans-4d"/>
      <use xlink:href="#DejaVuSans-6f" transform="translate(86.279297 0)"/>
      <use xlink:href="#DejaVuSans-64" transform="translate(147.460938 0)"/>
      <use xlink:href="#DejaVuSans-65" transform="translate(210.9375 0)"/>
      <use xlink:href="#DejaVuSans-6c" transform="translate(272.460938 0)"/>
      <use xlink:href="#DejaVuSans-6f" transform="translate(300.244141 0)"/>
      <use xlink:href="#DejaVuSans-20" transform="translate(361.425781 0)"/>
      <use xlink:href="#DejaVuSans-52" transform="translate(393.212891 0)"/>
      <use xlink:href="#DejaVuSans-42" transform="translate(462.695312 0)"/>
      <use xlink:href="#DejaVuSans-43" transform="translate(529.548828 0)"/>
     </g>
    </g>
   </g>
  </g>
  <g id="text_19">
   <!-- RBC: volatilidade relativa dos agregados -->
   <g style="fill: #1c1b1a" transform="translate(14.4 26.5575) scale(0.16 -0.16)">
    <defs>
     <path id="DejaVuSans-Bold-52" d="M 2297 2597 
Q 2675 2597 2839 2737 
Q 3003 2878 3003 3200 
Q 3003 3519 2839 3656 
Q 2675 3794 2297 3794 
L 1791 3794 
L 1791 2597 
L 2297 2597 
z
M 1791 1766 
L 1791 0 
L 588 0 
L 588 4666 
L 2425 4666 
Q 3347 4666 3776 4356 
Q 4206 4047 4206 3378 
Q 4206 2916 3982 2619 
Q 3759 2322 3309 2181 
Q 3556 2125 3751 1926 
Q 3947 1728 4147 1325 
L 4800 0 
L 3519 0 
L 2950 1159 
Q 2778 1509 2601 1637 
Q 2425 1766 2131 1766 
L 1791 1766 
z
" transform="scale(0.015625)"/>
     <path id="DejaVuSans-Bold-42" d="M 2456 2859 
Q 2741 2859 2887 2984 
Q 3034 3109 3034 3353 
Q 3034 3594 2887 3720 
Q 2741 3847 2456 3847 
L 1791 3847 
L 1791 2859 
L 2456 2859 
z
M 2497 819 
Q 2859 819 3042 972 
Q 3225 1125 3225 1434 
Q 3225 1738 3044 1889 
Q 2863 2041 2497 2041 
L 1791 2041 
L 1791 819 
L 2497 819 
z
M 3616 2497 
Q 4003 2384 4215 2081 
Q 4428 1778 4428 1338 
Q 4428 663 3972 331 
Q 3516 0 2584 0 
L 588 0 
L 588 4666 
L 2394 4666 
Q 3366 4666 3802 4372 
Q 4238 4078 4238 3431 
Q 4238 3091 4078 2852 
Q 3919 2613 3616 2497 
z
" transform="scale(0.015625)"/>
     <path id="DejaVuSans-Bold-43" d="M 4288 256 
Q 3956 84 3597 -3 
Q 3238 -91 2847 -91 
Q 1681 -91 1000 561 
Q 319 1213 319 2328 
Q 319 3447 1000 4098 
Q 1681 4750 2847 4750 
Q 3238 4750 3597 4662 
Q 3956 4575 4288 4403 
L 4288 3438 
Q 3953 3666 3628 3772 
Q 3303 3878 2944 3878 
Q 2300 3878 1931 3465 
Q 1563 3053 1563 2328 
Q 1563 1606 1931 1193 
Q 2300 781 2944 781 
Q 3303 781 3628 887 
Q 3953 994 4288 1222 
L 4288 256 
z
" transform="scale(0.015625)"/>
     <path id="DejaVuSans-Bold-3a" d="M 716 3500 
L 1844 3500 
L 1844 2291 
L 716 2291 
L 716 3500 
z
M 716 1209 
L 1844 1209 
L 1844 0 
L 716 0 
L 716 1209 
z
" transform="scale(0.015625)"/>
     <path id="DejaVuSans-Bold-20" transform="scale(0.015625)"/>
     <path id="DejaVuSans-Bold-76" d="M 97 3500 
L 1216 3500 
L 2088 1081 
L 2956 3500 
L 4078 3500 
L 2700 0 
L 1472 0 
L 97 3500 
z
" transform="scale(0.015625)"/>
     <path id="DejaVuSans-Bold-6f" d="M 2203 2784 
Q 1831 2784 1636 2517 
Q 1441 2250 1441 1747 
Q 1441 1244 1636 976 
Q 1831 709 2203 709 
Q 2569 709 2762 976 
Q 2956 1244 2956 1747 
Q 2956 2250 2762 2517 
Q 2569 2784 2203 2784 
z
M 2203 3584 
Q 3106 3584 3614 3096 
Q 4122 2609 4122 1747 
Q 4122 884 3614 396 
Q 3106 -91 2203 -91 
Q 1297 -91 786 396 
Q 275 884 275 1747 
Q 275 2609 786 3096 
Q 1297 3584 2203 3584 
z
" transform="scale(0.015625)"/>
     <path id="DejaVuSans-Bold-6c" d="M 538 4863 
L 1656 4863 
L 1656 0 
L 538 0 
L 538 4863 
z
" transform="scale(0.015625)"/>
     <path id="DejaVuSans-Bold-61" d="M 2106 1575 
Q 1756 1575 1579 1456 
Q 1403 1338 1403 1106 
Q 1403 894 1545 773 
Q 1688 653 1941 653 
Q 2256 653 2472 879 
Q 2688 1106 2688 1447 
L 2688 1575 
L 2106 1575 
z
M 3816 1997 
L 3816 0 
L 2688 0 
L 2688 519 
Q 2463 200 2181 54 
Q 1900 -91 1497 -91 
Q 953 -91 614 226 
Q 275 544 275 1050 
Q 275 1666 698 1953 
Q 1122 2241 2028 2241 
L 2688 2241 
L 2688 2328 
Q 2688 2594 2478 2717 
Q 2269 2841 1825 2841 
Q 1466 2841 1156 2769 
Q 847 2697 581 2553 
L 581 3406 
Q 941 3494 1303 3539 
Q 1666 3584 2028 3584 
Q 2975 3584 3395 3211 
Q 3816 2838 3816 1997 
z
" transform="scale(0.015625)"/>
     <path id="DejaVuSans-Bold-74" d="M 1759 4494 
L 1759 3500 
L 2913 3500 
L 2913 2700 
L 1759 2700 
L 1759 1216 
Q 1759 972 1856 886 
Q 1953 800 2241 800 
L 2816 800 
L 2816 0 
L 1856 0 
Q 1194 0 917 276 
Q 641 553 641 1216 
L 641 2700 
L 84 2700 
L 84 3500 
L 641 3500 
L 641 4494 
L 1759 4494 
z
" transform="scale(0.015625)"/>
     <path id="DejaVuSans-Bold-69" d="M 538 3500 
L 1656 3500 
L 1656 0 
L 538 0 
L 538 3500 
z
M 538 4863 
L 1656 4863 
L 1656 3950 
L 538 3950 
L 538 4863 
z
" transform="scale(0.015625)"/>
     <path id="DejaVuSans-Bold-64" d="M 2919 2988 
L 2919 4863 
L 4044 4863 
L 4044 0 
L 2919 0 
L 2919 506 
Q 2688 197 2409 53 
Q 2131 -91 1766 -91 
Q 1119 -91 703 423 
Q 288 938 288 1747 
Q 288 2556 703 3070 
Q 1119 3584 1766 3584 
Q 2128 3584 2408 3439 
Q 2688 3294 2919 2988 
z
M 2181 722 
Q 2541 722 2730 984 
Q 2919 1247 2919 1747 
Q 2919 2247 2730 2509 
Q 2541 2772 2181 2772 
Q 1825 2772 1636 2509 
Q 1447 2247 1447 1747 
Q 1447 1247 1636 984 
Q 1825 722 2181 722 
z
" transform="scale(0.015625)"/>
     <path id="DejaVuSans-Bold-65" d="M 4031 1759 
L 4031 1441 
L 1416 1441 
Q 1456 1047 1700 850 
Q 1944 653 2381 653 
Q 2734 653 3104 758 
Q 3475 863 3866 1075 
L 3866 213 
Q 3469 63 3072 -14 
Q 2675 -91 2278 -91 
Q 1328 -91 801 392 
Q 275 875 275 1747 
Q 275 2603 792 3093 
Q 1309 3584 2216 3584 
Q 3041 3584 3536 3087 
Q 4031 2591 4031 1759 
z
M 2881 2131 
Q 2881 2450 2695 2645 
Q 2509 2841 2209 2841 
Q 1884 2841 1681 2658 
Q 1478 2475 1428 2131 
L 2881 2131 
z
" transform="scale(0.015625)"/>
     <path id="DejaVuSans-Bold-72" d="M 3138 2547 
Q 2991 2616 2845 2648 
Q 2700 2681 2553 2681 
Q 2122 2681 1889 2404 
Q 1656 2128 1656 1613 
L 1656 0 
L 538 0 
L 538 3500 
L 1656 3500 
L 1656 2925 
Q 1872 3269 2151 3426 
Q 2431 3584 2822 3584 
Q 2878 3584 2943 3579 
Q 3009 3575 3134 3559 
L 3138 2547 
z
" transform="scale(0.015625)"/>
     <path id="DejaVuSans-Bold-73" d="M 3272 3391 
L 3272 2541 
Q 2913 2691 2578 2766 
Q 2244 2841 1947 2841 
Q 1628 2841 1473 2761 
Q 1319 2681 1319 2516 
Q 1319 2381 1436 2309 
Q 1553 2238 1856 2203 
L 2053 2175 
Q 2913 2066 3209 1816 
Q 3506 1566 3506 1031 
Q 3506 472 3093 190 
Q 2681 -91 1863 -91 
Q 1516 -91 1145 -36 
Q 775 19 384 128 
L 384 978 
Q 719 816 1070 734 
Q 1422 653 1784 653 
Q 2113 653 2278 743 
Q 2444 834 2444 1013 
Q 2444 1163 2330 1236 
Q 2216 1309 1875 1350 
L 1678 1375 
Q 931 1469 631 1722 
Q 331 1975 331 2491 
Q 331 3047 712 3315 
Q 1094 3584 1881 3584 
Q 2191 3584 2531 3537 
Q 2872 3491 3272 3391 
z
" transform="scale(0.015625)"/>
     <path id="DejaVuSans-Bold-67" d="M 2919 594 
Q 2688 288 2409 144 
Q 2131 0 1766 0 
Q 1125 0 706 504 
Q 288 1009 288 1791 
Q 288 2575 706 3076 
Q 1125 3578 1766 3578 
Q 2131 3578 2409 3434 
Q 2688 3291 2919 2981 
L 2919 3500 
L 4044 3500 
L 4044 353 
Q 4044 -491 3511 -936 
Q 2978 -1381 1966 -1381 
Q 1638 -1381 1331 -1331 
Q 1025 -1281 716 -1178 
L 716 -306 
Q 1009 -475 1290 -558 
Q 1572 -641 1856 -641 
Q 2406 -641 2662 -400 
Q 2919 -159 2919 353 
L 2919 594 
z
M 2181 2772 
Q 1834 2772 1640 2515 
Q 1447 2259 1447 1791 
Q 1447 1309 1634 1061 
Q 1822 813 2181 813 
Q 2531 813 2725 1069 
Q 2919 1325 2919 1791 
Q 2919 2259 2725 2515 
Q 2531 2772 2181 2772 
z
" transform="scale(0.015625)"/>
    </defs>
    <use xlink:href="#DejaVuSans-Bold-52"/>
    <use xlink:href="#DejaVuSans-Bold-42" transform="translate(77.001953 0)"/>
    <use xlink:href="#DejaVuSans-Bold-43" transform="translate(153.222656 0)"/>
    <use xlink:href="#DejaVuSans-Bold-3a" transform="translate(226.611328 0)"/>
    <use xlink:href="#DejaVuSans-Bold-20" transform="translate(266.601562 0)"/>
    <use xlink:href="#DejaVuSans-Bold-76" transform="translate(301.416016 0)"/>
    <use xlink:href="#DejaVuSans-Bold-6f" transform="translate(366.601562 0)"/>
    <use xlink:href="#DejaVuSans-Bold-6c" transform="translate(435.302734 0)"/>
    <use xlink:href="#DejaVuSans-Bold-61" transform="translate(469.580078 0)"/>
    <use xlink:href="#DejaVuSans-Bold-74" transform="translate(537.060547 0)"/>
    <use xlink:href="#DejaVuSans-Bold-69" transform="translate(584.863281 0)"/>
    <use xlink:href="#DejaVuSans-Bold-6c" transform="translate(619.140625 0)"/>
    <use xlink:href="#DejaVuSans-Bold-69" transform="translate(653.417969 0)"/>
    <use xlink:href="#DejaVuSans-Bold-64" transform="translate(687.695312 0)"/>
    <use xlink:href="#DejaVuSans-Bold-61" transform="translate(759.277344 0)"/>
    <use xlink:href="#DejaVuSans-Bold-64" transform="translate(826.757812 0)"/>
    <use xlink:href="#DejaVuSans-Bold-65" transform="translate(898.339844 0)"/>
    <use xlink:href="#DejaVuSans-Bold-20" transform="translate(966.162109 0)"/>
    <use xlink:href="#DejaVuSans-Bold-72" transform="translate(1000.976562 0)"/>
    <use xlink:href="#DejaVuSans-Bold-65" transform="translate(1050.292969 0)"/>
    <use xlink:href="#DejaVuSans-Bold-6c" transform="translate(1118.115234 0)"/>
    <use xlink:href="#DejaVuSans-Bold-61" transform="translate(1152.392578 0)"/>
    <use xlink:href="#DejaVuSans-Bold-74" transform="translate(1219.873047 0)"/>
    <use xlink:href="#DejaVuSans-Bold-69" transform="translate(1267.675781 0)"/>
    <use xlink:href="#DejaVuSans-Bold-76" transform="translate(1301.953125 0)"/>
    <use xlink:href="#DejaVuSans-Bold-61" transform="translate(1367.138672 0)"/>
    <use xlink:href="#DejaVuSans-Bold-20" transform="translate(1434.619141 0)"/>
    <use xlink:href="#DejaVuSans-Bold-64" transform="translate(1469.433594 0)"/>
    <use xlink:href="#DejaVuSans-Bold-6f" transform="translate(1541.015625 0)"/>
    <use xlink:href="#DejaVuSans-Bold-73" transform="translate(1609.716797 0)"/>
    <use xlink:href="#DejaVuSans-Bold-20" transform="translate(1669.238281 0)"/>
    <use xlink:href="#DejaVuSans-Bold-61" transform="translate(1704.052734 0)"/>
    <use xlink:href="#DejaVuSans-Bold-67" transform="translate(1771.533203 0)"/>
    <use xlink:href="#DejaVuSans-Bold-72" transform="translate(1843.115234 0)"/>
    <use xlink:href="#DejaVuSans-Bold-65" transform="translate(1892.431641 0)"/>
    <use xlink:href="#DejaVuSans-Bold-67" transform="translate(1960.253906 0)"/>
    <use xlink:href="#DejaVuSans-Bold-61" transform="translate(2031.835938 0)"/>
    <use xlink:href="#DejaVuSans-Bold-64" transform="translate(2099.316406 0)"/>
    <use xlink:href="#DejaVuSans-Bold-6f" transform="translate(2170.898438 0)"/>
    <use xlink:href="#DejaVuSans-Bold-73" transform="translate(2239.599609 0)"/>
   </g>
  </g>
  <g id="text_20">
   <!-- Investimento amplifica os ciclos (I mais volátil que Y); consumo é relativamente estável (C menos volátil que Y). -->
   <g style="fill: #6f6e69" transform="translate(14.4 38.110406) scale(0.102 -0.102)">
    <defs>
     <path id="DejaVuSans-73" d="M 2834 3397 
L 2834 2853 
Q 2591 2978 2328 3040 
Q 2066 3103 1784 3103 
Q 1356 3103 1142 2972 
Q 928 2841 928 2578 
Q 928 2378 1081 2264 
Q 1234 2150 1697 2047 
L 1894 2003 
Q 2506 1872 2764 1633 
Q 3022 1394 3022 966 
Q 3022 478 2636 193 
Q 2250 -91 1575 -91 
Q 1294 -91 989 -36 
Q 684 19 347 128 
L 347 722 
Q 666 556 975 473 
Q 1284 391 1588 391 
Q 1994 391 2212 530 
Q 2431 669 2431 922 
Q 2431 1156 2273 1281 
Q 2116 1406 1581 1522 
L 1381 1569 
Q 847 1681 609 1914 
Q 372 2147 372 2553 
Q 372 3047 722 3315 
Q 1072 3584 1716 3584 
Q 2034 3584 2315 3537 
Q 2597 3491 2834 3397 
z
" transform="scale(0.015625)"/>
     <path id="DejaVuSans-6d" d="M 3328 2828 
Q 3544 3216 3844 3400 
Q 4144 3584 4550 3584 
Q 5097 3584 5394 3201 
Q 5691 2819 5691 2113 
L 5691 0 
L 5113 0 
L 5113 2094 
Q 5113 2597 4934 2840 
Q 4756 3084 4391 3084 
Q 3944 3084 3684 2787 
Q 3425 2491 3425 1978 
L 3425 0 
L 2847 0 
L 2847 2094 
Q 2847 2600 2669 2842 
Q 2491 3084 2119 3084 
Q 1678 3084 1418 2786 
Q 1159 2488 1159 1978 
L 1159 0 
L 581 0 
L 581 3500 
L 1159 3500 
L 1159 2956 
Q 1356 3278 1631 3431 
Q 1906 3584 2284 3584 
Q 2666 3584 2933 3390 
Q 3200 3197 3328 2828 
z
" transform="scale(0.015625)"/>
     <path id="DejaVuSans-70" d="M 1159 525 
L 1159 -1331 
L 581 -1331 
L 581 3500 
L 1159 3500 
L 1159 2969 
Q 1341 3281 1617 3432 
Q 1894 3584 2278 3584 
Q 2916 3584 3314 3078 
Q 3713 2572 3713 1747 
Q 3713 922 3314 415 
Q 2916 -91 2278 -91 
Q 1894 -91 1617 61 
Q 1341 213 1159 525 
z
M 3116 1747 
Q 3116 2381 2855 2742 
Q 2594 3103 2138 3103 
Q 1681 3103 1420 2742 
Q 1159 2381 1159 1747 
Q 1159 1113 1420 752 
Q 1681 391 2138 391 
Q 2594 391 2855 752 
Q 3116 1113 3116 1747 
z
" transform="scale(0.015625)"/>
     <path id="DejaVuSans-e1" d="M 2194 1759 
Q 1497 1759 1228 1600 
Q 959 1441 959 1056 
Q 959 750 1161 570 
Q 1363 391 1709 391 
Q 2188 391 2477 730 
Q 2766 1069 2766 1631 
L 2766 1759 
L 2194 1759 
z
M 3341 1997 
L 3341 0 
L 2766 0 
L 2766 531 
Q 2569 213 2275 61 
Q 1981 -91 1556 -91 
Q 1019 -91 701 211 
Q 384 513 384 1019 
Q 384 1609 779 1909 
Q 1175 2209 1959 2209 
L 2766 2209 
L 2766 2266 
Q 2766 2663 2505 2880 
Q 2244 3097 1772 3097 
Q 1472 3097 1187 3025 
Q 903 2953 641 2809 
L 641 3341 
Q 956 3463 1253 3523 
Q 1550 3584 1831 3584 
Q 2591 3584 2966 3190 
Q 3341 2797 3341 1997 
z
M 2290 5119 
L 2912 5119 
L 1894 3944 
L 1415 3944 
L 2290 5119 
z
" transform="scale(0.015625)"/>
     <path id="DejaVuSans-71" d="M 947 1747 
Q 947 1113 1208 752 
Q 1469 391 1925 391 
Q 2381 391 2643 752 
Q 2906 1113 2906 1747 
Q 2906 2381 2643 2742 
Q 2381 3103 1925 3103 
Q 1469 3103 1208 2742 
Q 947 2381 947 1747 
z
M 2906 525 
Q 2725 213 2448 61 
Q 2172 -91 1784 -91 
Q 1150 -91 751 415 
Q 353 922 353 1747 
Q 353 2572 751 3078 
Q 1150 3584 1784 3584 
Q 2172 3584 2448 3432 
Q 2725 3281 2906 2969 
L 2906 3500 
L 3481 3500 
L 3481 -1331 
L 2906 -1331 
L 2906 525 
z
" transform="scale(0.015625)"/>
     <path id="DejaVuSans-75" d="M 544 1381 
L 544 3500 
L 1119 3500 
L 1119 1403 
Q 1119 906 1312 657 
Q 1506 409 1894 409 
Q 2359 409 2629 706 
Q 2900 1003 2900 1516 
L 2900 3500 
L 3475 3500 
L 3475 0 
L 2900 0 
L 2900 538 
Q 2691 219 2414 64 
Q 2138 -91 1772 -91 
Q 1169 -91 856 284 
Q 544 659 544 1381 
z
M 1991 3584 
L 1991 3584 
z
" transform="scale(0.015625)"/>
     <path id="DejaVuSans-3b" d="M 750 3309 
L 1409 3309 
L 1409 2516 
L 750 2516 
L 750 3309 
z
M 750 794 
L 1409 794 
L 1409 256 
L 897 -744 
L 494 -744 
L 750 256 
L 750 794 
z
" transform="scale(0.015625)"/>
     <path id="DejaVuSans-e9" d="M 3597 1894 
L 3597 1613 
L 953 1613 
Q 991 1019 1311 708 
Q 1631 397 2203 397 
Q 2534 397 2845 478 
Q 3156 559 3463 722 
L 3463 178 
Q 3153 47 2828 -22 
Q 2503 -91 2169 -91 
Q 1331 -91 842 396 
Q 353 884 353 1716 
Q 353 2575 817 3079 
Q 1281 3584 2069 3584 
Q 2775 3584 3186 3129 
Q 3597 2675 3597 1894 
z
M 3022 2063 
Q 3016 2534 2758 2815 
Q 2500 3097 2075 3097 
Q 1594 3097 1305 2825 
Q 1016 2553 972 2059 
L 3022 2063 
z
M 2466 5119 
L 3088 5119 
L 2070 3944 
L 1591 3944 
L 2466 5119 
z
" transform="scale(0.015625)"/>
     <path id="DejaVuSans-2e" d="M 684 794 
L 1344 794 
L 1344 0 
L 684 0 
L 684 794 
z
" transform="scale(0.015625)"/>
    </defs>
    <use xlink:href="#DejaVuSans-49"/>
    <use xlink:href="#DejaVuSans-6e" transform="translate(29.492188 0)"/>
    <use xlink:href="#DejaVuSans-76" transform="translate(92.871094 0)"/>
    <use xlink:href="#DejaVuSans-65" transform="translate(152.050781 0)"/>
    <use xlink:href="#DejaVuSans-73" transform="translate(213.574219 0)"/>
    <use xlink:href="#DejaVuSans-74" transform="translate(265.673828 0)"/>
    <use xlink:href="#DejaVuSans-69" transform="translate(304.882812 0)"/>
    <use xlink:href="#DejaVuSans-6d" transform="translate(332.666016 0)"/>
    <use xlink:href="#DejaVuSans-65" transform="translate(430.078125 0)"/>
    <use xlink:href="#DejaVuSans-6e" transform="translate(491.601562 0)"/>
    <use xlink:href="#DejaVuSans-74" transform="translate(554.980469 0)"/>
    <use xlink:href="#DejaVuSans-6f" transform="translate(594.189453 0)"/>
    <use xlink:href="#DejaVuSans-20" transform="translate(655.371094 0)"/>
    <use xlink:href="#DejaVuSans-61" transform="translate(687.158203 0)"/>
    <use xlink:href="#DejaVuSans-6d" transform="translate(748.4375 0)"/>
    <use xlink:href="#DejaVuSans-70" transform="translate(845.849609 0)"/>
    <use xlink:href="#DejaVuSans-6c" transform="translate(909.326172 0)"/>
    <use xlink:href="#DejaVuSans-69" transform="translate(937.109375 0)"/>
    <use xlink:href="#DejaVuSans-66" transform="translate(964.892578 0)"/>
    <use xlink:href="#DejaVuSans-69" transform="translate(1000.097656 0)"/>
    <use xlink:href="#DejaVuSans-63" transform="translate(1027.880859 0)"/>
    <use xlink:href="#DejaVuSans-61" transform="translate(1082.861328 0)"/>
    <use xlink:href="#DejaVuSans-20" transform="translate(1144.140625 0)"/>
    <use xlink:href="#DejaVuSans-6f" transform="translate(1175.927734 0)"/>
    <use xlink:href="#DejaVuSans-73" transform="translate(1237.109375 0)"/>
    <use xlink:href="#DejaVuSans-20" transform="translate(1289.208984 0)"/>
    <use xlink:href="#DejaVuSans-63" transform="translate(1320.996094 0)"/>
    <use xlink:href="#DejaVuSans-69" transform="translate(1375.976562 0)"/>
    <use xlink:href="#DejaVuSans-63" transform="translate(1403.759766 0)"/>
    <use xlink:href="#DejaVuSans-6c" transform="translate(1458.740234 0)"/>
    <use xlink:href="#DejaVuSans-6f" transform="translate(1486.523438 0)"/>
    <use xlink:href="#DejaVuSans-73" transform="translate(1547.705078 0)"/>
    <use xlink:href="#DejaVuSans-20" transform="translate(1599.804688 0)"/>
    <use xlink:href="#DejaVuSans-28" transform="translate(1631.591797 0)"/>
    <use xlink:href="#DejaVuSans-49" transform="translate(1670.605469 0)"/>
    <use xlink:href="#DejaVuSans-20" transform="translate(1700.097656 0)"/>
    <use xlink:href="#DejaVuSans-6d" transform="translate(1731.884766 0)"/>
    <use xlink:href="#DejaVuSans-61" transform="translate(1829.296875 0)"/>
    <use xlink:href="#DejaVuSans-69" transform="translate(1890.576172 0)"/>
    <use xlink:href="#DejaVuSans-73" transform="translate(1918.359375 0)"/>
    <use xlink:href="#DejaVuSans-20" transform="translate(1970.458984 0)"/>
    <use xlink:href="#DejaVuSans-76" transform="translate(2002.246094 0)"/>
    <use xlink:href="#DejaVuSans-6f" transform="translate(2061.425781 0)"/>
    <use xlink:href="#DejaVuSans-6c" transform="translate(2122.607422 0)"/>
    <use xlink:href="#DejaVuSans-e1" transform="translate(2150.390625 0)"/>
    <use xlink:href="#DejaVuSans-74" transform="translate(2211.669922 0)"/>
    <use xlink:href="#DejaVuSans-69" transform="translate(2250.878906 0)"/>
    <use xlink:href="#DejaVuSans-6c" transform="translate(2278.662109 0)"/>
    <use xlink:href="#DejaVuSans-20" transform="translate(2306.445312 0)"/>
    <use xlink:href="#DejaVuSans-71" transform="translate(2338.232422 0)"/>
    <use xlink:href="#DejaVuSans-75" transform="translate(2401.708984 0)"/>
    <use xlink:href="#DejaVuSans-65" transform="translate(2465.087891 0)"/>
    <use xlink:href="#DejaVuSans-20" transform="translate(2526.611328 0)"/>
    <use xlink:href="#DejaVuSans-59" transform="translate(2558.398438 0)"/>
    <use xlink:href="#DejaVuSans-29" transform="translate(2619.482422 0)"/>
    <use xlink:href="#DejaVuSans-3b" transform="translate(2658.496094 0)"/>
    <use xlink:href="#DejaVuSans-20" transform="translate(2692.1875 0)"/>
    <use xlink:href="#DejaVuSans-63" transform="translate(2723.974609 0)"/>
    <use xlink:href="#DejaVuSans-6f" transform="translate(2778.955078 0)"/>
    <use xlink:href="#DejaVuSans-6e" transform="translate(2840.136719 0)"/>
    <use xlink:href="#DejaVuSans-73" transform="translate(2903.515625 0)"/>
    <use xlink:href="#DejaVuSans-75" transform="translate(2955.615234 0)"/>
    <use xlink:href="#DejaVuSans-6d" transform="translate(3018.994141 0)"/>
    <use xlink:href="#DejaVuSans-6f" transform="translate(3116.40625 0)"/>
    <use xlink:href="#DejaVuSans-20" transform="translate(3177.587891 0)"/>
    <use xlink:href="#DejaVuSans-e9" transform="translate(3209.375 0)"/>
    <use xlink:href="#DejaVuSans-20" transform="translate(3270.898438 0)"/>
    <use xlink:href="#DejaVuSans-72" transform="translate(3302.685547 0)"/>
    <use xlink:href="#DejaVuSans-65" transform="translate(3341.548828 0)"/>
    <use xlink:href="#DejaVuSans-6c" transform="translate(3403.072266 0)"/>
    <use xlink:href="#DejaVuSans-61" transform="translate(3430.855469 0)"/>
    <use xlink:href="#DejaVuSans-74" transform="translate(3492.134766 0)"/>
    <use xlink:href="#DejaVuSans-69" transform="translate(3531.34375 0)"/>
    <use xlink:href="#DejaVuSans-76" transform="translate(3559.126953 0)"/>
    <use xlink:href="#DejaVuSans-61" transform="translate(3618.306641 0)"/>
    <use xlink:href="#DejaVuSans-6d" transform="translate(3679.585938 0)"/>
    <use xlink:href="#DejaVuSans-65" transform="translate(3776.998047 0)"/>
    <use xlink:href="#DejaVuSans-6e" transform="translate(3838.521484 0)"/>
    <use xlink:href="#DejaVuSans-74" transform="translate(3901.900391 0)"/>
    <use xlink:href="#DejaVuSans-65" transform="translate(3941.109375 0)"/>
    <use xlink:href="#DejaVuSans-20" transform="translate(4002.632812 0)"/>
    <use xlink:href="#DejaVuSans-65" transform="translate(4034.419922 0)"/>
    <use xlink:href="#DejaVuSans-73" transform="translate(4095.943359 0)"/>
    <use xlink:href="#DejaVuSans-74" transform="translate(4148.042969 0)"/>
    <use xlink:href="#DejaVuSans-e1" transform="translate(4187.251953 0)"/>
    <use xlink:href="#DejaVuSans-76" transform="translate(4248.53125 0)"/>
    <use xlink:href="#DejaVuSans-65" transform="translate(4307.710938 0)"/>
    <use xlink:href="#DejaVuSans-6c" transform="translate(4369.234375 0)"/>
    <use xlink:href="#DejaVuSans-20" transform="translate(4397.017578 0)"/>
    <use xlink:href="#DejaVuSans-28" transform="translate(4428.804688 0)"/>
    <use xlink:href="#DejaVuSans-43" transform="translate(4467.818359 0)"/>
    <use xlink:href="#DejaVuSans-20" transform="translate(4537.642578 0)"/>
    <use xlink:href="#DejaVuSans-6d" transform="translate(4569.429688 0)"/>
    <use xlink:href="#DejaVuSans-65" transform="translate(4666.841797 0)"/>
    <use xlink:href="#DejaVuSans-6e" transform="translate(4728.365234 0)"/>
    <use xlink:href="#DejaVuSans-6f" transform="translate(4791.744141 0)"/>
    <use xlink:href="#DejaVuSans-73" transform="translate(4852.925781 0)"/>
    <use xlink:href="#DejaVuSans-20" transform="translate(4905.025391 0)"/>
    <use xlink:href="#DejaVuSans-76" transform="translate(4936.8125 0)"/>
    <use xlink:href="#DejaVuSans-6f" transform="translate(4995.992188 0)"/>
    <use xlink:href="#DejaVuSans-6c" transform="translate(5057.173828 0)"/>
    <use xlink:href="#DejaVuSans-e1" transform="translate(5084.957031 0)"/>
    <use xlink:href="#DejaVuSans-74" transform="translate(5146.236328 0)"/>
    <use xlink:href="#DejaVuSans-69" transform="translate(5185.445312 0)"/>
    <use xlink:href="#DejaVuSans-6c" transform="translate(5213.228516 0)"/>
    <use xlink:href="#DejaVuSans-20" transform="translate(5241.011719 0)"/>
    <use xlink:href="#DejaVuSans-71" transform="translate(5272.798828 0)"/>
    <use xlink:href="#DejaVuSans-75" transform="translate(5336.275391 0)"/>
    <use xlink:href="#DejaVuSans-65" transform="translate(5399.654297 0)"/>
    <use xlink:href="#DejaVuSans-20" transform="translate(5461.177734 0)"/>
    <use xlink:href="#DejaVuSans-59" transform="translate(5492.964844 0)"/>
    <use xlink:href="#DejaVuSans-29" transform="translate(5554.048828 0)"/>
    <use xlink:href="#DejaVuSans-2e" transform="translate(5593.0625 0)"/>
   </g>
  </g>
  <g id="text_21">
   <!-- Obs.: T = 5.000 períodos · 40 replicações · σ_z = 0,007 · ρ_z = 0,95. -->
   <g style="fill: #6f6e69" transform="translate(14.4 383.652703) scale(0.087 -0.087)">
    <defs>
     <path id="DejaVuSans-4f" d="M 2522 4238 
Q 1834 4238 1429 3725 
Q 1025 3213 1025 2328 
Q 1025 1447 1429 934 
Q 1834 422 2522 422 
Q 3209 422 3611 934 
Q 4013 1447 4013 2328 
Q 4013 3213 3611 3725 
Q 3209 4238 2522 4238 
z
M 2522 4750 
Q 3503 4750 4090 4092 
Q 4678 3434 4678 2328 
Q 4678 1225 4090 567 
Q 3503 -91 2522 -91 
Q 1538 -91 948 565 
Q 359 1222 359 2328 
Q 359 3434 948 4092 
Q 1538 4750 2522 4750 
z
" transform="scale(0.015625)"/>
     <path id="DejaVuSans-62" d="M 3116 1747 
Q 3116 2381 2855 2742 
Q 2594 3103 2138 3103 
Q 1681 3103 1420 2742 
Q 1159 2381 1159 1747 
Q 1159 1113 1420 752 
Q 1681 391 2138 391 
Q 2594 391 2855 752 
Q 3116 1113 3116 1747 
z
M 1159 2969 
Q 1341 3281 1617 3432 
Q 1894 3584 2278 3584 
Q 2916 3584 3314 3078 
Q 3713 2572 3713 1747 
Q 3713 922 3314 415 
Q 2916 -91 2278 -91 
Q 1894 -91 1617 61 
Q 1341 213 1159 525 
L 1159 0 
L 581 0 
L 581 4863 
L 1159 4863 
L 1159 2969 
z
" transform="scale(0.015625)"/>
     <path id="DejaVuSans-54" d="M -19 4666 
L 3928 4666 
L 3928 4134 
L 2272 4134 
L 2272 0 
L 1638 0 
L 1638 4134 
L -19 4134 
L -19 4666 
z
" transform="scale(0.015625)"/>
     <path id="DejaVuSans-ed" d="M 1322 5119 
L 1944 5119 
L 926 3944 
L 447 3944 
L 1322 5119 
z
M 603 3500 
L 1178 3500 
L 1178 0 
L 603 0 
L 603 3500 
z
M 891 3584 
L 891 3584 
z
" transform="scale(0.015625)"/>
     <path id="DejaVuSans-b7" d="M 684 2619 
L 1344 2619 
L 1344 1825 
L 684 1825 
L 684 2619 
z
" transform="scale(0.015625)"/>
     <path id="DejaVuSans-34" d="M 2419 4116 
L 825 1625 
L 2419 1625 
L 2419 4116 
z
M 2253 4666 
L 3047 4666 
L 3047 1625 
L 3713 1625 
L 3713 1100 
L 3047 1100 
L 3047 0 
L 2419 0 
L 2419 1100 
L 313 1100 
L 313 1709 
L 2253 4666 
z
" transform="scale(0.015625)"/>
     <path id="DejaVuSans-e7" d="M 3122 3366 
L 3122 2828 
Q 2878 2963 2633 3030 
Q 2388 3097 2138 3097 
Q 1578 3097 1268 2742 
Q 959 2388 959 1747 
Q 959 1106 1268 751 
Q 1578 397 2138 397 
Q 2388 397 2633 464 
Q 2878 531 3122 666 
L 3122 134 
Q 2881 22 2623 -34 
Q 2366 -91 2075 -91 
Q 1284 -91 818 406 
Q 353 903 353 1747 
Q 353 2603 823 3093 
Q 1294 3584 2113 3584 
Q 2378 3584 2631 3529 
Q 2884 3475 3122 3366 
z
M 2311 0 
Q 2482 -194 2566 -358 
Q 2651 -522 2651 -672 
Q 2651 -950 2463 -1092 
Q 2276 -1234 1907 -1234 
Q 1764 -1234 1628 -1215 
Q 1492 -1197 1357 -1159 
L 1357 -750 
Q 1464 -803 1579 -826 
Q 1695 -850 1842 -850 
Q 2026 -850 2120 -775 
Q 2214 -700 2214 -556 
Q 2214 -463 2146 -327 
Q 2079 -191 1939 0 
L 2311 0 
z
" transform="scale(0.015625)"/>
     <path id="DejaVuSans-f5" d="M 1959 3097 
Q 1497 3097 1228 2736 
Q 959 2375 959 1747 
Q 959 1119 1226 758 
Q 1494 397 1959 397 
Q 2419 397 2687 759 
Q 2956 1122 2956 1747 
Q 2956 2369 2687 2733 
Q 2419 3097 1959 3097 
z
M 1959 3584 
Q 2709 3584 3137 3096 
Q 3566 2609 3566 1747 
Q 3566 888 3137 398 
Q 2709 -91 1959 -91 
Q 1206 -91 779 398 
Q 353 888 353 1747 
Q 353 2609 779 3096 
Q 1206 3584 1959 3584 
z
M 1948 4281 
L 1769 4453 
Q 1701 4516 1649 4545 
Q 1598 4575 1557 4575 
Q 1438 4575 1382 4461 
Q 1326 4347 1319 4091 
L 929 4091 
Q 935 4513 1094 4742 
Q 1254 4972 1538 4972 
Q 1657 4972 1757 4928 
Q 1857 4884 1973 4781 
L 2151 4609 
Q 2219 4547 2271 4517 
Q 2323 4488 2363 4488 
Q 2482 4488 2538 4602 
Q 2594 4716 2601 4972 
L 2991 4972 
Q 2985 4550 2825 4320 
Q 2666 4091 2382 4091 
Q 2263 4091 2163 4134 
Q 2063 4178 1948 4281 
z
" transform="scale(0.015625)"/>
     <path id="DejaVuSans-5f" d="M 3263 -1063 
L 3263 -1509 
L -63 -1509 
L -63 -1063 
L 3263 -1063 
z
" transform="scale(0.015625)"/>
     <path id="DejaVuSans-7a" d="M 353 3500 
L 3084 3500 
L 3084 2975 
L 922 459 
L 3084 459 
L 3084 0 
L 275 0 
L 275 525 
L 2438 3041 
L 353 3041 
L 353 3500 
z
" transform="scale(0.015625)"/>
     <path id="DejaVuSans-3c1" d="M 863 2875 
Q 1053 3194 1525 3475 
Q 1709 3584 2278 3584 
Q 2916 3584 3314 3078 
Q 3713 2572 3713 1747 
Q 3713 922 3314 415 
Q 2916 -91 2278 -91 
Q 1894 -91 1617 61 
Q 1341 213 1159 525 
L 1159 -1331 
L 581 -1331 
L 581 1716 
Q 581 2438 863 2875 
z
M 3116 1747 
Q 3116 2381 2855 2742 
Q 2594 3103 2138 3103 
Q 1681 3103 1420 2742 
Q 1159 2381 1159 1747 
Q 1159 1113 1420 752 
Q 1681 391 2138 391 
Q 2594 391 2855 752 
Q 3116 1113 3116 1747 
z
" transform="scale(0.015625)"/>
     <path id="DejaVuSans-39" d="M 703 97 
L 703 672 
Q 941 559 1184 500 
Q 1428 441 1663 441 
Q 2288 441 2617 861 
Q 2947 1281 2994 2138 
Q 2813 1869 2534 1725 
Q 2256 1581 1919 1581 
Q 1219 1581 811 2004 
Q 403 2428 403 3163 
Q 403 3881 828 4315 
Q 1253 4750 1959 4750 
Q 2769 4750 3195 4129 
Q 3622 3509 3622 2328 
Q 3622 1225 3098 567 
Q 2575 -91 1691 -91 
Q 1453 -91 1209 -44 
Q 966 3 703 97 
z
M 1959 2075 
Q 2384 2075 2632 2365 
Q 2881 2656 2881 3163 
Q 2881 3666 2632 3958 
Q 2384 4250 1959 4250 
Q 1534 4250 1286 3958 
Q 1038 3666 1038 3163 
Q 1038 2656 1286 2365 
Q 1534 2075 1959 2075 
z
" transform="scale(0.015625)"/>
    </defs>
    <use xlink:href="#DejaVuSans-4f"/>
    <use xlink:href="#DejaVuSans-62" transform="translate(78.710938 0)"/>
    <use xlink:href="#DejaVuSans-73" transform="translate(142.1875 0)"/>
    <use xlink:href="#DejaVuSans-2e" transform="translate(194.287109 0)"/>
    <use xlink:href="#DejaVuSans-3a" transform="translate(226.074219 0)"/>
    <use xlink:href="#DejaVuSans-20" transform="translate(259.765625 0)"/>
    <use xlink:href="#DejaVuSans-54" transform="translate(291.552734 0)"/>
    <use xlink:href="#DejaVuSans-20" transform="translate(352.636719 0)"/>
    <use xlink:href="#DejaVuSans-3d" transform="translate(384.423828 0)"/>
    <use xlink:href="#DejaVuSans-20" transform="translate(468.212891 0)"/>
    <use xlink:href="#DejaVuSans-35" transform="translate(500 0)"/>
    <use xlink:href="#DejaVuSans-2e" transform="translate(563.623047 0)"/>
    <use xlink:href="#DejaVuSans-30" transform="translate(595.410156 0)"/>
    <use xlink:href="#DejaVuSans-30" transform="translate(659.033203 0)"/>
    <use xlink:href="#DejaVuSans-30" transform="translate(722.65625 0)"/>
    <use xlink:href="#DejaVuSans-20" transform="translate(786.279297 0)"/>
    <use xlink:href="#DejaVuSans-70" transform="translate(818.066406 0)"/>
    <use xlink:href="#DejaVuSans-65" transform="translate(881.542969 0)"/>
    <use xlink:href="#DejaVuSans-72" transform="translate(943.066406 0)"/>
    <use xlink:href="#DejaVuSans-ed" transform="translate(984.179688 0)"/>
    <use xlink:href="#DejaVuSans-6f" transform="translate(1011.962891 0)"/>
    <use xlink:href="#DejaVuSans-64" transform="translate(1073.144531 0)"/>
    <use xlink:href="#DejaVuSans-6f" transform="translate(1136.621094 0)"/>
    <use xlink:href="#DejaVuSans-73" transform="translate(1197.802734 0)"/>
    <use xlink:href="#DejaVuSans-20" transform="translate(1249.902344 0)"/>
    <use xlink:href="#DejaVuSans-b7" transform="translate(1281.689453 0)"/>
    <use xlink:href="#DejaVuSans-20" transform="translate(1313.476562 0)"/>
    <use xlink:href="#DejaVuSans-34" transform="translate(1345.263672 0)"/>
    <use xlink:href="#DejaVuSans-30" transform="translate(1408.886719 0)"/>
    <use xlink:href="#DejaVuSans-20" transform="translate(1472.509766 0)"/>
    <use xlink:href="#DejaVuSans-72" transform="translate(1504.296875 0)"/>
    <use xlink:href="#DejaVuSans-65" transform="translate(1543.160156 0)"/>
    <use xlink:href="#DejaVuSans-70" transform="translate(1604.683594 0)"/>
    <use xlink:href="#DejaVuSans-6c" transform="translate(1668.160156 0)"/>
    <use xlink:href="#DejaVuSans-69" transform="translate(1695.943359 0)"/>
    <use xlink:href="#DejaVuSans-63" transform="translate(1723.726562 0)"/>
    <use xlink:href="#DejaVuSans-61" transform="translate(1778.707031 0)"/>
    <use xlink:href="#DejaVuSans-e7" transform="translate(1839.986328 0)"/>
    <use xlink:href="#DejaVuSans-f5" transform="translate(1894.966797 0)"/>
    <use xlink:href="#DejaVuSans-65" transform="translate(1956.148438 0)"/>
    <use xlink:href="#DejaVuSans-73" transform="translate(2017.671875 0)"/>
    <use xlink:href="#DejaVuSans-20" transform="translate(2069.771484 0)"/>
    <use xlink:href="#DejaVuSans-b7" transform="translate(2101.558594 0)"/>
    <use xlink:href="#DejaVuSans-20" transform="translate(2133.345703 0)"/>
    <use xlink:href="#DejaVuSans-3c3" transform="translate(2165.132812 0)"/>
    <use xlink:href="#DejaVuSans-5f" transform="translate(2228.511719 0)"/>
    <use xlink:href="#DejaVuSans-7a" transform="translate(2278.511719 0)"/>
    <use xlink:href="#DejaVuSans-20" transform="translate(2331.001953 0)"/>
    <use xlink:href="#DejaVuSans-3d" transform="translate(2362.789062 0)"/>
    <use xlink:href="#DejaVuSans-20" transform="translate(2446.578125 0)"/>
    <use xlink:href="#DejaVuSans-30" transform="translate(2478.365234 0)"/>
    <use xlink:href="#DejaVuSans-2c" transform="translate(2541.988281 0)"/>
    <use xlink:href="#DejaVuSans-30" transform="translate(2573.775391 0)"/>
    <use xlink:href="#DejaVuSans-30" transform="translate(2637.398438 0)"/>
    <use xlink:href="#DejaVuSans-37" transform="translate(2701.021484 0)"/>
    <use xlink:href="#DejaVuSans-20" transform="translate(2764.644531 0)"/>
    <use xlink:href="#DejaVuSans-b7" transform="translate(2796.431641 0)"/>
    <use xlink:href="#DejaVuSans-20" transform="translate(2828.21875 0)"/>
    <use xlink:href="#DejaVuSans-3c1" transform="translate(2860.005859 0)"/>
    <use xlink:href="#DejaVuSans-5f" transform="translate(2923.482422 0)"/>
    <use xlink:href="#DejaVuSans-7a" transform="translate(2973.482422 0)"/>
    <use xlink:href="#DejaVuSans-20" transform="translate(3025.972656 0)"/>
    <use xlink:href="#DejaVuSans-3d" transform="translate(3057.759766 0)"/>
    <use xlink:href="#DejaVuSans-20" transform="translate(3141.548828 0)"/>
    <use xlink:href="#DejaVuSans-30" transform="translate(3173.335938 0)"/>
    <use xlink:href="#DejaVuSans-2c" transform="translate(3236.958984 0)"/>
    <use xlink:href="#DejaVuSans-39" transform="translate(3268.746094 0)"/>
    <use xlink:href="#DejaVuSans-35" transform="translate(3332.369141 0)"/>
    <use xlink:href="#DejaVuSans-2e" transform="translate(3395.992188 0)"/>
   </g>
  </g>
 </g>
 <defs>
  <clipPath id="p0bf5c62d8a">
   <rect x="65.127143" y="92.818286" width="527.48875" height="232.613143"/>
  </clipPath>
 </defs>
</svg>
