<?xml version="1.0" encoding="utf-8" standalone="no"?>
<!DOCTYPE svg PUBLIC "-//W3C//DTD SVG 1.1//EN"
  "http://www.w3.org/Graphics/SVG/1.1/DTD/svg11.dtd">
<svg xmlns:xlink="http://www.w3.org/1999/xlink" width="970.441781pt" height="420.732pt" viewBox="0 0 970.441781 420.732" xmlns="http://www.w3.org/2000/svg" version="1.1">
 <metadata>
  <rdf:RDF xmlns:dc="http://purl.org/dc/elements/1.1/" xmlns:cc="http://creativecommons.org/ns#" xmlns:rdf="http://www.w3.org/1999/02/22-rdf-syntax-ns#">
   <cc:Work>
    <dc:type rdf:resource="http://purl.org/dc/dcmitype/StillImage"/>
    <dc:date>2026-04-02T15:09:46.017895</dc:date>
    <dc:format>image/svg+xml</dc:format>
    <dc:creator>
     <cc:Agent>
      <dc:title>Matplotlib v3.10.7, https://matplotlib.org/</dc:title>
     </cc:Agent>
    </dc:creator>
   </cc:Work>
  </rdf:RDF>
 </metadata>
 <defs>
  <style type="text/css">*{stroke-linejoin: round; stroke-linecap: butt}</style>
 </defs>
 <g id="figure_1">
  <g id="patch_1">
   <path d="M 0 420.732 
L 970.441781 420.732 
L 970.441781 -0 
L 0 -0 
z
" style="fill: #fffcf0"/>
  </g>
  <g id="axes_1">
   <g id="patch_2">
    <path d="M 62.386 326.617143 
L 627.156 326.617143 
L 627.156 90.982286 
L 62.386 90.982286 
z
" style="fill: #fffcf0"/>
   </g>
   <g id="PathCollection_1">
    <defs>
     <path id="C0_0_5ef1be9ffc" d="M 0 3.605551 
C 0.956203 3.605551 1.873372 3.225648 2.54951 2.54951 
C 3.225648 1.873372 3.605551 0.956203 3.605551 -0 
C 3.605551 -0.956203 3.225648 -1.873372 2.54951 -2.54951 
C 1.873372 -3.225648 0.956203 -3.605551 0 -3.605551 
C -0.956203 -3.605551 -1.873372 -3.225648 -2.54951 -2.54951 
C -3.225648 -1.873372 -3.605551 -0.956203 -3.605551 0 
C -3.605551 0.956203 -3.225648 1.873372 -2.54951 2.54951 
C -1.873372 3.225648 -0.956203 3.605551 0 3.605551 
z
"/>
    </defs>
    <g clip-path="url(#p193af9e65c)">
     <use xlink:href="#C0_0_5ef1be9ffc" x="546.930614" y="171.600805" style="fill: #3aa99f; fill-opacity: 0.8"/>
    </g>
    <g clip-path="url(#p193af9e65c)">
     <use xlink:href="#C0_0_5ef1be9ffc" x="493.795497" y="219.874715" style="fill: #3aa99f; fill-opacity: 0.8"/>
    </g>
    <g clip-path="url(#p193af9e65c)">
     <use xlink:href="#C0_0_5ef1be9ffc" x="401.210507" y="207.585289" style="fill: #3aa99f; fill-opacity: 0.8"/>
    </g>
    <g clip-path="url(#p193af9e65c)">
     <use xlink:href="#C0_0_5ef1be9ffc" x="601.484636" y="244.129831" style="fill: #3aa99f; fill-opacity: 0.8"/>
    </g>
    <g clip-path="url(#p193af9e65c)">
     <use xlink:href="#C0_0_5ef1be9ffc" x="463.467503" y="154.026108" style="fill: #3aa99f; fill-opacity: 0.8"/>
    </g>
    <g clip-path="url(#p193af9e65c)">
     <use xlink:href="#C0_0_5ef1be9ffc" x="596.905861" y="143.528938" style="fill: #3aa99f; fill-opacity: 0.8"/>
    </g>
    <g clip-path="url(#p193af9e65c)">
     <use xlink:href="#C0_0_5ef1be9ffc" x="569.976714" y="126.269723" style="fill: #3aa99f; fill-opacity: 0.8"/>
    </g>
    <g clip-path="url(#p193af9e65c)">
     <use xlink:href="#C0_0_5ef1be9ffc" x="439.733606" y="104.164899" style="fill: #3aa99f; fill-opacity: 0.8"/>
    </g>
    <g clip-path="url(#p193af9e65c)">
     <use xlink:href="#C0_0_5ef1be9ffc" x="408.12602" y="101.692961" style="fill: #3aa99f; fill-opacity: 0.8"/>
    </g>
    <g clip-path="url(#p193af9e65c)">
     <use xlink:href="#C0_0_5ef1be9ffc" x="391.578647" y="139.801062" style="fill: #3aa99f; fill-opacity: 0.8"/>
    </g>
    <g clip-path="url(#p193af9e65c)">
     <use xlink:href="#C0_0_5ef1be9ffc" x="339.164577" y="102.669405" style="fill: #3aa99f; fill-opacity: 0.8"/>
    </g>
    <g clip-path="url(#p193af9e65c)">
     <use xlink:href="#C0_0_5ef1be9ffc" x="372.552473" y="128.007267" style="fill: #3aa99f; fill-opacity: 0.8"/>
    </g>
    <g clip-path="url(#p193af9e65c)">
     <use xlink:href="#C0_0_5ef1be9ffc" x="306.847584" y="154.61644" style="fill: #3aa99f; fill-opacity: 0.8"/>
    </g>
    <g clip-path="url(#p193af9e65c)">
     <use xlink:href="#C0_0_5ef1be9ffc" x="295.354458" y="155.495308" style="fill: #3aa99f; fill-opacity: 0.8"/>
    </g>
    <g clip-path="url(#p193af9e65c)">
     <use xlink:href="#C0_0_5ef1be9ffc" x="353.568017" y="179.72809" style="fill: #3aa99f; fill-opacity: 0.8"/>
    </g>
    <g clip-path="url(#p193af9e65c)">
     <use xlink:href="#C0_0_5ef1be9ffc" x="303.709907" y="291.206859" style="fill: #3aa99f; fill-opacity: 0.8"/>
    </g>
    <g clip-path="url(#p193af9e65c)">
     <use xlink:href="#C0_0_5ef1be9ffc" x="443.413431" y="302.890834" style="fill: #3aa99f; fill-opacity: 0.8"/>
    </g>
    <g clip-path="url(#p193af9e65c)">
     <use xlink:href="#C0_0_5ef1be9ffc" x="431.92405" y="182.343279" style="fill: #3aa99f; fill-opacity: 0.8"/>
    </g>
    <g clip-path="url(#p193af9e65c)">
     <use xlink:href="#C0_0_5ef1be9ffc" x="309.573616" y="174.375809" style="fill: #3aa99f; fill-opacity: 0.8"/>
    </g>
    <g clip-path="url(#p193af9e65c)">
     <use xlink:href="#C0_0_5ef1be9ffc" x="278.977696" y="170.243073" style="fill: #3aa99f; fill-opacity: 0.8"/>
    </g>
    <g clip-path="url(#p193af9e65c)">
     <use xlink:href="#C0_0_5ef1be9ffc" x="187.105839" y="315.906468" style="fill: #3aa99f; fill-opacity: 0.8"/>
    </g>
    <g clip-path="url(#p193af9e65c)">
     <use xlink:href="#C0_0_5ef1be9ffc" x="88.057364" y="158.827108" style="fill: #3aa99f; fill-opacity: 0.8"/>
    </g>
    <g clip-path="url(#p193af9e65c)">
     <use xlink:href="#C0_0_5ef1be9ffc" x="413.544269" y="133.702172" style="fill: #3aa99f; fill-opacity: 0.8"/>
    </g>
    <g clip-path="url(#p193af9e65c)">
     <use xlink:href="#C0_0_5ef1be9ffc" x="468.267884" y="152.107019" style="fill: #3aa99f; fill-opacity: 0.8"/>
    </g>
   </g>
   <g id="matplotlib.axis_1">
    <g id="xtick_1">
     <g id="line2d_1"/>
     <g id="text_1">
      <!-- -4% -->
      <g style="fill: #6f6e69" transform="translate(109.95349 340.595502) scale(0.105 -0.105)">
       <defs>
        <path id="DejaVuSans-2d" d="M 313 2009 
L 1997 2009 
L 1997 1497 
L 313 1497 
L 313 2009 
z
" transform="scale(0.015625)"/>
        <path id="DejaVuSans-34" d="M 2419 4116 
L 825 1625 
L 2419 1625 
L 2419 4116 
z
M 2253 4666 
L 3047 4666 
L 3047 1625 
L 3713 1625 
L 3713 1100 
L 3047 1100 
L 3047 0 
L 2419 0 
L 2419 1100 
L 313 1100 
L 313 1709 
L 2253 4666 
z
" transform="scale(0.015625)"/>
        <path id="DejaVuSans-25" d="M 4653 2053 
Q 4381 2053 4226 1822 
Q 4072 1591 4072 1178 
Q 4072 772 4226 539 
Q 4381 306 4653 306 
Q 4919 306 5073 539 
Q 5228 772 5228 1178 
Q 5228 1588 5073 1820 
Q 4919 2053 4653 2053 
z
M 4653 2450 
Q 5147 2450 5437 2106 
Q 5728 1763 5728 1178 
Q 5728 594 5436 251 
Q 5144 -91 4653 -91 
Q 4153 -91 3862 251 
Q 3572 594 3572 1178 
Q 3572 1766 3864 2108 
Q 4156 2450 4653 2450 
z
M 1428 4353 
Q 1159 4353 1004 4120 
Q 850 3888 850 3481 
Q 850 3069 1003 2837 
Q 1156 2606 1428 2606 
Q 1700 2606 1854 2837 
Q 2009 3069 2009 3481 
Q 2009 3884 1853 4118 
Q 1697 4353 1428 4353 
z
M 4250 4750 
L 4750 4750 
L 1831 -91 
L 1331 -91 
L 4250 4750 
z
M 1428 4750 
Q 1922 4750 2215 4408 
Q 2509 4066 2509 3481 
Q 2509 2891 2217 2550 
Q 1925 2209 1428 2209 
Q 931 2209 642 2551 
Q 353 2894 353 3481 
Q 353 4063 643 4406 
Q 934 4750 1428 4750 
z
" transform="scale(0.015625)"/>
       </defs>
       <use xlink:href="#DejaVuSans-2d"/>
       <use xlink:href="#DejaVuSans-34" transform="translate(36.083984 0)"/>
       <use xlink:href="#DejaVuSans-25" transform="translate(99.707031 0)"/>
      </g>
     </g>
    </g>
    <g id="xtick_2">
     <g id="line2d_2"/>
     <g id="text_2">
      <!-- 0% -->
      <g style="fill: #6f6e69" transform="translate(225.963002 340.595502) scale(0.105 -0.105)">
       <defs>
        <path id="DejaVuSans-30" d="M 2034 4250 
Q 1547 4250 1301 3770 
Q 1056 3291 1056 2328 
Q 1056 1369 1301 889 
Q 1547 409 2034 409 
Q 2525 409 2770 889 
Q 3016 1369 3016 2328 
Q 3016 3291 2770 3770 
Q 2525 4250 2034 4250 
z
M 2034 4750 
Q 2819 4750 3233 4129 
Q 3647 3509 3647 2328 
Q 3647 1150 3233 529 
Q 2819 -91 2034 -91 
Q 1250 -91 836 529 
Q 422 1150 422 2328 
Q 422 3509 836 4129 
Q 1250 4750 2034 4750 
z
" transform="scale(0.015625)"/>
       </defs>
       <use xlink:href="#DejaVuSans-30"/>
       <use xlink:href="#DejaVuSans-25" transform="translate(63.623047 0)"/>
      </g>
     </g>
    </g>
    <g id="xtick_3">
     <g id="line2d_3"/>
     <g id="text_3">
      <!-- 4% -->
      <g style="fill: #6f6e69" transform="translate(340.078413 340.595502) scale(0.105 -0.105)">
       <use xlink:href="#DejaVuSans-34"/>
       <use xlink:href="#DejaVuSans-25" transform="translate(63.623047 0)"/>
      </g>
     </g>
    </g>
    <g id="xtick_4">
     <g id="line2d_4"/>
     <g id="text_4">
      <!-- 8% -->
      <g style="fill: #6f6e69" transform="translate(454.193824 340.595502) scale(0.105 -0.105)">
       <defs>
        <path id="DejaVuSans-38" d="M 2034 2216 
Q 1584 2216 1326 1975 
Q 1069 1734 1069 1313 
Q 1069 891 1326 650 
Q 1584 409 2034 409 
Q 2484 409 2743 651 
Q 3003 894 3003 1313 
Q 3003 1734 2745 1975 
Q 2488 2216 2034 2216 
z
M 1403 2484 
Q 997 2584 770 2862 
Q 544 3141 544 3541 
Q 544 4100 942 4425 
Q 1341 4750 2034 4750 
Q 2731 4750 3128 4425 
Q 3525 4100 3525 3541 
Q 3525 3141 3298 2862 
Q 3072 2584 2669 2484 
Q 3125 2378 3379 2068 
Q 3634 1759 3634 1313 
Q 3634 634 3220 271 
Q 2806 -91 2034 -91 
Q 1263 -91 848 271 
Q 434 634 434 1313 
Q 434 1759 690 2068 
Q 947 2378 1403 2484 
z
M 1172 3481 
Q 1172 3119 1398 2916 
Q 1625 2713 2034 2713 
Q 2441 2713 2670 2916 
Q 2900 3119 2900 3481 
Q 2900 3844 2670 4047 
Q 2441 4250 2034 4250 
Q 1625 4250 1398 4047 
Q 1172 3844 1172 3481 
z
" transform="scale(0.015625)"/>
       </defs>
       <use xlink:href="#DejaVuSans-38"/>
       <use xlink:href="#DejaVuSans-25" transform="translate(63.623047 0)"/>
      </g>
     </g>
    </g>
    <g id="xtick_5">
     <g id="line2d_5"/>
     <g id="text_5">
      <!-- 12% -->
      <g style="fill: #6f6e69" transform="translate(564.968922 340.595502) scale(0.105 -0.105)">
       <defs>
        <path id="DejaVuSans-31" d="M 794 531 
L 1825 531 
L 1825 4091 
L 703 3866 
L 703 4441 
L 1819 4666 
L 2450 4666 
L 2450 531 
L 3481 531 
L 3481 0 
L 794 0 
L 794 531 
z
" transform="scale(0.015625)"/>
        <path id="DejaVuSans-32" d="M 1228 531 
L 3431 531 
L 3431 0 
L 469 0 
L 469 531 
Q 828 903 1448 1529 
Q 2069 2156 2228 2338 
Q 2531 2678 2651 2914 
Q 2772 3150 2772 3378 
Q 2772 3750 2511 3984 
Q 2250 4219 1831 4219 
Q 1534 4219 1204 4116 
Q 875 4013 500 3803 
L 500 4441 
Q 881 4594 1212 4672 
Q 1544 4750 1819 4750 
Q 2544 4750 2975 4387 
Q 3406 4025 3406 3419 
Q 3406 3131 3298 2873 
Q 3191 2616 2906 2266 
Q 2828 2175 2409 1742 
Q 1991 1309 1228 531 
z
" transform="scale(0.015625)"/>
       </defs>
       <use xlink:href="#DejaVuSans-31"/>
       <use xlink:href="#DejaVuSans-32" transform="translate(63.623047 0)"/>
       <use xlink:href="#DejaVuSans-25" transform="translate(127.246094 0)"/>
      </g>
     </g>
    </g>
    <g id="text_6">
     <!-- Juro real anual (%) -->
     <g style="fill: #1c1b1a" transform="translate(296.058383 360.757533) scale(0.105 -0.105)">
      <defs>
       <path id="DejaVuSans-4a" d="M 628 4666 
L 1259 4666 
L 1259 325 
Q 1259 -519 939 -900 
Q 619 -1281 -91 -1281 
L -331 -1281 
L -331 -750 
L -134 -750 
Q 284 -750 456 -515 
Q 628 -281 628 325 
L 628 4666 
z
" transform="scale(0.015625)"/>
       <path id="DejaVuSans-75" d="M 544 1381 
L 544 3500 
L 1119 3500 
L 1119 1403 
Q 1119 906 1312 657 
Q 1506 409 1894 409 
Q 2359 409 2629 706 
Q 2900 1003 2900 1516 
L 2900 3500 
L 3475 3500 
L 3475 0 
L 2900 0 
L 2900 538 
Q 2691 219 2414 64 
Q 2138 -91 1772 -91 
Q 1169 -91 856 284 
Q 544 659 544 1381 
z
M 1991 3584 
L 1991 3584 
z
" transform="scale(0.015625)"/>
       <path id="DejaVuSans-72" d="M 2631 2963 
Q 2534 3019 2420 3045 
Q 2306 3072 2169 3072 
Q 1681 3072 1420 2755 
Q 1159 2438 1159 1844 
L 1159 0 
L 581 0 
L 581 3500 
L 1159 3500 
L 1159 2956 
Q 1341 3275 1631 3429 
Q 1922 3584 2338 3584 
Q 2397 3584 2469 3576 
Q 2541 3569 2628 3553 
L 2631 2963 
z
" transform="scale(0.015625)"/>
       <path id="DejaVuSans-6f" d="M 1959 3097 
Q 1497 3097 1228 2736 
Q 959 2375 959 1747 
Q 959 1119 1226 758 
Q 1494 397 1959 397 
Q 2419 397 2687 759 
Q 2956 1122 2956 1747 
Q 2956 2369 2687 2733 
Q 2419 3097 1959 3097 
z
M 1959 3584 
Q 2709 3584 3137 3096 
Q 3566 2609 3566 1747 
Q 3566 888 3137 398 
Q 2709 -91 1959 -91 
Q 1206 -91 779 398 
Q 353 888 353 1747 
Q 353 2609 779 3096 
Q 1206 3584 1959 3584 
z
" transform="scale(0.015625)"/>
       <path id="DejaVuSans-20" transform="scale(0.015625)"/>
       <path id="DejaVuSans-65" d="M 3597 1894 
L 3597 1613 
L 953 1613 
Q 991 1019 1311 708 
Q 1631 397 2203 397 
Q 2534 397 2845 478 
Q 3156 559 3463 722 
L 3463 178 
Q 3153 47 2828 -22 
Q 2503 -91 2169 -91 
Q 1331 -91 842 396 
Q 353 884 353 1716 
Q 353 2575 817 3079 
Q 1281 3584 2069 3584 
Q 2775 3584 3186 3129 
Q 3597 2675 3597 1894 
z
M 3022 2063 
Q 3016 2534 2758 2815 
Q 2500 3097 2075 3097 
Q 1594 3097 1305 2825 
Q 1016 2553 972 2059 
L 3022 2063 
z
" transform="scale(0.015625)"/>
       <path id="DejaVuSans-61" d="M 2194 1759 
Q 1497 1759 1228 1600 
Q 959 1441 959 1056 
Q 959 750 1161 570 
Q 1363 391 1709 391 
Q 2188 391 2477 730 
Q 2766 1069 2766 1631 
L 2766 1759 
L 2194 1759 
z
M 3341 1997 
L 3341 0 
L 2766 0 
L 2766 531 
Q 2569 213 2275 61 
Q 1981 -91 1556 -91 
Q 1019 -91 701 211 
Q 384 513 384 1019 
Q 384 1609 779 1909 
Q 1175 2209 1959 2209 
L 2766 2209 
L 2766 2266 
Q 2766 2663 2505 2880 
Q 2244 3097 1772 3097 
Q 1472 3097 1187 3025 
Q 903 2953 641 2809 
L 641 3341 
Q 956 3463 1253 3523 
Q 1550 3584 1831 3584 
Q 2591 3584 2966 3190 
Q 3341 2797 3341 1997 
z
" transform="scale(0.015625)"/>
       <path id="DejaVuSans-6c" d="M 603 4863 
L 1178 4863 
L 1178 0 
L 603 0 
L 603 4863 
z
" transform="scale(0.015625)"/>
       <path id="DejaVuSans-6e" d="M 3513 2113 
L 3513 0 
L 2938 0 
L 2938 2094 
Q 2938 2591 2744 2837 
Q 2550 3084 2163 3084 
Q 1697 3084 1428 2787 
Q 1159 2491 1159 1978 
L 1159 0 
L 581 0 
L 581 3500 
L 1159 3500 
L 1159 2956 
Q 1366 3272 1645 3428 
Q 1925 3584 2291 3584 
Q 2894 3584 3203 3211 
Q 3513 2838 3513 2113 
z
" transform="scale(0.015625)"/>
       <path id="DejaVuSans-28" d="M 1984 4856 
Q 1566 4138 1362 3434 
Q 1159 2731 1159 2009 
Q 1159 1288 1364 580 
Q 1569 -128 1984 -844 
L 1484 -844 
Q 1016 -109 783 600 
Q 550 1309 550 2009 
Q 550 2706 781 3412 
Q 1013 4119 1484 4856 
L 1984 4856 
z
" transform="scale(0.015625)"/>
       <path id="DejaVuSans-29" d="M 513 4856 
L 1013 4856 
Q 1481 4119 1714 3412 
Q 1947 2706 1947 2009 
Q 1947 1309 1714 600 
Q 1481 -109 1013 -844 
L 513 -844 
Q 928 -128 1133 580 
Q 1338 1288 1338 2009 
Q 1338 2731 1133 3434 
Q 928 4138 513 4856 
z
" transform="scale(0.015625)"/>
      </defs>
      <use xlink:href="#DejaVuSans-4a"/>
      <use xlink:href="#DejaVuSans-75" transform="translate(29.492188 0)"/>
      <use xlink:href="#DejaVuSans-72" transform="translate(92.871094 0)"/>
      <use xlink:href="#DejaVuSans-6f" transform="translate(131.734375 0)"/>
      <use xlink:href="#DejaVuSans-20" transform="translate(192.916016 0)"/>
      <use xlink:href="#DejaVuSans-72" transform="translate(224.703125 0)"/>
      <use xlink:href="#DejaVuSans-65" transform="translate(263.566406 0)"/>
      <use xlink:href="#DejaVuSans-61" transform="translate(325.089844 0)"/>
      <use xlink:href="#DejaVuSans-6c" transform="translate(386.369141 0)"/>
      <use xlink:href="#DejaVuSans-20" transform="translate(414.152344 0)"/>
      <use xlink:href="#DejaVuSans-61" transform="translate(445.939453 0)"/>
      <use xlink:href="#DejaVuSans-6e" transform="translate(507.21875 0)"/>
      <use xlink:href="#DejaVuSans-75" transform="translate(570.597656 0)"/>
      <use xlink:href="#DejaVuSans-61" transform="translate(633.976562 0)"/>
      <use xlink:href="#DejaVuSans-6c" transform="translate(695.255859 0)"/>
      <use xlink:href="#DejaVuSans-20" transform="translate(723.039062 0)"/>
      <use xlink:href="#DejaVuSans-28" transform="translate(754.826172 0)"/>
      <use xlink:href="#DejaVuSans-25" transform="translate(793.839844 0)"/>
      <use xlink:href="#DejaVuSans-29" transform="translate(888.859375 0)"/>
     </g>
    </g>
   </g>
   <g id="matplotlib.axis_2">
    <g id="ytick_1">
     <g id="line2d_6">
      <path d="M 62.386 289.979165 
L 627.156 289.979165 
" clip-path="url(#p193af9e65c)" style="fill: none; stroke: #cecdc3; stroke-opacity: 0.9; stroke-width: 0.9; stroke-linecap: square"/>
     </g>
     <g id="line2d_7"/>
     <g id="text_7">
      <!-- -4% -->
      <g style="fill: #6f6e69" transform="translate(35.940531 293.968344) scale(0.105 -0.105)">
       <use xlink:href="#DejaVuSans-2d"/>
       <use xlink:href="#DejaVuSans-34" transform="translate(36.083984 0)"/>
       <use xlink:href="#DejaVuSans-25" transform="translate(99.707031 0)"/>
      </g>
     </g>
    </g>
    <g id="ytick_2">
     <g id="line2d_8">
      <path d="M 62.386 249.401551 
L 627.156 249.401551 
" clip-path="url(#p193af9e65c)" style="fill: none; stroke: #cecdc3; stroke-opacity: 0.9; stroke-width: 0.9; stroke-linecap: square"/>
     </g>
     <g id="line2d_9"/>
     <g id="text_8">
      <!-- -2% -->
      <g style="fill: #6f6e69" transform="translate(35.940531 253.390731) scale(0.105 -0.105)">
       <use xlink:href="#DejaVuSans-2d"/>
       <use xlink:href="#DejaVuSans-32" transform="translate(36.083984 0)"/>
       <use xlink:href="#DejaVuSans-25" transform="translate(99.707031 0)"/>
      </g>
     </g>
    </g>
    <g id="ytick_3">
     <g id="line2d_10">
      <path d="M 62.386 208.823937 
L 627.156 208.823937 
" clip-path="url(#p193af9e65c)" style="fill: none; stroke: #cecdc3; stroke-opacity: 0.9; stroke-width: 0.9; stroke-linecap: square"/>
     </g>
     <g id="line2d_11"/>
     <g id="text_9">
      <!-- 0% -->
      <g style="fill: #6f6e69" transform="translate(39.728734 212.813117) scale(0.105 -0.105)">
       <use xlink:href="#DejaVuSans-30"/>
       <use xlink:href="#DejaVuSans-25" transform="translate(63.623047 0)"/>
      </g>
     </g>
    </g>
    <g id="ytick_4">
     <g id="line2d_12">
      <path d="M 62.386 168.246324 
L 627.156 168.246324 
" clip-path="url(#p193af9e65c)" style="fill: none; stroke: #cecdc3; stroke-opacity: 0.9; stroke-width: 0.9; stroke-linecap: square"/>
     </g>
     <g id="line2d_13"/>
     <g id="text_10">
      <!-- 2% -->
      <g style="fill: #6f6e69" transform="translate(39.728734 172.235503) scale(0.105 -0.105)">
       <use xlink:href="#DejaVuSans-32"/>
       <use xlink:href="#DejaVuSans-25" transform="translate(63.623047 0)"/>
      </g>
     </g>
    </g>
    <g id="ytick_5">
     <g id="line2d_14">
      <path d="M 62.386 127.66871 
L 627.156 127.66871 
" clip-path="url(#p193af9e65c)" style="fill: none; stroke: #cecdc3; stroke-opacity: 0.9; stroke-width: 0.9; stroke-linecap: square"/>
     </g>
     <g id="line2d_15"/>
     <g id="text_11">
      <!-- 4% -->
      <g style="fill: #6f6e69" transform="translate(39.728734 131.657889) scale(0.105 -0.105)">
       <use xlink:href="#DejaVuSans-34"/>
       <use xlink:href="#DejaVuSans-25" transform="translate(63.623047 0)"/>
      </g>
     </g>
    </g>
    <g id="text_12">
     <!-- Crescimento do consumo real per capita (%) -->
     <g style="fill: #1c1b1a" transform="translate(23.756859 326.052722) rotate(-90) scale(0.105 -0.105)">
      <defs>
       <path id="DejaVuSans-43" d="M 4122 4306 
L 4122 3641 
Q 3803 3938 3442 4084 
Q 3081 4231 2675 4231 
Q 1875 4231 1450 3742 
Q 1025 3253 1025 2328 
Q 1025 1406 1450 917 
Q 1875 428 2675 428 
Q 3081 428 3442 575 
Q 3803 722 4122 1019 
L 4122 359 
Q 3791 134 3420 21 
Q 3050 -91 2638 -91 
Q 1578 -91 968 557 
Q 359 1206 359 2328 
Q 359 3453 968 4101 
Q 1578 4750 2638 4750 
Q 3056 4750 3426 4639 
Q 3797 4528 4122 4306 
z
" transform="scale(0.015625)"/>
       <path id="DejaVuSans-73" d="M 2834 3397 
L 2834 2853 
Q 2591 2978 2328 3040 
Q 2066 3103 1784 3103 
Q 1356 3103 1142 2972 
Q 928 2841 928 2578 
Q 928 2378 1081 2264 
Q 1234 2150 1697 2047 
L 1894 2003 
Q 2506 1872 2764 1633 
Q 3022 1394 3022 966 
Q 3022 478 2636 193 
Q 2250 -91 1575 -91 
Q 1294 -91 989 -36 
Q 684 19 347 128 
L 347 722 
Q 666 556 975 473 
Q 1284 391 1588 391 
Q 1994 391 2212 530 
Q 2431 669 2431 922 
Q 2431 1156 2273 1281 
Q 2116 1406 1581 1522 
L 1381 1569 
Q 847 1681 609 1914 
Q 372 2147 372 2553 
Q 372 3047 722 3315 
Q 1072 3584 1716 3584 
Q 2034 3584 2315 3537 
Q 2597 3491 2834 3397 
z
" transform="scale(0.015625)"/>
       <path id="DejaVuSans-63" d="M 3122 3366 
L 3122 2828 
Q 2878 2963 2633 3030 
Q 2388 3097 2138 3097 
Q 1578 3097 1268 2742 
Q 959 2388 959 1747 
Q 959 1106 1268 751 
Q 1578 397 2138 397 
Q 2388 397 2633 464 
Q 2878 531 3122 666 
L 3122 134 
Q 2881 22 2623 -34 
Q 2366 -91 2075 -91 
Q 1284 -91 818 406 
Q 353 903 353 1747 
Q 353 2603 823 3093 
Q 1294 3584 2113 3584 
Q 2378 3584 2631 3529 
Q 2884 3475 3122 3366 
z
" transform="scale(0.015625)"/>
       <path id="DejaVuSans-69" d="M 603 3500 
L 1178 3500 
L 1178 0 
L 603 0 
L 603 3500 
z
M 603 4863 
L 1178 4863 
L 1178 4134 
L 603 4134 
L 603 4863 
z
" transform="scale(0.015625)"/>
       <path id="DejaVuSans-6d" d="M 3328 2828 
Q 3544 3216 3844 3400 
Q 4144 3584 4550 3584 
Q 5097 3584 5394 3201 
Q 5691 2819 5691 2113 
L 5691 0 
L 5113 0 
L 5113 2094 
Q 5113 2597 4934 2840 
Q 4756 3084 4391 3084 
Q 3944 3084 3684 2787 
Q 3425 2491 3425 1978 
L 3425 0 
L 2847 0 
L 2847 2094 
Q 2847 2600 2669 2842 
Q 2491 3084 2119 3084 
Q 1678 3084 1418 2786 
Q 1159 2488 1159 1978 
L 1159 0 
L 581 0 
L 581 3500 
L 1159 3500 
L 1159 2956 
Q 1356 3278 1631 3431 
Q 1906 3584 2284 3584 
Q 2666 3584 2933 3390 
Q 3200 3197 3328 2828 
z
" transform="scale(0.015625)"/>
       <path id="DejaVuSans-74" d="M 1172 4494 
L 1172 3500 
L 2356 3500 
L 2356 3053 
L 1172 3053 
L 1172 1153 
Q 1172 725 1289 603 
Q 1406 481 1766 481 
L 2356 481 
L 2356 0 
L 1766 0 
Q 1100 0 847 248 
Q 594 497 594 1153 
L 594 3053 
L 172 3053 
L 172 3500 
L 594 3500 
L 594 4494 
L 1172 4494 
z
" transform="scale(0.015625)"/>
       <path id="DejaVuSans-64" d="M 2906 2969 
L 2906 4863 
L 3481 4863 
L 3481 0 
L 2906 0 
L 2906 525 
Q 2725 213 2448 61 
Q 2172 -91 1784 -91 
Q 1150 -91 751 415 
Q 353 922 353 1747 
Q 353 2572 751 3078 
Q 1150 3584 1784 3584 
Q 2172 3584 2448 3432 
Q 2725 3281 2906 2969 
z
M 947 1747 
Q 947 1113 1208 752 
Q 1469 391 1925 391 
Q 2381 391 2643 752 
Q 2906 1113 2906 1747 
Q 2906 2381 2643 2742 
Q 2381 3103 1925 3103 
Q 1469 3103 1208 2742 
Q 947 2381 947 1747 
z
" transform="scale(0.015625)"/>
       <path id="DejaVuSans-70" d="M 1159 525 
L 1159 -1331 
L 581 -1331 
L 581 3500 
L 1159 3500 
L 1159 2969 
Q 1341 3281 1617 3432 
Q 1894 3584 2278 3584 
Q 2916 3584 3314 3078 
Q 3713 2572 3713 1747 
Q 3713 922 3314 415 
Q 2916 -91 2278 -91 
Q 1894 -91 1617 61 
Q 1341 213 1159 525 
z
M 3116 1747 
Q 3116 2381 2855 2742 
Q 2594 3103 2138 3103 
Q 1681 3103 1420 2742 
Q 1159 2381 1159 1747 
Q 1159 1113 1420 752 
Q 1681 391 2138 391 
Q 2594 391 2855 752 
Q 3116 1113 3116 1747 
z
" transform="scale(0.015625)"/>
      </defs>
      <use xlink:href="#DejaVuSans-43"/>
      <use xlink:href="#DejaVuSans-72" transform="translate(69.824219 0)"/>
      <use xlink:href="#DejaVuSans-65" transform="translate(108.6875 0)"/>
      <use xlink:href="#DejaVuSans-73" transform="translate(170.210938 0)"/>
      <use xlink:href="#DejaVuSans-63" transform="translate(222.310547 0)"/>
      <use xlink:href="#DejaVuSans-69" transform="translate(277.291016 0)"/>
      <use xlink:href="#DejaVuSans-6d" transform="translate(305.074219 0)"/>
      <use xlink:href="#DejaVuSans-65" transform="translate(402.486328 0)"/>
      <use xlink:href="#DejaVuSans-6e" transform="translate(464.009766 0)"/>
      <use xlink:href="#DejaVuSans-74" transform="translate(527.388672 0)"/>
      <use xlink:href="#DejaVuSans-6f" transform="translate(566.597656 0)"/>
      <use xlink:href="#DejaVuSans-20" transform="translate(627.779297 0)"/>
      <use xlink:href="#DejaVuSans-64" transform="translate(659.566406 0)"/>
      <use xlink:href="#DejaVuSans-6f" transform="translate(723.042969 0)"/>
      <use xlink:href="#DejaVuSans-20" transform="translate(784.224609 0)"/>
      <use xlink:href="#DejaVuSans-63" transform="translate(816.011719 0)"/>
      <use xlink:href="#DejaVuSans-6f" transform="translate(870.992188 0)"/>
      <use xlink:href="#DejaVuSans-6e" transform="translate(932.173828 0)"/>
      <use xlink:href="#DejaVuSans-73" transform="translate(995.552734 0)"/>
      <use xlink:href="#DejaVuSans-75" transform="translate(1047.652344 0)"/>
      <use xlink:href="#DejaVuSans-6d" transform="translate(1111.03125 0)"/>
      <use xlink:href="#DejaVuSans-6f" transform="translate(1208.443359 0)"/>
      <use xlink:href="#DejaVuSans-20" transform="translate(1269.625 0)"/>
      <use xlink:href="#DejaVuSans-72" transform="translate(1301.412109 0)"/>
      <use xlink:href="#DejaVuSans-65" transform="translate(1340.275391 0)"/>
      <use xlink:href="#DejaVuSans-61" transform="translate(1401.798828 0)"/>
      <use xlink:href="#DejaVuSans-6c" transform="translate(1463.078125 0)"/>
      <use xlink:href="#DejaVuSans-20" transform="translate(1490.861328 0)"/>
      <use xlink:href="#DejaVuSans-70" transform="translate(1522.648438 0)"/>
      <use xlink:href="#DejaVuSans-65" transform="translate(1586.125 0)"/>
      <use xlink:href="#DejaVuSans-72" transform="translate(1647.648438 0)"/>
      <use xlink:href="#DejaVuSans-20" transform="translate(1688.761719 0)"/>
      <use xlink:href="#DejaVuSans-63" transform="translate(1720.548828 0)"/>
      <use xlink:href="#DejaVuSans-61" transform="translate(1775.529297 0)"/>
      <use xlink:href="#DejaVuSans-70" transform="translate(1836.808594 0)"/>
      <use xlink:href="#DejaVuSans-69" transform="translate(1900.285156 0)"/>
      <use xlink:href="#DejaVuSans-74" transform="translate(1928.068359 0)"/>
      <use xlink:href="#DejaVuSans-61" transform="translate(1967.277344 0)"/>
      <use xlink:href="#DejaVuSans-20" transform="translate(2028.556641 0)"/>
      <use xlink:href="#DejaVuSans-28" transform="translate(2060.34375 0)"/>
      <use xlink:href="#DejaVuSans-25" transform="translate(2099.357422 0)"/>
      <use xlink:href="#DejaVuSans-29" transform="translate(2194.376953 0)"/>
     </g>
    </g>
   </g>
   <g id="line2d_16">
    <path d="M 88.057364 196.24473 
L 93.243498 195.897383 
L 98.429632 195.550036 
L 103.615766 195.202689 
L 108.8019 194.855342 
L 113.988034 194.507995 
L 119.174168 194.160648 
L 124.360302 193.813301 
L 129.546436 193.465954 
L 134.73257 193.118607 
L 139.918704 192.771261 
L 145.104838 192.423914 
L 150.290972 192.076567 
L 155.477107 191.72922 
L 160.663241 191.381873 
L 165.849375 191.034526 
L 171.035509 190.687179 
L 176.221643 190.339832 
L 181.407777 189.992485 
L 186.593911 189.645138 
L 191.780045 189.297792 
L 196.966179 188.950445 
L 202.152313 188.603098 
L 207.338447 188.255751 
L 212.524581 187.908404 
L 217.710715 187.561057 
L 222.896849 187.21371 
L 228.082983 186.866363 
L 233.269118 186.519016 
L 238.455252 186.171669 
L 243.641386 185.824322 
L 248.82752 185.476976 
L 254.013654 185.129629 
L 259.199788 184.782282 
L 264.385922 184.434935 
L 269.572056 184.087588 
L 274.75819 183.740241 
L 279.944324 183.392894 
L 285.130458 183.045547 
L 290.316592 182.6982 
L 295.502726 182.350853 
L 300.68886 182.003507 
L 305.874994 181.65616 
L 311.061129 181.308813 
L 316.247263 180.961466 
L 321.433397 180.614119 
L 326.619531 180.266772 
L 331.805665 179.919425 
L 336.991799 179.572078 
L 342.177933 179.224731 
L 347.364067 178.877384 
L 352.550201 178.530037 
L 357.736335 178.182691 
L 362.922469 177.835344 
L 368.108603 177.487997 
L 373.294737 177.14065 
L 378.480871 176.793303 
L 383.667006 176.445956 
L 388.85314 176.098609 
L 394.039274 175.751262 
L 399.225408 175.403915 
L 404.411542 175.056568 
L 409.597676 174.709222 
L 414.78381 174.361875 
L 419.969944 174.014528 
L 425.156078 173.667181 
L 430.342212 173.319834 
L 435.528346 172.972487 
L 440.71448 172.62514 
L 445.900614 172.277793 
L 451.086748 171.930446 
L 456.272882 171.583099 
L 461.459017 171.235752 
L 466.645151 170.888406 
L 471.831285 170.541059 
L 477.017419 170.193712 
L 482.203553 169.846365 
L 487.389687 169.499018 
L 492.575821 169.151671 
L 497.761955 168.804324 
L 502.948089 168.456977 
L 508.134223 168.10963 
L 513.320357 167.762283 
L 518.506491 167.414937 
L 523.692625 167.06759 
L 528.878759 166.720243 
L 534.064893 166.372896 
L 539.251028 166.025549 
L 544.437162 165.678202 
L 549.623296 165.330855 
L 554.80943 164.983508 
L 559.995564 164.636161 
L 565.181698 164.288814 
L 570.367832 163.941468 
L 575.553966 163.594121 
L 580.7401 163.246774 
L 585.926234 162.899427 
L 591.112368 162.55208 
L 596.298502 162.204733 
L 601.484636 161.857386 
" clip-path="url(#p193af9e65c)" style="fill: none; stroke: #da702c; stroke-width: 2; stroke-linecap: square"/>
   </g>
   <g id="patch_3">
    <path d="M 62.386 326.617143 
L 62.386 90.982286 
" style="fill: none; stroke: #cecdc3; stroke-width: 0.8; stroke-linejoin: miter; stroke-linecap: square"/>
   </g>
   <g id="patch_4">
    <path d="M 62.386 326.617143 
L 627.156 326.617143 
" style="fill: none; stroke: #cecdc3; stroke-width: 0.8; stroke-linejoin: miter; stroke-linecap: square"/>
   </g>
   <g id="text_13">
    <!-- 2020 -->
    <g style="fill: #d14d41" transform="translate(193.105839 309.906468) scale(0.09 -0.09)">
     <use xlink:href="#DejaVuSans-32"/>
     <use xlink:href="#DejaVuSans-30" transform="translate(63.623047 0)"/>
     <use xlink:href="#DejaVuSans-32" transform="translate(127.246094 0)"/>
     <use xlink:href="#DejaVuSans-30" transform="translate(190.869141 0)"/>
    </g>
   </g>
  </g>
  <g id="text_14">
   <!-- Brasil: juros reais e crescimento do consumo no RCK -->
   <g style="fill: #1c1b1a" transform="translate(14.4 26.5575) scale(0.16 -0.16)">
    <defs>
     <path id="DejaVuSans-Bold-42" d="M 2456 2859 
Q 2741 2859 2887 2984 
Q 3034 3109 3034 3353 
Q 3034 3594 2887 3720 
Q 2741 3847 2456 3847 
L 1791 3847 
L 1791 2859 
L 2456 2859 
z
M 2497 819 
Q 2859 819 3042 972 
Q 3225 1125 3225 1434 
Q 3225 1738 3044 1889 
Q 2863 2041 2497 2041 
L 1791 2041 
L 1791 819 
L 2497 819 
z
M 3616 2497 
Q 4003 2384 4215 2081 
Q 4428 1778 4428 1338 
Q 4428 663 3972 331 
Q 3516 0 2584 0 
L 588 0 
L 588 4666 
L 2394 4666 
Q 3366 4666 3802 4372 
Q 4238 4078 4238 3431 
Q 4238 3091 4078 2852 
Q 3919 2613 3616 2497 
z
" transform="scale(0.015625)"/>
     <path id="DejaVuSans-Bold-72" d="M 3138 2547 
Q 2991 2616 2845 2648 
Q 2700 2681 2553 2681 
Q 2122 2681 1889 2404 
Q 1656 2128 1656 1613 
L 1656 0 
L 538 0 
L 538 3500 
L 1656 3500 
L 1656 2925 
Q 1872 3269 2151 3426 
Q 2431 3584 2822 3584 
Q 2878 3584 2943 3579 
Q 3009 3575 3134 3559 
L 3138 2547 
z
" transform="scale(0.015625)"/>
     <path id="DejaVuSans-Bold-61" d="M 2106 1575 
Q 1756 1575 1579 1456 
Q 1403 1338 1403 1106 
Q 1403 894 1545 773 
Q 1688 653 1941 653 
Q 2256 653 2472 879 
Q 2688 1106 2688 1447 
L 2688 1575 
L 2106 1575 
z
M 3816 1997 
L 3816 0 
L 2688 0 
L 2688 519 
Q 2463 200 2181 54 
Q 1900 -91 1497 -91 
Q 953 -91 614 226 
Q 275 544 275 1050 
Q 275 1666 698 1953 
Q 1122 2241 2028 2241 
L 2688 2241 
L 2688 2328 
Q 2688 2594 2478 2717 
Q 2269 2841 1825 2841 
Q 1466 2841 1156 2769 
Q 847 2697 581 2553 
L 581 3406 
Q 941 3494 1303 3539 
Q 1666 3584 2028 3584 
Q 2975 3584 3395 3211 
Q 3816 2838 3816 1997 
z
" transform="scale(0.015625)"/>
     <path id="DejaVuSans-Bold-73" d="M 3272 3391 
L 3272 2541 
Q 2913 2691 2578 2766 
Q 2244 2841 1947 2841 
Q 1628 2841 1473 2761 
Q 1319 2681 1319 2516 
Q 1319 2381 1436 2309 
Q 1553 2238 1856 2203 
L 2053 2175 
Q 2913 2066 3209 1816 
Q 3506 1566 3506 1031 
Q 3506 472 3093 190 
Q 2681 -91 1863 -91 
Q 1516 -91 1145 -36 
Q 775 19 384 128 
L 384 978 
Q 719 816 1070 734 
Q 1422 653 1784 653 
Q 2113 653 2278 743 
Q 2444 834 2444 1013 
Q 2444 1163 2330 1236 
Q 2216 1309 1875 1350 
L 1678 1375 
Q 931 1469 631 1722 
Q 331 1975 331 2491 
Q 331 3047 712 3315 
Q 1094 3584 1881 3584 
Q 2191 3584 2531 3537 
Q 2872 3491 3272 3391 
z
" transform="scale(0.015625)"/>
     <path id="DejaVuSans-Bold-69" d="M 538 3500 
L 1656 3500 
L 1656 0 
L 538 0 
L 538 3500 
z
M 538 4863 
L 1656 4863 
L 1656 3950 
L 538 3950 
L 538 4863 
z
" transform="scale(0.015625)"/>
     <path id="DejaVuSans-Bold-6c" d="M 538 4863 
L 1656 4863 
L 1656 0 
L 538 0 
L 538 4863 
z
" transform="scale(0.015625)"/>
     <path id="DejaVuSans-Bold-3a" d="M 716 3500 
L 1844 3500 
L 1844 2291 
L 716 2291 
L 716 3500 
z
M 716 1209 
L 1844 1209 
L 1844 0 
L 716 0 
L 716 1209 
z
" transform="scale(0.015625)"/>
     <path id="DejaVuSans-Bold-20" transform="scale(0.015625)"/>
     <path id="DejaVuSans-Bold-6a" d="M 538 3500 
L 1656 3500 
L 1656 63 
Q 1656 -641 1318 -1011 
Q 981 -1381 341 -1381 
L -213 -1381 
L -213 -647 
L -19 -647 
Q 300 -647 419 -503 
Q 538 -359 538 63 
L 538 3500 
z
M 538 4863 
L 1656 4863 
L 1656 3950 
L 538 3950 
L 538 4863 
z
" transform="scale(0.015625)"/>
     <path id="DejaVuSans-Bold-75" d="M 500 1363 
L 500 3500 
L 1625 3500 
L 1625 3150 
Q 1625 2866 1622 2436 
Q 1619 2006 1619 1863 
Q 1619 1441 1641 1255 
Q 1663 1069 1716 984 
Q 1784 875 1895 815 
Q 2006 756 2150 756 
Q 2500 756 2700 1025 
Q 2900 1294 2900 1772 
L 2900 3500 
L 4019 3500 
L 4019 0 
L 2900 0 
L 2900 506 
Q 2647 200 2364 54 
Q 2081 -91 1741 -91 
Q 1134 -91 817 281 
Q 500 653 500 1363 
z
" transform="scale(0.015625)"/>
     <path id="DejaVuSans-Bold-6f" d="M 2203 2784 
Q 1831 2784 1636 2517 
Q 1441 2250 1441 1747 
Q 1441 1244 1636 976 
Q 1831 709 2203 709 
Q 2569 709 2762 976 
Q 2956 1244 2956 1747 
Q 2956 2250 2762 2517 
Q 2569 2784 2203 2784 
z
M 2203 3584 
Q 3106 3584 3614 3096 
Q 4122 2609 4122 1747 
Q 4122 884 3614 396 
Q 3106 -91 2203 -91 
Q 1297 -91 786 396 
Q 275 884 275 1747 
Q 275 2609 786 3096 
Q 1297 3584 2203 3584 
z
" transform="scale(0.015625)"/>
     <path id="DejaVuSans-Bold-65" d="M 4031 1759 
L 4031 1441 
L 1416 1441 
Q 1456 1047 1700 850 
Q 1944 653 2381 653 
Q 2734 653 3104 758 
Q 3475 863 3866 1075 
L 3866 213 
Q 3469 63 3072 -14 
Q 2675 -91 2278 -91 
Q 1328 -91 801 392 
Q 275 875 275 1747 
Q 275 2603 792 3093 
Q 1309 3584 2216 3584 
Q 3041 3584 3536 3087 
Q 4031 2591 4031 1759 
z
M 2881 2131 
Q 2881 2450 2695 2645 
Q 2509 2841 2209 2841 
Q 1884 2841 1681 2658 
Q 1478 2475 1428 2131 
L 2881 2131 
z
" transform="scale(0.015625)"/>
     <path id="DejaVuSans-Bold-63" d="M 3366 3391 
L 3366 2478 
Q 3138 2634 2908 2709 
Q 2678 2784 2431 2784 
Q 1963 2784 1702 2511 
Q 1441 2238 1441 1747 
Q 1441 1256 1702 982 
Q 1963 709 2431 709 
Q 2694 709 2930 787 
Q 3166 866 3366 1019 
L 3366 103 
Q 3103 6 2833 -42 
Q 2563 -91 2291 -91 
Q 1344 -91 809 395 
Q 275 881 275 1747 
Q 275 2613 809 3098 
Q 1344 3584 2291 3584 
Q 2566 3584 2833 3536 
Q 3100 3488 3366 3391 
z
" transform="scale(0.015625)"/>
     <path id="DejaVuSans-Bold-6d" d="M 3781 2919 
Q 3994 3244 4286 3414 
Q 4578 3584 4928 3584 
Q 5531 3584 5847 3212 
Q 6163 2841 6163 2131 
L 6163 0 
L 5038 0 
L 5038 1825 
Q 5041 1866 5042 1909 
Q 5044 1953 5044 2034 
Q 5044 2406 4934 2573 
Q 4825 2741 4581 2741 
Q 4263 2741 4089 2478 
Q 3916 2216 3909 1719 
L 3909 0 
L 2784 0 
L 2784 1825 
Q 2784 2406 2684 2573 
Q 2584 2741 2328 2741 
Q 2006 2741 1831 2477 
Q 1656 2213 1656 1722 
L 1656 0 
L 531 0 
L 531 3500 
L 1656 3500 
L 1656 2988 
Q 1863 3284 2130 3434 
Q 2397 3584 2719 3584 
Q 3081 3584 3359 3409 
Q 3638 3234 3781 2919 
z
" transform="scale(0.015625)"/>
     <path id="DejaVuSans-Bold-6e" d="M 4056 2131 
L 4056 0 
L 2931 0 
L 2931 347 
L 2931 1631 
Q 2931 2084 2911 2256 
Q 2891 2428 2841 2509 
Q 2775 2619 2662 2680 
Q 2550 2741 2406 2741 
Q 2056 2741 1856 2470 
Q 1656 2200 1656 1722 
L 1656 0 
L 538 0 
L 538 3500 
L 1656 3500 
L 1656 2988 
Q 1909 3294 2193 3439 
Q 2478 3584 2822 3584 
Q 3428 3584 3742 3212 
Q 4056 2841 4056 2131 
z
" transform="scale(0.015625)"/>
     <path id="DejaVuSans-Bold-74" d="M 1759 4494 
L 1759 3500 
L 2913 3500 
L 2913 2700 
L 1759 2700 
L 1759 1216 
Q 1759 972 1856 886 
Q 1953 800 2241 800 
L 2816 800 
L 2816 0 
L 1856 0 
Q 1194 0 917 276 
Q 641 553 641 1216 
L 641 2700 
L 84 2700 
L 84 3500 
L 641 3500 
L 641 4494 
L 1759 4494 
z
" transform="scale(0.015625)"/>
     <path id="DejaVuSans-Bold-64" d="M 2919 2988 
L 2919 4863 
L 4044 4863 
L 4044 0 
L 2919 0 
L 2919 506 
Q 2688 197 2409 53 
Q 2131 -91 1766 -91 
Q 1119 -91 703 423 
Q 288 938 288 1747 
Q 288 2556 703 3070 
Q 1119 3584 1766 3584 
Q 2128 3584 2408 3439 
Q 2688 3294 2919 2988 
z
M 2181 722 
Q 2541 722 2730 984 
Q 2919 1247 2919 1747 
Q 2919 2247 2730 2509 
Q 2541 2772 2181 2772 
Q 1825 2772 1636 2509 
Q 1447 2247 1447 1747 
Q 1447 1247 1636 984 
Q 1825 722 2181 722 
z
" transform="scale(0.015625)"/>
     <path id="DejaVuSans-Bold-52" d="M 2297 2597 
Q 2675 2597 2839 2737 
Q 3003 2878 3003 3200 
Q 3003 3519 2839 3656 
Q 2675 3794 2297 3794 
L 1791 3794 
L 1791 2597 
L 2297 2597 
z
M 1791 1766 
L 1791 0 
L 588 0 
L 588 4666 
L 2425 4666 
Q 3347 4666 3776 4356 
Q 4206 4047 4206 3378 
Q 4206 2916 3982 2619 
Q 3759 2322 3309 2181 
Q 3556 2125 3751 1926 
Q 3947 1728 4147 1325 
L 4800 0 
L 3519 0 
L 2950 1159 
Q 2778 1509 2601 1637 
Q 2425 1766 2131 1766 
L 1791 1766 
z
" transform="scale(0.015625)"/>
     <path id="DejaVuSans-Bold-43" d="M 4288 256 
Q 3956 84 3597 -3 
Q 3238 -91 2847 -91 
Q 1681 -91 1000 561 
Q 319 1213 319 2328 
Q 319 3447 1000 4098 
Q 1681 4750 2847 4750 
Q 3238 4750 3597 4662 
Q 3956 4575 4288 4403 
L 4288 3438 
Q 3953 3666 3628 3772 
Q 3303 3878 2944 3878 
Q 2300 3878 1931 3465 
Q 1563 3053 1563 2328 
Q 1563 1606 1931 1193 
Q 2300 781 2944 781 
Q 3303 781 3628 887 
Q 3953 994 4288 1222 
L 4288 256 
z
" transform="scale(0.015625)"/>
     <path id="DejaVuSans-Bold-4b" d="M 588 4666 
L 1791 4666 
L 1791 2963 
L 3525 4666 
L 4922 4666 
L 2675 2456 
L 5153 0 
L 3647 0 
L 1791 1838 
L 1791 0 
L 588 0 
L 588 4666 
z
" transform="scale(0.015625)"/>
    </defs>
    <use xlink:href="#DejaVuSans-Bold-42"/>
    <use xlink:href="#DejaVuSans-Bold-72" transform="translate(76.220703 0)"/>
    <use xlink:href="#DejaVuSans-Bold-61" transform="translate(125.537109 0)"/>
    <use xlink:href="#DejaVuSans-Bold-73" transform="translate(193.017578 0)"/>
    <use xlink:href="#DejaVuSans-Bold-69" transform="translate(252.539062 0)"/>
    <use xlink:href="#DejaVuSans-Bold-6c" transform="translate(286.816406 0)"/>
    <use xlink:href="#DejaVuSans-Bold-3a" transform="translate(321.09375 0)"/>
    <use xlink:href="#DejaVuSans-Bold-20" transform="translate(361.083984 0)"/>
    <use xlink:href="#DejaVuSans-Bold-6a" transform="translate(395.898438 0)"/>
    <use xlink:href="#DejaVuSans-Bold-75" transform="translate(430.175781 0)"/>
    <use xlink:href="#DejaVuSans-Bold-72" transform="translate(501.367188 0)"/>
    <use xlink:href="#DejaVuSans-Bold-6f" transform="translate(550.683594 0)"/>
    <use xlink:href="#DejaVuSans-Bold-73" transform="translate(619.384766 0)"/>
    <use xlink:href="#DejaVuSans-Bold-20" transform="translate(678.90625 0)"/>
    <use xlink:href="#DejaVuSans-Bold-72" transform="translate(713.720703 0)"/>
    <use xlink:href="#DejaVuSans-Bold-65" transform="translate(763.037109 0)"/>
    <use xlink:href="#DejaVuSans-Bold-61" transform="translate(830.859375 0)"/>
    <use xlink:href="#DejaVuSans-Bold-69" transform="translate(898.339844 0)"/>
    <use xlink:href="#DejaVuSans-Bold-73" transform="translate(932.617188 0)"/>
    <use xlink:href="#DejaVuSans-Bold-20" transform="translate(992.138672 0)"/>
    <use xlink:href="#DejaVuSans-Bold-65" transform="translate(1026.953125 0)"/>
    <use xlink:href="#DejaVuSans-Bold-20" transform="translate(1094.775391 0)"/>
    <use xlink:href="#DejaVuSans-Bold-63" transform="translate(1129.589844 0)"/>
    <use xlink:href="#DejaVuSans-Bold-72" transform="translate(1188.867188 0)"/>
    <use xlink:href="#DejaVuSans-Bold-65" transform="translate(1238.183594 0)"/>
    <use xlink:href="#DejaVuSans-Bold-73" transform="translate(1306.005859 0)"/>
    <use xlink:href="#DejaVuSans-Bold-63" transform="translate(1365.527344 0)"/>
    <use xlink:href="#DejaVuSans-Bold-69" transform="translate(1424.804688 0)"/>
    <use xlink:href="#DejaVuSans-Bold-6d" transform="translate(1459.082031 0)"/>
    <use xlink:href="#DejaVuSans-Bold-65" transform="translate(1563.28125 0)"/>
    <use xlink:href="#DejaVuSans-Bold-6e" transform="translate(1631.103516 0)"/>
    <use xlink:href="#DejaVuSans-Bold-74" transform="translate(1702.294922 0)"/>
    <use xlink:href="#DejaVuSans-Bold-6f" transform="translate(1750.097656 0)"/>
    <use xlink:href="#DejaVuSans-Bold-20" transform="translate(1818.798828 0)"/>
    <use xlink:href="#DejaVuSans-Bold-64" transform="translate(1853.613281 0)"/>
    <use xlink:href="#DejaVuSans-Bold-6f" transform="translate(1925.195312 0)"/>
    <use xlink:href="#DejaVuSans-Bold-20" transform="translate(1993.896484 0)"/>
    <use xlink:href="#DejaVuSans-Bold-63" transform="translate(2028.710938 0)"/>
    <use xlink:href="#DejaVuSans-Bold-6f" transform="translate(2087.988281 0)"/>
    <use xlink:href="#DejaVuSans-Bold-6e" transform="translate(2156.689453 0)"/>
    <use xlink:href="#DejaVuSans-Bold-73" transform="translate(2227.880859 0)"/>
    <use xlink:href="#DejaVuSans-Bold-75" transform="translate(2287.402344 0)"/>
    <use xlink:href="#DejaVuSans-Bold-6d" transform="translate(2358.59375 0)"/>
    <use xlink:href="#DejaVuSans-Bold-6f" transform="translate(2462.792969 0)"/>
    <use xlink:href="#DejaVuSans-Bold-20" transform="translate(2531.494141 0)"/>
    <use xlink:href="#DejaVuSans-Bold-6e" transform="translate(2566.308594 0)"/>
    <use xlink:href="#DejaVuSans-Bold-6f" transform="translate(2637.5 0)"/>
    <use xlink:href="#DejaVuSans-Bold-20" transform="translate(2706.201172 0)"/>
    <use xlink:href="#DejaVuSans-Bold-52" transform="translate(2741.015625 0)"/>
    <use xlink:href="#DejaVuSans-Bold-43" transform="translate(2818.017578 0)"/>
    <use xlink:href="#DejaVuSans-Bold-4b" transform="translate(2891.40625 0)"/>
   </g>
  </g>
  <g id="text_15">
   <!-- Amostra anual 2000-2023; estimativa de rho = -0.117. -->
   <g style="fill: #6f6e69" transform="translate(14.4 38.566406) scale(0.102 -0.102)">
    <defs>
     <path id="DejaVuSans-41" d="M 2188 4044 
L 1331 1722 
L 3047 1722 
L 2188 4044 
z
M 1831 4666 
L 2547 4666 
L 4325 0 
L 3669 0 
L 3244 1197 
L 1141 1197 
L 716 0 
L 50 0 
L 1831 4666 
z
" transform="scale(0.015625)"/>
     <path id="DejaVuSans-33" d="M 2597 2516 
Q 3050 2419 3304 2112 
Q 3559 1806 3559 1356 
Q 3559 666 3084 287 
Q 2609 -91 1734 -91 
Q 1441 -91 1130 -33 
Q 819 25 488 141 
L 488 750 
Q 750 597 1062 519 
Q 1375 441 1716 441 
Q 2309 441 2620 675 
Q 2931 909 2931 1356 
Q 2931 1769 2642 2001 
Q 2353 2234 1838 2234 
L 1294 2234 
L 1294 2753 
L 1863 2753 
Q 2328 2753 2575 2939 
Q 2822 3125 2822 3475 
Q 2822 3834 2567 4026 
Q 2313 4219 1838 4219 
Q 1578 4219 1281 4162 
Q 984 4106 628 3988 
L 628 4550 
Q 988 4650 1302 4700 
Q 1616 4750 1894 4750 
Q 2613 4750 3031 4423 
Q 3450 4097 3450 3541 
Q 3450 3153 3228 2886 
Q 3006 2619 2597 2516 
z
" transform="scale(0.015625)"/>
     <path id="DejaVuSans-3b" d="M 750 3309 
L 1409 3309 
L 1409 2516 
L 750 2516 
L 750 3309 
z
M 750 794 
L 1409 794 
L 1409 256 
L 897 -744 
L 494 -744 
L 750 256 
L 750 794 
z
" transform="scale(0.015625)"/>
     <path id="DejaVuSans-76" d="M 191 3500 
L 800 3500 
L 1894 563 
L 2988 3500 
L 3597 3500 
L 2284 0 
L 1503 0 
L 191 3500 
z
" transform="scale(0.015625)"/>
     <path id="DejaVuSans-68" d="M 3513 2113 
L 3513 0 
L 2938 0 
L 2938 2094 
Q 2938 2591 2744 2837 
Q 2550 3084 2163 3084 
Q 1697 3084 1428 2787 
Q 1159 2491 1159 1978 
L 1159 0 
L 581 0 
L 581 4863 
L 1159 4863 
L 1159 2956 
Q 1366 3272 1645 3428 
Q 1925 3584 2291 3584 
Q 2894 3584 3203 3211 
Q 3513 2838 3513 2113 
z
" transform="scale(0.015625)"/>
     <path id="DejaVuSans-3d" d="M 678 2906 
L 4684 2906 
L 4684 2381 
L 678 2381 
L 678 2906 
z
M 678 1631 
L 4684 1631 
L 4684 1100 
L 678 1100 
L 678 1631 
z
" transform="scale(0.015625)"/>
     <path id="DejaVuSans-2e" d="M 684 794 
L 1344 794 
L 1344 0 
L 684 0 
L 684 794 
z
" transform="scale(0.015625)"/>
     <path id="DejaVuSans-37" d="M 525 4666 
L 3525 4666 
L 3525 4397 
L 1831 0 
L 1172 0 
L 2766 4134 
L 525 4134 
L 525 4666 
z
" transform="scale(0.015625)"/>
    </defs>
    <use xlink:href="#DejaVuSans-41"/>
    <use xlink:href="#DejaVuSans-6d" transform="translate(68.408203 0)"/>
    <use xlink:href="#DejaVuSans-6f" transform="translate(165.820312 0)"/>
    <use xlink:href="#DejaVuSans-73" transform="translate(227.001953 0)"/>
    <use xlink:href="#DejaVuSans-74" transform="translate(279.101562 0)"/>
    <use xlink:href="#DejaVuSans-72" transform="translate(318.310547 0)"/>
    <use xlink:href="#DejaVuSans-61" transform="translate(359.423828 0)"/>
    <use xlink:href="#DejaVuSans-20" transform="translate(420.703125 0)"/>
    <use xlink:href="#DejaVuSans-61" transform="translate(452.490234 0)"/>
    <use xlink:href="#DejaVuSans-6e" transform="translate(513.769531 0)"/>
    <use xlink:href="#DejaVuSans-75" transform="translate(577.148438 0)"/>
    <use xlink:href="#DejaVuSans-61" transform="translate(640.527344 0)"/>
    <use xlink:href="#DejaVuSans-6c" transform="translate(701.806641 0)"/>
    <use xlink:href="#DejaVuSans-20" transform="translate(729.589844 0)"/>
    <use xlink:href="#DejaVuSans-32" transform="translate(761.376953 0)"/>
    <use xlink:href="#DejaVuSans-30" transform="translate(825 0)"/>
    <use xlink:href="#DejaVuSans-30" transform="translate(888.623047 0)"/>
    <use xlink:href="#DejaVuSans-30" transform="translate(952.246094 0)"/>
    <use xlink:href="#DejaVuSans-2d" transform="translate(1015.869141 0)"/>
    <use xlink:href="#DejaVuSans-32" transform="translate(1051.953125 0)"/>
    <use xlink:href="#DejaVuSans-30" transform="translate(1115.576172 0)"/>
    <use xlink:href="#DejaVuSans-32" transform="translate(1179.199219 0)"/>
    <use xlink:href="#DejaVuSans-33" transform="translate(1242.822266 0)"/>
    <use xlink:href="#DejaVuSans-3b" transform="translate(1306.445312 0)"/>
    <use xlink:href="#DejaVuSans-20" transform="translate(1340.136719 0)"/>
    <use xlink:href="#DejaVuSans-65" transform="translate(1371.923828 0)"/>
    <use xlink:href="#DejaVuSans-73" transform="translate(1433.447266 0)"/>
    <use xlink:href="#DejaVuSans-74" transform="translate(1485.546875 0)"/>
    <use xlink:href="#DejaVuSans-69" transform="translate(1524.755859 0)"/>
    <use xlink:href="#DejaVuSans-6d" transform="translate(1552.539062 0)"/>
    <use xlink:href="#DejaVuSans-61" transform="translate(1649.951172 0)"/>
    <use xlink:href="#DejaVuSans-74" transform="translate(1711.230469 0)"/>
    <use xlink:href="#DejaVuSans-69" transform="translate(1750.439453 0)"/>
    <use xlink:href="#DejaVuSans-76" transform="translate(1778.222656 0)"/>
    <use xlink:href="#DejaVuSans-61" transform="translate(1837.402344 0)"/>
    <use xlink:href="#DejaVuSans-20" transform="translate(1898.681641 0)"/>
    <use xlink:href="#DejaVuSans-64" transform="translate(1930.46875 0)"/>
    <use xlink:href="#DejaVuSans-65" transform="translate(1993.945312 0)"/>
    <use xlink:href="#DejaVuSans-20" transform="translate(2055.46875 0)"/>
    <use xlink:href="#DejaVuSans-72" transform="translate(2087.255859 0)"/>
    <use xlink:href="#DejaVuSans-68" transform="translate(2126.619141 0)"/>
    <use xlink:href="#DejaVuSans-6f" transform="translate(2189.998047 0)"/>
    <use xlink:href="#DejaVuSans-20" transform="translate(2251.179688 0)"/>
    <use xlink:href="#DejaVuSans-3d" transform="translate(2282.966797 0)"/>
    <use xlink:href="#DejaVuSans-20" transform="translate(2366.755859 0)"/>
    <use xlink:href="#DejaVuSans-2d" transform="translate(2398.542969 0)"/>
    <use xlink:href="#DejaVuSans-30" transform="translate(2434.626953 0)"/>
    <use xlink:href="#DejaVuSans-2e" transform="translate(2498.25 0)"/>
    <use xlink:href="#DejaVuSans-31" transform="translate(2530.037109 0)"/>
    <use xlink:href="#DejaVuSans-31" transform="translate(2593.660156 0)"/>
    <use xlink:href="#DejaVuSans-37" transform="translate(2657.283203 0)"/>
    <use xlink:href="#DejaVuSans-2e" transform="translate(2720.90625 0)"/>
   </g>
  </g>
  <g id="text_16">
   <!-- Fonte: BCB SGS, IBGE SIDRA/SCN; calculos do projeto.   Obs.: Juro real = Selic anualizada deflacionada pelo IPCA. Consumo real per capita = proxy com indice de volume das contas nacionais dividido pela populacao. -->
   <g style="fill: #6f6e69" transform="translate(14.4 404.522672) scale(0.087 -0.087)">
    <defs>
     <path id="DejaVuSans-46" d="M 628 4666 
L 3309 4666 
L 3309 4134 
L 1259 4134 
L 1259 2759 
L 3109 2759 
L 3109 2228 
L 1259 2228 
L 1259 0 
L 628 0 
L 628 4666 
z
" transform="scale(0.015625)"/>
     <path id="DejaVuSans-3a" d="M 750 794 
L 1409 794 
L 1409 0 
L 750 0 
L 750 794 
z
M 750 3309 
L 1409 3309 
L 1409 2516 
L 750 2516 
L 750 3309 
z
" transform="scale(0.015625)"/>
     <path id="DejaVuSans-42" d="M 1259 2228 
L 1259 519 
L 2272 519 
Q 2781 519 3026 730 
Q 3272 941 3272 1375 
Q 3272 1813 3026 2020 
Q 2781 2228 2272 2228 
L 1259 2228 
z
M 1259 4147 
L 1259 2741 
L 2194 2741 
Q 2656 2741 2882 2914 
Q 3109 3088 3109 3444 
Q 3109 3797 2882 3972 
Q 2656 4147 2194 4147 
L 1259 4147 
z
M 628 4666 
L 2241 4666 
Q 2963 4666 3353 4366 
Q 3744 4066 3744 3513 
Q 3744 3084 3544 2831 
Q 3344 2578 2956 2516 
Q 3422 2416 3680 2098 
Q 3938 1781 3938 1306 
Q 3938 681 3513 340 
Q 3088 0 2303 0 
L 628 0 
L 628 4666 
z
" transform="scale(0.015625)"/>
     <path id="DejaVuSans-53" d="M 3425 4513 
L 3425 3897 
Q 3066 4069 2747 4153 
Q 2428 4238 2131 4238 
Q 1616 4238 1336 4038 
Q 1056 3838 1056 3469 
Q 1056 3159 1242 3001 
Q 1428 2844 1947 2747 
L 2328 2669 
Q 3034 2534 3370 2195 
Q 3706 1856 3706 1288 
Q 3706 609 3251 259 
Q 2797 -91 1919 -91 
Q 1588 -91 1214 -16 
Q 841 59 441 206 
L 441 856 
Q 825 641 1194 531 
Q 1563 422 1919 422 
Q 2459 422 2753 634 
Q 3047 847 3047 1241 
Q 3047 1584 2836 1778 
Q 2625 1972 2144 2069 
L 1759 2144 
Q 1053 2284 737 2584 
Q 422 2884 422 3419 
Q 422 4038 858 4394 
Q 1294 4750 2059 4750 
Q 2388 4750 2728 4690 
Q 3069 4631 3425 4513 
z
" transform="scale(0.015625)"/>
     <path id="DejaVuSans-47" d="M 3809 666 
L 3809 1919 
L 2778 1919 
L 2778 2438 
L 4434 2438 
L 4434 434 
Q 4069 175 3628 42 
Q 3188 -91 2688 -91 
Q 1594 -91 976 548 
Q 359 1188 359 2328 
Q 359 3472 976 4111 
Q 1594 4750 2688 4750 
Q 3144 4750 3555 4637 
Q 3966 4525 4313 4306 
L 4313 3634 
Q 3963 3931 3569 4081 
Q 3175 4231 2741 4231 
Q 1884 4231 1454 3753 
Q 1025 3275 1025 2328 
Q 1025 1384 1454 906 
Q 1884 428 2741 428 
Q 3075 428 3337 486 
Q 3600 544 3809 666 
z
" transform="scale(0.015625)"/>
     <path id="DejaVuSans-2c" d="M 750 794 
L 1409 794 
L 1409 256 
L 897 -744 
L 494 -744 
L 750 256 
L 750 794 
z
" transform="scale(0.015625)"/>
     <path id="DejaVuSans-49" d="M 628 4666 
L 1259 4666 
L 1259 0 
L 628 0 
L 628 4666 
z
" transform="scale(0.015625)"/>
     <path id="DejaVuSans-45" d="M 628 4666 
L 3578 4666 
L 3578 4134 
L 1259 4134 
L 1259 2753 
L 3481 2753 
L 3481 2222 
L 1259 2222 
L 1259 531 
L 3634 531 
L 3634 0 
L 628 0 
L 628 4666 
z
" transform="scale(0.015625)"/>
     <path id="DejaVuSans-44" d="M 1259 4147 
L 1259 519 
L 2022 519 
Q 2988 519 3436 956 
Q 3884 1394 3884 2338 
Q 3884 3275 3436 3711 
Q 2988 4147 2022 4147 
L 1259 4147 
z
M 628 4666 
L 1925 4666 
Q 3281 4666 3915 4102 
Q 4550 3538 4550 2338 
Q 4550 1131 3912 565 
Q 3275 0 1925 0 
L 628 0 
L 628 4666 
z
" transform="scale(0.015625)"/>
     <path id="DejaVuSans-52" d="M 2841 2188 
Q 3044 2119 3236 1894 
Q 3428 1669 3622 1275 
L 4263 0 
L 3584 0 
L 2988 1197 
Q 2756 1666 2539 1819 
Q 2322 1972 1947 1972 
L 1259 1972 
L 1259 0 
L 628 0 
L 628 4666 
L 2053 4666 
Q 2853 4666 3247 4331 
Q 3641 3997 3641 3322 
Q 3641 2881 3436 2590 
Q 3231 2300 2841 2188 
z
M 1259 4147 
L 1259 2491 
L 2053 2491 
Q 2509 2491 2742 2702 
Q 2975 2913 2975 3322 
Q 2975 3731 2742 3939 
Q 2509 4147 2053 4147 
L 1259 4147 
z
" transform="scale(0.015625)"/>
     <path id="DejaVuSans-2f" d="M 1625 4666 
L 2156 4666 
L 531 -594 
L 0 -594 
L 1625 4666 
z
" transform="scale(0.015625)"/>
     <path id="DejaVuSans-4e" d="M 628 4666 
L 1478 4666 
L 3547 763 
L 3547 4666 
L 4159 4666 
L 4159 0 
L 3309 0 
L 1241 3903 
L 1241 0 
L 628 0 
L 628 4666 
z
" transform="scale(0.015625)"/>
     <path id="DejaVuSans-6a" d="M 603 3500 
L 1178 3500 
L 1178 -63 
Q 1178 -731 923 -1031 
Q 669 -1331 103 -1331 
L -116 -1331 
L -116 -844 
L 38 -844 
Q 366 -844 484 -692 
Q 603 -541 603 -63 
L 603 3500 
z
M 603 4863 
L 1178 4863 
L 1178 4134 
L 603 4134 
L 603 4863 
z
" transform="scale(0.015625)"/>
     <path id="DejaVuSans-4f" d="M 2522 4238 
Q 1834 4238 1429 3725 
Q 1025 3213 1025 2328 
Q 1025 1447 1429 934 
Q 1834 422 2522 422 
Q 3209 422 3611 934 
Q 4013 1447 4013 2328 
Q 4013 3213 3611 3725 
Q 3209 4238 2522 4238 
z
M 2522 4750 
Q 3503 4750 4090 4092 
Q 4678 3434 4678 2328 
Q 4678 1225 4090 567 
Q 3503 -91 2522 -91 
Q 1538 -91 948 565 
Q 359 1222 359 2328 
Q 359 3434 948 4092 
Q 1538 4750 2522 4750 
z
" transform="scale(0.015625)"/>
     <path id="DejaVuSans-62" d="M 3116 1747 
Q 3116 2381 2855 2742 
Q 2594 3103 2138 3103 
Q 1681 3103 1420 2742 
Q 1159 2381 1159 1747 
Q 1159 1113 1420 752 
Q 1681 391 2138 391 
Q 2594 391 2855 752 
Q 3116 1113 3116 1747 
z
M 1159 2969 
Q 1341 3281 1617 3432 
Q 1894 3584 2278 3584 
Q 2916 3584 3314 3078 
Q 3713 2572 3713 1747 
Q 3713 922 3314 415 
Q 2916 -91 2278 -91 
Q 1894 -91 1617 61 
Q 1341 213 1159 525 
L 1159 0 
L 581 0 
L 581 4863 
L 1159 4863 
L 1159 2969 
z
" transform="scale(0.015625)"/>
     <path id="DejaVuSans-7a" d="M 353 3500 
L 3084 3500 
L 3084 2975 
L 922 459 
L 3084 459 
L 3084 0 
L 275 0 
L 275 525 
L 2438 3041 
L 353 3041 
L 353 3500 
z
" transform="scale(0.015625)"/>
     <path id="DejaVuSans-66" d="M 2375 4863 
L 2375 4384 
L 1825 4384 
Q 1516 4384 1395 4259 
Q 1275 4134 1275 3809 
L 1275 3500 
L 2222 3500 
L 2222 3053 
L 1275 3053 
L 1275 0 
L 697 0 
L 697 3053 
L 147 3053 
L 147 3500 
L 697 3500 
L 697 3744 
Q 697 4328 969 4595 
Q 1241 4863 1831 4863 
L 2375 4863 
z
" transform="scale(0.015625)"/>
     <path id="DejaVuSans-50" d="M 1259 4147 
L 1259 2394 
L 2053 2394 
Q 2494 2394 2734 2622 
Q 2975 2850 2975 3272 
Q 2975 3691 2734 3919 
Q 2494 4147 2053 4147 
L 1259 4147 
z
M 628 4666 
L 2053 4666 
Q 2838 4666 3239 4311 
Q 3641 3956 3641 3272 
Q 3641 2581 3239 2228 
Q 2838 1875 2053 1875 
L 1259 1875 
L 1259 0 
L 628 0 
L 628 4666 
z
" transform="scale(0.015625)"/>
     <path id="DejaVuSans-78" d="M 3513 3500 
L 2247 1797 
L 3578 0 
L 2900 0 
L 1881 1375 
L 863 0 
L 184 0 
L 1544 1831 
L 300 3500 
L 978 3500 
L 1906 2253 
L 2834 3500 
L 3513 3500 
z
" transform="scale(0.015625)"/>
     <path id="DejaVuSans-79" d="M 2059 -325 
Q 1816 -950 1584 -1140 
Q 1353 -1331 966 -1331 
L 506 -1331 
L 506 -850 
L 844 -850 
Q 1081 -850 1212 -737 
Q 1344 -625 1503 -206 
L 1606 56 
L 191 3500 
L 800 3500 
L 1894 763 
L 2988 3500 
L 3597 3500 
L 2059 -325 
z
" transform="scale(0.015625)"/>
    </defs>
    <use xlink:href="#DejaVuSans-46"/>
    <use xlink:href="#DejaVuSans-6f" transform="translate(53.894531 0)"/>
    <use xlink:href="#DejaVuSans-6e" transform="translate(115.076172 0)"/>
    <use xlink:href="#DejaVuSans-74" transform="translate(178.455078 0)"/>
    <use xlink:href="#DejaVuSans-65" transform="translate(217.664062 0)"/>
    <use xlink:href="#DejaVuSans-3a" transform="translate(279.1875 0)"/>
    <use xlink:href="#DejaVuSans-20" transform="translate(312.878906 0)"/>
    <use xlink:href="#DejaVuSans-42" transform="translate(344.666016 0)"/>
    <use xlink:href="#DejaVuSans-43" transform="translate(411.519531 0)"/>
    <use xlink:href="#DejaVuSans-42" transform="translate(481.34375 0)"/>
    <use xlink:href="#DejaVuSans-20" transform="translate(549.947266 0)"/>
    <use xlink:href="#DejaVuSans-53" transform="translate(581.734375 0)"/>
    <use xlink:href="#DejaVuSans-47" transform="translate(645.210938 0)"/>
    <use xlink:href="#DejaVuSans-53" transform="translate(722.701172 0)"/>
    <use xlink:href="#DejaVuSans-2c" transform="translate(786.177734 0)"/>
    <use xlink:href="#DejaVuSans-20" transform="translate(817.964844 0)"/>
    <use xlink:href="#DejaVuSans-49" transform="translate(849.751953 0)"/>
    <use xlink:href="#DejaVuSans-42" transform="translate(879.244141 0)"/>
    <use xlink:href="#DejaVuSans-47" transform="translate(946.097656 0)"/>
    <use xlink:href="#DejaVuSans-45" transform="translate(1023.587891 0)"/>
    <use xlink:href="#DejaVuSans-20" transform="translate(1086.771484 0)"/>
    <use xlink:href="#DejaVuSans-53" transform="translate(1118.558594 0)"/>
    <use xlink:href="#DejaVuSans-49" transform="translate(1182.035156 0)"/>
    <use xlink:href="#DejaVuSans-44" transform="translate(1211.527344 0)"/>
    <use xlink:href="#DejaVuSans-52" transform="translate(1288.529297 0)"/>
    <use xlink:href="#DejaVuSans-41" transform="translate(1354.011719 0)"/>
    <use xlink:href="#DejaVuSans-2f" transform="translate(1422.419922 0)"/>
    <use xlink:href="#DejaVuSans-53" transform="translate(1456.111328 0)"/>
    <use xlink:href="#DejaVuSans-43" transform="translate(1519.587891 0)"/>
    <use xlink:href="#DejaVuSans-4e" transform="translate(1589.412109 0)"/>
    <use xlink:href="#DejaVuSans-3b" transform="translate(1664.216797 0)"/>
    <use xlink:href="#DejaVuSans-20" transform="translate(1697.908203 0)"/>
    <use xlink:href="#DejaVuSans-63" transform="translate(1729.695312 0)"/>
    <use xlink:href="#DejaVuSans-61" transform="translate(1784.675781 0)"/>
    <use xlink:href="#DejaVuSans-6c" transform="translate(1845.955078 0)"/>
    <use xlink:href="#DejaVuSans-63" transform="translate(1873.738281 0)"/>
    <use xlink:href="#DejaVuSans-75" transform="translate(1928.71875 0)"/>
    <use xlink:href="#DejaVuSans-6c" transform="translate(1992.097656 0)"/>
    <use xlink:href="#DejaVuSans-6f" transform="translate(2019.880859 0)"/>
    <use xlink:href="#DejaVuSans-73" transform="translate(2081.0625 0)"/>
    <use xlink:href="#DejaVuSans-20" transform="translate(2133.162109 0)"/>
    <use xlink:href="#DejaVuSans-64" transform="translate(2164.949219 0)"/>
    <use xlink:href="#DejaVuSans-6f" transform="translate(2228.425781 0)"/>
    <use xlink:href="#DejaVuSans-20" transform="translate(2289.607422 0)"/>
    <use xlink:href="#DejaVuSans-70" transform="translate(2321.394531 0)"/>
    <use xlink:href="#DejaVuSans-72" transform="translate(2384.871094 0)"/>
    <use xlink:href="#DejaVuSans-6f" transform="translate(2423.734375 0)"/>
    <use xlink:href="#DejaVuSans-6a" transform="translate(2484.916016 0)"/>
    <use xlink:href="#DejaVuSans-65" transform="translate(2512.699219 0)"/>
    <use xlink:href="#DejaVuSans-74" transform="translate(2574.222656 0)"/>
    <use xlink:href="#DejaVuSans-6f" transform="translate(2613.431641 0)"/>
    <use xlink:href="#DejaVuSans-2e" transform="translate(2672.863281 0)"/>
    <use xlink:href="#DejaVuSans-20" transform="translate(2704.650391 0)"/>
    <use xlink:href="#DejaVuSans-20" transform="translate(2736.4375 0)"/>
    <use xlink:href="#DejaVuSans-20" transform="translate(2768.224609 0)"/>
    <use xlink:href="#DejaVuSans-4f" transform="translate(2800.011719 0)"/>
    <use xlink:href="#DejaVuSans-62" transform="translate(2878.722656 0)"/>
    <use xlink:href="#DejaVuSans-73" transform="translate(2942.199219 0)"/>
    <use xlink:href="#DejaVuSans-2e" transform="translate(2994.298828 0)"/>
    <use xlink:href="#DejaVuSans-3a" transform="translate(3026.085938 0)"/>
    <use xlink:href="#DejaVuSans-20" transform="translate(3059.777344 0)"/>
    <use xlink:href="#DejaVuSans-4a" transform="translate(3091.564453 0)"/>
    <use xlink:href="#DejaVuSans-75" transform="translate(3121.056641 0)"/>
    <use xlink:href="#DejaVuSans-72" transform="translate(3184.435547 0)"/>
    <use xlink:href="#DejaVuSans-6f" transform="translate(3223.298828 0)"/>
    <use xlink:href="#DejaVuSans-20" transform="translate(3284.480469 0)"/>
    <use xlink:href="#DejaVuSans-72" transform="translate(3316.267578 0)"/>
    <use xlink:href="#DejaVuSans-65" transform="translate(3355.130859 0)"/>
    <use xlink:href="#DejaVuSans-61" transform="translate(3416.654297 0)"/>
    <use xlink:href="#DejaVuSans-6c" transform="translate(3477.933594 0)"/>
    <use xlink:href="#DejaVuSans-20" transform="translate(3505.716797 0)"/>
    <use xlink:href="#DejaVuSans-3d" transform="translate(3537.503906 0)"/>
    <use xlink:href="#DejaVuSans-20" transform="translate(3621.292969 0)"/>
    <use xlink:href="#DejaVuSans-53" transform="translate(3653.080078 0)"/>
    <use xlink:href="#DejaVuSans-65" transform="translate(3716.556641 0)"/>
    <use xlink:href="#DejaVuSans-6c" transform="translate(3778.080078 0)"/>
    <use xlink:href="#DejaVuSans-69" transform="translate(3805.863281 0)"/>
    <use xlink:href="#DejaVuSans-63" transform="translate(3833.646484 0)"/>
    <use xlink:href="#DejaVuSans-20" transform="translate(3888.626953 0)"/>
    <use xlink:href="#DejaVuSans-61" transform="translate(3920.414062 0)"/>
    <use xlink:href="#DejaVuSans-6e" transform="translate(3981.693359 0)"/>
    <use xlink:href="#DejaVuSans-75" transform="translate(4045.072266 0)"/>
    <use xlink:href="#DejaVuSans-61" transform="translate(4108.451172 0)"/>
    <use xlink:href="#DejaVuSans-6c" transform="translate(4169.730469 0)"/>
    <use xlink:href="#DejaVuSans-69" transform="translate(4197.513672 0)"/>
    <use xlink:href="#DejaVuSans-7a" transform="translate(4225.296875 0)"/>
    <use xlink:href="#DejaVuSans-61" transform="translate(4277.787109 0)"/>
    <use xlink:href="#DejaVuSans-64" transform="translate(4339.066406 0)"/>
    <use xlink:href="#DejaVuSans-61" transform="translate(4402.542969 0)"/>
    <use xlink:href="#DejaVuSans-20" transform="translate(4463.822266 0)"/>
    <use xlink:href="#DejaVuSans-64" transform="translate(4495.609375 0)"/>
    <use xlink:href="#DejaVuSans-65" transform="translate(4559.085938 0)"/>
    <use xlink:href="#DejaVuSans-66" transform="translate(4620.609375 0)"/>
    <use xlink:href="#DejaVuSans-6c" transform="translate(4655.814453 0)"/>
    <use xlink:href="#DejaVuSans-61" transform="translate(4683.597656 0)"/>
    <use xlink:href="#DejaVuSans-63" transform="translate(4744.876953 0)"/>
    <use xlink:href="#DejaVuSans-69" transform="translate(4799.857422 0)"/>
    <use xlink:href="#DejaVuSans-6f" transform="translate(4827.640625 0)"/>
    <use xlink:href="#DejaVuSans-6e" transform="translate(4888.822266 0)"/>
    <use xlink:href="#DejaVuSans-61" transform="translate(4952.201172 0)"/>
    <use xlink:href="#DejaVuSans-64" transform="translate(5013.480469 0)"/>
    <use xlink:href="#DejaVuSans-61" transform="translate(5076.957031 0)"/>
    <use xlink:href="#DejaVuSans-20" transform="translate(5138.236328 0)"/>
    <use xlink:href="#DejaVuSans-70" transform="translate(5170.023438 0)"/>
    <use xlink:href="#DejaVuSans-65" transform="translate(5233.5 0)"/>
    <use xlink:href="#DejaVuSans-6c" transform="translate(5295.023438 0)"/>
    <use xlink:href="#DejaVuSans-6f" transform="translate(5322.806641 0)"/>
    <use xlink:href="#DejaVuSans-20" transform="translate(5383.988281 0)"/>
    <use xlink:href="#DejaVuSans-49" transform="translate(5415.775391 0)"/>
    <use xlink:href="#DejaVuSans-50" transform="translate(5445.267578 0)"/>
    <use xlink:href="#DejaVuSans-43" transform="translate(5505.570312 0)"/>
    <use xlink:href="#DejaVuSans-41" transform="translate(5575.394531 0)"/>
    <use xlink:href="#DejaVuSans-2e" transform="translate(5642.052734 0)"/>
    <use xlink:href="#DejaVuSans-20" transform="translate(5673.839844 0)"/>
    <use xlink:href="#DejaVuSans-43" transform="translate(5705.626953 0)"/>
    <use xlink:href="#DejaVuSans-6f" transform="translate(5775.451172 0)"/>
    <use xlink:href="#DejaVuSans-6e" transform="translate(5836.632812 0)"/>
    <use xlink:href="#DejaVuSans-73" transform="translate(5900.011719 0)"/>
    <use xlink:href="#DejaVuSans-75" transform="translate(5952.111328 0)"/>
    <use xlink:href="#DejaVuSans-6d" transform="translate(6015.490234 0)"/>
    <use xlink:href="#DejaVuSans-6f" transform="translate(6112.902344 0)"/>
    <use xlink:href="#DejaVuSans-20" transform="translate(6174.083984 0)"/>
    <use xlink:href="#DejaVuSans-72" transform="translate(6205.871094 0)"/>
    <use xlink:href="#DejaVuSans-65" transform="translate(6244.734375 0)"/>
    <use xlink:href="#DejaVuSans-61" transform="translate(6306.257812 0)"/>
    <use xlink:href="#DejaVuSans-6c" transform="translate(6367.537109 0)"/>
    <use xlink:href="#DejaVuSans-20" transform="translate(6395.320312 0)"/>
    <use xlink:href="#DejaVuSans-70" transform="translate(6427.107422 0)"/>
    <use xlink:href="#DejaVuSans-65" transform="translate(6490.583984 0)"/>
    <use xlink:href="#DejaVuSans-72" transform="translate(6552.107422 0)"/>
    <use xlink:href="#DejaVuSans-20" transform="translate(6593.220703 0)"/>
    <use xlink:href="#DejaVuSans-63" transform="translate(6625.007812 0)"/>
    <use xlink:href="#DejaVuSans-61" transform="translate(6679.988281 0)"/>
    <use xlink:href="#DejaVuSans-70" transform="translate(6741.267578 0)"/>
    <use xlink:href="#DejaVuSans-69" transform="translate(6804.744141 0)"/>
    <use xlink:href="#DejaVuSans-74" transform="translate(6832.527344 0)"/>
    <use xlink:href="#DejaVuSans-61" transform="translate(6871.736328 0)"/>
    <use xlink:href="#DejaVuSans-20" transform="translate(6933.015625 0)"/>
    <use xlink:href="#DejaVuSans-3d" transform="translate(6964.802734 0)"/>
    <use xlink:href="#DejaVuSans-20" transform="translate(7048.591797 0)"/>
    <use xlink:href="#DejaVuSans-70" transform="translate(7080.378906 0)"/>
    <use xlink:href="#DejaVuSans-72" transform="translate(7143.855469 0)"/>
    <use xlink:href="#DejaVuSans-6f" transform="translate(7182.71875 0)"/>
    <use xlink:href="#DejaVuSans-78" transform="translate(7240.775391 0)"/>
    <use xlink:href="#DejaVuSans-79" transform="translate(7299.955078 0)"/>
    <use xlink:href="#DejaVuSans-20" transform="translate(7359.134766 0)"/>
    <use xlink:href="#DejaVuSans-63" transform="translate(7390.921875 0)"/>
    <use xlink:href="#DejaVuSans-6f" transform="translate(7445.902344 0)"/>
    <use xlink:href="#DejaVuSans-6d" transform="translate(7507.083984 0)"/>
    <use xlink:href="#DejaVuSans-20" transform="translate(7604.496094 0)"/>
    <use xlink:href="#DejaVuSans-69" transform="translate(7636.283203 0)"/>
    <use xlink:href="#DejaVuSans-6e" transform="translate(7664.066406 0)"/>
    <use xlink:href="#DejaVuSans-64" transform="translate(7727.445312 0)"/>
    <use xlink:href="#DejaVuSans-69" transform="translate(7790.921875 0)"/>
    <use xlink:href="#DejaVuSans-63" transform="translate(7818.705078 0)"/>
    <use xlink:href="#DejaVuSans-65" transform="translate(7873.685547 0)"/>
    <use xlink:href="#DejaVuSans-20" transform="translate(7935.208984 0)"/>
    <use xlink:href="#DejaVuSans-64" transform="translate(7966.996094 0)"/>
    <use xlink:href="#DejaVuSans-65" transform="translate(8030.472656 0)"/>
    <use xlink:href="#DejaVuSans-20" transform="translate(8091.996094 0)"/>
    <use xlink:href="#DejaVuSans-76" transform="translate(8123.783203 0)"/>
    <use xlink:href="#DejaVuSans-6f" transform="translate(8182.962891 0)"/>
    <use xlink:href="#DejaVuSans-6c" transform="translate(8244.144531 0)"/>
    <use xlink:href="#DejaVuSans-75" transform="translate(8271.927734 0)"/>
    <use xlink:href="#DejaVuSans-6d" transform="translate(8335.306641 0)"/>
    <use xlink:href="#DejaVuSans-65" transform="translate(8432.71875 0)"/>
    <use xlink:href="#DejaVuSans-20" transform="translate(8494.242188 0)"/>
    <use xlink:href="#DejaVuSans-64" transform="translate(8526.029297 0)"/>
    <use xlink:href="#DejaVuSans-61" transform="translate(8589.505859 0)"/>
    <use xlink:href="#DejaVuSans-73" transform="translate(8650.785156 0)"/>
    <use xlink:href="#DejaVuSans-20" transform="translate(8702.884766 0)"/>
    <use xlink:href="#DejaVuSans-63" transform="translate(8734.671875 0)"/>
    <use xlink:href="#DejaVuSans-6f" transform="translate(8789.652344 0)"/>
    <use xlink:href="#DejaVuSans-6e" transform="translate(8850.833984 0)"/>
    <use xlink:href="#DejaVuSans-74" transform="translate(8914.212891 0)"/>
    <use xlink:href="#DejaVuSans-61" transform="translate(8953.421875 0)"/>
    <use xlink:href="#DejaVuSans-73" transform="translate(9014.701172 0)"/>
    <use xlink:href="#DejaVuSans-20" transform="translate(9066.800781 0)"/>
    <use xlink:href="#DejaVuSans-6e" transform="translate(9098.587891 0)"/>
    <use xlink:href="#DejaVuSans-61" transform="translate(9161.966797 0)"/>
    <use xlink:href="#DejaVuSans-63" transform="translate(9223.246094 0)"/>
    <use xlink:href="#DejaVuSans-69" transform="translate(9278.226562 0)"/>
    <use xlink:href="#DejaVuSans-6f" transform="translate(9306.009766 0)"/>
    <use xlink:href="#DejaVuSans-6e" transform="translate(9367.191406 0)"/>
    <use xlink:href="#DejaVuSans-61" transform="translate(9430.570312 0)"/>
    <use xlink:href="#DejaVuSans-69" transform="translate(9491.849609 0)"/>
    <use xlink:href="#DejaVuSans-73" transform="translate(9519.632812 0)"/>
    <use xlink:href="#DejaVuSans-20" transform="translate(9571.732422 0)"/>
    <use xlink:href="#DejaVuSans-64" transform="translate(9603.519531 0)"/>
    <use xlink:href="#DejaVuSans-69" transform="translate(9666.996094 0)"/>
    <use xlink:href="#DejaVuSans-76" transform="translate(9694.779297 0)"/>
    <use xlink:href="#DejaVuSans-69" transform="translate(9753.958984 0)"/>
    <use xlink:href="#DejaVuSans-64" transform="translate(9781.742188 0)"/>
    <use xlink:href="#DejaVuSans-69" transform="translate(9845.21875 0)"/>
    <use xlink:href="#DejaVuSans-64" transform="translate(9873.001953 0)"/>
    <use xlink:href="#DejaVuSans-6f" transform="translate(9936.478516 0)"/>
    <use xlink:href="#DejaVuSans-20" transform="translate(9997.660156 0)"/>
    <use xlink:href="#DejaVuSans-70" transform="translate(10029.447266 0)"/>
    <use xlink:href="#DejaVuSans-65" transform="translate(10092.923828 0)"/>
    <use xlink:href="#DejaVuSans-6c" transform="translate(10154.447266 0)"/>
    <use xlink:href="#DejaVuSans-61" transform="translate(10182.230469 0)"/>
    <use xlink:href="#DejaVuSans-20" transform="translate(10243.509766 0)"/>
    <use xlink:href="#DejaVuSans-70" transform="translate(10275.296875 0)"/>
    <use xlink:href="#DejaVuSans-6f" transform="translate(10338.773438 0)"/>
    <use xlink:href="#DejaVuSans-70" transform="translate(10399.955078 0)"/>
    <use xlink:href="#DejaVuSans-75" transform="translate(10463.431641 0)"/>
    <use xlink:href="#DejaVuSans-6c" transform="translate(10526.810547 0)"/>
    <use xlink:href="#DejaVuSans-61" transform="translate(10554.59375 0)"/>
    <use xlink:href="#DejaVuSans-63" transform="translate(10615.873047 0)"/>
    <use xlink:href="#DejaVuSans-61" transform="translate(10670.853516 0)"/>
    <use xlink:href="#DejaVuSans-6f" transform="translate(10732.132812 0)"/>
    <use xlink:href="#DejaVuSans-2e" transform="translate(10791.564453 0)"/>
   </g>
  </g>
 </g>
 <defs>
  <clipPath id="p193af9e65c">
   <rect x="62.386" y="90.982286" width="564.77" height="235.634857"/>
  </clipPath>
 </defs>
</svg>
