<?xml version="1.0" encoding="utf-8" standalone="no"?>
<!DOCTYPE svg PUBLIC "-//W3C//DTD SVG 1.1//EN"
  "http://www.w3.org/Graphics/SVG/1.1/DTD/svg11.dtd">
<svg xmlns:xlink="http://www.w3.org/1999/xlink" width="797.58pt" height="441.36pt" viewBox="0 0 797.58 441.36" xmlns="http://www.w3.org/2000/svg" version="1.1">
 <metadata>
  <rdf:RDF xmlns:dc="http://purl.org/dc/elements/1.1/" xmlns:cc="http://creativecommons.org/ns#" xmlns:rdf="http://www.w3.org/1999/02/22-rdf-syntax-ns#">
   <cc:Work>
    <dc:type rdf:resource="http://purl.org/dc/dcmitype/StillImage"/>
    <dc:date>2026-06-10T15:29:03.133646</dc:date>
    <dc:format>image/svg+xml</dc:format>
    <dc:creator>
     <cc:Agent>
      <dc:title>Matplotlib v3.10.9, https://matplotlib.org/</dc:title>
     </cc:Agent>
    </dc:creator>
   </cc:Work>
  </rdf:RDF>
 </metadata>
 <defs>
  <style type="text/css">*{stroke-linejoin: round; stroke-linecap: butt}</style>
 </defs>
 <g id="figure_1">
  <g id="patch_1">
   <path d="M 0 441.36 
L 797.58 441.36 
L 797.58 0 
L 0 0 
z
" style="fill: #fffcf0"/>
  </g>
  <g id="axes_1">
   <g id="patch_2">
    <path d="M 64.15 345.517143 
L 783.18 345.517143 
L 783.18 98.125714 
L 64.15 98.125714 
z
" style="fill: #fffcf0"/>
   </g>
   <g id="matplotlib.axis_1">
    <g id="xtick_1">
     <g id="line2d_1"/>
     <g id="text_1">
      <!-- 0 -->
      <g style="fill: #6f6e69" transform="translate(74.637187 359.495502) scale(0.105 -0.105)">
       <defs>
        <path id="DejaVuSans-30" d="M 2034 4250 
Q 1547 4250 1301 3770 
Q 1056 3291 1056 2328 
Q 1056 1369 1301 889 
Q 1547 409 2034 409 
Q 2525 409 2770 889 
Q 3016 1369 3016 2328 
Q 3016 3291 2770 3770 
Q 2525 4250 2034 4250 
z
M 2034 4750 
Q 2819 4750 3233 4129 
Q 3647 3509 3647 2328 
Q 3647 1150 3233 529 
Q 2819 -91 2034 -91 
Q 1250 -91 836 529 
Q 422 1150 422 2328 
Q 422 3509 836 4129 
Q 1250 4750 2034 4750 
z
" transform="scale(0.015625)"/>
       </defs>
       <use xlink:href="#DejaVuSans-30"/>
      </g>
     </g>
    </g>
    <g id="xtick_2">
     <g id="line2d_2"/>
     <g id="text_2">
      <!-- 20 -->
      <g style="fill: #6f6e69" transform="translate(209.571875 359.495502) scale(0.105 -0.105)">
       <defs>
        <path id="DejaVuSans-32" d="M 1228 531 
L 3431 531 
L 3431 0 
L 469 0 
L 469 531 
Q 828 903 1448 1529 
Q 2069 2156 2228 2338 
Q 2531 2678 2651 2914 
Q 2772 3150 2772 3378 
Q 2772 3750 2511 3984 
Q 2250 4219 1831 4219 
Q 1534 4219 1204 4116 
Q 875 4013 500 3803 
L 500 4441 
Q 881 4594 1212 4672 
Q 1544 4750 1819 4750 
Q 2544 4750 2975 4387 
Q 3406 4025 3406 3419 
Q 3406 3131 3298 2873 
Q 3191 2616 2906 2266 
Q 2828 2175 2409 1742 
Q 1991 1309 1228 531 
z
" transform="scale(0.015625)"/>
       </defs>
       <use xlink:href="#DejaVuSans-32"/>
       <use xlink:href="#DejaVuSans-30" transform="translate(63.623047 0)"/>
      </g>
     </g>
    </g>
    <g id="xtick_3">
     <g id="line2d_3"/>
     <g id="text_3">
      <!-- 40 -->
      <g style="fill: #6f6e69" transform="translate(347.846875 359.495502) scale(0.105 -0.105)">
       <defs>
        <path id="DejaVuSans-34" d="M 2419 4116 
L 825 1625 
L 2419 1625 
L 2419 4116 
z
M 2253 4666 
L 3047 4666 
L 3047 1625 
L 3713 1625 
L 3713 1100 
L 3047 1100 
L 3047 0 
L 2419 0 
L 2419 1100 
L 313 1100 
L 313 1709 
L 2253 4666 
z
" transform="scale(0.015625)"/>
       </defs>
       <use xlink:href="#DejaVuSans-34"/>
       <use xlink:href="#DejaVuSans-30" transform="translate(63.623047 0)"/>
      </g>
     </g>
    </g>
    <g id="xtick_4">
     <g id="line2d_4"/>
     <g id="text_4">
      <!-- 60 -->
      <g style="fill: #6f6e69" transform="translate(486.121875 359.495502) scale(0.105 -0.105)">
       <defs>
        <path id="DejaVuSans-36" d="M 2113 2584 
Q 1688 2584 1439 2293 
Q 1191 2003 1191 1497 
Q 1191 994 1439 701 
Q 1688 409 2113 409 
Q 2538 409 2786 701 
Q 3034 994 3034 1497 
Q 3034 2003 2786 2293 
Q 2538 2584 2113 2584 
z
M 3366 4563 
L 3366 3988 
Q 3128 4100 2886 4159 
Q 2644 4219 2406 4219 
Q 1781 4219 1451 3797 
Q 1122 3375 1075 2522 
Q 1259 2794 1537 2939 
Q 1816 3084 2150 3084 
Q 2853 3084 3261 2657 
Q 3669 2231 3669 1497 
Q 3669 778 3244 343 
Q 2819 -91 2113 -91 
Q 1303 -91 875 529 
Q 447 1150 447 2328 
Q 447 3434 972 4092 
Q 1497 4750 2381 4750 
Q 2619 4750 2861 4703 
Q 3103 4656 3366 4563 
z
" transform="scale(0.015625)"/>
       </defs>
       <use xlink:href="#DejaVuSans-36"/>
       <use xlink:href="#DejaVuSans-30" transform="translate(63.623047 0)"/>
      </g>
     </g>
    </g>
    <g id="xtick_5">
     <g id="line2d_5"/>
     <g id="text_5">
      <!-- 80 -->
      <g style="fill: #6f6e69" transform="translate(624.396875 359.495502) scale(0.105 -0.105)">
       <defs>
        <path id="DejaVuSans-38" d="M 2034 2216 
Q 1584 2216 1326 1975 
Q 1069 1734 1069 1313 
Q 1069 891 1326 650 
Q 1584 409 2034 409 
Q 2484 409 2743 651 
Q 3003 894 3003 1313 
Q 3003 1734 2745 1975 
Q 2488 2216 2034 2216 
z
M 1403 2484 
Q 997 2584 770 2862 
Q 544 3141 544 3541 
Q 544 4100 942 4425 
Q 1341 4750 2034 4750 
Q 2731 4750 3128 4425 
Q 3525 4100 3525 3541 
Q 3525 3141 3298 2862 
Q 3072 2584 2669 2484 
Q 3125 2378 3379 2068 
Q 3634 1759 3634 1313 
Q 3634 634 3220 271 
Q 2806 -91 2034 -91 
Q 1263 -91 848 271 
Q 434 634 434 1313 
Q 434 1759 690 2068 
Q 947 2378 1403 2484 
z
M 1172 3481 
Q 1172 3119 1398 2916 
Q 1625 2713 2034 2713 
Q 2441 2713 2670 2916 
Q 2900 3119 2900 3481 
Q 2900 3844 2670 4047 
Q 2441 4250 2034 4250 
Q 1625 4250 1398 4047 
Q 1172 3844 1172 3481 
z
" transform="scale(0.015625)"/>
       </defs>
       <use xlink:href="#DejaVuSans-38"/>
       <use xlink:href="#DejaVuSans-30" transform="translate(63.623047 0)"/>
      </g>
     </g>
    </g>
    <g id="xtick_6">
     <g id="line2d_6"/>
     <g id="text_6">
      <!-- 100 -->
      <g style="fill: #6f6e69" transform="translate(759.331563 359.495502) scale(0.105 -0.105)">
       <defs>
        <path id="DejaVuSans-31" d="M 794 531 
L 1825 531 
L 1825 4091 
L 703 3866 
L 703 4441 
L 1819 4666 
L 2450 4666 
L 2450 531 
L 3481 531 
L 3481 0 
L 794 0 
L 794 531 
z
" transform="scale(0.015625)"/>
       </defs>
       <use xlink:href="#DejaVuSans-31"/>
       <use xlink:href="#DejaVuSans-30" transform="translate(63.623047 0)"/>
       <use xlink:href="#DejaVuSans-30" transform="translate(127.246094 0)"/>
      </g>
     </g>
    </g>
    <g id="text_7">
     <!-- Período -->
     <g style="fill: #1c1b1a" transform="translate(404.084961 379.657533) scale(0.105 -0.105)">
      <defs>
       <path id="DejaVuSans-50" d="M 1259 4147 
L 1259 2394 
L 2053 2394 
Q 2494 2394 2734 2622 
Q 2975 2850 2975 3272 
Q 2975 3691 2734 3919 
Q 2494 4147 2053 4147 
L 1259 4147 
z
M 628 4666 
L 2053 4666 
Q 2838 4666 3239 4311 
Q 3641 3956 3641 3272 
Q 3641 2581 3239 2228 
Q 2838 1875 2053 1875 
L 1259 1875 
L 1259 0 
L 628 0 
L 628 4666 
z
" transform="scale(0.015625)"/>
       <path id="DejaVuSans-65" d="M 3597 1894 
L 3597 1613 
L 953 1613 
Q 991 1019 1311 708 
Q 1631 397 2203 397 
Q 2534 397 2845 478 
Q 3156 559 3463 722 
L 3463 178 
Q 3153 47 2828 -22 
Q 2503 -91 2169 -91 
Q 1331 -91 842 396 
Q 353 884 353 1716 
Q 353 2575 817 3079 
Q 1281 3584 2069 3584 
Q 2775 3584 3186 3129 
Q 3597 2675 3597 1894 
z
M 3022 2063 
Q 3016 2534 2758 2815 
Q 2500 3097 2075 3097 
Q 1594 3097 1305 2825 
Q 1016 2553 972 2059 
L 3022 2063 
z
" transform="scale(0.015625)"/>
       <path id="DejaVuSans-72" d="M 2631 2963 
Q 2534 3019 2420 3045 
Q 2306 3072 2169 3072 
Q 1681 3072 1420 2755 
Q 1159 2438 1159 1844 
L 1159 0 
L 581 0 
L 581 3500 
L 1159 3500 
L 1159 2956 
Q 1341 3275 1631 3429 
Q 1922 3584 2338 3584 
Q 2397 3584 2469 3576 
Q 2541 3569 2628 3553 
L 2631 2963 
z
" transform="scale(0.015625)"/>
       <path id="DejaVuSans-ed" d="M 1322 5119 
L 1944 5119 
L 926 3944 
L 447 3944 
L 1322 5119 
z
M 603 3500 
L 1178 3500 
L 1178 0 
L 603 0 
L 603 3500 
z
M 891 3584 
L 891 3584 
z
" transform="scale(0.015625)"/>
       <path id="DejaVuSans-6f" d="M 1959 3097 
Q 1497 3097 1228 2736 
Q 959 2375 959 1747 
Q 959 1119 1226 758 
Q 1494 397 1959 397 
Q 2419 397 2687 759 
Q 2956 1122 2956 1747 
Q 2956 2369 2687 2733 
Q 2419 3097 1959 3097 
z
M 1959 3584 
Q 2709 3584 3137 3096 
Q 3566 2609 3566 1747 
Q 3566 888 3137 398 
Q 2709 -91 1959 -91 
Q 1206 -91 779 398 
Q 353 888 353 1747 
Q 353 2609 779 3096 
Q 1206 3584 1959 3584 
z
" transform="scale(0.015625)"/>
       <path id="DejaVuSans-64" d="M 2906 2969 
L 2906 4863 
L 3481 4863 
L 3481 0 
L 2906 0 
L 2906 525 
Q 2725 213 2448 61 
Q 2172 -91 1784 -91 
Q 1150 -91 751 415 
Q 353 922 353 1747 
Q 353 2572 751 3078 
Q 1150 3584 1784 3584 
Q 2172 3584 2448 3432 
Q 2725 3281 2906 2969 
z
M 947 1747 
Q 947 1113 1208 752 
Q 1469 391 1925 391 
Q 2381 391 2643 752 
Q 2906 1113 2906 1747 
Q 2906 2381 2643 2742 
Q 2381 3103 1925 3103 
Q 1469 3103 1208 2742 
Q 947 2381 947 1747 
z
" transform="scale(0.015625)"/>
      </defs>
      <use xlink:href="#DejaVuSans-50"/>
      <use xlink:href="#DejaVuSans-65" transform="translate(56.677734 0)"/>
      <use xlink:href="#DejaVuSans-72" transform="translate(118.201172 0)"/>
      <use xlink:href="#DejaVuSans-ed" transform="translate(159.314453 0)"/>
      <use xlink:href="#DejaVuSans-6f" transform="translate(187.097656 0)"/>
      <use xlink:href="#DejaVuSans-64" transform="translate(248.279297 0)"/>
      <use xlink:href="#DejaVuSans-6f" transform="translate(311.755859 0)"/>
     </g>
    </g>
   </g>
   <g id="matplotlib.axis_2">
    <g id="ytick_1">
     <g id="line2d_7">
      <path d="M 64.15 318.316172 
L 783.18 318.316172 
" clip-path="url(#p1d3db53805)" style="fill: none; stroke: #cecdc3; stroke-opacity: 0.9; stroke-width: 0.9; stroke-linecap: square"/>
     </g>
     <g id="line2d_8"/>
     <g id="text_8">
      <!-- 0 -->
      <g style="fill: #6f6e69" transform="translate(51.469375 322.305352) scale(0.105 -0.105)">
       <use xlink:href="#DejaVuSans-30"/>
      </g>
     </g>
    </g>
    <g id="ytick_2">
     <g id="line2d_9">
      <path d="M 64.15 285.084764 
L 783.18 285.084764 
" clip-path="url(#p1d3db53805)" style="fill: none; stroke: #cecdc3; stroke-opacity: 0.9; stroke-width: 0.9; stroke-linecap: square"/>
     </g>
     <g id="line2d_10"/>
     <g id="text_9">
      <!-- 0,25 -->
      <g style="fill: #6f6e69" transform="translate(34.771094 289.073943) scale(0.105 -0.105)">
       <defs>
        <path id="DejaVuSans-2c" d="M 750 794 
L 1409 794 
L 1409 256 
L 897 -744 
L 494 -744 
L 750 256 
L 750 794 
z
" transform="scale(0.015625)"/>
        <path id="DejaVuSans-35" d="M 691 4666 
L 3169 4666 
L 3169 4134 
L 1269 4134 
L 1269 2991 
Q 1406 3038 1543 3061 
Q 1681 3084 1819 3084 
Q 2600 3084 3056 2656 
Q 3513 2228 3513 1497 
Q 3513 744 3044 326 
Q 2575 -91 1722 -91 
Q 1428 -91 1123 -41 
Q 819 9 494 109 
L 494 744 
Q 775 591 1075 516 
Q 1375 441 1709 441 
Q 2250 441 2565 725 
Q 2881 1009 2881 1497 
Q 2881 1984 2565 2268 
Q 2250 2553 1709 2553 
Q 1456 2553 1204 2497 
Q 953 2441 691 2322 
L 691 4666 
z
" transform="scale(0.015625)"/>
       </defs>
       <use xlink:href="#DejaVuSans-30"/>
       <use xlink:href="#DejaVuSans-2c" transform="translate(63.623047 0)"/>
       <use xlink:href="#DejaVuSans-32" transform="translate(95.410156 0)"/>
       <use xlink:href="#DejaVuSans-35" transform="translate(159.033203 0)"/>
      </g>
     </g>
    </g>
    <g id="ytick_3">
     <g id="line2d_11">
      <path d="M 64.15 251.853355 
L 783.18 251.853355 
" clip-path="url(#p1d3db53805)" style="fill: none; stroke: #cecdc3; stroke-opacity: 0.9; stroke-width: 0.9; stroke-linecap: square"/>
     </g>
     <g id="line2d_12"/>
     <g id="text_10">
      <!-- 0,5 -->
      <g style="fill: #6f6e69" transform="translate(41.451719 255.842535) scale(0.105 -0.105)">
       <use xlink:href="#DejaVuSans-30"/>
       <use xlink:href="#DejaVuSans-2c" transform="translate(63.623047 0)"/>
       <use xlink:href="#DejaVuSans-35" transform="translate(95.410156 0)"/>
      </g>
     </g>
    </g>
    <g id="ytick_4">
     <g id="line2d_13">
      <path d="M 64.15 218.621946 
L 783.18 218.621946 
" clip-path="url(#p1d3db53805)" style="fill: none; stroke: #cecdc3; stroke-opacity: 0.9; stroke-width: 0.9; stroke-linecap: square"/>
     </g>
     <g id="line2d_14"/>
     <g id="text_11">
      <!-- 0,75 -->
      <g style="fill: #6f6e69" transform="translate(34.771094 222.611126) scale(0.105 -0.105)">
       <defs>
        <path id="DejaVuSans-37" d="M 525 4666 
L 3525 4666 
L 3525 4397 
L 1831 0 
L 1172 0 
L 2766 4134 
L 525 4134 
L 525 4666 
z
" transform="scale(0.015625)"/>
       </defs>
       <use xlink:href="#DejaVuSans-30"/>
       <use xlink:href="#DejaVuSans-2c" transform="translate(63.623047 0)"/>
       <use xlink:href="#DejaVuSans-37" transform="translate(95.410156 0)"/>
       <use xlink:href="#DejaVuSans-35" transform="translate(159.033203 0)"/>
      </g>
     </g>
    </g>
    <g id="ytick_5">
     <g id="line2d_15">
      <path d="M 64.15 185.390538 
L 783.18 185.390538 
" clip-path="url(#p1d3db53805)" style="fill: none; stroke: #cecdc3; stroke-opacity: 0.9; stroke-width: 0.9; stroke-linecap: square"/>
     </g>
     <g id="line2d_16"/>
     <g id="text_12">
      <!-- 1 -->
      <g style="fill: #6f6e69" transform="translate(51.469375 189.379718) scale(0.105 -0.105)">
       <use xlink:href="#DejaVuSans-31"/>
      </g>
     </g>
    </g>
    <g id="ytick_6">
     <g id="line2d_17">
      <path d="M 64.15 152.159129 
L 783.18 152.159129 
" clip-path="url(#p1d3db53805)" style="fill: none; stroke: #cecdc3; stroke-opacity: 0.9; stroke-width: 0.9; stroke-linecap: square"/>
     </g>
     <g id="line2d_18"/>
     <g id="text_13">
      <!-- 1,25 -->
      <g style="fill: #6f6e69" transform="translate(34.771094 156.148309) scale(0.105 -0.105)">
       <use xlink:href="#DejaVuSans-31"/>
       <use xlink:href="#DejaVuSans-2c" transform="translate(63.623047 0)"/>
       <use xlink:href="#DejaVuSans-32" transform="translate(95.410156 0)"/>
       <use xlink:href="#DejaVuSans-35" transform="translate(159.033203 0)"/>
      </g>
     </g>
    </g>
    <g id="ytick_7">
     <g id="line2d_19">
      <path d="M 64.15 118.927721 
L 783.18 118.927721 
" clip-path="url(#p1d3db53805)" style="fill: none; stroke: #cecdc3; stroke-opacity: 0.9; stroke-width: 0.9; stroke-linecap: square"/>
     </g>
     <g id="line2d_20"/>
     <g id="text_14">
      <!-- 1,5 -->
      <g style="fill: #6f6e69" transform="translate(41.451719 122.916901) scale(0.105 -0.105)">
       <use xlink:href="#DejaVuSans-31"/>
       <use xlink:href="#DejaVuSans-2c" transform="translate(63.623047 0)"/>
       <use xlink:href="#DejaVuSans-35" transform="translate(95.410156 0)"/>
      </g>
     </g>
    </g>
    <g id="text_15">
     <!-- Consumo $c_t$ -->
     <g style="fill: #1c1b1a" transform="translate(22.587422 252.586429) rotate(-90) scale(0.105 -0.105)">
      <defs>
       <path id="DejaVuSans-43" d="M 4122 4306 
L 4122 3641 
Q 3803 3938 3442 4084 
Q 3081 4231 2675 4231 
Q 1875 4231 1450 3742 
Q 1025 3253 1025 2328 
Q 1025 1406 1450 917 
Q 1875 428 2675 428 
Q 3081 428 3442 575 
Q 3803 722 4122 1019 
L 4122 359 
Q 3791 134 3420 21 
Q 3050 -91 2638 -91 
Q 1578 -91 968 557 
Q 359 1206 359 2328 
Q 359 3453 968 4101 
Q 1578 4750 2638 4750 
Q 3056 4750 3426 4639 
Q 3797 4528 4122 4306 
z
" transform="scale(0.015625)"/>
       <path id="DejaVuSans-6e" d="M 3513 2113 
L 3513 0 
L 2938 0 
L 2938 2094 
Q 2938 2591 2744 2837 
Q 2550 3084 2163 3084 
Q 1697 3084 1428 2787 
Q 1159 2491 1159 1978 
L 1159 0 
L 581 0 
L 581 3500 
L 1159 3500 
L 1159 2956 
Q 1366 3272 1645 3428 
Q 1925 3584 2291 3584 
Q 2894 3584 3203 3211 
Q 3513 2838 3513 2113 
z
" transform="scale(0.015625)"/>
       <path id="DejaVuSans-73" d="M 2834 3397 
L 2834 2853 
Q 2591 2978 2328 3040 
Q 2066 3103 1784 3103 
Q 1356 3103 1142 2972 
Q 928 2841 928 2578 
Q 928 2378 1081 2264 
Q 1234 2150 1697 2047 
L 1894 2003 
Q 2506 1872 2764 1633 
Q 3022 1394 3022 966 
Q 3022 478 2636 193 
Q 2250 -91 1575 -91 
Q 1294 -91 989 -36 
Q 684 19 347 128 
L 347 722 
Q 666 556 975 473 
Q 1284 391 1588 391 
Q 1994 391 2212 530 
Q 2431 669 2431 922 
Q 2431 1156 2273 1281 
Q 2116 1406 1581 1522 
L 1381 1569 
Q 847 1681 609 1914 
Q 372 2147 372 2553 
Q 372 3047 722 3315 
Q 1072 3584 1716 3584 
Q 2034 3584 2315 3537 
Q 2597 3491 2834 3397 
z
" transform="scale(0.015625)"/>
       <path id="DejaVuSans-75" d="M 544 1381 
L 544 3500 
L 1119 3500 
L 1119 1403 
Q 1119 906 1312 657 
Q 1506 409 1894 409 
Q 2359 409 2629 706 
Q 2900 1003 2900 1516 
L 2900 3500 
L 3475 3500 
L 3475 0 
L 2900 0 
L 2900 538 
Q 2691 219 2414 64 
Q 2138 -91 1772 -91 
Q 1169 -91 856 284 
Q 544 659 544 1381 
z
M 1991 3584 
L 1991 3584 
z
" transform="scale(0.015625)"/>
       <path id="DejaVuSans-6d" d="M 3328 2828 
Q 3544 3216 3844 3400 
Q 4144 3584 4550 3584 
Q 5097 3584 5394 3201 
Q 5691 2819 5691 2113 
L 5691 0 
L 5113 0 
L 5113 2094 
Q 5113 2597 4934 2840 
Q 4756 3084 4391 3084 
Q 3944 3084 3684 2787 
Q 3425 2491 3425 1978 
L 3425 0 
L 2847 0 
L 2847 2094 
Q 2847 2600 2669 2842 
Q 2491 3084 2119 3084 
Q 1678 3084 1418 2786 
Q 1159 2488 1159 1978 
L 1159 0 
L 581 0 
L 581 3500 
L 1159 3500 
L 1159 2956 
Q 1356 3278 1631 3431 
Q 1906 3584 2284 3584 
Q 2666 3584 2933 3390 
Q 3200 3197 3328 2828 
z
" transform="scale(0.015625)"/>
       <path id="DejaVuSans-20" transform="scale(0.015625)"/>
       <path id="DejaVuSans-Oblique-63" d="M 3431 3366 
L 3316 2797 
Q 3109 2947 2876 3022 
Q 2644 3097 2394 3097 
Q 2119 3097 1870 3000 
Q 1622 2903 1453 2725 
Q 1184 2453 1037 2087 
Q 891 1722 891 1331 
Q 891 859 1127 628 
Q 1363 397 1844 397 
Q 2081 397 2348 469 
Q 2616 541 2906 684 
L 2797 116 
Q 2547 13 2283 -39 
Q 2019 -91 1741 -91 
Q 1044 -91 669 257 
Q 294 606 294 1253 
Q 294 1797 489 2255 
Q 684 2713 1069 3078 
Q 1331 3328 1684 3456 
Q 2038 3584 2456 3584 
Q 2700 3584 2940 3529 
Q 3181 3475 3431 3366 
z
" transform="scale(0.015625)"/>
       <path id="DejaVuSans-Oblique-74" d="M 2706 3500 
L 2619 3053 
L 1472 3053 
L 1100 1153 
Q 1081 1047 1072 975 
Q 1063 903 1063 863 
Q 1063 663 1183 572 
Q 1303 481 1569 481 
L 2150 481 
L 2053 0 
L 1503 0 
Q 991 0 739 200 
Q 488 400 488 806 
Q 488 878 497 964 
Q 506 1050 525 1153 
L 897 3053 
L 409 3053 
L 500 3500 
L 978 3500 
L 1172 4494 
L 1747 4494 
L 1556 3500 
L 2706 3500 
z
" transform="scale(0.015625)"/>
      </defs>
      <use xlink:href="#DejaVuSans-43" transform="translate(0 0.78125)"/>
      <use xlink:href="#DejaVuSans-6f" transform="translate(69.824219 0.78125)"/>
      <use xlink:href="#DejaVuSans-6e" transform="translate(131.005859 0.78125)"/>
      <use xlink:href="#DejaVuSans-73" transform="translate(194.384766 0.78125)"/>
      <use xlink:href="#DejaVuSans-75" transform="translate(246.484375 0.78125)"/>
      <use xlink:href="#DejaVuSans-6d" transform="translate(309.863281 0.78125)"/>
      <use xlink:href="#DejaVuSans-6f" transform="translate(407.275391 0.78125)"/>
      <use xlink:href="#DejaVuSans-20" transform="translate(468.457031 0.78125)"/>
      <use xlink:href="#DejaVuSans-Oblique-63" transform="translate(500.244141 0.78125)"/>
      <use xlink:href="#DejaVuSans-Oblique-74" transform="translate(555.224609 -15.625) scale(0.7)"/>
     </g>
    </g>
   </g>
   <g id="line2d_21">
    <path d="M 77.9775 185.390538 
L 84.89125 184.554899 
L 91.805 185.432906 
L 98.71875 181.176476 
L 105.6325 180.479281 
L 112.54625 184.03949 
L 119.46 181.636228 
L 126.37375 172.969476 
L 133.2875 166.674909 
L 140.20125 171.352132 
L 147.115 179.762479 
L 154.02875 183.904937 
L 160.9425 183.630273 
L 167.85625 199.083082 
L 174.77 200.537233 
L 181.68375 208.817908 
L 188.5975 213.684764 
L 195.51125 217.302062 
L 202.425 219.404282 
L 209.33875 216.668469 
L 216.2525 209.739632 
L 223.16625 210.59391 
L 230.08 201.512008 
L 236.99375 205.93308 
L 243.9075 203.596845 
L 250.82125 197.592127 
L 257.735 196.967295 
L 264.64875 201.908801 
L 271.5625 208.034847 
L 278.47625 211.077022 
L 285.39 209.613543 
L 292.30375 216.32375 
L 299.2175 217.71399 
L 306.13125 218.772244 
L 313.045 215.177632 
L 319.95875 213.750947 
L 326.8725 211.38904 
L 333.78625 215.734569 
L 340.7 216.596018 
L 347.61375 211.385496 
L 354.5275 201.459732 
L 361.44125 209.827836 
L 368.355 199.765872 
L 375.26875 190.820805 
L 382.1825 185.627989 
L 389.09625 183.870342 
L 396.01 185.956762 
L 402.92375 176.266346 
L 409.8375 163.237917 
L 416.75125 151.263744 
L 423.665 142.523194 
L 430.57875 140.147943 
L 437.4925 148.178769 
L 444.40625 148.208372 
L 451.32 143.845255 
L 458.23375 152.408068 
L 465.1475 149.781976 
L 472.06125 146.92498 
L 478.975 142.298884 
L 485.88875 150.168866 
L 492.8025 154.566728 
L 499.71625 157.467399 
L 506.63 165.242232 
L 513.54375 153.681903 
L 520.4575 156.977866 
L 527.37125 154.791441 
L 534.285 156.509987 
L 541.19875 145.98578 
L 548.1125 137.210289 
L 555.02625 133.000849 
L 561.94 147.645997 
L 568.85375 147.300197 
L 575.7675 142.756226 
L 582.68125 136.083615 
L 589.595 140.190399 
L 596.50875 128.080798 
L 603.4225 136.856755 
L 610.33625 141.253456 
L 617.25 135.03885 
L 624.16375 134.71282 
L 631.0775 121.404355 
L 637.99125 120.151403 
L 644.905 124.359789 
L 651.81875 126.869183 
L 658.7325 134.121247 
L 665.64625 142.613069 
L 672.56 138.423177 
L 679.47375 134.560585 
L 686.3875 125.956583 
L 693.30125 130.971905 
L 700.215 119.745621 
L 707.12875 121.655681 
L 714.0425 111.19172 
L 720.95625 114.068137 
L 727.87 118.956366 
L 734.78375 117.296222 
L 741.6975 110.440894 
L 748.61125 109.370779 
L 755.525 113.262369 
L 762.43875 122.176493 
L 769.3525 131.491391 
" clip-path="url(#p1d3db53805)" style="fill: none; stroke: #3aa99f; stroke-opacity: 0.8; stroke-width: 1.6; stroke-linecap: square"/>
   </g>
   <g id="line2d_22">
    <path d="M 77.9775 185.390538 
L 84.89125 183.093688 
L 91.805 177.632982 
L 98.71875 175.436805 
L 105.6325 184.097955 
L 112.54625 178.080704 
L 119.46 175.113973 
L 126.37375 178.682716 
L 133.2875 174.820441 
L 140.20125 172.39739 
L 147.115 170.442503 
L 154.02875 170.253601 
L 160.9425 166.619992 
L 167.85625 171.514673 
L 174.77 172.597419 
L 181.68375 175.80172 
L 188.5975 171.821619 
L 195.51125 171.557615 
L 202.425 173.501365 
L 209.33875 178.698149 
L 216.2525 180.407521 
L 223.16625 180.353405 
L 230.08 182.18514 
L 236.99375 173.584427 
L 243.9075 166.893454 
L 250.82125 184.912603 
L 257.735 197.467518 
L 264.64875 198.629102 
L 271.5625 201.435099 
L 278.47625 200.015167 
L 285.39 198.570784 
L 292.30375 184.495031 
L 299.2175 191.885835 
L 306.13125 194.395504 
L 313.045 180.818668 
L 319.95875 176.520498 
L 326.8725 172.113592 
L 333.78625 175.529823 
L 340.7 186.483395 
L 347.61375 185.370377 
L 354.5275 184.645839 
L 361.44125 192.803166 
L 368.355 197.344083 
L 375.26875 197.822906 
L 382.1825 204.101991 
L 389.09625 204.755121 
L 396.01 204.120514 
L 402.92375 203.883998 
L 409.8375 207.248955 
L 416.75125 203.302738 
L 423.665 197.379791 
L 430.57875 195.247343 
L 437.4925 200.685532 
L 444.40625 195.822764 
L 451.32 199.155476 
L 458.23375 193.312327 
L 465.1475 200.435728 
L 472.06125 194.357921 
L 478.975 194.491269 
L 485.88875 202.790806 
L 492.8025 204.87707 
L 499.71625 204.517491 
L 506.63 202.704443 
L 513.54375 209.232342 
L 520.4575 216.592255 
L 527.37125 215.26576 
L 534.285 218.36791 
L 541.19875 216.802673 
L 548.1125 211.754692 
L 555.02625 222.712997 
L 561.94 221.022262 
L 568.85375 212.882914 
L 575.7675 214.860361 
L 582.68125 220.249263 
L 589.595 215.249639 
L 596.50875 213.565162 
L 603.4225 207.61087 
L 610.33625 209.905271 
L 617.25 219.753853 
L 624.16375 220.485015 
L 631.0775 223.448115 
L 637.99125 218.295094 
L 644.905 217.008156 
L 651.81875 227.847239 
L 658.7325 235.79063 
L 665.64625 229.916719 
L 672.56 225.398809 
L 679.47375 229.654047 
L 686.3875 229.661018 
L 693.30125 226.69961 
L 700.215 223.586463 
L 707.12875 217.762711 
L 714.0425 216.058035 
L 720.95625 216.688291 
L 727.87 218.408668 
L 734.78375 211.391904 
L 741.6975 226.351715 
L 748.61125 227.273258 
L 755.525 227.05393 
L 762.43875 236.5272 
L 769.3525 234.315227 
" clip-path="url(#p1d3db53805)" style="fill: none; stroke: #da702c; stroke-opacity: 0.8; stroke-width: 1.6; stroke-linecap: square"/>
   </g>
   <g id="line2d_23">
    <path d="M 77.9775 185.390538 
L 84.89125 184.134036 
L 91.805 187.608369 
L 98.71875 190.353706 
L 105.6325 206.580386 
L 112.54625 194.619024 
L 119.46 187.014575 
L 126.37375 189.177427 
L 133.2875 184.03449 
L 140.20125 182.165485 
L 147.115 185.846348 
L 154.02875 179.349159 
L 160.9425 181.413205 
L 167.85625 183.598662 
L 174.77 188.863492 
L 181.68375 185.839712 
L 188.5975 186.499011 
L 195.51125 182.874868 
L 202.425 186.910395 
L 209.33875 186.067462 
L 216.2525 191.997767 
L 223.16625 186.405153 
L 230.08 185.155419 
L 236.99375 182.958351 
L 243.9075 180.230026 
L 250.82125 186.947806 
L 257.735 181.742564 
L 264.64875 168.073138 
L 271.5625 178.962688 
L 278.47625 190.456844 
L 285.39 200.458377 
L 292.30375 194.865805 
L 299.2175 194.010324 
L 306.13125 186.843356 
L 313.045 182.041877 
L 319.95875 180.642358 
L 326.8725 178.75456 
L 333.78625 179.882836 
L 340.7 174.110805 
L 347.61375 181.619216 
L 354.5275 184.423008 
L 361.44125 182.808368 
L 368.355 170.835618 
L 375.26875 175.916462 
L 382.1825 183.088201 
L 389.09625 186.831967 
L 396.01 180.389911 
L 402.92375 181.951823 
L 409.8375 173.14984 
L 416.75125 185.595199 
L 423.665 178.094716 
L 430.57875 171.216703 
L 437.4925 180.645555 
L 444.40625 179.624807 
L 451.32 171.544539 
L 458.23375 170.960204 
L 465.1475 164.315907 
L 472.06125 148.53174 
L 478.975 146.711109 
L 485.88875 148.574609 
L 492.8025 153.699238 
L 499.71625 149.392019 
L 506.63 150.699542 
L 513.54375 151.887541 
L 520.4575 152.587127 
L 527.37125 148.26791 
L 534.285 155.355103 
L 541.19875 165.523094 
L 548.1125 181.699324 
L 555.02625 173.732619 
L 561.94 173.242168 
L 568.85375 163.205489 
L 575.7675 163.265015 
L 582.68125 168.197589 
L 589.595 165.021136 
L 596.50875 165.530165 
L 603.4225 173.865842 
L 610.33625 179.748244 
L 617.25 168.005731 
L 624.16375 165.650617 
L 631.0775 162.883195 
L 637.99125 164.721236 
L 644.905 169.305306 
L 651.81875 163.379111 
L 658.7325 164.074487 
L 665.64625 169.119734 
L 672.56 170.01119 
L 679.47375 176.030102 
L 686.3875 174.767004 
L 693.30125 167.261839 
L 700.215 172.818697 
L 707.12875 163.324191 
L 714.0425 167.761381 
L 720.95625 166.741761 
L 727.87 172.300621 
L 734.78375 173.777659 
L 741.6975 173.462596 
L 748.61125 176.351634 
L 755.525 181.023225 
L 762.43875 185.528648 
L 769.3525 190.986308 
" clip-path="url(#p1d3db53805)" style="fill: none; stroke: #4385be; stroke-opacity: 0.8; stroke-width: 1.6; stroke-linecap: square"/>
   </g>
   <g id="line2d_24">
    <path d="M 77.9775 185.390538 
L 84.89125 171.826015 
L 91.805 188.811684 
L 98.71875 186.032882 
L 105.6325 189.806438 
L 112.54625 192.814873 
L 119.46 194.247793 
L 126.37375 207.673189 
L 133.2875 209.214677 
L 140.20125 214.965127 
L 147.115 192.879536 
L 154.02875 191.378895 
L 160.9425 193.722578 
L 167.85625 195.592094 
L 174.77 200.032118 
L 181.68375 207.044946 
L 188.5975 209.642319 
L 195.51125 206.439174 
L 202.425 208.024669 
L 209.33875 201.659135 
L 216.2525 202.987076 
L 223.16625 202.82584 
L 230.08 192.551879 
L 236.99375 188.928954 
L 243.9075 192.286847 
L 250.82125 193.502046 
L 257.735 189.909564 
L 264.64875 177.048424 
L 271.5625 178.840396 
L 278.47625 180.459156 
L 285.39 173.797497 
L 292.30375 179.68916 
L 299.2175 181.628015 
L 306.13125 175.762412 
L 313.045 171.905242 
L 319.95875 171.296997 
L 326.8725 166.843294 
L 333.78625 185.640058 
L 340.7 178.852165 
L 347.61375 185.230234 
L 354.5275 196.320352 
L 361.44125 194.483015 
L 368.355 189.826997 
L 375.26875 192.783047 
L 382.1825 199.937143 
L 389.09625 199.76351 
L 396.01 200.114084 
L 402.92375 190.772082 
L 409.8375 185.804598 
L 416.75125 184.516445 
L 423.665 177.128217 
L 430.57875 178.494181 
L 437.4925 184.647971 
L 444.40625 180.766155 
L 451.32 176.89444 
L 458.23375 178.322254 
L 465.1475 183.52502 
L 472.06125 182.001999 
L 478.975 198.577123 
L 485.88875 193.990359 
L 492.8025 190.724587 
L 499.71625 201.616893 
L 506.63 201.209121 
L 513.54375 207.616799 
L 520.4575 202.584094 
L 527.37125 216.103743 
L 534.285 222.181731 
L 541.19875 217.465663 
L 548.1125 209.779896 
L 555.02625 224.122607 
L 561.94 227.43272 
L 568.85375 225.252606 
L 575.7675 229.301629 
L 582.68125 218.729785 
L 589.595 226.647014 
L 596.50875 224.290694 
L 603.4225 231.258693 
L 610.33625 221.914267 
L 617.25 222.058167 
L 624.16375 224.532249 
L 631.0775 235.95179 
L 637.99125 224.773904 
L 644.905 219.770726 
L 651.81875 214.762328 
L 658.7325 207.199649 
L 665.64625 204.87859 
L 672.56 209.127203 
L 679.47375 214.445832 
L 686.3875 219.764187 
L 693.30125 210.6583 
L 700.215 220.364405 
L 707.12875 224.328044 
L 714.0425 226.463122 
L 720.95625 224.970241 
L 727.87 221.146307 
L 734.78375 229.448157 
L 741.6975 240.946314 
L 748.61125 240.975652 
L 755.525 232.909965 
L 762.43875 227.878344 
L 769.3525 226.445068 
" clip-path="url(#p1d3db53805)" style="fill: none; stroke: #879a39; stroke-opacity: 0.8; stroke-width: 1.6; stroke-linecap: square"/>
   </g>
   <g id="line2d_25">
    <path d="M 77.9775 185.390538 
L 84.89125 189.722526 
L 91.805 190.883746 
L 98.71875 179.826168 
L 105.6325 175.445286 
L 112.54625 186.354475 
L 119.46 186.389057 
L 126.37375 190.532773 
L 133.2875 189.544926 
L 140.20125 200.233395 
L 147.115 198.626511 
L 154.02875 197.062103 
L 160.9425 186.590048 
L 167.85625 184.485537 
L 174.77 181.0923 
L 181.68375 191.015974 
L 188.5975 176.043701 
L 195.51125 188.775621 
L 202.425 181.452736 
L 209.33875 183.645371 
L 216.2525 189.498396 
L 223.16625 193.860251 
L 230.08 198.32665 
L 236.99375 195.799806 
L 243.9075 196.531287 
L 250.82125 186.677702 
L 257.735 198.837765 
L 264.64875 198.858242 
L 271.5625 204.787096 
L 278.47625 199.630434 
L 285.39 213.707657 
L 292.30375 215.991947 
L 299.2175 214.595078 
L 306.13125 224.459945 
L 313.045 217.911925 
L 319.95875 216.724145 
L 326.8725 210.032292 
L 333.78625 203.657279 
L 340.7 210.169668 
L 347.61375 215.472044 
L 354.5275 216.823449 
L 361.44125 211.852298 
L 368.355 206.196529 
L 375.26875 210.913295 
L 382.1825 214.948898 
L 389.09625 220.251454 
L 396.01 224.134466 
L 402.92375 225.715772 
L 409.8375 226.591852 
L 416.75125 212.913043 
L 423.665 216.278745 
L 430.57875 218.197688 
L 437.4925 215.149851 
L 444.40625 221.48425 
L 451.32 223.93425 
L 458.23375 223.845732 
L 465.1475 218.70054 
L 472.06125 227.447145 
L 478.975 218.331973 
L 485.88875 220.674504 
L 492.8025 219.548514 
L 499.71625 213.918527 
L 506.63 209.526711 
L 513.54375 202.486757 
L 520.4575 201.335636 
L 527.37125 201.465992 
L 534.285 199.362586 
L 541.19875 205.980391 
L 548.1125 197.91056 
L 555.02625 203.063995 
L 561.94 211.439931 
L 568.85375 197.772459 
L 575.7675 198.679311 
L 582.68125 206.516107 
L 589.595 194.2054 
L 596.50875 196.396763 
L 603.4225 189.337909 
L 610.33625 194.850924 
L 617.25 196.504386 
L 624.16375 207.726828 
L 631.0775 220.414177 
L 637.99125 226.903836 
L 644.905 227.422505 
L 651.81875 222.118868 
L 658.7325 205.993523 
L 665.64625 212.851575 
L 672.56 206.145209 
L 679.47375 210.161829 
L 686.3875 211.175582 
L 693.30125 221.019999 
L 700.215 230.849754 
L 707.12875 236.023623 
L 714.0425 243.953372 
L 720.95625 243.976996 
L 727.87 248.646105 
L 734.78375 240.33362 
L 741.6975 239.316607 
L 748.61125 238.218388 
L 755.525 230.658673 
L 762.43875 227.215153 
L 769.3525 227.463279 
" clip-path="url(#p1d3db53805)" style="fill: none; stroke: #d14d41; stroke-opacity: 0.8; stroke-width: 1.6; stroke-linecap: square"/>
   </g>
   <g id="line2d_26">
    <path d="M 77.9775 185.390538 
L 84.89125 190.7204 
L 91.805 199.522463 
L 98.71875 201.173144 
L 105.6325 198.378747 
L 112.54625 190.828262 
L 119.46 190.099122 
L 126.37375 193.772172 
L 133.2875 198.988043 
L 140.20125 194.011668 
L 147.115 183.146439 
L 154.02875 181.333541 
L 160.9425 189.530591 
L 167.85625 195.899491 
L 174.77 185.265314 
L 181.68375 183.9169 
L 188.5975 195.429156 
L 195.51125 195.985424 
L 202.425 203.716552 
L 209.33875 207.898978 
L 216.2525 211.142402 
L 223.16625 215.883284 
L 230.08 212.205374 
L 236.99375 212.624662 
L 243.9075 216.542188 
L 250.82125 213.819619 
L 257.735 208.304167 
L 264.64875 219.224163 
L 271.5625 220.930464 
L 278.47625 227.448787 
L 285.39 228.599626 
L 292.30375 237.169466 
L 299.2175 237.031952 
L 306.13125 237.283751 
L 313.045 239.306465 
L 319.95875 246.27128 
L 326.8725 248.904473 
L 333.78625 256.157752 
L 340.7 265.164851 
L 347.61375 263.670862 
L 354.5275 271.043914 
L 361.44125 263.265797 
L 368.355 258.503153 
L 375.26875 271.781206 
L 382.1825 269.972561 
L 389.09625 277.29488 
L 396.01 277.075172 
L 402.92375 276.785181 
L 409.8375 290.000846 
L 416.75125 291.552238 
L 423.665 293.25229 
L 430.57875 286.858564 
L 437.4925 294.710792 
L 444.40625 289.805558 
L 451.32 297.10964 
L 458.23375 299.311493 
L 465.1475 304.897514 
L 472.06125 295.268838 
L 478.975 291.492334 
L 485.88875 275.330355 
L 492.8025 271.063998 
L 499.71625 265.447938 
L 506.63 259.860523 
L 513.54375 263.892234 
L 520.4575 264.357663 
L 527.37125 255.382598 
L 534.285 258.018186 
L 541.19875 256.763371 
L 548.1125 256.904428 
L 555.02625 252.855404 
L 561.94 255.28069 
L 568.85375 256.29333 
L 575.7675 254.682395 
L 582.68125 253.997674 
L 589.595 259.746526 
L 596.50875 253.7929 
L 603.4225 262.422972 
L 610.33625 270.405924 
L 617.25 278.929726 
L 624.16375 272.502956 
L 631.0775 274.899661 
L 637.99125 281.353442 
L 644.905 288.90376 
L 651.81875 286.104804 
L 658.7325 293.115572 
L 665.64625 301.570162 
L 672.56 297.489391 
L 679.47375 305.443048 
L 686.3875 307.586063 
L 693.30125 307.631002 
L 700.215 310.590826 
L 707.12875 310.95035 
L 714.0425 302.052484 
L 720.95625 305.487908 
L 727.87 313.857618 
L 734.78375 326.065148 
L 741.6975 327.426081 
L 748.61125 329.76728 
L 755.525 328.005412 
L 762.43875 331.090912 
L 769.3525 334.272078 
" clip-path="url(#p1d3db53805)" style="fill: none; stroke: #bc5215; stroke-opacity: 0.8; stroke-width: 1.6; stroke-linecap: square"/>
   </g>
   <g id="line2d_27">
    <path d="M 64.15 185.390538 
L 783.18 185.390538 
" clip-path="url(#p1d3db53805)" style="fill: none; stroke-dasharray: 4.44,1.92; stroke-dashoffset: 0; stroke: #6f6e69; stroke-opacity: 0.75; stroke-width: 1.2"/>
   </g>
   <g id="patch_3">
    <path d="M 64.15 345.517143 
L 64.15 98.125714 
" style="fill: none; stroke: #cecdc3; stroke-width: 0.8; stroke-linejoin: miter; stroke-linecap: square"/>
   </g>
   <g id="patch_4">
    <path d="M 64.15 345.517143 
L 783.18 345.517143 
" style="fill: none; stroke: #cecdc3; stroke-width: 0.8; stroke-linejoin: miter; stroke-linecap: square"/>
   </g>
   <g id="patch_5">
    <path d="M 101.673698 179.10526 
Q 91.759303 181.734995 81.844909 184.36473 
" style="fill: none; opacity: 0.75; stroke: #6f6e69; stroke-width: 0.9; stroke-linecap: round"/>
   </g>
   <g id="text_16">
    <g id="patch_6">
     <path d="M 91.2255 179.104847 
L 200.4535 179.104847 
Q 201.5815 179.104847 201.5815 177.976847 
L 201.5815 156.785135 
Q 201.5815 155.657135 200.4535 155.657135 
L 91.2255 155.657135 
Q 90.0975 155.657135 90.0975 156.785135 
L 90.0975 177.976847 
Q 90.0975 179.104847 91.2255 179.104847 
z
" style="fill: #fffcf0; opacity: 0.96"/>
    </g>
    <!-- $c_0 = 1$: melhor previsor -->
    <g style="fill: #6f6e69" transform="translate(91.9775 164.700229) scale(0.094 -0.094)">
     <defs>
      <path id="DejaVuSans-3d" d="M 678 2906 
L 4684 2906 
L 4684 2381 
L 678 2381 
L 678 2906 
z
M 678 1631 
L 4684 1631 
L 4684 1100 
L 678 1100 
L 678 1631 
z
" transform="scale(0.015625)"/>
      <path id="DejaVuSans-3a" d="M 750 794 
L 1409 794 
L 1409 0 
L 750 0 
L 750 794 
z
M 750 3309 
L 1409 3309 
L 1409 2516 
L 750 2516 
L 750 3309 
z
" transform="scale(0.015625)"/>
      <path id="DejaVuSans-6c" d="M 603 4863 
L 1178 4863 
L 1178 0 
L 603 0 
L 603 4863 
z
" transform="scale(0.015625)"/>
      <path id="DejaVuSans-68" d="M 3513 2113 
L 3513 0 
L 2938 0 
L 2938 2094 
Q 2938 2591 2744 2837 
Q 2550 3084 2163 3084 
Q 1697 3084 1428 2787 
Q 1159 2491 1159 1978 
L 1159 0 
L 581 0 
L 581 4863 
L 1159 4863 
L 1159 2956 
Q 1366 3272 1645 3428 
Q 1925 3584 2291 3584 
Q 2894 3584 3203 3211 
Q 3513 2838 3513 2113 
z
" transform="scale(0.015625)"/>
      <path id="DejaVuSans-70" d="M 1159 525 
L 1159 -1331 
L 581 -1331 
L 581 3500 
L 1159 3500 
L 1159 2969 
Q 1341 3281 1617 3432 
Q 1894 3584 2278 3584 
Q 2916 3584 3314 3078 
Q 3713 2572 3713 1747 
Q 3713 922 3314 415 
Q 2916 -91 2278 -91 
Q 1894 -91 1617 61 
Q 1341 213 1159 525 
z
M 3116 1747 
Q 3116 2381 2855 2742 
Q 2594 3103 2138 3103 
Q 1681 3103 1420 2742 
Q 1159 2381 1159 1747 
Q 1159 1113 1420 752 
Q 1681 391 2138 391 
Q 2594 391 2855 752 
Q 3116 1113 3116 1747 
z
" transform="scale(0.015625)"/>
      <path id="DejaVuSans-76" d="M 191 3500 
L 800 3500 
L 1894 563 
L 2988 3500 
L 3597 3500 
L 2284 0 
L 1503 0 
L 191 3500 
z
" transform="scale(0.015625)"/>
      <path id="DejaVuSans-69" d="M 603 3500 
L 1178 3500 
L 1178 0 
L 603 0 
L 603 3500 
z
M 603 4863 
L 1178 4863 
L 1178 4134 
L 603 4134 
L 603 4863 
z
" transform="scale(0.015625)"/>
     </defs>
     <use xlink:href="#DejaVuSans-Oblique-63" transform="translate(0 0.015625)"/>
     <use xlink:href="#DejaVuSans-30" transform="translate(54.980469 -16.390625) scale(0.7)"/>
     <use xlink:href="#DejaVuSans-3d" transform="translate(121.733398 0.015625)"/>
     <use xlink:href="#DejaVuSans-31" transform="translate(225.004883 0.015625)"/>
     <use xlink:href="#DejaVuSans-3a" transform="translate(288.62793 0.015625)"/>
     <use xlink:href="#DejaVuSans-20" transform="translate(322.319336 0.015625)"/>
     <use xlink:href="#DejaVuSans-6d" transform="translate(354.106445 0.015625)"/>
     <use xlink:href="#DejaVuSans-65" transform="translate(451.518555 0.015625)"/>
     <use xlink:href="#DejaVuSans-6c" transform="translate(513.041992 0.015625)"/>
     <use xlink:href="#DejaVuSans-68" transform="translate(540.825195 0.015625)"/>
     <use xlink:href="#DejaVuSans-6f" transform="translate(604.204102 0.015625)"/>
     <use xlink:href="#DejaVuSans-72" transform="translate(665.385742 0.015625)"/>
     <use xlink:href="#DejaVuSans-20" transform="translate(706.499023 0.015625)"/>
     <use xlink:href="#DejaVuSans-70" transform="translate(738.286133 0.015625)"/>
     <use xlink:href="#DejaVuSans-72" transform="translate(801.762695 0.015625)"/>
     <use xlink:href="#DejaVuSans-65" transform="translate(842.875977 0.015625)"/>
     <use xlink:href="#DejaVuSans-76" transform="translate(904.399414 0.015625)"/>
     <use xlink:href="#DejaVuSans-69" transform="translate(963.579102 0.015625)"/>
     <use xlink:href="#DejaVuSans-73" transform="translate(991.362305 0.015625)"/>
     <use xlink:href="#DejaVuSans-6f" transform="translate(1043.461914 0.015625)"/>
     <use xlink:href="#DejaVuSans-72" transform="translate(1104.643555 0.015625)"/>
    </g>
    <!-- de $c_{t+1}$ é $c_t$ -->
    <g style="fill: #6f6e69" transform="translate(91.9775 175.269941) scale(0.094 -0.094)">
     <defs>
      <path id="DejaVuSans-2b" d="M 2944 4013 
L 2944 2272 
L 4684 2272 
L 4684 1741 
L 2944 1741 
L 2944 0 
L 2419 0 
L 2419 1741 
L 678 1741 
L 678 2272 
L 2419 2272 
L 2419 4013 
L 2944 4013 
z
" transform="scale(0.015625)"/>
      <path id="DejaVuSans-e9" d="M 3597 1894 
L 3597 1613 
L 953 1613 
Q 991 1019 1311 708 
Q 1631 397 2203 397 
Q 2534 397 2845 478 
Q 3156 559 3463 722 
L 3463 178 
Q 3153 47 2828 -22 
Q 2503 -91 2169 -91 
Q 1331 -91 842 396 
Q 353 884 353 1716 
Q 353 2575 817 3079 
Q 1281 3584 2069 3584 
Q 2775 3584 3186 3129 
Q 3597 2675 3597 1894 
z
M 3022 2063 
Q 3016 2534 2758 2815 
Q 2500 3097 2075 3097 
Q 1594 3097 1305 2825 
Q 1016 2553 972 2059 
L 3022 2063 
z
M 2466 5119 
L 3088 5119 
L 2070 3944 
L 1591 3944 
L 2466 5119 
z
" transform="scale(0.015625)"/>
     </defs>
     <use xlink:href="#DejaVuSans-64" transform="translate(0 0.015625)"/>
     <use xlink:href="#DejaVuSans-65" transform="translate(63.476562 0.015625)"/>
     <use xlink:href="#DejaVuSans-20" transform="translate(125 0.015625)"/>
     <use xlink:href="#DejaVuSans-Oblique-63" transform="translate(156.787109 0.015625)"/>
     <use xlink:href="#DejaVuSans-Oblique-74" transform="translate(211.767578 -16.390625) scale(0.7)"/>
     <use xlink:href="#DejaVuSans-2b" transform="translate(252.851562 -16.390625) scale(0.7)"/>
     <use xlink:href="#DejaVuSans-31" transform="translate(325.141602 -16.390625) scale(0.7)"/>
     <use xlink:href="#DejaVuSans-20" transform="translate(372.412109 0.015625)"/>
     <use xlink:href="#DejaVuSans-e9" transform="translate(404.199219 0.015625)"/>
     <use xlink:href="#DejaVuSans-20" transform="translate(465.722656 0.015625)"/>
     <use xlink:href="#DejaVuSans-Oblique-63" transform="translate(497.509766 0.015625)"/>
     <use xlink:href="#DejaVuSans-Oblique-74" transform="translate(552.490234 -16.390625) scale(0.7)"/>
    </g>
   </g>
  </g>
  <g id="text_17">
   <!-- Hall (1978): consumo segue um passeio aleatório -->
   <g style="fill: #1c1b1a" transform="translate(14.4 27.1975) scale(0.16 -0.16)">
    <defs>
     <path id="DejaVuSans-Bold-48" d="M 588 4666 
L 1791 4666 
L 1791 2888 
L 3566 2888 
L 3566 4666 
L 4769 4666 
L 4769 0 
L 3566 0 
L 3566 1978 
L 1791 1978 
L 1791 0 
L 588 0 
L 588 4666 
z
" transform="scale(0.015625)"/>
     <path id="DejaVuSans-Bold-61" d="M 2106 1575 
Q 1756 1575 1579 1456 
Q 1403 1338 1403 1106 
Q 1403 894 1545 773 
Q 1688 653 1941 653 
Q 2256 653 2472 879 
Q 2688 1106 2688 1447 
L 2688 1575 
L 2106 1575 
z
M 3816 1997 
L 3816 0 
L 2688 0 
L 2688 519 
Q 2463 200 2181 54 
Q 1900 -91 1497 -91 
Q 953 -91 614 226 
Q 275 544 275 1050 
Q 275 1666 698 1953 
Q 1122 2241 2028 2241 
L 2688 2241 
L 2688 2328 
Q 2688 2594 2478 2717 
Q 2269 2841 1825 2841 
Q 1466 2841 1156 2769 
Q 847 2697 581 2553 
L 581 3406 
Q 941 3494 1303 3539 
Q 1666 3584 2028 3584 
Q 2975 3584 3395 3211 
Q 3816 2838 3816 1997 
z
" transform="scale(0.015625)"/>
     <path id="DejaVuSans-Bold-6c" d="M 538 4863 
L 1656 4863 
L 1656 0 
L 538 0 
L 538 4863 
z
" transform="scale(0.015625)"/>
     <path id="DejaVuSans-Bold-20" transform="scale(0.015625)"/>
     <path id="DejaVuSans-Bold-28" d="M 2413 -844 
L 1484 -844 
Q 1006 -72 778 623 
Q 550 1319 550 2003 
Q 550 2688 779 3389 
Q 1009 4091 1484 4856 
L 2413 4856 
Q 2013 4116 1813 3408 
Q 1613 2700 1613 2009 
Q 1613 1319 1811 609 
Q 2009 -100 2413 -844 
z
" transform="scale(0.015625)"/>
     <path id="DejaVuSans-Bold-31" d="M 750 831 
L 1813 831 
L 1813 3847 
L 722 3622 
L 722 4441 
L 1806 4666 
L 2950 4666 
L 2950 831 
L 4013 831 
L 4013 0 
L 750 0 
L 750 831 
z
" transform="scale(0.015625)"/>
     <path id="DejaVuSans-Bold-39" d="M 641 103 
L 641 966 
Q 928 831 1190 764 
Q 1453 697 1709 697 
Q 2247 697 2547 995 
Q 2847 1294 2900 1881 
Q 2688 1725 2447 1647 
Q 2206 1569 1925 1569 
Q 1209 1569 770 1986 
Q 331 2403 331 3084 
Q 331 3838 820 4291 
Q 1309 4744 2131 4744 
Q 3044 4744 3544 4128 
Q 4044 3513 4044 2388 
Q 4044 1231 3459 570 
Q 2875 -91 1856 -91 
Q 1528 -91 1228 -42 
Q 928 6 641 103 
z
M 2125 2350 
Q 2441 2350 2600 2554 
Q 2759 2759 2759 3169 
Q 2759 3575 2600 3781 
Q 2441 3988 2125 3988 
Q 1809 3988 1650 3781 
Q 1491 3575 1491 3169 
Q 1491 2759 1650 2554 
Q 1809 2350 2125 2350 
z
" transform="scale(0.015625)"/>
     <path id="DejaVuSans-Bold-37" d="M 428 4666 
L 3944 4666 
L 3944 3988 
L 2125 0 
L 953 0 
L 2675 3781 
L 428 3781 
L 428 4666 
z
" transform="scale(0.015625)"/>
     <path id="DejaVuSans-Bold-38" d="M 2228 2088 
Q 1891 2088 1709 1903 
Q 1528 1719 1528 1375 
Q 1528 1031 1709 848 
Q 1891 666 2228 666 
Q 2563 666 2741 848 
Q 2919 1031 2919 1375 
Q 2919 1722 2741 1905 
Q 2563 2088 2228 2088 
z
M 1350 2484 
Q 925 2613 709 2878 
Q 494 3144 494 3541 
Q 494 4131 934 4440 
Q 1375 4750 2228 4750 
Q 3075 4750 3515 4442 
Q 3956 4134 3956 3541 
Q 3956 3144 3739 2878 
Q 3522 2613 3097 2484 
Q 3572 2353 3814 2058 
Q 4056 1763 4056 1313 
Q 4056 619 3595 264 
Q 3134 -91 2228 -91 
Q 1319 -91 855 264 
Q 391 619 391 1313 
Q 391 1763 633 2058 
Q 875 2353 1350 2484 
z
M 1631 3419 
Q 1631 3141 1786 2991 
Q 1941 2841 2228 2841 
Q 2509 2841 2662 2991 
Q 2816 3141 2816 3419 
Q 2816 3697 2662 3845 
Q 2509 3994 2228 3994 
Q 1941 3994 1786 3844 
Q 1631 3694 1631 3419 
z
" transform="scale(0.015625)"/>
     <path id="DejaVuSans-Bold-29" d="M 513 -844 
Q 913 -100 1113 609 
Q 1313 1319 1313 2009 
Q 1313 2700 1113 3408 
Q 913 4116 513 4856 
L 1441 4856 
Q 1916 4091 2145 3389 
Q 2375 2688 2375 2003 
Q 2375 1319 2147 623 
Q 1919 -72 1441 -844 
L 513 -844 
z
" transform="scale(0.015625)"/>
     <path id="DejaVuSans-Bold-3a" d="M 716 3500 
L 1844 3500 
L 1844 2291 
L 716 2291 
L 716 3500 
z
M 716 1209 
L 1844 1209 
L 1844 0 
L 716 0 
L 716 1209 
z
" transform="scale(0.015625)"/>
     <path id="DejaVuSans-Bold-63" d="M 3366 3391 
L 3366 2478 
Q 3138 2634 2908 2709 
Q 2678 2784 2431 2784 
Q 1963 2784 1702 2511 
Q 1441 2238 1441 1747 
Q 1441 1256 1702 982 
Q 1963 709 2431 709 
Q 2694 709 2930 787 
Q 3166 866 3366 1019 
L 3366 103 
Q 3103 6 2833 -42 
Q 2563 -91 2291 -91 
Q 1344 -91 809 395 
Q 275 881 275 1747 
Q 275 2613 809 3098 
Q 1344 3584 2291 3584 
Q 2566 3584 2833 3536 
Q 3100 3488 3366 3391 
z
" transform="scale(0.015625)"/>
     <path id="DejaVuSans-Bold-6f" d="M 2203 2784 
Q 1831 2784 1636 2517 
Q 1441 2250 1441 1747 
Q 1441 1244 1636 976 
Q 1831 709 2203 709 
Q 2569 709 2762 976 
Q 2956 1244 2956 1747 
Q 2956 2250 2762 2517 
Q 2569 2784 2203 2784 
z
M 2203 3584 
Q 3106 3584 3614 3096 
Q 4122 2609 4122 1747 
Q 4122 884 3614 396 
Q 3106 -91 2203 -91 
Q 1297 -91 786 396 
Q 275 884 275 1747 
Q 275 2609 786 3096 
Q 1297 3584 2203 3584 
z
" transform="scale(0.015625)"/>
     <path id="DejaVuSans-Bold-6e" d="M 4056 2131 
L 4056 0 
L 2931 0 
L 2931 347 
L 2931 1631 
Q 2931 2084 2911 2256 
Q 2891 2428 2841 2509 
Q 2775 2619 2662 2680 
Q 2550 2741 2406 2741 
Q 2056 2741 1856 2470 
Q 1656 2200 1656 1722 
L 1656 0 
L 538 0 
L 538 3500 
L 1656 3500 
L 1656 2988 
Q 1909 3294 2193 3439 
Q 2478 3584 2822 3584 
Q 3428 3584 3742 3212 
Q 4056 2841 4056 2131 
z
" transform="scale(0.015625)"/>
     <path id="DejaVuSans-Bold-73" d="M 3272 3391 
L 3272 2541 
Q 2913 2691 2578 2766 
Q 2244 2841 1947 2841 
Q 1628 2841 1473 2761 
Q 1319 2681 1319 2516 
Q 1319 2381 1436 2309 
Q 1553 2238 1856 2203 
L 2053 2175 
Q 2913 2066 3209 1816 
Q 3506 1566 3506 1031 
Q 3506 472 3093 190 
Q 2681 -91 1863 -91 
Q 1516 -91 1145 -36 
Q 775 19 384 128 
L 384 978 
Q 719 816 1070 734 
Q 1422 653 1784 653 
Q 2113 653 2278 743 
Q 2444 834 2444 1013 
Q 2444 1163 2330 1236 
Q 2216 1309 1875 1350 
L 1678 1375 
Q 931 1469 631 1722 
Q 331 1975 331 2491 
Q 331 3047 712 3315 
Q 1094 3584 1881 3584 
Q 2191 3584 2531 3537 
Q 2872 3491 3272 3391 
z
" transform="scale(0.015625)"/>
     <path id="DejaVuSans-Bold-75" d="M 500 1363 
L 500 3500 
L 1625 3500 
L 1625 3150 
Q 1625 2866 1622 2436 
Q 1619 2006 1619 1863 
Q 1619 1441 1641 1255 
Q 1663 1069 1716 984 
Q 1784 875 1895 815 
Q 2006 756 2150 756 
Q 2500 756 2700 1025 
Q 2900 1294 2900 1772 
L 2900 3500 
L 4019 3500 
L 4019 0 
L 2900 0 
L 2900 506 
Q 2647 200 2364 54 
Q 2081 -91 1741 -91 
Q 1134 -91 817 281 
Q 500 653 500 1363 
z
" transform="scale(0.015625)"/>
     <path id="DejaVuSans-Bold-6d" d="M 3781 2919 
Q 3994 3244 4286 3414 
Q 4578 3584 4928 3584 
Q 5531 3584 5847 3212 
Q 6163 2841 6163 2131 
L 6163 0 
L 5038 0 
L 5038 1825 
Q 5041 1866 5042 1909 
Q 5044 1953 5044 2034 
Q 5044 2406 4934 2573 
Q 4825 2741 4581 2741 
Q 4263 2741 4089 2478 
Q 3916 2216 3909 1719 
L 3909 0 
L 2784 0 
L 2784 1825 
Q 2784 2406 2684 2573 
Q 2584 2741 2328 2741 
Q 2006 2741 1831 2477 
Q 1656 2213 1656 1722 
L 1656 0 
L 531 0 
L 531 3500 
L 1656 3500 
L 1656 2988 
Q 1863 3284 2130 3434 
Q 2397 3584 2719 3584 
Q 3081 3584 3359 3409 
Q 3638 3234 3781 2919 
z
" transform="scale(0.015625)"/>
     <path id="DejaVuSans-Bold-65" d="M 4031 1759 
L 4031 1441 
L 1416 1441 
Q 1456 1047 1700 850 
Q 1944 653 2381 653 
Q 2734 653 3104 758 
Q 3475 863 3866 1075 
L 3866 213 
Q 3469 63 3072 -14 
Q 2675 -91 2278 -91 
Q 1328 -91 801 392 
Q 275 875 275 1747 
Q 275 2603 792 3093 
Q 1309 3584 2216 3584 
Q 3041 3584 3536 3087 
Q 4031 2591 4031 1759 
z
M 2881 2131 
Q 2881 2450 2695 2645 
Q 2509 2841 2209 2841 
Q 1884 2841 1681 2658 
Q 1478 2475 1428 2131 
L 2881 2131 
z
" transform="scale(0.015625)"/>
     <path id="DejaVuSans-Bold-67" d="M 2919 594 
Q 2688 288 2409 144 
Q 2131 0 1766 0 
Q 1125 0 706 504 
Q 288 1009 288 1791 
Q 288 2575 706 3076 
Q 1125 3578 1766 3578 
Q 2131 3578 2409 3434 
Q 2688 3291 2919 2981 
L 2919 3500 
L 4044 3500 
L 4044 353 
Q 4044 -491 3511 -936 
Q 2978 -1381 1966 -1381 
Q 1638 -1381 1331 -1331 
Q 1025 -1281 716 -1178 
L 716 -306 
Q 1009 -475 1290 -558 
Q 1572 -641 1856 -641 
Q 2406 -641 2662 -400 
Q 2919 -159 2919 353 
L 2919 594 
z
M 2181 2772 
Q 1834 2772 1640 2515 
Q 1447 2259 1447 1791 
Q 1447 1309 1634 1061 
Q 1822 813 2181 813 
Q 2531 813 2725 1069 
Q 2919 1325 2919 1791 
Q 2919 2259 2725 2515 
Q 2531 2772 2181 2772 
z
" transform="scale(0.015625)"/>
     <path id="DejaVuSans-Bold-70" d="M 1656 506 
L 1656 -1331 
L 538 -1331 
L 538 3500 
L 1656 3500 
L 1656 2988 
Q 1888 3294 2169 3439 
Q 2450 3584 2816 3584 
Q 3463 3584 3878 3070 
Q 4294 2556 4294 1747 
Q 4294 938 3878 423 
Q 3463 -91 2816 -91 
Q 2450 -91 2169 54 
Q 1888 200 1656 506 
z
M 2400 2772 
Q 2041 2772 1848 2508 
Q 1656 2244 1656 1747 
Q 1656 1250 1848 986 
Q 2041 722 2400 722 
Q 2759 722 2948 984 
Q 3138 1247 3138 1747 
Q 3138 2247 2948 2509 
Q 2759 2772 2400 2772 
z
" transform="scale(0.015625)"/>
     <path id="DejaVuSans-Bold-69" d="M 538 3500 
L 1656 3500 
L 1656 0 
L 538 0 
L 538 3500 
z
M 538 4863 
L 1656 4863 
L 1656 3950 
L 538 3950 
L 538 4863 
z
" transform="scale(0.015625)"/>
     <path id="DejaVuSans-Bold-74" d="M 1759 4494 
L 1759 3500 
L 2913 3500 
L 2913 2700 
L 1759 2700 
L 1759 1216 
Q 1759 972 1856 886 
Q 1953 800 2241 800 
L 2816 800 
L 2816 0 
L 1856 0 
Q 1194 0 917 276 
Q 641 553 641 1216 
L 641 2700 
L 84 2700 
L 84 3500 
L 641 3500 
L 641 4494 
L 1759 4494 
z
" transform="scale(0.015625)"/>
     <path id="DejaVuSans-Bold-f3" d="M 2203 2784 
Q 1831 2784 1636 2517 
Q 1441 2250 1441 1747 
Q 1441 1244 1636 976 
Q 1831 709 2203 709 
Q 2569 709 2762 976 
Q 2956 1244 2956 1747 
Q 2956 2250 2762 2517 
Q 2569 2784 2203 2784 
z
M 2203 3584 
Q 3106 3584 3614 3096 
Q 4122 2609 4122 1747 
Q 4122 884 3614 396 
Q 3106 -91 2203 -91 
Q 1297 -91 786 396 
Q 275 884 275 1747 
Q 275 2609 786 3096 
Q 1297 3584 2203 3584 
z
M 2694 5119 
L 3578 5119 
L 2425 3944 
L 1813 3944 
L 2694 5119 
z
" transform="scale(0.015625)"/>
     <path id="DejaVuSans-Bold-72" d="M 3138 2547 
Q 2991 2616 2845 2648 
Q 2700 2681 2553 2681 
Q 2122 2681 1889 2404 
Q 1656 2128 1656 1613 
L 1656 0 
L 538 0 
L 538 3500 
L 1656 3500 
L 1656 2925 
Q 1872 3269 2151 3426 
Q 2431 3584 2822 3584 
Q 2878 3584 2943 3579 
Q 3009 3575 3134 3559 
L 3138 2547 
z
" transform="scale(0.015625)"/>
    </defs>
    <use xlink:href="#DejaVuSans-Bold-48"/>
    <use xlink:href="#DejaVuSans-Bold-61" transform="translate(83.691406 0)"/>
    <use xlink:href="#DejaVuSans-Bold-6c" transform="translate(151.171875 0)"/>
    <use xlink:href="#DejaVuSans-Bold-6c" transform="translate(185.449219 0)"/>
    <use xlink:href="#DejaVuSans-Bold-20" transform="translate(219.726562 0)"/>
    <use xlink:href="#DejaVuSans-Bold-28" transform="translate(254.541016 0)"/>
    <use xlink:href="#DejaVuSans-Bold-31" transform="translate(300.244141 0)"/>
    <use xlink:href="#DejaVuSans-Bold-39" transform="translate(369.824219 0)"/>
    <use xlink:href="#DejaVuSans-Bold-37" transform="translate(439.404297 0)"/>
    <use xlink:href="#DejaVuSans-Bold-38" transform="translate(508.984375 0)"/>
    <use xlink:href="#DejaVuSans-Bold-29" transform="translate(578.564453 0)"/>
    <use xlink:href="#DejaVuSans-Bold-3a" transform="translate(624.267578 0)"/>
    <use xlink:href="#DejaVuSans-Bold-20" transform="translate(664.257812 0)"/>
    <use xlink:href="#DejaVuSans-Bold-63" transform="translate(699.072266 0)"/>
    <use xlink:href="#DejaVuSans-Bold-6f" transform="translate(758.349609 0)"/>
    <use xlink:href="#DejaVuSans-Bold-6e" transform="translate(827.050781 0)"/>
    <use xlink:href="#DejaVuSans-Bold-73" transform="translate(898.242188 0)"/>
    <use xlink:href="#DejaVuSans-Bold-75" transform="translate(957.763672 0)"/>
    <use xlink:href="#DejaVuSans-Bold-6d" transform="translate(1028.955078 0)"/>
    <use xlink:href="#DejaVuSans-Bold-6f" transform="translate(1133.154297 0)"/>
    <use xlink:href="#DejaVuSans-Bold-20" transform="translate(1201.855469 0)"/>
    <use xlink:href="#DejaVuSans-Bold-73" transform="translate(1236.669922 0)"/>
    <use xlink:href="#DejaVuSans-Bold-65" transform="translate(1296.191406 0)"/>
    <use xlink:href="#DejaVuSans-Bold-67" transform="translate(1364.013672 0)"/>
    <use xlink:href="#DejaVuSans-Bold-75" transform="translate(1435.595703 0)"/>
    <use xlink:href="#DejaVuSans-Bold-65" transform="translate(1506.787109 0)"/>
    <use xlink:href="#DejaVuSans-Bold-20" transform="translate(1574.609375 0)"/>
    <use xlink:href="#DejaVuSans-Bold-75" transform="translate(1609.423828 0)"/>
    <use xlink:href="#DejaVuSans-Bold-6d" transform="translate(1680.615234 0)"/>
    <use xlink:href="#DejaVuSans-Bold-20" transform="translate(1784.814453 0)"/>
    <use xlink:href="#DejaVuSans-Bold-70" transform="translate(1819.628906 0)"/>
    <use xlink:href="#DejaVuSans-Bold-61" transform="translate(1891.210938 0)"/>
    <use xlink:href="#DejaVuSans-Bold-73" transform="translate(1958.691406 0)"/>
    <use xlink:href="#DejaVuSans-Bold-73" transform="translate(2018.212891 0)"/>
    <use xlink:href="#DejaVuSans-Bold-65" transform="translate(2077.734375 0)"/>
    <use xlink:href="#DejaVuSans-Bold-69" transform="translate(2145.556641 0)"/>
    <use xlink:href="#DejaVuSans-Bold-6f" transform="translate(2179.833984 0)"/>
    <use xlink:href="#DejaVuSans-Bold-20" transform="translate(2248.535156 0)"/>
    <use xlink:href="#DejaVuSans-Bold-61" transform="translate(2283.349609 0)"/>
    <use xlink:href="#DejaVuSans-Bold-6c" transform="translate(2350.830078 0)"/>
    <use xlink:href="#DejaVuSans-Bold-65" transform="translate(2385.107422 0)"/>
    <use xlink:href="#DejaVuSans-Bold-61" transform="translate(2452.929688 0)"/>
    <use xlink:href="#DejaVuSans-Bold-74" transform="translate(2520.410156 0)"/>
    <use xlink:href="#DejaVuSans-Bold-f3" transform="translate(2568.212891 0)"/>
    <use xlink:href="#DejaVuSans-Bold-72" transform="translate(2636.914062 0)"/>
    <use xlink:href="#DejaVuSans-Bold-69" transform="translate(2686.230469 0)"/>
    <use xlink:href="#DejaVuSans-Bold-6f" transform="translate(2720.507812 0)"/>
   </g>
  </g>
  <g id="text_18">
   <!-- Sob $\beta(1+r)=1$ e utilidade quadrática, $c_t = E_t[c_{t+1}]$: as trajetórias divergem sem tendência. -->
   <g style="fill: #6f6e69" transform="translate(14.4 39.84) scale(0.102 -0.102)">
    <defs>
     <path id="DejaVuSans-53" d="M 3425 4513 
L 3425 3897 
Q 3066 4069 2747 4153 
Q 2428 4238 2131 4238 
Q 1616 4238 1336 4038 
Q 1056 3838 1056 3469 
Q 1056 3159 1242 3001 
Q 1428 2844 1947 2747 
L 2328 2669 
Q 3034 2534 3370 2195 
Q 3706 1856 3706 1288 
Q 3706 609 3251 259 
Q 2797 -91 1919 -91 
Q 1588 -91 1214 -16 
Q 841 59 441 206 
L 441 856 
Q 825 641 1194 531 
Q 1563 422 1919 422 
Q 2459 422 2753 634 
Q 3047 847 3047 1241 
Q 3047 1584 2836 1778 
Q 2625 1972 2144 2069 
L 1759 2144 
Q 1053 2284 737 2584 
Q 422 2884 422 3419 
Q 422 4038 858 4394 
Q 1294 4750 2059 4750 
Q 2388 4750 2728 4690 
Q 3069 4631 3425 4513 
z
" transform="scale(0.015625)"/>
     <path id="DejaVuSans-62" d="M 3116 1747 
Q 3116 2381 2855 2742 
Q 2594 3103 2138 3103 
Q 1681 3103 1420 2742 
Q 1159 2381 1159 1747 
Q 1159 1113 1420 752 
Q 1681 391 2138 391 
Q 2594 391 2855 752 
Q 3116 1113 3116 1747 
z
M 1159 2969 
Q 1341 3281 1617 3432 
Q 1894 3584 2278 3584 
Q 2916 3584 3314 3078 
Q 3713 2572 3713 1747 
Q 3713 922 3314 415 
Q 2916 -91 2278 -91 
Q 1894 -91 1617 61 
Q 1341 213 1159 525 
L 1159 0 
L 581 0 
L 581 4863 
L 1159 4863 
L 1159 2969 
z
" transform="scale(0.015625)"/>
     <path id="DejaVuSans-Oblique-3b2" d="M 872 216 
L 572 -1331 
L -6 -1331 
L 928 3478 
Q 1206 4903 2538 4903 
Q 3888 4903 3659 3700 
Q 3503 2844 2894 2531 
Q 3713 2250 3553 1416 
Q 3272 -69 1759 -66 
Q 1097 -63 872 216 
z
M 1019 966 
Q 1259 422 1875 425 
Q 2775 425 2966 1406 
Q 3138 2288 1675 2219 
L 1778 2750 
Q 2909 2731 3106 3750 
Q 3241 4438 2509 4434 
Q 1691 4434 1503 3459 
L 1019 966 
z
" transform="scale(0.015625)"/>
     <path id="DejaVuSans-28" d="M 1984 4856 
Q 1566 4138 1362 3434 
Q 1159 2731 1159 2009 
Q 1159 1288 1364 580 
Q 1569 -128 1984 -844 
L 1484 -844 
Q 1016 -109 783 600 
Q 550 1309 550 2009 
Q 550 2706 781 3412 
Q 1013 4119 1484 4856 
L 1984 4856 
z
" transform="scale(0.015625)"/>
     <path id="DejaVuSans-Oblique-72" d="M 2853 2969 
Q 2766 3016 2653 3041 
Q 2541 3066 2413 3066 
Q 1953 3066 1609 2717 
Q 1266 2369 1153 1784 
L 800 0 
L 225 0 
L 909 3500 
L 1484 3500 
L 1375 2956 
Q 1603 3259 1920 3421 
Q 2238 3584 2597 3584 
Q 2691 3584 2781 3573 
Q 2872 3563 2963 3538 
L 2853 2969 
z
" transform="scale(0.015625)"/>
     <path id="DejaVuSans-29" d="M 513 4856 
L 1013 4856 
Q 1481 4119 1714 3412 
Q 1947 2706 1947 2009 
Q 1947 1309 1714 600 
Q 1481 -109 1013 -844 
L 513 -844 
Q 928 -128 1133 580 
Q 1338 1288 1338 2009 
Q 1338 2731 1133 3434 
Q 928 4138 513 4856 
z
" transform="scale(0.015625)"/>
     <path id="DejaVuSans-74" d="M 1172 4494 
L 1172 3500 
L 2356 3500 
L 2356 3053 
L 1172 3053 
L 1172 1153 
Q 1172 725 1289 603 
Q 1406 481 1766 481 
L 2356 481 
L 2356 0 
L 1766 0 
Q 1100 0 847 248 
Q 594 497 594 1153 
L 594 3053 
L 172 3053 
L 172 3500 
L 594 3500 
L 594 4494 
L 1172 4494 
z
" transform="scale(0.015625)"/>
     <path id="DejaVuSans-61" d="M 2194 1759 
Q 1497 1759 1228 1600 
Q 959 1441 959 1056 
Q 959 750 1161 570 
Q 1363 391 1709 391 
Q 2188 391 2477 730 
Q 2766 1069 2766 1631 
L 2766 1759 
L 2194 1759 
z
M 3341 1997 
L 3341 0 
L 2766 0 
L 2766 531 
Q 2569 213 2275 61 
Q 1981 -91 1556 -91 
Q 1019 -91 701 211 
Q 384 513 384 1019 
Q 384 1609 779 1909 
Q 1175 2209 1959 2209 
L 2766 2209 
L 2766 2266 
Q 2766 2663 2505 2880 
Q 2244 3097 1772 3097 
Q 1472 3097 1187 3025 
Q 903 2953 641 2809 
L 641 3341 
Q 956 3463 1253 3523 
Q 1550 3584 1831 3584 
Q 2591 3584 2966 3190 
Q 3341 2797 3341 1997 
z
" transform="scale(0.015625)"/>
     <path id="DejaVuSans-71" d="M 947 1747 
Q 947 1113 1208 752 
Q 1469 391 1925 391 
Q 2381 391 2643 752 
Q 2906 1113 2906 1747 
Q 2906 2381 2643 2742 
Q 2381 3103 1925 3103 
Q 1469 3103 1208 2742 
Q 947 2381 947 1747 
z
M 2906 525 
Q 2725 213 2448 61 
Q 2172 -91 1784 -91 
Q 1150 -91 751 415 
Q 353 922 353 1747 
Q 353 2572 751 3078 
Q 1150 3584 1784 3584 
Q 2172 3584 2448 3432 
Q 2725 3281 2906 2969 
L 2906 3500 
L 3481 3500 
L 3481 -1331 
L 2906 -1331 
L 2906 525 
z
" transform="scale(0.015625)"/>
     <path id="DejaVuSans-e1" d="M 2194 1759 
Q 1497 1759 1228 1600 
Q 959 1441 959 1056 
Q 959 750 1161 570 
Q 1363 391 1709 391 
Q 2188 391 2477 730 
Q 2766 1069 2766 1631 
L 2766 1759 
L 2194 1759 
z
M 3341 1997 
L 3341 0 
L 2766 0 
L 2766 531 
Q 2569 213 2275 61 
Q 1981 -91 1556 -91 
Q 1019 -91 701 211 
Q 384 513 384 1019 
Q 384 1609 779 1909 
Q 1175 2209 1959 2209 
L 2766 2209 
L 2766 2266 
Q 2766 2663 2505 2880 
Q 2244 3097 1772 3097 
Q 1472 3097 1187 3025 
Q 903 2953 641 2809 
L 641 3341 
Q 956 3463 1253 3523 
Q 1550 3584 1831 3584 
Q 2591 3584 2966 3190 
Q 3341 2797 3341 1997 
z
M 2290 5119 
L 2912 5119 
L 1894 3944 
L 1415 3944 
L 2290 5119 
z
" transform="scale(0.015625)"/>
     <path id="DejaVuSans-63" d="M 3122 3366 
L 3122 2828 
Q 2878 2963 2633 3030 
Q 2388 3097 2138 3097 
Q 1578 3097 1268 2742 
Q 959 2388 959 1747 
Q 959 1106 1268 751 
Q 1578 397 2138 397 
Q 2388 397 2633 464 
Q 2878 531 3122 666 
L 3122 134 
Q 2881 22 2623 -34 
Q 2366 -91 2075 -91 
Q 1284 -91 818 406 
Q 353 903 353 1747 
Q 353 2603 823 3093 
Q 1294 3584 2113 3584 
Q 2378 3584 2631 3529 
Q 2884 3475 3122 3366 
z
" transform="scale(0.015625)"/>
     <path id="DejaVuSans-Oblique-45" d="M 1081 4666 
L 4031 4666 
L 3928 4134 
L 1606 4134 
L 1338 2753 
L 3566 2753 
L 3463 2222 
L 1234 2222 
L 909 531 
L 3284 531 
L 3181 0 
L 172 0 
L 1081 4666 
z
" transform="scale(0.015625)"/>
     <path id="DejaVuSans-5b" d="M 550 4863 
L 1875 4863 
L 1875 4416 
L 1125 4416 
L 1125 -397 
L 1875 -397 
L 1875 -844 
L 550 -844 
L 550 4863 
z
" transform="scale(0.015625)"/>
     <path id="DejaVuSans-5d" d="M 1947 4863 
L 1947 -844 
L 622 -844 
L 622 -397 
L 1369 -397 
L 1369 4416 
L 622 4416 
L 622 4863 
L 1947 4863 
z
" transform="scale(0.015625)"/>
     <path id="DejaVuSans-6a" d="M 603 3500 
L 1178 3500 
L 1178 -63 
Q 1178 -731 923 -1031 
Q 669 -1331 103 -1331 
L -116 -1331 
L -116 -844 
L 38 -844 
Q 366 -844 484 -692 
Q 603 -541 603 -63 
L 603 3500 
z
M 603 4863 
L 1178 4863 
L 1178 4134 
L 603 4134 
L 603 4863 
z
" transform="scale(0.015625)"/>
     <path id="DejaVuSans-f3" d="M 1959 3097 
Q 1497 3097 1228 2736 
Q 959 2375 959 1747 
Q 959 1119 1226 758 
Q 1494 397 1959 397 
Q 2419 397 2687 759 
Q 2956 1122 2956 1747 
Q 2956 2369 2687 2733 
Q 2419 3097 1959 3097 
z
M 1959 3584 
Q 2709 3584 3137 3096 
Q 3566 2609 3566 1747 
Q 3566 888 3137 398 
Q 2709 -91 1959 -91 
Q 1206 -91 779 398 
Q 353 888 353 1747 
Q 353 2609 779 3096 
Q 1206 3584 1959 3584 
z
M 2394 5119 
L 3016 5119 
L 1998 3944 
L 1519 3944 
L 2394 5119 
z
" transform="scale(0.015625)"/>
     <path id="DejaVuSans-67" d="M 2906 1791 
Q 2906 2416 2648 2759 
Q 2391 3103 1925 3103 
Q 1463 3103 1205 2759 
Q 947 2416 947 1791 
Q 947 1169 1205 825 
Q 1463 481 1925 481 
Q 2391 481 2648 825 
Q 2906 1169 2906 1791 
z
M 3481 434 
Q 3481 -459 3084 -895 
Q 2688 -1331 1869 -1331 
Q 1566 -1331 1297 -1286 
Q 1028 -1241 775 -1147 
L 775 -588 
Q 1028 -725 1275 -790 
Q 1522 -856 1778 -856 
Q 2344 -856 2625 -561 
Q 2906 -266 2906 331 
L 2906 616 
Q 2728 306 2450 153 
Q 2172 0 1784 0 
Q 1141 0 747 490 
Q 353 981 353 1791 
Q 353 2603 747 3093 
Q 1141 3584 1784 3584 
Q 2172 3584 2450 3431 
Q 2728 3278 2906 2969 
L 2906 3500 
L 3481 3500 
L 3481 434 
z
" transform="scale(0.015625)"/>
     <path id="DejaVuSans-ea" d="M 3597 1894 
L 3597 1613 
L 953 1613 
Q 991 1019 1311 708 
Q 1631 397 2203 397 
Q 2534 397 2845 478 
Q 3156 559 3463 722 
L 3463 178 
Q 3153 47 2828 -22 
Q 2503 -91 2169 -91 
Q 1331 -91 842 396 
Q 353 884 353 1716 
Q 353 2575 817 3079 
Q 1281 3584 2069 3584 
Q 2775 3584 3186 3129 
Q 3597 2675 3597 1894 
z
M 3022 2063 
Q 3016 2534 2758 2815 
Q 2500 3097 2075 3097 
Q 1594 3097 1305 2825 
Q 1016 2553 972 2059 
L 3022 2063 
z
M 1801 5119 
L 2263 5119 
L 3029 3944 
L 2595 3944 
L 2032 4709 
L 1470 3944 
L 1035 3944 
L 1801 5119 
z
" transform="scale(0.015625)"/>
     <path id="DejaVuSans-2e" d="M 684 794 
L 1344 794 
L 1344 0 
L 684 0 
L 684 794 
z
" transform="scale(0.015625)"/>
    </defs>
    <use xlink:href="#DejaVuSans-53" transform="translate(0 0.015625)"/>
    <use xlink:href="#DejaVuSans-6f" transform="translate(63.476562 0.015625)"/>
    <use xlink:href="#DejaVuSans-62" transform="translate(124.658203 0.015625)"/>
    <use xlink:href="#DejaVuSans-20" transform="translate(188.134766 0.015625)"/>
    <use xlink:href="#DejaVuSans-Oblique-3b2" transform="translate(219.921875 0.015625)"/>
    <use xlink:href="#DejaVuSans-28" transform="translate(283.740234 0.015625)"/>
    <use xlink:href="#DejaVuSans-31" transform="translate(322.753906 0.015625)"/>
    <use xlink:href="#DejaVuSans-2b" transform="translate(405.859375 0.015625)"/>
    <use xlink:href="#DejaVuSans-Oblique-72" transform="translate(509.130859 0.015625)"/>
    <use xlink:href="#DejaVuSans-29" transform="translate(550.244141 0.015625)"/>
    <use xlink:href="#DejaVuSans-3d" transform="translate(608.740234 0.015625)"/>
    <use xlink:href="#DejaVuSans-31" transform="translate(712.011719 0.015625)"/>
    <use xlink:href="#DejaVuSans-20" transform="translate(775.634766 0.015625)"/>
    <use xlink:href="#DejaVuSans-65" transform="translate(807.421875 0.015625)"/>
    <use xlink:href="#DejaVuSans-20" transform="translate(868.945312 0.015625)"/>
    <use xlink:href="#DejaVuSans-75" transform="translate(900.732422 0.015625)"/>
    <use xlink:href="#DejaVuSans-74" transform="translate(964.111328 0.015625)"/>
    <use xlink:href="#DejaVuSans-69" transform="translate(1003.320312 0.015625)"/>
    <use xlink:href="#DejaVuSans-6c" transform="translate(1031.103516 0.015625)"/>
    <use xlink:href="#DejaVuSans-69" transform="translate(1058.886719 0.015625)"/>
    <use xlink:href="#DejaVuSans-64" transform="translate(1086.669922 0.015625)"/>
    <use xlink:href="#DejaVuSans-61" transform="translate(1150.146484 0.015625)"/>
    <use xlink:href="#DejaVuSans-64" transform="translate(1211.425781 0.015625)"/>
    <use xlink:href="#DejaVuSans-65" transform="translate(1274.902344 0.015625)"/>
    <use xlink:href="#DejaVuSans-20" transform="translate(1336.425781 0.015625)"/>
    <use xlink:href="#DejaVuSans-71" transform="translate(1368.212891 0.015625)"/>
    <use xlink:href="#DejaVuSans-75" transform="translate(1431.689453 0.015625)"/>
    <use xlink:href="#DejaVuSans-61" transform="translate(1495.068359 0.015625)"/>
    <use xlink:href="#DejaVuSans-64" transform="translate(1556.347656 0.015625)"/>
    <use xlink:href="#DejaVuSans-72" transform="translate(1619.824219 0.015625)"/>
    <use xlink:href="#DejaVuSans-e1" transform="translate(1660.9375 0.015625)"/>
    <use xlink:href="#DejaVuSans-74" transform="translate(1722.216797 0.015625)"/>
    <use xlink:href="#DejaVuSans-69" transform="translate(1761.425781 0.015625)"/>
    <use xlink:href="#DejaVuSans-63" transform="translate(1789.208984 0.015625)"/>
    <use xlink:href="#DejaVuSans-61" transform="translate(1844.189453 0.015625)"/>
    <use xlink:href="#DejaVuSans-2c" transform="translate(1905.46875 0.015625)"/>
    <use xlink:href="#DejaVuSans-20" transform="translate(1937.255859 0.015625)"/>
    <use xlink:href="#DejaVuSans-Oblique-63" transform="translate(1969.042969 0.015625)"/>
    <use xlink:href="#DejaVuSans-Oblique-74" transform="translate(2024.023438 -16.390625) scale(0.7)"/>
    <use xlink:href="#DejaVuSans-3d" transform="translate(2073.686523 0.015625)"/>
    <use xlink:href="#DejaVuSans-Oblique-45" transform="translate(2176.958008 0.015625)"/>
    <use xlink:href="#DejaVuSans-Oblique-74" transform="translate(2240.141602 -16.390625) scale(0.7)"/>
    <use xlink:href="#DejaVuSans-5b" transform="translate(2270.322266 0.015625)"/>
    <use xlink:href="#DejaVuSans-Oblique-63" transform="translate(2309.335938 0.015625)"/>
    <use xlink:href="#DejaVuSans-Oblique-74" transform="translate(2364.316406 -16.390625) scale(0.7)"/>
    <use xlink:href="#DejaVuSans-2b" transform="translate(2405.400391 -16.390625) scale(0.7)"/>
    <use xlink:href="#DejaVuSans-31" transform="translate(2477.69043 -16.390625) scale(0.7)"/>
    <use xlink:href="#DejaVuSans-5d" transform="translate(2524.960938 0.015625)"/>
    <use xlink:href="#DejaVuSans-3a" transform="translate(2563.974609 0.015625)"/>
    <use xlink:href="#DejaVuSans-20" transform="translate(2597.666016 0.015625)"/>
    <use xlink:href="#DejaVuSans-61" transform="translate(2629.453125 0.015625)"/>
    <use xlink:href="#DejaVuSans-73" transform="translate(2690.732422 0.015625)"/>
    <use xlink:href="#DejaVuSans-20" transform="translate(2742.832031 0.015625)"/>
    <use xlink:href="#DejaVuSans-74" transform="translate(2774.619141 0.015625)"/>
    <use xlink:href="#DejaVuSans-72" transform="translate(2813.828125 0.015625)"/>
    <use xlink:href="#DejaVuSans-61" transform="translate(2854.941406 0.015625)"/>
    <use xlink:href="#DejaVuSans-6a" transform="translate(2916.220703 0.015625)"/>
    <use xlink:href="#DejaVuSans-65" transform="translate(2944.003906 0.015625)"/>
    <use xlink:href="#DejaVuSans-74" transform="translate(3005.527344 0.015625)"/>
    <use xlink:href="#DejaVuSans-f3" transform="translate(3044.736328 0.015625)"/>
    <use xlink:href="#DejaVuSans-72" transform="translate(3105.917969 0.015625)"/>
    <use xlink:href="#DejaVuSans-69" transform="translate(3147.03125 0.015625)"/>
    <use xlink:href="#DejaVuSans-61" transform="translate(3174.814453 0.015625)"/>
    <use xlink:href="#DejaVuSans-73" transform="translate(3236.09375 0.015625)"/>
    <use xlink:href="#DejaVuSans-20" transform="translate(3288.193359 0.015625)"/>
    <use xlink:href="#DejaVuSans-64" transform="translate(3319.980469 0.015625)"/>
    <use xlink:href="#DejaVuSans-69" transform="translate(3383.457031 0.015625)"/>
    <use xlink:href="#DejaVuSans-76" transform="translate(3411.240234 0.015625)"/>
    <use xlink:href="#DejaVuSans-65" transform="translate(3470.419922 0.015625)"/>
    <use xlink:href="#DejaVuSans-72" transform="translate(3531.943359 0.015625)"/>
    <use xlink:href="#DejaVuSans-67" transform="translate(3573.056641 0.015625)"/>
    <use xlink:href="#DejaVuSans-65" transform="translate(3636.533203 0.015625)"/>
    <use xlink:href="#DejaVuSans-6d" transform="translate(3698.056641 0.015625)"/>
    <use xlink:href="#DejaVuSans-20" transform="translate(3795.46875 0.015625)"/>
    <use xlink:href="#DejaVuSans-73" transform="translate(3827.255859 0.015625)"/>
    <use xlink:href="#DejaVuSans-65" transform="translate(3879.355469 0.015625)"/>
    <use xlink:href="#DejaVuSans-6d" transform="translate(3940.878906 0.015625)"/>
    <use xlink:href="#DejaVuSans-20" transform="translate(4038.291016 0.015625)"/>
    <use xlink:href="#DejaVuSans-74" transform="translate(4070.078125 0.015625)"/>
    <use xlink:href="#DejaVuSans-65" transform="translate(4109.287109 0.015625)"/>
    <use xlink:href="#DejaVuSans-6e" transform="translate(4170.810547 0.015625)"/>
    <use xlink:href="#DejaVuSans-64" transform="translate(4234.189453 0.015625)"/>
    <use xlink:href="#DejaVuSans-ea" transform="translate(4297.666016 0.015625)"/>
    <use xlink:href="#DejaVuSans-6e" transform="translate(4359.189453 0.015625)"/>
    <use xlink:href="#DejaVuSans-63" transform="translate(4422.568359 0.015625)"/>
    <use xlink:href="#DejaVuSans-69" transform="translate(4477.548828 0.015625)"/>
    <use xlink:href="#DejaVuSans-61" transform="translate(4505.332031 0.015625)"/>
    <use xlink:href="#DejaVuSans-2e" transform="translate(4566.611328 0.015625)"/>
   </g>
  </g>
  <g id="text_19">
   <!-- Obs.: β=0.9709 · r=0.03 · σ_ε=0.05 · 6 trajetórias simuladas. -->
   <g style="fill: #6f6e69" transform="translate(14.4 424.908703) scale(0.087 -0.087)">
    <defs>
     <path id="DejaVuSans-4f" d="M 2522 4238 
Q 1834 4238 1429 3725 
Q 1025 3213 1025 2328 
Q 1025 1447 1429 934 
Q 1834 422 2522 422 
Q 3209 422 3611 934 
Q 4013 1447 4013 2328 
Q 4013 3213 3611 3725 
Q 3209 4238 2522 4238 
z
M 2522 4750 
Q 3503 4750 4090 4092 
Q 4678 3434 4678 2328 
Q 4678 1225 4090 567 
Q 3503 -91 2522 -91 
Q 1538 -91 948 565 
Q 359 1222 359 2328 
Q 359 3434 948 4092 
Q 1538 4750 2522 4750 
z
" transform="scale(0.015625)"/>
     <path id="DejaVuSans-3b2" d="M 1178 216 
L 1178 -1331 
L 600 -1331 
L 600 3478 
Q 600 4903 1931 4903 
Q 3288 4903 3288 3700 
Q 3288 2844 2750 2531 
Q 3625 2250 3625 1416 
Q 3625 -66 2119 -66 
Q 1456 -66 1178 216 
z
M 1178 966 
Q 1525 425 2141 425 
Q 3041 425 3041 1406 
Q 3041 2288 1591 2219 
L 1591 2750 
Q 2725 2750 2725 3750 
Q 2725 4434 1994 4434 
Q 1178 4434 1178 3459 
L 1178 966 
z
" transform="scale(0.015625)"/>
     <path id="DejaVuSans-39" d="M 703 97 
L 703 672 
Q 941 559 1184 500 
Q 1428 441 1663 441 
Q 2288 441 2617 861 
Q 2947 1281 2994 2138 
Q 2813 1869 2534 1725 
Q 2256 1581 1919 1581 
Q 1219 1581 811 2004 
Q 403 2428 403 3163 
Q 403 3881 828 4315 
Q 1253 4750 1959 4750 
Q 2769 4750 3195 4129 
Q 3622 3509 3622 2328 
Q 3622 1225 3098 567 
Q 2575 -91 1691 -91 
Q 1453 -91 1209 -44 
Q 966 3 703 97 
z
M 1959 2075 
Q 2384 2075 2632 2365 
Q 2881 2656 2881 3163 
Q 2881 3666 2632 3958 
Q 2384 4250 1959 4250 
Q 1534 4250 1286 3958 
Q 1038 3666 1038 3163 
Q 1038 2656 1286 2365 
Q 1534 2075 1959 2075 
z
" transform="scale(0.015625)"/>
     <path id="DejaVuSans-b7" d="M 684 2619 
L 1344 2619 
L 1344 1825 
L 684 1825 
L 684 2619 
z
" transform="scale(0.015625)"/>
     <path id="DejaVuSans-33" d="M 2597 2516 
Q 3050 2419 3304 2112 
Q 3559 1806 3559 1356 
Q 3559 666 3084 287 
Q 2609 -91 1734 -91 
Q 1441 -91 1130 -33 
Q 819 25 488 141 
L 488 750 
Q 750 597 1062 519 
Q 1375 441 1716 441 
Q 2309 441 2620 675 
Q 2931 909 2931 1356 
Q 2931 1769 2642 2001 
Q 2353 2234 1838 2234 
L 1294 2234 
L 1294 2753 
L 1863 2753 
Q 2328 2753 2575 2939 
Q 2822 3125 2822 3475 
Q 2822 3834 2567 4026 
Q 2313 4219 1838 4219 
Q 1578 4219 1281 4162 
Q 984 4106 628 3988 
L 628 4550 
Q 988 4650 1302 4700 
Q 1616 4750 1894 4750 
Q 2613 4750 3031 4423 
Q 3450 4097 3450 3541 
Q 3450 3153 3228 2886 
Q 3006 2619 2597 2516 
z
" transform="scale(0.015625)"/>
     <path id="DejaVuSans-3c3" d="M 1959 3044 
Q 1484 3044 1228 2700 
Q 959 2341 959 1747 
Q 959 1119 1226 758 
Q 1494 397 1959 397 
Q 2419 397 2687 759 
Q 2956 1122 2956 1747 
Q 2956 2319 2688 2700 
Q 2441 3044 1959 3044 
z
M 1959 3500 
L 3869 3500 
L 3869 2925 
L 3225 2925 
Q 3566 2438 3566 1747 
Q 3566 888 3138 400 
Q 2709 -91 1959 -91 
Q 1206 -91 781 400 
Q 353 888 353 1747 
Q 353 2613 781 3097 
Q 1134 3500 1959 3500 
z
" transform="scale(0.015625)"/>
     <path id="DejaVuSans-5f" d="M 3263 -1063 
L 3263 -1509 
L -63 -1509 
L -63 -1063 
L 3263 -1063 
z
" transform="scale(0.015625)"/>
     <path id="DejaVuSans-3b5" d="M 1234 1888 
Q 884 1963 697 2166 
Q 509 2366 509 2656 
Q 509 3097 866 3344 
Q 1219 3588 1831 3588 
Q 2069 3588 2334 3550 
Q 2600 3513 2906 3438 
L 2906 2916 
Q 2603 3006 2353 3047 
Q 2100 3088 1878 3088 
Q 1506 3088 1291 2944 
Q 1072 2800 1072 2600 
Q 1072 2381 1284 2241 
Q 1494 2103 1856 2103 
L 2341 2103 
L 2341 1628 
L 1878 1628 
Q 1450 1628 1225 1469 
Q 981 1294 981 1019 
Q 981 738 1244 563 
Q 1509 388 1981 388 
Q 2272 388 2538 444 
Q 2803 503 3025 619 
L 3025 84 
Q 2744 -3 2481 -47 
Q 2216 -91 1966 -91 
Q 1222 -91 819 194 
Q 416 478 416 1019 
Q 416 1356 631 1584 
Q 847 1813 1234 1888 
z
" transform="scale(0.015625)"/>
    </defs>
    <use xlink:href="#DejaVuSans-4f"/>
    <use xlink:href="#DejaVuSans-62" transform="translate(78.710938 0)"/>
    <use xlink:href="#DejaVuSans-73" transform="translate(142.1875 0)"/>
    <use xlink:href="#DejaVuSans-2e" transform="translate(194.287109 0)"/>
    <use xlink:href="#DejaVuSans-3a" transform="translate(226.074219 0)"/>
    <use xlink:href="#DejaVuSans-20" transform="translate(259.765625 0)"/>
    <use xlink:href="#DejaVuSans-3b2" transform="translate(291.552734 0)"/>
    <use xlink:href="#DejaVuSans-3d" transform="translate(355.371094 0)"/>
    <use xlink:href="#DejaVuSans-30" transform="translate(439.160156 0)"/>
    <use xlink:href="#DejaVuSans-2e" transform="translate(502.783203 0)"/>
    <use xlink:href="#DejaVuSans-39" transform="translate(534.570312 0)"/>
    <use xlink:href="#DejaVuSans-37" transform="translate(598.193359 0)"/>
    <use xlink:href="#DejaVuSans-30" transform="translate(661.816406 0)"/>
    <use xlink:href="#DejaVuSans-39" transform="translate(725.439453 0)"/>
    <use xlink:href="#DejaVuSans-20" transform="translate(789.0625 0)"/>
    <use xlink:href="#DejaVuSans-b7" transform="translate(820.849609 0)"/>
    <use xlink:href="#DejaVuSans-20" transform="translate(852.636719 0)"/>
    <use xlink:href="#DejaVuSans-72" transform="translate(884.423828 0)"/>
    <use xlink:href="#DejaVuSans-3d" transform="translate(925.537109 0)"/>
    <use xlink:href="#DejaVuSans-30" transform="translate(1009.326172 0)"/>
    <use xlink:href="#DejaVuSans-2e" transform="translate(1072.949219 0)"/>
    <use xlink:href="#DejaVuSans-30" transform="translate(1104.736328 0)"/>
    <use xlink:href="#DejaVuSans-33" transform="translate(1168.359375 0)"/>
    <use xlink:href="#DejaVuSans-20" transform="translate(1231.982422 0)"/>
    <use xlink:href="#DejaVuSans-b7" transform="translate(1263.769531 0)"/>
    <use xlink:href="#DejaVuSans-20" transform="translate(1295.556641 0)"/>
    <use xlink:href="#DejaVuSans-3c3" transform="translate(1327.34375 0)"/>
    <use xlink:href="#DejaVuSans-5f" transform="translate(1390.722656 0)"/>
    <use xlink:href="#DejaVuSans-3b5" transform="translate(1440.722656 0)"/>
    <use xlink:href="#DejaVuSans-3d" transform="translate(1494.775391 0)"/>
    <use xlink:href="#DejaVuSans-30" transform="translate(1578.564453 0)"/>
    <use xlink:href="#DejaVuSans-2e" transform="translate(1642.1875 0)"/>
    <use xlink:href="#DejaVuSans-30" transform="translate(1673.974609 0)"/>
    <use xlink:href="#DejaVuSans-35" transform="translate(1737.597656 0)"/>
    <use xlink:href="#DejaVuSans-20" transform="translate(1801.220703 0)"/>
    <use xlink:href="#DejaVuSans-b7" transform="translate(1833.007812 0)"/>
    <use xlink:href="#DejaVuSans-20" transform="translate(1864.794922 0)"/>
    <use xlink:href="#DejaVuSans-36" transform="translate(1896.582031 0)"/>
    <use xlink:href="#DejaVuSans-20" transform="translate(1960.205078 0)"/>
    <use xlink:href="#DejaVuSans-74" transform="translate(1991.992188 0)"/>
    <use xlink:href="#DejaVuSans-72" transform="translate(2031.201172 0)"/>
    <use xlink:href="#DejaVuSans-61" transform="translate(2072.314453 0)"/>
    <use xlink:href="#DejaVuSans-6a" transform="translate(2133.59375 0)"/>
    <use xlink:href="#DejaVuSans-65" transform="translate(2161.376953 0)"/>
    <use xlink:href="#DejaVuSans-74" transform="translate(2222.900391 0)"/>
    <use xlink:href="#DejaVuSans-f3" transform="translate(2262.109375 0)"/>
    <use xlink:href="#DejaVuSans-72" transform="translate(2323.291016 0)"/>
    <use xlink:href="#DejaVuSans-69" transform="translate(2364.404297 0)"/>
    <use xlink:href="#DejaVuSans-61" transform="translate(2392.1875 0)"/>
    <use xlink:href="#DejaVuSans-73" transform="translate(2453.466797 0)"/>
    <use xlink:href="#DejaVuSans-20" transform="translate(2505.566406 0)"/>
    <use xlink:href="#DejaVuSans-73" transform="translate(2537.353516 0)"/>
    <use xlink:href="#DejaVuSans-69" transform="translate(2589.453125 0)"/>
    <use xlink:href="#DejaVuSans-6d" transform="translate(2617.236328 0)"/>
    <use xlink:href="#DejaVuSans-75" transform="translate(2714.648438 0)"/>
    <use xlink:href="#DejaVuSans-6c" transform="translate(2778.027344 0)"/>
    <use xlink:href="#DejaVuSans-61" transform="translate(2805.810547 0)"/>
    <use xlink:href="#DejaVuSans-64" transform="translate(2867.089844 0)"/>
    <use xlink:href="#DejaVuSans-61" transform="translate(2930.566406 0)"/>
    <use xlink:href="#DejaVuSans-73" transform="translate(2991.845703 0)"/>
    <use xlink:href="#DejaVuSans-2e" transform="translate(3043.945312 0)"/>
   </g>
  </g>
 </g>
 <defs>
  <clipPath id="p1d3db53805">
   <rect x="64.15" y="98.125714" width="719.03" height="247.391429"/>
  </clipPath>
 </defs>
</svg>
