<?xml version="1.0" encoding="utf-8" standalone="no"?>
<!DOCTYPE svg PUBLIC "-//W3C//DTD SVG 1.1//EN"
  "http://www.w3.org/Graphics/SVG/1.1/DTD/svg11.dtd">
<svg xmlns:xlink="http://www.w3.org/1999/xlink" width="691.2pt" height="441.36pt" viewBox="0 0 691.2 441.36" xmlns="http://www.w3.org/2000/svg" version="1.1">
 <metadata>
  <rdf:RDF xmlns:dc="http://purl.org/dc/elements/1.1/" xmlns:cc="http://creativecommons.org/ns#" xmlns:rdf="http://www.w3.org/1999/02/22-rdf-syntax-ns#">
   <cc:Work>
    <dc:type rdf:resource="http://purl.org/dc/dcmitype/StillImage"/>
    <dc:date>2026-06-10T15:29:04.566598</dc:date>
    <dc:format>image/svg+xml</dc:format>
    <dc:creator>
     <cc:Agent>
      <dc:title>Matplotlib v3.10.9, https://matplotlib.org/</dc:title>
     </cc:Agent>
    </dc:creator>
   </cc:Work>
  </rdf:RDF>
 </metadata>
 <defs>
  <style type="text/css">*{stroke-linejoin: round; stroke-linecap: butt}</style>
 </defs>
 <g id="figure_1">
  <g id="patch_1">
   <path d="M 0 441.36 
L 691.2 441.36 
L 691.2 0 
L 0 0 
z
" style="fill: #fffcf0"/>
  </g>
  <g id="axes_1">
   <g id="patch_2">
    <path d="M 61.244286 342.945714 
L 676.8 342.945714 
L 676.8 98.125714 
L 61.244286 98.125714 
z
" style="fill: #fffcf0"/>
   </g>
   <g id="patch_3">
    <path d="M 89.224091 342.945714 
L 112.540595 342.945714 
L 112.540595 109.78381 
L 89.224091 109.78381 
z
" clip-path="url(#pb6e8c807f8)" style="fill: #3aa99f; opacity: 0.75; stroke: #fffcf0; stroke-width: 0.6; stroke-linejoin: miter"/>
   </g>
   <g id="patch_4">
    <path d="M 112.540595 342.945714 
L 135.8571 342.945714 
L 135.8571 267.270359 
L 112.540595 267.270359 
z
" clip-path="url(#pb6e8c807f8)" style="fill: #3aa99f; opacity: 0.75; stroke: #fffcf0; stroke-width: 0.6; stroke-linejoin: miter"/>
   </g>
   <g id="patch_5">
    <path d="M 135.8571 342.945714 
L 159.173604 342.945714 
L 159.173604 173.187485 
L 135.8571 173.187485 
z
" clip-path="url(#pb6e8c807f8)" style="fill: #3aa99f; opacity: 0.75; stroke: #fffcf0; stroke-width: 0.6; stroke-linejoin: miter"/>
   </g>
   <g id="patch_6">
    <path d="M 159.173604 342.945714 
L 182.490108 342.945714 
L 182.490108 210.002523 
L 159.173604 210.002523 
z
" clip-path="url(#pb6e8c807f8)" style="fill: #3aa99f; opacity: 0.75; stroke: #fffcf0; stroke-width: 0.6; stroke-linejoin: miter"/>
   </g>
   <g id="patch_7">
    <path d="M 182.490108 342.945714 
L 205.806613 342.945714 
L 205.806613 214.093083 
L 182.490108 214.093083 
z
" clip-path="url(#pb6e8c807f8)" style="fill: #3aa99f; opacity: 0.75; stroke: #fffcf0; stroke-width: 0.6; stroke-linejoin: miter"/>
   </g>
   <g id="patch_8">
    <path d="M 205.806613 342.945714 
L 229.123117 342.945714 
L 229.123117 189.549724 
L 205.806613 189.549724 
z
" clip-path="url(#pb6e8c807f8)" style="fill: #3aa99f; opacity: 0.75; stroke: #fffcf0; stroke-width: 0.6; stroke-linejoin: miter"/>
   </g>
   <g id="patch_9">
    <path d="M 229.123117 342.945714 
L 252.439621 342.945714 
L 252.439621 226.364762 
L 229.123117 226.364762 
z
" clip-path="url(#pb6e8c807f8)" style="fill: #3aa99f; opacity: 0.75; stroke: #fffcf0; stroke-width: 0.6; stroke-linejoin: miter"/>
   </g>
   <g id="patch_10">
    <path d="M 252.439621 342.945714 
L 275.756126 342.945714 
L 275.756126 281.587318 
L 252.439621 281.587318 
z
" clip-path="url(#pb6e8c807f8)" style="fill: #3aa99f; opacity: 0.75; stroke: #fffcf0; stroke-width: 0.6; stroke-linejoin: miter"/>
   </g>
   <g id="patch_11">
    <path d="M 275.756126 342.945714 
L 299.07263 342.945714 
L 299.07263 246.817561 
L 275.756126 246.817561 
z
" clip-path="url(#pb6e8c807f8)" style="fill: #3aa99f; opacity: 0.75; stroke: #fffcf0; stroke-width: 0.6; stroke-linejoin: miter"/>
   </g>
   <g id="patch_12">
    <path d="M 299.07263 342.945714 
L 322.389134 342.945714 
L 322.389134 302.040117 
L 299.07263 302.040117 
z
" clip-path="url(#pb6e8c807f8)" style="fill: #3aa99f; opacity: 0.75; stroke: #fffcf0; stroke-width: 0.6; stroke-linejoin: miter"/>
   </g>
   <g id="patch_13">
    <path d="M 322.389134 342.945714 
L 345.705639 342.945714 
L 345.705639 271.360919 
L 322.389134 271.360919 
z
" clip-path="url(#pb6e8c807f8)" style="fill: #3aa99f; opacity: 0.75; stroke: #fffcf0; stroke-width: 0.6; stroke-linejoin: miter"/>
   </g>
   <g id="patch_14">
    <path d="M 345.705639 342.945714 
L 369.022143 342.945714 
L 369.022143 299.994837 
L 345.705639 299.994837 
z
" clip-path="url(#pb6e8c807f8)" style="fill: #3aa99f; opacity: 0.75; stroke: #fffcf0; stroke-width: 0.6; stroke-linejoin: miter"/>
   </g>
   <g id="patch_15">
    <path d="M 369.022143 342.945714 
L 392.338647 342.945714 
L 392.338647 283.632598 
L 369.022143 283.632598 
z
" clip-path="url(#pb6e8c807f8)" style="fill: #3aa99f; opacity: 0.75; stroke: #fffcf0; stroke-width: 0.6; stroke-linejoin: miter"/>
   </g>
   <g id="patch_16">
    <path d="M 392.338647 342.945714 
L 415.655152 342.945714 
L 415.655152 304.085397 
L 392.338647 304.085397 
z
" clip-path="url(#pb6e8c807f8)" style="fill: #3aa99f; opacity: 0.75; stroke: #fffcf0; stroke-width: 0.6; stroke-linejoin: miter"/>
   </g>
   <g id="patch_17">
    <path d="M 415.655152 342.945714 
L 438.971656 342.945714 
L 438.971656 320.447636 
L 415.655152 320.447636 
z
" clip-path="url(#pb6e8c807f8)" style="fill: #3aa99f; opacity: 0.75; stroke: #fffcf0; stroke-width: 0.6; stroke-linejoin: miter"/>
   </g>
   <g id="patch_18">
    <path d="M 438.971656 342.945714 
L 462.28816 342.945714 
L 462.28816 320.447636 
L 438.971656 320.447636 
z
" clip-path="url(#pb6e8c807f8)" style="fill: #3aa99f; opacity: 0.75; stroke: #fffcf0; stroke-width: 0.6; stroke-linejoin: miter"/>
   </g>
   <g id="patch_19">
    <path d="M 462.28816 342.945714 
L 485.604665 342.945714 
L 485.604665 320.447636 
L 462.28816 320.447636 
z
" clip-path="url(#pb6e8c807f8)" style="fill: #3aa99f; opacity: 0.75; stroke: #fffcf0; stroke-width: 0.6; stroke-linejoin: miter"/>
   </g>
   <g id="patch_20">
    <path d="M 485.604665 342.945714 
L 508.921169 342.945714 
L 508.921169 306.130677 
L 485.604665 306.130677 
z
" clip-path="url(#pb6e8c807f8)" style="fill: #3aa99f; opacity: 0.75; stroke: #fffcf0; stroke-width: 0.6; stroke-linejoin: miter"/>
   </g>
   <g id="patch_21">
    <path d="M 508.921169 342.945714 
L 532.237673 342.945714 
L 532.237673 314.311796 
L 508.921169 314.311796 
z
" clip-path="url(#pb6e8c807f8)" style="fill: #3aa99f; opacity: 0.75; stroke: #fffcf0; stroke-width: 0.6; stroke-linejoin: miter"/>
   </g>
   <g id="patch_22">
    <path d="M 532.237673 342.945714 
L 555.554177 342.945714 
L 555.554177 328.628755 
L 532.237673 328.628755 
z
" clip-path="url(#pb6e8c807f8)" style="fill: #3aa99f; opacity: 0.75; stroke: #fffcf0; stroke-width: 0.6; stroke-linejoin: miter"/>
   </g>
   <g id="patch_23">
    <path d="M 555.554177 342.945714 
L 578.870682 342.945714 
L 578.870682 330.674035 
L 555.554177 330.674035 
z
" clip-path="url(#pb6e8c807f8)" style="fill: #3aa99f; opacity: 0.75; stroke: #fffcf0; stroke-width: 0.6; stroke-linejoin: miter"/>
   </g>
   <g id="patch_24">
    <path d="M 578.870682 342.945714 
L 602.187186 342.945714 
L 602.187186 328.628755 
L 578.870682 328.628755 
z
" clip-path="url(#pb6e8c807f8)" style="fill: #3aa99f; opacity: 0.75; stroke: #fffcf0; stroke-width: 0.6; stroke-linejoin: miter"/>
   </g>
   <g id="patch_25">
    <path d="M 602.187186 342.945714 
L 625.50369 342.945714 
L 625.50369 326.583475 
L 602.187186 326.583475 
z
" clip-path="url(#pb6e8c807f8)" style="fill: #3aa99f; opacity: 0.75; stroke: #fffcf0; stroke-width: 0.6; stroke-linejoin: miter"/>
   </g>
   <g id="patch_26">
    <path d="M 625.50369 342.945714 
L 648.820195 342.945714 
L 648.820195 318.402356 
L 625.50369 318.402356 
z
" clip-path="url(#pb6e8c807f8)" style="fill: #3aa99f; opacity: 0.75; stroke: #fffcf0; stroke-width: 0.6; stroke-linejoin: miter"/>
   </g>
   <g id="matplotlib.axis_1">
    <g id="xtick_1">
     <g id="line2d_1"/>
     <g id="text_1">
      <!-- 0 -->
      <g style="fill: #6f6e69" transform="translate(85.883778 356.924074) scale(0.105 -0.105)">
       <defs>
        <path id="DejaVuSans-30" d="M 2034 4250 
Q 1547 4250 1301 3770 
Q 1056 3291 1056 2328 
Q 1056 1369 1301 889 
Q 1547 409 2034 409 
Q 2525 409 2770 889 
Q 3016 1369 3016 2328 
Q 3016 3291 2770 3770 
Q 2525 4250 2034 4250 
z
M 2034 4750 
Q 2819 4750 3233 4129 
Q 3647 3509 3647 2328 
Q 3647 1150 3233 529 
Q 2819 -91 2034 -91 
Q 1250 -91 836 529 
Q 422 1150 422 2328 
Q 422 3509 836 4129 
Q 1250 4750 2034 4750 
z
" transform="scale(0.015625)"/>
       </defs>
       <use xlink:href="#DejaVuSans-30"/>
      </g>
     </g>
    </g>
    <g id="xtick_2">
     <g id="line2d_2"/>
     <g id="text_2">
      <!-- 2 -->
      <g style="fill: #6f6e69" transform="translate(201.729989 356.924074) scale(0.105 -0.105)">
       <defs>
        <path id="DejaVuSans-32" d="M 1228 531 
L 3431 531 
L 3431 0 
L 469 0 
L 469 531 
Q 828 903 1448 1529 
Q 2069 2156 2228 2338 
Q 2531 2678 2651 2914 
Q 2772 3150 2772 3378 
Q 2772 3750 2511 3984 
Q 2250 4219 1831 4219 
Q 1534 4219 1204 4116 
Q 875 4013 500 3803 
L 500 4441 
Q 881 4594 1212 4672 
Q 1544 4750 1819 4750 
Q 2544 4750 2975 4387 
Q 3406 4025 3406 3419 
Q 3406 3131 3298 2873 
Q 3191 2616 2906 2266 
Q 2828 2175 2409 1742 
Q 1991 1309 1228 531 
z
" transform="scale(0.015625)"/>
       </defs>
       <use xlink:href="#DejaVuSans-32"/>
      </g>
     </g>
    </g>
    <g id="xtick_3">
     <g id="line2d_3"/>
     <g id="text_3">
      <!-- 4 -->
      <g style="fill: #6f6e69" transform="translate(317.5762 356.924074) scale(0.105 -0.105)">
       <defs>
        <path id="DejaVuSans-34" d="M 2419 4116 
L 825 1625 
L 2419 1625 
L 2419 4116 
z
M 2253 4666 
L 3047 4666 
L 3047 1625 
L 3713 1625 
L 3713 1100 
L 3047 1100 
L 3047 0 
L 2419 0 
L 2419 1100 
L 313 1100 
L 313 1709 
L 2253 4666 
z
" transform="scale(0.015625)"/>
       </defs>
       <use xlink:href="#DejaVuSans-34"/>
      </g>
     </g>
    </g>
    <g id="xtick_4">
     <g id="line2d_4"/>
     <g id="text_4">
      <!-- 6 -->
      <g style="fill: #6f6e69" transform="translate(433.422411 356.924074) scale(0.105 -0.105)">
       <defs>
        <path id="DejaVuSans-36" d="M 2113 2584 
Q 1688 2584 1439 2293 
Q 1191 2003 1191 1497 
Q 1191 994 1439 701 
Q 1688 409 2113 409 
Q 2538 409 2786 701 
Q 3034 994 3034 1497 
Q 3034 2003 2786 2293 
Q 2538 2584 2113 2584 
z
M 3366 4563 
L 3366 3988 
Q 3128 4100 2886 4159 
Q 2644 4219 2406 4219 
Q 1781 4219 1451 3797 
Q 1122 3375 1075 2522 
Q 1259 2794 1537 2939 
Q 1816 3084 2150 3084 
Q 2853 3084 3261 2657 
Q 3669 2231 3669 1497 
Q 3669 778 3244 343 
Q 2819 -91 2113 -91 
Q 1303 -91 875 529 
Q 447 1150 447 2328 
Q 447 3434 972 4092 
Q 1497 4750 2381 4750 
Q 2619 4750 2861 4703 
Q 3103 4656 3366 4563 
z
" transform="scale(0.015625)"/>
       </defs>
       <use xlink:href="#DejaVuSans-36"/>
      </g>
     </g>
    </g>
    <g id="xtick_5">
     <g id="line2d_5"/>
     <g id="text_5">
      <!-- 8 -->
      <g style="fill: #6f6e69" transform="translate(549.268622 356.924074) scale(0.105 -0.105)">
       <defs>
        <path id="DejaVuSans-38" d="M 2034 2216 
Q 1584 2216 1326 1975 
Q 1069 1734 1069 1313 
Q 1069 891 1326 650 
Q 1584 409 2034 409 
Q 2484 409 2743 651 
Q 3003 894 3003 1313 
Q 3003 1734 2745 1975 
Q 2488 2216 2034 2216 
z
M 1403 2484 
Q 997 2584 770 2862 
Q 544 3141 544 3541 
Q 544 4100 942 4425 
Q 1341 4750 2034 4750 
Q 2731 4750 3128 4425 
Q 3525 4100 3525 3541 
Q 3525 3141 3298 2862 
Q 3072 2584 2669 2484 
Q 3125 2378 3379 2068 
Q 3634 1759 3634 1313 
Q 3634 634 3220 271 
Q 2806 -91 2034 -91 
Q 1263 -91 848 271 
Q 434 634 434 1313 
Q 434 1759 690 2068 
Q 947 2378 1403 2484 
z
M 1172 3481 
Q 1172 3119 1398 2916 
Q 1625 2713 2034 2713 
Q 2441 2713 2670 2916 
Q 2900 3119 2900 3481 
Q 2900 3844 2670 4047 
Q 2441 4250 2034 4250 
Q 1625 4250 1398 4047 
Q 1172 3844 1172 3481 
z
" transform="scale(0.015625)"/>
       </defs>
       <use xlink:href="#DejaVuSans-38"/>
      </g>
     </g>
    </g>
    <g id="xtick_6">
     <g id="line2d_6"/>
     <g id="text_6">
      <!-- 10 -->
      <g style="fill: #6f6e69" transform="translate(661.774521 356.924074) scale(0.105 -0.105)">
       <defs>
        <path id="DejaVuSans-31" d="M 794 531 
L 1825 531 
L 1825 4091 
L 703 3866 
L 703 4441 
L 1819 4666 
L 2450 4666 
L 2450 531 
L 3481 531 
L 3481 0 
L 794 0 
L 794 531 
z
" transform="scale(0.015625)"/>
       </defs>
       <use xlink:href="#DejaVuSans-31"/>
       <use xlink:href="#DejaVuSans-30" transform="translate(63.623047 0)"/>
      </g>
     </g>
    </g>
    <g id="text_7">
     <!-- Ativos $a$ (estado estacionário ergódico) -->
     <g style="fill: #1c1b1a" transform="translate(266.069643 377.507746) scale(0.105 -0.105)">
      <defs>
       <path id="DejaVuSans-41" d="M 2188 4044 
L 1331 1722 
L 3047 1722 
L 2188 4044 
z
M 1831 4666 
L 2547 4666 
L 4325 0 
L 3669 0 
L 3244 1197 
L 1141 1197 
L 716 0 
L 50 0 
L 1831 4666 
z
" transform="scale(0.015625)"/>
       <path id="DejaVuSans-74" d="M 1172 4494 
L 1172 3500 
L 2356 3500 
L 2356 3053 
L 1172 3053 
L 1172 1153 
Q 1172 725 1289 603 
Q 1406 481 1766 481 
L 2356 481 
L 2356 0 
L 1766 0 
Q 1100 0 847 248 
Q 594 497 594 1153 
L 594 3053 
L 172 3053 
L 172 3500 
L 594 3500 
L 594 4494 
L 1172 4494 
z
" transform="scale(0.015625)"/>
       <path id="DejaVuSans-69" d="M 603 3500 
L 1178 3500 
L 1178 0 
L 603 0 
L 603 3500 
z
M 603 4863 
L 1178 4863 
L 1178 4134 
L 603 4134 
L 603 4863 
z
" transform="scale(0.015625)"/>
       <path id="DejaVuSans-76" d="M 191 3500 
L 800 3500 
L 1894 563 
L 2988 3500 
L 3597 3500 
L 2284 0 
L 1503 0 
L 191 3500 
z
" transform="scale(0.015625)"/>
       <path id="DejaVuSans-6f" d="M 1959 3097 
Q 1497 3097 1228 2736 
Q 959 2375 959 1747 
Q 959 1119 1226 758 
Q 1494 397 1959 397 
Q 2419 397 2687 759 
Q 2956 1122 2956 1747 
Q 2956 2369 2687 2733 
Q 2419 3097 1959 3097 
z
M 1959 3584 
Q 2709 3584 3137 3096 
Q 3566 2609 3566 1747 
Q 3566 888 3137 398 
Q 2709 -91 1959 -91 
Q 1206 -91 779 398 
Q 353 888 353 1747 
Q 353 2609 779 3096 
Q 1206 3584 1959 3584 
z
" transform="scale(0.015625)"/>
       <path id="DejaVuSans-73" d="M 2834 3397 
L 2834 2853 
Q 2591 2978 2328 3040 
Q 2066 3103 1784 3103 
Q 1356 3103 1142 2972 
Q 928 2841 928 2578 
Q 928 2378 1081 2264 
Q 1234 2150 1697 2047 
L 1894 2003 
Q 2506 1872 2764 1633 
Q 3022 1394 3022 966 
Q 3022 478 2636 193 
Q 2250 -91 1575 -91 
Q 1294 -91 989 -36 
Q 684 19 347 128 
L 347 722 
Q 666 556 975 473 
Q 1284 391 1588 391 
Q 1994 391 2212 530 
Q 2431 669 2431 922 
Q 2431 1156 2273 1281 
Q 2116 1406 1581 1522 
L 1381 1569 
Q 847 1681 609 1914 
Q 372 2147 372 2553 
Q 372 3047 722 3315 
Q 1072 3584 1716 3584 
Q 2034 3584 2315 3537 
Q 2597 3491 2834 3397 
z
" transform="scale(0.015625)"/>
       <path id="DejaVuSans-20" transform="scale(0.015625)"/>
       <path id="DejaVuSans-Oblique-61" d="M 3438 1997 
L 3047 0 
L 2472 0 
L 2578 531 
Q 2325 219 2001 64 
Q 1678 -91 1281 -91 
Q 834 -91 548 182 
Q 263 456 263 884 
Q 263 1497 752 1853 
Q 1241 2209 2100 2209 
L 2900 2209 
L 2931 2363 
Q 2938 2388 2941 2417 
Q 2944 2447 2944 2509 
Q 2944 2788 2717 2942 
Q 2491 3097 2081 3097 
Q 1800 3097 1504 3025 
Q 1209 2953 897 2809 
L 997 3341 
Q 1322 3463 1633 3523 
Q 1944 3584 2234 3584 
Q 2853 3584 3176 3315 
Q 3500 3047 3500 2534 
Q 3500 2431 3484 2292 
Q 3469 2153 3438 1997 
z
M 2816 1759 
L 2241 1759 
Q 1534 1759 1195 1570 
Q 856 1381 856 984 
Q 856 709 1029 553 
Q 1203 397 1509 397 
Q 1978 397 2328 733 
Q 2678 1069 2791 1631 
L 2816 1759 
z
" transform="scale(0.015625)"/>
       <path id="DejaVuSans-28" d="M 1984 4856 
Q 1566 4138 1362 3434 
Q 1159 2731 1159 2009 
Q 1159 1288 1364 580 
Q 1569 -128 1984 -844 
L 1484 -844 
Q 1016 -109 783 600 
Q 550 1309 550 2009 
Q 550 2706 781 3412 
Q 1013 4119 1484 4856 
L 1984 4856 
z
" transform="scale(0.015625)"/>
       <path id="DejaVuSans-65" d="M 3597 1894 
L 3597 1613 
L 953 1613 
Q 991 1019 1311 708 
Q 1631 397 2203 397 
Q 2534 397 2845 478 
Q 3156 559 3463 722 
L 3463 178 
Q 3153 47 2828 -22 
Q 2503 -91 2169 -91 
Q 1331 -91 842 396 
Q 353 884 353 1716 
Q 353 2575 817 3079 
Q 1281 3584 2069 3584 
Q 2775 3584 3186 3129 
Q 3597 2675 3597 1894 
z
M 3022 2063 
Q 3016 2534 2758 2815 
Q 2500 3097 2075 3097 
Q 1594 3097 1305 2825 
Q 1016 2553 972 2059 
L 3022 2063 
z
" transform="scale(0.015625)"/>
       <path id="DejaVuSans-61" d="M 2194 1759 
Q 1497 1759 1228 1600 
Q 959 1441 959 1056 
Q 959 750 1161 570 
Q 1363 391 1709 391 
Q 2188 391 2477 730 
Q 2766 1069 2766 1631 
L 2766 1759 
L 2194 1759 
z
M 3341 1997 
L 3341 0 
L 2766 0 
L 2766 531 
Q 2569 213 2275 61 
Q 1981 -91 1556 -91 
Q 1019 -91 701 211 
Q 384 513 384 1019 
Q 384 1609 779 1909 
Q 1175 2209 1959 2209 
L 2766 2209 
L 2766 2266 
Q 2766 2663 2505 2880 
Q 2244 3097 1772 3097 
Q 1472 3097 1187 3025 
Q 903 2953 641 2809 
L 641 3341 
Q 956 3463 1253 3523 
Q 1550 3584 1831 3584 
Q 2591 3584 2966 3190 
Q 3341 2797 3341 1997 
z
" transform="scale(0.015625)"/>
       <path id="DejaVuSans-64" d="M 2906 2969 
L 2906 4863 
L 3481 4863 
L 3481 0 
L 2906 0 
L 2906 525 
Q 2725 213 2448 61 
Q 2172 -91 1784 -91 
Q 1150 -91 751 415 
Q 353 922 353 1747 
Q 353 2572 751 3078 
Q 1150 3584 1784 3584 
Q 2172 3584 2448 3432 
Q 2725 3281 2906 2969 
z
M 947 1747 
Q 947 1113 1208 752 
Q 1469 391 1925 391 
Q 2381 391 2643 752 
Q 2906 1113 2906 1747 
Q 2906 2381 2643 2742 
Q 2381 3103 1925 3103 
Q 1469 3103 1208 2742 
Q 947 2381 947 1747 
z
" transform="scale(0.015625)"/>
       <path id="DejaVuSans-63" d="M 3122 3366 
L 3122 2828 
Q 2878 2963 2633 3030 
Q 2388 3097 2138 3097 
Q 1578 3097 1268 2742 
Q 959 2388 959 1747 
Q 959 1106 1268 751 
Q 1578 397 2138 397 
Q 2388 397 2633 464 
Q 2878 531 3122 666 
L 3122 134 
Q 2881 22 2623 -34 
Q 2366 -91 2075 -91 
Q 1284 -91 818 406 
Q 353 903 353 1747 
Q 353 2603 823 3093 
Q 1294 3584 2113 3584 
Q 2378 3584 2631 3529 
Q 2884 3475 3122 3366 
z
" transform="scale(0.015625)"/>
       <path id="DejaVuSans-6e" d="M 3513 2113 
L 3513 0 
L 2938 0 
L 2938 2094 
Q 2938 2591 2744 2837 
Q 2550 3084 2163 3084 
Q 1697 3084 1428 2787 
Q 1159 2491 1159 1978 
L 1159 0 
L 581 0 
L 581 3500 
L 1159 3500 
L 1159 2956 
Q 1366 3272 1645 3428 
Q 1925 3584 2291 3584 
Q 2894 3584 3203 3211 
Q 3513 2838 3513 2113 
z
" transform="scale(0.015625)"/>
       <path id="DejaVuSans-e1" d="M 2194 1759 
Q 1497 1759 1228 1600 
Q 959 1441 959 1056 
Q 959 750 1161 570 
Q 1363 391 1709 391 
Q 2188 391 2477 730 
Q 2766 1069 2766 1631 
L 2766 1759 
L 2194 1759 
z
M 3341 1997 
L 3341 0 
L 2766 0 
L 2766 531 
Q 2569 213 2275 61 
Q 1981 -91 1556 -91 
Q 1019 -91 701 211 
Q 384 513 384 1019 
Q 384 1609 779 1909 
Q 1175 2209 1959 2209 
L 2766 2209 
L 2766 2266 
Q 2766 2663 2505 2880 
Q 2244 3097 1772 3097 
Q 1472 3097 1187 3025 
Q 903 2953 641 2809 
L 641 3341 
Q 956 3463 1253 3523 
Q 1550 3584 1831 3584 
Q 2591 3584 2966 3190 
Q 3341 2797 3341 1997 
z
M 2290 5119 
L 2912 5119 
L 1894 3944 
L 1415 3944 
L 2290 5119 
z
" transform="scale(0.015625)"/>
       <path id="DejaVuSans-72" d="M 2631 2963 
Q 2534 3019 2420 3045 
Q 2306 3072 2169 3072 
Q 1681 3072 1420 2755 
Q 1159 2438 1159 1844 
L 1159 0 
L 581 0 
L 581 3500 
L 1159 3500 
L 1159 2956 
Q 1341 3275 1631 3429 
Q 1922 3584 2338 3584 
Q 2397 3584 2469 3576 
Q 2541 3569 2628 3553 
L 2631 2963 
z
" transform="scale(0.015625)"/>
       <path id="DejaVuSans-67" d="M 2906 1791 
Q 2906 2416 2648 2759 
Q 2391 3103 1925 3103 
Q 1463 3103 1205 2759 
Q 947 2416 947 1791 
Q 947 1169 1205 825 
Q 1463 481 1925 481 
Q 2391 481 2648 825 
Q 2906 1169 2906 1791 
z
M 3481 434 
Q 3481 -459 3084 -895 
Q 2688 -1331 1869 -1331 
Q 1566 -1331 1297 -1286 
Q 1028 -1241 775 -1147 
L 775 -588 
Q 1028 -725 1275 -790 
Q 1522 -856 1778 -856 
Q 2344 -856 2625 -561 
Q 2906 -266 2906 331 
L 2906 616 
Q 2728 306 2450 153 
Q 2172 0 1784 0 
Q 1141 0 747 490 
Q 353 981 353 1791 
Q 353 2603 747 3093 
Q 1141 3584 1784 3584 
Q 2172 3584 2450 3431 
Q 2728 3278 2906 2969 
L 2906 3500 
L 3481 3500 
L 3481 434 
z
" transform="scale(0.015625)"/>
       <path id="DejaVuSans-f3" d="M 1959 3097 
Q 1497 3097 1228 2736 
Q 959 2375 959 1747 
Q 959 1119 1226 758 
Q 1494 397 1959 397 
Q 2419 397 2687 759 
Q 2956 1122 2956 1747 
Q 2956 2369 2687 2733 
Q 2419 3097 1959 3097 
z
M 1959 3584 
Q 2709 3584 3137 3096 
Q 3566 2609 3566 1747 
Q 3566 888 3137 398 
Q 2709 -91 1959 -91 
Q 1206 -91 779 398 
Q 353 888 353 1747 
Q 353 2609 779 3096 
Q 1206 3584 1959 3584 
z
M 2394 5119 
L 3016 5119 
L 1998 3944 
L 1519 3944 
L 2394 5119 
z
" transform="scale(0.015625)"/>
       <path id="DejaVuSans-29" d="M 513 4856 
L 1013 4856 
Q 1481 4119 1714 3412 
Q 1947 2706 1947 2009 
Q 1947 1309 1714 600 
Q 1481 -109 1013 -844 
L 513 -844 
Q 928 -128 1133 580 
Q 1338 1288 1338 2009 
Q 1338 2731 1133 3434 
Q 928 4138 513 4856 
z
" transform="scale(0.015625)"/>
      </defs>
      <use xlink:href="#DejaVuSans-41" transform="translate(0 0.015625)"/>
      <use xlink:href="#DejaVuSans-74" transform="translate(68.408203 0.015625)"/>
      <use xlink:href="#DejaVuSans-69" transform="translate(107.617188 0.015625)"/>
      <use xlink:href="#DejaVuSans-76" transform="translate(135.400391 0.015625)"/>
      <use xlink:href="#DejaVuSans-6f" transform="translate(194.580078 0.015625)"/>
      <use xlink:href="#DejaVuSans-73" transform="translate(255.761719 0.015625)"/>
      <use xlink:href="#DejaVuSans-20" transform="translate(307.861328 0.015625)"/>
      <use xlink:href="#DejaVuSans-Oblique-61" transform="translate(339.648438 0.015625)"/>
      <use xlink:href="#DejaVuSans-20" transform="translate(400.927734 0.015625)"/>
      <use xlink:href="#DejaVuSans-28" transform="translate(432.714844 0.015625)"/>
      <use xlink:href="#DejaVuSans-65" transform="translate(471.728516 0.015625)"/>
      <use xlink:href="#DejaVuSans-73" transform="translate(533.251953 0.015625)"/>
      <use xlink:href="#DejaVuSans-74" transform="translate(585.351562 0.015625)"/>
      <use xlink:href="#DejaVuSans-61" transform="translate(624.560547 0.015625)"/>
      <use xlink:href="#DejaVuSans-64" transform="translate(685.839844 0.015625)"/>
      <use xlink:href="#DejaVuSans-6f" transform="translate(749.316406 0.015625)"/>
      <use xlink:href="#DejaVuSans-20" transform="translate(810.498047 0.015625)"/>
      <use xlink:href="#DejaVuSans-65" transform="translate(842.285156 0.015625)"/>
      <use xlink:href="#DejaVuSans-73" transform="translate(903.808594 0.015625)"/>
      <use xlink:href="#DejaVuSans-74" transform="translate(955.908203 0.015625)"/>
      <use xlink:href="#DejaVuSans-61" transform="translate(995.117188 0.015625)"/>
      <use xlink:href="#DejaVuSans-63" transform="translate(1056.396484 0.015625)"/>
      <use xlink:href="#DejaVuSans-69" transform="translate(1111.376953 0.015625)"/>
      <use xlink:href="#DejaVuSans-6f" transform="translate(1139.160156 0.015625)"/>
      <use xlink:href="#DejaVuSans-6e" transform="translate(1200.341797 0.015625)"/>
      <use xlink:href="#DejaVuSans-e1" transform="translate(1263.720703 0.015625)"/>
      <use xlink:href="#DejaVuSans-72" transform="translate(1325 0.015625)"/>
      <use xlink:href="#DejaVuSans-69" transform="translate(1366.113281 0.015625)"/>
      <use xlink:href="#DejaVuSans-6f" transform="translate(1393.896484 0.015625)"/>
      <use xlink:href="#DejaVuSans-20" transform="translate(1455.078125 0.015625)"/>
      <use xlink:href="#DejaVuSans-65" transform="translate(1486.865234 0.015625)"/>
      <use xlink:href="#DejaVuSans-72" transform="translate(1548.388672 0.015625)"/>
      <use xlink:href="#DejaVuSans-67" transform="translate(1589.501953 0.015625)"/>
      <use xlink:href="#DejaVuSans-f3" transform="translate(1652.978516 0.015625)"/>
      <use xlink:href="#DejaVuSans-64" transform="translate(1714.160156 0.015625)"/>
      <use xlink:href="#DejaVuSans-69" transform="translate(1777.636719 0.015625)"/>
      <use xlink:href="#DejaVuSans-63" transform="translate(1805.419922 0.015625)"/>
      <use xlink:href="#DejaVuSans-6f" transform="translate(1860.400391 0.015625)"/>
      <use xlink:href="#DejaVuSans-29" transform="translate(1921.582031 0.015625)"/>
     </g>
    </g>
   </g>
   <g id="matplotlib.axis_2">
    <g id="ytick_1">
     <g id="line2d_7">
      <path d="M 61.244286 342.945714 
L 676.8 342.945714 
" clip-path="url(#pb6e8c807f8)" style="fill: none; stroke: #cecdc3; stroke-opacity: 0.9; stroke-width: 0.9; stroke-linecap: square"/>
     </g>
     <g id="line2d_8"/>
     <g id="text_8">
      <!-- 0 -->
      <g style="fill: #6f6e69" transform="translate(48.563661 346.934894) scale(0.105 -0.105)">
       <use xlink:href="#DejaVuSans-30"/>
      </g>
     </g>
    </g>
    <g id="ytick_2">
     <g id="line2d_9">
      <path d="M 61.244286 302.040117 
L 676.8 302.040117 
" clip-path="url(#pb6e8c807f8)" style="fill: none; stroke: #cecdc3; stroke-opacity: 0.9; stroke-width: 0.9; stroke-linecap: square"/>
     </g>
     <g id="line2d_10"/>
     <g id="text_9">
      <!-- 20 -->
      <g style="fill: #6f6e69" transform="translate(41.883036 306.029297) scale(0.105 -0.105)">
       <use xlink:href="#DejaVuSans-32"/>
       <use xlink:href="#DejaVuSans-30" transform="translate(63.623047 0)"/>
      </g>
     </g>
    </g>
    <g id="ytick_3">
     <g id="line2d_11">
      <path d="M 61.244286 261.13452 
L 676.8 261.13452 
" clip-path="url(#pb6e8c807f8)" style="fill: none; stroke: #cecdc3; stroke-opacity: 0.9; stroke-width: 0.9; stroke-linecap: square"/>
     </g>
     <g id="line2d_12"/>
     <g id="text_10">
      <!-- 40 -->
      <g style="fill: #6f6e69" transform="translate(41.883036 265.123699) scale(0.105 -0.105)">
       <use xlink:href="#DejaVuSans-34"/>
       <use xlink:href="#DejaVuSans-30" transform="translate(63.623047 0)"/>
      </g>
     </g>
    </g>
    <g id="ytick_4">
     <g id="line2d_13">
      <path d="M 61.244286 220.228922 
L 676.8 220.228922 
" clip-path="url(#pb6e8c807f8)" style="fill: none; stroke: #cecdc3; stroke-opacity: 0.9; stroke-width: 0.9; stroke-linecap: square"/>
     </g>
     <g id="line2d_14"/>
     <g id="text_11">
      <!-- 60 -->
      <g style="fill: #6f6e69" transform="translate(41.883036 224.218102) scale(0.105 -0.105)">
       <use xlink:href="#DejaVuSans-36"/>
       <use xlink:href="#DejaVuSans-30" transform="translate(63.623047 0)"/>
      </g>
     </g>
    </g>
    <g id="ytick_5">
     <g id="line2d_15">
      <path d="M 61.244286 179.323325 
L 676.8 179.323325 
" clip-path="url(#pb6e8c807f8)" style="fill: none; stroke: #cecdc3; stroke-opacity: 0.9; stroke-width: 0.9; stroke-linecap: square"/>
     </g>
     <g id="line2d_16"/>
     <g id="text_12">
      <!-- 80 -->
      <g style="fill: #6f6e69" transform="translate(41.883036 183.312505) scale(0.105 -0.105)">
       <use xlink:href="#DejaVuSans-38"/>
       <use xlink:href="#DejaVuSans-30" transform="translate(63.623047 0)"/>
      </g>
     </g>
    </g>
    <g id="ytick_6">
     <g id="line2d_17">
      <path d="M 61.244286 138.417728 
L 676.8 138.417728 
" clip-path="url(#pb6e8c807f8)" style="fill: none; stroke: #cecdc3; stroke-opacity: 0.9; stroke-width: 0.9; stroke-linecap: square"/>
     </g>
     <g id="line2d_18"/>
     <g id="text_13">
      <!-- 100 -->
      <g style="fill: #6f6e69" transform="translate(35.202411 142.406907) scale(0.105 -0.105)">
       <use xlink:href="#DejaVuSans-31"/>
       <use xlink:href="#DejaVuSans-30" transform="translate(63.623047 0)"/>
       <use xlink:href="#DejaVuSans-30" transform="translate(127.246094 0)"/>
      </g>
     </g>
    </g>
    <g id="text_14">
     <!-- Número de famílias -->
     <g style="fill: #1c1b1a" transform="translate(23.018739 271.794581) rotate(-90) scale(0.105 -0.105)">
      <defs>
       <path id="DejaVuSans-4e" d="M 628 4666 
L 1478 4666 
L 3547 763 
L 3547 4666 
L 4159 4666 
L 4159 0 
L 3309 0 
L 1241 3903 
L 1241 0 
L 628 0 
L 628 4666 
z
" transform="scale(0.015625)"/>
       <path id="DejaVuSans-fa" d="M 544 1381 
L 544 3500 
L 1119 3500 
L 1119 1403 
Q 1119 906 1312 657 
Q 1506 409 1894 409 
Q 2359 409 2629 706 
Q 2900 1003 2900 1516 
L 2900 3500 
L 3475 3500 
L 3475 0 
L 2900 0 
L 2900 538 
Q 2691 219 2414 64 
Q 2138 -91 1772 -91 
Q 1169 -91 856 284 
Q 544 659 544 1381 
z
M 1991 3584 
L 1991 3584 
z
M 2418 5119 
L 3040 5119 
L 2022 3944 
L 1543 3944 
L 2418 5119 
z
" transform="scale(0.015625)"/>
       <path id="DejaVuSans-6d" d="M 3328 2828 
Q 3544 3216 3844 3400 
Q 4144 3584 4550 3584 
Q 5097 3584 5394 3201 
Q 5691 2819 5691 2113 
L 5691 0 
L 5113 0 
L 5113 2094 
Q 5113 2597 4934 2840 
Q 4756 3084 4391 3084 
Q 3944 3084 3684 2787 
Q 3425 2491 3425 1978 
L 3425 0 
L 2847 0 
L 2847 2094 
Q 2847 2600 2669 2842 
Q 2491 3084 2119 3084 
Q 1678 3084 1418 2786 
Q 1159 2488 1159 1978 
L 1159 0 
L 581 0 
L 581 3500 
L 1159 3500 
L 1159 2956 
Q 1356 3278 1631 3431 
Q 1906 3584 2284 3584 
Q 2666 3584 2933 3390 
Q 3200 3197 3328 2828 
z
" transform="scale(0.015625)"/>
       <path id="DejaVuSans-66" d="M 2375 4863 
L 2375 4384 
L 1825 4384 
Q 1516 4384 1395 4259 
Q 1275 4134 1275 3809 
L 1275 3500 
L 2222 3500 
L 2222 3053 
L 1275 3053 
L 1275 0 
L 697 0 
L 697 3053 
L 147 3053 
L 147 3500 
L 697 3500 
L 697 3744 
Q 697 4328 969 4595 
Q 1241 4863 1831 4863 
L 2375 4863 
z
" transform="scale(0.015625)"/>
       <path id="DejaVuSans-ed" d="M 1322 5119 
L 1944 5119 
L 926 3944 
L 447 3944 
L 1322 5119 
z
M 603 3500 
L 1178 3500 
L 1178 0 
L 603 0 
L 603 3500 
z
M 891 3584 
L 891 3584 
z
" transform="scale(0.015625)"/>
       <path id="DejaVuSans-6c" d="M 603 4863 
L 1178 4863 
L 1178 0 
L 603 0 
L 603 4863 
z
" transform="scale(0.015625)"/>
      </defs>
      <use xlink:href="#DejaVuSans-4e"/>
      <use xlink:href="#DejaVuSans-fa" transform="translate(74.804688 0)"/>
      <use xlink:href="#DejaVuSans-6d" transform="translate(138.183594 0)"/>
      <use xlink:href="#DejaVuSans-65" transform="translate(235.595703 0)"/>
      <use xlink:href="#DejaVuSans-72" transform="translate(297.119141 0)"/>
      <use xlink:href="#DejaVuSans-6f" transform="translate(335.982422 0)"/>
      <use xlink:href="#DejaVuSans-20" transform="translate(397.164062 0)"/>
      <use xlink:href="#DejaVuSans-64" transform="translate(428.951172 0)"/>
      <use xlink:href="#DejaVuSans-65" transform="translate(492.427734 0)"/>
      <use xlink:href="#DejaVuSans-20" transform="translate(553.951172 0)"/>
      <use xlink:href="#DejaVuSans-66" transform="translate(585.738281 0)"/>
      <use xlink:href="#DejaVuSans-61" transform="translate(620.943359 0)"/>
      <use xlink:href="#DejaVuSans-6d" transform="translate(682.222656 0)"/>
      <use xlink:href="#DejaVuSans-ed" transform="translate(779.634766 0)"/>
      <use xlink:href="#DejaVuSans-6c" transform="translate(807.417969 0)"/>
      <use xlink:href="#DejaVuSans-69" transform="translate(835.201172 0)"/>
      <use xlink:href="#DejaVuSans-61" transform="translate(862.984375 0)"/>
      <use xlink:href="#DejaVuSans-73" transform="translate(924.263672 0)"/>
     </g>
    </g>
   </g>
   <g id="line2d_19">
    <path d="M 251.286068 342.945714 
L 251.286068 98.125714 
" clip-path="url(#pb6e8c807f8)" style="fill: none; stroke-dasharray: 7.4,3.2; stroke-dashoffset: 0; stroke: #bc5215; stroke-width: 2"/>
   </g>
   <g id="patch_27">
    <path d="M 61.244286 342.945714 
L 61.244286 98.125714 
" style="fill: none; stroke: #cecdc3; stroke-width: 0.8; stroke-linejoin: miter; stroke-linecap: square"/>
   </g>
   <g id="patch_28">
    <path d="M 61.244286 342.945714 
L 676.8 342.945714 
" style="fill: none; stroke: #cecdc3; stroke-width: 0.8; stroke-linejoin: miter; stroke-linecap: square"/>
   </g>
   <g id="patch_29">
    <path d="M 297.647253 234.63883 
Q 275.254014 286.952893 252.860775 339.266956 
" style="fill: none; opacity: 0.75; stroke: #bc5215; stroke-width: 0.9; stroke-linecap: round"/>
   </g>
   <g id="text_15">
    <g id="patch_30">
     <path d="M 264.534068 234.637405 
L 340.771005 234.637405 
Q 341.899005 234.637405 341.899005 233.509405 
L 341.899005 212.382024 
Q 341.899005 211.254024 340.771005 211.254024 
L 264.534068 211.254024 
Q 263.406068 211.254024 263.406068 212.382024 
L 263.406068 233.509405 
Q 263.406068 234.637405 264.534068 234.637405 
z
" style="fill: #fffcf0; opacity: 0.96"/>
    </g>
    <!-- Média = 2.80 -->
    <g style="fill: #bc5215" transform="translate(265.286068 220.276555) scale(0.094 -0.094)">
     <defs>
      <path id="DejaVuSans-4d" d="M 628 4666 
L 1569 4666 
L 2759 1491 
L 3956 4666 
L 4897 4666 
L 4897 0 
L 4281 0 
L 4281 4097 
L 3078 897 
L 2444 897 
L 1241 4097 
L 1241 0 
L 628 0 
L 628 4666 
z
" transform="scale(0.015625)"/>
      <path id="DejaVuSans-e9" d="M 3597 1894 
L 3597 1613 
L 953 1613 
Q 991 1019 1311 708 
Q 1631 397 2203 397 
Q 2534 397 2845 478 
Q 3156 559 3463 722 
L 3463 178 
Q 3153 47 2828 -22 
Q 2503 -91 2169 -91 
Q 1331 -91 842 396 
Q 353 884 353 1716 
Q 353 2575 817 3079 
Q 1281 3584 2069 3584 
Q 2775 3584 3186 3129 
Q 3597 2675 3597 1894 
z
M 3022 2063 
Q 3016 2534 2758 2815 
Q 2500 3097 2075 3097 
Q 1594 3097 1305 2825 
Q 1016 2553 972 2059 
L 3022 2063 
z
M 2466 5119 
L 3088 5119 
L 2070 3944 
L 1591 3944 
L 2466 5119 
z
" transform="scale(0.015625)"/>
      <path id="DejaVuSans-3d" d="M 678 2906 
L 4684 2906 
L 4684 2381 
L 678 2381 
L 678 2906 
z
M 678 1631 
L 4684 1631 
L 4684 1100 
L 678 1100 
L 678 1631 
z
" transform="scale(0.015625)"/>
      <path id="DejaVuSans-2e" d="M 684 794 
L 1344 794 
L 1344 0 
L 684 0 
L 684 794 
z
" transform="scale(0.015625)"/>
     </defs>
     <use xlink:href="#DejaVuSans-4d"/>
     <use xlink:href="#DejaVuSans-e9" transform="translate(86.279297 0)"/>
     <use xlink:href="#DejaVuSans-64" transform="translate(147.802734 0)"/>
     <use xlink:href="#DejaVuSans-69" transform="translate(211.279297 0)"/>
     <use xlink:href="#DejaVuSans-61" transform="translate(239.0625 0)"/>
     <use xlink:href="#DejaVuSans-20" transform="translate(300.341797 0)"/>
     <use xlink:href="#DejaVuSans-3d" transform="translate(332.128906 0)"/>
     <use xlink:href="#DejaVuSans-20" transform="translate(415.917969 0)"/>
     <use xlink:href="#DejaVuSans-32" transform="translate(447.705078 0)"/>
     <use xlink:href="#DejaVuSans-2e" transform="translate(511.328125 0)"/>
     <use xlink:href="#DejaVuSans-38" transform="translate(543.115234 0)"/>
     <use xlink:href="#DejaVuSans-30" transform="translate(606.738281 0)"/>
    </g>
    <!-- Mediana = 2.20 -->
    <g style="fill: #bc5215" transform="translate(265.286068 230.802499) scale(0.094 -0.094)">
     <use xlink:href="#DejaVuSans-4d"/>
     <use xlink:href="#DejaVuSans-65" transform="translate(86.279297 0)"/>
     <use xlink:href="#DejaVuSans-64" transform="translate(147.802734 0)"/>
     <use xlink:href="#DejaVuSans-69" transform="translate(211.279297 0)"/>
     <use xlink:href="#DejaVuSans-61" transform="translate(239.0625 0)"/>
     <use xlink:href="#DejaVuSans-6e" transform="translate(300.341797 0)"/>
     <use xlink:href="#DejaVuSans-61" transform="translate(363.720703 0)"/>
     <use xlink:href="#DejaVuSans-20" transform="translate(425 0)"/>
     <use xlink:href="#DejaVuSans-3d" transform="translate(456.787109 0)"/>
     <use xlink:href="#DejaVuSans-20" transform="translate(540.576172 0)"/>
     <use xlink:href="#DejaVuSans-32" transform="translate(572.363281 0)"/>
     <use xlink:href="#DejaVuSans-2e" transform="translate(635.986328 0)"/>
     <use xlink:href="#DejaVuSans-32" transform="translate(667.773438 0)"/>
     <use xlink:href="#DejaVuSans-30" transform="translate(731.396484 0)"/>
    </g>
   </g>
  </g>
  <g id="text_16">
   <!-- Buffer-stock: distribuição estacionária de ativos -->
   <g style="fill: #1c1b1a" transform="translate(14.4 27.0025) scale(0.16 -0.16)">
    <defs>
     <path id="DejaVuSans-Bold-42" d="M 2456 2859 
Q 2741 2859 2887 2984 
Q 3034 3109 3034 3353 
Q 3034 3594 2887 3720 
Q 2741 3847 2456 3847 
L 1791 3847 
L 1791 2859 
L 2456 2859 
z
M 2497 819 
Q 2859 819 3042 972 
Q 3225 1125 3225 1434 
Q 3225 1738 3044 1889 
Q 2863 2041 2497 2041 
L 1791 2041 
L 1791 819 
L 2497 819 
z
M 3616 2497 
Q 4003 2384 4215 2081 
Q 4428 1778 4428 1338 
Q 4428 663 3972 331 
Q 3516 0 2584 0 
L 588 0 
L 588 4666 
L 2394 4666 
Q 3366 4666 3802 4372 
Q 4238 4078 4238 3431 
Q 4238 3091 4078 2852 
Q 3919 2613 3616 2497 
z
" transform="scale(0.015625)"/>
     <path id="DejaVuSans-Bold-75" d="M 500 1363 
L 500 3500 
L 1625 3500 
L 1625 3150 
Q 1625 2866 1622 2436 
Q 1619 2006 1619 1863 
Q 1619 1441 1641 1255 
Q 1663 1069 1716 984 
Q 1784 875 1895 815 
Q 2006 756 2150 756 
Q 2500 756 2700 1025 
Q 2900 1294 2900 1772 
L 2900 3500 
L 4019 3500 
L 4019 0 
L 2900 0 
L 2900 506 
Q 2647 200 2364 54 
Q 2081 -91 1741 -91 
Q 1134 -91 817 281 
Q 500 653 500 1363 
z
" transform="scale(0.015625)"/>
     <path id="DejaVuSans-Bold-66" d="M 2841 4863 
L 2841 4128 
L 2222 4128 
Q 1984 4128 1890 4042 
Q 1797 3956 1797 3744 
L 1797 3500 
L 2753 3500 
L 2753 2700 
L 1797 2700 
L 1797 0 
L 678 0 
L 678 2700 
L 122 2700 
L 122 3500 
L 678 3500 
L 678 3744 
Q 678 4316 997 4589 
Q 1316 4863 1984 4863 
L 2841 4863 
z
" transform="scale(0.015625)"/>
     <path id="DejaVuSans-Bold-65" d="M 4031 1759 
L 4031 1441 
L 1416 1441 
Q 1456 1047 1700 850 
Q 1944 653 2381 653 
Q 2734 653 3104 758 
Q 3475 863 3866 1075 
L 3866 213 
Q 3469 63 3072 -14 
Q 2675 -91 2278 -91 
Q 1328 -91 801 392 
Q 275 875 275 1747 
Q 275 2603 792 3093 
Q 1309 3584 2216 3584 
Q 3041 3584 3536 3087 
Q 4031 2591 4031 1759 
z
M 2881 2131 
Q 2881 2450 2695 2645 
Q 2509 2841 2209 2841 
Q 1884 2841 1681 2658 
Q 1478 2475 1428 2131 
L 2881 2131 
z
" transform="scale(0.015625)"/>
     <path id="DejaVuSans-Bold-72" d="M 3138 2547 
Q 2991 2616 2845 2648 
Q 2700 2681 2553 2681 
Q 2122 2681 1889 2404 
Q 1656 2128 1656 1613 
L 1656 0 
L 538 0 
L 538 3500 
L 1656 3500 
L 1656 2925 
Q 1872 3269 2151 3426 
Q 2431 3584 2822 3584 
Q 2878 3584 2943 3579 
Q 3009 3575 3134 3559 
L 3138 2547 
z
" transform="scale(0.015625)"/>
     <path id="DejaVuSans-Bold-2d" d="M 347 2297 
L 2309 2297 
L 2309 1388 
L 347 1388 
L 347 2297 
z
" transform="scale(0.015625)"/>
     <path id="DejaVuSans-Bold-73" d="M 3272 3391 
L 3272 2541 
Q 2913 2691 2578 2766 
Q 2244 2841 1947 2841 
Q 1628 2841 1473 2761 
Q 1319 2681 1319 2516 
Q 1319 2381 1436 2309 
Q 1553 2238 1856 2203 
L 2053 2175 
Q 2913 2066 3209 1816 
Q 3506 1566 3506 1031 
Q 3506 472 3093 190 
Q 2681 -91 1863 -91 
Q 1516 -91 1145 -36 
Q 775 19 384 128 
L 384 978 
Q 719 816 1070 734 
Q 1422 653 1784 653 
Q 2113 653 2278 743 
Q 2444 834 2444 1013 
Q 2444 1163 2330 1236 
Q 2216 1309 1875 1350 
L 1678 1375 
Q 931 1469 631 1722 
Q 331 1975 331 2491 
Q 331 3047 712 3315 
Q 1094 3584 1881 3584 
Q 2191 3584 2531 3537 
Q 2872 3491 3272 3391 
z
" transform="scale(0.015625)"/>
     <path id="DejaVuSans-Bold-74" d="M 1759 4494 
L 1759 3500 
L 2913 3500 
L 2913 2700 
L 1759 2700 
L 1759 1216 
Q 1759 972 1856 886 
Q 1953 800 2241 800 
L 2816 800 
L 2816 0 
L 1856 0 
Q 1194 0 917 276 
Q 641 553 641 1216 
L 641 2700 
L 84 2700 
L 84 3500 
L 641 3500 
L 641 4494 
L 1759 4494 
z
" transform="scale(0.015625)"/>
     <path id="DejaVuSans-Bold-6f" d="M 2203 2784 
Q 1831 2784 1636 2517 
Q 1441 2250 1441 1747 
Q 1441 1244 1636 976 
Q 1831 709 2203 709 
Q 2569 709 2762 976 
Q 2956 1244 2956 1747 
Q 2956 2250 2762 2517 
Q 2569 2784 2203 2784 
z
M 2203 3584 
Q 3106 3584 3614 3096 
Q 4122 2609 4122 1747 
Q 4122 884 3614 396 
Q 3106 -91 2203 -91 
Q 1297 -91 786 396 
Q 275 884 275 1747 
Q 275 2609 786 3096 
Q 1297 3584 2203 3584 
z
" transform="scale(0.015625)"/>
     <path id="DejaVuSans-Bold-63" d="M 3366 3391 
L 3366 2478 
Q 3138 2634 2908 2709 
Q 2678 2784 2431 2784 
Q 1963 2784 1702 2511 
Q 1441 2238 1441 1747 
Q 1441 1256 1702 982 
Q 1963 709 2431 709 
Q 2694 709 2930 787 
Q 3166 866 3366 1019 
L 3366 103 
Q 3103 6 2833 -42 
Q 2563 -91 2291 -91 
Q 1344 -91 809 395 
Q 275 881 275 1747 
Q 275 2613 809 3098 
Q 1344 3584 2291 3584 
Q 2566 3584 2833 3536 
Q 3100 3488 3366 3391 
z
" transform="scale(0.015625)"/>
     <path id="DejaVuSans-Bold-6b" d="M 538 4863 
L 1656 4863 
L 1656 2216 
L 2944 3500 
L 4244 3500 
L 2534 1894 
L 4378 0 
L 3022 0 
L 1656 1459 
L 1656 0 
L 538 0 
L 538 4863 
z
" transform="scale(0.015625)"/>
     <path id="DejaVuSans-Bold-3a" d="M 716 3500 
L 1844 3500 
L 1844 2291 
L 716 2291 
L 716 3500 
z
M 716 1209 
L 1844 1209 
L 1844 0 
L 716 0 
L 716 1209 
z
" transform="scale(0.015625)"/>
     <path id="DejaVuSans-Bold-20" transform="scale(0.015625)"/>
     <path id="DejaVuSans-Bold-64" d="M 2919 2988 
L 2919 4863 
L 4044 4863 
L 4044 0 
L 2919 0 
L 2919 506 
Q 2688 197 2409 53 
Q 2131 -91 1766 -91 
Q 1119 -91 703 423 
Q 288 938 288 1747 
Q 288 2556 703 3070 
Q 1119 3584 1766 3584 
Q 2128 3584 2408 3439 
Q 2688 3294 2919 2988 
z
M 2181 722 
Q 2541 722 2730 984 
Q 2919 1247 2919 1747 
Q 2919 2247 2730 2509 
Q 2541 2772 2181 2772 
Q 1825 2772 1636 2509 
Q 1447 2247 1447 1747 
Q 1447 1247 1636 984 
Q 1825 722 2181 722 
z
" transform="scale(0.015625)"/>
     <path id="DejaVuSans-Bold-69" d="M 538 3500 
L 1656 3500 
L 1656 0 
L 538 0 
L 538 3500 
z
M 538 4863 
L 1656 4863 
L 1656 3950 
L 538 3950 
L 538 4863 
z
" transform="scale(0.015625)"/>
     <path id="DejaVuSans-Bold-62" d="M 2400 722 
Q 2759 722 2948 984 
Q 3138 1247 3138 1747 
Q 3138 2247 2948 2509 
Q 2759 2772 2400 2772 
Q 2041 2772 1848 2508 
Q 1656 2244 1656 1747 
Q 1656 1250 1848 986 
Q 2041 722 2400 722 
z
M 1656 2988 
Q 1888 3294 2169 3439 
Q 2450 3584 2816 3584 
Q 3463 3584 3878 3070 
Q 4294 2556 4294 1747 
Q 4294 938 3878 423 
Q 3463 -91 2816 -91 
Q 2450 -91 2169 54 
Q 1888 200 1656 506 
L 1656 0 
L 538 0 
L 538 4863 
L 1656 4863 
L 1656 2988 
z
" transform="scale(0.015625)"/>
     <path id="DejaVuSans-Bold-e7" d="M 3366 3391 
L 3366 2478 
Q 3138 2634 2908 2709 
Q 2678 2784 2431 2784 
Q 1963 2784 1702 2511 
Q 1441 2238 1441 1747 
Q 1441 1256 1702 982 
Q 1963 709 2431 709 
Q 2694 709 2930 787 
Q 3166 866 3366 1019 
L 3366 103 
Q 3103 6 2833 -42 
Q 2563 -91 2291 -91 
Q 1344 -91 809 395 
Q 275 881 275 1747 
Q 275 2613 809 3098 
Q 1344 3584 2291 3584 
Q 2566 3584 2833 3536 
Q 3100 3488 3366 3391 
z
M 2457 0 
Q 2639 -194 2724 -359 
Q 2810 -525 2810 -672 
Q 2810 -969 2618 -1111 
Q 2426 -1253 2029 -1253 
Q 1879 -1253 1719 -1233 
Q 1560 -1213 1398 -1172 
L 1395 -697 
Q 1551 -747 1680 -770 
Q 1810 -794 1914 -794 
Q 2095 -794 2196 -722 
Q 2298 -650 2298 -525 
Q 2298 -444 2231 -316 
Q 2164 -188 2023 0 
L 2457 0 
z
" transform="scale(0.015625)"/>
     <path id="DejaVuSans-Bold-e3" d="M 2106 1575 
Q 1756 1575 1579 1456 
Q 1403 1338 1403 1106 
Q 1403 894 1545 773 
Q 1688 653 1941 653 
Q 2256 653 2472 879 
Q 2688 1106 2688 1447 
L 2688 1575 
L 2106 1575 
z
M 3816 1997 
L 3816 0 
L 2688 0 
L 2688 519 
Q 2463 200 2181 54 
Q 1900 -91 1497 -91 
Q 953 -91 614 226 
Q 275 544 275 1050 
Q 275 1666 698 1953 
Q 1122 2241 2028 2241 
L 2688 2241 
L 2688 2328 
Q 2688 2594 2478 2717 
Q 2269 2841 1825 2841 
Q 1466 2841 1156 2769 
Q 847 2697 581 2553 
L 581 3406 
Q 941 3494 1303 3539 
Q 1666 3584 2028 3584 
Q 2975 3584 3395 3211 
Q 3816 2838 3816 1997 
z
M 2190 4263 
L 2018 4378 
Q 2006 4384 1987 4397 
Q 1840 4494 1762 4494 
Q 1650 4494 1590 4397 
Q 1531 4300 1531 4116 
L 1531 4091 
L 1097 4091 
Q 1097 4516 1257 4747 
Q 1418 4978 1709 4978 
Q 1822 4978 1936 4936 
Q 2050 4894 2178 4800 
L 2368 4666 
Q 2437 4619 2495 4594 
Q 2553 4569 2600 4569 
Q 2712 4569 2774 4669 
Q 2837 4769 2837 4947 
L 2837 4972 
L 3272 4972 
Q 3272 4547 3111 4315 
Q 2950 4084 2659 4084 
Q 2547 4084 2442 4121 
Q 2337 4159 2190 4263 
z
" transform="scale(0.015625)"/>
     <path id="DejaVuSans-Bold-61" d="M 2106 1575 
Q 1756 1575 1579 1456 
Q 1403 1338 1403 1106 
Q 1403 894 1545 773 
Q 1688 653 1941 653 
Q 2256 653 2472 879 
Q 2688 1106 2688 1447 
L 2688 1575 
L 2106 1575 
z
M 3816 1997 
L 3816 0 
L 2688 0 
L 2688 519 
Q 2463 200 2181 54 
Q 1900 -91 1497 -91 
Q 953 -91 614 226 
Q 275 544 275 1050 
Q 275 1666 698 1953 
Q 1122 2241 2028 2241 
L 2688 2241 
L 2688 2328 
Q 2688 2594 2478 2717 
Q 2269 2841 1825 2841 
Q 1466 2841 1156 2769 
Q 847 2697 581 2553 
L 581 3406 
Q 941 3494 1303 3539 
Q 1666 3584 2028 3584 
Q 2975 3584 3395 3211 
Q 3816 2838 3816 1997 
z
" transform="scale(0.015625)"/>
     <path id="DejaVuSans-Bold-6e" d="M 4056 2131 
L 4056 0 
L 2931 0 
L 2931 347 
L 2931 1631 
Q 2931 2084 2911 2256 
Q 2891 2428 2841 2509 
Q 2775 2619 2662 2680 
Q 2550 2741 2406 2741 
Q 2056 2741 1856 2470 
Q 1656 2200 1656 1722 
L 1656 0 
L 538 0 
L 538 3500 
L 1656 3500 
L 1656 2988 
Q 1909 3294 2193 3439 
Q 2478 3584 2822 3584 
Q 3428 3584 3742 3212 
Q 4056 2841 4056 2131 
z
" transform="scale(0.015625)"/>
     <path id="DejaVuSans-Bold-e1" d="M 2106 1575 
Q 1756 1575 1579 1456 
Q 1403 1338 1403 1106 
Q 1403 894 1545 773 
Q 1688 653 1941 653 
Q 2256 653 2472 879 
Q 2688 1106 2688 1447 
L 2688 1575 
L 2106 1575 
z
M 3816 1997 
L 3816 0 
L 2688 0 
L 2688 519 
Q 2463 200 2181 54 
Q 1900 -91 1497 -91 
Q 953 -91 614 226 
Q 275 544 275 1050 
Q 275 1666 698 1953 
Q 1122 2241 2028 2241 
L 2688 2241 
L 2688 2328 
Q 2688 2594 2478 2717 
Q 2269 2841 1825 2841 
Q 1466 2841 1156 2769 
Q 847 2697 581 2553 
L 581 3406 
Q 941 3494 1303 3539 
Q 1666 3584 2028 3584 
Q 2975 3584 3395 3211 
Q 3816 2838 3816 1997 
z
M 2606 5119 
L 3490 5119 
L 2337 3944 
L 1725 3944 
L 2606 5119 
z
" transform="scale(0.015625)"/>
     <path id="DejaVuSans-Bold-76" d="M 97 3500 
L 1216 3500 
L 2088 1081 
L 2956 3500 
L 4078 3500 
L 2700 0 
L 1472 0 
L 97 3500 
z
" transform="scale(0.015625)"/>
    </defs>
    <use xlink:href="#DejaVuSans-Bold-42"/>
    <use xlink:href="#DejaVuSans-Bold-75" transform="translate(76.220703 0)"/>
    <use xlink:href="#DejaVuSans-Bold-66" transform="translate(147.412109 0)"/>
    <use xlink:href="#DejaVuSans-Bold-66" transform="translate(190.917969 0)"/>
    <use xlink:href="#DejaVuSans-Bold-65" transform="translate(234.423828 0)"/>
    <use xlink:href="#DejaVuSans-Bold-72" transform="translate(302.246094 0)"/>
    <use xlink:href="#DejaVuSans-Bold-2d" transform="translate(351.5625 0)"/>
    <use xlink:href="#DejaVuSans-Bold-73" transform="translate(393.066406 0)"/>
    <use xlink:href="#DejaVuSans-Bold-74" transform="translate(452.587891 0)"/>
    <use xlink:href="#DejaVuSans-Bold-6f" transform="translate(500.390625 0)"/>
    <use xlink:href="#DejaVuSans-Bold-63" transform="translate(569.091797 0)"/>
    <use xlink:href="#DejaVuSans-Bold-6b" transform="translate(628.369141 0)"/>
    <use xlink:href="#DejaVuSans-Bold-3a" transform="translate(694.873047 0)"/>
    <use xlink:href="#DejaVuSans-Bold-20" transform="translate(734.863281 0)"/>
    <use xlink:href="#DejaVuSans-Bold-64" transform="translate(769.677734 0)"/>
    <use xlink:href="#DejaVuSans-Bold-69" transform="translate(841.259766 0)"/>
    <use xlink:href="#DejaVuSans-Bold-73" transform="translate(875.537109 0)"/>
    <use xlink:href="#DejaVuSans-Bold-74" transform="translate(935.058594 0)"/>
    <use xlink:href="#DejaVuSans-Bold-72" transform="translate(982.861328 0)"/>
    <use xlink:href="#DejaVuSans-Bold-69" transform="translate(1032.177734 0)"/>
    <use xlink:href="#DejaVuSans-Bold-62" transform="translate(1066.455078 0)"/>
    <use xlink:href="#DejaVuSans-Bold-75" transform="translate(1138.037109 0)"/>
    <use xlink:href="#DejaVuSans-Bold-69" transform="translate(1209.228516 0)"/>
    <use xlink:href="#DejaVuSans-Bold-e7" transform="translate(1243.505859 0)"/>
    <use xlink:href="#DejaVuSans-Bold-e3" transform="translate(1302.783203 0)"/>
    <use xlink:href="#DejaVuSans-Bold-6f" transform="translate(1370.263672 0)"/>
    <use xlink:href="#DejaVuSans-Bold-20" transform="translate(1438.964844 0)"/>
    <use xlink:href="#DejaVuSans-Bold-65" transform="translate(1473.779297 0)"/>
    <use xlink:href="#DejaVuSans-Bold-73" transform="translate(1541.601562 0)"/>
    <use xlink:href="#DejaVuSans-Bold-74" transform="translate(1601.123047 0)"/>
    <use xlink:href="#DejaVuSans-Bold-61" transform="translate(1648.925781 0)"/>
    <use xlink:href="#DejaVuSans-Bold-63" transform="translate(1716.40625 0)"/>
    <use xlink:href="#DejaVuSans-Bold-69" transform="translate(1775.683594 0)"/>
    <use xlink:href="#DejaVuSans-Bold-6f" transform="translate(1809.960938 0)"/>
    <use xlink:href="#DejaVuSans-Bold-6e" transform="translate(1878.662109 0)"/>
    <use xlink:href="#DejaVuSans-Bold-e1" transform="translate(1949.853516 0)"/>
    <use xlink:href="#DejaVuSans-Bold-72" transform="translate(2017.333984 0)"/>
    <use xlink:href="#DejaVuSans-Bold-69" transform="translate(2066.650391 0)"/>
    <use xlink:href="#DejaVuSans-Bold-61" transform="translate(2100.927734 0)"/>
    <use xlink:href="#DejaVuSans-Bold-20" transform="translate(2168.408203 0)"/>
    <use xlink:href="#DejaVuSans-Bold-64" transform="translate(2203.222656 0)"/>
    <use xlink:href="#DejaVuSans-Bold-65" transform="translate(2274.804688 0)"/>
    <use xlink:href="#DejaVuSans-Bold-20" transform="translate(2342.626953 0)"/>
    <use xlink:href="#DejaVuSans-Bold-61" transform="translate(2377.441406 0)"/>
    <use xlink:href="#DejaVuSans-Bold-74" transform="translate(2444.921875 0)"/>
    <use xlink:href="#DejaVuSans-Bold-69" transform="translate(2492.724609 0)"/>
    <use xlink:href="#DejaVuSans-Bold-76" transform="translate(2527.001953 0)"/>
    <use xlink:href="#DejaVuSans-Bold-6f" transform="translate(2592.1875 0)"/>
    <use xlink:href="#DejaVuSans-Bold-73" transform="translate(2660.888672 0)"/>
   </g>
  </g>
  <g id="text_17">
   <!-- Famílias acumulam um 'estoque-tampão' de ativos para se autossegurar contra choques de renda — não acumulação ilimitada. -->
   <g style="fill: #6f6e69" transform="translate(14.4 39.838406) scale(0.102 -0.102)">
    <defs>
     <path id="DejaVuSans-46" d="M 628 4666 
L 3309 4666 
L 3309 4134 
L 1259 4134 
L 1259 2759 
L 3109 2759 
L 3109 2228 
L 1259 2228 
L 1259 0 
L 628 0 
L 628 4666 
z
" transform="scale(0.015625)"/>
     <path id="DejaVuSans-75" d="M 544 1381 
L 544 3500 
L 1119 3500 
L 1119 1403 
Q 1119 906 1312 657 
Q 1506 409 1894 409 
Q 2359 409 2629 706 
Q 2900 1003 2900 1516 
L 2900 3500 
L 3475 3500 
L 3475 0 
L 2900 0 
L 2900 538 
Q 2691 219 2414 64 
Q 2138 -91 1772 -91 
Q 1169 -91 856 284 
Q 544 659 544 1381 
z
M 1991 3584 
L 1991 3584 
z
" transform="scale(0.015625)"/>
     <path id="DejaVuSans-27" d="M 1147 4666 
L 1147 2931 
L 616 2931 
L 616 4666 
L 1147 4666 
z
" transform="scale(0.015625)"/>
     <path id="DejaVuSans-71" d="M 947 1747 
Q 947 1113 1208 752 
Q 1469 391 1925 391 
Q 2381 391 2643 752 
Q 2906 1113 2906 1747 
Q 2906 2381 2643 2742 
Q 2381 3103 1925 3103 
Q 1469 3103 1208 2742 
Q 947 2381 947 1747 
z
M 2906 525 
Q 2725 213 2448 61 
Q 2172 -91 1784 -91 
Q 1150 -91 751 415 
Q 353 922 353 1747 
Q 353 2572 751 3078 
Q 1150 3584 1784 3584 
Q 2172 3584 2448 3432 
Q 2725 3281 2906 2969 
L 2906 3500 
L 3481 3500 
L 3481 -1331 
L 2906 -1331 
L 2906 525 
z
" transform="scale(0.015625)"/>
     <path id="DejaVuSans-2d" d="M 313 2009 
L 1997 2009 
L 1997 1497 
L 313 1497 
L 313 2009 
z
" transform="scale(0.015625)"/>
     <path id="DejaVuSans-70" d="M 1159 525 
L 1159 -1331 
L 581 -1331 
L 581 3500 
L 1159 3500 
L 1159 2969 
Q 1341 3281 1617 3432 
Q 1894 3584 2278 3584 
Q 2916 3584 3314 3078 
Q 3713 2572 3713 1747 
Q 3713 922 3314 415 
Q 2916 -91 2278 -91 
Q 1894 -91 1617 61 
Q 1341 213 1159 525 
z
M 3116 1747 
Q 3116 2381 2855 2742 
Q 2594 3103 2138 3103 
Q 1681 3103 1420 2742 
Q 1159 2381 1159 1747 
Q 1159 1113 1420 752 
Q 1681 391 2138 391 
Q 2594 391 2855 752 
Q 3116 1113 3116 1747 
z
" transform="scale(0.015625)"/>
     <path id="DejaVuSans-e3" d="M 2194 1759 
Q 1497 1759 1228 1600 
Q 959 1441 959 1056 
Q 959 750 1161 570 
Q 1363 391 1709 391 
Q 2188 391 2477 730 
Q 2766 1069 2766 1631 
L 2766 1759 
L 2194 1759 
z
M 3341 1997 
L 3341 0 
L 2766 0 
L 2766 531 
Q 2569 213 2275 61 
Q 1981 -91 1556 -91 
Q 1019 -91 701 211 
Q 384 513 384 1019 
Q 384 1609 779 1909 
Q 1175 2209 1959 2209 
L 2766 2209 
L 2766 2266 
Q 2766 2663 2505 2880 
Q 2244 3097 1772 3097 
Q 1472 3097 1187 3025 
Q 903 2953 641 2809 
L 641 3341 
Q 956 3463 1253 3523 
Q 1550 3584 1831 3584 
Q 2591 3584 2966 3190 
Q 3341 2797 3341 1997 
z
M 1844 4281 
L 1665 4453 
Q 1597 4516 1545 4545 
Q 1494 4575 1453 4575 
Q 1334 4575 1278 4461 
Q 1222 4347 1215 4091 
L 825 4091 
Q 831 4513 990 4742 
Q 1150 4972 1434 4972 
Q 1553 4972 1653 4928 
Q 1753 4884 1869 4781 
L 2047 4609 
Q 2115 4547 2167 4517 
Q 2219 4488 2259 4488 
Q 2378 4488 2434 4602 
Q 2490 4716 2497 4972 
L 2887 4972 
Q 2881 4550 2721 4320 
Q 2562 4091 2278 4091 
Q 2159 4091 2059 4134 
Q 1959 4178 1844 4281 
z
" transform="scale(0.015625)"/>
     <path id="DejaVuSans-68" d="M 3513 2113 
L 3513 0 
L 2938 0 
L 2938 2094 
Q 2938 2591 2744 2837 
Q 2550 3084 2163 3084 
Q 1697 3084 1428 2787 
Q 1159 2491 1159 1978 
L 1159 0 
L 581 0 
L 581 4863 
L 1159 4863 
L 1159 2956 
Q 1366 3272 1645 3428 
Q 1925 3584 2291 3584 
Q 2894 3584 3203 3211 
Q 3513 2838 3513 2113 
z
" transform="scale(0.015625)"/>
     <path id="DejaVuSans-2014" d="M 313 1978 
L 6088 1978 
L 6088 1528 
L 313 1528 
L 313 1978 
z
" transform="scale(0.015625)"/>
     <path id="DejaVuSans-e7" d="M 3122 3366 
L 3122 2828 
Q 2878 2963 2633 3030 
Q 2388 3097 2138 3097 
Q 1578 3097 1268 2742 
Q 959 2388 959 1747 
Q 959 1106 1268 751 
Q 1578 397 2138 397 
Q 2388 397 2633 464 
Q 2878 531 3122 666 
L 3122 134 
Q 2881 22 2623 -34 
Q 2366 -91 2075 -91 
Q 1284 -91 818 406 
Q 353 903 353 1747 
Q 353 2603 823 3093 
Q 1294 3584 2113 3584 
Q 2378 3584 2631 3529 
Q 2884 3475 3122 3366 
z
M 2311 0 
Q 2482 -194 2566 -358 
Q 2651 -522 2651 -672 
Q 2651 -950 2463 -1092 
Q 2276 -1234 1907 -1234 
Q 1764 -1234 1628 -1215 
Q 1492 -1197 1357 -1159 
L 1357 -750 
Q 1464 -803 1579 -826 
Q 1695 -850 1842 -850 
Q 2026 -850 2120 -775 
Q 2214 -700 2214 -556 
Q 2214 -463 2146 -327 
Q 2079 -191 1939 0 
L 2311 0 
z
" transform="scale(0.015625)"/>
    </defs>
    <use xlink:href="#DejaVuSans-46"/>
    <use xlink:href="#DejaVuSans-61" transform="translate(48.394531 0)"/>
    <use xlink:href="#DejaVuSans-6d" transform="translate(109.673828 0)"/>
    <use xlink:href="#DejaVuSans-ed" transform="translate(207.085938 0)"/>
    <use xlink:href="#DejaVuSans-6c" transform="translate(234.869141 0)"/>
    <use xlink:href="#DejaVuSans-69" transform="translate(262.652344 0)"/>
    <use xlink:href="#DejaVuSans-61" transform="translate(290.435547 0)"/>
    <use xlink:href="#DejaVuSans-73" transform="translate(351.714844 0)"/>
    <use xlink:href="#DejaVuSans-20" transform="translate(403.814453 0)"/>
    <use xlink:href="#DejaVuSans-61" transform="translate(435.601562 0)"/>
    <use xlink:href="#DejaVuSans-63" transform="translate(496.880859 0)"/>
    <use xlink:href="#DejaVuSans-75" transform="translate(551.861328 0)"/>
    <use xlink:href="#DejaVuSans-6d" transform="translate(615.240234 0)"/>
    <use xlink:href="#DejaVuSans-75" transform="translate(712.652344 0)"/>
    <use xlink:href="#DejaVuSans-6c" transform="translate(776.03125 0)"/>
    <use xlink:href="#DejaVuSans-61" transform="translate(803.814453 0)"/>
    <use xlink:href="#DejaVuSans-6d" transform="translate(865.09375 0)"/>
    <use xlink:href="#DejaVuSans-20" transform="translate(962.505859 0)"/>
    <use xlink:href="#DejaVuSans-75" transform="translate(994.292969 0)"/>
    <use xlink:href="#DejaVuSans-6d" transform="translate(1057.671875 0)"/>
    <use xlink:href="#DejaVuSans-20" transform="translate(1155.083984 0)"/>
    <use xlink:href="#DejaVuSans-27" transform="translate(1186.871094 0)"/>
    <use xlink:href="#DejaVuSans-65" transform="translate(1214.361328 0)"/>
    <use xlink:href="#DejaVuSans-73" transform="translate(1275.884766 0)"/>
    <use xlink:href="#DejaVuSans-74" transform="translate(1327.984375 0)"/>
    <use xlink:href="#DejaVuSans-6f" transform="translate(1367.193359 0)"/>
    <use xlink:href="#DejaVuSans-71" transform="translate(1428.375 0)"/>
    <use xlink:href="#DejaVuSans-75" transform="translate(1491.851562 0)"/>
    <use xlink:href="#DejaVuSans-65" transform="translate(1555.230469 0)"/>
    <use xlink:href="#DejaVuSans-2d" transform="translate(1616.753906 0)"/>
    <use xlink:href="#DejaVuSans-74" transform="translate(1652.837891 0)"/>
    <use xlink:href="#DejaVuSans-61" transform="translate(1692.046875 0)"/>
    <use xlink:href="#DejaVuSans-6d" transform="translate(1753.326172 0)"/>
    <use xlink:href="#DejaVuSans-70" transform="translate(1850.738281 0)"/>
    <use xlink:href="#DejaVuSans-e3" transform="translate(1914.214844 0)"/>
    <use xlink:href="#DejaVuSans-6f" transform="translate(1975.494141 0)"/>
    <use xlink:href="#DejaVuSans-27" transform="translate(2036.675781 0)"/>
    <use xlink:href="#DejaVuSans-20" transform="translate(2064.166016 0)"/>
    <use xlink:href="#DejaVuSans-64" transform="translate(2095.953125 0)"/>
    <use xlink:href="#DejaVuSans-65" transform="translate(2159.429688 0)"/>
    <use xlink:href="#DejaVuSans-20" transform="translate(2220.953125 0)"/>
    <use xlink:href="#DejaVuSans-61" transform="translate(2252.740234 0)"/>
    <use xlink:href="#DejaVuSans-74" transform="translate(2314.019531 0)"/>
    <use xlink:href="#DejaVuSans-69" transform="translate(2353.228516 0)"/>
    <use xlink:href="#DejaVuSans-76" transform="translate(2381.011719 0)"/>
    <use xlink:href="#DejaVuSans-6f" transform="translate(2440.191406 0)"/>
    <use xlink:href="#DejaVuSans-73" transform="translate(2501.373047 0)"/>
    <use xlink:href="#DejaVuSans-20" transform="translate(2553.472656 0)"/>
    <use xlink:href="#DejaVuSans-70" transform="translate(2585.259766 0)"/>
    <use xlink:href="#DejaVuSans-61" transform="translate(2648.736328 0)"/>
    <use xlink:href="#DejaVuSans-72" transform="translate(2710.015625 0)"/>
    <use xlink:href="#DejaVuSans-61" transform="translate(2751.128906 0)"/>
    <use xlink:href="#DejaVuSans-20" transform="translate(2812.408203 0)"/>
    <use xlink:href="#DejaVuSans-73" transform="translate(2844.195312 0)"/>
    <use xlink:href="#DejaVuSans-65" transform="translate(2896.294922 0)"/>
    <use xlink:href="#DejaVuSans-20" transform="translate(2957.818359 0)"/>
    <use xlink:href="#DejaVuSans-61" transform="translate(2989.605469 0)"/>
    <use xlink:href="#DejaVuSans-75" transform="translate(3050.884766 0)"/>
    <use xlink:href="#DejaVuSans-74" transform="translate(3114.263672 0)"/>
    <use xlink:href="#DejaVuSans-6f" transform="translate(3153.472656 0)"/>
    <use xlink:href="#DejaVuSans-73" transform="translate(3214.654297 0)"/>
    <use xlink:href="#DejaVuSans-73" transform="translate(3266.753906 0)"/>
    <use xlink:href="#DejaVuSans-65" transform="translate(3318.853516 0)"/>
    <use xlink:href="#DejaVuSans-67" transform="translate(3380.376953 0)"/>
    <use xlink:href="#DejaVuSans-75" transform="translate(3443.853516 0)"/>
    <use xlink:href="#DejaVuSans-72" transform="translate(3507.232422 0)"/>
    <use xlink:href="#DejaVuSans-61" transform="translate(3548.345703 0)"/>
    <use xlink:href="#DejaVuSans-72" transform="translate(3609.625 0)"/>
    <use xlink:href="#DejaVuSans-20" transform="translate(3650.738281 0)"/>
    <use xlink:href="#DejaVuSans-63" transform="translate(3682.525391 0)"/>
    <use xlink:href="#DejaVuSans-6f" transform="translate(3737.505859 0)"/>
    <use xlink:href="#DejaVuSans-6e" transform="translate(3798.6875 0)"/>
    <use xlink:href="#DejaVuSans-74" transform="translate(3862.066406 0)"/>
    <use xlink:href="#DejaVuSans-72" transform="translate(3901.275391 0)"/>
    <use xlink:href="#DejaVuSans-61" transform="translate(3942.388672 0)"/>
    <use xlink:href="#DejaVuSans-20" transform="translate(4003.667969 0)"/>
    <use xlink:href="#DejaVuSans-63" transform="translate(4035.455078 0)"/>
    <use xlink:href="#DejaVuSans-68" transform="translate(4090.435547 0)"/>
    <use xlink:href="#DejaVuSans-6f" transform="translate(4153.814453 0)"/>
    <use xlink:href="#DejaVuSans-71" transform="translate(4214.996094 0)"/>
    <use xlink:href="#DejaVuSans-75" transform="translate(4278.472656 0)"/>
    <use xlink:href="#DejaVuSans-65" transform="translate(4341.851562 0)"/>
    <use xlink:href="#DejaVuSans-73" transform="translate(4403.375 0)"/>
    <use xlink:href="#DejaVuSans-20" transform="translate(4455.474609 0)"/>
    <use xlink:href="#DejaVuSans-64" transform="translate(4487.261719 0)"/>
    <use xlink:href="#DejaVuSans-65" transform="translate(4550.738281 0)"/>
    <use xlink:href="#DejaVuSans-20" transform="translate(4612.261719 0)"/>
    <use xlink:href="#DejaVuSans-72" transform="translate(4644.048828 0)"/>
    <use xlink:href="#DejaVuSans-65" transform="translate(4682.912109 0)"/>
    <use xlink:href="#DejaVuSans-6e" transform="translate(4744.435547 0)"/>
    <use xlink:href="#DejaVuSans-64" transform="translate(4807.814453 0)"/>
    <use xlink:href="#DejaVuSans-61" transform="translate(4871.291016 0)"/>
    <use xlink:href="#DejaVuSans-20" transform="translate(4932.570312 0)"/>
    <use xlink:href="#DejaVuSans-2014" transform="translate(4964.357422 0)"/>
    <use xlink:href="#DejaVuSans-20" transform="translate(5064.357422 0)"/>
    <use xlink:href="#DejaVuSans-6e" transform="translate(5096.144531 0)"/>
    <use xlink:href="#DejaVuSans-e3" transform="translate(5159.523438 0)"/>
    <use xlink:href="#DejaVuSans-6f" transform="translate(5220.802734 0)"/>
    <use xlink:href="#DejaVuSans-20" transform="translate(5281.984375 0)"/>
    <use xlink:href="#DejaVuSans-61" transform="translate(5313.771484 0)"/>
    <use xlink:href="#DejaVuSans-63" transform="translate(5375.050781 0)"/>
    <use xlink:href="#DejaVuSans-75" transform="translate(5430.03125 0)"/>
    <use xlink:href="#DejaVuSans-6d" transform="translate(5493.410156 0)"/>
    <use xlink:href="#DejaVuSans-75" transform="translate(5590.822266 0)"/>
    <use xlink:href="#DejaVuSans-6c" transform="translate(5654.201172 0)"/>
    <use xlink:href="#DejaVuSans-61" transform="translate(5681.984375 0)"/>
    <use xlink:href="#DejaVuSans-e7" transform="translate(5743.263672 0)"/>
    <use xlink:href="#DejaVuSans-e3" transform="translate(5798.244141 0)"/>
    <use xlink:href="#DejaVuSans-6f" transform="translate(5859.523438 0)"/>
    <use xlink:href="#DejaVuSans-20" transform="translate(5920.705078 0)"/>
    <use xlink:href="#DejaVuSans-69" transform="translate(5952.492188 0)"/>
    <use xlink:href="#DejaVuSans-6c" transform="translate(5980.275391 0)"/>
    <use xlink:href="#DejaVuSans-69" transform="translate(6008.058594 0)"/>
    <use xlink:href="#DejaVuSans-6d" transform="translate(6035.841797 0)"/>
    <use xlink:href="#DejaVuSans-69" transform="translate(6133.253906 0)"/>
    <use xlink:href="#DejaVuSans-74" transform="translate(6161.037109 0)"/>
    <use xlink:href="#DejaVuSans-61" transform="translate(6200.246094 0)"/>
    <use xlink:href="#DejaVuSans-64" transform="translate(6261.525391 0)"/>
    <use xlink:href="#DejaVuSans-61" transform="translate(6325.001953 0)"/>
    <use xlink:href="#DejaVuSans-2e" transform="translate(6386.28125 0)"/>
   </g>
  </g>
  <g id="text_18">
   <!-- Obs.: N=800 famílias · T=300 períodos (descartando 100 de burn-in) · semente=0. -->
   <g style="fill: #6f6e69" transform="translate(14.4 425.150672) scale(0.087 -0.087)">
    <defs>
     <path id="DejaVuSans-4f" d="M 2522 4238 
Q 1834 4238 1429 3725 
Q 1025 3213 1025 2328 
Q 1025 1447 1429 934 
Q 1834 422 2522 422 
Q 3209 422 3611 934 
Q 4013 1447 4013 2328 
Q 4013 3213 3611 3725 
Q 3209 4238 2522 4238 
z
M 2522 4750 
Q 3503 4750 4090 4092 
Q 4678 3434 4678 2328 
Q 4678 1225 4090 567 
Q 3503 -91 2522 -91 
Q 1538 -91 948 565 
Q 359 1222 359 2328 
Q 359 3434 948 4092 
Q 1538 4750 2522 4750 
z
" transform="scale(0.015625)"/>
     <path id="DejaVuSans-62" d="M 3116 1747 
Q 3116 2381 2855 2742 
Q 2594 3103 2138 3103 
Q 1681 3103 1420 2742 
Q 1159 2381 1159 1747 
Q 1159 1113 1420 752 
Q 1681 391 2138 391 
Q 2594 391 2855 752 
Q 3116 1113 3116 1747 
z
M 1159 2969 
Q 1341 3281 1617 3432 
Q 1894 3584 2278 3584 
Q 2916 3584 3314 3078 
Q 3713 2572 3713 1747 
Q 3713 922 3314 415 
Q 2916 -91 2278 -91 
Q 1894 -91 1617 61 
Q 1341 213 1159 525 
L 1159 0 
L 581 0 
L 581 4863 
L 1159 4863 
L 1159 2969 
z
" transform="scale(0.015625)"/>
     <path id="DejaVuSans-3a" d="M 750 794 
L 1409 794 
L 1409 0 
L 750 0 
L 750 794 
z
M 750 3309 
L 1409 3309 
L 1409 2516 
L 750 2516 
L 750 3309 
z
" transform="scale(0.015625)"/>
     <path id="DejaVuSans-b7" d="M 684 2619 
L 1344 2619 
L 1344 1825 
L 684 1825 
L 684 2619 
z
" transform="scale(0.015625)"/>
     <path id="DejaVuSans-54" d="M -19 4666 
L 3928 4666 
L 3928 4134 
L 2272 4134 
L 2272 0 
L 1638 0 
L 1638 4134 
L -19 4134 
L -19 4666 
z
" transform="scale(0.015625)"/>
     <path id="DejaVuSans-33" d="M 2597 2516 
Q 3050 2419 3304 2112 
Q 3559 1806 3559 1356 
Q 3559 666 3084 287 
Q 2609 -91 1734 -91 
Q 1441 -91 1130 -33 
Q 819 25 488 141 
L 488 750 
Q 750 597 1062 519 
Q 1375 441 1716 441 
Q 2309 441 2620 675 
Q 2931 909 2931 1356 
Q 2931 1769 2642 2001 
Q 2353 2234 1838 2234 
L 1294 2234 
L 1294 2753 
L 1863 2753 
Q 2328 2753 2575 2939 
Q 2822 3125 2822 3475 
Q 2822 3834 2567 4026 
Q 2313 4219 1838 4219 
Q 1578 4219 1281 4162 
Q 984 4106 628 3988 
L 628 4550 
Q 988 4650 1302 4700 
Q 1616 4750 1894 4750 
Q 2613 4750 3031 4423 
Q 3450 4097 3450 3541 
Q 3450 3153 3228 2886 
Q 3006 2619 2597 2516 
z
" transform="scale(0.015625)"/>
    </defs>
    <use xlink:href="#DejaVuSans-4f"/>
    <use xlink:href="#DejaVuSans-62" transform="translate(78.710938 0)"/>
    <use xlink:href="#DejaVuSans-73" transform="translate(142.1875 0)"/>
    <use xlink:href="#DejaVuSans-2e" transform="translate(194.287109 0)"/>
    <use xlink:href="#DejaVuSans-3a" transform="translate(226.074219 0)"/>
    <use xlink:href="#DejaVuSans-20" transform="translate(259.765625 0)"/>
    <use xlink:href="#DejaVuSans-4e" transform="translate(291.552734 0)"/>
    <use xlink:href="#DejaVuSans-3d" transform="translate(366.357422 0)"/>
    <use xlink:href="#DejaVuSans-38" transform="translate(450.146484 0)"/>
    <use xlink:href="#DejaVuSans-30" transform="translate(513.769531 0)"/>
    <use xlink:href="#DejaVuSans-30" transform="translate(577.392578 0)"/>
    <use xlink:href="#DejaVuSans-20" transform="translate(641.015625 0)"/>
    <use xlink:href="#DejaVuSans-66" transform="translate(672.802734 0)"/>
    <use xlink:href="#DejaVuSans-61" transform="translate(708.007812 0)"/>
    <use xlink:href="#DejaVuSans-6d" transform="translate(769.287109 0)"/>
    <use xlink:href="#DejaVuSans-ed" transform="translate(866.699219 0)"/>
    <use xlink:href="#DejaVuSans-6c" transform="translate(894.482422 0)"/>
    <use xlink:href="#DejaVuSans-69" transform="translate(922.265625 0)"/>
    <use xlink:href="#DejaVuSans-61" transform="translate(950.048828 0)"/>
    <use xlink:href="#DejaVuSans-73" transform="translate(1011.328125 0)"/>
    <use xlink:href="#DejaVuSans-20" transform="translate(1063.427734 0)"/>
    <use xlink:href="#DejaVuSans-b7" transform="translate(1095.214844 0)"/>
    <use xlink:href="#DejaVuSans-20" transform="translate(1127.001953 0)"/>
    <use xlink:href="#DejaVuSans-54" transform="translate(1158.789062 0)"/>
    <use xlink:href="#DejaVuSans-3d" transform="translate(1219.873047 0)"/>
    <use xlink:href="#DejaVuSans-33" transform="translate(1303.662109 0)"/>
    <use xlink:href="#DejaVuSans-30" transform="translate(1367.285156 0)"/>
    <use xlink:href="#DejaVuSans-30" transform="translate(1430.908203 0)"/>
    <use xlink:href="#DejaVuSans-20" transform="translate(1494.53125 0)"/>
    <use xlink:href="#DejaVuSans-70" transform="translate(1526.318359 0)"/>
    <use xlink:href="#DejaVuSans-65" transform="translate(1589.794922 0)"/>
    <use xlink:href="#DejaVuSans-72" transform="translate(1651.318359 0)"/>
    <use xlink:href="#DejaVuSans-ed" transform="translate(1692.431641 0)"/>
    <use xlink:href="#DejaVuSans-6f" transform="translate(1720.214844 0)"/>
    <use xlink:href="#DejaVuSans-64" transform="translate(1781.396484 0)"/>
    <use xlink:href="#DejaVuSans-6f" transform="translate(1844.873047 0)"/>
    <use xlink:href="#DejaVuSans-73" transform="translate(1906.054688 0)"/>
    <use xlink:href="#DejaVuSans-20" transform="translate(1958.154297 0)"/>
    <use xlink:href="#DejaVuSans-28" transform="translate(1989.941406 0)"/>
    <use xlink:href="#DejaVuSans-64" transform="translate(2028.955078 0)"/>
    <use xlink:href="#DejaVuSans-65" transform="translate(2092.431641 0)"/>
    <use xlink:href="#DejaVuSans-73" transform="translate(2153.955078 0)"/>
    <use xlink:href="#DejaVuSans-63" transform="translate(2206.054688 0)"/>
    <use xlink:href="#DejaVuSans-61" transform="translate(2261.035156 0)"/>
    <use xlink:href="#DejaVuSans-72" transform="translate(2322.314453 0)"/>
    <use xlink:href="#DejaVuSans-74" transform="translate(2363.427734 0)"/>
    <use xlink:href="#DejaVuSans-61" transform="translate(2402.636719 0)"/>
    <use xlink:href="#DejaVuSans-6e" transform="translate(2463.916016 0)"/>
    <use xlink:href="#DejaVuSans-64" transform="translate(2527.294922 0)"/>
    <use xlink:href="#DejaVuSans-6f" transform="translate(2590.771484 0)"/>
    <use xlink:href="#DejaVuSans-20" transform="translate(2651.953125 0)"/>
    <use xlink:href="#DejaVuSans-31" transform="translate(2683.740234 0)"/>
    <use xlink:href="#DejaVuSans-30" transform="translate(2747.363281 0)"/>
    <use xlink:href="#DejaVuSans-30" transform="translate(2810.986328 0)"/>
    <use xlink:href="#DejaVuSans-20" transform="translate(2874.609375 0)"/>
    <use xlink:href="#DejaVuSans-64" transform="translate(2906.396484 0)"/>
    <use xlink:href="#DejaVuSans-65" transform="translate(2969.873047 0)"/>
    <use xlink:href="#DejaVuSans-20" transform="translate(3031.396484 0)"/>
    <use xlink:href="#DejaVuSans-62" transform="translate(3063.183594 0)"/>
    <use xlink:href="#DejaVuSans-75" transform="translate(3126.660156 0)"/>
    <use xlink:href="#DejaVuSans-72" transform="translate(3190.039062 0)"/>
    <use xlink:href="#DejaVuSans-6e" transform="translate(3229.402344 0)"/>
    <use xlink:href="#DejaVuSans-2d" transform="translate(3292.78125 0)"/>
    <use xlink:href="#DejaVuSans-69" transform="translate(3328.865234 0)"/>
    <use xlink:href="#DejaVuSans-6e" transform="translate(3356.648438 0)"/>
    <use xlink:href="#DejaVuSans-29" transform="translate(3420.027344 0)"/>
    <use xlink:href="#DejaVuSans-20" transform="translate(3459.041016 0)"/>
    <use xlink:href="#DejaVuSans-b7" transform="translate(3490.828125 0)"/>
    <use xlink:href="#DejaVuSans-20" transform="translate(3522.615234 0)"/>
    <use xlink:href="#DejaVuSans-73" transform="translate(3554.402344 0)"/>
    <use xlink:href="#DejaVuSans-65" transform="translate(3606.501953 0)"/>
    <use xlink:href="#DejaVuSans-6d" transform="translate(3668.025391 0)"/>
    <use xlink:href="#DejaVuSans-65" transform="translate(3765.4375 0)"/>
    <use xlink:href="#DejaVuSans-6e" transform="translate(3826.960938 0)"/>
    <use xlink:href="#DejaVuSans-74" transform="translate(3890.339844 0)"/>
    <use xlink:href="#DejaVuSans-65" transform="translate(3929.548828 0)"/>
    <use xlink:href="#DejaVuSans-3d" transform="translate(3991.072266 0)"/>
    <use xlink:href="#DejaVuSans-30" transform="translate(4074.861328 0)"/>
    <use xlink:href="#DejaVuSans-2e" transform="translate(4138.484375 0)"/>
   </g>
  </g>
 </g>
 <defs>
  <clipPath id="pb6e8c807f8">
   <rect x="61.244286" y="98.125714" width="615.555714" height="244.82"/>
  </clipPath>
 </defs>
</svg>
