<?xml version="1.0" encoding="utf-8" standalone="no"?>
<!DOCTYPE svg PUBLIC "-//W3C//DTD SVG 1.1//EN"
  "http://www.w3.org/Graphics/SVG/1.1/DTD/svg11.dtd">
<svg xmlns:xlink="http://www.w3.org/1999/xlink" width="691.2pt" height="475.74pt" viewBox="0 0 691.2 475.74" xmlns="http://www.w3.org/2000/svg" version="1.1">
 <metadata>
  <rdf:RDF xmlns:dc="http://purl.org/dc/elements/1.1/" xmlns:cc="http://creativecommons.org/ns#" xmlns:rdf="http://www.w3.org/1999/02/22-rdf-syntax-ns#">
   <cc:Work>
    <dc:type rdf:resource="http://purl.org/dc/dcmitype/StillImage"/>
    <dc:date>2026-06-10T15:29:04.192085</dc:date>
    <dc:format>image/svg+xml</dc:format>
    <dc:creator>
     <cc:Agent>
      <dc:title>Matplotlib v3.10.9, https://matplotlib.org/</dc:title>
     </cc:Agent>
    </dc:creator>
   </cc:Work>
  </rdf:RDF>
 </metadata>
 <defs>
  <style type="text/css">*{stroke-linejoin: round; stroke-linecap: butt}</style>
 </defs>
 <g id="figure_1">
  <g id="patch_1">
   <path d="M 0 475.74 
L 691.2 475.74 
L 691.2 0 
L 0 0 
z
" style="fill: #fffcf0"/>
  </g>
  <g id="axes_1">
   <g id="patch_2">
    <path d="M 58.107143 360.657695 
L 676.8 360.657695 
L 676.8 106.02 
L 58.107143 106.02 
z
" style="fill: #fffcf0"/>
   </g>
   <g id="matplotlib.axis_1">
    <g id="xtick_1">
     <g id="line2d_1"/>
     <g id="text_1">
      <!-- 0 -->
      <g style="fill: #6f6e69" transform="translate(66.66477 374.636055) scale(0.105 -0.105)">
       <defs>
        <path id="DejaVuSans-30" d="M 2034 4250 
Q 1547 4250 1301 3770 
Q 1056 3291 1056 2328 
Q 1056 1369 1301 889 
Q 1547 409 2034 409 
Q 2525 409 2770 889 
Q 3016 1369 3016 2328 
Q 3016 3291 2770 3770 
Q 2525 4250 2034 4250 
z
M 2034 4750 
Q 2819 4750 3233 4129 
Q 3647 3509 3647 2328 
Q 3647 1150 3233 529 
Q 2819 -91 2034 -91 
Q 1250 -91 836 529 
Q 422 1150 422 2328 
Q 422 3509 836 4129 
Q 1250 4750 2034 4750 
z
" transform="scale(0.015625)"/>
       </defs>
       <use xlink:href="#DejaVuSans-30"/>
      </g>
     </g>
    </g>
    <g id="xtick_2">
     <g id="line2d_2"/>
     <g id="text_2">
      <!-- 2 -->
      <g style="fill: #6f6e69" transform="translate(185.644166 374.636055) scale(0.105 -0.105)">
       <defs>
        <path id="DejaVuSans-32" d="M 1228 531 
L 3431 531 
L 3431 0 
L 469 0 
L 469 531 
Q 828 903 1448 1529 
Q 2069 2156 2228 2338 
Q 2531 2678 2651 2914 
Q 2772 3150 2772 3378 
Q 2772 3750 2511 3984 
Q 2250 4219 1831 4219 
Q 1534 4219 1204 4116 
Q 875 4013 500 3803 
L 500 4441 
Q 881 4594 1212 4672 
Q 1544 4750 1819 4750 
Q 2544 4750 2975 4387 
Q 3406 4025 3406 3419 
Q 3406 3131 3298 2873 
Q 3191 2616 2906 2266 
Q 2828 2175 2409 1742 
Q 1991 1309 1228 531 
z
" transform="scale(0.015625)"/>
       </defs>
       <use xlink:href="#DejaVuSans-32"/>
      </g>
     </g>
    </g>
    <g id="xtick_3">
     <g id="line2d_3"/>
     <g id="text_3">
      <!-- 4 -->
      <g style="fill: #6f6e69" transform="translate(304.623561 374.636055) scale(0.105 -0.105)">
       <defs>
        <path id="DejaVuSans-34" d="M 2419 4116 
L 825 1625 
L 2419 1625 
L 2419 4116 
z
M 2253 4666 
L 3047 4666 
L 3047 1625 
L 3713 1625 
L 3713 1100 
L 3047 1100 
L 3047 0 
L 2419 0 
L 2419 1100 
L 313 1100 
L 313 1709 
L 2253 4666 
z
" transform="scale(0.015625)"/>
       </defs>
       <use xlink:href="#DejaVuSans-34"/>
      </g>
     </g>
    </g>
    <g id="xtick_4">
     <g id="line2d_4"/>
     <g id="text_4">
      <!-- 6 -->
      <g style="fill: #6f6e69" transform="translate(423.602957 374.636055) scale(0.105 -0.105)">
       <defs>
        <path id="DejaVuSans-36" d="M 2113 2584 
Q 1688 2584 1439 2293 
Q 1191 2003 1191 1497 
Q 1191 994 1439 701 
Q 1688 409 2113 409 
Q 2538 409 2786 701 
Q 3034 994 3034 1497 
Q 3034 2003 2786 2293 
Q 2538 2584 2113 2584 
z
M 3366 4563 
L 3366 3988 
Q 3128 4100 2886 4159 
Q 2644 4219 2406 4219 
Q 1781 4219 1451 3797 
Q 1122 3375 1075 2522 
Q 1259 2794 1537 2939 
Q 1816 3084 2150 3084 
Q 2853 3084 3261 2657 
Q 3669 2231 3669 1497 
Q 3669 778 3244 343 
Q 2819 -91 2113 -91 
Q 1303 -91 875 529 
Q 447 1150 447 2328 
Q 447 3434 972 4092 
Q 1497 4750 2381 4750 
Q 2619 4750 2861 4703 
Q 3103 4656 3366 4563 
z
" transform="scale(0.015625)"/>
       </defs>
       <use xlink:href="#DejaVuSans-36"/>
      </g>
     </g>
    </g>
    <g id="xtick_5">
     <g id="line2d_5"/>
     <g id="text_5">
      <!-- 8 -->
      <g style="fill: #6f6e69" transform="translate(542.582352 374.636055) scale(0.105 -0.105)">
       <defs>
        <path id="DejaVuSans-38" d="M 2034 2216 
Q 1584 2216 1326 1975 
Q 1069 1734 1069 1313 
Q 1069 891 1326 650 
Q 1584 409 2034 409 
Q 2484 409 2743 651 
Q 3003 894 3003 1313 
Q 3003 1734 2745 1975 
Q 2488 2216 2034 2216 
z
M 1403 2484 
Q 997 2584 770 2862 
Q 544 3141 544 3541 
Q 544 4100 942 4425 
Q 1341 4750 2034 4750 
Q 2731 4750 3128 4425 
Q 3525 4100 3525 3541 
Q 3525 3141 3298 2862 
Q 3072 2584 2669 2484 
Q 3125 2378 3379 2068 
Q 3634 1759 3634 1313 
Q 3634 634 3220 271 
Q 2806 -91 2034 -91 
Q 1263 -91 848 271 
Q 434 634 434 1313 
Q 434 1759 690 2068 
Q 947 2378 1403 2484 
z
M 1172 3481 
Q 1172 3119 1398 2916 
Q 1625 2713 2034 2713 
Q 2441 2713 2670 2916 
Q 2900 3119 2900 3481 
Q 2900 3844 2670 4047 
Q 2441 4250 2034 4250 
Q 1625 4250 1398 4047 
Q 1172 3844 1172 3481 
z
" transform="scale(0.015625)"/>
       </defs>
       <use xlink:href="#DejaVuSans-38"/>
      </g>
     </g>
    </g>
    <g id="xtick_6">
     <g id="line2d_6"/>
     <g id="text_6">
      <!-- 10 -->
      <g style="fill: #6f6e69" transform="translate(658.221435 374.636055) scale(0.105 -0.105)">
       <defs>
        <path id="DejaVuSans-31" d="M 794 531 
L 1825 531 
L 1825 4091 
L 703 3866 
L 703 4441 
L 1819 4666 
L 2450 4666 
L 2450 531 
L 3481 531 
L 3481 0 
L 794 0 
L 794 531 
z
" transform="scale(0.015625)"/>
       </defs>
       <use xlink:href="#DejaVuSans-31"/>
       <use xlink:href="#DejaVuSans-30" transform="translate(63.623047 0)"/>
      </g>
     </g>
    </g>
    <g id="text_7">
     <!-- Ativos no início do período $a$ -->
     <g style="fill: #1c1b1a" transform="translate(292.903571 395.219727) scale(0.105 -0.105)">
      <defs>
       <path id="DejaVuSans-41" d="M 2188 4044 
L 1331 1722 
L 3047 1722 
L 2188 4044 
z
M 1831 4666 
L 2547 4666 
L 4325 0 
L 3669 0 
L 3244 1197 
L 1141 1197 
L 716 0 
L 50 0 
L 1831 4666 
z
" transform="scale(0.015625)"/>
       <path id="DejaVuSans-74" d="M 1172 4494 
L 1172 3500 
L 2356 3500 
L 2356 3053 
L 1172 3053 
L 1172 1153 
Q 1172 725 1289 603 
Q 1406 481 1766 481 
L 2356 481 
L 2356 0 
L 1766 0 
Q 1100 0 847 248 
Q 594 497 594 1153 
L 594 3053 
L 172 3053 
L 172 3500 
L 594 3500 
L 594 4494 
L 1172 4494 
z
" transform="scale(0.015625)"/>
       <path id="DejaVuSans-69" d="M 603 3500 
L 1178 3500 
L 1178 0 
L 603 0 
L 603 3500 
z
M 603 4863 
L 1178 4863 
L 1178 4134 
L 603 4134 
L 603 4863 
z
" transform="scale(0.015625)"/>
       <path id="DejaVuSans-76" d="M 191 3500 
L 800 3500 
L 1894 563 
L 2988 3500 
L 3597 3500 
L 2284 0 
L 1503 0 
L 191 3500 
z
" transform="scale(0.015625)"/>
       <path id="DejaVuSans-6f" d="M 1959 3097 
Q 1497 3097 1228 2736 
Q 959 2375 959 1747 
Q 959 1119 1226 758 
Q 1494 397 1959 397 
Q 2419 397 2687 759 
Q 2956 1122 2956 1747 
Q 2956 2369 2687 2733 
Q 2419 3097 1959 3097 
z
M 1959 3584 
Q 2709 3584 3137 3096 
Q 3566 2609 3566 1747 
Q 3566 888 3137 398 
Q 2709 -91 1959 -91 
Q 1206 -91 779 398 
Q 353 888 353 1747 
Q 353 2609 779 3096 
Q 1206 3584 1959 3584 
z
" transform="scale(0.015625)"/>
       <path id="DejaVuSans-73" d="M 2834 3397 
L 2834 2853 
Q 2591 2978 2328 3040 
Q 2066 3103 1784 3103 
Q 1356 3103 1142 2972 
Q 928 2841 928 2578 
Q 928 2378 1081 2264 
Q 1234 2150 1697 2047 
L 1894 2003 
Q 2506 1872 2764 1633 
Q 3022 1394 3022 966 
Q 3022 478 2636 193 
Q 2250 -91 1575 -91 
Q 1294 -91 989 -36 
Q 684 19 347 128 
L 347 722 
Q 666 556 975 473 
Q 1284 391 1588 391 
Q 1994 391 2212 530 
Q 2431 669 2431 922 
Q 2431 1156 2273 1281 
Q 2116 1406 1581 1522 
L 1381 1569 
Q 847 1681 609 1914 
Q 372 2147 372 2553 
Q 372 3047 722 3315 
Q 1072 3584 1716 3584 
Q 2034 3584 2315 3537 
Q 2597 3491 2834 3397 
z
" transform="scale(0.015625)"/>
       <path id="DejaVuSans-20" transform="scale(0.015625)"/>
       <path id="DejaVuSans-6e" d="M 3513 2113 
L 3513 0 
L 2938 0 
L 2938 2094 
Q 2938 2591 2744 2837 
Q 2550 3084 2163 3084 
Q 1697 3084 1428 2787 
Q 1159 2491 1159 1978 
L 1159 0 
L 581 0 
L 581 3500 
L 1159 3500 
L 1159 2956 
Q 1366 3272 1645 3428 
Q 1925 3584 2291 3584 
Q 2894 3584 3203 3211 
Q 3513 2838 3513 2113 
z
" transform="scale(0.015625)"/>
       <path id="DejaVuSans-ed" d="M 1322 5119 
L 1944 5119 
L 926 3944 
L 447 3944 
L 1322 5119 
z
M 603 3500 
L 1178 3500 
L 1178 0 
L 603 0 
L 603 3500 
z
M 891 3584 
L 891 3584 
z
" transform="scale(0.015625)"/>
       <path id="DejaVuSans-63" d="M 3122 3366 
L 3122 2828 
Q 2878 2963 2633 3030 
Q 2388 3097 2138 3097 
Q 1578 3097 1268 2742 
Q 959 2388 959 1747 
Q 959 1106 1268 751 
Q 1578 397 2138 397 
Q 2388 397 2633 464 
Q 2878 531 3122 666 
L 3122 134 
Q 2881 22 2623 -34 
Q 2366 -91 2075 -91 
Q 1284 -91 818 406 
Q 353 903 353 1747 
Q 353 2603 823 3093 
Q 1294 3584 2113 3584 
Q 2378 3584 2631 3529 
Q 2884 3475 3122 3366 
z
" transform="scale(0.015625)"/>
       <path id="DejaVuSans-64" d="M 2906 2969 
L 2906 4863 
L 3481 4863 
L 3481 0 
L 2906 0 
L 2906 525 
Q 2725 213 2448 61 
Q 2172 -91 1784 -91 
Q 1150 -91 751 415 
Q 353 922 353 1747 
Q 353 2572 751 3078 
Q 1150 3584 1784 3584 
Q 2172 3584 2448 3432 
Q 2725 3281 2906 2969 
z
M 947 1747 
Q 947 1113 1208 752 
Q 1469 391 1925 391 
Q 2381 391 2643 752 
Q 2906 1113 2906 1747 
Q 2906 2381 2643 2742 
Q 2381 3103 1925 3103 
Q 1469 3103 1208 2742 
Q 947 2381 947 1747 
z
" transform="scale(0.015625)"/>
       <path id="DejaVuSans-70" d="M 1159 525 
L 1159 -1331 
L 581 -1331 
L 581 3500 
L 1159 3500 
L 1159 2969 
Q 1341 3281 1617 3432 
Q 1894 3584 2278 3584 
Q 2916 3584 3314 3078 
Q 3713 2572 3713 1747 
Q 3713 922 3314 415 
Q 2916 -91 2278 -91 
Q 1894 -91 1617 61 
Q 1341 213 1159 525 
z
M 3116 1747 
Q 3116 2381 2855 2742 
Q 2594 3103 2138 3103 
Q 1681 3103 1420 2742 
Q 1159 2381 1159 1747 
Q 1159 1113 1420 752 
Q 1681 391 2138 391 
Q 2594 391 2855 752 
Q 3116 1113 3116 1747 
z
" transform="scale(0.015625)"/>
       <path id="DejaVuSans-65" d="M 3597 1894 
L 3597 1613 
L 953 1613 
Q 991 1019 1311 708 
Q 1631 397 2203 397 
Q 2534 397 2845 478 
Q 3156 559 3463 722 
L 3463 178 
Q 3153 47 2828 -22 
Q 2503 -91 2169 -91 
Q 1331 -91 842 396 
Q 353 884 353 1716 
Q 353 2575 817 3079 
Q 1281 3584 2069 3584 
Q 2775 3584 3186 3129 
Q 3597 2675 3597 1894 
z
M 3022 2063 
Q 3016 2534 2758 2815 
Q 2500 3097 2075 3097 
Q 1594 3097 1305 2825 
Q 1016 2553 972 2059 
L 3022 2063 
z
" transform="scale(0.015625)"/>
       <path id="DejaVuSans-72" d="M 2631 2963 
Q 2534 3019 2420 3045 
Q 2306 3072 2169 3072 
Q 1681 3072 1420 2755 
Q 1159 2438 1159 1844 
L 1159 0 
L 581 0 
L 581 3500 
L 1159 3500 
L 1159 2956 
Q 1341 3275 1631 3429 
Q 1922 3584 2338 3584 
Q 2397 3584 2469 3576 
Q 2541 3569 2628 3553 
L 2631 2963 
z
" transform="scale(0.015625)"/>
       <path id="DejaVuSans-Oblique-61" d="M 3438 1997 
L 3047 0 
L 2472 0 
L 2578 531 
Q 2325 219 2001 64 
Q 1678 -91 1281 -91 
Q 834 -91 548 182 
Q 263 456 263 884 
Q 263 1497 752 1853 
Q 1241 2209 2100 2209 
L 2900 2209 
L 2931 2363 
Q 2938 2388 2941 2417 
Q 2944 2447 2944 2509 
Q 2944 2788 2717 2942 
Q 2491 3097 2081 3097 
Q 1800 3097 1504 3025 
Q 1209 2953 897 2809 
L 997 3341 
Q 1322 3463 1633 3523 
Q 1944 3584 2234 3584 
Q 2853 3584 3176 3315 
Q 3500 3047 3500 2534 
Q 3500 2431 3484 2292 
Q 3469 2153 3438 1997 
z
M 2816 1759 
L 2241 1759 
Q 1534 1759 1195 1570 
Q 856 1381 856 984 
Q 856 709 1029 553 
Q 1203 397 1509 397 
Q 1978 397 2328 733 
Q 2678 1069 2791 1631 
L 2816 1759 
z
" transform="scale(0.015625)"/>
      </defs>
      <use xlink:href="#DejaVuSans-41" transform="translate(0 0.015625)"/>
      <use xlink:href="#DejaVuSans-74" transform="translate(68.408203 0.015625)"/>
      <use xlink:href="#DejaVuSans-69" transform="translate(107.617188 0.015625)"/>
      <use xlink:href="#DejaVuSans-76" transform="translate(135.400391 0.015625)"/>
      <use xlink:href="#DejaVuSans-6f" transform="translate(194.580078 0.015625)"/>
      <use xlink:href="#DejaVuSans-73" transform="translate(255.761719 0.015625)"/>
      <use xlink:href="#DejaVuSans-20" transform="translate(307.861328 0.015625)"/>
      <use xlink:href="#DejaVuSans-6e" transform="translate(339.648438 0.015625)"/>
      <use xlink:href="#DejaVuSans-6f" transform="translate(403.027344 0.015625)"/>
      <use xlink:href="#DejaVuSans-20" transform="translate(464.208984 0.015625)"/>
      <use xlink:href="#DejaVuSans-69" transform="translate(495.996094 0.015625)"/>
      <use xlink:href="#DejaVuSans-6e" transform="translate(523.779297 0.015625)"/>
      <use xlink:href="#DejaVuSans-ed" transform="translate(587.158203 0.015625)"/>
      <use xlink:href="#DejaVuSans-63" transform="translate(614.941406 0.015625)"/>
      <use xlink:href="#DejaVuSans-69" transform="translate(669.921875 0.015625)"/>
      <use xlink:href="#DejaVuSans-6f" transform="translate(697.705078 0.015625)"/>
      <use xlink:href="#DejaVuSans-20" transform="translate(758.886719 0.015625)"/>
      <use xlink:href="#DejaVuSans-64" transform="translate(790.673828 0.015625)"/>
      <use xlink:href="#DejaVuSans-6f" transform="translate(854.150391 0.015625)"/>
      <use xlink:href="#DejaVuSans-20" transform="translate(915.332031 0.015625)"/>
      <use xlink:href="#DejaVuSans-70" transform="translate(947.119141 0.015625)"/>
      <use xlink:href="#DejaVuSans-65" transform="translate(1010.595703 0.015625)"/>
      <use xlink:href="#DejaVuSans-72" transform="translate(1072.119141 0.015625)"/>
      <use xlink:href="#DejaVuSans-ed" transform="translate(1113.232422 0.015625)"/>
      <use xlink:href="#DejaVuSans-6f" transform="translate(1141.015625 0.015625)"/>
      <use xlink:href="#DejaVuSans-64" transform="translate(1202.197266 0.015625)"/>
      <use xlink:href="#DejaVuSans-6f" transform="translate(1265.673828 0.015625)"/>
      <use xlink:href="#DejaVuSans-20" transform="translate(1326.855469 0.015625)"/>
      <use xlink:href="#DejaVuSans-Oblique-61" transform="translate(1358.642578 0.015625)"/>
     </g>
    </g>
   </g>
   <g id="matplotlib.axis_2">
    <g id="ytick_1">
     <g id="line2d_7">
      <path d="M 58.107143 319.86622 
L 676.8 319.86622 
" clip-path="url(#pebe2c33643)" style="fill: none; stroke: #cecdc3; stroke-opacity: 0.9; stroke-width: 0.9; stroke-linecap: square"/>
     </g>
     <g id="line2d_8"/>
     <g id="text_8">
      <!-- 2 -->
      <g style="fill: #6f6e69" transform="translate(45.426518 323.8554) scale(0.105 -0.105)">
       <use xlink:href="#DejaVuSans-32"/>
      </g>
     </g>
    </g>
    <g id="ytick_2">
     <g id="line2d_9">
      <path d="M 58.107143 274.916936 
L 676.8 274.916936 
" clip-path="url(#pebe2c33643)" style="fill: none; stroke: #cecdc3; stroke-opacity: 0.9; stroke-width: 0.9; stroke-linecap: square"/>
     </g>
     <g id="line2d_10"/>
     <g id="text_9">
      <!-- 4 -->
      <g style="fill: #6f6e69" transform="translate(45.426518 278.906115) scale(0.105 -0.105)">
       <use xlink:href="#DejaVuSans-34"/>
      </g>
     </g>
    </g>
    <g id="ytick_3">
     <g id="line2d_11">
      <path d="M 58.107143 229.967651 
L 676.8 229.967651 
" clip-path="url(#pebe2c33643)" style="fill: none; stroke: #cecdc3; stroke-opacity: 0.9; stroke-width: 0.9; stroke-linecap: square"/>
     </g>
     <g id="line2d_12"/>
     <g id="text_10">
      <!-- 6 -->
      <g style="fill: #6f6e69" transform="translate(45.426518 233.956831) scale(0.105 -0.105)">
       <use xlink:href="#DejaVuSans-36"/>
      </g>
     </g>
    </g>
    <g id="ytick_4">
     <g id="line2d_13">
      <path d="M 58.107143 185.018367 
L 676.8 185.018367 
" clip-path="url(#pebe2c33643)" style="fill: none; stroke: #cecdc3; stroke-opacity: 0.9; stroke-width: 0.9; stroke-linecap: square"/>
     </g>
     <g id="line2d_14"/>
     <g id="text_11">
      <!-- 8 -->
      <g style="fill: #6f6e69" transform="translate(45.426518 189.007547) scale(0.105 -0.105)">
       <use xlink:href="#DejaVuSans-38"/>
      </g>
     </g>
    </g>
    <g id="ytick_5">
     <g id="line2d_15">
      <path d="M 58.107143 140.069083 
L 676.8 140.069083 
" clip-path="url(#pebe2c33643)" style="fill: none; stroke: #cecdc3; stroke-opacity: 0.9; stroke-width: 0.9; stroke-linecap: square"/>
     </g>
     <g id="line2d_16"/>
     <g id="text_12">
      <!-- 10 -->
      <g style="fill: #6f6e69" transform="translate(38.745893 144.058263) scale(0.105 -0.105)">
       <use xlink:href="#DejaVuSans-31"/>
       <use xlink:href="#DejaVuSans-30" transform="translate(63.623047 0)"/>
      </g>
     </g>
    </g>
    <g id="text_13">
     <!-- Consumo $c^*(a, y)$ -->
     <g style="fill: #1c1b1a" transform="translate(26.540893 279.276348) rotate(-90) scale(0.105 -0.105)">
      <defs>
       <path id="DejaVuSans-43" d="M 4122 4306 
L 4122 3641 
Q 3803 3938 3442 4084 
Q 3081 4231 2675 4231 
Q 1875 4231 1450 3742 
Q 1025 3253 1025 2328 
Q 1025 1406 1450 917 
Q 1875 428 2675 428 
Q 3081 428 3442 575 
Q 3803 722 4122 1019 
L 4122 359 
Q 3791 134 3420 21 
Q 3050 -91 2638 -91 
Q 1578 -91 968 557 
Q 359 1206 359 2328 
Q 359 3453 968 4101 
Q 1578 4750 2638 4750 
Q 3056 4750 3426 4639 
Q 3797 4528 4122 4306 
z
" transform="scale(0.015625)"/>
       <path id="DejaVuSans-75" d="M 544 1381 
L 544 3500 
L 1119 3500 
L 1119 1403 
Q 1119 906 1312 657 
Q 1506 409 1894 409 
Q 2359 409 2629 706 
Q 2900 1003 2900 1516 
L 2900 3500 
L 3475 3500 
L 3475 0 
L 2900 0 
L 2900 538 
Q 2691 219 2414 64 
Q 2138 -91 1772 -91 
Q 1169 -91 856 284 
Q 544 659 544 1381 
z
M 1991 3584 
L 1991 3584 
z
" transform="scale(0.015625)"/>
       <path id="DejaVuSans-6d" d="M 3328 2828 
Q 3544 3216 3844 3400 
Q 4144 3584 4550 3584 
Q 5097 3584 5394 3201 
Q 5691 2819 5691 2113 
L 5691 0 
L 5113 0 
L 5113 2094 
Q 5113 2597 4934 2840 
Q 4756 3084 4391 3084 
Q 3944 3084 3684 2787 
Q 3425 2491 3425 1978 
L 3425 0 
L 2847 0 
L 2847 2094 
Q 2847 2600 2669 2842 
Q 2491 3084 2119 3084 
Q 1678 3084 1418 2786 
Q 1159 2488 1159 1978 
L 1159 0 
L 581 0 
L 581 3500 
L 1159 3500 
L 1159 2956 
Q 1356 3278 1631 3431 
Q 1906 3584 2284 3584 
Q 2666 3584 2933 3390 
Q 3200 3197 3328 2828 
z
" transform="scale(0.015625)"/>
       <path id="DejaVuSans-Oblique-63" d="M 3431 3366 
L 3316 2797 
Q 3109 2947 2876 3022 
Q 2644 3097 2394 3097 
Q 2119 3097 1870 3000 
Q 1622 2903 1453 2725 
Q 1184 2453 1037 2087 
Q 891 1722 891 1331 
Q 891 859 1127 628 
Q 1363 397 1844 397 
Q 2081 397 2348 469 
Q 2616 541 2906 684 
L 2797 116 
Q 2547 13 2283 -39 
Q 2019 -91 1741 -91 
Q 1044 -91 669 257 
Q 294 606 294 1253 
Q 294 1797 489 2255 
Q 684 2713 1069 3078 
Q 1331 3328 1684 3456 
Q 2038 3584 2456 3584 
Q 2700 3584 2940 3529 
Q 3181 3475 3431 3366 
z
" transform="scale(0.015625)"/>
       <path id="DejaVuSans-2a" d="M 3009 3897 
L 1888 3291 
L 3009 2681 
L 2828 2375 
L 1778 3009 
L 1778 1831 
L 1422 1831 
L 1422 3009 
L 372 2375 
L 191 2681 
L 1313 3291 
L 191 3897 
L 372 4206 
L 1422 3572 
L 1422 4750 
L 1778 4750 
L 1778 3572 
L 2828 4206 
L 3009 3897 
z
" transform="scale(0.015625)"/>
       <path id="DejaVuSans-28" d="M 1984 4856 
Q 1566 4138 1362 3434 
Q 1159 2731 1159 2009 
Q 1159 1288 1364 580 
Q 1569 -128 1984 -844 
L 1484 -844 
Q 1016 -109 783 600 
Q 550 1309 550 2009 
Q 550 2706 781 3412 
Q 1013 4119 1484 4856 
L 1984 4856 
z
" transform="scale(0.015625)"/>
       <path id="DejaVuSans-2c" d="M 750 794 
L 1409 794 
L 1409 256 
L 897 -744 
L 494 -744 
L 750 256 
L 750 794 
z
" transform="scale(0.015625)"/>
       <path id="DejaVuSans-Oblique-79" d="M 1588 -325 
Q 1188 -997 936 -1164 
Q 684 -1331 294 -1331 
L -159 -1331 
L -63 -850 
L 269 -850 
Q 509 -850 678 -719 
Q 847 -588 1056 -206 
L 1234 128 
L 459 3500 
L 1069 3500 
L 1650 819 
L 3256 3500 
L 3859 3500 
L 1588 -325 
z
" transform="scale(0.015625)"/>
       <path id="DejaVuSans-29" d="M 513 4856 
L 1013 4856 
Q 1481 4119 1714 3412 
Q 1947 2706 1947 2009 
Q 1947 1309 1714 600 
Q 1481 -109 1013 -844 
L 513 -844 
Q 928 -128 1133 580 
Q 1338 1288 1338 2009 
Q 1338 2731 1133 3434 
Q 928 4138 513 4856 
z
" transform="scale(0.015625)"/>
      </defs>
      <use xlink:href="#DejaVuSans-43" transform="translate(0 0.765625)"/>
      <use xlink:href="#DejaVuSans-6f" transform="translate(69.824219 0.765625)"/>
      <use xlink:href="#DejaVuSans-6e" transform="translate(131.005859 0.765625)"/>
      <use xlink:href="#DejaVuSans-73" transform="translate(194.384766 0.765625)"/>
      <use xlink:href="#DejaVuSans-75" transform="translate(246.484375 0.765625)"/>
      <use xlink:href="#DejaVuSans-6d" transform="translate(309.863281 0.765625)"/>
      <use xlink:href="#DejaVuSans-6f" transform="translate(407.275391 0.765625)"/>
      <use xlink:href="#DejaVuSans-20" transform="translate(468.457031 0.765625)"/>
      <use xlink:href="#DejaVuSans-Oblique-63" transform="translate(500.244141 0.765625)"/>
      <use xlink:href="#DejaVuSans-2a" transform="translate(573.512201 39.046875) scale(0.7)"/>
      <use xlink:href="#DejaVuSans-28" transform="translate(624.884271 0.765625)"/>
      <use xlink:href="#DejaVuSans-Oblique-61" transform="translate(663.897943 0.765625)"/>
      <use xlink:href="#DejaVuSans-2c" transform="translate(725.17724 0.765625)"/>
      <use xlink:href="#DejaVuSans-Oblique-79" transform="translate(776.446771 0.765625)"/>
      <use xlink:href="#DejaVuSans-29" transform="translate(835.626458 0.765625)"/>
     </g>
    </g>
   </g>
   <g id="line2d_17">
    <path d="M 70.005082 349.083255 
L 80.088082 345.159716 
L 90.171082 345.045438 
L 100.254081 344.93116 
L 110.337081 344.816882 
L 120.420081 344.702604 
L 130.50308 344.588326 
L 140.58608 344.474049 
L 150.669079 344.359771 
L 160.752079 344.245493 
L 170.835079 344.131215 
L 180.918078 344.016937 
L 191.001078 343.902659 
L 201.084078 343.788381 
L 211.167077 339.864842 
L 221.250077 339.750564 
L 231.333076 339.636287 
L 241.416076 339.522009 
L 251.499076 339.407731 
L 261.582075 339.293453 
L 271.665075 339.179175 
L 281.748075 339.064897 
L 291.831074 338.95062 
L 301.914074 338.836342 
L 311.997073 338.722064 
L 322.080073 338.607786 
L 332.163073 338.493508 
L 342.246072 338.37923 
L 352.329072 338.264952 
L 362.412072 338.150675 
L 372.495071 338.036397 
L 382.578071 337.922119 
L 392.66107 337.807841 
L 402.74407 337.693563 
L 412.82707 337.579285 
L 422.910069 337.465008 
L 432.993069 337.35073 
L 443.076069 337.236452 
L 453.159068 337.122174 
L 463.242068 337.007896 
L 473.325068 336.893618 
L 483.408067 336.779341 
L 493.491067 336.665063 
L 503.574066 336.550785 
L 513.657066 336.436507 
L 523.740066 336.322229 
L 533.823065 336.207951 
L 543.906065 336.093673 
L 553.989065 335.979396 
L 564.072064 335.865118 
L 574.155064 335.75084 
L 584.238063 335.636562 
L 594.321063 335.522284 
L 604.404063 335.408006 
L 614.487062 335.293729 
L 624.570062 335.179451 
L 634.653062 335.065173 
L 644.736061 334.950895 
L 654.819061 334.836617 
L 664.90206 334.722339 
" clip-path="url(#pebe2c33643)" style="fill: none; stroke: #d14d41; stroke-width: 2.4; stroke-linecap: square"/>
   </g>
   <g id="line2d_18">
    <path d="M 70.005082 343.216992 
L 80.088082 343.102714 
L 90.171082 342.988437 
L 100.254081 342.874159 
L 110.337081 342.759881 
L 120.420081 338.836342 
L 130.50308 338.722064 
L 140.58608 338.607786 
L 150.669079 338.493508 
L 160.752079 338.37923 
L 170.835079 338.264952 
L 180.918078 338.150675 
L 191.001078 338.036397 
L 201.084078 337.922119 
L 211.167077 337.807841 
L 221.250077 337.693563 
L 231.333076 337.579285 
L 241.416076 337.465008 
L 251.499076 337.35073 
L 261.582075 337.236452 
L 271.665075 337.122174 
L 281.748075 337.007896 
L 291.831074 336.893618 
L 301.914074 336.779341 
L 311.997073 336.665063 
L 322.080073 336.550785 
L 332.163073 336.436507 
L 342.246072 336.322229 
L 352.329072 336.207951 
L 362.412072 336.093673 
L 372.495071 335.979396 
L 382.578071 335.865118 
L 392.66107 335.75084 
L 402.74407 335.636562 
L 412.82707 335.522284 
L 422.910069 335.408006 
L 432.993069 335.293729 
L 443.076069 335.179451 
L 453.159068 335.065173 
L 463.242068 334.950895 
L 473.325068 334.836617 
L 483.408067 334.722339 
L 493.491067 334.608062 
L 503.574066 334.493784 
L 513.657066 334.379506 
L 523.740066 334.265228 
L 533.823065 334.15095 
L 543.906065 334.036672 
L 553.989065 333.922394 
L 564.072064 333.808117 
L 574.155064 333.693839 
L 584.238063 333.579561 
L 594.321063 333.465283 
L 604.404063 333.351005 
L 614.487062 333.236727 
L 624.570062 333.12245 
L 634.653062 333.008172 
L 644.736061 329.084633 
L 654.819061 328.970355 
L 664.90206 328.856077 
" clip-path="url(#pebe2c33643)" style="fill: none; stroke: #879a39; stroke-width: 2.4; stroke-linecap: square"/>
   </g>
   <g id="line2d_19">
    <path d="M 70.005082 349.083255 
L 80.088082 345.159716 
L 90.171082 341.236176 
L 100.254081 337.312637 
L 110.337081 333.389098 
L 120.420081 329.465559 
L 130.50308 325.542019 
L 140.58608 321.61848 
L 150.669079 317.694941 
L 160.752079 313.771402 
L 170.835079 309.847863 
L 180.918078 305.924323 
L 191.001078 302.000784 
L 201.084078 298.077245 
L 211.167077 294.153706 
L 221.250077 290.230166 
L 231.333076 286.306627 
L 241.416076 282.383088 
L 251.499076 278.459549 
L 261.582075 274.53601 
L 271.665075 270.61247 
L 281.748075 266.688931 
L 291.831074 262.765392 
L 301.914074 258.841853 
L 311.997073 254.918313 
L 322.080073 250.994774 
L 332.163073 247.071235 
L 342.246072 243.147696 
L 352.329072 239.224157 
L 362.412072 235.300617 
L 372.495071 231.377078 
L 382.578071 227.453539 
L 392.66107 223.53 
L 402.74407 219.60646 
L 412.82707 215.682921 
L 422.910069 211.759382 
L 432.993069 207.835843 
L 443.076069 203.912304 
L 453.159068 199.988764 
L 463.242068 196.065225 
L 473.325068 192.141686 
L 483.408067 188.218147 
L 493.491067 184.294607 
L 503.574066 180.371068 
L 513.657066 176.447529 
L 523.740066 172.52399 
L 533.823065 168.600451 
L 543.906065 164.676911 
L 553.989065 160.753372 
L 564.072064 156.829833 
L 574.155064 152.906294 
L 584.238063 148.982754 
L 594.321063 145.059215 
L 604.404063 141.135676 
L 614.487062 137.212137 
L 624.570062 133.288598 
L 634.653062 129.365058 
L 644.736061 125.441519 
L 654.819061 121.51798 
L 664.90206 117.594441 
" clip-path="url(#pebe2c33643)" style="fill: none; stroke-dasharray: 4.44,1.92; stroke-dashoffset: 0; stroke: #6f6e69; stroke-opacity: 0.75; stroke-width: 1.2"/>
   </g>
   <g id="patch_3">
    <path d="M 58.107143 360.657695 
L 58.107143 106.02 
" style="fill: none; stroke: #cecdc3; stroke-width: 0.8; stroke-linejoin: miter; stroke-linecap: square"/>
   </g>
   <g id="patch_4">
    <path d="M 58.107143 360.657695 
L 676.8 360.657695 
" style="fill: none; stroke: #cecdc3; stroke-width: 0.8; stroke-linejoin: miter; stroke-linecap: square"/>
   </g>
   <g id="patch_5">
    <path d="M 143.635725 371.731534 
Q 118.693281 359.281877 93.750837 346.83222 
" style="fill: none; opacity: 0.75; stroke: #bc5215; stroke-width: 0.9; stroke-linecap: round"/>
   </g>
   <g id="text_14">
    <g id="patch_6">
     <path d="M 129.419082 418.359494 
L 251.269519 418.359494 
Q 252.397519 418.359494 252.397519 417.231494 
L 252.397519 372.859381 
Q 252.397519 371.731381 251.269519 371.731381 
L 129.419082 371.731381 
Q 128.291082 371.731381 128.291082 372.859381 
L 128.291082 417.231494 
Q 128.291082 418.359494 129.419082 418.359494 
z
" style="fill: #fffcf0; opacity: 0.96"/>
    </g>
    <!-- Restrição de crédito ativa -->
    <g style="fill: #bc5215" transform="translate(130.171082 380.987444) scale(0.094 -0.094)">
     <defs>
      <path id="DejaVuSans-52" d="M 2841 2188 
Q 3044 2119 3236 1894 
Q 3428 1669 3622 1275 
L 4263 0 
L 3584 0 
L 2988 1197 
Q 2756 1666 2539 1819 
Q 2322 1972 1947 1972 
L 1259 1972 
L 1259 0 
L 628 0 
L 628 4666 
L 2053 4666 
Q 2853 4666 3247 4331 
Q 3641 3997 3641 3322 
Q 3641 2881 3436 2590 
Q 3231 2300 2841 2188 
z
M 1259 4147 
L 1259 2491 
L 2053 2491 
Q 2509 2491 2742 2702 
Q 2975 2913 2975 3322 
Q 2975 3731 2742 3939 
Q 2509 4147 2053 4147 
L 1259 4147 
z
" transform="scale(0.015625)"/>
      <path id="DejaVuSans-e7" d="M 3122 3366 
L 3122 2828 
Q 2878 2963 2633 3030 
Q 2388 3097 2138 3097 
Q 1578 3097 1268 2742 
Q 959 2388 959 1747 
Q 959 1106 1268 751 
Q 1578 397 2138 397 
Q 2388 397 2633 464 
Q 2878 531 3122 666 
L 3122 134 
Q 2881 22 2623 -34 
Q 2366 -91 2075 -91 
Q 1284 -91 818 406 
Q 353 903 353 1747 
Q 353 2603 823 3093 
Q 1294 3584 2113 3584 
Q 2378 3584 2631 3529 
Q 2884 3475 3122 3366 
z
M 2311 0 
Q 2482 -194 2566 -358 
Q 2651 -522 2651 -672 
Q 2651 -950 2463 -1092 
Q 2276 -1234 1907 -1234 
Q 1764 -1234 1628 -1215 
Q 1492 -1197 1357 -1159 
L 1357 -750 
Q 1464 -803 1579 -826 
Q 1695 -850 1842 -850 
Q 2026 -850 2120 -775 
Q 2214 -700 2214 -556 
Q 2214 -463 2146 -327 
Q 2079 -191 1939 0 
L 2311 0 
z
" transform="scale(0.015625)"/>
      <path id="DejaVuSans-e3" d="M 2194 1759 
Q 1497 1759 1228 1600 
Q 959 1441 959 1056 
Q 959 750 1161 570 
Q 1363 391 1709 391 
Q 2188 391 2477 730 
Q 2766 1069 2766 1631 
L 2766 1759 
L 2194 1759 
z
M 3341 1997 
L 3341 0 
L 2766 0 
L 2766 531 
Q 2569 213 2275 61 
Q 1981 -91 1556 -91 
Q 1019 -91 701 211 
Q 384 513 384 1019 
Q 384 1609 779 1909 
Q 1175 2209 1959 2209 
L 2766 2209 
L 2766 2266 
Q 2766 2663 2505 2880 
Q 2244 3097 1772 3097 
Q 1472 3097 1187 3025 
Q 903 2953 641 2809 
L 641 3341 
Q 956 3463 1253 3523 
Q 1550 3584 1831 3584 
Q 2591 3584 2966 3190 
Q 3341 2797 3341 1997 
z
M 1844 4281 
L 1665 4453 
Q 1597 4516 1545 4545 
Q 1494 4575 1453 4575 
Q 1334 4575 1278 4461 
Q 1222 4347 1215 4091 
L 825 4091 
Q 831 4513 990 4742 
Q 1150 4972 1434 4972 
Q 1553 4972 1653 4928 
Q 1753 4884 1869 4781 
L 2047 4609 
Q 2115 4547 2167 4517 
Q 2219 4488 2259 4488 
Q 2378 4488 2434 4602 
Q 2490 4716 2497 4972 
L 2887 4972 
Q 2881 4550 2721 4320 
Q 2562 4091 2278 4091 
Q 2159 4091 2059 4134 
Q 1959 4178 1844 4281 
z
" transform="scale(0.015625)"/>
      <path id="DejaVuSans-e9" d="M 3597 1894 
L 3597 1613 
L 953 1613 
Q 991 1019 1311 708 
Q 1631 397 2203 397 
Q 2534 397 2845 478 
Q 3156 559 3463 722 
L 3463 178 
Q 3153 47 2828 -22 
Q 2503 -91 2169 -91 
Q 1331 -91 842 396 
Q 353 884 353 1716 
Q 353 2575 817 3079 
Q 1281 3584 2069 3584 
Q 2775 3584 3186 3129 
Q 3597 2675 3597 1894 
z
M 3022 2063 
Q 3016 2534 2758 2815 
Q 2500 3097 2075 3097 
Q 1594 3097 1305 2825 
Q 1016 2553 972 2059 
L 3022 2063 
z
M 2466 5119 
L 3088 5119 
L 2070 3944 
L 1591 3944 
L 2466 5119 
z
" transform="scale(0.015625)"/>
      <path id="DejaVuSans-61" d="M 2194 1759 
Q 1497 1759 1228 1600 
Q 959 1441 959 1056 
Q 959 750 1161 570 
Q 1363 391 1709 391 
Q 2188 391 2477 730 
Q 2766 1069 2766 1631 
L 2766 1759 
L 2194 1759 
z
M 3341 1997 
L 3341 0 
L 2766 0 
L 2766 531 
Q 2569 213 2275 61 
Q 1981 -91 1556 -91 
Q 1019 -91 701 211 
Q 384 513 384 1019 
Q 384 1609 779 1909 
Q 1175 2209 1959 2209 
L 2766 2209 
L 2766 2266 
Q 2766 2663 2505 2880 
Q 2244 3097 1772 3097 
Q 1472 3097 1187 3025 
Q 903 2953 641 2809 
L 641 3341 
Q 956 3463 1253 3523 
Q 1550 3584 1831 3584 
Q 2591 3584 2966 3190 
Q 3341 2797 3341 1997 
z
" transform="scale(0.015625)"/>
     </defs>
     <use xlink:href="#DejaVuSans-52"/>
     <use xlink:href="#DejaVuSans-65" transform="translate(64.982422 0)"/>
     <use xlink:href="#DejaVuSans-73" transform="translate(126.505859 0)"/>
     <use xlink:href="#DejaVuSans-74" transform="translate(178.605469 0)"/>
     <use xlink:href="#DejaVuSans-72" transform="translate(217.814453 0)"/>
     <use xlink:href="#DejaVuSans-69" transform="translate(258.927734 0)"/>
     <use xlink:href="#DejaVuSans-e7" transform="translate(286.710938 0)"/>
     <use xlink:href="#DejaVuSans-e3" transform="translate(341.691406 0)"/>
     <use xlink:href="#DejaVuSans-6f" transform="translate(402.970703 0)"/>
     <use xlink:href="#DejaVuSans-20" transform="translate(464.152344 0)"/>
     <use xlink:href="#DejaVuSans-64" transform="translate(495.939453 0)"/>
     <use xlink:href="#DejaVuSans-65" transform="translate(559.416016 0)"/>
     <use xlink:href="#DejaVuSans-20" transform="translate(620.939453 0)"/>
     <use xlink:href="#DejaVuSans-63" transform="translate(652.726562 0)"/>
     <use xlink:href="#DejaVuSans-72" transform="translate(707.707031 0)"/>
     <use xlink:href="#DejaVuSans-e9" transform="translate(746.570312 0)"/>
     <use xlink:href="#DejaVuSans-64" transform="translate(808.09375 0)"/>
     <use xlink:href="#DejaVuSans-69" transform="translate(871.570312 0)"/>
     <use xlink:href="#DejaVuSans-74" transform="translate(899.353516 0)"/>
     <use xlink:href="#DejaVuSans-6f" transform="translate(938.5625 0)"/>
     <use xlink:href="#DejaVuSans-20" transform="translate(999.744141 0)"/>
     <use xlink:href="#DejaVuSans-61" transform="translate(1031.53125 0)"/>
     <use xlink:href="#DejaVuSans-74" transform="translate(1092.810547 0)"/>
     <use xlink:href="#DejaVuSans-69" transform="translate(1132.019531 0)"/>
     <use xlink:href="#DejaVuSans-76" transform="translate(1159.802734 0)"/>
     <use xlink:href="#DejaVuSans-61" transform="translate(1218.982422 0)"/>
    </g>
    <!-- ($a'\geq 0$): poupança -->
    <g style="fill: #bc5215" transform="translate(130.171082 391.74075) scale(0.094 -0.094)">
     <defs>
      <path id="Cmsy10-30" d="M 225 347 
Q 184 359 184 409 
L 966 3316 
Q 1003 3434 1093 3506 
Q 1184 3578 1300 3578 
Q 1450 3578 1564 3479 
Q 1678 3381 1678 3231 
Q 1678 3166 1644 3084 
L 488 319 
Q 466 275 428 275 
Q 394 275 320 306 
Q 247 338 225 347 
z
" transform="scale(0.015625)"/>
      <path id="DejaVuSans-2265" d="M 678 3175 
L 678 3725 
L 4684 2578 
L 4684 2047 
L 678 897 
L 678 1453 
L 3681 2309 
L 678 3175 
z
M 4684 531 
L 4684 0 
L 678 0 
L 678 531 
L 4684 531 
z
" transform="scale(0.015625)"/>
      <path id="DejaVuSans-3a" d="M 750 794 
L 1409 794 
L 1409 0 
L 750 0 
L 750 794 
z
M 750 3309 
L 1409 3309 
L 1409 2516 
L 750 2516 
L 750 3309 
z
" transform="scale(0.015625)"/>
     </defs>
     <use xlink:href="#DejaVuSans-28" transform="translate(0 0.584375)"/>
     <use xlink:href="#DejaVuSans-Oblique-61" transform="translate(39.013672 0.584375)"/>
     <use xlink:href="#Cmsy10-30" transform="translate(104.942865 38.865625) scale(0.7)"/>
     <use xlink:href="#DejaVuSans-2265" transform="translate(146.402826 0.584375)"/>
     <use xlink:href="#DejaVuSans-30" transform="translate(249.67431 0.584375)"/>
     <use xlink:href="#DejaVuSans-29" transform="translate(313.297357 0.584375)"/>
     <use xlink:href="#DejaVuSans-3a" transform="translate(352.311029 0.584375)"/>
     <use xlink:href="#DejaVuSans-20" transform="translate(386.002435 0.584375)"/>
     <use xlink:href="#DejaVuSans-70" transform="translate(417.789544 0.584375)"/>
     <use xlink:href="#DejaVuSans-6f" transform="translate(481.266107 0.584375)"/>
     <use xlink:href="#DejaVuSans-75" transform="translate(542.447747 0.584375)"/>
     <use xlink:href="#DejaVuSans-70" transform="translate(605.826654 0.584375)"/>
     <use xlink:href="#DejaVuSans-61" transform="translate(669.303216 0.584375)"/>
     <use xlink:href="#DejaVuSans-6e" transform="translate(730.582513 0.584375)"/>
     <use xlink:href="#DejaVuSans-e7" transform="translate(793.961419 0.584375)"/>
     <use xlink:href="#DejaVuSans-61" transform="translate(848.941888 0.584375)"/>
    </g>
    <!-- precaucional move $c^*$ -->
    <g style="fill: #bc5215" transform="translate(130.171082 403.97955) scale(0.094 -0.094)">
     <defs>
      <path id="DejaVuSans-6c" d="M 603 4863 
L 1178 4863 
L 1178 0 
L 603 0 
L 603 4863 
z
" transform="scale(0.015625)"/>
     </defs>
     <use xlink:href="#DejaVuSans-70" transform="translate(0 0.765625)"/>
     <use xlink:href="#DejaVuSans-72" transform="translate(63.476562 0.765625)"/>
     <use xlink:href="#DejaVuSans-65" transform="translate(104.589844 0.765625)"/>
     <use xlink:href="#DejaVuSans-63" transform="translate(166.113281 0.765625)"/>
     <use xlink:href="#DejaVuSans-61" transform="translate(221.09375 0.765625)"/>
     <use xlink:href="#DejaVuSans-75" transform="translate(282.373047 0.765625)"/>
     <use xlink:href="#DejaVuSans-63" transform="translate(345.751953 0.765625)"/>
     <use xlink:href="#DejaVuSans-69" transform="translate(400.732422 0.765625)"/>
     <use xlink:href="#DejaVuSans-6f" transform="translate(428.515625 0.765625)"/>
     <use xlink:href="#DejaVuSans-6e" transform="translate(489.697266 0.765625)"/>
     <use xlink:href="#DejaVuSans-61" transform="translate(553.076172 0.765625)"/>
     <use xlink:href="#DejaVuSans-6c" transform="translate(614.355469 0.765625)"/>
     <use xlink:href="#DejaVuSans-20" transform="translate(642.138672 0.765625)"/>
     <use xlink:href="#DejaVuSans-6d" transform="translate(673.925781 0.765625)"/>
     <use xlink:href="#DejaVuSans-6f" transform="translate(771.337891 0.765625)"/>
     <use xlink:href="#DejaVuSans-76" transform="translate(832.519531 0.765625)"/>
     <use xlink:href="#DejaVuSans-65" transform="translate(891.699219 0.765625)"/>
     <use xlink:href="#DejaVuSans-20" transform="translate(953.222656 0.765625)"/>
     <use xlink:href="#DejaVuSans-Oblique-63" transform="translate(985.009766 0.765625)"/>
     <use xlink:href="#DejaVuSans-2a" transform="translate(1058.277826 39.046875) scale(0.7)"/>
    </g>
    <!-- abaixo do recurso total -->
    <g style="fill: #bc5215" transform="translate(130.171082 414.524588) scale(0.094 -0.094)">
     <defs>
      <path id="DejaVuSans-62" d="M 3116 1747 
Q 3116 2381 2855 2742 
Q 2594 3103 2138 3103 
Q 1681 3103 1420 2742 
Q 1159 2381 1159 1747 
Q 1159 1113 1420 752 
Q 1681 391 2138 391 
Q 2594 391 2855 752 
Q 3116 1113 3116 1747 
z
M 1159 2969 
Q 1341 3281 1617 3432 
Q 1894 3584 2278 3584 
Q 2916 3584 3314 3078 
Q 3713 2572 3713 1747 
Q 3713 922 3314 415 
Q 2916 -91 2278 -91 
Q 1894 -91 1617 61 
Q 1341 213 1159 525 
L 1159 0 
L 581 0 
L 581 4863 
L 1159 4863 
L 1159 2969 
z
" transform="scale(0.015625)"/>
      <path id="DejaVuSans-78" d="M 3513 3500 
L 2247 1797 
L 3578 0 
L 2900 0 
L 1881 1375 
L 863 0 
L 184 0 
L 1544 1831 
L 300 3500 
L 978 3500 
L 1906 2253 
L 2834 3500 
L 3513 3500 
z
" transform="scale(0.015625)"/>
     </defs>
     <use xlink:href="#DejaVuSans-61"/>
     <use xlink:href="#DejaVuSans-62" transform="translate(61.279297 0)"/>
     <use xlink:href="#DejaVuSans-61" transform="translate(124.755859 0)"/>
     <use xlink:href="#DejaVuSans-69" transform="translate(186.035156 0)"/>
     <use xlink:href="#DejaVuSans-78" transform="translate(213.818359 0)"/>
     <use xlink:href="#DejaVuSans-6f" transform="translate(269.873047 0)"/>
     <use xlink:href="#DejaVuSans-20" transform="translate(331.054688 0)"/>
     <use xlink:href="#DejaVuSans-64" transform="translate(362.841797 0)"/>
     <use xlink:href="#DejaVuSans-6f" transform="translate(426.318359 0)"/>
     <use xlink:href="#DejaVuSans-20" transform="translate(487.5 0)"/>
     <use xlink:href="#DejaVuSans-72" transform="translate(519.287109 0)"/>
     <use xlink:href="#DejaVuSans-65" transform="translate(558.150391 0)"/>
     <use xlink:href="#DejaVuSans-63" transform="translate(619.673828 0)"/>
     <use xlink:href="#DejaVuSans-75" transform="translate(674.654297 0)"/>
     <use xlink:href="#DejaVuSans-72" transform="translate(738.033203 0)"/>
     <use xlink:href="#DejaVuSans-73" transform="translate(779.146484 0)"/>
     <use xlink:href="#DejaVuSans-6f" transform="translate(831.246094 0)"/>
     <use xlink:href="#DejaVuSans-20" transform="translate(892.427734 0)"/>
     <use xlink:href="#DejaVuSans-74" transform="translate(924.214844 0)"/>
     <use xlink:href="#DejaVuSans-6f" transform="translate(963.423828 0)"/>
     <use xlink:href="#DejaVuSans-74" transform="translate(1024.605469 0)"/>
     <use xlink:href="#DejaVuSans-61" transform="translate(1063.814453 0)"/>
     <use xlink:href="#DejaVuSans-6c" transform="translate(1125.09375 0)"/>
    </g>
   </g>
   <g id="legend_1">
    <g id="patch_7">
     <path d="M 69.507143 177.555 
L 252.382143 177.555 
Q 254.282143 177.555 254.282143 175.655 
L 254.282143 117.42 
Q 254.282143 115.52 252.382143 115.52 
L 69.507143 115.52 
Q 67.607143 115.52 67.607143 117.42 
L 67.607143 175.655 
Q 67.607143 177.555 69.507143 177.555 
z
" style="fill: #fffcf0; opacity: 0.96; stroke: #cecdc3; stroke-width: 0.8; stroke-linejoin: miter"/>
    </g>
    <g id="line2d_20">
     <path d="M 74.732143 127.965 
L 88.032143 127.965 
L 101.332143 127.965 
" style="fill: none; stroke: #d14d41; stroke-width: 2.4; stroke-linecap: square"/>
    </g>
    <g id="text_15">
     <!-- $c^*(a, y)$, $y_{baixo} = 0.70$ -->
     <g style="fill: #1c1b1a" transform="translate(108.932143 131.29) scale(0.095 -0.095)">
      <defs>
       <path id="DejaVuSans-Oblique-62" d="M 3169 2138 
Q 3169 2591 2961 2847 
Q 2753 3103 2388 3103 
Q 2122 3103 1889 2973 
Q 1656 2844 1484 2597 
Q 1303 2338 1198 1995 
Q 1094 1653 1094 1313 
Q 1094 881 1298 636 
Q 1503 391 1863 391 
Q 2134 391 2365 517 
Q 2597 644 2772 891 
Q 2950 1147 3059 1487 
Q 3169 1828 3169 2138 
z
M 1381 2969 
Q 1594 3256 1914 3420 
Q 2234 3584 2584 3584 
Q 3122 3584 3439 3221 
Q 3756 2859 3756 2241 
Q 3756 1734 3570 1259 
Q 3384 784 3041 416 
Q 2816 172 2522 40 
Q 2228 -91 1906 -91 
Q 1566 -91 1316 65 
Q 1066 222 909 531 
L 806 0 
L 231 0 
L 1178 4863 
L 1753 4863 
L 1381 2969 
z
" transform="scale(0.015625)"/>
       <path id="DejaVuSans-Oblique-69" d="M 1172 4863 
L 1747 4863 
L 1606 4134 
L 1031 4134 
L 1172 4863 
z
M 909 3500 
L 1484 3500 
L 800 0 
L 225 0 
L 909 3500 
z
" transform="scale(0.015625)"/>
       <path id="DejaVuSans-Oblique-78" d="M 3841 3500 
L 2234 1784 
L 3219 0 
L 2559 0 
L 1819 1388 
L 531 0 
L -166 0 
L 1556 1844 
L 641 3500 
L 1300 3500 
L 1972 2234 
L 3144 3500 
L 3841 3500 
z
" transform="scale(0.015625)"/>
       <path id="DejaVuSans-Oblique-6f" d="M 1625 -91 
Q 1009 -91 651 289 
Q 294 669 294 1325 
Q 294 1706 417 2101 
Q 541 2497 738 2766 
Q 1047 3184 1428 3384 
Q 1809 3584 2291 3584 
Q 2888 3584 3255 3212 
Q 3622 2841 3622 2241 
Q 3622 1825 3500 1412 
Q 3378 1000 3181 728 
Q 2875 309 2494 109 
Q 2113 -91 1625 -91 
z
M 891 1344 
Q 891 869 1089 633 
Q 1288 397 1691 397 
Q 2269 397 2648 901 
Q 3028 1406 3028 2181 
Q 3028 2634 2825 2865 
Q 2622 3097 2228 3097 
Q 1903 3097 1650 2945 
Q 1397 2794 1197 2484 
Q 1050 2253 970 1956 
Q 891 1659 891 1344 
z
" transform="scale(0.015625)"/>
       <path id="DejaVuSans-3d" d="M 678 2906 
L 4684 2906 
L 4684 2381 
L 678 2381 
L 678 2906 
z
M 678 1631 
L 4684 1631 
L 4684 1100 
L 678 1100 
L 678 1631 
z
" transform="scale(0.015625)"/>
       <path id="DejaVuSans-2e" d="M 684 794 
L 1344 794 
L 1344 0 
L 684 0 
L 684 794 
z
" transform="scale(0.015625)"/>
       <path id="DejaVuSans-37" d="M 525 4666 
L 3525 4666 
L 3525 4397 
L 1831 0 
L 1172 0 
L 2766 4134 
L 525 4134 
L 525 4666 
z
" transform="scale(0.015625)"/>
      </defs>
      <use xlink:href="#DejaVuSans-Oblique-63" transform="translate(0 0.765625)"/>
      <use xlink:href="#DejaVuSans-2a" transform="translate(73.26806 39.046875) scale(0.7)"/>
      <use xlink:href="#DejaVuSans-28" transform="translate(124.64013 0.765625)"/>
      <use xlink:href="#DejaVuSans-Oblique-61" transform="translate(163.653802 0.765625)"/>
      <use xlink:href="#DejaVuSans-2c" transform="translate(224.933099 0.765625)"/>
      <use xlink:href="#DejaVuSans-Oblique-79" transform="translate(276.20263 0.765625)"/>
      <use xlink:href="#DejaVuSans-29" transform="translate(335.382318 0.765625)"/>
      <use xlink:href="#DejaVuSans-2c" transform="translate(374.39599 0.765625)"/>
      <use xlink:href="#DejaVuSans-20" transform="translate(406.183099 0.765625)"/>
      <use xlink:href="#DejaVuSans-Oblique-79" transform="translate(437.970208 0.765625)"/>
      <use xlink:href="#DejaVuSans-Oblique-62" transform="translate(497.149896 -15.640625) scale(0.7)"/>
      <use xlink:href="#DejaVuSans-Oblique-61" transform="translate(541.58349 -15.640625) scale(0.7)"/>
      <use xlink:href="#DejaVuSans-Oblique-69" transform="translate(584.478997 -15.640625) scale(0.7)"/>
      <use xlink:href="#DejaVuSans-Oblique-78" transform="translate(603.92724 -15.640625) scale(0.7)"/>
      <use xlink:href="#DejaVuSans-Oblique-6f" transform="translate(645.353021 -15.640625) scale(0.7)"/>
      <use xlink:href="#DejaVuSans-3d" transform="translate(710.396966 0.765625)"/>
      <use xlink:href="#DejaVuSans-30" transform="translate(813.668451 0.765625)"/>
      <use xlink:href="#DejaVuSans-2e" transform="translate(877.291497 0.765625)"/>
      <use xlink:href="#DejaVuSans-37" transform="translate(901.328607 0.765625)"/>
      <use xlink:href="#DejaVuSans-30" transform="translate(964.951654 0.765625)"/>
     </g>
    </g>
    <g id="line2d_21">
     <path d="M 74.732143 147.155 
L 88.032143 147.155 
L 101.332143 147.155 
" style="fill: none; stroke: #879a39; stroke-width: 2.4; stroke-linecap: square"/>
    </g>
    <g id="text_16">
     <!-- $c^*(a, y)$, $y_{alto} = 1.30$ -->
     <g style="fill: #1c1b1a" transform="translate(108.932143 150.48) scale(0.095 -0.095)">
      <defs>
       <path id="DejaVuSans-Oblique-6c" d="M 1172 4863 
L 1747 4863 
L 800 0 
L 225 0 
L 1172 4863 
z
" transform="scale(0.015625)"/>
       <path id="DejaVuSans-Oblique-74" d="M 2706 3500 
L 2619 3053 
L 1472 3053 
L 1100 1153 
Q 1081 1047 1072 975 
Q 1063 903 1063 863 
Q 1063 663 1183 572 
Q 1303 481 1569 481 
L 2150 481 
L 2053 0 
L 1503 0 
Q 991 0 739 200 
Q 488 400 488 806 
Q 488 878 497 964 
Q 506 1050 525 1153 
L 897 3053 
L 409 3053 
L 500 3500 
L 978 3500 
L 1172 4494 
L 1747 4494 
L 1556 3500 
L 2706 3500 
z
" transform="scale(0.015625)"/>
       <path id="DejaVuSans-33" d="M 2597 2516 
Q 3050 2419 3304 2112 
Q 3559 1806 3559 1356 
Q 3559 666 3084 287 
Q 2609 -91 1734 -91 
Q 1441 -91 1130 -33 
Q 819 25 488 141 
L 488 750 
Q 750 597 1062 519 
Q 1375 441 1716 441 
Q 2309 441 2620 675 
Q 2931 909 2931 1356 
Q 2931 1769 2642 2001 
Q 2353 2234 1838 2234 
L 1294 2234 
L 1294 2753 
L 1863 2753 
Q 2328 2753 2575 2939 
Q 2822 3125 2822 3475 
Q 2822 3834 2567 4026 
Q 2313 4219 1838 4219 
Q 1578 4219 1281 4162 
Q 984 4106 628 3988 
L 628 4550 
Q 988 4650 1302 4700 
Q 1616 4750 1894 4750 
Q 2613 4750 3031 4423 
Q 3450 4097 3450 3541 
Q 3450 3153 3228 2886 
Q 3006 2619 2597 2516 
z
" transform="scale(0.015625)"/>
      </defs>
      <use xlink:href="#DejaVuSans-Oblique-63" transform="translate(0 0.765625)"/>
      <use xlink:href="#DejaVuSans-2a" transform="translate(73.26806 39.046875) scale(0.7)"/>
      <use xlink:href="#DejaVuSans-28" transform="translate(124.64013 0.765625)"/>
      <use xlink:href="#DejaVuSans-Oblique-61" transform="translate(163.653802 0.765625)"/>
      <use xlink:href="#DejaVuSans-2c" transform="translate(224.933099 0.765625)"/>
      <use xlink:href="#DejaVuSans-Oblique-79" transform="translate(276.20263 0.765625)"/>
      <use xlink:href="#DejaVuSans-29" transform="translate(335.382318 0.765625)"/>
      <use xlink:href="#DejaVuSans-2c" transform="translate(374.39599 0.765625)"/>
      <use xlink:href="#DejaVuSans-20" transform="translate(406.183099 0.765625)"/>
      <use xlink:href="#DejaVuSans-Oblique-79" transform="translate(437.970208 0.765625)"/>
      <use xlink:href="#DejaVuSans-Oblique-61" transform="translate(497.149896 -15.640625) scale(0.7)"/>
      <use xlink:href="#DejaVuSans-Oblique-6c" transform="translate(540.045404 -15.640625) scale(0.7)"/>
      <use xlink:href="#DejaVuSans-Oblique-74" transform="translate(559.493646 -15.640625) scale(0.7)"/>
      <use xlink:href="#DejaVuSans-Oblique-6f" transform="translate(586.939935 -15.640625) scale(0.7)"/>
      <use xlink:href="#DejaVuSans-3d" transform="translate(651.98388 0.765625)"/>
      <use xlink:href="#DejaVuSans-31" transform="translate(755.255365 0.765625)"/>
      <use xlink:href="#DejaVuSans-2e" transform="translate(818.878411 0.765625)"/>
      <use xlink:href="#DejaVuSans-33" transform="translate(850.665521 0.765625)"/>
      <use xlink:href="#DejaVuSans-30" transform="translate(914.288568 0.765625)"/>
     </g>
    </g>
    <g id="line2d_22">
     <path d="M 74.732143 165.11 
L 88.032143 165.11 
L 101.332143 165.11 
" style="fill: none; stroke-dasharray: 4.44,1.92; stroke-dashoffset: 0; stroke: #6f6e69; stroke-opacity: 0.75; stroke-width: 1.2"/>
    </g>
    <g id="text_17">
     <!-- Restrição: $c = (1+r)a + y_{baixo}$ -->
     <g style="fill: #1c1b1a" transform="translate(108.932143 168.435) scale(0.095 -0.095)">
      <defs>
       <path id="DejaVuSans-2b" d="M 2944 4013 
L 2944 2272 
L 4684 2272 
L 4684 1741 
L 2944 1741 
L 2944 0 
L 2419 0 
L 2419 1741 
L 678 1741 
L 678 2272 
L 2419 2272 
L 2419 4013 
L 2944 4013 
z
" transform="scale(0.015625)"/>
       <path id="DejaVuSans-Oblique-72" d="M 2853 2969 
Q 2766 3016 2653 3041 
Q 2541 3066 2413 3066 
Q 1953 3066 1609 2717 
Q 1266 2369 1153 1784 
L 800 0 
L 225 0 
L 909 3500 
L 1484 3500 
L 1375 2956 
Q 1603 3259 1920 3421 
Q 2238 3584 2597 3584 
Q 2691 3584 2781 3573 
Q 2872 3563 2963 3538 
L 2853 2969 
z
" transform="scale(0.015625)"/>
      </defs>
      <use xlink:href="#DejaVuSans-52" transform="translate(0 0.3125)"/>
      <use xlink:href="#DejaVuSans-65" transform="translate(69.482422 0.3125)"/>
      <use xlink:href="#DejaVuSans-73" transform="translate(131.005859 0.3125)"/>
      <use xlink:href="#DejaVuSans-74" transform="translate(183.105469 0.3125)"/>
      <use xlink:href="#DejaVuSans-72" transform="translate(222.314453 0.3125)"/>
      <use xlink:href="#DejaVuSans-69" transform="translate(263.427734 0.3125)"/>
      <use xlink:href="#DejaVuSans-e7" transform="translate(291.210938 0.3125)"/>
      <use xlink:href="#DejaVuSans-e3" transform="translate(346.191406 0.3125)"/>
      <use xlink:href="#DejaVuSans-6f" transform="translate(407.470703 0.3125)"/>
      <use xlink:href="#DejaVuSans-3a" transform="translate(468.652344 0.3125)"/>
      <use xlink:href="#DejaVuSans-20" transform="translate(502.34375 0.3125)"/>
      <use xlink:href="#DejaVuSans-Oblique-63" transform="translate(534.130859 0.3125)"/>
      <use xlink:href="#DejaVuSans-3d" transform="translate(608.59375 0.3125)"/>
      <use xlink:href="#DejaVuSans-28" transform="translate(711.865234 0.3125)"/>
      <use xlink:href="#DejaVuSans-31" transform="translate(750.878906 0.3125)"/>
      <use xlink:href="#DejaVuSans-2b" transform="translate(833.984375 0.3125)"/>
      <use xlink:href="#DejaVuSans-Oblique-72" transform="translate(937.255859 0.3125)"/>
      <use xlink:href="#DejaVuSans-29" transform="translate(978.369141 0.3125)"/>
      <use xlink:href="#DejaVuSans-Oblique-61" transform="translate(1017.382812 0.3125)"/>
      <use xlink:href="#DejaVuSans-2b" transform="translate(1098.144531 0.3125)"/>
      <use xlink:href="#DejaVuSans-Oblique-79" transform="translate(1201.416016 0.3125)"/>
      <use xlink:href="#DejaVuSans-Oblique-62" transform="translate(1260.595703 -16.09375) scale(0.7)"/>
      <use xlink:href="#DejaVuSans-Oblique-61" transform="translate(1305.029297 -16.09375) scale(0.7)"/>
      <use xlink:href="#DejaVuSans-Oblique-69" transform="translate(1347.924805 -16.09375) scale(0.7)"/>
      <use xlink:href="#DejaVuSans-Oblique-78" transform="translate(1367.373047 -16.09375) scale(0.7)"/>
      <use xlink:href="#DejaVuSans-Oblique-6f" transform="translate(1408.798828 -16.09375) scale(0.7)"/>
     </g>
    </g>
   </g>
  </g>
  <g id="text_18">
   <!-- Buffer-stock: função-política de consumo $c^*(a, y)$ -->
   <g style="fill: #1c1b1a" transform="translate(14.4 28.96) scale(0.16 -0.16)">
    <defs>
     <path id="DejaVuSans-Bold-42" d="M 2456 2859 
Q 2741 2859 2887 2984 
Q 3034 3109 3034 3353 
Q 3034 3594 2887 3720 
Q 2741 3847 2456 3847 
L 1791 3847 
L 1791 2859 
L 2456 2859 
z
M 2497 819 
Q 2859 819 3042 972 
Q 3225 1125 3225 1434 
Q 3225 1738 3044 1889 
Q 2863 2041 2497 2041 
L 1791 2041 
L 1791 819 
L 2497 819 
z
M 3616 2497 
Q 4003 2384 4215 2081 
Q 4428 1778 4428 1338 
Q 4428 663 3972 331 
Q 3516 0 2584 0 
L 588 0 
L 588 4666 
L 2394 4666 
Q 3366 4666 3802 4372 
Q 4238 4078 4238 3431 
Q 4238 3091 4078 2852 
Q 3919 2613 3616 2497 
z
" transform="scale(0.015625)"/>
     <path id="DejaVuSans-Bold-75" d="M 500 1363 
L 500 3500 
L 1625 3500 
L 1625 3150 
Q 1625 2866 1622 2436 
Q 1619 2006 1619 1863 
Q 1619 1441 1641 1255 
Q 1663 1069 1716 984 
Q 1784 875 1895 815 
Q 2006 756 2150 756 
Q 2500 756 2700 1025 
Q 2900 1294 2900 1772 
L 2900 3500 
L 4019 3500 
L 4019 0 
L 2900 0 
L 2900 506 
Q 2647 200 2364 54 
Q 2081 -91 1741 -91 
Q 1134 -91 817 281 
Q 500 653 500 1363 
z
" transform="scale(0.015625)"/>
     <path id="DejaVuSans-Bold-66" d="M 2841 4863 
L 2841 4128 
L 2222 4128 
Q 1984 4128 1890 4042 
Q 1797 3956 1797 3744 
L 1797 3500 
L 2753 3500 
L 2753 2700 
L 1797 2700 
L 1797 0 
L 678 0 
L 678 2700 
L 122 2700 
L 122 3500 
L 678 3500 
L 678 3744 
Q 678 4316 997 4589 
Q 1316 4863 1984 4863 
L 2841 4863 
z
" transform="scale(0.015625)"/>
     <path id="DejaVuSans-Bold-65" d="M 4031 1759 
L 4031 1441 
L 1416 1441 
Q 1456 1047 1700 850 
Q 1944 653 2381 653 
Q 2734 653 3104 758 
Q 3475 863 3866 1075 
L 3866 213 
Q 3469 63 3072 -14 
Q 2675 -91 2278 -91 
Q 1328 -91 801 392 
Q 275 875 275 1747 
Q 275 2603 792 3093 
Q 1309 3584 2216 3584 
Q 3041 3584 3536 3087 
Q 4031 2591 4031 1759 
z
M 2881 2131 
Q 2881 2450 2695 2645 
Q 2509 2841 2209 2841 
Q 1884 2841 1681 2658 
Q 1478 2475 1428 2131 
L 2881 2131 
z
" transform="scale(0.015625)"/>
     <path id="DejaVuSans-Bold-72" d="M 3138 2547 
Q 2991 2616 2845 2648 
Q 2700 2681 2553 2681 
Q 2122 2681 1889 2404 
Q 1656 2128 1656 1613 
L 1656 0 
L 538 0 
L 538 3500 
L 1656 3500 
L 1656 2925 
Q 1872 3269 2151 3426 
Q 2431 3584 2822 3584 
Q 2878 3584 2943 3579 
Q 3009 3575 3134 3559 
L 3138 2547 
z
" transform="scale(0.015625)"/>
     <path id="DejaVuSans-Bold-2d" d="M 347 2297 
L 2309 2297 
L 2309 1388 
L 347 1388 
L 347 2297 
z
" transform="scale(0.015625)"/>
     <path id="DejaVuSans-Bold-73" d="M 3272 3391 
L 3272 2541 
Q 2913 2691 2578 2766 
Q 2244 2841 1947 2841 
Q 1628 2841 1473 2761 
Q 1319 2681 1319 2516 
Q 1319 2381 1436 2309 
Q 1553 2238 1856 2203 
L 2053 2175 
Q 2913 2066 3209 1816 
Q 3506 1566 3506 1031 
Q 3506 472 3093 190 
Q 2681 -91 1863 -91 
Q 1516 -91 1145 -36 
Q 775 19 384 128 
L 384 978 
Q 719 816 1070 734 
Q 1422 653 1784 653 
Q 2113 653 2278 743 
Q 2444 834 2444 1013 
Q 2444 1163 2330 1236 
Q 2216 1309 1875 1350 
L 1678 1375 
Q 931 1469 631 1722 
Q 331 1975 331 2491 
Q 331 3047 712 3315 
Q 1094 3584 1881 3584 
Q 2191 3584 2531 3537 
Q 2872 3491 3272 3391 
z
" transform="scale(0.015625)"/>
     <path id="DejaVuSans-Bold-74" d="M 1759 4494 
L 1759 3500 
L 2913 3500 
L 2913 2700 
L 1759 2700 
L 1759 1216 
Q 1759 972 1856 886 
Q 1953 800 2241 800 
L 2816 800 
L 2816 0 
L 1856 0 
Q 1194 0 917 276 
Q 641 553 641 1216 
L 641 2700 
L 84 2700 
L 84 3500 
L 641 3500 
L 641 4494 
L 1759 4494 
z
" transform="scale(0.015625)"/>
     <path id="DejaVuSans-Bold-6f" d="M 2203 2784 
Q 1831 2784 1636 2517 
Q 1441 2250 1441 1747 
Q 1441 1244 1636 976 
Q 1831 709 2203 709 
Q 2569 709 2762 976 
Q 2956 1244 2956 1747 
Q 2956 2250 2762 2517 
Q 2569 2784 2203 2784 
z
M 2203 3584 
Q 3106 3584 3614 3096 
Q 4122 2609 4122 1747 
Q 4122 884 3614 396 
Q 3106 -91 2203 -91 
Q 1297 -91 786 396 
Q 275 884 275 1747 
Q 275 2609 786 3096 
Q 1297 3584 2203 3584 
z
" transform="scale(0.015625)"/>
     <path id="DejaVuSans-Bold-63" d="M 3366 3391 
L 3366 2478 
Q 3138 2634 2908 2709 
Q 2678 2784 2431 2784 
Q 1963 2784 1702 2511 
Q 1441 2238 1441 1747 
Q 1441 1256 1702 982 
Q 1963 709 2431 709 
Q 2694 709 2930 787 
Q 3166 866 3366 1019 
L 3366 103 
Q 3103 6 2833 -42 
Q 2563 -91 2291 -91 
Q 1344 -91 809 395 
Q 275 881 275 1747 
Q 275 2613 809 3098 
Q 1344 3584 2291 3584 
Q 2566 3584 2833 3536 
Q 3100 3488 3366 3391 
z
" transform="scale(0.015625)"/>
     <path id="DejaVuSans-Bold-6b" d="M 538 4863 
L 1656 4863 
L 1656 2216 
L 2944 3500 
L 4244 3500 
L 2534 1894 
L 4378 0 
L 3022 0 
L 1656 1459 
L 1656 0 
L 538 0 
L 538 4863 
z
" transform="scale(0.015625)"/>
     <path id="DejaVuSans-Bold-3a" d="M 716 3500 
L 1844 3500 
L 1844 2291 
L 716 2291 
L 716 3500 
z
M 716 1209 
L 1844 1209 
L 1844 0 
L 716 0 
L 716 1209 
z
" transform="scale(0.015625)"/>
     <path id="DejaVuSans-Bold-20" transform="scale(0.015625)"/>
     <path id="DejaVuSans-Bold-6e" d="M 4056 2131 
L 4056 0 
L 2931 0 
L 2931 347 
L 2931 1631 
Q 2931 2084 2911 2256 
Q 2891 2428 2841 2509 
Q 2775 2619 2662 2680 
Q 2550 2741 2406 2741 
Q 2056 2741 1856 2470 
Q 1656 2200 1656 1722 
L 1656 0 
L 538 0 
L 538 3500 
L 1656 3500 
L 1656 2988 
Q 1909 3294 2193 3439 
Q 2478 3584 2822 3584 
Q 3428 3584 3742 3212 
Q 4056 2841 4056 2131 
z
" transform="scale(0.015625)"/>
     <path id="DejaVuSans-Bold-e7" d="M 3366 3391 
L 3366 2478 
Q 3138 2634 2908 2709 
Q 2678 2784 2431 2784 
Q 1963 2784 1702 2511 
Q 1441 2238 1441 1747 
Q 1441 1256 1702 982 
Q 1963 709 2431 709 
Q 2694 709 2930 787 
Q 3166 866 3366 1019 
L 3366 103 
Q 3103 6 2833 -42 
Q 2563 -91 2291 -91 
Q 1344 -91 809 395 
Q 275 881 275 1747 
Q 275 2613 809 3098 
Q 1344 3584 2291 3584 
Q 2566 3584 2833 3536 
Q 3100 3488 3366 3391 
z
M 2457 0 
Q 2639 -194 2724 -359 
Q 2810 -525 2810 -672 
Q 2810 -969 2618 -1111 
Q 2426 -1253 2029 -1253 
Q 1879 -1253 1719 -1233 
Q 1560 -1213 1398 -1172 
L 1395 -697 
Q 1551 -747 1680 -770 
Q 1810 -794 1914 -794 
Q 2095 -794 2196 -722 
Q 2298 -650 2298 -525 
Q 2298 -444 2231 -316 
Q 2164 -188 2023 0 
L 2457 0 
z
" transform="scale(0.015625)"/>
     <path id="DejaVuSans-Bold-e3" d="M 2106 1575 
Q 1756 1575 1579 1456 
Q 1403 1338 1403 1106 
Q 1403 894 1545 773 
Q 1688 653 1941 653 
Q 2256 653 2472 879 
Q 2688 1106 2688 1447 
L 2688 1575 
L 2106 1575 
z
M 3816 1997 
L 3816 0 
L 2688 0 
L 2688 519 
Q 2463 200 2181 54 
Q 1900 -91 1497 -91 
Q 953 -91 614 226 
Q 275 544 275 1050 
Q 275 1666 698 1953 
Q 1122 2241 2028 2241 
L 2688 2241 
L 2688 2328 
Q 2688 2594 2478 2717 
Q 2269 2841 1825 2841 
Q 1466 2841 1156 2769 
Q 847 2697 581 2553 
L 581 3406 
Q 941 3494 1303 3539 
Q 1666 3584 2028 3584 
Q 2975 3584 3395 3211 
Q 3816 2838 3816 1997 
z
M 2190 4263 
L 2018 4378 
Q 2006 4384 1987 4397 
Q 1840 4494 1762 4494 
Q 1650 4494 1590 4397 
Q 1531 4300 1531 4116 
L 1531 4091 
L 1097 4091 
Q 1097 4516 1257 4747 
Q 1418 4978 1709 4978 
Q 1822 4978 1936 4936 
Q 2050 4894 2178 4800 
L 2368 4666 
Q 2437 4619 2495 4594 
Q 2553 4569 2600 4569 
Q 2712 4569 2774 4669 
Q 2837 4769 2837 4947 
L 2837 4972 
L 3272 4972 
Q 3272 4547 3111 4315 
Q 2950 4084 2659 4084 
Q 2547 4084 2442 4121 
Q 2337 4159 2190 4263 
z
" transform="scale(0.015625)"/>
     <path id="DejaVuSans-Bold-70" d="M 1656 506 
L 1656 -1331 
L 538 -1331 
L 538 3500 
L 1656 3500 
L 1656 2988 
Q 1888 3294 2169 3439 
Q 2450 3584 2816 3584 
Q 3463 3584 3878 3070 
Q 4294 2556 4294 1747 
Q 4294 938 3878 423 
Q 3463 -91 2816 -91 
Q 2450 -91 2169 54 
Q 1888 200 1656 506 
z
M 2400 2772 
Q 2041 2772 1848 2508 
Q 1656 2244 1656 1747 
Q 1656 1250 1848 986 
Q 2041 722 2400 722 
Q 2759 722 2948 984 
Q 3138 1247 3138 1747 
Q 3138 2247 2948 2509 
Q 2759 2772 2400 2772 
z
" transform="scale(0.015625)"/>
     <path id="DejaVuSans-Bold-6c" d="M 538 4863 
L 1656 4863 
L 1656 0 
L 538 0 
L 538 4863 
z
" transform="scale(0.015625)"/>
     <path id="DejaVuSans-Bold-ed" d="M 538 3500 
L 1656 3500 
L 1656 0 
L 538 0 
L 538 3500 
z
M 1590 5119 
L 2474 5119 
L 1321 3944 
L 709 3944 
L 1590 5119 
z
" transform="scale(0.015625)"/>
     <path id="DejaVuSans-Bold-69" d="M 538 3500 
L 1656 3500 
L 1656 0 
L 538 0 
L 538 3500 
z
M 538 4863 
L 1656 4863 
L 1656 3950 
L 538 3950 
L 538 4863 
z
" transform="scale(0.015625)"/>
     <path id="DejaVuSans-Bold-61" d="M 2106 1575 
Q 1756 1575 1579 1456 
Q 1403 1338 1403 1106 
Q 1403 894 1545 773 
Q 1688 653 1941 653 
Q 2256 653 2472 879 
Q 2688 1106 2688 1447 
L 2688 1575 
L 2106 1575 
z
M 3816 1997 
L 3816 0 
L 2688 0 
L 2688 519 
Q 2463 200 2181 54 
Q 1900 -91 1497 -91 
Q 953 -91 614 226 
Q 275 544 275 1050 
Q 275 1666 698 1953 
Q 1122 2241 2028 2241 
L 2688 2241 
L 2688 2328 
Q 2688 2594 2478 2717 
Q 2269 2841 1825 2841 
Q 1466 2841 1156 2769 
Q 847 2697 581 2553 
L 581 3406 
Q 941 3494 1303 3539 
Q 1666 3584 2028 3584 
Q 2975 3584 3395 3211 
Q 3816 2838 3816 1997 
z
" transform="scale(0.015625)"/>
     <path id="DejaVuSans-Bold-64" d="M 2919 2988 
L 2919 4863 
L 4044 4863 
L 4044 0 
L 2919 0 
L 2919 506 
Q 2688 197 2409 53 
Q 2131 -91 1766 -91 
Q 1119 -91 703 423 
Q 288 938 288 1747 
Q 288 2556 703 3070 
Q 1119 3584 1766 3584 
Q 2128 3584 2408 3439 
Q 2688 3294 2919 2988 
z
M 2181 722 
Q 2541 722 2730 984 
Q 2919 1247 2919 1747 
Q 2919 2247 2730 2509 
Q 2541 2772 2181 2772 
Q 1825 2772 1636 2509 
Q 1447 2247 1447 1747 
Q 1447 1247 1636 984 
Q 1825 722 2181 722 
z
" transform="scale(0.015625)"/>
     <path id="DejaVuSans-Bold-6d" d="M 3781 2919 
Q 3994 3244 4286 3414 
Q 4578 3584 4928 3584 
Q 5531 3584 5847 3212 
Q 6163 2841 6163 2131 
L 6163 0 
L 5038 0 
L 5038 1825 
Q 5041 1866 5042 1909 
Q 5044 1953 5044 2034 
Q 5044 2406 4934 2573 
Q 4825 2741 4581 2741 
Q 4263 2741 4089 2478 
Q 3916 2216 3909 1719 
L 3909 0 
L 2784 0 
L 2784 1825 
Q 2784 2406 2684 2573 
Q 2584 2741 2328 2741 
Q 2006 2741 1831 2477 
Q 1656 2213 1656 1722 
L 1656 0 
L 531 0 
L 531 3500 
L 1656 3500 
L 1656 2988 
Q 1863 3284 2130 3434 
Q 2397 3584 2719 3584 
Q 3081 3584 3359 3409 
Q 3638 3234 3781 2919 
z
" transform="scale(0.015625)"/>
    </defs>
    <use xlink:href="#DejaVuSans-Bold-42" transform="translate(0 0.765625)"/>
    <use xlink:href="#DejaVuSans-Bold-75" transform="translate(76.220703 0.765625)"/>
    <use xlink:href="#DejaVuSans-Bold-66" transform="translate(147.412109 0.765625)"/>
    <use xlink:href="#DejaVuSans-Bold-66" transform="translate(190.917969 0.765625)"/>
    <use xlink:href="#DejaVuSans-Bold-65" transform="translate(234.423828 0.765625)"/>
    <use xlink:href="#DejaVuSans-Bold-72" transform="translate(302.246094 0.765625)"/>
    <use xlink:href="#DejaVuSans-Bold-2d" transform="translate(351.5625 0.765625)"/>
    <use xlink:href="#DejaVuSans-Bold-73" transform="translate(393.066406 0.765625)"/>
    <use xlink:href="#DejaVuSans-Bold-74" transform="translate(452.587891 0.765625)"/>
    <use xlink:href="#DejaVuSans-Bold-6f" transform="translate(500.390625 0.765625)"/>
    <use xlink:href="#DejaVuSans-Bold-63" transform="translate(569.091797 0.765625)"/>
    <use xlink:href="#DejaVuSans-Bold-6b" transform="translate(628.369141 0.765625)"/>
    <use xlink:href="#DejaVuSans-Bold-3a" transform="translate(694.873047 0.765625)"/>
    <use xlink:href="#DejaVuSans-Bold-20" transform="translate(734.863281 0.765625)"/>
    <use xlink:href="#DejaVuSans-Bold-66" transform="translate(769.677734 0.765625)"/>
    <use xlink:href="#DejaVuSans-Bold-75" transform="translate(813.183594 0.765625)"/>
    <use xlink:href="#DejaVuSans-Bold-6e" transform="translate(884.375 0.765625)"/>
    <use xlink:href="#DejaVuSans-Bold-e7" transform="translate(955.566406 0.765625)"/>
    <use xlink:href="#DejaVuSans-Bold-e3" transform="translate(1014.84375 0.765625)"/>
    <use xlink:href="#DejaVuSans-Bold-6f" transform="translate(1082.324219 0.765625)"/>
    <use xlink:href="#DejaVuSans-Bold-2d" transform="translate(1151.025391 0.765625)"/>
    <use xlink:href="#DejaVuSans-Bold-70" transform="translate(1192.529297 0.765625)"/>
    <use xlink:href="#DejaVuSans-Bold-6f" transform="translate(1264.111328 0.765625)"/>
    <use xlink:href="#DejaVuSans-Bold-6c" transform="translate(1332.8125 0.765625)"/>
    <use xlink:href="#DejaVuSans-Bold-ed" transform="translate(1367.089844 0.765625)"/>
    <use xlink:href="#DejaVuSans-Bold-74" transform="translate(1401.367188 0.765625)"/>
    <use xlink:href="#DejaVuSans-Bold-69" transform="translate(1449.169922 0.765625)"/>
    <use xlink:href="#DejaVuSans-Bold-63" transform="translate(1483.447266 0.765625)"/>
    <use xlink:href="#DejaVuSans-Bold-61" transform="translate(1542.724609 0.765625)"/>
    <use xlink:href="#DejaVuSans-Bold-20" transform="translate(1610.205078 0.765625)"/>
    <use xlink:href="#DejaVuSans-Bold-64" transform="translate(1645.019531 0.765625)"/>
    <use xlink:href="#DejaVuSans-Bold-65" transform="translate(1716.601562 0.765625)"/>
    <use xlink:href="#DejaVuSans-Bold-20" transform="translate(1784.423828 0.765625)"/>
    <use xlink:href="#DejaVuSans-Bold-63" transform="translate(1819.238281 0.765625)"/>
    <use xlink:href="#DejaVuSans-Bold-6f" transform="translate(1878.515625 0.765625)"/>
    <use xlink:href="#DejaVuSans-Bold-6e" transform="translate(1947.216797 0.765625)"/>
    <use xlink:href="#DejaVuSans-Bold-73" transform="translate(2018.408203 0.765625)"/>
    <use xlink:href="#DejaVuSans-Bold-75" transform="translate(2077.929688 0.765625)"/>
    <use xlink:href="#DejaVuSans-Bold-6d" transform="translate(2149.121094 0.765625)"/>
    <use xlink:href="#DejaVuSans-Bold-6f" transform="translate(2253.320312 0.765625)"/>
    <use xlink:href="#DejaVuSans-Bold-20" transform="translate(2322.021484 0.765625)"/>
    <use xlink:href="#DejaVuSans-Oblique-63" transform="translate(2356.835938 0.765625)"/>
    <use xlink:href="#DejaVuSans-2a" transform="translate(2430.103997 39.046875) scale(0.7)"/>
    <use xlink:href="#DejaVuSans-28" transform="translate(2481.476068 0.765625)"/>
    <use xlink:href="#DejaVuSans-Oblique-61" transform="translate(2520.48974 0.765625)"/>
    <use xlink:href="#DejaVuSans-2c" transform="translate(2581.769036 0.765625)"/>
    <use xlink:href="#DejaVuSans-Oblique-79" transform="translate(2633.038568 0.765625)"/>
    <use xlink:href="#DejaVuSans-29" transform="translate(2692.218255 0.765625)"/>
   </g>
  </g>
  <g id="text_19">
   <!-- Com restrição de crédito e renda incerta, o consumo ótimo fica abaixo dos recursos correntes — poupança precaucional. -->
   <g style="fill: #6f6e69" transform="translate(14.4 41.278406) scale(0.102 -0.102)">
    <defs>
     <path id="DejaVuSans-f3" d="M 1959 3097 
Q 1497 3097 1228 2736 
Q 959 2375 959 1747 
Q 959 1119 1226 758 
Q 1494 397 1959 397 
Q 2419 397 2687 759 
Q 2956 1122 2956 1747 
Q 2956 2369 2687 2733 
Q 2419 3097 1959 3097 
z
M 1959 3584 
Q 2709 3584 3137 3096 
Q 3566 2609 3566 1747 
Q 3566 888 3137 398 
Q 2709 -91 1959 -91 
Q 1206 -91 779 398 
Q 353 888 353 1747 
Q 353 2609 779 3096 
Q 1206 3584 1959 3584 
z
M 2394 5119 
L 3016 5119 
L 1998 3944 
L 1519 3944 
L 2394 5119 
z
" transform="scale(0.015625)"/>
     <path id="DejaVuSans-66" d="M 2375 4863 
L 2375 4384 
L 1825 4384 
Q 1516 4384 1395 4259 
Q 1275 4134 1275 3809 
L 1275 3500 
L 2222 3500 
L 2222 3053 
L 1275 3053 
L 1275 0 
L 697 0 
L 697 3053 
L 147 3053 
L 147 3500 
L 697 3500 
L 697 3744 
Q 697 4328 969 4595 
Q 1241 4863 1831 4863 
L 2375 4863 
z
" transform="scale(0.015625)"/>
     <path id="DejaVuSans-2014" d="M 313 1978 
L 6088 1978 
L 6088 1528 
L 313 1528 
L 313 1978 
z
" transform="scale(0.015625)"/>
    </defs>
    <use xlink:href="#DejaVuSans-43"/>
    <use xlink:href="#DejaVuSans-6f" transform="translate(69.824219 0)"/>
    <use xlink:href="#DejaVuSans-6d" transform="translate(131.005859 0)"/>
    <use xlink:href="#DejaVuSans-20" transform="translate(228.417969 0)"/>
    <use xlink:href="#DejaVuSans-72" transform="translate(260.205078 0)"/>
    <use xlink:href="#DejaVuSans-65" transform="translate(299.068359 0)"/>
    <use xlink:href="#DejaVuSans-73" transform="translate(360.591797 0)"/>
    <use xlink:href="#DejaVuSans-74" transform="translate(412.691406 0)"/>
    <use xlink:href="#DejaVuSans-72" transform="translate(451.900391 0)"/>
    <use xlink:href="#DejaVuSans-69" transform="translate(493.013672 0)"/>
    <use xlink:href="#DejaVuSans-e7" transform="translate(520.796875 0)"/>
    <use xlink:href="#DejaVuSans-e3" transform="translate(575.777344 0)"/>
    <use xlink:href="#DejaVuSans-6f" transform="translate(637.056641 0)"/>
    <use xlink:href="#DejaVuSans-20" transform="translate(698.238281 0)"/>
    <use xlink:href="#DejaVuSans-64" transform="translate(730.025391 0)"/>
    <use xlink:href="#DejaVuSans-65" transform="translate(793.501953 0)"/>
    <use xlink:href="#DejaVuSans-20" transform="translate(855.025391 0)"/>
    <use xlink:href="#DejaVuSans-63" transform="translate(886.8125 0)"/>
    <use xlink:href="#DejaVuSans-72" transform="translate(941.792969 0)"/>
    <use xlink:href="#DejaVuSans-e9" transform="translate(980.65625 0)"/>
    <use xlink:href="#DejaVuSans-64" transform="translate(1042.179688 0)"/>
    <use xlink:href="#DejaVuSans-69" transform="translate(1105.65625 0)"/>
    <use xlink:href="#DejaVuSans-74" transform="translate(1133.439453 0)"/>
    <use xlink:href="#DejaVuSans-6f" transform="translate(1172.648438 0)"/>
    <use xlink:href="#DejaVuSans-20" transform="translate(1233.830078 0)"/>
    <use xlink:href="#DejaVuSans-65" transform="translate(1265.617188 0)"/>
    <use xlink:href="#DejaVuSans-20" transform="translate(1327.140625 0)"/>
    <use xlink:href="#DejaVuSans-72" transform="translate(1358.927734 0)"/>
    <use xlink:href="#DejaVuSans-65" transform="translate(1397.791016 0)"/>
    <use xlink:href="#DejaVuSans-6e" transform="translate(1459.314453 0)"/>
    <use xlink:href="#DejaVuSans-64" transform="translate(1522.693359 0)"/>
    <use xlink:href="#DejaVuSans-61" transform="translate(1586.169922 0)"/>
    <use xlink:href="#DejaVuSans-20" transform="translate(1647.449219 0)"/>
    <use xlink:href="#DejaVuSans-69" transform="translate(1679.236328 0)"/>
    <use xlink:href="#DejaVuSans-6e" transform="translate(1707.019531 0)"/>
    <use xlink:href="#DejaVuSans-63" transform="translate(1770.398438 0)"/>
    <use xlink:href="#DejaVuSans-65" transform="translate(1825.378906 0)"/>
    <use xlink:href="#DejaVuSans-72" transform="translate(1886.902344 0)"/>
    <use xlink:href="#DejaVuSans-74" transform="translate(1928.015625 0)"/>
    <use xlink:href="#DejaVuSans-61" transform="translate(1967.224609 0)"/>
    <use xlink:href="#DejaVuSans-2c" transform="translate(2028.503906 0)"/>
    <use xlink:href="#DejaVuSans-20" transform="translate(2060.291016 0)"/>
    <use xlink:href="#DejaVuSans-6f" transform="translate(2092.078125 0)"/>
    <use xlink:href="#DejaVuSans-20" transform="translate(2153.259766 0)"/>
    <use xlink:href="#DejaVuSans-63" transform="translate(2185.046875 0)"/>
    <use xlink:href="#DejaVuSans-6f" transform="translate(2240.027344 0)"/>
    <use xlink:href="#DejaVuSans-6e" transform="translate(2301.208984 0)"/>
    <use xlink:href="#DejaVuSans-73" transform="translate(2364.587891 0)"/>
    <use xlink:href="#DejaVuSans-75" transform="translate(2416.6875 0)"/>
    <use xlink:href="#DejaVuSans-6d" transform="translate(2480.066406 0)"/>
    <use xlink:href="#DejaVuSans-6f" transform="translate(2577.478516 0)"/>
    <use xlink:href="#DejaVuSans-20" transform="translate(2638.660156 0)"/>
    <use xlink:href="#DejaVuSans-f3" transform="translate(2670.447266 0)"/>
    <use xlink:href="#DejaVuSans-74" transform="translate(2731.628906 0)"/>
    <use xlink:href="#DejaVuSans-69" transform="translate(2770.837891 0)"/>
    <use xlink:href="#DejaVuSans-6d" transform="translate(2798.621094 0)"/>
    <use xlink:href="#DejaVuSans-6f" transform="translate(2896.033203 0)"/>
    <use xlink:href="#DejaVuSans-20" transform="translate(2957.214844 0)"/>
    <use xlink:href="#DejaVuSans-66" transform="translate(2989.001953 0)"/>
    <use xlink:href="#DejaVuSans-69" transform="translate(3024.207031 0)"/>
    <use xlink:href="#DejaVuSans-63" transform="translate(3051.990234 0)"/>
    <use xlink:href="#DejaVuSans-61" transform="translate(3106.970703 0)"/>
    <use xlink:href="#DejaVuSans-20" transform="translate(3168.25 0)"/>
    <use xlink:href="#DejaVuSans-61" transform="translate(3200.037109 0)"/>
    <use xlink:href="#DejaVuSans-62" transform="translate(3261.316406 0)"/>
    <use xlink:href="#DejaVuSans-61" transform="translate(3324.792969 0)"/>
    <use xlink:href="#DejaVuSans-69" transform="translate(3386.072266 0)"/>
    <use xlink:href="#DejaVuSans-78" transform="translate(3413.855469 0)"/>
    <use xlink:href="#DejaVuSans-6f" transform="translate(3469.910156 0)"/>
    <use xlink:href="#DejaVuSans-20" transform="translate(3531.091797 0)"/>
    <use xlink:href="#DejaVuSans-64" transform="translate(3562.878906 0)"/>
    <use xlink:href="#DejaVuSans-6f" transform="translate(3626.355469 0)"/>
    <use xlink:href="#DejaVuSans-73" transform="translate(3687.537109 0)"/>
    <use xlink:href="#DejaVuSans-20" transform="translate(3739.636719 0)"/>
    <use xlink:href="#DejaVuSans-72" transform="translate(3771.423828 0)"/>
    <use xlink:href="#DejaVuSans-65" transform="translate(3810.287109 0)"/>
    <use xlink:href="#DejaVuSans-63" transform="translate(3871.810547 0)"/>
    <use xlink:href="#DejaVuSans-75" transform="translate(3926.791016 0)"/>
    <use xlink:href="#DejaVuSans-72" transform="translate(3990.169922 0)"/>
    <use xlink:href="#DejaVuSans-73" transform="translate(4031.283203 0)"/>
    <use xlink:href="#DejaVuSans-6f" transform="translate(4083.382812 0)"/>
    <use xlink:href="#DejaVuSans-73" transform="translate(4144.564453 0)"/>
    <use xlink:href="#DejaVuSans-20" transform="translate(4196.664062 0)"/>
    <use xlink:href="#DejaVuSans-63" transform="translate(4228.451172 0)"/>
    <use xlink:href="#DejaVuSans-6f" transform="translate(4283.431641 0)"/>
    <use xlink:href="#DejaVuSans-72" transform="translate(4344.613281 0)"/>
    <use xlink:href="#DejaVuSans-72" transform="translate(4383.976562 0)"/>
    <use xlink:href="#DejaVuSans-65" transform="translate(4422.839844 0)"/>
    <use xlink:href="#DejaVuSans-6e" transform="translate(4484.363281 0)"/>
    <use xlink:href="#DejaVuSans-74" transform="translate(4547.742188 0)"/>
    <use xlink:href="#DejaVuSans-65" transform="translate(4586.951172 0)"/>
    <use xlink:href="#DejaVuSans-73" transform="translate(4648.474609 0)"/>
    <use xlink:href="#DejaVuSans-20" transform="translate(4700.574219 0)"/>
    <use xlink:href="#DejaVuSans-2014" transform="translate(4732.361328 0)"/>
    <use xlink:href="#DejaVuSans-20" transform="translate(4832.361328 0)"/>
    <use xlink:href="#DejaVuSans-70" transform="translate(4864.148438 0)"/>
    <use xlink:href="#DejaVuSans-6f" transform="translate(4927.625 0)"/>
    <use xlink:href="#DejaVuSans-75" transform="translate(4988.806641 0)"/>
    <use xlink:href="#DejaVuSans-70" transform="translate(5052.185547 0)"/>
    <use xlink:href="#DejaVuSans-61" transform="translate(5115.662109 0)"/>
    <use xlink:href="#DejaVuSans-6e" transform="translate(5176.941406 0)"/>
    <use xlink:href="#DejaVuSans-e7" transform="translate(5240.320312 0)"/>
    <use xlink:href="#DejaVuSans-61" transform="translate(5295.300781 0)"/>
    <use xlink:href="#DejaVuSans-20" transform="translate(5356.580078 0)"/>
    <use xlink:href="#DejaVuSans-70" transform="translate(5388.367188 0)"/>
    <use xlink:href="#DejaVuSans-72" transform="translate(5451.84375 0)"/>
    <use xlink:href="#DejaVuSans-65" transform="translate(5490.707031 0)"/>
    <use xlink:href="#DejaVuSans-63" transform="translate(5552.230469 0)"/>
    <use xlink:href="#DejaVuSans-61" transform="translate(5607.210938 0)"/>
    <use xlink:href="#DejaVuSans-75" transform="translate(5668.490234 0)"/>
    <use xlink:href="#DejaVuSans-63" transform="translate(5731.869141 0)"/>
    <use xlink:href="#DejaVuSans-69" transform="translate(5786.849609 0)"/>
    <use xlink:href="#DejaVuSans-6f" transform="translate(5814.632812 0)"/>
    <use xlink:href="#DejaVuSans-6e" transform="translate(5875.814453 0)"/>
    <use xlink:href="#DejaVuSans-61" transform="translate(5939.193359 0)"/>
    <use xlink:href="#DejaVuSans-6c" transform="translate(6000.472656 0)"/>
    <use xlink:href="#DejaVuSans-2e" transform="translate(6028.255859 0)"/>
   </g>
  </g>
  <g id="text_20">
   <!-- Obs.: β=0.96 · r=0.03 · θ=2.0 · P(permanece)=0.9. -->
   <g style="fill: #6f6e69" transform="translate(14.4 459.530672) scale(0.087 -0.087)">
    <defs>
     <path id="DejaVuSans-4f" d="M 2522 4238 
Q 1834 4238 1429 3725 
Q 1025 3213 1025 2328 
Q 1025 1447 1429 934 
Q 1834 422 2522 422 
Q 3209 422 3611 934 
Q 4013 1447 4013 2328 
Q 4013 3213 3611 3725 
Q 3209 4238 2522 4238 
z
M 2522 4750 
Q 3503 4750 4090 4092 
Q 4678 3434 4678 2328 
Q 4678 1225 4090 567 
Q 3503 -91 2522 -91 
Q 1538 -91 948 565 
Q 359 1222 359 2328 
Q 359 3434 948 4092 
Q 1538 4750 2522 4750 
z
" transform="scale(0.015625)"/>
     <path id="DejaVuSans-3b2" d="M 1178 216 
L 1178 -1331 
L 600 -1331 
L 600 3478 
Q 600 4903 1931 4903 
Q 3288 4903 3288 3700 
Q 3288 2844 2750 2531 
Q 3625 2250 3625 1416 
Q 3625 -66 2119 -66 
Q 1456 -66 1178 216 
z
M 1178 966 
Q 1525 425 2141 425 
Q 3041 425 3041 1406 
Q 3041 2288 1591 2219 
L 1591 2750 
Q 2725 2750 2725 3750 
Q 2725 4434 1994 4434 
Q 1178 4434 1178 3459 
L 1178 966 
z
" transform="scale(0.015625)"/>
     <path id="DejaVuSans-39" d="M 703 97 
L 703 672 
Q 941 559 1184 500 
Q 1428 441 1663 441 
Q 2288 441 2617 861 
Q 2947 1281 2994 2138 
Q 2813 1869 2534 1725 
Q 2256 1581 1919 1581 
Q 1219 1581 811 2004 
Q 403 2428 403 3163 
Q 403 3881 828 4315 
Q 1253 4750 1959 4750 
Q 2769 4750 3195 4129 
Q 3622 3509 3622 2328 
Q 3622 1225 3098 567 
Q 2575 -91 1691 -91 
Q 1453 -91 1209 -44 
Q 966 3 703 97 
z
M 1959 2075 
Q 2384 2075 2632 2365 
Q 2881 2656 2881 3163 
Q 2881 3666 2632 3958 
Q 2384 4250 1959 4250 
Q 1534 4250 1286 3958 
Q 1038 3666 1038 3163 
Q 1038 2656 1286 2365 
Q 1534 2075 1959 2075 
z
" transform="scale(0.015625)"/>
     <path id="DejaVuSans-b7" d="M 684 2619 
L 1344 2619 
L 1344 1825 
L 684 1825 
L 684 2619 
z
" transform="scale(0.015625)"/>
     <path id="DejaVuSans-3b8" d="M 2953 2219 
L 963 2219 
Q 1009 1284 1225 888 
Q 1494 400 1959 400 
Q 2428 400 2688 891 
Q 2916 1322 2953 2219 
z
M 2944 2750 
Q 2856 3638 2688 3950 
Q 2419 4444 1959 4444 
Q 1481 4444 1228 3956 
Q 1028 3563 969 2750 
L 2944 2750 
z
M 1959 4913 
Q 2709 4913 3138 4250 
Q 3566 3591 3566 2422 
Q 3566 1256 3138 594 
Q 2709 -72 1959 -72 
Q 1206 -72 781 594 
Q 353 1256 353 2422 
Q 353 3591 781 4250 
Q 1206 4913 1959 4913 
z
" transform="scale(0.015625)"/>
     <path id="DejaVuSans-50" d="M 1259 4147 
L 1259 2394 
L 2053 2394 
Q 2494 2394 2734 2622 
Q 2975 2850 2975 3272 
Q 2975 3691 2734 3919 
Q 2494 4147 2053 4147 
L 1259 4147 
z
M 628 4666 
L 2053 4666 
Q 2838 4666 3239 4311 
Q 3641 3956 3641 3272 
Q 3641 2581 3239 2228 
Q 2838 1875 2053 1875 
L 1259 1875 
L 1259 0 
L 628 0 
L 628 4666 
z
" transform="scale(0.015625)"/>
    </defs>
    <use xlink:href="#DejaVuSans-4f"/>
    <use xlink:href="#DejaVuSans-62" transform="translate(78.710938 0)"/>
    <use xlink:href="#DejaVuSans-73" transform="translate(142.1875 0)"/>
    <use xlink:href="#DejaVuSans-2e" transform="translate(194.287109 0)"/>
    <use xlink:href="#DejaVuSans-3a" transform="translate(226.074219 0)"/>
    <use xlink:href="#DejaVuSans-20" transform="translate(259.765625 0)"/>
    <use xlink:href="#DejaVuSans-3b2" transform="translate(291.552734 0)"/>
    <use xlink:href="#DejaVuSans-3d" transform="translate(355.371094 0)"/>
    <use xlink:href="#DejaVuSans-30" transform="translate(439.160156 0)"/>
    <use xlink:href="#DejaVuSans-2e" transform="translate(502.783203 0)"/>
    <use xlink:href="#DejaVuSans-39" transform="translate(534.570312 0)"/>
    <use xlink:href="#DejaVuSans-36" transform="translate(598.193359 0)"/>
    <use xlink:href="#DejaVuSans-20" transform="translate(661.816406 0)"/>
    <use xlink:href="#DejaVuSans-b7" transform="translate(693.603516 0)"/>
    <use xlink:href="#DejaVuSans-20" transform="translate(725.390625 0)"/>
    <use xlink:href="#DejaVuSans-72" transform="translate(757.177734 0)"/>
    <use xlink:href="#DejaVuSans-3d" transform="translate(798.291016 0)"/>
    <use xlink:href="#DejaVuSans-30" transform="translate(882.080078 0)"/>
    <use xlink:href="#DejaVuSans-2e" transform="translate(945.703125 0)"/>
    <use xlink:href="#DejaVuSans-30" transform="translate(977.490234 0)"/>
    <use xlink:href="#DejaVuSans-33" transform="translate(1041.113281 0)"/>
    <use xlink:href="#DejaVuSans-20" transform="translate(1104.736328 0)"/>
    <use xlink:href="#DejaVuSans-b7" transform="translate(1136.523438 0)"/>
    <use xlink:href="#DejaVuSans-20" transform="translate(1168.310547 0)"/>
    <use xlink:href="#DejaVuSans-3b8" transform="translate(1200.097656 0)"/>
    <use xlink:href="#DejaVuSans-3d" transform="translate(1261.279297 0)"/>
    <use xlink:href="#DejaVuSans-32" transform="translate(1345.068359 0)"/>
    <use xlink:href="#DejaVuSans-2e" transform="translate(1408.691406 0)"/>
    <use xlink:href="#DejaVuSans-30" transform="translate(1440.478516 0)"/>
    <use xlink:href="#DejaVuSans-20" transform="translate(1504.101562 0)"/>
    <use xlink:href="#DejaVuSans-b7" transform="translate(1535.888672 0)"/>
    <use xlink:href="#DejaVuSans-20" transform="translate(1567.675781 0)"/>
    <use xlink:href="#DejaVuSans-50" transform="translate(1599.462891 0)"/>
    <use xlink:href="#DejaVuSans-28" transform="translate(1659.765625 0)"/>
    <use xlink:href="#DejaVuSans-70" transform="translate(1698.779297 0)"/>
    <use xlink:href="#DejaVuSans-65" transform="translate(1762.255859 0)"/>
    <use xlink:href="#DejaVuSans-72" transform="translate(1823.779297 0)"/>
    <use xlink:href="#DejaVuSans-6d" transform="translate(1863.142578 0)"/>
    <use xlink:href="#DejaVuSans-61" transform="translate(1960.554688 0)"/>
    <use xlink:href="#DejaVuSans-6e" transform="translate(2021.833984 0)"/>
    <use xlink:href="#DejaVuSans-65" transform="translate(2085.212891 0)"/>
    <use xlink:href="#DejaVuSans-63" transform="translate(2146.736328 0)"/>
    <use xlink:href="#DejaVuSans-65" transform="translate(2201.716797 0)"/>
    <use xlink:href="#DejaVuSans-29" transform="translate(2263.240234 0)"/>
    <use xlink:href="#DejaVuSans-3d" transform="translate(2302.253906 0)"/>
    <use xlink:href="#DejaVuSans-30" transform="translate(2386.042969 0)"/>
    <use xlink:href="#DejaVuSans-2e" transform="translate(2449.666016 0)"/>
    <use xlink:href="#DejaVuSans-39" transform="translate(2481.453125 0)"/>
    <use xlink:href="#DejaVuSans-2e" transform="translate(2545.076172 0)"/>
   </g>
  </g>
 </g>
 <defs>
  <clipPath id="pebe2c33643">
   <rect x="58.107143" y="106.02" width="618.692857" height="254.637695"/>
  </clipPath>
 </defs>
</svg>
