<?xml version="1.0" encoding="utf-8" standalone="no"?>
<!DOCTYPE svg PUBLIC "-//W3C//DTD SVG 1.1//EN"
  "http://www.w3.org/Graphics/SVG/1.1/DTD/svg11.dtd">
<svg xmlns:xlink="http://www.w3.org/1999/xlink" width="798.558884pt" height="441.36pt" viewBox="0 0 798.558884 441.36" xmlns="http://www.w3.org/2000/svg" version="1.1">
 <metadata>
  <rdf:RDF xmlns:dc="http://purl.org/dc/elements/1.1/" xmlns:cc="http://creativecommons.org/ns#" xmlns:rdf="http://www.w3.org/1999/02/22-rdf-syntax-ns#">
   <cc:Work>
    <dc:type rdf:resource="http://purl.org/dc/dcmitype/StillImage"/>
    <dc:date>2026-06-10T15:29:02.546992</dc:date>
    <dc:format>image/svg+xml</dc:format>
    <dc:creator>
     <cc:Agent>
      <dc:title>Matplotlib v3.10.9, https://matplotlib.org/</dc:title>
     </cc:Agent>
    </dc:creator>
   </cc:Work>
  </rdf:RDF>
 </metadata>
 <defs>
  <style type="text/css">*{stroke-linejoin: round; stroke-linecap: butt}</style>
 </defs>
 <g id="figure_1">
  <g id="patch_1">
   <path d="M 0 441.36 
L 798.558884 441.36 
L 798.558884 0 
L 0 0 
z
" style="fill: #fffcf0"/>
  </g>
  <g id="axes_1">
   <g id="patch_2">
    <path d="M 57.260312 345.517143 
L 784.158884 345.517143 
L 784.158884 98.125714 
L 57.260312 98.125714 
z
" style="fill: #fffcf0"/>
   </g>
   <g id="matplotlib.axis_1">
    <g id="xtick_1">
     <g id="line2d_1"/>
     <g id="text_1">
      <!-- 0 -->
      <g style="fill: #6f6e69" transform="translate(67.898819 359.495502) scale(0.105 -0.105)">
       <defs>
        <path id="DejaVuSans-30" d="M 2034 4250 
Q 1547 4250 1301 3770 
Q 1056 3291 1056 2328 
Q 1056 1369 1301 889 
Q 1547 409 2034 409 
Q 2525 409 2770 889 
Q 3016 1369 3016 2328 
Q 3016 3291 2770 3770 
Q 2525 4250 2034 4250 
z
M 2034 4750 
Q 2819 4750 3233 4129 
Q 3647 3509 3647 2328 
Q 3647 1150 3233 529 
Q 2819 -91 2034 -91 
Q 1250 -91 836 529 
Q 422 1150 422 2328 
Q 422 3509 836 4129 
Q 1250 4750 2034 4750 
z
" transform="scale(0.015625)"/>
       </defs>
       <use xlink:href="#DejaVuSans-30"/>
      </g>
     </g>
    </g>
    <g id="xtick_2">
     <g id="line2d_2"/>
     <g id="text_2">
      <!-- 10 -->
      <g style="fill: #6f6e69" transform="translate(151.926123 359.495502) scale(0.105 -0.105)">
       <defs>
        <path id="DejaVuSans-31" d="M 794 531 
L 1825 531 
L 1825 4091 
L 703 3866 
L 703 4441 
L 1819 4666 
L 2450 4666 
L 2450 531 
L 3481 531 
L 3481 0 
L 794 0 
L 794 531 
z
" transform="scale(0.015625)"/>
       </defs>
       <use xlink:href="#DejaVuSans-31"/>
       <use xlink:href="#DejaVuSans-30" transform="translate(63.623047 0)"/>
      </g>
     </g>
    </g>
    <g id="xtick_3">
     <g id="line2d_3"/>
     <g id="text_3">
      <!-- 20 -->
      <g style="fill: #6f6e69" transform="translate(239.29374 359.495502) scale(0.105 -0.105)">
       <defs>
        <path id="DejaVuSans-32" d="M 1228 531 
L 3431 531 
L 3431 0 
L 469 0 
L 469 531 
Q 828 903 1448 1529 
Q 2069 2156 2228 2338 
Q 2531 2678 2651 2914 
Q 2772 3150 2772 3378 
Q 2772 3750 2511 3984 
Q 2250 4219 1831 4219 
Q 1534 4219 1204 4116 
Q 875 4013 500 3803 
L 500 4441 
Q 881 4594 1212 4672 
Q 1544 4750 1819 4750 
Q 2544 4750 2975 4387 
Q 3406 4025 3406 3419 
Q 3406 3131 3298 2873 
Q 3191 2616 2906 2266 
Q 2828 2175 2409 1742 
Q 1991 1309 1228 531 
z
" transform="scale(0.015625)"/>
       </defs>
       <use xlink:href="#DejaVuSans-32"/>
       <use xlink:href="#DejaVuSans-30" transform="translate(63.623047 0)"/>
      </g>
     </g>
    </g>
    <g id="xtick_4">
     <g id="line2d_4"/>
     <g id="text_4">
      <!-- 30 -->
      <g style="fill: #6f6e69" transform="translate(326.661356 359.495502) scale(0.105 -0.105)">
       <defs>
        <path id="DejaVuSans-33" d="M 2597 2516 
Q 3050 2419 3304 2112 
Q 3559 1806 3559 1356 
Q 3559 666 3084 287 
Q 2609 -91 1734 -91 
Q 1441 -91 1130 -33 
Q 819 25 488 141 
L 488 750 
Q 750 597 1062 519 
Q 1375 441 1716 441 
Q 2309 441 2620 675 
Q 2931 909 2931 1356 
Q 2931 1769 2642 2001 
Q 2353 2234 1838 2234 
L 1294 2234 
L 1294 2753 
L 1863 2753 
Q 2328 2753 2575 2939 
Q 2822 3125 2822 3475 
Q 2822 3834 2567 4026 
Q 2313 4219 1838 4219 
Q 1578 4219 1281 4162 
Q 984 4106 628 3988 
L 628 4550 
Q 988 4650 1302 4700 
Q 1616 4750 1894 4750 
Q 2613 4750 3031 4423 
Q 3450 4097 3450 3541 
Q 3450 3153 3228 2886 
Q 3006 2619 2597 2516 
z
" transform="scale(0.015625)"/>
       </defs>
       <use xlink:href="#DejaVuSans-33"/>
       <use xlink:href="#DejaVuSans-30" transform="translate(63.623047 0)"/>
      </g>
     </g>
    </g>
    <g id="xtick_5">
     <g id="line2d_5"/>
     <g id="text_5">
      <!-- 40 -->
      <g style="fill: #6f6e69" transform="translate(414.028973 359.495502) scale(0.105 -0.105)">
       <defs>
        <path id="DejaVuSans-34" d="M 2419 4116 
L 825 1625 
L 2419 1625 
L 2419 4116 
z
M 2253 4666 
L 3047 4666 
L 3047 1625 
L 3713 1625 
L 3713 1100 
L 3047 1100 
L 3047 0 
L 2419 0 
L 2419 1100 
L 313 1100 
L 313 1709 
L 2253 4666 
z
" transform="scale(0.015625)"/>
       </defs>
       <use xlink:href="#DejaVuSans-34"/>
       <use xlink:href="#DejaVuSans-30" transform="translate(63.623047 0)"/>
      </g>
     </g>
    </g>
    <g id="xtick_6">
     <g id="line2d_6"/>
     <g id="text_6">
      <!-- 50 -->
      <g style="fill: #6f6e69" transform="translate(501.39659 359.495502) scale(0.105 -0.105)">
       <defs>
        <path id="DejaVuSans-35" d="M 691 4666 
L 3169 4666 
L 3169 4134 
L 1269 4134 
L 1269 2991 
Q 1406 3038 1543 3061 
Q 1681 3084 1819 3084 
Q 2600 3084 3056 2656 
Q 3513 2228 3513 1497 
Q 3513 744 3044 326 
Q 2575 -91 1722 -91 
Q 1428 -91 1123 -41 
Q 819 9 494 109 
L 494 744 
Q 775 591 1075 516 
Q 1375 441 1709 441 
Q 2250 441 2565 725 
Q 2881 1009 2881 1497 
Q 2881 1984 2565 2268 
Q 2250 2553 1709 2553 
Q 1456 2553 1204 2497 
Q 953 2441 691 2322 
L 691 4666 
z
" transform="scale(0.015625)"/>
       </defs>
       <use xlink:href="#DejaVuSans-35"/>
       <use xlink:href="#DejaVuSans-30" transform="translate(63.623047 0)"/>
      </g>
     </g>
    </g>
    <g id="xtick_7">
     <g id="line2d_7"/>
     <g id="text_7">
      <!-- 60 -->
      <g style="fill: #6f6e69" transform="translate(588.764207 359.495502) scale(0.105 -0.105)">
       <defs>
        <path id="DejaVuSans-36" d="M 2113 2584 
Q 1688 2584 1439 2293 
Q 1191 2003 1191 1497 
Q 1191 994 1439 701 
Q 1688 409 2113 409 
Q 2538 409 2786 701 
Q 3034 994 3034 1497 
Q 3034 2003 2786 2293 
Q 2538 2584 2113 2584 
z
M 3366 4563 
L 3366 3988 
Q 3128 4100 2886 4159 
Q 2644 4219 2406 4219 
Q 1781 4219 1451 3797 
Q 1122 3375 1075 2522 
Q 1259 2794 1537 2939 
Q 1816 3084 2150 3084 
Q 2853 3084 3261 2657 
Q 3669 2231 3669 1497 
Q 3669 778 3244 343 
Q 2819 -91 2113 -91 
Q 1303 -91 875 529 
Q 447 1150 447 2328 
Q 447 3434 972 4092 
Q 1497 4750 2381 4750 
Q 2619 4750 2861 4703 
Q 3103 4656 3366 4563 
z
" transform="scale(0.015625)"/>
       </defs>
       <use xlink:href="#DejaVuSans-36"/>
       <use xlink:href="#DejaVuSans-30" transform="translate(63.623047 0)"/>
      </g>
     </g>
    </g>
    <g id="xtick_8">
     <g id="line2d_8"/>
     <g id="text_8">
      <!-- 70 -->
      <g style="fill: #6f6e69" transform="translate(676.131823 359.495502) scale(0.105 -0.105)">
       <defs>
        <path id="DejaVuSans-37" d="M 525 4666 
L 3525 4666 
L 3525 4397 
L 1831 0 
L 1172 0 
L 2766 4134 
L 525 4134 
L 525 4666 
z
" transform="scale(0.015625)"/>
       </defs>
       <use xlink:href="#DejaVuSans-37"/>
       <use xlink:href="#DejaVuSans-30" transform="translate(63.623047 0)"/>
      </g>
     </g>
    </g>
    <g id="xtick_9">
     <g id="line2d_9"/>
     <g id="text_9">
      <!-- 80 -->
      <g style="fill: #6f6e69" transform="translate(763.49944 359.495502) scale(0.105 -0.105)">
       <defs>
        <path id="DejaVuSans-38" d="M 2034 2216 
Q 1584 2216 1326 1975 
Q 1069 1734 1069 1313 
Q 1069 891 1326 650 
Q 1584 409 2034 409 
Q 2484 409 2743 651 
Q 3003 894 3003 1313 
Q 3003 1734 2745 1975 
Q 2488 2216 2034 2216 
z
M 1403 2484 
Q 997 2584 770 2862 
Q 544 3141 544 3541 
Q 544 4100 942 4425 
Q 1341 4750 2034 4750 
Q 2731 4750 3128 4425 
Q 3525 4100 3525 3541 
Q 3525 3141 3298 2862 
Q 3072 2584 2669 2484 
Q 3125 2378 3379 2068 
Q 3634 1759 3634 1313 
Q 3634 634 3220 271 
Q 2806 -91 2034 -91 
Q 1263 -91 848 271 
Q 434 634 434 1313 
Q 434 1759 690 2068 
Q 947 2378 1403 2484 
z
M 1172 3481 
Q 1172 3119 1398 2916 
Q 1625 2713 2034 2713 
Q 2441 2713 2670 2916 
Q 2900 3119 2900 3481 
Q 2900 3844 2670 4047 
Q 2441 4250 2034 4250 
Q 1625 4250 1398 4047 
Q 1172 3844 1172 3481 
z
" transform="scale(0.015625)"/>
       </defs>
       <use xlink:href="#DejaVuSans-38"/>
       <use xlink:href="#DejaVuSans-30" transform="translate(63.623047 0)"/>
      </g>
     </g>
    </g>
    <g id="text_10">
     <!-- Período -->
     <g style="fill: #1c1b1a" transform="translate(401.129559 379.657533) scale(0.105 -0.105)">
      <defs>
       <path id="DejaVuSans-50" d="M 1259 4147 
L 1259 2394 
L 2053 2394 
Q 2494 2394 2734 2622 
Q 2975 2850 2975 3272 
Q 2975 3691 2734 3919 
Q 2494 4147 2053 4147 
L 1259 4147 
z
M 628 4666 
L 2053 4666 
Q 2838 4666 3239 4311 
Q 3641 3956 3641 3272 
Q 3641 2581 3239 2228 
Q 2838 1875 2053 1875 
L 1259 1875 
L 1259 0 
L 628 0 
L 628 4666 
z
" transform="scale(0.015625)"/>
       <path id="DejaVuSans-65" d="M 3597 1894 
L 3597 1613 
L 953 1613 
Q 991 1019 1311 708 
Q 1631 397 2203 397 
Q 2534 397 2845 478 
Q 3156 559 3463 722 
L 3463 178 
Q 3153 47 2828 -22 
Q 2503 -91 2169 -91 
Q 1331 -91 842 396 
Q 353 884 353 1716 
Q 353 2575 817 3079 
Q 1281 3584 2069 3584 
Q 2775 3584 3186 3129 
Q 3597 2675 3597 1894 
z
M 3022 2063 
Q 3016 2534 2758 2815 
Q 2500 3097 2075 3097 
Q 1594 3097 1305 2825 
Q 1016 2553 972 2059 
L 3022 2063 
z
" transform="scale(0.015625)"/>
       <path id="DejaVuSans-72" d="M 2631 2963 
Q 2534 3019 2420 3045 
Q 2306 3072 2169 3072 
Q 1681 3072 1420 2755 
Q 1159 2438 1159 1844 
L 1159 0 
L 581 0 
L 581 3500 
L 1159 3500 
L 1159 2956 
Q 1341 3275 1631 3429 
Q 1922 3584 2338 3584 
Q 2397 3584 2469 3576 
Q 2541 3569 2628 3553 
L 2631 2963 
z
" transform="scale(0.015625)"/>
       <path id="DejaVuSans-ed" d="M 1322 5119 
L 1944 5119 
L 926 3944 
L 447 3944 
L 1322 5119 
z
M 603 3500 
L 1178 3500 
L 1178 0 
L 603 0 
L 603 3500 
z
M 891 3584 
L 891 3584 
z
" transform="scale(0.015625)"/>
       <path id="DejaVuSans-6f" d="M 1959 3097 
Q 1497 3097 1228 2736 
Q 959 2375 959 1747 
Q 959 1119 1226 758 
Q 1494 397 1959 397 
Q 2419 397 2687 759 
Q 2956 1122 2956 1747 
Q 2956 2369 2687 2733 
Q 2419 3097 1959 3097 
z
M 1959 3584 
Q 2709 3584 3137 3096 
Q 3566 2609 3566 1747 
Q 3566 888 3137 398 
Q 2709 -91 1959 -91 
Q 1206 -91 779 398 
Q 353 888 353 1747 
Q 353 2609 779 3096 
Q 1206 3584 1959 3584 
z
" transform="scale(0.015625)"/>
       <path id="DejaVuSans-64" d="M 2906 2969 
L 2906 4863 
L 3481 4863 
L 3481 0 
L 2906 0 
L 2906 525 
Q 2725 213 2448 61 
Q 2172 -91 1784 -91 
Q 1150 -91 751 415 
Q 353 922 353 1747 
Q 353 2572 751 3078 
Q 1150 3584 1784 3584 
Q 2172 3584 2448 3432 
Q 2725 3281 2906 2969 
z
M 947 1747 
Q 947 1113 1208 752 
Q 1469 391 1925 391 
Q 2381 391 2643 752 
Q 2906 1113 2906 1747 
Q 2906 2381 2643 2742 
Q 2381 3103 1925 3103 
Q 1469 3103 1208 2742 
Q 947 2381 947 1747 
z
" transform="scale(0.015625)"/>
      </defs>
      <use xlink:href="#DejaVuSans-50"/>
      <use xlink:href="#DejaVuSans-65" transform="translate(56.677734 0)"/>
      <use xlink:href="#DejaVuSans-72" transform="translate(118.201172 0)"/>
      <use xlink:href="#DejaVuSans-ed" transform="translate(159.314453 0)"/>
      <use xlink:href="#DejaVuSans-6f" transform="translate(187.097656 0)"/>
      <use xlink:href="#DejaVuSans-64" transform="translate(248.279297 0)"/>
      <use xlink:href="#DejaVuSans-6f" transform="translate(311.755859 0)"/>
     </g>
    </g>
   </g>
   <g id="matplotlib.axis_2">
    <g id="ytick_1">
     <g id="line2d_10">
      <path d="M 57.260312 321.517374 
L 784.158884 321.517374 
" clip-path="url(#p17c274ce5f)" style="fill: none; stroke: #cecdc3; stroke-opacity: 0.9; stroke-width: 0.9; stroke-linecap: square"/>
     </g>
     <g id="line2d_11"/>
     <g id="text_11">
      <!-- 0,4 -->
      <g style="fill: #6f6e69" transform="translate(34.562031 325.506554) scale(0.105 -0.105)">
       <defs>
        <path id="DejaVuSans-2c" d="M 750 794 
L 1409 794 
L 1409 256 
L 897 -744 
L 494 -744 
L 750 256 
L 750 794 
z
" transform="scale(0.015625)"/>
       </defs>
       <use xlink:href="#DejaVuSans-30"/>
       <use xlink:href="#DejaVuSans-2c" transform="translate(63.623047 0)"/>
       <use xlink:href="#DejaVuSans-34" transform="translate(95.410156 0)"/>
      </g>
     </g>
    </g>
    <g id="ytick_2">
     <g id="line2d_12">
      <path d="M 57.260312 272.246532 
L 784.158884 272.246532 
" clip-path="url(#p17c274ce5f)" style="fill: none; stroke: #cecdc3; stroke-opacity: 0.9; stroke-width: 0.9; stroke-linecap: square"/>
     </g>
     <g id="line2d_13"/>
     <g id="text_12">
      <!-- 0,6 -->
      <g style="fill: #6f6e69" transform="translate(34.562031 276.235712) scale(0.105 -0.105)">
       <use xlink:href="#DejaVuSans-30"/>
       <use xlink:href="#DejaVuSans-2c" transform="translate(63.623047 0)"/>
       <use xlink:href="#DejaVuSans-36" transform="translate(95.410156 0)"/>
      </g>
     </g>
    </g>
    <g id="ytick_3">
     <g id="line2d_14">
      <path d="M 57.260312 222.97569 
L 784.158884 222.97569 
" clip-path="url(#p17c274ce5f)" style="fill: none; stroke: #cecdc3; stroke-opacity: 0.9; stroke-width: 0.9; stroke-linecap: square"/>
     </g>
     <g id="line2d_15"/>
     <g id="text_13">
      <!-- 0,8 -->
      <g style="fill: #6f6e69" transform="translate(34.562031 226.96487) scale(0.105 -0.105)">
       <use xlink:href="#DejaVuSans-30"/>
       <use xlink:href="#DejaVuSans-2c" transform="translate(63.623047 0)"/>
       <use xlink:href="#DejaVuSans-38" transform="translate(95.410156 0)"/>
      </g>
     </g>
    </g>
    <g id="ytick_4">
     <g id="line2d_16">
      <path d="M 57.260312 173.704848 
L 784.158884 173.704848 
" clip-path="url(#p17c274ce5f)" style="fill: none; stroke: #cecdc3; stroke-opacity: 0.9; stroke-width: 0.9; stroke-linecap: square"/>
     </g>
     <g id="line2d_17"/>
     <g id="text_14">
      <!-- 1 -->
      <g style="fill: #6f6e69" transform="translate(44.579687 177.694028) scale(0.105 -0.105)">
       <use xlink:href="#DejaVuSans-31"/>
      </g>
     </g>
    </g>
    <g id="ytick_5">
     <g id="line2d_18">
      <path d="M 57.260312 124.434006 
L 784.158884 124.434006 
" clip-path="url(#p17c274ce5f)" style="fill: none; stroke: #cecdc3; stroke-opacity: 0.9; stroke-width: 0.9; stroke-linecap: square"/>
     </g>
     <g id="line2d_19"/>
     <g id="text_15">
      <!-- 1,2 -->
      <g style="fill: #6f6e69" transform="translate(34.562031 128.423186) scale(0.105 -0.105)">
       <use xlink:href="#DejaVuSans-31"/>
       <use xlink:href="#DejaVuSans-2c" transform="translate(63.623047 0)"/>
       <use xlink:href="#DejaVuSans-32" transform="translate(95.410156 0)"/>
      </g>
     </g>
    </g>
    <g id="text_16">
     <!-- Nível -->
     <g style="fill: #1c1b1a" transform="translate(22.378359 235.00385) rotate(-90) scale(0.105 -0.105)">
      <defs>
       <path id="DejaVuSans-4e" d="M 628 4666 
L 1478 4666 
L 3547 763 
L 3547 4666 
L 4159 4666 
L 4159 0 
L 3309 0 
L 1241 3903 
L 1241 0 
L 628 0 
L 628 4666 
z
" transform="scale(0.015625)"/>
       <path id="DejaVuSans-76" d="M 191 3500 
L 800 3500 
L 1894 563 
L 2988 3500 
L 3597 3500 
L 2284 0 
L 1503 0 
L 191 3500 
z
" transform="scale(0.015625)"/>
       <path id="DejaVuSans-6c" d="M 603 4863 
L 1178 4863 
L 1178 0 
L 603 0 
L 603 4863 
z
" transform="scale(0.015625)"/>
      </defs>
      <use xlink:href="#DejaVuSans-4e"/>
      <use xlink:href="#DejaVuSans-ed" transform="translate(74.804688 0)"/>
      <use xlink:href="#DejaVuSans-76" transform="translate(102.587891 0)"/>
      <use xlink:href="#DejaVuSans-65" transform="translate(161.767578 0)"/>
      <use xlink:href="#DejaVuSans-6c" transform="translate(223.291016 0)"/>
     </g>
    </g>
   </g>
   <g id="line2d_20">
    <path d="M 71.239131 173.704848 
L 79.975893 173.674543 
L 88.712655 166.317851 
L 97.449416 173.810053 
L 106.186178 195.739637 
L 114.92294 204.737164 
L 123.659701 226.063563 
L 132.396463 219.346029 
L 141.133225 181.765144 
L 149.869986 193.084829 
L 158.606748 206.432491 
L 167.34351 191.092262 
L 176.080271 180.561459 
L 184.817033 177.278873 
L 193.553795 199.843943 
L 202.290556 197.950664 
L 211.027318 178.396996 
L 219.76408 211.043072 
L 228.500841 218.582807 
L 237.237603 260.932434 
L 245.974365 283.97798 
L 254.711126 318.322585 
L 263.447888 309.65238 
L 272.18465 327.281705 
L 280.921411 305.241307 
L 289.658173 288.226032 
L 298.394935 281.379037 
L 307.131696 332.613053 
L 315.868458 329.993158 
L 324.60522 315.559169 
L 333.341981 298.582322 
L 342.078743 323.790113 
L 350.815505 320.55124 
L 359.552266 329.97283 
L 368.289028 334.272078 
L 377.02579 292.079671 
L 385.762552 300.136145 
L 394.499313 288.294201 
L 403.236075 255.047949 
L 411.972837 261.290882 
L 420.709598 255.284103 
L 429.44636 244.404847 
L 438.183122 235.763556 
L 446.919883 259.737451 
L 455.656645 249.258444 
L 464.393407 208.227898 
L 473.130168 242.890153 
L 481.86693 214.800368 
L 490.603692 207.75048 
L 499.340453 220.14881 
L 508.077215 166.22331 
L 516.813977 148.192875 
L 525.550738 180.289059 
L 534.2875 177.794899 
L 543.024262 163.178904 
L 551.761023 168.882225 
L 560.497785 152.540706 
L 569.234547 156.295802 
L 577.971308 141.598782 
L 586.70807 109.370779 
L 595.444832 132.44941 
L 604.181593 131.570549 
L 612.918355 147.197756 
L 621.655117 146.713154 
L 630.391878 178.659361 
L 639.12864 192.435248 
L 647.865402 195.395578 
L 656.602163 171.085079 
L 665.338925 143.13403 
L 674.075687 178.796776 
L 682.812448 197.863932 
L 691.54921 179.511286 
L 700.285972 228.014742 
L 709.022734 233.994137 
L 717.759495 230.361913 
L 726.496257 193.729113 
L 735.233019 174.742932 
L 743.96978 182.700164 
L 752.706542 190.880654 
L 761.443304 195.326743 
L 770.180065 155.631765 
" clip-path="url(#p17c274ce5f)" style="fill: none; stroke: #da702c; stroke-opacity: 0.85; stroke-width: 1.6; stroke-linecap: square"/>
   </g>
   <g id="line2d_21">
    <path d="M 71.239131 173.704848 
L 79.975893 173.697855 
L 88.712655 171.999457 
L 97.449416 173.557958 
L 106.186178 178.621059 
L 114.92294 181.205906 
L 123.659701 186.843513 
L 132.396463 186.501591 
L 141.133225 178.882337 
L 149.869986 181.680579 
L 158.606748 185.208039 
L 167.34351 182.42324 
L 176.080271 180.394302 
L 184.817033 179.795012 
L 193.553795 185.084813 
L 202.290556 185.251113 
L 211.027318 181.298247 
L 219.76408 188.940237 
L 228.500841 191.541827 
L 237.237603 202.350463 
L 245.974365 209.68161 
L 254.711126 220.152053 
L 263.447888 221.488569 
L 272.18465 228.694125 
L 280.921411 227.151961 
L 289.658173 226.260816 
L 298.394935 227.323536 
L 307.131696 241.63156 
L 315.868458 244.694081 
L 324.60522 244.969814 
L 333.341981 244.325641 
L 342.078743 253.024612 
L 350.815505 255.740685 
L 359.552266 261.303661 
L 368.289028 265.90198 
L 377.02579 259.870668 
L 385.762552 264.461581 
L 394.499313 264.64647 
L 403.236075 259.618628 
L 411.972837 262.936453 
L 420.709598 263.571489 
L 429.44636 262.94349 
L 438.183122 262.580884 
L 446.919883 269.545446 
L 455.656645 269.112581 
L 464.393407 261.387538 
L 473.130168 270.183206 
L 481.86693 265.297532 
L 490.603692 264.618993 
L 499.340453 268.265814 
L 508.077215 256.893252 
L 516.813977 252.559731 
L 525.550738 259.377805 
L 534.2875 258.954173 
L 543.024262 255.675637 
L 551.761023 256.748881 
L 560.497785 252.86647 
L 569.234547 253.244628 
L 577.971308 249.451261 
L 586.70807 241.27312 
L 595.444832 245.114325 
L 604.181593 243.959463 
L 612.918355 246.593411 
L 621.655117 245.869878 
L 630.391878 252.619194 
L 639.12864 255.91258 
L 647.865402 257.027973 
L 656.602163 251.918413 
L 665.338925 245.407715 
L 674.075687 252.932099 
L 682.812448 257.449718 
L 691.54921 253.772009 
L 700.285972 265.099109 
L 709.022734 267.732275 
L 717.759495 268.285361 
L 726.496257 261.139108 
L 735.233019 257.21978 
L 743.96978 259.08002 
L 752.706542 261.17541 
L 761.443304 262.597795 
L 770.180065 253.936382 
" clip-path="url(#p17c274ce5f)" style="fill: none; stroke: #3aa99f; stroke-width: 2.4; stroke-linecap: square"/>
   </g>
   <g id="line2d_22">
    <path d="M 57.260312 173.704848 
L 784.158884 173.704848 
" clip-path="url(#p17c274ce5f)" style="fill: none; stroke-dasharray: 0.9,1.485; stroke-dashoffset: 0; stroke: #878580; stroke-opacity: 0.85; stroke-width: 0.9"/>
   </g>
   <g id="patch_3">
    <path d="M 57.260312 345.517143 
L 57.260312 98.125714 
" style="fill: none; stroke: #cecdc3; stroke-width: 0.8; stroke-linejoin: miter; stroke-linecap: square"/>
   </g>
   <g id="patch_4">
    <path d="M 57.260312 345.517143 
L 784.158884 345.517143 
" style="fill: none; stroke: #cecdc3; stroke-width: 0.8; stroke-linejoin: miter; stroke-linecap: square"/>
   </g>
   <g id="text_17">
    <g id="patch_5">
     <path d="M 679.428065 235.638354 
L 759.516065 235.638354 
Q 760.644065 235.638354 760.644065 234.510354 
L 760.644065 213.343317 
Q 760.644065 212.215317 759.516065 212.215317 
L 679.428065 212.215317 
Q 678.300065 212.215317 678.300065 213.343317 
L 678.300065 234.510354 
Q 678.300065 235.638354 679.428065 235.638354 
z
" style="fill: #fffcf0; opacity: 0.96"/>
    </g>
    <!-- Var($y_t$) = 0.0562 -->
    <g style="fill: #bc5215" transform="translate(680.180065 221.258411) scale(0.094 -0.094)">
     <defs>
      <path id="DejaVuSans-56" d="M 1831 0 
L 50 4666 
L 709 4666 
L 2188 738 
L 3669 4666 
L 4325 4666 
L 2547 0 
L 1831 0 
z
" transform="scale(0.015625)"/>
      <path id="DejaVuSans-61" d="M 2194 1759 
Q 1497 1759 1228 1600 
Q 959 1441 959 1056 
Q 959 750 1161 570 
Q 1363 391 1709 391 
Q 2188 391 2477 730 
Q 2766 1069 2766 1631 
L 2766 1759 
L 2194 1759 
z
M 3341 1997 
L 3341 0 
L 2766 0 
L 2766 531 
Q 2569 213 2275 61 
Q 1981 -91 1556 -91 
Q 1019 -91 701 211 
Q 384 513 384 1019 
Q 384 1609 779 1909 
Q 1175 2209 1959 2209 
L 2766 2209 
L 2766 2266 
Q 2766 2663 2505 2880 
Q 2244 3097 1772 3097 
Q 1472 3097 1187 3025 
Q 903 2953 641 2809 
L 641 3341 
Q 956 3463 1253 3523 
Q 1550 3584 1831 3584 
Q 2591 3584 2966 3190 
Q 3341 2797 3341 1997 
z
" transform="scale(0.015625)"/>
      <path id="DejaVuSans-28" d="M 1984 4856 
Q 1566 4138 1362 3434 
Q 1159 2731 1159 2009 
Q 1159 1288 1364 580 
Q 1569 -128 1984 -844 
L 1484 -844 
Q 1016 -109 783 600 
Q 550 1309 550 2009 
Q 550 2706 781 3412 
Q 1013 4119 1484 4856 
L 1984 4856 
z
" transform="scale(0.015625)"/>
      <path id="DejaVuSans-Oblique-79" d="M 1588 -325 
Q 1188 -997 936 -1164 
Q 684 -1331 294 -1331 
L -159 -1331 
L -63 -850 
L 269 -850 
Q 509 -850 678 -719 
Q 847 -588 1056 -206 
L 1234 128 
L 459 3500 
L 1069 3500 
L 1650 819 
L 3256 3500 
L 3859 3500 
L 1588 -325 
z
" transform="scale(0.015625)"/>
      <path id="DejaVuSans-Oblique-74" d="M 2706 3500 
L 2619 3053 
L 1472 3053 
L 1100 1153 
Q 1081 1047 1072 975 
Q 1063 903 1063 863 
Q 1063 663 1183 572 
Q 1303 481 1569 481 
L 2150 481 
L 2053 0 
L 1503 0 
Q 991 0 739 200 
Q 488 400 488 806 
Q 488 878 497 964 
Q 506 1050 525 1153 
L 897 3053 
L 409 3053 
L 500 3500 
L 978 3500 
L 1172 4494 
L 1747 4494 
L 1556 3500 
L 2706 3500 
z
" transform="scale(0.015625)"/>
      <path id="DejaVuSans-29" d="M 513 4856 
L 1013 4856 
Q 1481 4119 1714 3412 
Q 1947 2706 1947 2009 
Q 1947 1309 1714 600 
Q 1481 -109 1013 -844 
L 513 -844 
Q 928 -128 1133 580 
Q 1338 1288 1338 2009 
Q 1338 2731 1133 3434 
Q 928 4138 513 4856 
z
" transform="scale(0.015625)"/>
      <path id="DejaVuSans-20" transform="scale(0.015625)"/>
      <path id="DejaVuSans-3d" d="M 678 2906 
L 4684 2906 
L 4684 2381 
L 678 2381 
L 678 2906 
z
M 678 1631 
L 4684 1631 
L 4684 1100 
L 678 1100 
L 678 1631 
z
" transform="scale(0.015625)"/>
      <path id="DejaVuSans-2e" d="M 684 794 
L 1344 794 
L 1344 0 
L 684 0 
L 684 794 
z
" transform="scale(0.015625)"/>
     </defs>
     <use xlink:href="#DejaVuSans-56" transform="translate(0 0.125)"/>
     <use xlink:href="#DejaVuSans-61" transform="translate(68.408203 0.125)"/>
     <use xlink:href="#DejaVuSans-72" transform="translate(129.6875 0.125)"/>
     <use xlink:href="#DejaVuSans-28" transform="translate(170.800781 0.125)"/>
     <use xlink:href="#DejaVuSans-Oblique-79" transform="translate(209.814453 0.125)"/>
     <use xlink:href="#DejaVuSans-Oblique-74" transform="translate(268.994141 -16.28125) scale(0.7)"/>
     <use xlink:href="#DejaVuSans-29" transform="translate(299.174805 0.125)"/>
     <use xlink:href="#DejaVuSans-20" transform="translate(338.188477 0.125)"/>
     <use xlink:href="#DejaVuSans-3d" transform="translate(369.975586 0.125)"/>
     <use xlink:href="#DejaVuSans-20" transform="translate(453.764648 0.125)"/>
     <use xlink:href="#DejaVuSans-30" transform="translate(485.551758 0.125)"/>
     <use xlink:href="#DejaVuSans-2e" transform="translate(549.174805 0.125)"/>
     <use xlink:href="#DejaVuSans-30" transform="translate(580.961914 0.125)"/>
     <use xlink:href="#DejaVuSans-35" transform="translate(644.584961 0.125)"/>
     <use xlink:href="#DejaVuSans-36" transform="translate(708.208008 0.125)"/>
     <use xlink:href="#DejaVuSans-32" transform="translate(771.831055 0.125)"/>
    </g>
    <!-- Var($c_t$) = 0.0177 -->
    <g style="fill: #bc5215" transform="translate(680.180065 231.803448) scale(0.094 -0.094)">
     <defs>
      <path id="DejaVuSans-Oblique-63" d="M 3431 3366 
L 3316 2797 
Q 3109 2947 2876 3022 
Q 2644 3097 2394 3097 
Q 2119 3097 1870 3000 
Q 1622 2903 1453 2725 
Q 1184 2453 1037 2087 
Q 891 1722 891 1331 
Q 891 859 1127 628 
Q 1363 397 1844 397 
Q 2081 397 2348 469 
Q 2616 541 2906 684 
L 2797 116 
Q 2547 13 2283 -39 
Q 2019 -91 1741 -91 
Q 1044 -91 669 257 
Q 294 606 294 1253 
Q 294 1797 489 2255 
Q 684 2713 1069 3078 
Q 1331 3328 1684 3456 
Q 2038 3584 2456 3584 
Q 2700 3584 2940 3529 
Q 3181 3475 3431 3366 
z
" transform="scale(0.015625)"/>
     </defs>
     <use xlink:href="#DejaVuSans-56" transform="translate(0 0.125)"/>
     <use xlink:href="#DejaVuSans-61" transform="translate(68.408203 0.125)"/>
     <use xlink:href="#DejaVuSans-72" transform="translate(129.6875 0.125)"/>
     <use xlink:href="#DejaVuSans-28" transform="translate(170.800781 0.125)"/>
     <use xlink:href="#DejaVuSans-Oblique-63" transform="translate(209.814453 0.125)"/>
     <use xlink:href="#DejaVuSans-Oblique-74" transform="translate(264.794922 -16.28125) scale(0.7)"/>
     <use xlink:href="#DejaVuSans-29" transform="translate(294.975586 0.125)"/>
     <use xlink:href="#DejaVuSans-20" transform="translate(333.989258 0.125)"/>
     <use xlink:href="#DejaVuSans-3d" transform="translate(365.776367 0.125)"/>
     <use xlink:href="#DejaVuSans-20" transform="translate(449.56543 0.125)"/>
     <use xlink:href="#DejaVuSans-30" transform="translate(481.352539 0.125)"/>
     <use xlink:href="#DejaVuSans-2e" transform="translate(544.975586 0.125)"/>
     <use xlink:href="#DejaVuSans-30" transform="translate(576.762695 0.125)"/>
     <use xlink:href="#DejaVuSans-31" transform="translate(640.385742 0.125)"/>
     <use xlink:href="#DejaVuSans-37" transform="translate(704.008789 0.125)"/>
     <use xlink:href="#DejaVuSans-37" transform="translate(765.881836 0.125)"/>
    </g>
   </g>
   <g id="legend_1">
    <g id="patch_6">
     <path d="M 642.893884 148.834933 
L 772.758884 148.834933 
Q 774.658884 148.834933 774.658884 146.934933 
L 774.658884 109.525714 
Q 774.658884 107.625714 772.758884 107.625714 
L 642.893884 107.625714 
Q 640.993884 107.625714 640.993884 109.525714 
L 640.993884 146.934933 
Q 640.993884 148.834933 642.893884 148.834933 
z
" style="fill: #fffcf0; opacity: 0.96; stroke: #cecdc3; stroke-width: 0.8; stroke-linejoin: miter"/>
    </g>
    <g id="line2d_23">
     <path d="M 648.118884 118.645714 
L 661.418884 118.645714 
L 674.718884 118.645714 
" style="fill: none; stroke: #da702c; stroke-opacity: 0.85; stroke-width: 1.6; stroke-linecap: square"/>
    </g>
    <g id="text_18">
     <!-- Renda corrente $y_t$ -->
     <g style="fill: #1c1b1a" transform="translate(682.318884 121.970714) scale(0.095 -0.095)">
      <defs>
       <path id="DejaVuSans-52" d="M 2841 2188 
Q 3044 2119 3236 1894 
Q 3428 1669 3622 1275 
L 4263 0 
L 3584 0 
L 2988 1197 
Q 2756 1666 2539 1819 
Q 2322 1972 1947 1972 
L 1259 1972 
L 1259 0 
L 628 0 
L 628 4666 
L 2053 4666 
Q 2853 4666 3247 4331 
Q 3641 3997 3641 3322 
Q 3641 2881 3436 2590 
Q 3231 2300 2841 2188 
z
M 1259 4147 
L 1259 2491 
L 2053 2491 
Q 2509 2491 2742 2702 
Q 2975 2913 2975 3322 
Q 2975 3731 2742 3939 
Q 2509 4147 2053 4147 
L 1259 4147 
z
" transform="scale(0.015625)"/>
       <path id="DejaVuSans-6e" d="M 3513 2113 
L 3513 0 
L 2938 0 
L 2938 2094 
Q 2938 2591 2744 2837 
Q 2550 3084 2163 3084 
Q 1697 3084 1428 2787 
Q 1159 2491 1159 1978 
L 1159 0 
L 581 0 
L 581 3500 
L 1159 3500 
L 1159 2956 
Q 1366 3272 1645 3428 
Q 1925 3584 2291 3584 
Q 2894 3584 3203 3211 
Q 3513 2838 3513 2113 
z
" transform="scale(0.015625)"/>
       <path id="DejaVuSans-63" d="M 3122 3366 
L 3122 2828 
Q 2878 2963 2633 3030 
Q 2388 3097 2138 3097 
Q 1578 3097 1268 2742 
Q 959 2388 959 1747 
Q 959 1106 1268 751 
Q 1578 397 2138 397 
Q 2388 397 2633 464 
Q 2878 531 3122 666 
L 3122 134 
Q 2881 22 2623 -34 
Q 2366 -91 2075 -91 
Q 1284 -91 818 406 
Q 353 903 353 1747 
Q 353 2603 823 3093 
Q 1294 3584 2113 3584 
Q 2378 3584 2631 3529 
Q 2884 3475 3122 3366 
z
" transform="scale(0.015625)"/>
       <path id="DejaVuSans-74" d="M 1172 4494 
L 1172 3500 
L 2356 3500 
L 2356 3053 
L 1172 3053 
L 1172 1153 
Q 1172 725 1289 603 
Q 1406 481 1766 481 
L 2356 481 
L 2356 0 
L 1766 0 
Q 1100 0 847 248 
Q 594 497 594 1153 
L 594 3053 
L 172 3053 
L 172 3500 
L 594 3500 
L 594 4494 
L 1172 4494 
z
" transform="scale(0.015625)"/>
      </defs>
      <use xlink:href="#DejaVuSans-52" transform="translate(0 0.015625)"/>
      <use xlink:href="#DejaVuSans-65" transform="translate(69.482422 0.015625)"/>
      <use xlink:href="#DejaVuSans-6e" transform="translate(131.005859 0.015625)"/>
      <use xlink:href="#DejaVuSans-64" transform="translate(194.384766 0.015625)"/>
      <use xlink:href="#DejaVuSans-61" transform="translate(257.861328 0.015625)"/>
      <use xlink:href="#DejaVuSans-20" transform="translate(319.140625 0.015625)"/>
      <use xlink:href="#DejaVuSans-63" transform="translate(350.927734 0.015625)"/>
      <use xlink:href="#DejaVuSans-6f" transform="translate(405.908203 0.015625)"/>
      <use xlink:href="#DejaVuSans-72" transform="translate(467.089844 0.015625)"/>
      <use xlink:href="#DejaVuSans-72" transform="translate(508.203125 0.015625)"/>
      <use xlink:href="#DejaVuSans-65" transform="translate(549.316406 0.015625)"/>
      <use xlink:href="#DejaVuSans-6e" transform="translate(610.839844 0.015625)"/>
      <use xlink:href="#DejaVuSans-74" transform="translate(674.21875 0.015625)"/>
      <use xlink:href="#DejaVuSans-65" transform="translate(713.427734 0.015625)"/>
      <use xlink:href="#DejaVuSans-20" transform="translate(774.951172 0.015625)"/>
      <use xlink:href="#DejaVuSans-Oblique-79" transform="translate(806.738281 0.015625)"/>
      <use xlink:href="#DejaVuSans-Oblique-74" transform="translate(865.917969 -16.390625) scale(0.7)"/>
     </g>
    </g>
    <g id="line2d_24">
     <path d="M 648.118884 136.40923 
L 661.418884 136.40923 
L 674.718884 136.40923 
" style="fill: none; stroke: #3aa99f; stroke-width: 2.4; stroke-linecap: square"/>
    </g>
    <g id="text_19">
     <!-- Consumo $c_t$ (PIH) -->
     <g style="fill: #1c1b1a" transform="translate(682.318884 139.73423) scale(0.095 -0.095)">
      <defs>
       <path id="DejaVuSans-43" d="M 4122 4306 
L 4122 3641 
Q 3803 3938 3442 4084 
Q 3081 4231 2675 4231 
Q 1875 4231 1450 3742 
Q 1025 3253 1025 2328 
Q 1025 1406 1450 917 
Q 1875 428 2675 428 
Q 3081 428 3442 575 
Q 3803 722 4122 1019 
L 4122 359 
Q 3791 134 3420 21 
Q 3050 -91 2638 -91 
Q 1578 -91 968 557 
Q 359 1206 359 2328 
Q 359 3453 968 4101 
Q 1578 4750 2638 4750 
Q 3056 4750 3426 4639 
Q 3797 4528 4122 4306 
z
" transform="scale(0.015625)"/>
       <path id="DejaVuSans-73" d="M 2834 3397 
L 2834 2853 
Q 2591 2978 2328 3040 
Q 2066 3103 1784 3103 
Q 1356 3103 1142 2972 
Q 928 2841 928 2578 
Q 928 2378 1081 2264 
Q 1234 2150 1697 2047 
L 1894 2003 
Q 2506 1872 2764 1633 
Q 3022 1394 3022 966 
Q 3022 478 2636 193 
Q 2250 -91 1575 -91 
Q 1294 -91 989 -36 
Q 684 19 347 128 
L 347 722 
Q 666 556 975 473 
Q 1284 391 1588 391 
Q 1994 391 2212 530 
Q 2431 669 2431 922 
Q 2431 1156 2273 1281 
Q 2116 1406 1581 1522 
L 1381 1569 
Q 847 1681 609 1914 
Q 372 2147 372 2553 
Q 372 3047 722 3315 
Q 1072 3584 1716 3584 
Q 2034 3584 2315 3537 
Q 2597 3491 2834 3397 
z
" transform="scale(0.015625)"/>
       <path id="DejaVuSans-75" d="M 544 1381 
L 544 3500 
L 1119 3500 
L 1119 1403 
Q 1119 906 1312 657 
Q 1506 409 1894 409 
Q 2359 409 2629 706 
Q 2900 1003 2900 1516 
L 2900 3500 
L 3475 3500 
L 3475 0 
L 2900 0 
L 2900 538 
Q 2691 219 2414 64 
Q 2138 -91 1772 -91 
Q 1169 -91 856 284 
Q 544 659 544 1381 
z
M 1991 3584 
L 1991 3584 
z
" transform="scale(0.015625)"/>
       <path id="DejaVuSans-6d" d="M 3328 2828 
Q 3544 3216 3844 3400 
Q 4144 3584 4550 3584 
Q 5097 3584 5394 3201 
Q 5691 2819 5691 2113 
L 5691 0 
L 5113 0 
L 5113 2094 
Q 5113 2597 4934 2840 
Q 4756 3084 4391 3084 
Q 3944 3084 3684 2787 
Q 3425 2491 3425 1978 
L 3425 0 
L 2847 0 
L 2847 2094 
Q 2847 2600 2669 2842 
Q 2491 3084 2119 3084 
Q 1678 3084 1418 2786 
Q 1159 2488 1159 1978 
L 1159 0 
L 581 0 
L 581 3500 
L 1159 3500 
L 1159 2956 
Q 1356 3278 1631 3431 
Q 1906 3584 2284 3584 
Q 2666 3584 2933 3390 
Q 3200 3197 3328 2828 
z
" transform="scale(0.015625)"/>
       <path id="DejaVuSans-49" d="M 628 4666 
L 1259 4666 
L 1259 0 
L 628 0 
L 628 4666 
z
" transform="scale(0.015625)"/>
       <path id="DejaVuSans-48" d="M 628 4666 
L 1259 4666 
L 1259 2753 
L 3553 2753 
L 3553 4666 
L 4184 4666 
L 4184 0 
L 3553 0 
L 3553 2222 
L 1259 2222 
L 1259 0 
L 628 0 
L 628 4666 
z
" transform="scale(0.015625)"/>
      </defs>
      <use xlink:href="#DejaVuSans-43" transform="translate(0 0.125)"/>
      <use xlink:href="#DejaVuSans-6f" transform="translate(69.824219 0.125)"/>
      <use xlink:href="#DejaVuSans-6e" transform="translate(131.005859 0.125)"/>
      <use xlink:href="#DejaVuSans-73" transform="translate(194.384766 0.125)"/>
      <use xlink:href="#DejaVuSans-75" transform="translate(246.484375 0.125)"/>
      <use xlink:href="#DejaVuSans-6d" transform="translate(309.863281 0.125)"/>
      <use xlink:href="#DejaVuSans-6f" transform="translate(407.275391 0.125)"/>
      <use xlink:href="#DejaVuSans-20" transform="translate(468.457031 0.125)"/>
      <use xlink:href="#DejaVuSans-Oblique-63" transform="translate(500.244141 0.125)"/>
      <use xlink:href="#DejaVuSans-Oblique-74" transform="translate(555.224609 -16.28125) scale(0.7)"/>
      <use xlink:href="#DejaVuSans-20" transform="translate(585.405273 0.125)"/>
      <use xlink:href="#DejaVuSans-28" transform="translate(617.192383 0.125)"/>
      <use xlink:href="#DejaVuSans-50" transform="translate(656.206055 0.125)"/>
      <use xlink:href="#DejaVuSans-49" transform="translate(716.508789 0.125)"/>
      <use xlink:href="#DejaVuSans-48" transform="translate(746.000977 0.125)"/>
      <use xlink:href="#DejaVuSans-29" transform="translate(821.196289 0.125)"/>
     </g>
    </g>
   </g>
  </g>
  <g id="text_20">
   <!-- PIH: consumo suaviza flutuações transitórias da renda -->
   <g style="fill: #1c1b1a" transform="translate(15.378884 27.0025) scale(0.16 -0.16)">
    <defs>
     <path id="DejaVuSans-Bold-50" d="M 588 4666 
L 2584 4666 
Q 3475 4666 3951 4270 
Q 4428 3875 4428 3144 
Q 4428 2409 3951 2014 
Q 3475 1619 2584 1619 
L 1791 1619 
L 1791 0 
L 588 0 
L 588 4666 
z
M 1791 3794 
L 1791 2491 
L 2456 2491 
Q 2806 2491 2997 2661 
Q 3188 2831 3188 3144 
Q 3188 3456 2997 3625 
Q 2806 3794 2456 3794 
L 1791 3794 
z
" transform="scale(0.015625)"/>
     <path id="DejaVuSans-Bold-49" d="M 588 4666 
L 1791 4666 
L 1791 0 
L 588 0 
L 588 4666 
z
" transform="scale(0.015625)"/>
     <path id="DejaVuSans-Bold-48" d="M 588 4666 
L 1791 4666 
L 1791 2888 
L 3566 2888 
L 3566 4666 
L 4769 4666 
L 4769 0 
L 3566 0 
L 3566 1978 
L 1791 1978 
L 1791 0 
L 588 0 
L 588 4666 
z
" transform="scale(0.015625)"/>
     <path id="DejaVuSans-Bold-3a" d="M 716 3500 
L 1844 3500 
L 1844 2291 
L 716 2291 
L 716 3500 
z
M 716 1209 
L 1844 1209 
L 1844 0 
L 716 0 
L 716 1209 
z
" transform="scale(0.015625)"/>
     <path id="DejaVuSans-Bold-20" transform="scale(0.015625)"/>
     <path id="DejaVuSans-Bold-63" d="M 3366 3391 
L 3366 2478 
Q 3138 2634 2908 2709 
Q 2678 2784 2431 2784 
Q 1963 2784 1702 2511 
Q 1441 2238 1441 1747 
Q 1441 1256 1702 982 
Q 1963 709 2431 709 
Q 2694 709 2930 787 
Q 3166 866 3366 1019 
L 3366 103 
Q 3103 6 2833 -42 
Q 2563 -91 2291 -91 
Q 1344 -91 809 395 
Q 275 881 275 1747 
Q 275 2613 809 3098 
Q 1344 3584 2291 3584 
Q 2566 3584 2833 3536 
Q 3100 3488 3366 3391 
z
" transform="scale(0.015625)"/>
     <path id="DejaVuSans-Bold-6f" d="M 2203 2784 
Q 1831 2784 1636 2517 
Q 1441 2250 1441 1747 
Q 1441 1244 1636 976 
Q 1831 709 2203 709 
Q 2569 709 2762 976 
Q 2956 1244 2956 1747 
Q 2956 2250 2762 2517 
Q 2569 2784 2203 2784 
z
M 2203 3584 
Q 3106 3584 3614 3096 
Q 4122 2609 4122 1747 
Q 4122 884 3614 396 
Q 3106 -91 2203 -91 
Q 1297 -91 786 396 
Q 275 884 275 1747 
Q 275 2609 786 3096 
Q 1297 3584 2203 3584 
z
" transform="scale(0.015625)"/>
     <path id="DejaVuSans-Bold-6e" d="M 4056 2131 
L 4056 0 
L 2931 0 
L 2931 347 
L 2931 1631 
Q 2931 2084 2911 2256 
Q 2891 2428 2841 2509 
Q 2775 2619 2662 2680 
Q 2550 2741 2406 2741 
Q 2056 2741 1856 2470 
Q 1656 2200 1656 1722 
L 1656 0 
L 538 0 
L 538 3500 
L 1656 3500 
L 1656 2988 
Q 1909 3294 2193 3439 
Q 2478 3584 2822 3584 
Q 3428 3584 3742 3212 
Q 4056 2841 4056 2131 
z
" transform="scale(0.015625)"/>
     <path id="DejaVuSans-Bold-73" d="M 3272 3391 
L 3272 2541 
Q 2913 2691 2578 2766 
Q 2244 2841 1947 2841 
Q 1628 2841 1473 2761 
Q 1319 2681 1319 2516 
Q 1319 2381 1436 2309 
Q 1553 2238 1856 2203 
L 2053 2175 
Q 2913 2066 3209 1816 
Q 3506 1566 3506 1031 
Q 3506 472 3093 190 
Q 2681 -91 1863 -91 
Q 1516 -91 1145 -36 
Q 775 19 384 128 
L 384 978 
Q 719 816 1070 734 
Q 1422 653 1784 653 
Q 2113 653 2278 743 
Q 2444 834 2444 1013 
Q 2444 1163 2330 1236 
Q 2216 1309 1875 1350 
L 1678 1375 
Q 931 1469 631 1722 
Q 331 1975 331 2491 
Q 331 3047 712 3315 
Q 1094 3584 1881 3584 
Q 2191 3584 2531 3537 
Q 2872 3491 3272 3391 
z
" transform="scale(0.015625)"/>
     <path id="DejaVuSans-Bold-75" d="M 500 1363 
L 500 3500 
L 1625 3500 
L 1625 3150 
Q 1625 2866 1622 2436 
Q 1619 2006 1619 1863 
Q 1619 1441 1641 1255 
Q 1663 1069 1716 984 
Q 1784 875 1895 815 
Q 2006 756 2150 756 
Q 2500 756 2700 1025 
Q 2900 1294 2900 1772 
L 2900 3500 
L 4019 3500 
L 4019 0 
L 2900 0 
L 2900 506 
Q 2647 200 2364 54 
Q 2081 -91 1741 -91 
Q 1134 -91 817 281 
Q 500 653 500 1363 
z
" transform="scale(0.015625)"/>
     <path id="DejaVuSans-Bold-6d" d="M 3781 2919 
Q 3994 3244 4286 3414 
Q 4578 3584 4928 3584 
Q 5531 3584 5847 3212 
Q 6163 2841 6163 2131 
L 6163 0 
L 5038 0 
L 5038 1825 
Q 5041 1866 5042 1909 
Q 5044 1953 5044 2034 
Q 5044 2406 4934 2573 
Q 4825 2741 4581 2741 
Q 4263 2741 4089 2478 
Q 3916 2216 3909 1719 
L 3909 0 
L 2784 0 
L 2784 1825 
Q 2784 2406 2684 2573 
Q 2584 2741 2328 2741 
Q 2006 2741 1831 2477 
Q 1656 2213 1656 1722 
L 1656 0 
L 531 0 
L 531 3500 
L 1656 3500 
L 1656 2988 
Q 1863 3284 2130 3434 
Q 2397 3584 2719 3584 
Q 3081 3584 3359 3409 
Q 3638 3234 3781 2919 
z
" transform="scale(0.015625)"/>
     <path id="DejaVuSans-Bold-61" d="M 2106 1575 
Q 1756 1575 1579 1456 
Q 1403 1338 1403 1106 
Q 1403 894 1545 773 
Q 1688 653 1941 653 
Q 2256 653 2472 879 
Q 2688 1106 2688 1447 
L 2688 1575 
L 2106 1575 
z
M 3816 1997 
L 3816 0 
L 2688 0 
L 2688 519 
Q 2463 200 2181 54 
Q 1900 -91 1497 -91 
Q 953 -91 614 226 
Q 275 544 275 1050 
Q 275 1666 698 1953 
Q 1122 2241 2028 2241 
L 2688 2241 
L 2688 2328 
Q 2688 2594 2478 2717 
Q 2269 2841 1825 2841 
Q 1466 2841 1156 2769 
Q 847 2697 581 2553 
L 581 3406 
Q 941 3494 1303 3539 
Q 1666 3584 2028 3584 
Q 2975 3584 3395 3211 
Q 3816 2838 3816 1997 
z
" transform="scale(0.015625)"/>
     <path id="DejaVuSans-Bold-76" d="M 97 3500 
L 1216 3500 
L 2088 1081 
L 2956 3500 
L 4078 3500 
L 2700 0 
L 1472 0 
L 97 3500 
z
" transform="scale(0.015625)"/>
     <path id="DejaVuSans-Bold-69" d="M 538 3500 
L 1656 3500 
L 1656 0 
L 538 0 
L 538 3500 
z
M 538 4863 
L 1656 4863 
L 1656 3950 
L 538 3950 
L 538 4863 
z
" transform="scale(0.015625)"/>
     <path id="DejaVuSans-Bold-7a" d="M 366 3500 
L 3419 3500 
L 3419 2719 
L 1575 800 
L 3419 800 
L 3419 0 
L 288 0 
L 288 781 
L 2131 2700 
L 366 2700 
L 366 3500 
z
" transform="scale(0.015625)"/>
     <path id="DejaVuSans-Bold-66" d="M 2841 4863 
L 2841 4128 
L 2222 4128 
Q 1984 4128 1890 4042 
Q 1797 3956 1797 3744 
L 1797 3500 
L 2753 3500 
L 2753 2700 
L 1797 2700 
L 1797 0 
L 678 0 
L 678 2700 
L 122 2700 
L 122 3500 
L 678 3500 
L 678 3744 
Q 678 4316 997 4589 
Q 1316 4863 1984 4863 
L 2841 4863 
z
" transform="scale(0.015625)"/>
     <path id="DejaVuSans-Bold-6c" d="M 538 4863 
L 1656 4863 
L 1656 0 
L 538 0 
L 538 4863 
z
" transform="scale(0.015625)"/>
     <path id="DejaVuSans-Bold-74" d="M 1759 4494 
L 1759 3500 
L 2913 3500 
L 2913 2700 
L 1759 2700 
L 1759 1216 
Q 1759 972 1856 886 
Q 1953 800 2241 800 
L 2816 800 
L 2816 0 
L 1856 0 
Q 1194 0 917 276 
Q 641 553 641 1216 
L 641 2700 
L 84 2700 
L 84 3500 
L 641 3500 
L 641 4494 
L 1759 4494 
z
" transform="scale(0.015625)"/>
     <path id="DejaVuSans-Bold-e7" d="M 3366 3391 
L 3366 2478 
Q 3138 2634 2908 2709 
Q 2678 2784 2431 2784 
Q 1963 2784 1702 2511 
Q 1441 2238 1441 1747 
Q 1441 1256 1702 982 
Q 1963 709 2431 709 
Q 2694 709 2930 787 
Q 3166 866 3366 1019 
L 3366 103 
Q 3103 6 2833 -42 
Q 2563 -91 2291 -91 
Q 1344 -91 809 395 
Q 275 881 275 1747 
Q 275 2613 809 3098 
Q 1344 3584 2291 3584 
Q 2566 3584 2833 3536 
Q 3100 3488 3366 3391 
z
M 2457 0 
Q 2639 -194 2724 -359 
Q 2810 -525 2810 -672 
Q 2810 -969 2618 -1111 
Q 2426 -1253 2029 -1253 
Q 1879 -1253 1719 -1233 
Q 1560 -1213 1398 -1172 
L 1395 -697 
Q 1551 -747 1680 -770 
Q 1810 -794 1914 -794 
Q 2095 -794 2196 -722 
Q 2298 -650 2298 -525 
Q 2298 -444 2231 -316 
Q 2164 -188 2023 0 
L 2457 0 
z
" transform="scale(0.015625)"/>
     <path id="DejaVuSans-Bold-f5" d="M 2203 2784 
Q 1831 2784 1636 2517 
Q 1441 2250 1441 1747 
Q 1441 1244 1636 976 
Q 1831 709 2203 709 
Q 2569 709 2762 976 
Q 2956 1244 2956 1747 
Q 2956 2250 2762 2517 
Q 2569 2784 2203 2784 
z
M 2203 3584 
Q 3106 3584 3614 3096 
Q 4122 2609 4122 1747 
Q 4122 884 3614 396 
Q 3106 -91 2203 -91 
Q 1297 -91 786 396 
Q 275 884 275 1747 
Q 275 2609 786 3096 
Q 1297 3584 2203 3584 
z
M 2198 4263 
L 2026 4378 
Q 2014 4384 1995 4397 
Q 1848 4494 1770 4494 
Q 1658 4494 1598 4397 
Q 1539 4300 1539 4116 
L 1539 4091 
L 1105 4091 
Q 1105 4516 1265 4747 
Q 1426 4978 1717 4978 
Q 1830 4978 1944 4936 
Q 2058 4894 2186 4800 
L 2376 4666 
Q 2445 4619 2503 4594 
Q 2561 4569 2608 4569 
Q 2720 4569 2782 4669 
Q 2845 4769 2845 4947 
L 2845 4972 
L 3280 4972 
Q 3280 4547 3119 4315 
Q 2958 4084 2667 4084 
Q 2555 4084 2450 4121 
Q 2345 4159 2198 4263 
z
" transform="scale(0.015625)"/>
     <path id="DejaVuSans-Bold-65" d="M 4031 1759 
L 4031 1441 
L 1416 1441 
Q 1456 1047 1700 850 
Q 1944 653 2381 653 
Q 2734 653 3104 758 
Q 3475 863 3866 1075 
L 3866 213 
Q 3469 63 3072 -14 
Q 2675 -91 2278 -91 
Q 1328 -91 801 392 
Q 275 875 275 1747 
Q 275 2603 792 3093 
Q 1309 3584 2216 3584 
Q 3041 3584 3536 3087 
Q 4031 2591 4031 1759 
z
M 2881 2131 
Q 2881 2450 2695 2645 
Q 2509 2841 2209 2841 
Q 1884 2841 1681 2658 
Q 1478 2475 1428 2131 
L 2881 2131 
z
" transform="scale(0.015625)"/>
     <path id="DejaVuSans-Bold-72" d="M 3138 2547 
Q 2991 2616 2845 2648 
Q 2700 2681 2553 2681 
Q 2122 2681 1889 2404 
Q 1656 2128 1656 1613 
L 1656 0 
L 538 0 
L 538 3500 
L 1656 3500 
L 1656 2925 
Q 1872 3269 2151 3426 
Q 2431 3584 2822 3584 
Q 2878 3584 2943 3579 
Q 3009 3575 3134 3559 
L 3138 2547 
z
" transform="scale(0.015625)"/>
     <path id="DejaVuSans-Bold-f3" d="M 2203 2784 
Q 1831 2784 1636 2517 
Q 1441 2250 1441 1747 
Q 1441 1244 1636 976 
Q 1831 709 2203 709 
Q 2569 709 2762 976 
Q 2956 1244 2956 1747 
Q 2956 2250 2762 2517 
Q 2569 2784 2203 2784 
z
M 2203 3584 
Q 3106 3584 3614 3096 
Q 4122 2609 4122 1747 
Q 4122 884 3614 396 
Q 3106 -91 2203 -91 
Q 1297 -91 786 396 
Q 275 884 275 1747 
Q 275 2609 786 3096 
Q 1297 3584 2203 3584 
z
M 2694 5119 
L 3578 5119 
L 2425 3944 
L 1813 3944 
L 2694 5119 
z
" transform="scale(0.015625)"/>
     <path id="DejaVuSans-Bold-64" d="M 2919 2988 
L 2919 4863 
L 4044 4863 
L 4044 0 
L 2919 0 
L 2919 506 
Q 2688 197 2409 53 
Q 2131 -91 1766 -91 
Q 1119 -91 703 423 
Q 288 938 288 1747 
Q 288 2556 703 3070 
Q 1119 3584 1766 3584 
Q 2128 3584 2408 3439 
Q 2688 3294 2919 2988 
z
M 2181 722 
Q 2541 722 2730 984 
Q 2919 1247 2919 1747 
Q 2919 2247 2730 2509 
Q 2541 2772 2181 2772 
Q 1825 2772 1636 2509 
Q 1447 2247 1447 1747 
Q 1447 1247 1636 984 
Q 1825 722 2181 722 
z
" transform="scale(0.015625)"/>
    </defs>
    <use xlink:href="#DejaVuSans-Bold-50"/>
    <use xlink:href="#DejaVuSans-Bold-49" transform="translate(73.291016 0)"/>
    <use xlink:href="#DejaVuSans-Bold-48" transform="translate(110.498047 0)"/>
    <use xlink:href="#DejaVuSans-Bold-3a" transform="translate(194.189453 0)"/>
    <use xlink:href="#DejaVuSans-Bold-20" transform="translate(234.179688 0)"/>
    <use xlink:href="#DejaVuSans-Bold-63" transform="translate(268.994141 0)"/>
    <use xlink:href="#DejaVuSans-Bold-6f" transform="translate(328.271484 0)"/>
    <use xlink:href="#DejaVuSans-Bold-6e" transform="translate(396.972656 0)"/>
    <use xlink:href="#DejaVuSans-Bold-73" transform="translate(468.164062 0)"/>
    <use xlink:href="#DejaVuSans-Bold-75" transform="translate(527.685547 0)"/>
    <use xlink:href="#DejaVuSans-Bold-6d" transform="translate(598.876953 0)"/>
    <use xlink:href="#DejaVuSans-Bold-6f" transform="translate(703.076172 0)"/>
    <use xlink:href="#DejaVuSans-Bold-20" transform="translate(771.777344 0)"/>
    <use xlink:href="#DejaVuSans-Bold-73" transform="translate(806.591797 0)"/>
    <use xlink:href="#DejaVuSans-Bold-75" transform="translate(866.113281 0)"/>
    <use xlink:href="#DejaVuSans-Bold-61" transform="translate(937.304688 0)"/>
    <use xlink:href="#DejaVuSans-Bold-76" transform="translate(1004.785156 0)"/>
    <use xlink:href="#DejaVuSans-Bold-69" transform="translate(1069.970703 0)"/>
    <use xlink:href="#DejaVuSans-Bold-7a" transform="translate(1104.248047 0)"/>
    <use xlink:href="#DejaVuSans-Bold-61" transform="translate(1162.451172 0)"/>
    <use xlink:href="#DejaVuSans-Bold-20" transform="translate(1229.931641 0)"/>
    <use xlink:href="#DejaVuSans-Bold-66" transform="translate(1264.746094 0)"/>
    <use xlink:href="#DejaVuSans-Bold-6c" transform="translate(1308.251953 0)"/>
    <use xlink:href="#DejaVuSans-Bold-75" transform="translate(1342.529297 0)"/>
    <use xlink:href="#DejaVuSans-Bold-74" transform="translate(1413.720703 0)"/>
    <use xlink:href="#DejaVuSans-Bold-75" transform="translate(1461.523438 0)"/>
    <use xlink:href="#DejaVuSans-Bold-61" transform="translate(1532.714844 0)"/>
    <use xlink:href="#DejaVuSans-Bold-e7" transform="translate(1600.195312 0)"/>
    <use xlink:href="#DejaVuSans-Bold-f5" transform="translate(1659.472656 0)"/>
    <use xlink:href="#DejaVuSans-Bold-65" transform="translate(1728.173828 0)"/>
    <use xlink:href="#DejaVuSans-Bold-73" transform="translate(1795.996094 0)"/>
    <use xlink:href="#DejaVuSans-Bold-20" transform="translate(1855.517578 0)"/>
    <use xlink:href="#DejaVuSans-Bold-74" transform="translate(1890.332031 0)"/>
    <use xlink:href="#DejaVuSans-Bold-72" transform="translate(1938.134766 0)"/>
    <use xlink:href="#DejaVuSans-Bold-61" transform="translate(1987.451172 0)"/>
    <use xlink:href="#DejaVuSans-Bold-6e" transform="translate(2054.931641 0)"/>
    <use xlink:href="#DejaVuSans-Bold-73" transform="translate(2126.123047 0)"/>
    <use xlink:href="#DejaVuSans-Bold-69" transform="translate(2185.644531 0)"/>
    <use xlink:href="#DejaVuSans-Bold-74" transform="translate(2219.921875 0)"/>
    <use xlink:href="#DejaVuSans-Bold-f3" transform="translate(2267.724609 0)"/>
    <use xlink:href="#DejaVuSans-Bold-72" transform="translate(2336.425781 0)"/>
    <use xlink:href="#DejaVuSans-Bold-69" transform="translate(2385.742188 0)"/>
    <use xlink:href="#DejaVuSans-Bold-61" transform="translate(2420.019531 0)"/>
    <use xlink:href="#DejaVuSans-Bold-73" transform="translate(2487.5 0)"/>
    <use xlink:href="#DejaVuSans-Bold-20" transform="translate(2547.021484 0)"/>
    <use xlink:href="#DejaVuSans-Bold-64" transform="translate(2581.835938 0)"/>
    <use xlink:href="#DejaVuSans-Bold-61" transform="translate(2653.417969 0)"/>
    <use xlink:href="#DejaVuSans-Bold-20" transform="translate(2720.898438 0)"/>
    <use xlink:href="#DejaVuSans-Bold-72" transform="translate(2755.712891 0)"/>
    <use xlink:href="#DejaVuSans-Bold-65" transform="translate(2805.029297 0)"/>
    <use xlink:href="#DejaVuSans-Bold-6e" transform="translate(2872.851562 0)"/>
    <use xlink:href="#DejaVuSans-Bold-64" transform="translate(2944.042969 0)"/>
    <use xlink:href="#DejaVuSans-Bold-61" transform="translate(3015.625 0)"/>
   </g>
  </g>
  <g id="text_21">
   <!-- Renda segue um AR(1); o consumo responde apenas à riqueza humana (valor presente da renda), variando muito menos. -->
   <g style="fill: #6f6e69" transform="translate(15.378884 39.838406) scale(0.102 -0.102)">
    <defs>
     <path id="DejaVuSans-67" d="M 2906 1791 
Q 2906 2416 2648 2759 
Q 2391 3103 1925 3103 
Q 1463 3103 1205 2759 
Q 947 2416 947 1791 
Q 947 1169 1205 825 
Q 1463 481 1925 481 
Q 2391 481 2648 825 
Q 2906 1169 2906 1791 
z
M 3481 434 
Q 3481 -459 3084 -895 
Q 2688 -1331 1869 -1331 
Q 1566 -1331 1297 -1286 
Q 1028 -1241 775 -1147 
L 775 -588 
Q 1028 -725 1275 -790 
Q 1522 -856 1778 -856 
Q 2344 -856 2625 -561 
Q 2906 -266 2906 331 
L 2906 616 
Q 2728 306 2450 153 
Q 2172 0 1784 0 
Q 1141 0 747 490 
Q 353 981 353 1791 
Q 353 2603 747 3093 
Q 1141 3584 1784 3584 
Q 2172 3584 2450 3431 
Q 2728 3278 2906 2969 
L 2906 3500 
L 3481 3500 
L 3481 434 
z
" transform="scale(0.015625)"/>
     <path id="DejaVuSans-41" d="M 2188 4044 
L 1331 1722 
L 3047 1722 
L 2188 4044 
z
M 1831 4666 
L 2547 4666 
L 4325 0 
L 3669 0 
L 3244 1197 
L 1141 1197 
L 716 0 
L 50 0 
L 1831 4666 
z
" transform="scale(0.015625)"/>
     <path id="DejaVuSans-3b" d="M 750 3309 
L 1409 3309 
L 1409 2516 
L 750 2516 
L 750 3309 
z
M 750 794 
L 1409 794 
L 1409 256 
L 897 -744 
L 494 -744 
L 750 256 
L 750 794 
z
" transform="scale(0.015625)"/>
     <path id="DejaVuSans-70" d="M 1159 525 
L 1159 -1331 
L 581 -1331 
L 581 3500 
L 1159 3500 
L 1159 2969 
Q 1341 3281 1617 3432 
Q 1894 3584 2278 3584 
Q 2916 3584 3314 3078 
Q 3713 2572 3713 1747 
Q 3713 922 3314 415 
Q 2916 -91 2278 -91 
Q 1894 -91 1617 61 
Q 1341 213 1159 525 
z
M 3116 1747 
Q 3116 2381 2855 2742 
Q 2594 3103 2138 3103 
Q 1681 3103 1420 2742 
Q 1159 2381 1159 1747 
Q 1159 1113 1420 752 
Q 1681 391 2138 391 
Q 2594 391 2855 752 
Q 3116 1113 3116 1747 
z
" transform="scale(0.015625)"/>
     <path id="DejaVuSans-e0" d="M 2194 1759 
Q 1497 1759 1228 1600 
Q 959 1441 959 1056 
Q 959 750 1161 570 
Q 1363 391 1709 391 
Q 2188 391 2477 730 
Q 2766 1069 2766 1631 
L 2766 1759 
L 2194 1759 
z
M 3341 1997 
L 3341 0 
L 2766 0 
L 2766 531 
Q 2569 213 2275 61 
Q 1981 -91 1556 -91 
Q 1019 -91 701 211 
Q 384 513 384 1019 
Q 384 1609 779 1909 
Q 1175 2209 1959 2209 
L 2766 2209 
L 2766 2266 
Q 2766 2663 2505 2880 
Q 2244 3097 1772 3097 
Q 1472 3097 1187 3025 
Q 903 2953 641 2809 
L 641 3341 
Q 956 3463 1253 3523 
Q 1550 3584 1831 3584 
Q 2591 3584 2966 3190 
Q 3341 2797 3341 1997 
z
M 1403 5119 
L 2284 3950 
L 1806 3950 
L 787 5119 
L 1403 5119 
z
" transform="scale(0.015625)"/>
     <path id="DejaVuSans-69" d="M 603 3500 
L 1178 3500 
L 1178 0 
L 603 0 
L 603 3500 
z
M 603 4863 
L 1178 4863 
L 1178 4134 
L 603 4134 
L 603 4863 
z
" transform="scale(0.015625)"/>
     <path id="DejaVuSans-71" d="M 947 1747 
Q 947 1113 1208 752 
Q 1469 391 1925 391 
Q 2381 391 2643 752 
Q 2906 1113 2906 1747 
Q 2906 2381 2643 2742 
Q 2381 3103 1925 3103 
Q 1469 3103 1208 2742 
Q 947 2381 947 1747 
z
M 2906 525 
Q 2725 213 2448 61 
Q 2172 -91 1784 -91 
Q 1150 -91 751 415 
Q 353 922 353 1747 
Q 353 2572 751 3078 
Q 1150 3584 1784 3584 
Q 2172 3584 2448 3432 
Q 2725 3281 2906 2969 
L 2906 3500 
L 3481 3500 
L 3481 -1331 
L 2906 -1331 
L 2906 525 
z
" transform="scale(0.015625)"/>
     <path id="DejaVuSans-7a" d="M 353 3500 
L 3084 3500 
L 3084 2975 
L 922 459 
L 3084 459 
L 3084 0 
L 275 0 
L 275 525 
L 2438 3041 
L 353 3041 
L 353 3500 
z
" transform="scale(0.015625)"/>
     <path id="DejaVuSans-68" d="M 3513 2113 
L 3513 0 
L 2938 0 
L 2938 2094 
Q 2938 2591 2744 2837 
Q 2550 3084 2163 3084 
Q 1697 3084 1428 2787 
Q 1159 2491 1159 1978 
L 1159 0 
L 581 0 
L 581 4863 
L 1159 4863 
L 1159 2956 
Q 1366 3272 1645 3428 
Q 1925 3584 2291 3584 
Q 2894 3584 3203 3211 
Q 3513 2838 3513 2113 
z
" transform="scale(0.015625)"/>
    </defs>
    <use xlink:href="#DejaVuSans-52"/>
    <use xlink:href="#DejaVuSans-65" transform="translate(64.982422 0)"/>
    <use xlink:href="#DejaVuSans-6e" transform="translate(126.505859 0)"/>
    <use xlink:href="#DejaVuSans-64" transform="translate(189.884766 0)"/>
    <use xlink:href="#DejaVuSans-61" transform="translate(253.361328 0)"/>
    <use xlink:href="#DejaVuSans-20" transform="translate(314.640625 0)"/>
    <use xlink:href="#DejaVuSans-73" transform="translate(346.427734 0)"/>
    <use xlink:href="#DejaVuSans-65" transform="translate(398.527344 0)"/>
    <use xlink:href="#DejaVuSans-67" transform="translate(460.050781 0)"/>
    <use xlink:href="#DejaVuSans-75" transform="translate(523.527344 0)"/>
    <use xlink:href="#DejaVuSans-65" transform="translate(586.90625 0)"/>
    <use xlink:href="#DejaVuSans-20" transform="translate(648.429688 0)"/>
    <use xlink:href="#DejaVuSans-75" transform="translate(680.216797 0)"/>
    <use xlink:href="#DejaVuSans-6d" transform="translate(743.595703 0)"/>
    <use xlink:href="#DejaVuSans-20" transform="translate(841.007812 0)"/>
    <use xlink:href="#DejaVuSans-41" transform="translate(872.794922 0)"/>
    <use xlink:href="#DejaVuSans-52" transform="translate(941.203125 0)"/>
    <use xlink:href="#DejaVuSans-28" transform="translate(1010.685547 0)"/>
    <use xlink:href="#DejaVuSans-31" transform="translate(1049.699219 0)"/>
    <use xlink:href="#DejaVuSans-29" transform="translate(1113.322266 0)"/>
    <use xlink:href="#DejaVuSans-3b" transform="translate(1152.335938 0)"/>
    <use xlink:href="#DejaVuSans-20" transform="translate(1186.027344 0)"/>
    <use xlink:href="#DejaVuSans-6f" transform="translate(1217.814453 0)"/>
    <use xlink:href="#DejaVuSans-20" transform="translate(1278.996094 0)"/>
    <use xlink:href="#DejaVuSans-63" transform="translate(1310.783203 0)"/>
    <use xlink:href="#DejaVuSans-6f" transform="translate(1365.763672 0)"/>
    <use xlink:href="#DejaVuSans-6e" transform="translate(1426.945312 0)"/>
    <use xlink:href="#DejaVuSans-73" transform="translate(1490.324219 0)"/>
    <use xlink:href="#DejaVuSans-75" transform="translate(1542.423828 0)"/>
    <use xlink:href="#DejaVuSans-6d" transform="translate(1605.802734 0)"/>
    <use xlink:href="#DejaVuSans-6f" transform="translate(1703.214844 0)"/>
    <use xlink:href="#DejaVuSans-20" transform="translate(1764.396484 0)"/>
    <use xlink:href="#DejaVuSans-72" transform="translate(1796.183594 0)"/>
    <use xlink:href="#DejaVuSans-65" transform="translate(1835.046875 0)"/>
    <use xlink:href="#DejaVuSans-73" transform="translate(1896.570312 0)"/>
    <use xlink:href="#DejaVuSans-70" transform="translate(1948.669922 0)"/>
    <use xlink:href="#DejaVuSans-6f" transform="translate(2012.146484 0)"/>
    <use xlink:href="#DejaVuSans-6e" transform="translate(2073.328125 0)"/>
    <use xlink:href="#DejaVuSans-64" transform="translate(2136.707031 0)"/>
    <use xlink:href="#DejaVuSans-65" transform="translate(2200.183594 0)"/>
    <use xlink:href="#DejaVuSans-20" transform="translate(2261.707031 0)"/>
    <use xlink:href="#DejaVuSans-61" transform="translate(2293.494141 0)"/>
    <use xlink:href="#DejaVuSans-70" transform="translate(2354.773438 0)"/>
    <use xlink:href="#DejaVuSans-65" transform="translate(2418.25 0)"/>
    <use xlink:href="#DejaVuSans-6e" transform="translate(2479.773438 0)"/>
    <use xlink:href="#DejaVuSans-61" transform="translate(2543.152344 0)"/>
    <use xlink:href="#DejaVuSans-73" transform="translate(2604.431641 0)"/>
    <use xlink:href="#DejaVuSans-20" transform="translate(2656.53125 0)"/>
    <use xlink:href="#DejaVuSans-e0" transform="translate(2688.318359 0)"/>
    <use xlink:href="#DejaVuSans-20" transform="translate(2749.597656 0)"/>
    <use xlink:href="#DejaVuSans-72" transform="translate(2781.384766 0)"/>
    <use xlink:href="#DejaVuSans-69" transform="translate(2822.498047 0)"/>
    <use xlink:href="#DejaVuSans-71" transform="translate(2850.28125 0)"/>
    <use xlink:href="#DejaVuSans-75" transform="translate(2913.757812 0)"/>
    <use xlink:href="#DejaVuSans-65" transform="translate(2977.136719 0)"/>
    <use xlink:href="#DejaVuSans-7a" transform="translate(3038.660156 0)"/>
    <use xlink:href="#DejaVuSans-61" transform="translate(3091.150391 0)"/>
    <use xlink:href="#DejaVuSans-20" transform="translate(3152.429688 0)"/>
    <use xlink:href="#DejaVuSans-68" transform="translate(3184.216797 0)"/>
    <use xlink:href="#DejaVuSans-75" transform="translate(3247.595703 0)"/>
    <use xlink:href="#DejaVuSans-6d" transform="translate(3310.974609 0)"/>
    <use xlink:href="#DejaVuSans-61" transform="translate(3408.386719 0)"/>
    <use xlink:href="#DejaVuSans-6e" transform="translate(3469.666016 0)"/>
    <use xlink:href="#DejaVuSans-61" transform="translate(3533.044922 0)"/>
    <use xlink:href="#DejaVuSans-20" transform="translate(3594.324219 0)"/>
    <use xlink:href="#DejaVuSans-28" transform="translate(3626.111328 0)"/>
    <use xlink:href="#DejaVuSans-76" transform="translate(3665.125 0)"/>
    <use xlink:href="#DejaVuSans-61" transform="translate(3724.304688 0)"/>
    <use xlink:href="#DejaVuSans-6c" transform="translate(3785.583984 0)"/>
    <use xlink:href="#DejaVuSans-6f" transform="translate(3813.367188 0)"/>
    <use xlink:href="#DejaVuSans-72" transform="translate(3874.548828 0)"/>
    <use xlink:href="#DejaVuSans-20" transform="translate(3915.662109 0)"/>
    <use xlink:href="#DejaVuSans-70" transform="translate(3947.449219 0)"/>
    <use xlink:href="#DejaVuSans-72" transform="translate(4010.925781 0)"/>
    <use xlink:href="#DejaVuSans-65" transform="translate(4049.789062 0)"/>
    <use xlink:href="#DejaVuSans-73" transform="translate(4111.3125 0)"/>
    <use xlink:href="#DejaVuSans-65" transform="translate(4163.412109 0)"/>
    <use xlink:href="#DejaVuSans-6e" transform="translate(4224.935547 0)"/>
    <use xlink:href="#DejaVuSans-74" transform="translate(4288.314453 0)"/>
    <use xlink:href="#DejaVuSans-65" transform="translate(4327.523438 0)"/>
    <use xlink:href="#DejaVuSans-20" transform="translate(4389.046875 0)"/>
    <use xlink:href="#DejaVuSans-64" transform="translate(4420.833984 0)"/>
    <use xlink:href="#DejaVuSans-61" transform="translate(4484.310547 0)"/>
    <use xlink:href="#DejaVuSans-20" transform="translate(4545.589844 0)"/>
    <use xlink:href="#DejaVuSans-72" transform="translate(4577.376953 0)"/>
    <use xlink:href="#DejaVuSans-65" transform="translate(4616.240234 0)"/>
    <use xlink:href="#DejaVuSans-6e" transform="translate(4677.763672 0)"/>
    <use xlink:href="#DejaVuSans-64" transform="translate(4741.142578 0)"/>
    <use xlink:href="#DejaVuSans-61" transform="translate(4804.619141 0)"/>
    <use xlink:href="#DejaVuSans-29" transform="translate(4865.898438 0)"/>
    <use xlink:href="#DejaVuSans-2c" transform="translate(4904.912109 0)"/>
    <use xlink:href="#DejaVuSans-20" transform="translate(4936.699219 0)"/>
    <use xlink:href="#DejaVuSans-76" transform="translate(4968.486328 0)"/>
    <use xlink:href="#DejaVuSans-61" transform="translate(5027.666016 0)"/>
    <use xlink:href="#DejaVuSans-72" transform="translate(5088.945312 0)"/>
    <use xlink:href="#DejaVuSans-69" transform="translate(5130.058594 0)"/>
    <use xlink:href="#DejaVuSans-61" transform="translate(5157.841797 0)"/>
    <use xlink:href="#DejaVuSans-6e" transform="translate(5219.121094 0)"/>
    <use xlink:href="#DejaVuSans-64" transform="translate(5282.5 0)"/>
    <use xlink:href="#DejaVuSans-6f" transform="translate(5345.976562 0)"/>
    <use xlink:href="#DejaVuSans-20" transform="translate(5407.158203 0)"/>
    <use xlink:href="#DejaVuSans-6d" transform="translate(5438.945312 0)"/>
    <use xlink:href="#DejaVuSans-75" transform="translate(5536.357422 0)"/>
    <use xlink:href="#DejaVuSans-69" transform="translate(5599.736328 0)"/>
    <use xlink:href="#DejaVuSans-74" transform="translate(5627.519531 0)"/>
    <use xlink:href="#DejaVuSans-6f" transform="translate(5666.728516 0)"/>
    <use xlink:href="#DejaVuSans-20" transform="translate(5727.910156 0)"/>
    <use xlink:href="#DejaVuSans-6d" transform="translate(5759.697266 0)"/>
    <use xlink:href="#DejaVuSans-65" transform="translate(5857.109375 0)"/>
    <use xlink:href="#DejaVuSans-6e" transform="translate(5918.632812 0)"/>
    <use xlink:href="#DejaVuSans-6f" transform="translate(5982.011719 0)"/>
    <use xlink:href="#DejaVuSans-73" transform="translate(6043.193359 0)"/>
    <use xlink:href="#DejaVuSans-2e" transform="translate(6095.292969 0)"/>
   </g>
  </g>
  <g id="text_22">
   <!-- Obs.: r=0.03 · ρ_y=0.9 · σ_y=0.1 · ȳ=1.0 · semente=7. -->
   <g style="fill: #6f6e69" transform="translate(15.378884 424.908703) scale(0.087 -0.087)">
    <defs>
     <path id="DejaVuSans-4f" d="M 2522 4238 
Q 1834 4238 1429 3725 
Q 1025 3213 1025 2328 
Q 1025 1447 1429 934 
Q 1834 422 2522 422 
Q 3209 422 3611 934 
Q 4013 1447 4013 2328 
Q 4013 3213 3611 3725 
Q 3209 4238 2522 4238 
z
M 2522 4750 
Q 3503 4750 4090 4092 
Q 4678 3434 4678 2328 
Q 4678 1225 4090 567 
Q 3503 -91 2522 -91 
Q 1538 -91 948 565 
Q 359 1222 359 2328 
Q 359 3434 948 4092 
Q 1538 4750 2522 4750 
z
" transform="scale(0.015625)"/>
     <path id="DejaVuSans-62" d="M 3116 1747 
Q 3116 2381 2855 2742 
Q 2594 3103 2138 3103 
Q 1681 3103 1420 2742 
Q 1159 2381 1159 1747 
Q 1159 1113 1420 752 
Q 1681 391 2138 391 
Q 2594 391 2855 752 
Q 3116 1113 3116 1747 
z
M 1159 2969 
Q 1341 3281 1617 3432 
Q 1894 3584 2278 3584 
Q 2916 3584 3314 3078 
Q 3713 2572 3713 1747 
Q 3713 922 3314 415 
Q 2916 -91 2278 -91 
Q 1894 -91 1617 61 
Q 1341 213 1159 525 
L 1159 0 
L 581 0 
L 581 4863 
L 1159 4863 
L 1159 2969 
z
" transform="scale(0.015625)"/>
     <path id="DejaVuSans-3a" d="M 750 794 
L 1409 794 
L 1409 0 
L 750 0 
L 750 794 
z
M 750 3309 
L 1409 3309 
L 1409 2516 
L 750 2516 
L 750 3309 
z
" transform="scale(0.015625)"/>
     <path id="DejaVuSans-b7" d="M 684 2619 
L 1344 2619 
L 1344 1825 
L 684 1825 
L 684 2619 
z
" transform="scale(0.015625)"/>
     <path id="DejaVuSans-3c1" d="M 863 2875 
Q 1053 3194 1525 3475 
Q 1709 3584 2278 3584 
Q 2916 3584 3314 3078 
Q 3713 2572 3713 1747 
Q 3713 922 3314 415 
Q 2916 -91 2278 -91 
Q 1894 -91 1617 61 
Q 1341 213 1159 525 
L 1159 -1331 
L 581 -1331 
L 581 1716 
Q 581 2438 863 2875 
z
M 3116 1747 
Q 3116 2381 2855 2742 
Q 2594 3103 2138 3103 
Q 1681 3103 1420 2742 
Q 1159 2381 1159 1747 
Q 1159 1113 1420 752 
Q 1681 391 2138 391 
Q 2594 391 2855 752 
Q 3116 1113 3116 1747 
z
" transform="scale(0.015625)"/>
     <path id="DejaVuSans-5f" d="M 3263 -1063 
L 3263 -1509 
L -63 -1509 
L -63 -1063 
L 3263 -1063 
z
" transform="scale(0.015625)"/>
     <path id="DejaVuSans-79" d="M 2059 -325 
Q 1816 -950 1584 -1140 
Q 1353 -1331 966 -1331 
L 506 -1331 
L 506 -850 
L 844 -850 
Q 1081 -850 1212 -737 
Q 1344 -625 1503 -206 
L 1606 56 
L 191 3500 
L 800 3500 
L 1894 763 
L 2988 3500 
L 3597 3500 
L 2059 -325 
z
" transform="scale(0.015625)"/>
     <path id="DejaVuSans-39" d="M 703 97 
L 703 672 
Q 941 559 1184 500 
Q 1428 441 1663 441 
Q 2288 441 2617 861 
Q 2947 1281 2994 2138 
Q 2813 1869 2534 1725 
Q 2256 1581 1919 1581 
Q 1219 1581 811 2004 
Q 403 2428 403 3163 
Q 403 3881 828 4315 
Q 1253 4750 1959 4750 
Q 2769 4750 3195 4129 
Q 3622 3509 3622 2328 
Q 3622 1225 3098 567 
Q 2575 -91 1691 -91 
Q 1453 -91 1209 -44 
Q 966 3 703 97 
z
M 1959 2075 
Q 2384 2075 2632 2365 
Q 2881 2656 2881 3163 
Q 2881 3666 2632 3958 
Q 2384 4250 1959 4250 
Q 1534 4250 1286 3958 
Q 1038 3666 1038 3163 
Q 1038 2656 1286 2365 
Q 1534 2075 1959 2075 
z
" transform="scale(0.015625)"/>
     <path id="DejaVuSans-3c3" d="M 1959 3044 
Q 1484 3044 1228 2700 
Q 959 2341 959 1747 
Q 959 1119 1226 758 
Q 1494 397 1959 397 
Q 2419 397 2687 759 
Q 2956 1122 2956 1747 
Q 2956 2319 2688 2700 
Q 2441 3044 1959 3044 
z
M 1959 3500 
L 3869 3500 
L 3869 2925 
L 3225 2925 
Q 3566 2438 3566 1747 
Q 3566 888 3138 400 
Q 2709 -91 1959 -91 
Q 1206 -91 781 400 
Q 353 888 353 1747 
Q 353 2613 781 3097 
Q 1134 3500 1959 3500 
z
" transform="scale(0.015625)"/>
     <path id="DejaVuSans-233" d="M 962 4769 
L 2830 4769 
L 2830 4306 
L 962 4306 
L 962 4769 
z
M 2059 -325 
Q 1816 -950 1584 -1140 
Q 1353 -1331 966 -1331 
L 506 -1331 
L 506 -850 
L 844 -850 
Q 1081 -850 1212 -737 
Q 1344 -625 1503 -206 
L 1606 56 
L 191 3500 
L 800 3500 
L 1894 763 
L 2988 3500 
L 3597 3500 
L 2059 -325 
z
" transform="scale(0.015625)"/>
    </defs>
    <use xlink:href="#DejaVuSans-4f"/>
    <use xlink:href="#DejaVuSans-62" transform="translate(78.710938 0)"/>
    <use xlink:href="#DejaVuSans-73" transform="translate(142.1875 0)"/>
    <use xlink:href="#DejaVuSans-2e" transform="translate(194.287109 0)"/>
    <use xlink:href="#DejaVuSans-3a" transform="translate(226.074219 0)"/>
    <use xlink:href="#DejaVuSans-20" transform="translate(259.765625 0)"/>
    <use xlink:href="#DejaVuSans-72" transform="translate(291.552734 0)"/>
    <use xlink:href="#DejaVuSans-3d" transform="translate(332.666016 0)"/>
    <use xlink:href="#DejaVuSans-30" transform="translate(416.455078 0)"/>
    <use xlink:href="#DejaVuSans-2e" transform="translate(480.078125 0)"/>
    <use xlink:href="#DejaVuSans-30" transform="translate(511.865234 0)"/>
    <use xlink:href="#DejaVuSans-33" transform="translate(575.488281 0)"/>
    <use xlink:href="#DejaVuSans-20" transform="translate(639.111328 0)"/>
    <use xlink:href="#DejaVuSans-b7" transform="translate(670.898438 0)"/>
    <use xlink:href="#DejaVuSans-20" transform="translate(702.685547 0)"/>
    <use xlink:href="#DejaVuSans-3c1" transform="translate(734.472656 0)"/>
    <use xlink:href="#DejaVuSans-5f" transform="translate(797.949219 0)"/>
    <use xlink:href="#DejaVuSans-79" transform="translate(847.949219 0)"/>
    <use xlink:href="#DejaVuSans-3d" transform="translate(907.128906 0)"/>
    <use xlink:href="#DejaVuSans-30" transform="translate(990.917969 0)"/>
    <use xlink:href="#DejaVuSans-2e" transform="translate(1054.541016 0)"/>
    <use xlink:href="#DejaVuSans-39" transform="translate(1086.328125 0)"/>
    <use xlink:href="#DejaVuSans-20" transform="translate(1149.951172 0)"/>
    <use xlink:href="#DejaVuSans-b7" transform="translate(1181.738281 0)"/>
    <use xlink:href="#DejaVuSans-20" transform="translate(1213.525391 0)"/>
    <use xlink:href="#DejaVuSans-3c3" transform="translate(1245.3125 0)"/>
    <use xlink:href="#DejaVuSans-5f" transform="translate(1308.691406 0)"/>
    <use xlink:href="#DejaVuSans-79" transform="translate(1358.691406 0)"/>
    <use xlink:href="#DejaVuSans-3d" transform="translate(1417.871094 0)"/>
    <use xlink:href="#DejaVuSans-30" transform="translate(1501.660156 0)"/>
    <use xlink:href="#DejaVuSans-2e" transform="translate(1565.283203 0)"/>
    <use xlink:href="#DejaVuSans-31" transform="translate(1597.070312 0)"/>
    <use xlink:href="#DejaVuSans-20" transform="translate(1660.693359 0)"/>
    <use xlink:href="#DejaVuSans-b7" transform="translate(1692.480469 0)"/>
    <use xlink:href="#DejaVuSans-20" transform="translate(1724.267578 0)"/>
    <use xlink:href="#DejaVuSans-233" transform="translate(1756.054688 0)"/>
    <use xlink:href="#DejaVuSans-3d" transform="translate(1815.234375 0)"/>
    <use xlink:href="#DejaVuSans-31" transform="translate(1899.023438 0)"/>
    <use xlink:href="#DejaVuSans-2e" transform="translate(1962.646484 0)"/>
    <use xlink:href="#DejaVuSans-30" transform="translate(1994.433594 0)"/>
    <use xlink:href="#DejaVuSans-20" transform="translate(2058.056641 0)"/>
    <use xlink:href="#DejaVuSans-b7" transform="translate(2089.84375 0)"/>
    <use xlink:href="#DejaVuSans-20" transform="translate(2121.630859 0)"/>
    <use xlink:href="#DejaVuSans-73" transform="translate(2153.417969 0)"/>
    <use xlink:href="#DejaVuSans-65" transform="translate(2205.517578 0)"/>
    <use xlink:href="#DejaVuSans-6d" transform="translate(2267.041016 0)"/>
    <use xlink:href="#DejaVuSans-65" transform="translate(2364.453125 0)"/>
    <use xlink:href="#DejaVuSans-6e" transform="translate(2425.976562 0)"/>
    <use xlink:href="#DejaVuSans-74" transform="translate(2489.355469 0)"/>
    <use xlink:href="#DejaVuSans-65" transform="translate(2528.564453 0)"/>
    <use xlink:href="#DejaVuSans-3d" transform="translate(2590.087891 0)"/>
    <use xlink:href="#DejaVuSans-37" transform="translate(2673.876953 0)"/>
    <use xlink:href="#DejaVuSans-2e" transform="translate(2737.5 0)"/>
   </g>
  </g>
 </g>
 <defs>
  <clipPath id="p17c274ce5f">
   <rect x="57.260312" y="98.125714" width="726.898571" height="247.391429"/>
  </clipPath>
 </defs>
</svg>
