<?xml version="1.0" encoding="utf-8" standalone="no"?>
<!DOCTYPE svg PUBLIC "-//W3C//DTD SVG 1.1//EN"
  "http://www.w3.org/Graphics/SVG/1.1/DTD/svg11.dtd">
<svg xmlns:xlink="http://www.w3.org/1999/xlink" width="978.825483pt" height="420.732pt" viewBox="0 0 978.825483 420.732" xmlns="http://www.w3.org/2000/svg" version="1.1">
 <metadata>
  <rdf:RDF xmlns:dc="http://purl.org/dc/elements/1.1/" xmlns:cc="http://creativecommons.org/ns#" xmlns:rdf="http://www.w3.org/1999/02/22-rdf-syntax-ns#">
   <cc:Work>
    <dc:type rdf:resource="http://purl.org/dc/dcmitype/StillImage"/>
    <dc:date>2026-04-02T16:13:21.972110</dc:date>
    <dc:format>image/svg+xml</dc:format>
    <dc:creator>
     <cc:Agent>
      <dc:title>Matplotlib v3.10.7, https://matplotlib.org/</dc:title>
     </cc:Agent>
    </dc:creator>
   </cc:Work>
  </rdf:RDF>
 </metadata>
 <defs>
  <style type="text/css">*{stroke-linejoin: round; stroke-linecap: butt}</style>
 </defs>
 <g id="figure_1">
  <g id="patch_1">
   <path d="M 0 420.732 
L 978.825483 420.732 
L 978.825483 -0 
L 0 -0 
z
" style="fill: #fffcf0"/>
  </g>
  <g id="axes_1">
   <g id="patch_2">
    <path d="M 57.283281 316.352 
L 453.418376 316.352 
L 453.418376 113.074291 
L 57.283281 113.074291 
z
" style="fill: #fffcf0"/>
   </g>
   <g id="matplotlib.axis_1">
    <g id="xtick_1">
     <g id="line2d_1"/>
     <g id="text_1">
      <!-- 0 -->
      <g style="fill: #6f6e69" transform="translate(71.94532 330.330359) scale(0.105 -0.105)">
       <defs>
        <path id="DejaVuSans-30" d="M 2034 4250 
Q 1547 4250 1301 3770 
Q 1056 3291 1056 2328 
Q 1056 1369 1301 889 
Q 1547 409 2034 409 
Q 2525 409 2770 889 
Q 3016 1369 3016 2328 
Q 3016 3291 2770 3770 
Q 2525 4250 2034 4250 
z
M 2034 4750 
Q 2819 4750 3233 4129 
Q 3647 3509 3647 2328 
Q 3647 1150 3233 529 
Q 2819 -91 2034 -91 
Q 1250 -91 836 529 
Q 422 1150 422 2328 
Q 422 3509 836 4129 
Q 1250 4750 2034 4750 
z
" transform="scale(0.015625)"/>
       </defs>
       <use xlink:href="#DejaVuSans-30"/>
      </g>
     </g>
    </g>
    <g id="xtick_2">
     <g id="line2d_2"/>
     <g id="text_2">
      <!-- 2 -->
      <g style="fill: #6f6e69" transform="translate(147.723726 330.330359) scale(0.105 -0.105)">
       <defs>
        <path id="DejaVuSans-32" d="M 1228 531 
L 3431 531 
L 3431 0 
L 469 0 
L 469 531 
Q 828 903 1448 1529 
Q 2069 2156 2228 2338 
Q 2531 2678 2651 2914 
Q 2772 3150 2772 3378 
Q 2772 3750 2511 3984 
Q 2250 4219 1831 4219 
Q 1534 4219 1204 4116 
Q 875 4013 500 3803 
L 500 4441 
Q 881 4594 1212 4672 
Q 1544 4750 1819 4750 
Q 2544 4750 2975 4387 
Q 3406 4025 3406 3419 
Q 3406 3131 3298 2873 
Q 3191 2616 2906 2266 
Q 2828 2175 2409 1742 
Q 1991 1309 1228 531 
z
" transform="scale(0.015625)"/>
       </defs>
       <use xlink:href="#DejaVuSans-32"/>
      </g>
     </g>
    </g>
    <g id="xtick_3">
     <g id="line2d_3"/>
     <g id="text_3">
      <!-- 4 -->
      <g style="fill: #6f6e69" transform="translate(223.502132 330.330359) scale(0.105 -0.105)">
       <defs>
        <path id="DejaVuSans-34" d="M 2419 4116 
L 825 1625 
L 2419 1625 
L 2419 4116 
z
M 2253 4666 
L 3047 4666 
L 3047 1625 
L 3713 1625 
L 3713 1100 
L 3047 1100 
L 3047 0 
L 2419 0 
L 2419 1100 
L 313 1100 
L 313 1709 
L 2253 4666 
z
" transform="scale(0.015625)"/>
       </defs>
       <use xlink:href="#DejaVuSans-34"/>
      </g>
     </g>
    </g>
    <g id="xtick_4">
     <g id="line2d_4"/>
     <g id="text_4">
      <!-- 6 -->
      <g style="fill: #6f6e69" transform="translate(299.280538 330.330359) scale(0.105 -0.105)">
       <defs>
        <path id="DejaVuSans-36" d="M 2113 2584 
Q 1688 2584 1439 2293 
Q 1191 2003 1191 1497 
Q 1191 994 1439 701 
Q 1688 409 2113 409 
Q 2538 409 2786 701 
Q 3034 994 3034 1497 
Q 3034 2003 2786 2293 
Q 2538 2584 2113 2584 
z
M 3366 4563 
L 3366 3988 
Q 3128 4100 2886 4159 
Q 2644 4219 2406 4219 
Q 1781 4219 1451 3797 
Q 1122 3375 1075 2522 
Q 1259 2794 1537 2939 
Q 1816 3084 2150 3084 
Q 2853 3084 3261 2657 
Q 3669 2231 3669 1497 
Q 3669 778 3244 343 
Q 2819 -91 2113 -91 
Q 1303 -91 875 529 
Q 447 1150 447 2328 
Q 447 3434 972 4092 
Q 1497 4750 2381 4750 
Q 2619 4750 2861 4703 
Q 3103 4656 3366 4563 
z
" transform="scale(0.015625)"/>
       </defs>
       <use xlink:href="#DejaVuSans-36"/>
      </g>
     </g>
    </g>
    <g id="xtick_5">
     <g id="line2d_5"/>
     <g id="text_5">
      <!-- 8 -->
      <g style="fill: #6f6e69" transform="translate(375.058944 330.330359) scale(0.105 -0.105)">
       <defs>
        <path id="DejaVuSans-38" d="M 2034 2216 
Q 1584 2216 1326 1975 
Q 1069 1734 1069 1313 
Q 1069 891 1326 650 
Q 1584 409 2034 409 
Q 2484 409 2743 651 
Q 3003 894 3003 1313 
Q 3003 1734 2745 1975 
Q 2488 2216 2034 2216 
z
M 1403 2484 
Q 997 2584 770 2862 
Q 544 3141 544 3541 
Q 544 4100 942 4425 
Q 1341 4750 2034 4750 
Q 2731 4750 3128 4425 
Q 3525 4100 3525 3541 
Q 3525 3141 3298 2862 
Q 3072 2584 2669 2484 
Q 3125 2378 3379 2068 
Q 3634 1759 3634 1313 
Q 3634 634 3220 271 
Q 2806 -91 2034 -91 
Q 1263 -91 848 271 
Q 434 634 434 1313 
Q 434 1759 690 2068 
Q 947 2378 1403 2484 
z
M 1172 3481 
Q 1172 3119 1398 2916 
Q 1625 2713 2034 2713 
Q 2441 2713 2670 2916 
Q 2900 3119 2900 3481 
Q 2900 3844 2670 4047 
Q 2441 4250 2034 4250 
Q 1625 4250 1398 4047 
Q 1172 3844 1172 3481 
z
" transform="scale(0.015625)"/>
       </defs>
       <use xlink:href="#DejaVuSans-38"/>
      </g>
     </g>
    </g>
    <g id="text_6">
     <!-- Capital por trabalhador efetivo, $k$ -->
     <g style="fill: #1c1b1a" transform="translate(167.990828 350.494031) scale(0.105 -0.105)">
      <defs>
       <path id="DejaVuSans-43" d="M 4122 4306 
L 4122 3641 
Q 3803 3938 3442 4084 
Q 3081 4231 2675 4231 
Q 1875 4231 1450 3742 
Q 1025 3253 1025 2328 
Q 1025 1406 1450 917 
Q 1875 428 2675 428 
Q 3081 428 3442 575 
Q 3803 722 4122 1019 
L 4122 359 
Q 3791 134 3420 21 
Q 3050 -91 2638 -91 
Q 1578 -91 968 557 
Q 359 1206 359 2328 
Q 359 3453 968 4101 
Q 1578 4750 2638 4750 
Q 3056 4750 3426 4639 
Q 3797 4528 4122 4306 
z
" transform="scale(0.015625)"/>
       <path id="DejaVuSans-61" d="M 2194 1759 
Q 1497 1759 1228 1600 
Q 959 1441 959 1056 
Q 959 750 1161 570 
Q 1363 391 1709 391 
Q 2188 391 2477 730 
Q 2766 1069 2766 1631 
L 2766 1759 
L 2194 1759 
z
M 3341 1997 
L 3341 0 
L 2766 0 
L 2766 531 
Q 2569 213 2275 61 
Q 1981 -91 1556 -91 
Q 1019 -91 701 211 
Q 384 513 384 1019 
Q 384 1609 779 1909 
Q 1175 2209 1959 2209 
L 2766 2209 
L 2766 2266 
Q 2766 2663 2505 2880 
Q 2244 3097 1772 3097 
Q 1472 3097 1187 3025 
Q 903 2953 641 2809 
L 641 3341 
Q 956 3463 1253 3523 
Q 1550 3584 1831 3584 
Q 2591 3584 2966 3190 
Q 3341 2797 3341 1997 
z
" transform="scale(0.015625)"/>
       <path id="DejaVuSans-70" d="M 1159 525 
L 1159 -1331 
L 581 -1331 
L 581 3500 
L 1159 3500 
L 1159 2969 
Q 1341 3281 1617 3432 
Q 1894 3584 2278 3584 
Q 2916 3584 3314 3078 
Q 3713 2572 3713 1747 
Q 3713 922 3314 415 
Q 2916 -91 2278 -91 
Q 1894 -91 1617 61 
Q 1341 213 1159 525 
z
M 3116 1747 
Q 3116 2381 2855 2742 
Q 2594 3103 2138 3103 
Q 1681 3103 1420 2742 
Q 1159 2381 1159 1747 
Q 1159 1113 1420 752 
Q 1681 391 2138 391 
Q 2594 391 2855 752 
Q 3116 1113 3116 1747 
z
" transform="scale(0.015625)"/>
       <path id="DejaVuSans-69" d="M 603 3500 
L 1178 3500 
L 1178 0 
L 603 0 
L 603 3500 
z
M 603 4863 
L 1178 4863 
L 1178 4134 
L 603 4134 
L 603 4863 
z
" transform="scale(0.015625)"/>
       <path id="DejaVuSans-74" d="M 1172 4494 
L 1172 3500 
L 2356 3500 
L 2356 3053 
L 1172 3053 
L 1172 1153 
Q 1172 725 1289 603 
Q 1406 481 1766 481 
L 2356 481 
L 2356 0 
L 1766 0 
Q 1100 0 847 248 
Q 594 497 594 1153 
L 594 3053 
L 172 3053 
L 172 3500 
L 594 3500 
L 594 4494 
L 1172 4494 
z
" transform="scale(0.015625)"/>
       <path id="DejaVuSans-6c" d="M 603 4863 
L 1178 4863 
L 1178 0 
L 603 0 
L 603 4863 
z
" transform="scale(0.015625)"/>
       <path id="DejaVuSans-20" transform="scale(0.015625)"/>
       <path id="DejaVuSans-6f" d="M 1959 3097 
Q 1497 3097 1228 2736 
Q 959 2375 959 1747 
Q 959 1119 1226 758 
Q 1494 397 1959 397 
Q 2419 397 2687 759 
Q 2956 1122 2956 1747 
Q 2956 2369 2687 2733 
Q 2419 3097 1959 3097 
z
M 1959 3584 
Q 2709 3584 3137 3096 
Q 3566 2609 3566 1747 
Q 3566 888 3137 398 
Q 2709 -91 1959 -91 
Q 1206 -91 779 398 
Q 353 888 353 1747 
Q 353 2609 779 3096 
Q 1206 3584 1959 3584 
z
" transform="scale(0.015625)"/>
       <path id="DejaVuSans-72" d="M 2631 2963 
Q 2534 3019 2420 3045 
Q 2306 3072 2169 3072 
Q 1681 3072 1420 2755 
Q 1159 2438 1159 1844 
L 1159 0 
L 581 0 
L 581 3500 
L 1159 3500 
L 1159 2956 
Q 1341 3275 1631 3429 
Q 1922 3584 2338 3584 
Q 2397 3584 2469 3576 
Q 2541 3569 2628 3553 
L 2631 2963 
z
" transform="scale(0.015625)"/>
       <path id="DejaVuSans-62" d="M 3116 1747 
Q 3116 2381 2855 2742 
Q 2594 3103 2138 3103 
Q 1681 3103 1420 2742 
Q 1159 2381 1159 1747 
Q 1159 1113 1420 752 
Q 1681 391 2138 391 
Q 2594 391 2855 752 
Q 3116 1113 3116 1747 
z
M 1159 2969 
Q 1341 3281 1617 3432 
Q 1894 3584 2278 3584 
Q 2916 3584 3314 3078 
Q 3713 2572 3713 1747 
Q 3713 922 3314 415 
Q 2916 -91 2278 -91 
Q 1894 -91 1617 61 
Q 1341 213 1159 525 
L 1159 0 
L 581 0 
L 581 4863 
L 1159 4863 
L 1159 2969 
z
" transform="scale(0.015625)"/>
       <path id="DejaVuSans-68" d="M 3513 2113 
L 3513 0 
L 2938 0 
L 2938 2094 
Q 2938 2591 2744 2837 
Q 2550 3084 2163 3084 
Q 1697 3084 1428 2787 
Q 1159 2491 1159 1978 
L 1159 0 
L 581 0 
L 581 4863 
L 1159 4863 
L 1159 2956 
Q 1366 3272 1645 3428 
Q 1925 3584 2291 3584 
Q 2894 3584 3203 3211 
Q 3513 2838 3513 2113 
z
" transform="scale(0.015625)"/>
       <path id="DejaVuSans-64" d="M 2906 2969 
L 2906 4863 
L 3481 4863 
L 3481 0 
L 2906 0 
L 2906 525 
Q 2725 213 2448 61 
Q 2172 -91 1784 -91 
Q 1150 -91 751 415 
Q 353 922 353 1747 
Q 353 2572 751 3078 
Q 1150 3584 1784 3584 
Q 2172 3584 2448 3432 
Q 2725 3281 2906 2969 
z
M 947 1747 
Q 947 1113 1208 752 
Q 1469 391 1925 391 
Q 2381 391 2643 752 
Q 2906 1113 2906 1747 
Q 2906 2381 2643 2742 
Q 2381 3103 1925 3103 
Q 1469 3103 1208 2742 
Q 947 2381 947 1747 
z
" transform="scale(0.015625)"/>
       <path id="DejaVuSans-65" d="M 3597 1894 
L 3597 1613 
L 953 1613 
Q 991 1019 1311 708 
Q 1631 397 2203 397 
Q 2534 397 2845 478 
Q 3156 559 3463 722 
L 3463 178 
Q 3153 47 2828 -22 
Q 2503 -91 2169 -91 
Q 1331 -91 842 396 
Q 353 884 353 1716 
Q 353 2575 817 3079 
Q 1281 3584 2069 3584 
Q 2775 3584 3186 3129 
Q 3597 2675 3597 1894 
z
M 3022 2063 
Q 3016 2534 2758 2815 
Q 2500 3097 2075 3097 
Q 1594 3097 1305 2825 
Q 1016 2553 972 2059 
L 3022 2063 
z
" transform="scale(0.015625)"/>
       <path id="DejaVuSans-66" d="M 2375 4863 
L 2375 4384 
L 1825 4384 
Q 1516 4384 1395 4259 
Q 1275 4134 1275 3809 
L 1275 3500 
L 2222 3500 
L 2222 3053 
L 1275 3053 
L 1275 0 
L 697 0 
L 697 3053 
L 147 3053 
L 147 3500 
L 697 3500 
L 697 3744 
Q 697 4328 969 4595 
Q 1241 4863 1831 4863 
L 2375 4863 
z
" transform="scale(0.015625)"/>
       <path id="DejaVuSans-76" d="M 191 3500 
L 800 3500 
L 1894 563 
L 2988 3500 
L 3597 3500 
L 2284 0 
L 1503 0 
L 191 3500 
z
" transform="scale(0.015625)"/>
       <path id="DejaVuSans-2c" d="M 750 794 
L 1409 794 
L 1409 256 
L 897 -744 
L 494 -744 
L 750 256 
L 750 794 
z
" transform="scale(0.015625)"/>
       <path id="DejaVuSans-Oblique-6b" d="M 1172 4863 
L 1747 4863 
L 1197 2028 
L 3169 3500 
L 3916 3500 
L 1716 1825 
L 3322 0 
L 2625 0 
L 1131 1709 
L 800 0 
L 225 0 
L 1172 4863 
z
" transform="scale(0.015625)"/>
      </defs>
      <use xlink:href="#DejaVuSans-43" transform="translate(0 0.015625)"/>
      <use xlink:href="#DejaVuSans-61" transform="translate(69.824219 0.015625)"/>
      <use xlink:href="#DejaVuSans-70" transform="translate(131.103516 0.015625)"/>
      <use xlink:href="#DejaVuSans-69" transform="translate(194.580078 0.015625)"/>
      <use xlink:href="#DejaVuSans-74" transform="translate(222.363281 0.015625)"/>
      <use xlink:href="#DejaVuSans-61" transform="translate(261.572266 0.015625)"/>
      <use xlink:href="#DejaVuSans-6c" transform="translate(322.851562 0.015625)"/>
      <use xlink:href="#DejaVuSans-20" transform="translate(350.634766 0.015625)"/>
      <use xlink:href="#DejaVuSans-70" transform="translate(382.421875 0.015625)"/>
      <use xlink:href="#DejaVuSans-6f" transform="translate(445.898438 0.015625)"/>
      <use xlink:href="#DejaVuSans-72" transform="translate(507.080078 0.015625)"/>
      <use xlink:href="#DejaVuSans-20" transform="translate(548.193359 0.015625)"/>
      <use xlink:href="#DejaVuSans-74" transform="translate(579.980469 0.015625)"/>
      <use xlink:href="#DejaVuSans-72" transform="translate(619.189453 0.015625)"/>
      <use xlink:href="#DejaVuSans-61" transform="translate(660.302734 0.015625)"/>
      <use xlink:href="#DejaVuSans-62" transform="translate(721.582031 0.015625)"/>
      <use xlink:href="#DejaVuSans-61" transform="translate(785.058594 0.015625)"/>
      <use xlink:href="#DejaVuSans-6c" transform="translate(846.337891 0.015625)"/>
      <use xlink:href="#DejaVuSans-68" transform="translate(874.121094 0.015625)"/>
      <use xlink:href="#DejaVuSans-61" transform="translate(937.5 0.015625)"/>
      <use xlink:href="#DejaVuSans-64" transform="translate(998.779297 0.015625)"/>
      <use xlink:href="#DejaVuSans-6f" transform="translate(1062.255859 0.015625)"/>
      <use xlink:href="#DejaVuSans-72" transform="translate(1123.4375 0.015625)"/>
      <use xlink:href="#DejaVuSans-20" transform="translate(1164.550781 0.015625)"/>
      <use xlink:href="#DejaVuSans-65" transform="translate(1196.337891 0.015625)"/>
      <use xlink:href="#DejaVuSans-66" transform="translate(1257.861328 0.015625)"/>
      <use xlink:href="#DejaVuSans-65" transform="translate(1293.066406 0.015625)"/>
      <use xlink:href="#DejaVuSans-74" transform="translate(1354.589844 0.015625)"/>
      <use xlink:href="#DejaVuSans-69" transform="translate(1393.798828 0.015625)"/>
      <use xlink:href="#DejaVuSans-76" transform="translate(1421.582031 0.015625)"/>
      <use xlink:href="#DejaVuSans-6f" transform="translate(1480.761719 0.015625)"/>
      <use xlink:href="#DejaVuSans-2c" transform="translate(1541.943359 0.015625)"/>
      <use xlink:href="#DejaVuSans-20" transform="translate(1573.730469 0.015625)"/>
      <use xlink:href="#DejaVuSans-Oblique-6b" transform="translate(1605.517578 0.015625)"/>
     </g>
    </g>
   </g>
   <g id="matplotlib.axis_2">
    <g id="ytick_1">
     <g id="line2d_6">
      <path d="M 57.283281 312.746324 
L 453.418376 312.746324 
" clip-path="url(#p10134bca4e)" style="fill: none; stroke: #cecdc3; stroke-opacity: 0.9; stroke-width: 0.9; stroke-linecap: square"/>
     </g>
     <g id="line2d_7"/>
     <g id="text_7">
      <!-- 0 -->
      <g style="fill: #6f6e69" transform="translate(44.602656 316.735504) scale(0.105 -0.105)">
       <use xlink:href="#DejaVuSans-30"/>
      </g>
     </g>
    </g>
    <g id="ytick_2">
     <g id="line2d_8">
      <path d="M 57.283281 289.199281 
L 453.418376 289.199281 
" clip-path="url(#p10134bca4e)" style="fill: none; stroke: #cecdc3; stroke-opacity: 0.9; stroke-width: 0.9; stroke-linecap: square"/>
     </g>
     <g id="line2d_9"/>
     <g id="text_8">
      <!-- 0,2 -->
      <g style="fill: #6f6e69" transform="translate(34.585 293.18846) scale(0.105 -0.105)">
       <use xlink:href="#DejaVuSans-30"/>
       <use xlink:href="#DejaVuSans-2c" transform="translate(63.623047 0)"/>
       <use xlink:href="#DejaVuSans-32" transform="translate(95.410156 0)"/>
      </g>
     </g>
    </g>
    <g id="ytick_3">
     <g id="line2d_10">
      <path d="M 57.283281 265.652237 
L 453.418376 265.652237 
" clip-path="url(#p10134bca4e)" style="fill: none; stroke: #cecdc3; stroke-opacity: 0.9; stroke-width: 0.9; stroke-linecap: square"/>
     </g>
     <g id="line2d_11"/>
     <g id="text_9">
      <!-- 0,4 -->
      <g style="fill: #6f6e69" transform="translate(34.585 269.641417) scale(0.105 -0.105)">
       <use xlink:href="#DejaVuSans-30"/>
       <use xlink:href="#DejaVuSans-2c" transform="translate(63.623047 0)"/>
       <use xlink:href="#DejaVuSans-34" transform="translate(95.410156 0)"/>
      </g>
     </g>
    </g>
    <g id="ytick_4">
     <g id="line2d_12">
      <path d="M 57.283281 242.105194 
L 453.418376 242.105194 
" clip-path="url(#p10134bca4e)" style="fill: none; stroke: #cecdc3; stroke-opacity: 0.9; stroke-width: 0.9; stroke-linecap: square"/>
     </g>
     <g id="line2d_13"/>
     <g id="text_10">
      <!-- 0,6 -->
      <g style="fill: #6f6e69" transform="translate(34.585 246.094374) scale(0.105 -0.105)">
       <use xlink:href="#DejaVuSans-30"/>
       <use xlink:href="#DejaVuSans-2c" transform="translate(63.623047 0)"/>
       <use xlink:href="#DejaVuSans-36" transform="translate(95.410156 0)"/>
      </g>
     </g>
    </g>
    <g id="ytick_5">
     <g id="line2d_14">
      <path d="M 57.283281 218.558151 
L 453.418376 218.558151 
" clip-path="url(#p10134bca4e)" style="fill: none; stroke: #cecdc3; stroke-opacity: 0.9; stroke-width: 0.9; stroke-linecap: square"/>
     </g>
     <g id="line2d_15"/>
     <g id="text_11">
      <!-- 0,8 -->
      <g style="fill: #6f6e69" transform="translate(34.585 222.54733) scale(0.105 -0.105)">
       <use xlink:href="#DejaVuSans-30"/>
       <use xlink:href="#DejaVuSans-2c" transform="translate(63.623047 0)"/>
       <use xlink:href="#DejaVuSans-38" transform="translate(95.410156 0)"/>
      </g>
     </g>
    </g>
    <g id="ytick_6">
     <g id="line2d_16">
      <path d="M 57.283281 195.011107 
L 453.418376 195.011107 
" clip-path="url(#p10134bca4e)" style="fill: none; stroke: #cecdc3; stroke-opacity: 0.9; stroke-width: 0.9; stroke-linecap: square"/>
     </g>
     <g id="line2d_17"/>
     <g id="text_12">
      <!-- 1 -->
      <g style="fill: #6f6e69" transform="translate(44.602656 199.000287) scale(0.105 -0.105)">
       <defs>
        <path id="DejaVuSans-31" d="M 794 531 
L 1825 531 
L 1825 4091 
L 703 3866 
L 703 4441 
L 1819 4666 
L 2450 4666 
L 2450 531 
L 3481 531 
L 3481 0 
L 794 0 
L 794 531 
z
" transform="scale(0.015625)"/>
       </defs>
       <use xlink:href="#DejaVuSans-31"/>
      </g>
     </g>
    </g>
    <g id="ytick_7">
     <g id="line2d_18">
      <path d="M 57.283281 171.464064 
L 453.418376 171.464064 
" clip-path="url(#p10134bca4e)" style="fill: none; stroke: #cecdc3; stroke-opacity: 0.9; stroke-width: 0.9; stroke-linecap: square"/>
     </g>
     <g id="line2d_19"/>
     <g id="text_13">
      <!-- 1,2 -->
      <g style="fill: #6f6e69" transform="translate(34.585 175.453244) scale(0.105 -0.105)">
       <use xlink:href="#DejaVuSans-31"/>
       <use xlink:href="#DejaVuSans-2c" transform="translate(63.623047 0)"/>
       <use xlink:href="#DejaVuSans-32" transform="translate(95.410156 0)"/>
      </g>
     </g>
    </g>
    <g id="ytick_8">
     <g id="line2d_20">
      <path d="M 57.283281 147.917021 
L 453.418376 147.917021 
" clip-path="url(#p10134bca4e)" style="fill: none; stroke: #cecdc3; stroke-opacity: 0.9; stroke-width: 0.9; stroke-linecap: square"/>
     </g>
     <g id="line2d_21"/>
     <g id="text_14">
      <!-- 1,4 -->
      <g style="fill: #6f6e69" transform="translate(34.585 151.906201) scale(0.105 -0.105)">
       <use xlink:href="#DejaVuSans-31"/>
       <use xlink:href="#DejaVuSans-2c" transform="translate(63.623047 0)"/>
       <use xlink:href="#DejaVuSans-34" transform="translate(95.410156 0)"/>
      </g>
     </g>
    </g>
    <g id="ytick_9">
     <g id="line2d_22">
      <path d="M 57.283281 124.369978 
L 453.418376 124.369978 
" clip-path="url(#p10134bca4e)" style="fill: none; stroke: #cecdc3; stroke-opacity: 0.9; stroke-width: 0.9; stroke-linecap: square"/>
     </g>
     <g id="line2d_23"/>
     <g id="text_15">
      <!-- 1,6 -->
      <g style="fill: #6f6e69" transform="translate(34.585 128.359157) scale(0.105 -0.105)">
       <use xlink:href="#DejaVuSans-31"/>
       <use xlink:href="#DejaVuSans-2c" transform="translate(63.623047 0)"/>
       <use xlink:href="#DejaVuSans-36" transform="translate(95.410156 0)"/>
      </g>
     </g>
    </g>
    <g id="text_16">
     <!-- Consumo por trabalhador efetivo, $c$ -->
     <g style="fill: #1c1b1a" transform="translate(22.38 308.110645) rotate(-90) scale(0.105 -0.105)">
      <defs>
       <path id="DejaVuSans-6e" d="M 3513 2113 
L 3513 0 
L 2938 0 
L 2938 2094 
Q 2938 2591 2744 2837 
Q 2550 3084 2163 3084 
Q 1697 3084 1428 2787 
Q 1159 2491 1159 1978 
L 1159 0 
L 581 0 
L 581 3500 
L 1159 3500 
L 1159 2956 
Q 1366 3272 1645 3428 
Q 1925 3584 2291 3584 
Q 2894 3584 3203 3211 
Q 3513 2838 3513 2113 
z
" transform="scale(0.015625)"/>
       <path id="DejaVuSans-73" d="M 2834 3397 
L 2834 2853 
Q 2591 2978 2328 3040 
Q 2066 3103 1784 3103 
Q 1356 3103 1142 2972 
Q 928 2841 928 2578 
Q 928 2378 1081 2264 
Q 1234 2150 1697 2047 
L 1894 2003 
Q 2506 1872 2764 1633 
Q 3022 1394 3022 966 
Q 3022 478 2636 193 
Q 2250 -91 1575 -91 
Q 1294 -91 989 -36 
Q 684 19 347 128 
L 347 722 
Q 666 556 975 473 
Q 1284 391 1588 391 
Q 1994 391 2212 530 
Q 2431 669 2431 922 
Q 2431 1156 2273 1281 
Q 2116 1406 1581 1522 
L 1381 1569 
Q 847 1681 609 1914 
Q 372 2147 372 2553 
Q 372 3047 722 3315 
Q 1072 3584 1716 3584 
Q 2034 3584 2315 3537 
Q 2597 3491 2834 3397 
z
" transform="scale(0.015625)"/>
       <path id="DejaVuSans-75" d="M 544 1381 
L 544 3500 
L 1119 3500 
L 1119 1403 
Q 1119 906 1312 657 
Q 1506 409 1894 409 
Q 2359 409 2629 706 
Q 2900 1003 2900 1516 
L 2900 3500 
L 3475 3500 
L 3475 0 
L 2900 0 
L 2900 538 
Q 2691 219 2414 64 
Q 2138 -91 1772 -91 
Q 1169 -91 856 284 
Q 544 659 544 1381 
z
M 1991 3584 
L 1991 3584 
z
" transform="scale(0.015625)"/>
       <path id="DejaVuSans-6d" d="M 3328 2828 
Q 3544 3216 3844 3400 
Q 4144 3584 4550 3584 
Q 5097 3584 5394 3201 
Q 5691 2819 5691 2113 
L 5691 0 
L 5113 0 
L 5113 2094 
Q 5113 2597 4934 2840 
Q 4756 3084 4391 3084 
Q 3944 3084 3684 2787 
Q 3425 2491 3425 1978 
L 3425 0 
L 2847 0 
L 2847 2094 
Q 2847 2600 2669 2842 
Q 2491 3084 2119 3084 
Q 1678 3084 1418 2786 
Q 1159 2488 1159 1978 
L 1159 0 
L 581 0 
L 581 3500 
L 1159 3500 
L 1159 2956 
Q 1356 3278 1631 3431 
Q 1906 3584 2284 3584 
Q 2666 3584 2933 3390 
Q 3200 3197 3328 2828 
z
" transform="scale(0.015625)"/>
       <path id="DejaVuSans-Oblique-63" d="M 3431 3366 
L 3316 2797 
Q 3109 2947 2876 3022 
Q 2644 3097 2394 3097 
Q 2119 3097 1870 3000 
Q 1622 2903 1453 2725 
Q 1184 2453 1037 2087 
Q 891 1722 891 1331 
Q 891 859 1127 628 
Q 1363 397 1844 397 
Q 2081 397 2348 469 
Q 2616 541 2906 684 
L 2797 116 
Q 2547 13 2283 -39 
Q 2019 -91 1741 -91 
Q 1044 -91 669 257 
Q 294 606 294 1253 
Q 294 1797 489 2255 
Q 684 2713 1069 3078 
Q 1331 3328 1684 3456 
Q 2038 3584 2456 3584 
Q 2700 3584 2940 3529 
Q 3181 3475 3431 3366 
z
" transform="scale(0.015625)"/>
      </defs>
      <use xlink:href="#DejaVuSans-43" transform="translate(0 0.015625)"/>
      <use xlink:href="#DejaVuSans-6f" transform="translate(69.824219 0.015625)"/>
      <use xlink:href="#DejaVuSans-6e" transform="translate(131.005859 0.015625)"/>
      <use xlink:href="#DejaVuSans-73" transform="translate(194.384766 0.015625)"/>
      <use xlink:href="#DejaVuSans-75" transform="translate(246.484375 0.015625)"/>
      <use xlink:href="#DejaVuSans-6d" transform="translate(309.863281 0.015625)"/>
      <use xlink:href="#DejaVuSans-6f" transform="translate(407.275391 0.015625)"/>
      <use xlink:href="#DejaVuSans-20" transform="translate(468.457031 0.015625)"/>
      <use xlink:href="#DejaVuSans-70" transform="translate(500.244141 0.015625)"/>
      <use xlink:href="#DejaVuSans-6f" transform="translate(563.720703 0.015625)"/>
      <use xlink:href="#DejaVuSans-72" transform="translate(624.902344 0.015625)"/>
      <use xlink:href="#DejaVuSans-20" transform="translate(666.015625 0.015625)"/>
      <use xlink:href="#DejaVuSans-74" transform="translate(697.802734 0.015625)"/>
      <use xlink:href="#DejaVuSans-72" transform="translate(737.011719 0.015625)"/>
      <use xlink:href="#DejaVuSans-61" transform="translate(778.125 0.015625)"/>
      <use xlink:href="#DejaVuSans-62" transform="translate(839.404297 0.015625)"/>
      <use xlink:href="#DejaVuSans-61" transform="translate(902.880859 0.015625)"/>
      <use xlink:href="#DejaVuSans-6c" transform="translate(964.160156 0.015625)"/>
      <use xlink:href="#DejaVuSans-68" transform="translate(991.943359 0.015625)"/>
      <use xlink:href="#DejaVuSans-61" transform="translate(1055.322266 0.015625)"/>
      <use xlink:href="#DejaVuSans-64" transform="translate(1116.601562 0.015625)"/>
      <use xlink:href="#DejaVuSans-6f" transform="translate(1180.078125 0.015625)"/>
      <use xlink:href="#DejaVuSans-72" transform="translate(1241.259766 0.015625)"/>
      <use xlink:href="#DejaVuSans-20" transform="translate(1282.373047 0.015625)"/>
      <use xlink:href="#DejaVuSans-65" transform="translate(1314.160156 0.015625)"/>
      <use xlink:href="#DejaVuSans-66" transform="translate(1375.683594 0.015625)"/>
      <use xlink:href="#DejaVuSans-65" transform="translate(1410.888672 0.015625)"/>
      <use xlink:href="#DejaVuSans-74" transform="translate(1472.412109 0.015625)"/>
      <use xlink:href="#DejaVuSans-69" transform="translate(1511.621094 0.015625)"/>
      <use xlink:href="#DejaVuSans-76" transform="translate(1539.404297 0.015625)"/>
      <use xlink:href="#DejaVuSans-6f" transform="translate(1598.583984 0.015625)"/>
      <use xlink:href="#DejaVuSans-2c" transform="translate(1659.765625 0.015625)"/>
      <use xlink:href="#DejaVuSans-20" transform="translate(1691.552734 0.015625)"/>
      <use xlink:href="#DejaVuSans-Oblique-63" transform="translate(1723.339844 0.015625)"/>
     </g>
    </g>
   </g>
   <g id="line2d_24">
    <path d="M 75.289422 307.112104 
L 76.572836 274.502504 
L 77.856251 264.933688 
L 79.139666 258.324977 
L 80.42308 253.133863 
L 81.706495 248.803134 
L 82.989909 245.060147 
L 84.273324 241.748683 
L 86.840153 236.056878 
L 89.406982 231.249584 
L 91.973811 227.071052 
L 94.540641 223.366554 
L 97.10747 220.034515 
L 99.674299 217.004245 
L 102.241128 214.224338 
L 106.091372 210.441745 
L 109.941615 207.041169 
L 113.791859 203.954018 
L 117.642103 201.129497 
L 121.492347 198.528818 
L 126.626005 195.357873 
L 131.759663 192.475723 
L 136.893321 189.839718 
L 142.02698 187.416464 
L 148.444053 184.646411 
L 154.861125 182.125922 
L 161.278198 179.822208 
L 168.978686 177.307075 
L 176.679173 175.029606 
L 185.663075 172.633969 
L 194.646977 170.484356 
L 203.630879 168.550552 
L 213.898196 166.573281 
L 224.165512 164.81558 
L 235.716244 163.069974 
L 247.266975 161.542045 
L 260.10112 160.070704 
L 274.218681 158.696361 
L 288.336241 157.549045 
L 303.737216 156.527545 
L 320.421605 155.662145 
L 337.105995 155.020434 
L 355.073799 154.55284 
L 374.325017 154.282084 
L 394.859651 154.228231 
L 394.859651 154.228231 
" clip-path="url(#p10134bca4e)" style="fill: none; stroke: #4385be; stroke-width: 2.2; stroke-linecap: square"/>
   </g>
   <g id="line2d_25">
    <path d="M 75.289422 307.112104 
L 76.735698 272.996654 
L 78.181975 263.069086 
L 79.628251 256.221626 
L 81.074527 250.849054 
L 82.520804 246.371594 
L 83.96708 242.505579 
L 85.413356 239.088481 
L 86.859633 236.017482 
L 89.752185 230.655185 
L 92.644738 226.061825 
L 95.537291 222.032969 
L 98.429844 218.4393 
L 101.322396 215.193219 
L 104.214949 212.232318 
L 107.107502 209.510381 
L 111.446331 205.800492 
L 115.78516 202.461635 
L 120.123989 199.429502 
L 124.462818 196.655948 
L 128.801647 194.103879 
L 134.586753 190.995947 
L 140.371858 188.176241 
L 146.156963 185.603116 
L 151.942069 183.243788 
L 159.173451 180.55565 
L 166.404832 178.119658 
L 173.636214 175.903199 
L 182.313872 173.496473 
L 190.991531 171.3314 
L 199.669189 169.378406 
L 209.793123 167.335935 
L 219.917058 165.517953 
L 231.487269 163.682411 
L 243.057479 162.075272 
L 256.073967 160.508369 
L 269.090454 159.167898 
L 283.553217 157.913945 
L 298.015981 156.880676 
L 313.925021 155.971097 
L 331.280337 155.220628 
L 348.635654 154.695296 
L 367.437246 154.353197 
L 387.685115 154.221106 
L 407.932984 154.308728 
L 429.62713 154.621599 
L 435.412235 154.740395 
L 435.412235 154.740395 
" clip-path="url(#p10134bca4e)" style="fill: none; stroke: #da702c; stroke-width: 2.2; stroke-linecap: square"/>
   </g>
   <g id="line2d_26">
    <path d="M 227.463737 316.352 
L 227.463737 113.074291 
" clip-path="url(#p10134bca4e)" style="fill: none; stroke-dasharray: 4.625,2; stroke-dashoffset: 0; stroke: #4385be; stroke-opacity: 0.85; stroke-width: 1.25"/>
   </g>
   <g id="line2d_27">
    <path d="M 246.774491 316.352 
L 246.774491 113.074291 
" clip-path="url(#p10134bca4e)" style="fill: none; stroke-dasharray: 4.625,2; stroke-dashoffset: 0; stroke: #da702c; stroke-opacity: 0.85; stroke-width: 1.25"/>
   </g>
   <g id="line2d_28">
    <path d="M 143.76578 209.010217 
L 180.288524 187.358539 
L 216.811269 169.162743 
L 253.334014 153.096895 
L 289.856759 138.510833 
L 326.379504 125.029098 
" clip-path="url(#p10134bca4e)" style="fill: none; stroke: #4385be; stroke-width: 2; stroke-linecap: square"/>
   </g>
   <g id="line2d_29">
    <path d="M 152.455619 206.615812 
L 193.612945 184.780432 
L 234.770271 166.489564 
L 275.927597 150.379774 
L 317.084923 135.783125 
L 358.242249 122.314187 
" clip-path="url(#p10134bca4e)" style="fill: none; stroke: #100f0f; stroke-width: 2.25; stroke-linecap: square"/>
   </g>
   <g id="patch_3">
    <path d="M 57.283281 316.352 
L 57.283281 113.074291 
" style="fill: none; stroke: #cecdc3; stroke-width: 0.8; stroke-linejoin: miter; stroke-linecap: square"/>
   </g>
   <g id="patch_4">
    <path d="M 57.283281 316.352 
L 453.418376 316.352 
" style="fill: none; stroke: #cecdc3; stroke-width: 0.8; stroke-linejoin: miter; stroke-linecap: square"/>
   </g>
   <g id="text_17">
    <g id="patch_5">
     <path d="M 348.920824 146.037023 
L 403.722824 146.037023 
Q 404.850824 146.037023 404.850824 144.909023 
L 404.850824 132.971023 
Q 404.850824 131.843023 403.722824 131.843023 
L 348.920824 131.843023 
Q 347.792824 131.843023 347.792824 132.971023 
L 347.792824 144.909023 
Q 347.792824 146.037023 348.920824 146.037023 
z
" style="fill: #fffcf0; opacity: 0.96"/>
    </g>
    <!-- $\dot{k}=0$ inicial -->
    <g style="fill: #4385be" transform="translate(349.672824 142.202117) scale(0.094 -0.094)">
     <defs>
      <path id="DejaVuSans-307" d="M -1894 4863 
L -1319 4863 
L -1319 4134 
L -1894 4134 
L -1894 4863 
z
M -1600 3584 
L -1600 3584 
z
" transform="scale(0.015625)"/>
      <path id="DejaVuSans-3d" d="M 678 2906 
L 4684 2906 
L 4684 2381 
L 678 2381 
L 678 2906 
z
M 678 1631 
L 4684 1631 
L 4684 1100 
L 678 1100 
L 678 1631 
z
" transform="scale(0.015625)"/>
      <path id="DejaVuSans-63" d="M 3122 3366 
L 3122 2828 
Q 2878 2963 2633 3030 
Q 2388 3097 2138 3097 
Q 1578 3097 1268 2742 
Q 959 2388 959 1747 
Q 959 1106 1268 751 
Q 1578 397 2138 397 
Q 2388 397 2633 464 
Q 2878 531 3122 666 
L 3122 134 
Q 2881 22 2623 -34 
Q 2366 -91 2075 -91 
Q 1284 -91 818 406 
Q 353 903 353 1747 
Q 353 2603 823 3093 
Q 1294 3584 2113 3584 
Q 2378 3584 2631 3529 
Q 2884 3475 3122 3366 
z
" transform="scale(0.015625)"/>
     </defs>
     <use xlink:href="#DejaVuSans-307" transform="translate(61.071289 33.015625)"/>
     <use xlink:href="#DejaVuSans-Oblique-6b" transform="translate(0 0.53125)"/>
     <use xlink:href="#DejaVuSans-3d" transform="translate(77.392578 0.53125)"/>
     <use xlink:href="#DejaVuSans-30" transform="translate(180.664062 0.53125)"/>
     <use xlink:href="#DejaVuSans-20" transform="translate(244.287109 0.53125)"/>
     <use xlink:href="#DejaVuSans-69" transform="translate(276.074219 0.53125)"/>
     <use xlink:href="#DejaVuSans-6e" transform="translate(303.857422 0.53125)"/>
     <use xlink:href="#DejaVuSans-69" transform="translate(367.236328 0.53125)"/>
     <use xlink:href="#DejaVuSans-63" transform="translate(395.019531 0.53125)"/>
     <use xlink:href="#DejaVuSans-69" transform="translate(450 0.53125)"/>
     <use xlink:href="#DejaVuSans-61" transform="translate(477.783203 0.53125)"/>
     <use xlink:href="#DejaVuSans-6c" transform="translate(539.0625 0.53125)"/>
    </g>
   </g>
   <g id="text_18">
    <g id="patch_6">
     <path d="M 376.685246 180.343197 
L 482.717246 180.343197 
Q 483.845246 180.343197 483.845246 179.215197 
L 483.845246 165.491197 
Q 483.845246 164.363197 482.717246 164.363197 
L 376.685246 164.363197 
Q 375.557246 164.363197 375.557246 165.491197 
L 375.557246 179.215197 
Q 375.557246 180.343197 376.685246 180.343197 
z
" style="fill: #fffcf0; opacity: 0.96"/>
    </g>
    <!-- $\dot{k}=0$ após queda de $\rho$ -->
    <g style="fill: #da702c" transform="translate(377.437246 176.489197) scale(0.094 -0.094)">
     <defs>
      <path id="DejaVuSans-f3" d="M 1959 3097 
Q 1497 3097 1228 2736 
Q 959 2375 959 1747 
Q 959 1119 1226 758 
Q 1494 397 1959 397 
Q 2419 397 2687 759 
Q 2956 1122 2956 1747 
Q 2956 2369 2687 2733 
Q 2419 3097 1959 3097 
z
M 1959 3584 
Q 2709 3584 3137 3096 
Q 3566 2609 3566 1747 
Q 3566 888 3137 398 
Q 2709 -91 1959 -91 
Q 1206 -91 779 398 
Q 353 888 353 1747 
Q 353 2609 779 3096 
Q 1206 3584 1959 3584 
z
M 2394 5119 
L 3016 5119 
L 1998 3944 
L 1519 3944 
L 2394 5119 
z
" transform="scale(0.015625)"/>
      <path id="DejaVuSans-71" d="M 947 1747 
Q 947 1113 1208 752 
Q 1469 391 1925 391 
Q 2381 391 2643 752 
Q 2906 1113 2906 1747 
Q 2906 2381 2643 2742 
Q 2381 3103 1925 3103 
Q 1469 3103 1208 2742 
Q 947 2381 947 1747 
z
M 2906 525 
Q 2725 213 2448 61 
Q 2172 -91 1784 -91 
Q 1150 -91 751 415 
Q 353 922 353 1747 
Q 353 2572 751 3078 
Q 1150 3584 1784 3584 
Q 2172 3584 2448 3432 
Q 2725 3281 2906 2969 
L 2906 3500 
L 3481 3500 
L 3481 -1331 
L 2906 -1331 
L 2906 525 
z
" transform="scale(0.015625)"/>
      <path id="DejaVuSans-Oblique-3c1" d="M 1203 2875 
Q 1453 3194 1981 3475 
Q 2188 3584 2756 3584 
Q 3394 3584 3694 3078 
Q 3994 2572 3834 1747 
Q 3672 922 3175 415 
Q 2678 -91 2041 -91 
Q 1656 -91 1409 63 
Q 1163 213 1044 525 
L 681 -1331 
L 103 -1331 
L 697 1716 
Q 838 2438 1203 2875 
z
M 3238 1747 
Q 3359 2381 3169 2744 
Q 2978 3103 2522 3103 
Q 2066 3103 1734 2744 
Q 1403 2381 1281 1747 
Q 1156 1113 1347 750 
Q 1538 391 1994 391 
Q 2450 391 2781 750 
Q 3113 1113 3238 1747 
z
" transform="scale(0.015625)"/>
     </defs>
     <use xlink:href="#DejaVuSans-307" transform="translate(61.071289 33.015625)"/>
     <use xlink:href="#DejaVuSans-Oblique-6b" transform="translate(0 0.53125)"/>
     <use xlink:href="#DejaVuSans-3d" transform="translate(77.392578 0.53125)"/>
     <use xlink:href="#DejaVuSans-30" transform="translate(180.664062 0.53125)"/>
     <use xlink:href="#DejaVuSans-20" transform="translate(244.287109 0.53125)"/>
     <use xlink:href="#DejaVuSans-61" transform="translate(276.074219 0.53125)"/>
     <use xlink:href="#DejaVuSans-70" transform="translate(337.353516 0.53125)"/>
     <use xlink:href="#DejaVuSans-f3" transform="translate(400.830078 0.53125)"/>
     <use xlink:href="#DejaVuSans-73" transform="translate(462.011719 0.53125)"/>
     <use xlink:href="#DejaVuSans-20" transform="translate(514.111328 0.53125)"/>
     <use xlink:href="#DejaVuSans-71" transform="translate(545.898438 0.53125)"/>
     <use xlink:href="#DejaVuSans-75" transform="translate(609.375 0.53125)"/>
     <use xlink:href="#DejaVuSans-65" transform="translate(672.753906 0.53125)"/>
     <use xlink:href="#DejaVuSans-64" transform="translate(734.277344 0.53125)"/>
     <use xlink:href="#DejaVuSans-61" transform="translate(797.753906 0.53125)"/>
     <use xlink:href="#DejaVuSans-20" transform="translate(859.033203 0.53125)"/>
     <use xlink:href="#DejaVuSans-64" transform="translate(890.820312 0.53125)"/>
     <use xlink:href="#DejaVuSans-65" transform="translate(954.296875 0.53125)"/>
     <use xlink:href="#DejaVuSans-20" transform="translate(1015.820312 0.53125)"/>
     <use xlink:href="#DejaVuSans-Oblique-3c1" transform="translate(1047.607422 0.53125)"/>
    </g>
   </g>
   <g id="patch_7">
    <path d="M 162.610566 175.100548 
Q 187.724375 172.349275 212.838183 169.598003 
" style="fill: none; opacity: 0.75; stroke: #4385be; stroke-width: 0.9; stroke-linecap: round"/>
   </g>
   <g id="text_19">
    <g id="patch_8">
     <path d="M 89.529863 185.497899 
L 161.531269 185.497899 
Q 162.611269 185.497899 162.611269 184.417899 
L 162.611269 173.907586 
Q 162.611269 172.827586 161.531269 172.827586 
L 89.529863 172.827586 
Q 88.449863 172.827586 88.449863 173.907586 
L 88.449863 184.417899 
Q 88.449863 185.497899 89.529863 185.497899 
z
" style="fill: #fffcf0; opacity: 0.96"/>
    </g>
    <!-- trajetória inicial -->
    <g style="fill: #4385be" transform="translate(90.249863 181.82618) scale(0.09 -0.09)">
     <defs>
      <path id="DejaVuSans-6a" d="M 603 3500 
L 1178 3500 
L 1178 -63 
Q 1178 -731 923 -1031 
Q 669 -1331 103 -1331 
L -116 -1331 
L -116 -844 
L 38 -844 
Q 366 -844 484 -692 
Q 603 -541 603 -63 
L 603 3500 
z
M 603 4863 
L 1178 4863 
L 1178 4134 
L 603 4134 
L 603 4863 
z
" transform="scale(0.015625)"/>
     </defs>
     <use xlink:href="#DejaVuSans-74"/>
     <use xlink:href="#DejaVuSans-72" transform="translate(39.208984 0)"/>
     <use xlink:href="#DejaVuSans-61" transform="translate(80.322266 0)"/>
     <use xlink:href="#DejaVuSans-6a" transform="translate(141.601562 0)"/>
     <use xlink:href="#DejaVuSans-65" transform="translate(169.384766 0)"/>
     <use xlink:href="#DejaVuSans-74" transform="translate(230.908203 0)"/>
     <use xlink:href="#DejaVuSans-f3" transform="translate(270.117188 0)"/>
     <use xlink:href="#DejaVuSans-72" transform="translate(331.298828 0)"/>
     <use xlink:href="#DejaVuSans-69" transform="translate(372.412109 0)"/>
     <use xlink:href="#DejaVuSans-61" transform="translate(400.195312 0)"/>
     <use xlink:href="#DejaVuSans-20" transform="translate(461.474609 0)"/>
     <use xlink:href="#DejaVuSans-69" transform="translate(493.261719 0)"/>
     <use xlink:href="#DejaVuSans-6e" transform="translate(521.044922 0)"/>
     <use xlink:href="#DejaVuSans-69" transform="translate(584.423828 0)"/>
     <use xlink:href="#DejaVuSans-63" transform="translate(612.207031 0)"/>
     <use xlink:href="#DejaVuSans-69" transform="translate(667.1875 0)"/>
     <use xlink:href="#DejaVuSans-61" transform="translate(694.970703 0)"/>
     <use xlink:href="#DejaVuSans-6c" transform="translate(756.25 0)"/>
    </g>
   </g>
   <g id="patch_9">
    <path d="M 312.779095 134.995619 
Q 296.19997 141.916798 279.620844 148.837978 
" style="fill: none; opacity: 0.75; stroke: #100f0f; stroke-width: 0.9; stroke-linecap: round"/>
   </g>
   <g id="text_20">
    <g id="patch_10">
     <path d="M 293.175597 134.996493 
L 364.078034 134.996493 
Q 365.206034 134.996493 365.206034 133.868493 
L 365.206034 122.891055 
Q 365.206034 121.763055 364.078034 121.763055 
L 293.175597 121.763055 
Q 292.047597 121.763055 292.047597 122.891055 
L 292.047597 133.868493 
Q 292.047597 134.996493 293.175597 134.996493 
z
" style="fill: #fffcf0; opacity: 0.96"/>
    </g>
    <!-- nova trajetória -->
    <g style="fill: #1c1b1a" transform="translate(293.927597 131.161586) scale(0.094 -0.094)">
     <use xlink:href="#DejaVuSans-6e"/>
     <use xlink:href="#DejaVuSans-6f" transform="translate(63.378906 0)"/>
     <use xlink:href="#DejaVuSans-76" transform="translate(124.560547 0)"/>
     <use xlink:href="#DejaVuSans-61" transform="translate(183.740234 0)"/>
     <use xlink:href="#DejaVuSans-20" transform="translate(245.019531 0)"/>
     <use xlink:href="#DejaVuSans-74" transform="translate(276.806641 0)"/>
     <use xlink:href="#DejaVuSans-72" transform="translate(316.015625 0)"/>
     <use xlink:href="#DejaVuSans-61" transform="translate(357.128906 0)"/>
     <use xlink:href="#DejaVuSans-6a" transform="translate(418.408203 0)"/>
     <use xlink:href="#DejaVuSans-65" transform="translate(446.191406 0)"/>
     <use xlink:href="#DejaVuSans-74" transform="translate(507.714844 0)"/>
     <use xlink:href="#DejaVuSans-f3" transform="translate(546.923828 0)"/>
     <use xlink:href="#DejaVuSans-72" transform="translate(608.105469 0)"/>
     <use xlink:href="#DejaVuSans-69" transform="translate(649.21875 0)"/>
     <use xlink:href="#DejaVuSans-61" transform="translate(677.001953 0)"/>
    </g>
   </g>
   <g id="patch_11">
    <path d="M 167.262113 150.264908 
Q 195.413647 156.824901 223.565182 163.384893 
" style="fill: none; opacity: 0.75; stroke: #4385be; stroke-width: 0.9; stroke-linecap: round"/>
   </g>
   <g id="text_21">
    <g id="patch_12">
     <path d="M 134.253424 157.487523 
L 166.183737 157.487523 
Q 167.263737 157.487523 167.263737 156.407523 
L 167.263737 136.179179 
Q 167.263737 135.099179 166.183737 135.099179 
L 134.253424 135.099179 
Q 133.173424 135.099179 133.173424 136.179179 
L 133.173424 156.407523 
Q 133.173424 157.487523 134.253424 157.487523 
z
" style="fill: #fffcf0; opacity: 0.96"/>
    </g>
    <!-- estado -->
    <g style="fill: #4385be" transform="translate(134.973424 143.737773) scale(0.09 -0.09)">
     <use xlink:href="#DejaVuSans-65"/>
     <use xlink:href="#DejaVuSans-73" transform="translate(61.523438 0)"/>
     <use xlink:href="#DejaVuSans-74" transform="translate(113.623047 0)"/>
     <use xlink:href="#DejaVuSans-61" transform="translate(152.832031 0)"/>
     <use xlink:href="#DejaVuSans-64" transform="translate(214.111328 0)"/>
     <use xlink:href="#DejaVuSans-6f" transform="translate(277.587891 0)"/>
    </g>
    <!-- inicial -->
    <g style="fill: #4385be" transform="translate(139.29483 153.815804) scale(0.09 -0.09)">
     <use xlink:href="#DejaVuSans-69"/>
     <use xlink:href="#DejaVuSans-6e" transform="translate(27.783203 0)"/>
     <use xlink:href="#DejaVuSans-69" transform="translate(91.162109 0)"/>
     <use xlink:href="#DejaVuSans-63" transform="translate(118.945312 0)"/>
     <use xlink:href="#DejaVuSans-69" transform="translate(173.925781 0)"/>
     <use xlink:href="#DejaVuSans-61" transform="translate(201.708984 0)"/>
     <use xlink:href="#DejaVuSans-6c" transform="translate(262.988281 0)"/>
    </g>
   </g>
   <g id="patch_13">
    <path d="M 260.974408 156.149468 
Q 255.741309 158.15929 250.508209 160.169112 
" style="fill: none; opacity: 0.75; stroke: #da702c; stroke-width: 0.9; stroke-linecap: round"/>
   </g>
   <g id="text_22">
    <g id="patch_14">
     <path d="M 262.054491 160.797254 
L 293.984804 160.797254 
Q 295.064804 160.797254 295.064804 159.717254 
L 295.064804 139.48891 
Q 295.064804 138.40891 293.984804 138.40891 
L 262.054491 138.40891 
Q 260.974491 138.40891 260.974491 139.48891 
L 260.974491 159.717254 
Q 260.974491 160.797254 262.054491 160.797254 
z
" style="fill: #fffcf0; opacity: 0.96"/>
    </g>
    <!-- novo -->
    <g style="fill: #da702c" transform="translate(262.774491 147.047504) scale(0.09 -0.09)">
     <use xlink:href="#DejaVuSans-6e"/>
     <use xlink:href="#DejaVuSans-6f" transform="translate(63.378906 0)"/>
     <use xlink:href="#DejaVuSans-76" transform="translate(124.560547 0)"/>
     <use xlink:href="#DejaVuSans-6f" transform="translate(183.740234 0)"/>
    </g>
    <!-- estado -->
    <g style="fill: #da702c" transform="translate(262.774491 157.125535) scale(0.09 -0.09)">
     <use xlink:href="#DejaVuSans-65"/>
     <use xlink:href="#DejaVuSans-73" transform="translate(61.523438 0)"/>
     <use xlink:href="#DejaVuSans-74" transform="translate(113.623047 0)"/>
     <use xlink:href="#DejaVuSans-61" transform="translate(152.832031 0)"/>
     <use xlink:href="#DejaVuSans-64" transform="translate(214.111328 0)"/>
     <use xlink:href="#DejaVuSans-6f" transform="translate(277.587891 0)"/>
    </g>
   </g>
   <g id="PathCollection_1">
    <defs>
     <path id="C0_0_91098378cc" d="M 0 3.24037 
C 0.859356 3.24037 1.683631 2.898944 2.291288 2.291288 
C 2.898944 1.683631 3.24037 0.859356 3.24037 -0 
C 3.24037 -0.859356 2.898944 -1.683631 2.291288 -2.291288 
C 1.683631 -2.898944 0.859356 -3.24037 0 -3.24037 
C -0.859356 -3.24037 -1.683631 -2.898944 -2.291288 -2.291288 
C -2.898944 -1.683631 -3.24037 -0.859356 -3.24037 0 
C -3.24037 0.859356 -2.898944 1.683631 -2.291288 2.291288 
C -1.683631 2.898944 -0.859356 3.24037 0 3.24037 
z
"/>
    </defs>
    <g clip-path="url(#p10134bca4e)">
     <use xlink:href="#C0_0_91098378cc" x="227.463737" y="164.293351" style="fill: #4385be; stroke: #fffcf0; stroke-width: 0.8"/>
    </g>
    <g clip-path="url(#p10134bca4e)">
     <use xlink:href="#C0_0_91098378cc" x="246.774491" y="161.603082" style="fill: #da702c; stroke: #fffcf0; stroke-width: 0.8"/>
    </g>
   </g>
  </g>
  <g id="axes_2">
   <g id="patch_15">
    <path d="M 547.521434 316.352 
L 943.656528 316.352 
L 943.656528 113.074291 
L 547.521434 113.074291 
z
" style="fill: #fffcf0"/>
   </g>
   <g id="matplotlib.axis_3">
    <g id="xtick_6">
     <g id="line2d_30"/>
     <g id="text_23">
      <!-- 0 -->
      <g style="fill: #6f6e69" transform="translate(582.516775 330.330359) scale(0.105 -0.105)">
       <use xlink:href="#DejaVuSans-30"/>
      </g>
     </g>
    </g>
    <g id="xtick_7">
     <g id="line2d_31"/>
     <g id="text_24">
      <!-- 20 -->
      <g style="fill: #6f6e69" transform="translate(659.042409 330.330359) scale(0.105 -0.105)">
       <use xlink:href="#DejaVuSans-32"/>
       <use xlink:href="#DejaVuSans-30" transform="translate(63.623047 0)"/>
      </g>
     </g>
    </g>
    <g id="xtick_8">
     <g id="line2d_32"/>
     <g id="text_25">
      <!-- 40 -->
      <g style="fill: #6f6e69" transform="translate(738.908356 330.330359) scale(0.105 -0.105)">
       <use xlink:href="#DejaVuSans-34"/>
       <use xlink:href="#DejaVuSans-30" transform="translate(63.623047 0)"/>
      </g>
     </g>
    </g>
    <g id="xtick_9">
     <g id="line2d_33"/>
     <g id="text_26">
      <!-- 60 -->
      <g style="fill: #6f6e69" transform="translate(818.774302 330.330359) scale(0.105 -0.105)">
       <use xlink:href="#DejaVuSans-36"/>
       <use xlink:href="#DejaVuSans-30" transform="translate(63.623047 0)"/>
      </g>
     </g>
    </g>
    <g id="xtick_10">
     <g id="line2d_34"/>
     <g id="text_27">
      <!-- 80 -->
      <g style="fill: #6f6e69" transform="translate(898.640249 330.330359) scale(0.105 -0.105)">
       <use xlink:href="#DejaVuSans-38"/>
       <use xlink:href="#DejaVuSans-30" transform="translate(63.623047 0)"/>
      </g>
     </g>
    </g>
    <g id="text_28">
     <!-- Tempo -->
     <g style="fill: #1c1b1a" transform="translate(728.385387 350.492391) scale(0.105 -0.105)">
      <defs>
       <path id="DejaVuSans-54" d="M -19 4666 
L 3928 4666 
L 3928 4134 
L 2272 4134 
L 2272 0 
L 1638 0 
L 1638 4134 
L -19 4134 
L -19 4666 
z
" transform="scale(0.015625)"/>
      </defs>
      <use xlink:href="#DejaVuSans-54"/>
      <use xlink:href="#DejaVuSans-65" transform="translate(44.083984 0)"/>
      <use xlink:href="#DejaVuSans-6d" transform="translate(105.607422 0)"/>
      <use xlink:href="#DejaVuSans-70" transform="translate(203.019531 0)"/>
      <use xlink:href="#DejaVuSans-6f" transform="translate(266.496094 0)"/>
     </g>
    </g>
   </g>
   <g id="matplotlib.axis_4">
    <g id="ytick_10">
     <g id="line2d_35">
      <path d="M 547.521434 291.271914 
L 943.656528 291.271914 
" clip-path="url(#p54576b944c)" style="fill: none; stroke: #cecdc3; stroke-opacity: 0.9; stroke-width: 0.9; stroke-linecap: square"/>
     </g>
     <g id="line2d_36"/>
     <g id="text_29">
      <!-- 1,5 -->
      <g style="fill: #6f6e69" transform="translate(524.823152 295.261093) scale(0.105 -0.105)">
       <defs>
        <path id="DejaVuSans-35" d="M 691 4666 
L 3169 4666 
L 3169 4134 
L 1269 4134 
L 1269 2991 
Q 1406 3038 1543 3061 
Q 1681 3084 1819 3084 
Q 2600 3084 3056 2656 
Q 3513 2228 3513 1497 
Q 3513 744 3044 326 
Q 2575 -91 1722 -91 
Q 1428 -91 1123 -41 
Q 819 9 494 109 
L 494 744 
Q 775 591 1075 516 
Q 1375 441 1709 441 
Q 2250 441 2565 725 
Q 2881 1009 2881 1497 
Q 2881 1984 2565 2268 
Q 2250 2553 1709 2553 
Q 1456 2553 1204 2497 
Q 953 2441 691 2322 
L 691 4666 
z
" transform="scale(0.015625)"/>
       </defs>
       <use xlink:href="#DejaVuSans-31"/>
       <use xlink:href="#DejaVuSans-2c" transform="translate(63.623047 0)"/>
       <use xlink:href="#DejaVuSans-35" transform="translate(95.410156 0)"/>
      </g>
     </g>
    </g>
    <g id="ytick_11">
     <g id="line2d_37">
      <path d="M 547.521434 263.355236 
L 943.656528 263.355236 
" clip-path="url(#p54576b944c)" style="fill: none; stroke: #cecdc3; stroke-opacity: 0.9; stroke-width: 0.9; stroke-linecap: square"/>
     </g>
     <g id="line2d_38"/>
     <g id="text_30">
      <!-- 2 -->
      <g style="fill: #6f6e69" transform="translate(534.840809 267.344416) scale(0.105 -0.105)">
       <use xlink:href="#DejaVuSans-32"/>
      </g>
     </g>
    </g>
    <g id="ytick_12">
     <g id="line2d_39">
      <path d="M 547.521434 235.438559 
L 943.656528 235.438559 
" clip-path="url(#p54576b944c)" style="fill: none; stroke: #cecdc3; stroke-opacity: 0.9; stroke-width: 0.9; stroke-linecap: square"/>
     </g>
     <g id="line2d_40"/>
     <g id="text_31">
      <!-- 2,5 -->
      <g style="fill: #6f6e69" transform="translate(524.823152 239.427739) scale(0.105 -0.105)">
       <use xlink:href="#DejaVuSans-32"/>
       <use xlink:href="#DejaVuSans-2c" transform="translate(63.623047 0)"/>
       <use xlink:href="#DejaVuSans-35" transform="translate(95.410156 0)"/>
      </g>
     </g>
    </g>
    <g id="ytick_13">
     <g id="line2d_41">
      <path d="M 547.521434 207.521882 
L 943.656528 207.521882 
" clip-path="url(#p54576b944c)" style="fill: none; stroke: #cecdc3; stroke-opacity: 0.9; stroke-width: 0.9; stroke-linecap: square"/>
     </g>
     <g id="line2d_42"/>
     <g id="text_32">
      <!-- 3 -->
      <g style="fill: #6f6e69" transform="translate(534.840809 211.511062) scale(0.105 -0.105)">
       <defs>
        <path id="DejaVuSans-33" d="M 2597 2516 
Q 3050 2419 3304 2112 
Q 3559 1806 3559 1356 
Q 3559 666 3084 287 
Q 2609 -91 1734 -91 
Q 1441 -91 1130 -33 
Q 819 25 488 141 
L 488 750 
Q 750 597 1062 519 
Q 1375 441 1716 441 
Q 2309 441 2620 675 
Q 2931 909 2931 1356 
Q 2931 1769 2642 2001 
Q 2353 2234 1838 2234 
L 1294 2234 
L 1294 2753 
L 1863 2753 
Q 2328 2753 2575 2939 
Q 2822 3125 2822 3475 
Q 2822 3834 2567 4026 
Q 2313 4219 1838 4219 
Q 1578 4219 1281 4162 
Q 984 4106 628 3988 
L 628 4550 
Q 988 4650 1302 4700 
Q 1616 4750 1894 4750 
Q 2613 4750 3031 4423 
Q 3450 4097 3450 3541 
Q 3450 3153 3228 2886 
Q 3006 2619 2597 2516 
z
" transform="scale(0.015625)"/>
       </defs>
       <use xlink:href="#DejaVuSans-33"/>
      </g>
     </g>
    </g>
    <g id="ytick_14">
     <g id="line2d_43">
      <path d="M 547.521434 179.605205 
L 943.656528 179.605205 
" clip-path="url(#p54576b944c)" style="fill: none; stroke: #cecdc3; stroke-opacity: 0.9; stroke-width: 0.9; stroke-linecap: square"/>
     </g>
     <g id="line2d_44"/>
     <g id="text_33">
      <!-- 3,5 -->
      <g style="fill: #6f6e69" transform="translate(524.823152 183.594384) scale(0.105 -0.105)">
       <use xlink:href="#DejaVuSans-33"/>
       <use xlink:href="#DejaVuSans-2c" transform="translate(63.623047 0)"/>
       <use xlink:href="#DejaVuSans-35" transform="translate(95.410156 0)"/>
      </g>
     </g>
    </g>
    <g id="ytick_15">
     <g id="line2d_45">
      <path d="M 547.521434 151.688528 
L 943.656528 151.688528 
" clip-path="url(#p54576b944c)" style="fill: none; stroke: #cecdc3; stroke-opacity: 0.9; stroke-width: 0.9; stroke-linecap: square"/>
     </g>
     <g id="line2d_46"/>
     <g id="text_34">
      <!-- 4 -->
      <g style="fill: #6f6e69" transform="translate(534.840809 155.677707) scale(0.105 -0.105)">
       <use xlink:href="#DejaVuSans-34"/>
      </g>
     </g>
    </g>
    <g id="ytick_16">
     <g id="line2d_47">
      <path d="M 547.521434 123.77185 
L 943.656528 123.77185 
" clip-path="url(#p54576b944c)" style="fill: none; stroke: #cecdc3; stroke-opacity: 0.9; stroke-width: 0.9; stroke-linecap: square"/>
     </g>
     <g id="line2d_48"/>
     <g id="text_35">
      <!-- 4,5 -->
      <g style="fill: #6f6e69" transform="translate(524.823152 127.76103) scale(0.105 -0.105)">
       <use xlink:href="#DejaVuSans-34"/>
       <use xlink:href="#DejaVuSans-2c" transform="translate(63.623047 0)"/>
       <use xlink:href="#DejaVuSans-35" transform="translate(95.410156 0)"/>
      </g>
     </g>
    </g>
    <g id="text_36">
     <!-- Nível -->
     <g style="fill: #1c1b1a" transform="translate(512.63948 227.895567) rotate(-90) scale(0.105 -0.105)">
      <defs>
       <path id="DejaVuSans-4e" d="M 628 4666 
L 1478 4666 
L 3547 763 
L 3547 4666 
L 4159 4666 
L 4159 0 
L 3309 0 
L 1241 3903 
L 1241 0 
L 628 0 
L 628 4666 
z
" transform="scale(0.015625)"/>
       <path id="DejaVuSans-ed" d="M 1322 5119 
L 1944 5119 
L 926 3944 
L 447 3944 
L 1322 5119 
z
M 603 3500 
L 1178 3500 
L 1178 0 
L 603 0 
L 603 3500 
z
M 891 3584 
L 891 3584 
z
" transform="scale(0.015625)"/>
      </defs>
      <use xlink:href="#DejaVuSans-4e"/>
      <use xlink:href="#DejaVuSans-ed" transform="translate(74.804688 0)"/>
      <use xlink:href="#DejaVuSans-76" transform="translate(102.587891 0)"/>
      <use xlink:href="#DejaVuSans-65" transform="translate(161.767578 0)"/>
      <use xlink:href="#DejaVuSans-6c" transform="translate(223.291016 0)"/>
     </g>
    </g>
   </g>
   <g id="line2d_49">
    <path d="M 585.857088 150.772995 
L 590.252462 148.1578 
L 594.847626 145.677492 
L 599.64258 143.340306 
L 604.637323 141.151872 
L 609.831856 139.115367 
L 615.425969 137.166119 
L 621.219871 135.383981 
L 627.413353 133.713601 
L 634.006414 132.168421 
L 640.999055 130.75704 
L 648.591065 129.451958 
L 656.782444 128.268644 
L 665.772982 127.194051 
L 675.762469 126.225647 
L 686.950694 125.36712 
L 699.737237 124.614075 
L 714.521677 123.971789 
L 732.103174 123.437209 
L 753.880255 123.007717 
L 782.050607 122.686151 
L 822.408134 122.465955 
L 895.930756 122.326674 
L 905.320874 122.314187 
L 905.320874 122.314187 
" clip-path="url(#p54576b944c)" style="fill: none; stroke: #3aa99f; stroke-width: 2.4; stroke-linecap: square"/>
   </g>
   <g id="line2d_50">
    <path d="M 585.857088 307.112104 
L 597.045313 306.272911 
L 609.831856 305.542504 
L 624.816086 304.916593 
L 642.797162 304.397208 
L 665.173613 303.984397 
L 694.542704 303.677995 
L 737.097917 303.474724 
L 812.418647 303.369938 
L 905.320874 303.351003 
L 905.320874 303.351003 
" clip-path="url(#p54576b944c)" style="fill: none; stroke: #da702c; stroke-width: 2.4; stroke-linecap: square"/>
   </g>
   <g id="line2d_51">
    <path d="M 547.521434 122.316756 
L 943.656528 122.316756 
" clip-path="url(#p54576b944c)" style="fill: none; stroke-dasharray: 1,1.65; stroke-dashoffset: 0; stroke: #878580; stroke-opacity: 0.95"/>
   </g>
   <g id="line2d_52">
    <path d="M 547.521434 303.345565 
L 943.656528 303.345565 
" clip-path="url(#p54576b944c)" style="fill: none; stroke-dasharray: 1,1.65; stroke-dashoffset: 0; stroke: #878580; stroke-opacity: 0.95"/>
   </g>
   <g id="patch_16">
    <path d="M 547.521434 316.352 
L 547.521434 113.074291 
" style="fill: none; stroke: #cecdc3; stroke-width: 0.8; stroke-linejoin: miter; stroke-linecap: square"/>
   </g>
   <g id="patch_17">
    <path d="M 547.521434 316.352 
L 943.656528 316.352 
" style="fill: none; stroke: #cecdc3; stroke-width: 0.8; stroke-linejoin: miter; stroke-linecap: square"/>
   </g>
   <g id="text_37">
    <g id="patch_18">
     <path d="M 915.130874 127.101296 
L 953.159077 127.101296 
L 953.159077 117.527077 
L 915.130874 117.527077 
z
" style="fill: #fffcf0; opacity: 0.92"/>
    </g>
    <!-- Capital -->
    <g style="fill: #3aa99f" transform="translate(915.320874 124.935593) scale(0.095 -0.095)">
     <defs>
      <path id="DejaVuSans-Bold-43" d="M 4288 256 
Q 3956 84 3597 -3 
Q 3238 -91 2847 -91 
Q 1681 -91 1000 561 
Q 319 1213 319 2328 
Q 319 3447 1000 4098 
Q 1681 4750 2847 4750 
Q 3238 4750 3597 4662 
Q 3956 4575 4288 4403 
L 4288 3438 
Q 3953 3666 3628 3772 
Q 3303 3878 2944 3878 
Q 2300 3878 1931 3465 
Q 1563 3053 1563 2328 
Q 1563 1606 1931 1193 
Q 2300 781 2944 781 
Q 3303 781 3628 887 
Q 3953 994 4288 1222 
L 4288 256 
z
" transform="scale(0.015625)"/>
      <path id="DejaVuSans-Bold-61" d="M 2106 1575 
Q 1756 1575 1579 1456 
Q 1403 1338 1403 1106 
Q 1403 894 1545 773 
Q 1688 653 1941 653 
Q 2256 653 2472 879 
Q 2688 1106 2688 1447 
L 2688 1575 
L 2106 1575 
z
M 3816 1997 
L 3816 0 
L 2688 0 
L 2688 519 
Q 2463 200 2181 54 
Q 1900 -91 1497 -91 
Q 953 -91 614 226 
Q 275 544 275 1050 
Q 275 1666 698 1953 
Q 1122 2241 2028 2241 
L 2688 2241 
L 2688 2328 
Q 2688 2594 2478 2717 
Q 2269 2841 1825 2841 
Q 1466 2841 1156 2769 
Q 847 2697 581 2553 
L 581 3406 
Q 941 3494 1303 3539 
Q 1666 3584 2028 3584 
Q 2975 3584 3395 3211 
Q 3816 2838 3816 1997 
z
" transform="scale(0.015625)"/>
      <path id="DejaVuSans-Bold-70" d="M 1656 506 
L 1656 -1331 
L 538 -1331 
L 538 3500 
L 1656 3500 
L 1656 2988 
Q 1888 3294 2169 3439 
Q 2450 3584 2816 3584 
Q 3463 3584 3878 3070 
Q 4294 2556 4294 1747 
Q 4294 938 3878 423 
Q 3463 -91 2816 -91 
Q 2450 -91 2169 54 
Q 1888 200 1656 506 
z
M 2400 2772 
Q 2041 2772 1848 2508 
Q 1656 2244 1656 1747 
Q 1656 1250 1848 986 
Q 2041 722 2400 722 
Q 2759 722 2948 984 
Q 3138 1247 3138 1747 
Q 3138 2247 2948 2509 
Q 2759 2772 2400 2772 
z
" transform="scale(0.015625)"/>
      <path id="DejaVuSans-Bold-69" d="M 538 3500 
L 1656 3500 
L 1656 0 
L 538 0 
L 538 3500 
z
M 538 4863 
L 1656 4863 
L 1656 3950 
L 538 3950 
L 538 4863 
z
" transform="scale(0.015625)"/>
      <path id="DejaVuSans-Bold-74" d="M 1759 4494 
L 1759 3500 
L 2913 3500 
L 2913 2700 
L 1759 2700 
L 1759 1216 
Q 1759 972 1856 886 
Q 1953 800 2241 800 
L 2816 800 
L 2816 0 
L 1856 0 
Q 1194 0 917 276 
Q 641 553 641 1216 
L 641 2700 
L 84 2700 
L 84 3500 
L 641 3500 
L 641 4494 
L 1759 4494 
z
" transform="scale(0.015625)"/>
      <path id="DejaVuSans-Bold-6c" d="M 538 4863 
L 1656 4863 
L 1656 0 
L 538 0 
L 538 4863 
z
" transform="scale(0.015625)"/>
     </defs>
     <use xlink:href="#DejaVuSans-Bold-43"/>
     <use xlink:href="#DejaVuSans-Bold-61" transform="translate(73.388672 0)"/>
     <use xlink:href="#DejaVuSans-Bold-70" transform="translate(140.869141 0)"/>
     <use xlink:href="#DejaVuSans-Bold-69" transform="translate(212.451172 0)"/>
     <use xlink:href="#DejaVuSans-Bold-74" transform="translate(246.728516 0)"/>
     <use xlink:href="#DejaVuSans-Bold-61" transform="translate(294.53125 0)"/>
     <use xlink:href="#DejaVuSans-Bold-6c" transform="translate(362.011719 0)"/>
    </g>
   </g>
   <g id="text_38">
    <g id="patch_19">
     <path d="M 915.130874 308.138112 
L 964.615483 308.138112 
L 964.615483 298.563893 
L 915.130874 298.563893 
z
" style="fill: #fffcf0; opacity: 0.92"/>
    </g>
    <!-- Consumo -->
    <g style="fill: #da702c" transform="translate(915.320874 305.972409) scale(0.095 -0.095)">
     <defs>
      <path id="DejaVuSans-Bold-6f" d="M 2203 2784 
Q 1831 2784 1636 2517 
Q 1441 2250 1441 1747 
Q 1441 1244 1636 976 
Q 1831 709 2203 709 
Q 2569 709 2762 976 
Q 2956 1244 2956 1747 
Q 2956 2250 2762 2517 
Q 2569 2784 2203 2784 
z
M 2203 3584 
Q 3106 3584 3614 3096 
Q 4122 2609 4122 1747 
Q 4122 884 3614 396 
Q 3106 -91 2203 -91 
Q 1297 -91 786 396 
Q 275 884 275 1747 
Q 275 2609 786 3096 
Q 1297 3584 2203 3584 
z
" transform="scale(0.015625)"/>
      <path id="DejaVuSans-Bold-6e" d="M 4056 2131 
L 4056 0 
L 2931 0 
L 2931 347 
L 2931 1631 
Q 2931 2084 2911 2256 
Q 2891 2428 2841 2509 
Q 2775 2619 2662 2680 
Q 2550 2741 2406 2741 
Q 2056 2741 1856 2470 
Q 1656 2200 1656 1722 
L 1656 0 
L 538 0 
L 538 3500 
L 1656 3500 
L 1656 2988 
Q 1909 3294 2193 3439 
Q 2478 3584 2822 3584 
Q 3428 3584 3742 3212 
Q 4056 2841 4056 2131 
z
" transform="scale(0.015625)"/>
      <path id="DejaVuSans-Bold-73" d="M 3272 3391 
L 3272 2541 
Q 2913 2691 2578 2766 
Q 2244 2841 1947 2841 
Q 1628 2841 1473 2761 
Q 1319 2681 1319 2516 
Q 1319 2381 1436 2309 
Q 1553 2238 1856 2203 
L 2053 2175 
Q 2913 2066 3209 1816 
Q 3506 1566 3506 1031 
Q 3506 472 3093 190 
Q 2681 -91 1863 -91 
Q 1516 -91 1145 -36 
Q 775 19 384 128 
L 384 978 
Q 719 816 1070 734 
Q 1422 653 1784 653 
Q 2113 653 2278 743 
Q 2444 834 2444 1013 
Q 2444 1163 2330 1236 
Q 2216 1309 1875 1350 
L 1678 1375 
Q 931 1469 631 1722 
Q 331 1975 331 2491 
Q 331 3047 712 3315 
Q 1094 3584 1881 3584 
Q 2191 3584 2531 3537 
Q 2872 3491 3272 3391 
z
" transform="scale(0.015625)"/>
      <path id="DejaVuSans-Bold-75" d="M 500 1363 
L 500 3500 
L 1625 3500 
L 1625 3150 
Q 1625 2866 1622 2436 
Q 1619 2006 1619 1863 
Q 1619 1441 1641 1255 
Q 1663 1069 1716 984 
Q 1784 875 1895 815 
Q 2006 756 2150 756 
Q 2500 756 2700 1025 
Q 2900 1294 2900 1772 
L 2900 3500 
L 4019 3500 
L 4019 0 
L 2900 0 
L 2900 506 
Q 2647 200 2364 54 
Q 2081 -91 1741 -91 
Q 1134 -91 817 281 
Q 500 653 500 1363 
z
" transform="scale(0.015625)"/>
      <path id="DejaVuSans-Bold-6d" d="M 3781 2919 
Q 3994 3244 4286 3414 
Q 4578 3584 4928 3584 
Q 5531 3584 5847 3212 
Q 6163 2841 6163 2131 
L 6163 0 
L 5038 0 
L 5038 1825 
Q 5041 1866 5042 1909 
Q 5044 1953 5044 2034 
Q 5044 2406 4934 2573 
Q 4825 2741 4581 2741 
Q 4263 2741 4089 2478 
Q 3916 2216 3909 1719 
L 3909 0 
L 2784 0 
L 2784 1825 
Q 2784 2406 2684 2573 
Q 2584 2741 2328 2741 
Q 2006 2741 1831 2477 
Q 1656 2213 1656 1722 
L 1656 0 
L 531 0 
L 531 3500 
L 1656 3500 
L 1656 2988 
Q 1863 3284 2130 3434 
Q 2397 3584 2719 3584 
Q 3081 3584 3359 3409 
Q 3638 3234 3781 2919 
z
" transform="scale(0.015625)"/>
     </defs>
     <use xlink:href="#DejaVuSans-Bold-43"/>
     <use xlink:href="#DejaVuSans-Bold-6f" transform="translate(73.388672 0)"/>
     <use xlink:href="#DejaVuSans-Bold-6e" transform="translate(142.089844 0)"/>
     <use xlink:href="#DejaVuSans-Bold-73" transform="translate(213.28125 0)"/>
     <use xlink:href="#DejaVuSans-Bold-75" transform="translate(272.802734 0)"/>
     <use xlink:href="#DejaVuSans-Bold-6d" transform="translate(343.994141 0)"/>
     <use xlink:href="#DejaVuSans-Bold-6f" transform="translate(448.193359 0)"/>
    </g>
   </g>
   <g id="text_39">
    <g id="patch_20">
     <path d="M 586.503616 118.745475 
L 626.359616 118.745475 
Q 627.487616 118.745475 627.487616 117.617475 
L 627.487616 107.016038 
Q 627.487616 105.888038 626.359616 105.888038 
L 586.503616 105.888038 
Q 585.375616 105.888038 585.375616 107.016038 
L 585.375616 117.617475 
Q 585.375616 118.745475 586.503616 118.745475 
z
" style="fill: #fffcf0; opacity: 0.96"/>
    </g>
    <!-- novo $k^*$ -->
    <g style="fill: #3aa99f" transform="translate(587.255616 114.910569) scale(0.094 -0.094)">
     <defs>
      <path id="DejaVuSans-2a" d="M 3009 3897 
L 1888 3291 
L 3009 2681 
L 2828 2375 
L 1778 3009 
L 1778 1831 
L 1422 1831 
L 1422 3009 
L 372 2375 
L 191 2681 
L 1313 3291 
L 191 3897 
L 372 4206 
L 1422 3572 
L 1422 4750 
L 1778 4750 
L 1778 3572 
L 2828 4206 
L 3009 3897 
z
" transform="scale(0.015625)"/>
     </defs>
     <use xlink:href="#DejaVuSans-6e" transform="translate(0 0.765625)"/>
     <use xlink:href="#DejaVuSans-6f" transform="translate(63.378906 0.765625)"/>
     <use xlink:href="#DejaVuSans-76" transform="translate(124.560547 0.765625)"/>
     <use xlink:href="#DejaVuSans-6f" transform="translate(183.740234 0.765625)"/>
     <use xlink:href="#DejaVuSans-20" transform="translate(244.921875 0.765625)"/>
     <use xlink:href="#DejaVuSans-Oblique-6b" transform="translate(276.708984 0.765625)"/>
     <use xlink:href="#DejaVuSans-2a" transform="translate(355.704544 39.046875) scale(0.7)"/>
    </g>
   </g>
   <g id="text_40">
    <g id="patch_21">
     <path d="M 586.503616 299.774283 
L 625.795616 299.774283 
Q 626.923616 299.774283 626.923616 298.646283 
L 626.923616 288.044846 
Q 626.923616 286.916846 625.795616 286.916846 
L 586.503616 286.916846 
Q 585.375616 286.916846 585.375616 288.044846 
L 585.375616 298.646283 
Q 585.375616 299.774283 586.503616 299.774283 
z
" style="fill: #fffcf0; opacity: 0.96"/>
    </g>
    <!-- novo $c^*$ -->
    <g style="fill: #da702c" transform="translate(587.255616 295.939377) scale(0.094 -0.094)">
     <use xlink:href="#DejaVuSans-6e" transform="translate(0 0.765625)"/>
     <use xlink:href="#DejaVuSans-6f" transform="translate(63.378906 0.765625)"/>
     <use xlink:href="#DejaVuSans-76" transform="translate(124.560547 0.765625)"/>
     <use xlink:href="#DejaVuSans-6f" transform="translate(183.740234 0.765625)"/>
     <use xlink:href="#DejaVuSans-20" transform="translate(244.921875 0.765625)"/>
     <use xlink:href="#DejaVuSans-Oblique-63" transform="translate(276.708984 0.765625)"/>
     <use xlink:href="#DejaVuSans-2a" transform="translate(349.977044 39.046875) scale(0.7)"/>
    </g>
   </g>
  </g>
  <g id="text_41">
   <!-- Menor impaciência no modelo RCK -->
   <g style="fill: #1c1b1a" transform="translate(16.15271 27.1975) scale(0.16 -0.16)">
    <defs>
     <path id="DejaVuSans-Bold-4d" d="M 588 4666 
L 2119 4666 
L 3181 2169 
L 4250 4666 
L 5778 4666 
L 5778 0 
L 4641 0 
L 4641 3413 
L 3566 897 
L 2803 897 
L 1728 3413 
L 1728 0 
L 588 0 
L 588 4666 
z
" transform="scale(0.015625)"/>
     <path id="DejaVuSans-Bold-65" d="M 4031 1759 
L 4031 1441 
L 1416 1441 
Q 1456 1047 1700 850 
Q 1944 653 2381 653 
Q 2734 653 3104 758 
Q 3475 863 3866 1075 
L 3866 213 
Q 3469 63 3072 -14 
Q 2675 -91 2278 -91 
Q 1328 -91 801 392 
Q 275 875 275 1747 
Q 275 2603 792 3093 
Q 1309 3584 2216 3584 
Q 3041 3584 3536 3087 
Q 4031 2591 4031 1759 
z
M 2881 2131 
Q 2881 2450 2695 2645 
Q 2509 2841 2209 2841 
Q 1884 2841 1681 2658 
Q 1478 2475 1428 2131 
L 2881 2131 
z
" transform="scale(0.015625)"/>
     <path id="DejaVuSans-Bold-72" d="M 3138 2547 
Q 2991 2616 2845 2648 
Q 2700 2681 2553 2681 
Q 2122 2681 1889 2404 
Q 1656 2128 1656 1613 
L 1656 0 
L 538 0 
L 538 3500 
L 1656 3500 
L 1656 2925 
Q 1872 3269 2151 3426 
Q 2431 3584 2822 3584 
Q 2878 3584 2943 3579 
Q 3009 3575 3134 3559 
L 3138 2547 
z
" transform="scale(0.015625)"/>
     <path id="DejaVuSans-Bold-20" transform="scale(0.015625)"/>
     <path id="DejaVuSans-Bold-63" d="M 3366 3391 
L 3366 2478 
Q 3138 2634 2908 2709 
Q 2678 2784 2431 2784 
Q 1963 2784 1702 2511 
Q 1441 2238 1441 1747 
Q 1441 1256 1702 982 
Q 1963 709 2431 709 
Q 2694 709 2930 787 
Q 3166 866 3366 1019 
L 3366 103 
Q 3103 6 2833 -42 
Q 2563 -91 2291 -91 
Q 1344 -91 809 395 
Q 275 881 275 1747 
Q 275 2613 809 3098 
Q 1344 3584 2291 3584 
Q 2566 3584 2833 3536 
Q 3100 3488 3366 3391 
z
" transform="scale(0.015625)"/>
     <path id="DejaVuSans-Bold-ea" d="M 4031 1759 
L 4031 1441 
L 1416 1441 
Q 1456 1047 1700 850 
Q 1944 653 2381 653 
Q 2734 653 3104 758 
Q 3475 863 3866 1075 
L 3866 213 
Q 3469 63 3072 -14 
Q 2675 -91 2278 -91 
Q 1328 -91 801 392 
Q 275 875 275 1747 
Q 275 2603 792 3093 
Q 1309 3584 2216 3584 
Q 3041 3584 3536 3087 
Q 4031 2591 4031 1759 
z
M 2881 2131 
Q 2881 2450 2695 2645 
Q 2509 2841 2209 2841 
Q 1884 2841 1681 2658 
Q 1478 2475 1428 2131 
L 2881 2131 
z
M 1902 5119 
L 2658 5119 
L 3458 3944 
L 2902 3944 
L 2280 4647 
L 1658 3944 
L 1102 3944 
L 1902 5119 
z
" transform="scale(0.015625)"/>
     <path id="DejaVuSans-Bold-64" d="M 2919 2988 
L 2919 4863 
L 4044 4863 
L 4044 0 
L 2919 0 
L 2919 506 
Q 2688 197 2409 53 
Q 2131 -91 1766 -91 
Q 1119 -91 703 423 
Q 288 938 288 1747 
Q 288 2556 703 3070 
Q 1119 3584 1766 3584 
Q 2128 3584 2408 3439 
Q 2688 3294 2919 2988 
z
M 2181 722 
Q 2541 722 2730 984 
Q 2919 1247 2919 1747 
Q 2919 2247 2730 2509 
Q 2541 2772 2181 2772 
Q 1825 2772 1636 2509 
Q 1447 2247 1447 1747 
Q 1447 1247 1636 984 
Q 1825 722 2181 722 
z
" transform="scale(0.015625)"/>
     <path id="DejaVuSans-Bold-52" d="M 2297 2597 
Q 2675 2597 2839 2737 
Q 3003 2878 3003 3200 
Q 3003 3519 2839 3656 
Q 2675 3794 2297 3794 
L 1791 3794 
L 1791 2597 
L 2297 2597 
z
M 1791 1766 
L 1791 0 
L 588 0 
L 588 4666 
L 2425 4666 
Q 3347 4666 3776 4356 
Q 4206 4047 4206 3378 
Q 4206 2916 3982 2619 
Q 3759 2322 3309 2181 
Q 3556 2125 3751 1926 
Q 3947 1728 4147 1325 
L 4800 0 
L 3519 0 
L 2950 1159 
Q 2778 1509 2601 1637 
Q 2425 1766 2131 1766 
L 1791 1766 
z
" transform="scale(0.015625)"/>
     <path id="DejaVuSans-Bold-4b" d="M 588 4666 
L 1791 4666 
L 1791 2963 
L 3525 4666 
L 4922 4666 
L 2675 2456 
L 5153 0 
L 3647 0 
L 1791 1838 
L 1791 0 
L 588 0 
L 588 4666 
z
" transform="scale(0.015625)"/>
    </defs>
    <use xlink:href="#DejaVuSans-Bold-4d"/>
    <use xlink:href="#DejaVuSans-Bold-65" transform="translate(99.511719 0)"/>
    <use xlink:href="#DejaVuSans-Bold-6e" transform="translate(167.333984 0)"/>
    <use xlink:href="#DejaVuSans-Bold-6f" transform="translate(238.525391 0)"/>
    <use xlink:href="#DejaVuSans-Bold-72" transform="translate(307.226562 0)"/>
    <use xlink:href="#DejaVuSans-Bold-20" transform="translate(356.542969 0)"/>
    <use xlink:href="#DejaVuSans-Bold-69" transform="translate(391.357422 0)"/>
    <use xlink:href="#DejaVuSans-Bold-6d" transform="translate(425.634766 0)"/>
    <use xlink:href="#DejaVuSans-Bold-70" transform="translate(529.833984 0)"/>
    <use xlink:href="#DejaVuSans-Bold-61" transform="translate(601.416016 0)"/>
    <use xlink:href="#DejaVuSans-Bold-63" transform="translate(668.896484 0)"/>
    <use xlink:href="#DejaVuSans-Bold-69" transform="translate(728.173828 0)"/>
    <use xlink:href="#DejaVuSans-Bold-ea" transform="translate(762.451172 0)"/>
    <use xlink:href="#DejaVuSans-Bold-6e" transform="translate(830.273438 0)"/>
    <use xlink:href="#DejaVuSans-Bold-63" transform="translate(901.464844 0)"/>
    <use xlink:href="#DejaVuSans-Bold-69" transform="translate(960.742188 0)"/>
    <use xlink:href="#DejaVuSans-Bold-61" transform="translate(995.019531 0)"/>
    <use xlink:href="#DejaVuSans-Bold-20" transform="translate(1062.5 0)"/>
    <use xlink:href="#DejaVuSans-Bold-6e" transform="translate(1097.314453 0)"/>
    <use xlink:href="#DejaVuSans-Bold-6f" transform="translate(1168.505859 0)"/>
    <use xlink:href="#DejaVuSans-Bold-20" transform="translate(1237.207031 0)"/>
    <use xlink:href="#DejaVuSans-Bold-6d" transform="translate(1272.021484 0)"/>
    <use xlink:href="#DejaVuSans-Bold-6f" transform="translate(1376.220703 0)"/>
    <use xlink:href="#DejaVuSans-Bold-64" transform="translate(1444.921875 0)"/>
    <use xlink:href="#DejaVuSans-Bold-65" transform="translate(1516.503906 0)"/>
    <use xlink:href="#DejaVuSans-Bold-6c" transform="translate(1584.326172 0)"/>
    <use xlink:href="#DejaVuSans-Bold-6f" transform="translate(1618.603516 0)"/>
    <use xlink:href="#DejaVuSans-Bold-20" transform="translate(1687.304688 0)"/>
    <use xlink:href="#DejaVuSans-Bold-52" transform="translate(1722.119141 0)"/>
    <use xlink:href="#DejaVuSans-Bold-43" transform="translate(1799.121094 0)"/>
    <use xlink:href="#DejaVuSans-Bold-4b" transform="translate(1872.509766 0)"/>
   </g>
  </g>
  <g id="text_42">
   <!-- Menor impaciência desloca a trajetória de sela e aumenta o capital de longo prazo compatível com o equilíbrio ótimo. -->
   <g style="fill: #6f6e69" transform="translate(16.15271 38.974406) scale(0.102 -0.102)">
    <defs>
     <path id="DejaVuSans-4d" d="M 628 4666 
L 1569 4666 
L 2759 1491 
L 3956 4666 
L 4897 4666 
L 4897 0 
L 4281 0 
L 4281 4097 
L 3078 897 
L 2444 897 
L 1241 4097 
L 1241 0 
L 628 0 
L 628 4666 
z
" transform="scale(0.015625)"/>
     <path id="DejaVuSans-ea" d="M 3597 1894 
L 3597 1613 
L 953 1613 
Q 991 1019 1311 708 
Q 1631 397 2203 397 
Q 2534 397 2845 478 
Q 3156 559 3463 722 
L 3463 178 
Q 3153 47 2828 -22 
Q 2503 -91 2169 -91 
Q 1331 -91 842 396 
Q 353 884 353 1716 
Q 353 2575 817 3079 
Q 1281 3584 2069 3584 
Q 2775 3584 3186 3129 
Q 3597 2675 3597 1894 
z
M 3022 2063 
Q 3016 2534 2758 2815 
Q 2500 3097 2075 3097 
Q 1594 3097 1305 2825 
Q 1016 2553 972 2059 
L 3022 2063 
z
M 1801 5119 
L 2263 5119 
L 3029 3944 
L 2595 3944 
L 2032 4709 
L 1470 3944 
L 1035 3944 
L 1801 5119 
z
" transform="scale(0.015625)"/>
     <path id="DejaVuSans-67" d="M 2906 1791 
Q 2906 2416 2648 2759 
Q 2391 3103 1925 3103 
Q 1463 3103 1205 2759 
Q 947 2416 947 1791 
Q 947 1169 1205 825 
Q 1463 481 1925 481 
Q 2391 481 2648 825 
Q 2906 1169 2906 1791 
z
M 3481 434 
Q 3481 -459 3084 -895 
Q 2688 -1331 1869 -1331 
Q 1566 -1331 1297 -1286 
Q 1028 -1241 775 -1147 
L 775 -588 
Q 1028 -725 1275 -790 
Q 1522 -856 1778 -856 
Q 2344 -856 2625 -561 
Q 2906 -266 2906 331 
L 2906 616 
Q 2728 306 2450 153 
Q 2172 0 1784 0 
Q 1141 0 747 490 
Q 353 981 353 1791 
Q 353 2603 747 3093 
Q 1141 3584 1784 3584 
Q 2172 3584 2450 3431 
Q 2728 3278 2906 2969 
L 2906 3500 
L 3481 3500 
L 3481 434 
z
" transform="scale(0.015625)"/>
     <path id="DejaVuSans-7a" d="M 353 3500 
L 3084 3500 
L 3084 2975 
L 922 459 
L 3084 459 
L 3084 0 
L 275 0 
L 275 525 
L 2438 3041 
L 353 3041 
L 353 3500 
z
" transform="scale(0.015625)"/>
     <path id="DejaVuSans-2e" d="M 684 794 
L 1344 794 
L 1344 0 
L 684 0 
L 684 794 
z
" transform="scale(0.015625)"/>
    </defs>
    <use xlink:href="#DejaVuSans-4d"/>
    <use xlink:href="#DejaVuSans-65" transform="translate(86.279297 0)"/>
    <use xlink:href="#DejaVuSans-6e" transform="translate(147.802734 0)"/>
    <use xlink:href="#DejaVuSans-6f" transform="translate(211.181641 0)"/>
    <use xlink:href="#DejaVuSans-72" transform="translate(272.363281 0)"/>
    <use xlink:href="#DejaVuSans-20" transform="translate(313.476562 0)"/>
    <use xlink:href="#DejaVuSans-69" transform="translate(345.263672 0)"/>
    <use xlink:href="#DejaVuSans-6d" transform="translate(373.046875 0)"/>
    <use xlink:href="#DejaVuSans-70" transform="translate(470.458984 0)"/>
    <use xlink:href="#DejaVuSans-61" transform="translate(533.935547 0)"/>
    <use xlink:href="#DejaVuSans-63" transform="translate(595.214844 0)"/>
    <use xlink:href="#DejaVuSans-69" transform="translate(650.195312 0)"/>
    <use xlink:href="#DejaVuSans-ea" transform="translate(677.978516 0)"/>
    <use xlink:href="#DejaVuSans-6e" transform="translate(739.501953 0)"/>
    <use xlink:href="#DejaVuSans-63" transform="translate(802.880859 0)"/>
    <use xlink:href="#DejaVuSans-69" transform="translate(857.861328 0)"/>
    <use xlink:href="#DejaVuSans-61" transform="translate(885.644531 0)"/>
    <use xlink:href="#DejaVuSans-20" transform="translate(946.923828 0)"/>
    <use xlink:href="#DejaVuSans-64" transform="translate(978.710938 0)"/>
    <use xlink:href="#DejaVuSans-65" transform="translate(1042.1875 0)"/>
    <use xlink:href="#DejaVuSans-73" transform="translate(1103.710938 0)"/>
    <use xlink:href="#DejaVuSans-6c" transform="translate(1155.810547 0)"/>
    <use xlink:href="#DejaVuSans-6f" transform="translate(1183.59375 0)"/>
    <use xlink:href="#DejaVuSans-63" transform="translate(1244.775391 0)"/>
    <use xlink:href="#DejaVuSans-61" transform="translate(1299.755859 0)"/>
    <use xlink:href="#DejaVuSans-20" transform="translate(1361.035156 0)"/>
    <use xlink:href="#DejaVuSans-61" transform="translate(1392.822266 0)"/>
    <use xlink:href="#DejaVuSans-20" transform="translate(1454.101562 0)"/>
    <use xlink:href="#DejaVuSans-74" transform="translate(1485.888672 0)"/>
    <use xlink:href="#DejaVuSans-72" transform="translate(1525.097656 0)"/>
    <use xlink:href="#DejaVuSans-61" transform="translate(1566.210938 0)"/>
    <use xlink:href="#DejaVuSans-6a" transform="translate(1627.490234 0)"/>
    <use xlink:href="#DejaVuSans-65" transform="translate(1655.273438 0)"/>
    <use xlink:href="#DejaVuSans-74" transform="translate(1716.796875 0)"/>
    <use xlink:href="#DejaVuSans-f3" transform="translate(1756.005859 0)"/>
    <use xlink:href="#DejaVuSans-72" transform="translate(1817.1875 0)"/>
    <use xlink:href="#DejaVuSans-69" transform="translate(1858.300781 0)"/>
    <use xlink:href="#DejaVuSans-61" transform="translate(1886.083984 0)"/>
    <use xlink:href="#DejaVuSans-20" transform="translate(1947.363281 0)"/>
    <use xlink:href="#DejaVuSans-64" transform="translate(1979.150391 0)"/>
    <use xlink:href="#DejaVuSans-65" transform="translate(2042.626953 0)"/>
    <use xlink:href="#DejaVuSans-20" transform="translate(2104.150391 0)"/>
    <use xlink:href="#DejaVuSans-73" transform="translate(2135.9375 0)"/>
    <use xlink:href="#DejaVuSans-65" transform="translate(2188.037109 0)"/>
    <use xlink:href="#DejaVuSans-6c" transform="translate(2249.560547 0)"/>
    <use xlink:href="#DejaVuSans-61" transform="translate(2277.34375 0)"/>
    <use xlink:href="#DejaVuSans-20" transform="translate(2338.623047 0)"/>
    <use xlink:href="#DejaVuSans-65" transform="translate(2370.410156 0)"/>
    <use xlink:href="#DejaVuSans-20" transform="translate(2431.933594 0)"/>
    <use xlink:href="#DejaVuSans-61" transform="translate(2463.720703 0)"/>
    <use xlink:href="#DejaVuSans-75" transform="translate(2525 0)"/>
    <use xlink:href="#DejaVuSans-6d" transform="translate(2588.378906 0)"/>
    <use xlink:href="#DejaVuSans-65" transform="translate(2685.791016 0)"/>
    <use xlink:href="#DejaVuSans-6e" transform="translate(2747.314453 0)"/>
    <use xlink:href="#DejaVuSans-74" transform="translate(2810.693359 0)"/>
    <use xlink:href="#DejaVuSans-61" transform="translate(2849.902344 0)"/>
    <use xlink:href="#DejaVuSans-20" transform="translate(2911.181641 0)"/>
    <use xlink:href="#DejaVuSans-6f" transform="translate(2942.96875 0)"/>
    <use xlink:href="#DejaVuSans-20" transform="translate(3004.150391 0)"/>
    <use xlink:href="#DejaVuSans-63" transform="translate(3035.9375 0)"/>
    <use xlink:href="#DejaVuSans-61" transform="translate(3090.917969 0)"/>
    <use xlink:href="#DejaVuSans-70" transform="translate(3152.197266 0)"/>
    <use xlink:href="#DejaVuSans-69" transform="translate(3215.673828 0)"/>
    <use xlink:href="#DejaVuSans-74" transform="translate(3243.457031 0)"/>
    <use xlink:href="#DejaVuSans-61" transform="translate(3282.666016 0)"/>
    <use xlink:href="#DejaVuSans-6c" transform="translate(3343.945312 0)"/>
    <use xlink:href="#DejaVuSans-20" transform="translate(3371.728516 0)"/>
    <use xlink:href="#DejaVuSans-64" transform="translate(3403.515625 0)"/>
    <use xlink:href="#DejaVuSans-65" transform="translate(3466.992188 0)"/>
    <use xlink:href="#DejaVuSans-20" transform="translate(3528.515625 0)"/>
    <use xlink:href="#DejaVuSans-6c" transform="translate(3560.302734 0)"/>
    <use xlink:href="#DejaVuSans-6f" transform="translate(3588.085938 0)"/>
    <use xlink:href="#DejaVuSans-6e" transform="translate(3649.267578 0)"/>
    <use xlink:href="#DejaVuSans-67" transform="translate(3712.646484 0)"/>
    <use xlink:href="#DejaVuSans-6f" transform="translate(3776.123047 0)"/>
    <use xlink:href="#DejaVuSans-20" transform="translate(3837.304688 0)"/>
    <use xlink:href="#DejaVuSans-70" transform="translate(3869.091797 0)"/>
    <use xlink:href="#DejaVuSans-72" transform="translate(3932.568359 0)"/>
    <use xlink:href="#DejaVuSans-61" transform="translate(3973.681641 0)"/>
    <use xlink:href="#DejaVuSans-7a" transform="translate(4034.960938 0)"/>
    <use xlink:href="#DejaVuSans-6f" transform="translate(4087.451172 0)"/>
    <use xlink:href="#DejaVuSans-20" transform="translate(4148.632812 0)"/>
    <use xlink:href="#DejaVuSans-63" transform="translate(4180.419922 0)"/>
    <use xlink:href="#DejaVuSans-6f" transform="translate(4235.400391 0)"/>
    <use xlink:href="#DejaVuSans-6d" transform="translate(4296.582031 0)"/>
    <use xlink:href="#DejaVuSans-70" transform="translate(4393.994141 0)"/>
    <use xlink:href="#DejaVuSans-61" transform="translate(4457.470703 0)"/>
    <use xlink:href="#DejaVuSans-74" transform="translate(4518.75 0)"/>
    <use xlink:href="#DejaVuSans-ed" transform="translate(4557.958984 0)"/>
    <use xlink:href="#DejaVuSans-76" transform="translate(4585.742188 0)"/>
    <use xlink:href="#DejaVuSans-65" transform="translate(4644.921875 0)"/>
    <use xlink:href="#DejaVuSans-6c" transform="translate(4706.445312 0)"/>
    <use xlink:href="#DejaVuSans-20" transform="translate(4734.228516 0)"/>
    <use xlink:href="#DejaVuSans-63" transform="translate(4766.015625 0)"/>
    <use xlink:href="#DejaVuSans-6f" transform="translate(4820.996094 0)"/>
    <use xlink:href="#DejaVuSans-6d" transform="translate(4882.177734 0)"/>
    <use xlink:href="#DejaVuSans-20" transform="translate(4979.589844 0)"/>
    <use xlink:href="#DejaVuSans-6f" transform="translate(5011.376953 0)"/>
    <use xlink:href="#DejaVuSans-20" transform="translate(5072.558594 0)"/>
    <use xlink:href="#DejaVuSans-65" transform="translate(5104.345703 0)"/>
    <use xlink:href="#DejaVuSans-71" transform="translate(5165.869141 0)"/>
    <use xlink:href="#DejaVuSans-75" transform="translate(5229.345703 0)"/>
    <use xlink:href="#DejaVuSans-69" transform="translate(5292.724609 0)"/>
    <use xlink:href="#DejaVuSans-6c" transform="translate(5320.507812 0)"/>
    <use xlink:href="#DejaVuSans-ed" transform="translate(5348.291016 0)"/>
    <use xlink:href="#DejaVuSans-62" transform="translate(5376.074219 0)"/>
    <use xlink:href="#DejaVuSans-72" transform="translate(5439.550781 0)"/>
    <use xlink:href="#DejaVuSans-69" transform="translate(5480.664062 0)"/>
    <use xlink:href="#DejaVuSans-6f" transform="translate(5508.447266 0)"/>
    <use xlink:href="#DejaVuSans-20" transform="translate(5569.628906 0)"/>
    <use xlink:href="#DejaVuSans-f3" transform="translate(5601.416016 0)"/>
    <use xlink:href="#DejaVuSans-74" transform="translate(5662.597656 0)"/>
    <use xlink:href="#DejaVuSans-69" transform="translate(5701.806641 0)"/>
    <use xlink:href="#DejaVuSans-6d" transform="translate(5729.589844 0)"/>
    <use xlink:href="#DejaVuSans-6f" transform="translate(5827.001953 0)"/>
    <use xlink:href="#DejaVuSans-2e" transform="translate(5886.433594 0)"/>
   </g>
  </g>
  <g id="text_43">
   <!-- Obs.: O painel da direita mostra a transição a partir do capital inicial do antigo estado estacionário. -->
   <g style="fill: #6f6e69" transform="translate(16.15271 404.522672) scale(0.087 -0.087)">
    <defs>
     <path id="DejaVuSans-4f" d="M 2522 4238 
Q 1834 4238 1429 3725 
Q 1025 3213 1025 2328 
Q 1025 1447 1429 934 
Q 1834 422 2522 422 
Q 3209 422 3611 934 
Q 4013 1447 4013 2328 
Q 4013 3213 3611 3725 
Q 3209 4238 2522 4238 
z
M 2522 4750 
Q 3503 4750 4090 4092 
Q 4678 3434 4678 2328 
Q 4678 1225 4090 567 
Q 3503 -91 2522 -91 
Q 1538 -91 948 565 
Q 359 1222 359 2328 
Q 359 3434 948 4092 
Q 1538 4750 2522 4750 
z
" transform="scale(0.015625)"/>
     <path id="DejaVuSans-3a" d="M 750 794 
L 1409 794 
L 1409 0 
L 750 0 
L 750 794 
z
M 750 3309 
L 1409 3309 
L 1409 2516 
L 750 2516 
L 750 3309 
z
" transform="scale(0.015625)"/>
     <path id="DejaVuSans-e7" d="M 3122 3366 
L 3122 2828 
Q 2878 2963 2633 3030 
Q 2388 3097 2138 3097 
Q 1578 3097 1268 2742 
Q 959 2388 959 1747 
Q 959 1106 1268 751 
Q 1578 397 2138 397 
Q 2388 397 2633 464 
Q 2878 531 3122 666 
L 3122 134 
Q 2881 22 2623 -34 
Q 2366 -91 2075 -91 
Q 1284 -91 818 406 
Q 353 903 353 1747 
Q 353 2603 823 3093 
Q 1294 3584 2113 3584 
Q 2378 3584 2631 3529 
Q 2884 3475 3122 3366 
z
M 2311 0 
Q 2482 -194 2566 -358 
Q 2651 -522 2651 -672 
Q 2651 -950 2463 -1092 
Q 2276 -1234 1907 -1234 
Q 1764 -1234 1628 -1215 
Q 1492 -1197 1357 -1159 
L 1357 -750 
Q 1464 -803 1579 -826 
Q 1695 -850 1842 -850 
Q 2026 -850 2120 -775 
Q 2214 -700 2214 -556 
Q 2214 -463 2146 -327 
Q 2079 -191 1939 0 
L 2311 0 
z
" transform="scale(0.015625)"/>
     <path id="DejaVuSans-e3" d="M 2194 1759 
Q 1497 1759 1228 1600 
Q 959 1441 959 1056 
Q 959 750 1161 570 
Q 1363 391 1709 391 
Q 2188 391 2477 730 
Q 2766 1069 2766 1631 
L 2766 1759 
L 2194 1759 
z
M 3341 1997 
L 3341 0 
L 2766 0 
L 2766 531 
Q 2569 213 2275 61 
Q 1981 -91 1556 -91 
Q 1019 -91 701 211 
Q 384 513 384 1019 
Q 384 1609 779 1909 
Q 1175 2209 1959 2209 
L 2766 2209 
L 2766 2266 
Q 2766 2663 2505 2880 
Q 2244 3097 1772 3097 
Q 1472 3097 1187 3025 
Q 903 2953 641 2809 
L 641 3341 
Q 956 3463 1253 3523 
Q 1550 3584 1831 3584 
Q 2591 3584 2966 3190 
Q 3341 2797 3341 1997 
z
M 1844 4281 
L 1665 4453 
Q 1597 4516 1545 4545 
Q 1494 4575 1453 4575 
Q 1334 4575 1278 4461 
Q 1222 4347 1215 4091 
L 825 4091 
Q 831 4513 990 4742 
Q 1150 4972 1434 4972 
Q 1553 4972 1653 4928 
Q 1753 4884 1869 4781 
L 2047 4609 
Q 2115 4547 2167 4517 
Q 2219 4488 2259 4488 
Q 2378 4488 2434 4602 
Q 2490 4716 2497 4972 
L 2887 4972 
Q 2881 4550 2721 4320 
Q 2562 4091 2278 4091 
Q 2159 4091 2059 4134 
Q 1959 4178 1844 4281 
z
" transform="scale(0.015625)"/>
     <path id="DejaVuSans-e1" d="M 2194 1759 
Q 1497 1759 1228 1600 
Q 959 1441 959 1056 
Q 959 750 1161 570 
Q 1363 391 1709 391 
Q 2188 391 2477 730 
Q 2766 1069 2766 1631 
L 2766 1759 
L 2194 1759 
z
M 3341 1997 
L 3341 0 
L 2766 0 
L 2766 531 
Q 2569 213 2275 61 
Q 1981 -91 1556 -91 
Q 1019 -91 701 211 
Q 384 513 384 1019 
Q 384 1609 779 1909 
Q 1175 2209 1959 2209 
L 2766 2209 
L 2766 2266 
Q 2766 2663 2505 2880 
Q 2244 3097 1772 3097 
Q 1472 3097 1187 3025 
Q 903 2953 641 2809 
L 641 3341 
Q 956 3463 1253 3523 
Q 1550 3584 1831 3584 
Q 2591 3584 2966 3190 
Q 3341 2797 3341 1997 
z
M 2290 5119 
L 2912 5119 
L 1894 3944 
L 1415 3944 
L 2290 5119 
z
" transform="scale(0.015625)"/>
    </defs>
    <use xlink:href="#DejaVuSans-4f"/>
    <use xlink:href="#DejaVuSans-62" transform="translate(78.710938 0)"/>
    <use xlink:href="#DejaVuSans-73" transform="translate(142.1875 0)"/>
    <use xlink:href="#DejaVuSans-2e" transform="translate(194.287109 0)"/>
    <use xlink:href="#DejaVuSans-3a" transform="translate(226.074219 0)"/>
    <use xlink:href="#DejaVuSans-20" transform="translate(259.765625 0)"/>
    <use xlink:href="#DejaVuSans-4f" transform="translate(291.552734 0)"/>
    <use xlink:href="#DejaVuSans-20" transform="translate(370.263672 0)"/>
    <use xlink:href="#DejaVuSans-70" transform="translate(402.050781 0)"/>
    <use xlink:href="#DejaVuSans-61" transform="translate(465.527344 0)"/>
    <use xlink:href="#DejaVuSans-69" transform="translate(526.806641 0)"/>
    <use xlink:href="#DejaVuSans-6e" transform="translate(554.589844 0)"/>
    <use xlink:href="#DejaVuSans-65" transform="translate(617.96875 0)"/>
    <use xlink:href="#DejaVuSans-6c" transform="translate(679.492188 0)"/>
    <use xlink:href="#DejaVuSans-20" transform="translate(707.275391 0)"/>
    <use xlink:href="#DejaVuSans-64" transform="translate(739.0625 0)"/>
    <use xlink:href="#DejaVuSans-61" transform="translate(802.539062 0)"/>
    <use xlink:href="#DejaVuSans-20" transform="translate(863.818359 0)"/>
    <use xlink:href="#DejaVuSans-64" transform="translate(895.605469 0)"/>
    <use xlink:href="#DejaVuSans-69" transform="translate(959.082031 0)"/>
    <use xlink:href="#DejaVuSans-72" transform="translate(986.865234 0)"/>
    <use xlink:href="#DejaVuSans-65" transform="translate(1025.728516 0)"/>
    <use xlink:href="#DejaVuSans-69" transform="translate(1087.251953 0)"/>
    <use xlink:href="#DejaVuSans-74" transform="translate(1115.035156 0)"/>
    <use xlink:href="#DejaVuSans-61" transform="translate(1154.244141 0)"/>
    <use xlink:href="#DejaVuSans-20" transform="translate(1215.523438 0)"/>
    <use xlink:href="#DejaVuSans-6d" transform="translate(1247.310547 0)"/>
    <use xlink:href="#DejaVuSans-6f" transform="translate(1344.722656 0)"/>
    <use xlink:href="#DejaVuSans-73" transform="translate(1405.904297 0)"/>
    <use xlink:href="#DejaVuSans-74" transform="translate(1458.003906 0)"/>
    <use xlink:href="#DejaVuSans-72" transform="translate(1497.212891 0)"/>
    <use xlink:href="#DejaVuSans-61" transform="translate(1538.326172 0)"/>
    <use xlink:href="#DejaVuSans-20" transform="translate(1599.605469 0)"/>
    <use xlink:href="#DejaVuSans-61" transform="translate(1631.392578 0)"/>
    <use xlink:href="#DejaVuSans-20" transform="translate(1692.671875 0)"/>
    <use xlink:href="#DejaVuSans-74" transform="translate(1724.458984 0)"/>
    <use xlink:href="#DejaVuSans-72" transform="translate(1763.667969 0)"/>
    <use xlink:href="#DejaVuSans-61" transform="translate(1804.78125 0)"/>
    <use xlink:href="#DejaVuSans-6e" transform="translate(1866.060547 0)"/>
    <use xlink:href="#DejaVuSans-73" transform="translate(1929.439453 0)"/>
    <use xlink:href="#DejaVuSans-69" transform="translate(1981.539062 0)"/>
    <use xlink:href="#DejaVuSans-e7" transform="translate(2009.322266 0)"/>
    <use xlink:href="#DejaVuSans-e3" transform="translate(2064.302734 0)"/>
    <use xlink:href="#DejaVuSans-6f" transform="translate(2125.582031 0)"/>
    <use xlink:href="#DejaVuSans-20" transform="translate(2186.763672 0)"/>
    <use xlink:href="#DejaVuSans-61" transform="translate(2218.550781 0)"/>
    <use xlink:href="#DejaVuSans-20" transform="translate(2279.830078 0)"/>
    <use xlink:href="#DejaVuSans-70" transform="translate(2311.617188 0)"/>
    <use xlink:href="#DejaVuSans-61" transform="translate(2375.09375 0)"/>
    <use xlink:href="#DejaVuSans-72" transform="translate(2436.373047 0)"/>
    <use xlink:href="#DejaVuSans-74" transform="translate(2477.486328 0)"/>
    <use xlink:href="#DejaVuSans-69" transform="translate(2516.695312 0)"/>
    <use xlink:href="#DejaVuSans-72" transform="translate(2544.478516 0)"/>
    <use xlink:href="#DejaVuSans-20" transform="translate(2585.591797 0)"/>
    <use xlink:href="#DejaVuSans-64" transform="translate(2617.378906 0)"/>
    <use xlink:href="#DejaVuSans-6f" transform="translate(2680.855469 0)"/>
    <use xlink:href="#DejaVuSans-20" transform="translate(2742.037109 0)"/>
    <use xlink:href="#DejaVuSans-63" transform="translate(2773.824219 0)"/>
    <use xlink:href="#DejaVuSans-61" transform="translate(2828.804688 0)"/>
    <use xlink:href="#DejaVuSans-70" transform="translate(2890.083984 0)"/>
    <use xlink:href="#DejaVuSans-69" transform="translate(2953.560547 0)"/>
    <use xlink:href="#DejaVuSans-74" transform="translate(2981.34375 0)"/>
    <use xlink:href="#DejaVuSans-61" transform="translate(3020.552734 0)"/>
    <use xlink:href="#DejaVuSans-6c" transform="translate(3081.832031 0)"/>
    <use xlink:href="#DejaVuSans-20" transform="translate(3109.615234 0)"/>
    <use xlink:href="#DejaVuSans-69" transform="translate(3141.402344 0)"/>
    <use xlink:href="#DejaVuSans-6e" transform="translate(3169.185547 0)"/>
    <use xlink:href="#DejaVuSans-69" transform="translate(3232.564453 0)"/>
    <use xlink:href="#DejaVuSans-63" transform="translate(3260.347656 0)"/>
    <use xlink:href="#DejaVuSans-69" transform="translate(3315.328125 0)"/>
    <use xlink:href="#DejaVuSans-61" transform="translate(3343.111328 0)"/>
    <use xlink:href="#DejaVuSans-6c" transform="translate(3404.390625 0)"/>
    <use xlink:href="#DejaVuSans-20" transform="translate(3432.173828 0)"/>
    <use xlink:href="#DejaVuSans-64" transform="translate(3463.960938 0)"/>
    <use xlink:href="#DejaVuSans-6f" transform="translate(3527.4375 0)"/>
    <use xlink:href="#DejaVuSans-20" transform="translate(3588.619141 0)"/>
    <use xlink:href="#DejaVuSans-61" transform="translate(3620.40625 0)"/>
    <use xlink:href="#DejaVuSans-6e" transform="translate(3681.685547 0)"/>
    <use xlink:href="#DejaVuSans-74" transform="translate(3745.064453 0)"/>
    <use xlink:href="#DejaVuSans-69" transform="translate(3784.273438 0)"/>
    <use xlink:href="#DejaVuSans-67" transform="translate(3812.056641 0)"/>
    <use xlink:href="#DejaVuSans-6f" transform="translate(3875.533203 0)"/>
    <use xlink:href="#DejaVuSans-20" transform="translate(3936.714844 0)"/>
    <use xlink:href="#DejaVuSans-65" transform="translate(3968.501953 0)"/>
    <use xlink:href="#DejaVuSans-73" transform="translate(4030.025391 0)"/>
    <use xlink:href="#DejaVuSans-74" transform="translate(4082.125 0)"/>
    <use xlink:href="#DejaVuSans-61" transform="translate(4121.333984 0)"/>
    <use xlink:href="#DejaVuSans-64" transform="translate(4182.613281 0)"/>
    <use xlink:href="#DejaVuSans-6f" transform="translate(4246.089844 0)"/>
    <use xlink:href="#DejaVuSans-20" transform="translate(4307.271484 0)"/>
    <use xlink:href="#DejaVuSans-65" transform="translate(4339.058594 0)"/>
    <use xlink:href="#DejaVuSans-73" transform="translate(4400.582031 0)"/>
    <use xlink:href="#DejaVuSans-74" transform="translate(4452.681641 0)"/>
    <use xlink:href="#DejaVuSans-61" transform="translate(4491.890625 0)"/>
    <use xlink:href="#DejaVuSans-63" transform="translate(4553.169922 0)"/>
    <use xlink:href="#DejaVuSans-69" transform="translate(4608.150391 0)"/>
    <use xlink:href="#DejaVuSans-6f" transform="translate(4635.933594 0)"/>
    <use xlink:href="#DejaVuSans-6e" transform="translate(4697.115234 0)"/>
    <use xlink:href="#DejaVuSans-e1" transform="translate(4760.494141 0)"/>
    <use xlink:href="#DejaVuSans-72" transform="translate(4821.773438 0)"/>
    <use xlink:href="#DejaVuSans-69" transform="translate(4862.886719 0)"/>
    <use xlink:href="#DejaVuSans-6f" transform="translate(4890.669922 0)"/>
    <use xlink:href="#DejaVuSans-2e" transform="translate(4950.101562 0)"/>
   </g>
  </g>
 </g>
 <defs>
  <clipPath id="p10134bca4e">
   <rect x="57.283281" y="113.074291" width="396.135094" height="203.277709"/>
  </clipPath>
  <clipPath id="p54576b944c">
   <rect x="547.521434" y="113.074291" width="396.135094" height="203.277709"/>
  </clipPath>
 </defs>
</svg>
