<?xml version="1.0" encoding="utf-8" standalone="no"?>
<!DOCTYPE svg PUBLIC "-//W3C//DTD SVG 1.1//EN"
  "http://www.w3.org/Graphics/SVG/1.1/DTD/svg11.dtd">
<svg xmlns:xlink="http://www.w3.org/1999/xlink" width="954.92471pt" height="400.104pt" viewBox="0 0 954.92471 400.104" xmlns="http://www.w3.org/2000/svg" version="1.1">
 <metadata>
  <rdf:RDF xmlns:dc="http://purl.org/dc/elements/1.1/" xmlns:cc="http://creativecommons.org/ns#" xmlns:rdf="http://www.w3.org/1999/02/22-rdf-syntax-ns#">
   <cc:Work>
    <dc:type rdf:resource="http://purl.org/dc/dcmitype/StillImage"/>
    <dc:date>2026-04-02T15:04:47.174392</dc:date>
    <dc:format>image/svg+xml</dc:format>
    <dc:creator>
     <cc:Agent>
      <dc:title>Matplotlib v3.10.7, https://matplotlib.org/</dc:title>
     </cc:Agent>
    </dc:creator>
   </cc:Work>
  </rdf:RDF>
 </metadata>
 <defs>
  <style type="text/css">*{stroke-linejoin: round; stroke-linecap: butt}</style>
 </defs>
 <g id="figure_1">
  <g id="patch_1">
   <path d="M 0 400.104 
L 954.92471 400.104 
L 954.92471 0 
L 0 0 
z
" style="fill: #fffcf0"/>
  </g>
  <g id="axes_1">
   <g id="patch_2">
    <path d="M 57.283281 297.884 
L 472.023281 297.884 
L 472.023281 108.370286 
L 57.283281 108.370286 
z
" style="fill: #fffcf0"/>
   </g>
   <g id="PathCollection_1">
    <defs>
     <path id="C0_0_f3c1bca01c" d="M 0 2.828427 
C 0.750108 2.828427 1.469594 2.530406 2 2 
C 2.530406 1.469594 2.828427 0.750108 2.828427 -0 
C 2.828427 -0.750108 2.530406 -1.469594 2 -2 
C 1.469594 -2.530406 0.750108 -2.828427 0 -2.828427 
C -0.750108 -2.828427 -1.469594 -2.530406 -2 -2 
C -2.530406 -1.469594 -2.828427 -0.750108 -2.828427 0 
C -2.828427 0.750108 -2.530406 1.469594 -2 2 
C -1.469594 2.530406 -0.750108 2.828427 0 2.828427 
z
"/>
    </defs>
    <g clip-path="url(#p01e30667f8)">
     <use xlink:href="#C0_0_f3c1bca01c" x="235.456443" y="156.121288" style="fill: #4385be; stroke: #4385be; stroke-width: 0.6"/>
    </g>
    <g clip-path="url(#p01e30667f8)">
     <use xlink:href="#C0_0_f3c1bca01c" x="255.674147" y="153.613178" style="fill: #da702c; stroke: #da702c; stroke-width: 0.6"/>
    </g>
   </g>
   <g id="matplotlib.axis_1">
    <g id="xtick_1">
     <g id="line2d_1"/>
     <g id="text_1">
      <!-- 0 -->
      <g style="fill: #6f6e69" transform="translate(72.79082 311.862359) scale(0.105 -0.105)">
       <defs>
        <path id="DejaVuSans-30" d="M 2034 4250 
Q 1547 4250 1301 3770 
Q 1056 3291 1056 2328 
Q 1056 1369 1301 889 
Q 1547 409 2034 409 
Q 2525 409 2770 889 
Q 3016 1369 3016 2328 
Q 3016 3291 2770 3770 
Q 2525 4250 2034 4250 
z
M 2034 4750 
Q 2819 4750 3233 4129 
Q 3647 3509 3647 2328 
Q 3647 1150 3233 529 
Q 2819 -91 2034 -91 
Q 1250 -91 836 529 
Q 422 1150 422 2328 
Q 422 3509 836 4129 
Q 1250 4750 2034 4750 
z
" transform="scale(0.015625)"/>
       </defs>
       <use xlink:href="#DejaVuSans-30"/>
      </g>
     </g>
    </g>
    <g id="xtick_2">
     <g id="line2d_2"/>
     <g id="text_2">
      <!-- 2 -->
      <g style="fill: #6f6e69" transform="translate(152.128239 311.862359) scale(0.105 -0.105)">
       <defs>
        <path id="DejaVuSans-32" d="M 1228 531 
L 3431 531 
L 3431 0 
L 469 0 
L 469 531 
Q 828 903 1448 1529 
Q 2069 2156 2228 2338 
Q 2531 2678 2651 2914 
Q 2772 3150 2772 3378 
Q 2772 3750 2511 3984 
Q 2250 4219 1831 4219 
Q 1534 4219 1204 4116 
Q 875 4013 500 3803 
L 500 4441 
Q 881 4594 1212 4672 
Q 1544 4750 1819 4750 
Q 2544 4750 2975 4387 
Q 3406 4025 3406 3419 
Q 3406 3131 3298 2873 
Q 3191 2616 2906 2266 
Q 2828 2175 2409 1742 
Q 1991 1309 1228 531 
z
" transform="scale(0.015625)"/>
       </defs>
       <use xlink:href="#DejaVuSans-32"/>
      </g>
     </g>
    </g>
    <g id="xtick_3">
     <g id="line2d_3"/>
     <g id="text_3">
      <!-- 4 -->
      <g style="fill: #6f6e69" transform="translate(231.465659 311.862359) scale(0.105 -0.105)">
       <defs>
        <path id="DejaVuSans-34" d="M 2419 4116 
L 825 1625 
L 2419 1625 
L 2419 4116 
z
M 2253 4666 
L 3047 4666 
L 3047 1625 
L 3713 1625 
L 3713 1100 
L 3047 1100 
L 3047 0 
L 2419 0 
L 2419 1100 
L 313 1100 
L 313 1709 
L 2253 4666 
z
" transform="scale(0.015625)"/>
       </defs>
       <use xlink:href="#DejaVuSans-34"/>
      </g>
     </g>
    </g>
    <g id="xtick_4">
     <g id="line2d_4"/>
     <g id="text_4">
      <!-- 6 -->
      <g style="fill: #6f6e69" transform="translate(310.803078 311.862359) scale(0.105 -0.105)">
       <defs>
        <path id="DejaVuSans-36" d="M 2113 2584 
Q 1688 2584 1439 2293 
Q 1191 2003 1191 1497 
Q 1191 994 1439 701 
Q 1688 409 2113 409 
Q 2538 409 2786 701 
Q 3034 994 3034 1497 
Q 3034 2003 2786 2293 
Q 2538 2584 2113 2584 
z
M 3366 4563 
L 3366 3988 
Q 3128 4100 2886 4159 
Q 2644 4219 2406 4219 
Q 1781 4219 1451 3797 
Q 1122 3375 1075 2522 
Q 1259 2794 1537 2939 
Q 1816 3084 2150 3084 
Q 2853 3084 3261 2657 
Q 3669 2231 3669 1497 
Q 3669 778 3244 343 
Q 2819 -91 2113 -91 
Q 1303 -91 875 529 
Q 447 1150 447 2328 
Q 447 3434 972 4092 
Q 1497 4750 2381 4750 
Q 2619 4750 2861 4703 
Q 3103 4656 3366 4563 
z
" transform="scale(0.015625)"/>
       </defs>
       <use xlink:href="#DejaVuSans-36"/>
      </g>
     </g>
    </g>
    <g id="xtick_5">
     <g id="line2d_5"/>
     <g id="text_5">
      <!-- 8 -->
      <g style="fill: #6f6e69" transform="translate(390.140497 311.862359) scale(0.105 -0.105)">
       <defs>
        <path id="DejaVuSans-38" d="M 2034 2216 
Q 1584 2216 1326 1975 
Q 1069 1734 1069 1313 
Q 1069 891 1326 650 
Q 1584 409 2034 409 
Q 2484 409 2743 651 
Q 3003 894 3003 1313 
Q 3003 1734 2745 1975 
Q 2488 2216 2034 2216 
z
M 1403 2484 
Q 997 2584 770 2862 
Q 544 3141 544 3541 
Q 544 4100 942 4425 
Q 1341 4750 2034 4750 
Q 2731 4750 3128 4425 
Q 3525 4100 3525 3541 
Q 3525 3141 3298 2862 
Q 3072 2584 2669 2484 
Q 3125 2378 3379 2068 
Q 3634 1759 3634 1313 
Q 3634 634 3220 271 
Q 2806 -91 2034 -91 
Q 1263 -91 848 271 
Q 434 634 434 1313 
Q 434 1759 690 2068 
Q 947 2378 1403 2484 
z
M 1172 3481 
Q 1172 3119 1398 2916 
Q 1625 2713 2034 2713 
Q 2441 2713 2670 2916 
Q 2900 3119 2900 3481 
Q 2900 3844 2670 4047 
Q 2441 4250 2034 4250 
Q 1625 4250 1398 4047 
Q 1172 3844 1172 3481 
z
" transform="scale(0.015625)"/>
       </defs>
       <use xlink:href="#DejaVuSans-38"/>
      </g>
     </g>
    </g>
    <g id="text_6">
     <!-- Capital por trabalhador efetivo, $k$ -->
     <g style="fill: #1c1b1a" transform="translate(177.293281 332.026031) scale(0.105 -0.105)">
      <defs>
       <path id="DejaVuSans-43" d="M 4122 4306 
L 4122 3641 
Q 3803 3938 3442 4084 
Q 3081 4231 2675 4231 
Q 1875 4231 1450 3742 
Q 1025 3253 1025 2328 
Q 1025 1406 1450 917 
Q 1875 428 2675 428 
Q 3081 428 3442 575 
Q 3803 722 4122 1019 
L 4122 359 
Q 3791 134 3420 21 
Q 3050 -91 2638 -91 
Q 1578 -91 968 557 
Q 359 1206 359 2328 
Q 359 3453 968 4101 
Q 1578 4750 2638 4750 
Q 3056 4750 3426 4639 
Q 3797 4528 4122 4306 
z
" transform="scale(0.015625)"/>
       <path id="DejaVuSans-61" d="M 2194 1759 
Q 1497 1759 1228 1600 
Q 959 1441 959 1056 
Q 959 750 1161 570 
Q 1363 391 1709 391 
Q 2188 391 2477 730 
Q 2766 1069 2766 1631 
L 2766 1759 
L 2194 1759 
z
M 3341 1997 
L 3341 0 
L 2766 0 
L 2766 531 
Q 2569 213 2275 61 
Q 1981 -91 1556 -91 
Q 1019 -91 701 211 
Q 384 513 384 1019 
Q 384 1609 779 1909 
Q 1175 2209 1959 2209 
L 2766 2209 
L 2766 2266 
Q 2766 2663 2505 2880 
Q 2244 3097 1772 3097 
Q 1472 3097 1187 3025 
Q 903 2953 641 2809 
L 641 3341 
Q 956 3463 1253 3523 
Q 1550 3584 1831 3584 
Q 2591 3584 2966 3190 
Q 3341 2797 3341 1997 
z
" transform="scale(0.015625)"/>
       <path id="DejaVuSans-70" d="M 1159 525 
L 1159 -1331 
L 581 -1331 
L 581 3500 
L 1159 3500 
L 1159 2969 
Q 1341 3281 1617 3432 
Q 1894 3584 2278 3584 
Q 2916 3584 3314 3078 
Q 3713 2572 3713 1747 
Q 3713 922 3314 415 
Q 2916 -91 2278 -91 
Q 1894 -91 1617 61 
Q 1341 213 1159 525 
z
M 3116 1747 
Q 3116 2381 2855 2742 
Q 2594 3103 2138 3103 
Q 1681 3103 1420 2742 
Q 1159 2381 1159 1747 
Q 1159 1113 1420 752 
Q 1681 391 2138 391 
Q 2594 391 2855 752 
Q 3116 1113 3116 1747 
z
" transform="scale(0.015625)"/>
       <path id="DejaVuSans-69" d="M 603 3500 
L 1178 3500 
L 1178 0 
L 603 0 
L 603 3500 
z
M 603 4863 
L 1178 4863 
L 1178 4134 
L 603 4134 
L 603 4863 
z
" transform="scale(0.015625)"/>
       <path id="DejaVuSans-74" d="M 1172 4494 
L 1172 3500 
L 2356 3500 
L 2356 3053 
L 1172 3053 
L 1172 1153 
Q 1172 725 1289 603 
Q 1406 481 1766 481 
L 2356 481 
L 2356 0 
L 1766 0 
Q 1100 0 847 248 
Q 594 497 594 1153 
L 594 3053 
L 172 3053 
L 172 3500 
L 594 3500 
L 594 4494 
L 1172 4494 
z
" transform="scale(0.015625)"/>
       <path id="DejaVuSans-6c" d="M 603 4863 
L 1178 4863 
L 1178 0 
L 603 0 
L 603 4863 
z
" transform="scale(0.015625)"/>
       <path id="DejaVuSans-20" transform="scale(0.015625)"/>
       <path id="DejaVuSans-6f" d="M 1959 3097 
Q 1497 3097 1228 2736 
Q 959 2375 959 1747 
Q 959 1119 1226 758 
Q 1494 397 1959 397 
Q 2419 397 2687 759 
Q 2956 1122 2956 1747 
Q 2956 2369 2687 2733 
Q 2419 3097 1959 3097 
z
M 1959 3584 
Q 2709 3584 3137 3096 
Q 3566 2609 3566 1747 
Q 3566 888 3137 398 
Q 2709 -91 1959 -91 
Q 1206 -91 779 398 
Q 353 888 353 1747 
Q 353 2609 779 3096 
Q 1206 3584 1959 3584 
z
" transform="scale(0.015625)"/>
       <path id="DejaVuSans-72" d="M 2631 2963 
Q 2534 3019 2420 3045 
Q 2306 3072 2169 3072 
Q 1681 3072 1420 2755 
Q 1159 2438 1159 1844 
L 1159 0 
L 581 0 
L 581 3500 
L 1159 3500 
L 1159 2956 
Q 1341 3275 1631 3429 
Q 1922 3584 2338 3584 
Q 2397 3584 2469 3576 
Q 2541 3569 2628 3553 
L 2631 2963 
z
" transform="scale(0.015625)"/>
       <path id="DejaVuSans-62" d="M 3116 1747 
Q 3116 2381 2855 2742 
Q 2594 3103 2138 3103 
Q 1681 3103 1420 2742 
Q 1159 2381 1159 1747 
Q 1159 1113 1420 752 
Q 1681 391 2138 391 
Q 2594 391 2855 752 
Q 3116 1113 3116 1747 
z
M 1159 2969 
Q 1341 3281 1617 3432 
Q 1894 3584 2278 3584 
Q 2916 3584 3314 3078 
Q 3713 2572 3713 1747 
Q 3713 922 3314 415 
Q 2916 -91 2278 -91 
Q 1894 -91 1617 61 
Q 1341 213 1159 525 
L 1159 0 
L 581 0 
L 581 4863 
L 1159 4863 
L 1159 2969 
z
" transform="scale(0.015625)"/>
       <path id="DejaVuSans-68" d="M 3513 2113 
L 3513 0 
L 2938 0 
L 2938 2094 
Q 2938 2591 2744 2837 
Q 2550 3084 2163 3084 
Q 1697 3084 1428 2787 
Q 1159 2491 1159 1978 
L 1159 0 
L 581 0 
L 581 4863 
L 1159 4863 
L 1159 2956 
Q 1366 3272 1645 3428 
Q 1925 3584 2291 3584 
Q 2894 3584 3203 3211 
Q 3513 2838 3513 2113 
z
" transform="scale(0.015625)"/>
       <path id="DejaVuSans-64" d="M 2906 2969 
L 2906 4863 
L 3481 4863 
L 3481 0 
L 2906 0 
L 2906 525 
Q 2725 213 2448 61 
Q 2172 -91 1784 -91 
Q 1150 -91 751 415 
Q 353 922 353 1747 
Q 353 2572 751 3078 
Q 1150 3584 1784 3584 
Q 2172 3584 2448 3432 
Q 2725 3281 2906 2969 
z
M 947 1747 
Q 947 1113 1208 752 
Q 1469 391 1925 391 
Q 2381 391 2643 752 
Q 2906 1113 2906 1747 
Q 2906 2381 2643 2742 
Q 2381 3103 1925 3103 
Q 1469 3103 1208 2742 
Q 947 2381 947 1747 
z
" transform="scale(0.015625)"/>
       <path id="DejaVuSans-65" d="M 3597 1894 
L 3597 1613 
L 953 1613 
Q 991 1019 1311 708 
Q 1631 397 2203 397 
Q 2534 397 2845 478 
Q 3156 559 3463 722 
L 3463 178 
Q 3153 47 2828 -22 
Q 2503 -91 2169 -91 
Q 1331 -91 842 396 
Q 353 884 353 1716 
Q 353 2575 817 3079 
Q 1281 3584 2069 3584 
Q 2775 3584 3186 3129 
Q 3597 2675 3597 1894 
z
M 3022 2063 
Q 3016 2534 2758 2815 
Q 2500 3097 2075 3097 
Q 1594 3097 1305 2825 
Q 1016 2553 972 2059 
L 3022 2063 
z
" transform="scale(0.015625)"/>
       <path id="DejaVuSans-66" d="M 2375 4863 
L 2375 4384 
L 1825 4384 
Q 1516 4384 1395 4259 
Q 1275 4134 1275 3809 
L 1275 3500 
L 2222 3500 
L 2222 3053 
L 1275 3053 
L 1275 0 
L 697 0 
L 697 3053 
L 147 3053 
L 147 3500 
L 697 3500 
L 697 3744 
Q 697 4328 969 4595 
Q 1241 4863 1831 4863 
L 2375 4863 
z
" transform="scale(0.015625)"/>
       <path id="DejaVuSans-76" d="M 191 3500 
L 800 3500 
L 1894 563 
L 2988 3500 
L 3597 3500 
L 2284 0 
L 1503 0 
L 191 3500 
z
" transform="scale(0.015625)"/>
       <path id="DejaVuSans-2c" d="M 750 794 
L 1409 794 
L 1409 256 
L 897 -744 
L 494 -744 
L 750 256 
L 750 794 
z
" transform="scale(0.015625)"/>
       <path id="DejaVuSans-Oblique-6b" d="M 1172 4863 
L 1747 4863 
L 1197 2028 
L 3169 3500 
L 3916 3500 
L 1716 1825 
L 3322 0 
L 2625 0 
L 1131 1709 
L 800 0 
L 225 0 
L 1172 4863 
z
" transform="scale(0.015625)"/>
      </defs>
      <use xlink:href="#DejaVuSans-43" transform="translate(0 0.015625)"/>
      <use xlink:href="#DejaVuSans-61" transform="translate(69.824219 0.015625)"/>
      <use xlink:href="#DejaVuSans-70" transform="translate(131.103516 0.015625)"/>
      <use xlink:href="#DejaVuSans-69" transform="translate(194.580078 0.015625)"/>
      <use xlink:href="#DejaVuSans-74" transform="translate(222.363281 0.015625)"/>
      <use xlink:href="#DejaVuSans-61" transform="translate(261.572266 0.015625)"/>
      <use xlink:href="#DejaVuSans-6c" transform="translate(322.851562 0.015625)"/>
      <use xlink:href="#DejaVuSans-20" transform="translate(350.634766 0.015625)"/>
      <use xlink:href="#DejaVuSans-70" transform="translate(382.421875 0.015625)"/>
      <use xlink:href="#DejaVuSans-6f" transform="translate(445.898438 0.015625)"/>
      <use xlink:href="#DejaVuSans-72" transform="translate(507.080078 0.015625)"/>
      <use xlink:href="#DejaVuSans-20" transform="translate(548.193359 0.015625)"/>
      <use xlink:href="#DejaVuSans-74" transform="translate(579.980469 0.015625)"/>
      <use xlink:href="#DejaVuSans-72" transform="translate(619.189453 0.015625)"/>
      <use xlink:href="#DejaVuSans-61" transform="translate(660.302734 0.015625)"/>
      <use xlink:href="#DejaVuSans-62" transform="translate(721.582031 0.015625)"/>
      <use xlink:href="#DejaVuSans-61" transform="translate(785.058594 0.015625)"/>
      <use xlink:href="#DejaVuSans-6c" transform="translate(846.337891 0.015625)"/>
      <use xlink:href="#DejaVuSans-68" transform="translate(874.121094 0.015625)"/>
      <use xlink:href="#DejaVuSans-61" transform="translate(937.5 0.015625)"/>
      <use xlink:href="#DejaVuSans-64" transform="translate(998.779297 0.015625)"/>
      <use xlink:href="#DejaVuSans-6f" transform="translate(1062.255859 0.015625)"/>
      <use xlink:href="#DejaVuSans-72" transform="translate(1123.4375 0.015625)"/>
      <use xlink:href="#DejaVuSans-20" transform="translate(1164.550781 0.015625)"/>
      <use xlink:href="#DejaVuSans-65" transform="translate(1196.337891 0.015625)"/>
      <use xlink:href="#DejaVuSans-66" transform="translate(1257.861328 0.015625)"/>
      <use xlink:href="#DejaVuSans-65" transform="translate(1293.066406 0.015625)"/>
      <use xlink:href="#DejaVuSans-74" transform="translate(1354.589844 0.015625)"/>
      <use xlink:href="#DejaVuSans-69" transform="translate(1393.798828 0.015625)"/>
      <use xlink:href="#DejaVuSans-76" transform="translate(1421.582031 0.015625)"/>
      <use xlink:href="#DejaVuSans-6f" transform="translate(1480.761719 0.015625)"/>
      <use xlink:href="#DejaVuSans-2c" transform="translate(1541.943359 0.015625)"/>
      <use xlink:href="#DejaVuSans-20" transform="translate(1573.730469 0.015625)"/>
      <use xlink:href="#DejaVuSans-Oblique-6b" transform="translate(1605.517578 0.015625)"/>
     </g>
    </g>
   </g>
   <g id="matplotlib.axis_2">
    <g id="ytick_1">
     <g id="line2d_6">
      <path d="M 57.283281 294.522465 
L 472.023281 294.522465 
" clip-path="url(#p01e30667f8)" style="fill: none; stroke: #cecdc3; stroke-opacity: 0.9; stroke-width: 0.9; stroke-linecap: square"/>
     </g>
     <g id="line2d_7"/>
     <g id="text_7">
      <!-- 0 -->
      <g style="fill: #6f6e69" transform="translate(44.602656 298.511645) scale(0.105 -0.105)">
       <use xlink:href="#DejaVuSans-30"/>
      </g>
     </g>
    </g>
    <g id="ytick_2">
     <g id="line2d_8">
      <path d="M 57.283281 272.5698 
L 472.023281 272.5698 
" clip-path="url(#p01e30667f8)" style="fill: none; stroke: #cecdc3; stroke-opacity: 0.9; stroke-width: 0.9; stroke-linecap: square"/>
     </g>
     <g id="line2d_9"/>
     <g id="text_8">
      <!-- 0,2 -->
      <g style="fill: #6f6e69" transform="translate(34.585 276.558979) scale(0.105 -0.105)">
       <use xlink:href="#DejaVuSans-30"/>
       <use xlink:href="#DejaVuSans-2c" transform="translate(63.623047 0)"/>
       <use xlink:href="#DejaVuSans-32" transform="translate(95.410156 0)"/>
      </g>
     </g>
    </g>
    <g id="ytick_3">
     <g id="line2d_10">
      <path d="M 57.283281 250.617134 
L 472.023281 250.617134 
" clip-path="url(#p01e30667f8)" style="fill: none; stroke: #cecdc3; stroke-opacity: 0.9; stroke-width: 0.9; stroke-linecap: square"/>
     </g>
     <g id="line2d_11"/>
     <g id="text_9">
      <!-- 0,4 -->
      <g style="fill: #6f6e69" transform="translate(34.585 254.606313) scale(0.105 -0.105)">
       <use xlink:href="#DejaVuSans-30"/>
       <use xlink:href="#DejaVuSans-2c" transform="translate(63.623047 0)"/>
       <use xlink:href="#DejaVuSans-34" transform="translate(95.410156 0)"/>
      </g>
     </g>
    </g>
    <g id="ytick_4">
     <g id="line2d_12">
      <path d="M 57.283281 228.664468 
L 472.023281 228.664468 
" clip-path="url(#p01e30667f8)" style="fill: none; stroke: #cecdc3; stroke-opacity: 0.9; stroke-width: 0.9; stroke-linecap: square"/>
     </g>
     <g id="line2d_13"/>
     <g id="text_10">
      <!-- 0,6 -->
      <g style="fill: #6f6e69" transform="translate(34.585 232.653647) scale(0.105 -0.105)">
       <use xlink:href="#DejaVuSans-30"/>
       <use xlink:href="#DejaVuSans-2c" transform="translate(63.623047 0)"/>
       <use xlink:href="#DejaVuSans-36" transform="translate(95.410156 0)"/>
      </g>
     </g>
    </g>
    <g id="ytick_5">
     <g id="line2d_14">
      <path d="M 57.283281 206.711802 
L 472.023281 206.711802 
" clip-path="url(#p01e30667f8)" style="fill: none; stroke: #cecdc3; stroke-opacity: 0.9; stroke-width: 0.9; stroke-linecap: square"/>
     </g>
     <g id="line2d_15"/>
     <g id="text_11">
      <!-- 0,8 -->
      <g style="fill: #6f6e69" transform="translate(34.585 210.700981) scale(0.105 -0.105)">
       <use xlink:href="#DejaVuSans-30"/>
       <use xlink:href="#DejaVuSans-2c" transform="translate(63.623047 0)"/>
       <use xlink:href="#DejaVuSans-38" transform="translate(95.410156 0)"/>
      </g>
     </g>
    </g>
    <g id="ytick_6">
     <g id="line2d_16">
      <path d="M 57.283281 184.759136 
L 472.023281 184.759136 
" clip-path="url(#p01e30667f8)" style="fill: none; stroke: #cecdc3; stroke-opacity: 0.9; stroke-width: 0.9; stroke-linecap: square"/>
     </g>
     <g id="line2d_17"/>
     <g id="text_12">
      <!-- 1 -->
      <g style="fill: #6f6e69" transform="translate(44.602656 188.748316) scale(0.105 -0.105)">
       <defs>
        <path id="DejaVuSans-31" d="M 794 531 
L 1825 531 
L 1825 4091 
L 703 3866 
L 703 4441 
L 1819 4666 
L 2450 4666 
L 2450 531 
L 3481 531 
L 3481 0 
L 794 0 
L 794 531 
z
" transform="scale(0.015625)"/>
       </defs>
       <use xlink:href="#DejaVuSans-31"/>
      </g>
     </g>
    </g>
    <g id="ytick_7">
     <g id="line2d_18">
      <path d="M 57.283281 162.80647 
L 472.023281 162.80647 
" clip-path="url(#p01e30667f8)" style="fill: none; stroke: #cecdc3; stroke-opacity: 0.9; stroke-width: 0.9; stroke-linecap: square"/>
     </g>
     <g id="line2d_19"/>
     <g id="text_13">
      <!-- 1,2 -->
      <g style="fill: #6f6e69" transform="translate(34.585 166.79565) scale(0.105 -0.105)">
       <use xlink:href="#DejaVuSans-31"/>
       <use xlink:href="#DejaVuSans-2c" transform="translate(63.623047 0)"/>
       <use xlink:href="#DejaVuSans-32" transform="translate(95.410156 0)"/>
      </g>
     </g>
    </g>
    <g id="ytick_8">
     <g id="line2d_20">
      <path d="M 57.283281 140.853804 
L 472.023281 140.853804 
" clip-path="url(#p01e30667f8)" style="fill: none; stroke: #cecdc3; stroke-opacity: 0.9; stroke-width: 0.9; stroke-linecap: square"/>
     </g>
     <g id="line2d_21"/>
     <g id="text_14">
      <!-- 1,4 -->
      <g style="fill: #6f6e69" transform="translate(34.585 144.842984) scale(0.105 -0.105)">
       <use xlink:href="#DejaVuSans-31"/>
       <use xlink:href="#DejaVuSans-2c" transform="translate(63.623047 0)"/>
       <use xlink:href="#DejaVuSans-34" transform="translate(95.410156 0)"/>
      </g>
     </g>
    </g>
    <g id="ytick_9">
     <g id="line2d_22">
      <path d="M 57.283281 118.901138 
L 472.023281 118.901138 
" clip-path="url(#p01e30667f8)" style="fill: none; stroke: #cecdc3; stroke-opacity: 0.9; stroke-width: 0.9; stroke-linecap: square"/>
     </g>
     <g id="line2d_23"/>
     <g id="text_15">
      <!-- 1,6 -->
      <g style="fill: #6f6e69" transform="translate(34.585 122.890318) scale(0.105 -0.105)">
       <use xlink:href="#DejaVuSans-31"/>
       <use xlink:href="#DejaVuSans-2c" transform="translate(63.623047 0)"/>
       <use xlink:href="#DejaVuSans-36" transform="translate(95.410156 0)"/>
      </g>
     </g>
    </g>
    <g id="text_16">
     <!-- Consumo por trabalhador efetivo, $c$ -->
     <g style="fill: #1c1b1a" transform="translate(22.38 296.524643) rotate(-90) scale(0.105 -0.105)">
      <defs>
       <path id="DejaVuSans-6e" d="M 3513 2113 
L 3513 0 
L 2938 0 
L 2938 2094 
Q 2938 2591 2744 2837 
Q 2550 3084 2163 3084 
Q 1697 3084 1428 2787 
Q 1159 2491 1159 1978 
L 1159 0 
L 581 0 
L 581 3500 
L 1159 3500 
L 1159 2956 
Q 1366 3272 1645 3428 
Q 1925 3584 2291 3584 
Q 2894 3584 3203 3211 
Q 3513 2838 3513 2113 
z
" transform="scale(0.015625)"/>
       <path id="DejaVuSans-73" d="M 2834 3397 
L 2834 2853 
Q 2591 2978 2328 3040 
Q 2066 3103 1784 3103 
Q 1356 3103 1142 2972 
Q 928 2841 928 2578 
Q 928 2378 1081 2264 
Q 1234 2150 1697 2047 
L 1894 2003 
Q 2506 1872 2764 1633 
Q 3022 1394 3022 966 
Q 3022 478 2636 193 
Q 2250 -91 1575 -91 
Q 1294 -91 989 -36 
Q 684 19 347 128 
L 347 722 
Q 666 556 975 473 
Q 1284 391 1588 391 
Q 1994 391 2212 530 
Q 2431 669 2431 922 
Q 2431 1156 2273 1281 
Q 2116 1406 1581 1522 
L 1381 1569 
Q 847 1681 609 1914 
Q 372 2147 372 2553 
Q 372 3047 722 3315 
Q 1072 3584 1716 3584 
Q 2034 3584 2315 3537 
Q 2597 3491 2834 3397 
z
" transform="scale(0.015625)"/>
       <path id="DejaVuSans-75" d="M 544 1381 
L 544 3500 
L 1119 3500 
L 1119 1403 
Q 1119 906 1312 657 
Q 1506 409 1894 409 
Q 2359 409 2629 706 
Q 2900 1003 2900 1516 
L 2900 3500 
L 3475 3500 
L 3475 0 
L 2900 0 
L 2900 538 
Q 2691 219 2414 64 
Q 2138 -91 1772 -91 
Q 1169 -91 856 284 
Q 544 659 544 1381 
z
M 1991 3584 
L 1991 3584 
z
" transform="scale(0.015625)"/>
       <path id="DejaVuSans-6d" d="M 3328 2828 
Q 3544 3216 3844 3400 
Q 4144 3584 4550 3584 
Q 5097 3584 5394 3201 
Q 5691 2819 5691 2113 
L 5691 0 
L 5113 0 
L 5113 2094 
Q 5113 2597 4934 2840 
Q 4756 3084 4391 3084 
Q 3944 3084 3684 2787 
Q 3425 2491 3425 1978 
L 3425 0 
L 2847 0 
L 2847 2094 
Q 2847 2600 2669 2842 
Q 2491 3084 2119 3084 
Q 1678 3084 1418 2786 
Q 1159 2488 1159 1978 
L 1159 0 
L 581 0 
L 581 3500 
L 1159 3500 
L 1159 2956 
Q 1356 3278 1631 3431 
Q 1906 3584 2284 3584 
Q 2666 3584 2933 3390 
Q 3200 3197 3328 2828 
z
" transform="scale(0.015625)"/>
       <path id="DejaVuSans-Oblique-63" d="M 3431 3366 
L 3316 2797 
Q 3109 2947 2876 3022 
Q 2644 3097 2394 3097 
Q 2119 3097 1870 3000 
Q 1622 2903 1453 2725 
Q 1184 2453 1037 2087 
Q 891 1722 891 1331 
Q 891 859 1127 628 
Q 1363 397 1844 397 
Q 2081 397 2348 469 
Q 2616 541 2906 684 
L 2797 116 
Q 2547 13 2283 -39 
Q 2019 -91 1741 -91 
Q 1044 -91 669 257 
Q 294 606 294 1253 
Q 294 1797 489 2255 
Q 684 2713 1069 3078 
Q 1331 3328 1684 3456 
Q 2038 3584 2456 3584 
Q 2700 3584 2940 3529 
Q 3181 3475 3431 3366 
z
" transform="scale(0.015625)"/>
      </defs>
      <use xlink:href="#DejaVuSans-43" transform="translate(0 0.015625)"/>
      <use xlink:href="#DejaVuSans-6f" transform="translate(69.824219 0.015625)"/>
      <use xlink:href="#DejaVuSans-6e" transform="translate(131.005859 0.015625)"/>
      <use xlink:href="#DejaVuSans-73" transform="translate(194.384766 0.015625)"/>
      <use xlink:href="#DejaVuSans-75" transform="translate(246.484375 0.015625)"/>
      <use xlink:href="#DejaVuSans-6d" transform="translate(309.863281 0.015625)"/>
      <use xlink:href="#DejaVuSans-6f" transform="translate(407.275391 0.015625)"/>
      <use xlink:href="#DejaVuSans-20" transform="translate(468.457031 0.015625)"/>
      <use xlink:href="#DejaVuSans-70" transform="translate(500.244141 0.015625)"/>
      <use xlink:href="#DejaVuSans-6f" transform="translate(563.720703 0.015625)"/>
      <use xlink:href="#DejaVuSans-72" transform="translate(624.902344 0.015625)"/>
      <use xlink:href="#DejaVuSans-20" transform="translate(666.015625 0.015625)"/>
      <use xlink:href="#DejaVuSans-74" transform="translate(697.802734 0.015625)"/>
      <use xlink:href="#DejaVuSans-72" transform="translate(737.011719 0.015625)"/>
      <use xlink:href="#DejaVuSans-61" transform="translate(778.125 0.015625)"/>
      <use xlink:href="#DejaVuSans-62" transform="translate(839.404297 0.015625)"/>
      <use xlink:href="#DejaVuSans-61" transform="translate(902.880859 0.015625)"/>
      <use xlink:href="#DejaVuSans-6c" transform="translate(964.160156 0.015625)"/>
      <use xlink:href="#DejaVuSans-68" transform="translate(991.943359 0.015625)"/>
      <use xlink:href="#DejaVuSans-61" transform="translate(1055.322266 0.015625)"/>
      <use xlink:href="#DejaVuSans-64" transform="translate(1116.601562 0.015625)"/>
      <use xlink:href="#DejaVuSans-6f" transform="translate(1180.078125 0.015625)"/>
      <use xlink:href="#DejaVuSans-72" transform="translate(1241.259766 0.015625)"/>
      <use xlink:href="#DejaVuSans-20" transform="translate(1282.373047 0.015625)"/>
      <use xlink:href="#DejaVuSans-65" transform="translate(1314.160156 0.015625)"/>
      <use xlink:href="#DejaVuSans-66" transform="translate(1375.683594 0.015625)"/>
      <use xlink:href="#DejaVuSans-65" transform="translate(1410.888672 0.015625)"/>
      <use xlink:href="#DejaVuSans-74" transform="translate(1472.412109 0.015625)"/>
      <use xlink:href="#DejaVuSans-69" transform="translate(1511.621094 0.015625)"/>
      <use xlink:href="#DejaVuSans-76" transform="translate(1539.404297 0.015625)"/>
      <use xlink:href="#DejaVuSans-6f" transform="translate(1598.583984 0.015625)"/>
      <use xlink:href="#DejaVuSans-2c" transform="translate(1659.765625 0.015625)"/>
      <use xlink:href="#DejaVuSans-20" transform="translate(1691.552734 0.015625)"/>
      <use xlink:href="#DejaVuSans-Oblique-63" transform="translate(1723.339844 0.015625)"/>
     </g>
    </g>
   </g>
   <g id="line2d_24">
    <path d="M 76.135099 289.26974 
L 77.478791 258.868146 
L 78.822482 249.947238 
L 80.166174 243.786005 
L 81.509865 238.946382 
L 82.853557 234.908888 
L 84.197248 231.41934 
L 85.54094 228.332096 
L 88.228323 223.025685 
L 90.915706 218.543894 
L 93.603089 214.648292 
L 96.290472 211.194627 
L 98.977855 208.088201 
L 101.665238 205.263112 
L 104.352621 202.671433 
L 108.383695 199.144961 
L 112.41477 195.974639 
L 116.445844 193.096519 
L 120.476919 190.463247 
L 125.851685 187.271768 
L 131.226451 184.38716 
L 136.601217 181.760872 
L 141.975983 179.355579 
L 148.694441 176.615548 
L 155.412898 174.130252 
L 162.131356 171.86456 
L 170.193505 169.396613 
L 178.255654 167.166373 
L 187.661494 164.824395 
L 197.067335 162.725838 
L 206.473175 160.839831 
L 217.222707 158.912739 
L 227.972239 157.200236 
L 240.065463 155.499443 
L 253.502378 153.856491 
L 266.939293 152.442337 
L 281.719899 151.119748 
L 296.500506 150.013466 
L 312.624804 149.025536 
L 330.092793 148.184455 
L 348.904474 147.515377 
L 367.716155 147.06477 
L 387.871528 146.798281 
L 409.370592 146.734649 
L 410.714283 146.73768 
L 410.714283 146.73768 
" clip-path="url(#p01e30667f8)" style="fill: none; stroke: #4385be; stroke-width: 2.4; stroke-linecap: square"/>
   </g>
   <g id="line2d_25">
    <path d="M 76.135099 289.26974 
L 77.649302 257.464257 
L 79.163504 248.208888 
L 80.677706 241.825072 
L 82.191908 236.816279 
L 83.706111 232.641988 
L 85.220313 229.037742 
L 86.734515 225.852017 
L 88.248718 222.988956 
L 91.277122 217.989742 
L 94.305527 213.7074 
L 97.333931 209.951339 
L 100.362336 206.600998 
L 103.39074 203.574711 
L 106.419145 200.814293 
L 109.447549 198.276659 
L 113.990156 194.817968 
L 118.532763 191.705186 
L 123.07537 188.87836 
L 127.617976 186.292604 
L 132.160583 183.913336 
L 138.217392 181.015843 
L 144.274201 178.38706 
L 150.33101 175.988163 
L 157.902022 173.26685 
L 165.473033 170.810517 
L 173.044044 168.582622 
L 182.129258 166.17012 
L 191.214471 164.004888 
L 200.299685 162.055105 
L 210.899101 160.018592 
L 221.498517 158.207354 
L 233.612135 156.379037 
L 245.725753 154.777546 
L 259.353573 153.214232 
L 272.981394 151.873828 
L 288.123416 150.615401 
L 303.265439 149.572648 
L 319.921664 148.646773 
L 338.092091 147.871586 
L 356.262518 147.314477 
L 375.947148 146.930281 
L 397.145979 146.744338 
L 419.859013 146.779053 
L 444.086249 147.054087 
L 453.171463 147.215165 
L 453.171463 147.215165 
" clip-path="url(#p01e30667f8)" style="fill: none; stroke: #da702c; stroke-width: 2.4; stroke-linecap: square"/>
   </g>
   <g id="line2d_26">
    <path d="M 235.456443 297.884 
L 235.456443 108.370286 
" clip-path="url(#p01e30667f8)" style="fill: none; stroke-dasharray: 4.44,1.92; stroke-dashoffset: 0; stroke: #4385be; stroke-width: 1.2"/>
   </g>
   <g id="line2d_27">
    <path d="M 255.674147 297.884 
L 255.674147 108.370286 
" clip-path="url(#p01e30667f8)" style="fill: none; stroke-dasharray: 4.44,1.92; stroke-dashoffset: 0; stroke: #da702c; stroke-width: 1.2"/>
   </g>
   <g id="line2d_28">
    <path d="M 147.827522 197.810361 
L 186.065596 177.624725 
L 224.303671 160.660972 
L 262.541745 145.682948 
L 300.77982 132.084512 
L 339.017894 119.51563 
" clip-path="url(#p01e30667f8)" style="fill: none; stroke: #4385be; stroke-width: 2; stroke-linecap: square"/>
   </g>
   <g id="line2d_29">
    <path d="M 156.925489 195.578082 
L 200.015813 175.221183 
L 243.106136 158.168794 
L 286.19646 143.149803 
L 329.286783 129.541498 
L 372.377107 116.984545 
" clip-path="url(#p01e30667f8)" style="fill: none; stroke: #100f0f; stroke-width: 2.2; stroke-linecap: square"/>
   </g>
   <g id="patch_3">
    <path d="M 57.283281 297.884 
L 57.283281 108.370286 
" style="fill: none; stroke: #cecdc3; stroke-width: 0.8; stroke-linejoin: miter; stroke-linecap: square"/>
   </g>
   <g id="patch_4">
    <path d="M 57.283281 297.884 
L 472.023281 297.884 
" style="fill: none; stroke: #cecdc3; stroke-width: 0.8; stroke-linejoin: miter; stroke-linecap: square"/>
   </g>
   <g id="legend_1">
    <g id="patch_5">
     <path d="M 329.143281 288.384 
L 460.623281 288.384 
Q 462.523281 288.384 462.523281 286.484 
L 462.523281 209.100562 
Q 462.523281 207.200562 460.623281 207.200562 
L 329.143281 207.200562 
Q 327.243281 207.200562 327.243281 209.100562 
L 327.243281 286.484 
Q 327.243281 288.384 329.143281 288.384 
z
" style="fill: #fffcf0; opacity: 0.96; stroke: #cecdc3; stroke-width: 0.8; stroke-linejoin: miter"/>
    </g>
    <g id="line2d_30">
     <path d="M 334.368281 219.569859 
L 347.668281 219.569859 
L 360.968281 219.569859 
" style="fill: none; stroke: #4385be; stroke-width: 2.4; stroke-linecap: square"/>
    </g>
    <g id="text_17">
     <!-- $\dot{k}=0$ inicial -->
     <g style="fill: #1c1b1a" transform="translate(368.568281 222.894859) scale(0.095 -0.095)">
      <defs>
       <path id="DejaVuSans-307" d="M -1894 4863 
L -1319 4863 
L -1319 4134 
L -1894 4134 
L -1894 4863 
z
M -1600 3584 
L -1600 3584 
z
" transform="scale(0.015625)"/>
       <path id="DejaVuSans-3d" d="M 678 2906 
L 4684 2906 
L 4684 2381 
L 678 2381 
L 678 2906 
z
M 678 1631 
L 4684 1631 
L 4684 1100 
L 678 1100 
L 678 1631 
z
" transform="scale(0.015625)"/>
       <path id="DejaVuSans-63" d="M 3122 3366 
L 3122 2828 
Q 2878 2963 2633 3030 
Q 2388 3097 2138 3097 
Q 1578 3097 1268 2742 
Q 959 2388 959 1747 
Q 959 1106 1268 751 
Q 1578 397 2138 397 
Q 2388 397 2633 464 
Q 2878 531 3122 666 
L 3122 134 
Q 2881 22 2623 -34 
Q 2366 -91 2075 -91 
Q 1284 -91 818 406 
Q 353 903 353 1747 
Q 353 2603 823 3093 
Q 1294 3584 2113 3584 
Q 2378 3584 2631 3529 
Q 2884 3475 3122 3366 
z
" transform="scale(0.015625)"/>
      </defs>
      <use xlink:href="#DejaVuSans-307" transform="translate(61.071289 33.015625)"/>
      <use xlink:href="#DejaVuSans-Oblique-6b" transform="translate(0 0.53125)"/>
      <use xlink:href="#DejaVuSans-3d" transform="translate(77.392578 0.53125)"/>
      <use xlink:href="#DejaVuSans-30" transform="translate(180.664062 0.53125)"/>
      <use xlink:href="#DejaVuSans-20" transform="translate(244.287109 0.53125)"/>
      <use xlink:href="#DejaVuSans-69" transform="translate(276.074219 0.53125)"/>
      <use xlink:href="#DejaVuSans-6e" transform="translate(303.857422 0.53125)"/>
      <use xlink:href="#DejaVuSans-69" transform="translate(367.236328 0.53125)"/>
      <use xlink:href="#DejaVuSans-63" transform="translate(395.019531 0.53125)"/>
      <use xlink:href="#DejaVuSans-69" transform="translate(450 0.53125)"/>
      <use xlink:href="#DejaVuSans-61" transform="translate(477.783203 0.53125)"/>
      <use xlink:href="#DejaVuSans-6c" transform="translate(539.0625 0.53125)"/>
     </g>
    </g>
    <g id="line2d_31">
     <path d="M 334.368281 240.450562 
L 347.668281 240.450562 
L 360.968281 240.450562 
" style="fill: none; stroke: #da702c; stroke-width: 2.4; stroke-linecap: square"/>
    </g>
    <g id="text_18">
     <!-- $\dot{k}=0$ apos choque -->
     <g style="fill: #1c1b1a" transform="translate(368.568281 243.775562) scale(0.095 -0.095)">
      <defs>
       <path id="DejaVuSans-71" d="M 947 1747 
Q 947 1113 1208 752 
Q 1469 391 1925 391 
Q 2381 391 2643 752 
Q 2906 1113 2906 1747 
Q 2906 2381 2643 2742 
Q 2381 3103 1925 3103 
Q 1469 3103 1208 2742 
Q 947 2381 947 1747 
z
M 2906 525 
Q 2725 213 2448 61 
Q 2172 -91 1784 -91 
Q 1150 -91 751 415 
Q 353 922 353 1747 
Q 353 2572 751 3078 
Q 1150 3584 1784 3584 
Q 2172 3584 2448 3432 
Q 2725 3281 2906 2969 
L 2906 3500 
L 3481 3500 
L 3481 -1331 
L 2906 -1331 
L 2906 525 
z
" transform="scale(0.015625)"/>
      </defs>
      <use xlink:href="#DejaVuSans-307" transform="translate(61.071289 33.015625)"/>
      <use xlink:href="#DejaVuSans-Oblique-6b" transform="translate(0 0.53125)"/>
      <use xlink:href="#DejaVuSans-3d" transform="translate(77.392578 0.53125)"/>
      <use xlink:href="#DejaVuSans-30" transform="translate(180.664062 0.53125)"/>
      <use xlink:href="#DejaVuSans-20" transform="translate(244.287109 0.53125)"/>
      <use xlink:href="#DejaVuSans-61" transform="translate(276.074219 0.53125)"/>
      <use xlink:href="#DejaVuSans-70" transform="translate(337.353516 0.53125)"/>
      <use xlink:href="#DejaVuSans-6f" transform="translate(400.830078 0.53125)"/>
      <use xlink:href="#DejaVuSans-73" transform="translate(462.011719 0.53125)"/>
      <use xlink:href="#DejaVuSans-20" transform="translate(514.111328 0.53125)"/>
      <use xlink:href="#DejaVuSans-63" transform="translate(545.898438 0.53125)"/>
      <use xlink:href="#DejaVuSans-68" transform="translate(600.878906 0.53125)"/>
      <use xlink:href="#DejaVuSans-6f" transform="translate(664.257812 0.53125)"/>
      <use xlink:href="#DejaVuSans-71" transform="translate(725.439453 0.53125)"/>
      <use xlink:href="#DejaVuSans-75" transform="translate(788.916016 0.53125)"/>
      <use xlink:href="#DejaVuSans-65" transform="translate(852.294922 0.53125)"/>
     </g>
    </g>
    <g id="line2d_32">
     <path d="M 334.368281 258.214078 
L 347.668281 258.214078 
L 360.968281 258.214078 
" style="fill: none; stroke: #4385be; stroke-width: 2; stroke-linecap: square"/>
    </g>
    <g id="text_19">
     <!-- Trajetoria inicial -->
     <g style="fill: #1c1b1a" transform="translate(368.568281 261.539078) scale(0.095 -0.095)">
      <defs>
       <path id="DejaVuSans-54" d="M -19 4666 
L 3928 4666 
L 3928 4134 
L 2272 4134 
L 2272 0 
L 1638 0 
L 1638 4134 
L -19 4134 
L -19 4666 
z
" transform="scale(0.015625)"/>
       <path id="DejaVuSans-6a" d="M 603 3500 
L 1178 3500 
L 1178 -63 
Q 1178 -731 923 -1031 
Q 669 -1331 103 -1331 
L -116 -1331 
L -116 -844 
L 38 -844 
Q 366 -844 484 -692 
Q 603 -541 603 -63 
L 603 3500 
z
M 603 4863 
L 1178 4863 
L 1178 4134 
L 603 4134 
L 603 4863 
z
" transform="scale(0.015625)"/>
      </defs>
      <use xlink:href="#DejaVuSans-54"/>
      <use xlink:href="#DejaVuSans-72" transform="translate(46.333984 0)"/>
      <use xlink:href="#DejaVuSans-61" transform="translate(87.447266 0)"/>
      <use xlink:href="#DejaVuSans-6a" transform="translate(148.726562 0)"/>
      <use xlink:href="#DejaVuSans-65" transform="translate(176.509766 0)"/>
      <use xlink:href="#DejaVuSans-74" transform="translate(238.033203 0)"/>
      <use xlink:href="#DejaVuSans-6f" transform="translate(277.242188 0)"/>
      <use xlink:href="#DejaVuSans-72" transform="translate(338.423828 0)"/>
      <use xlink:href="#DejaVuSans-69" transform="translate(379.537109 0)"/>
      <use xlink:href="#DejaVuSans-61" transform="translate(407.320312 0)"/>
      <use xlink:href="#DejaVuSans-20" transform="translate(468.599609 0)"/>
      <use xlink:href="#DejaVuSans-69" transform="translate(500.386719 0)"/>
      <use xlink:href="#DejaVuSans-6e" transform="translate(528.169922 0)"/>
      <use xlink:href="#DejaVuSans-69" transform="translate(591.548828 0)"/>
      <use xlink:href="#DejaVuSans-63" transform="translate(619.332031 0)"/>
      <use xlink:href="#DejaVuSans-69" transform="translate(674.3125 0)"/>
      <use xlink:href="#DejaVuSans-61" transform="translate(702.095703 0)"/>
      <use xlink:href="#DejaVuSans-6c" transform="translate(763.375 0)"/>
     </g>
    </g>
    <g id="line2d_33">
     <path d="M 334.368281 275.958297 
L 347.668281 275.958297 
L 360.968281 275.958297 
" style="fill: none; stroke: #100f0f; stroke-width: 2.2; stroke-linecap: square"/>
    </g>
    <g id="text_20">
     <!-- Nova trajetoria -->
     <g style="fill: #1c1b1a" transform="translate(368.568281 279.283297) scale(0.095 -0.095)">
      <defs>
       <path id="DejaVuSans-4e" d="M 628 4666 
L 1478 4666 
L 3547 763 
L 3547 4666 
L 4159 4666 
L 4159 0 
L 3309 0 
L 1241 3903 
L 1241 0 
L 628 0 
L 628 4666 
z
" transform="scale(0.015625)"/>
      </defs>
      <use xlink:href="#DejaVuSans-4e"/>
      <use xlink:href="#DejaVuSans-6f" transform="translate(74.804688 0)"/>
      <use xlink:href="#DejaVuSans-76" transform="translate(135.986328 0)"/>
      <use xlink:href="#DejaVuSans-61" transform="translate(195.166016 0)"/>
      <use xlink:href="#DejaVuSans-20" transform="translate(256.445312 0)"/>
      <use xlink:href="#DejaVuSans-74" transform="translate(288.232422 0)"/>
      <use xlink:href="#DejaVuSans-72" transform="translate(327.441406 0)"/>
      <use xlink:href="#DejaVuSans-61" transform="translate(368.554688 0)"/>
      <use xlink:href="#DejaVuSans-6a" transform="translate(429.833984 0)"/>
      <use xlink:href="#DejaVuSans-65" transform="translate(457.617188 0)"/>
      <use xlink:href="#DejaVuSans-74" transform="translate(519.140625 0)"/>
      <use xlink:href="#DejaVuSans-6f" transform="translate(558.349609 0)"/>
      <use xlink:href="#DejaVuSans-72" transform="translate(619.53125 0)"/>
      <use xlink:href="#DejaVuSans-69" transform="translate(660.644531 0)"/>
      <use xlink:href="#DejaVuSans-61" transform="translate(688.427734 0)"/>
     </g>
    </g>
   </g>
  </g>
  <g id="axes_2">
   <g id="patch_6">
    <path d="M 525.78471 297.884 
L 940.52471 297.884 
L 940.52471 108.370286 
L 525.78471 108.370286 
z
" style="fill: #fffcf0"/>
   </g>
   <g id="matplotlib.axis_3">
    <g id="xtick_6">
     <g id="line2d_34"/>
     <g id="text_21">
      <!-- 0 -->
      <g style="fill: #6f6e69" transform="translate(541.296216 311.862359) scale(0.105 -0.105)">
       <use xlink:href="#DejaVuSans-30"/>
      </g>
     </g>
    </g>
    <g id="xtick_7">
     <g id="line2d_35"/>
     <g id="text_22">
      <!-- 10 -->
      <g style="fill: #6f6e69" transform="translate(585.085448 311.862359) scale(0.105 -0.105)">
       <use xlink:href="#DejaVuSans-31"/>
       <use xlink:href="#DejaVuSans-30" transform="translate(63.623047 0)"/>
      </g>
     </g>
    </g>
    <g id="xtick_8">
     <g id="line2d_36"/>
     <g id="text_23">
      <!-- 20 -->
      <g style="fill: #6f6e69" transform="translate(632.214994 311.862359) scale(0.105 -0.105)">
       <use xlink:href="#DejaVuSans-32"/>
       <use xlink:href="#DejaVuSans-30" transform="translate(63.623047 0)"/>
      </g>
     </g>
    </g>
    <g id="xtick_9">
     <g id="line2d_37"/>
     <g id="text_24">
      <!-- 30 -->
      <g style="fill: #6f6e69" transform="translate(679.344539 311.862359) scale(0.105 -0.105)">
       <defs>
        <path id="DejaVuSans-33" d="M 2597 2516 
Q 3050 2419 3304 2112 
Q 3559 1806 3559 1356 
Q 3559 666 3084 287 
Q 2609 -91 1734 -91 
Q 1441 -91 1130 -33 
Q 819 25 488 141 
L 488 750 
Q 750 597 1062 519 
Q 1375 441 1716 441 
Q 2309 441 2620 675 
Q 2931 909 2931 1356 
Q 2931 1769 2642 2001 
Q 2353 2234 1838 2234 
L 1294 2234 
L 1294 2753 
L 1863 2753 
Q 2328 2753 2575 2939 
Q 2822 3125 2822 3475 
Q 2822 3834 2567 4026 
Q 2313 4219 1838 4219 
Q 1578 4219 1281 4162 
Q 984 4106 628 3988 
L 628 4550 
Q 988 4650 1302 4700 
Q 1616 4750 1894 4750 
Q 2613 4750 3031 4423 
Q 3450 4097 3450 3541 
Q 3450 3153 3228 2886 
Q 3006 2619 2597 2516 
z
" transform="scale(0.015625)"/>
       </defs>
       <use xlink:href="#DejaVuSans-33"/>
       <use xlink:href="#DejaVuSans-30" transform="translate(63.623047 0)"/>
      </g>
     </g>
    </g>
    <g id="xtick_10">
     <g id="line2d_38"/>
     <g id="text_25">
      <!-- 40 -->
      <g style="fill: #6f6e69" transform="translate(726.474085 311.862359) scale(0.105 -0.105)">
       <use xlink:href="#DejaVuSans-34"/>
       <use xlink:href="#DejaVuSans-30" transform="translate(63.623047 0)"/>
      </g>
     </g>
    </g>
    <g id="xtick_11">
     <g id="line2d_39"/>
     <g id="text_26">
      <!-- 50 -->
      <g style="fill: #6f6e69" transform="translate(773.60363 311.862359) scale(0.105 -0.105)">
       <defs>
        <path id="DejaVuSans-35" d="M 691 4666 
L 3169 4666 
L 3169 4134 
L 1269 4134 
L 1269 2991 
Q 1406 3038 1543 3061 
Q 1681 3084 1819 3084 
Q 2600 3084 3056 2656 
Q 3513 2228 3513 1497 
Q 3513 744 3044 326 
Q 2575 -91 1722 -91 
Q 1428 -91 1123 -41 
Q 819 9 494 109 
L 494 744 
Q 775 591 1075 516 
Q 1375 441 1709 441 
Q 2250 441 2565 725 
Q 2881 1009 2881 1497 
Q 2881 1984 2565 2268 
Q 2250 2553 1709 2553 
Q 1456 2553 1204 2497 
Q 953 2441 691 2322 
L 691 4666 
z
" transform="scale(0.015625)"/>
       </defs>
       <use xlink:href="#DejaVuSans-35"/>
       <use xlink:href="#DejaVuSans-30" transform="translate(63.623047 0)"/>
      </g>
     </g>
    </g>
    <g id="xtick_12">
     <g id="line2d_40"/>
     <g id="text_27">
      <!-- 60 -->
      <g style="fill: #6f6e69" transform="translate(820.733176 311.862359) scale(0.105 -0.105)">
       <use xlink:href="#DejaVuSans-36"/>
       <use xlink:href="#DejaVuSans-30" transform="translate(63.623047 0)"/>
      </g>
     </g>
    </g>
    <g id="xtick_13">
     <g id="line2d_41"/>
     <g id="text_28">
      <!-- 70 -->
      <g style="fill: #6f6e69" transform="translate(867.862721 311.862359) scale(0.105 -0.105)">
       <defs>
        <path id="DejaVuSans-37" d="M 525 4666 
L 3525 4666 
L 3525 4397 
L 1831 0 
L 1172 0 
L 2766 4134 
L 525 4134 
L 525 4666 
z
" transform="scale(0.015625)"/>
       </defs>
       <use xlink:href="#DejaVuSans-37"/>
       <use xlink:href="#DejaVuSans-30" transform="translate(63.623047 0)"/>
      </g>
     </g>
    </g>
    <g id="xtick_14">
     <g id="line2d_42"/>
     <g id="text_29">
      <!-- 80 -->
      <g style="fill: #6f6e69" transform="translate(914.992267 311.862359) scale(0.105 -0.105)">
       <use xlink:href="#DejaVuSans-38"/>
       <use xlink:href="#DejaVuSans-30" transform="translate(63.623047 0)"/>
      </g>
     </g>
    </g>
    <g id="text_30">
     <!-- Tempo -->
     <g style="fill: #1c1b1a" transform="translate(715.951116 332.024391) scale(0.105 -0.105)">
      <use xlink:href="#DejaVuSans-54"/>
      <use xlink:href="#DejaVuSans-65" transform="translate(44.083984 0)"/>
      <use xlink:href="#DejaVuSans-6d" transform="translate(105.607422 0)"/>
      <use xlink:href="#DejaVuSans-70" transform="translate(203.019531 0)"/>
      <use xlink:href="#DejaVuSans-6f" transform="translate(266.496094 0)"/>
     </g>
    </g>
   </g>
   <g id="matplotlib.axis_4">
    <g id="ytick_10">
     <g id="line2d_43">
      <path d="M 525.78471 274.502094 
L 940.52471 274.502094 
" clip-path="url(#p704aad1c01)" style="fill: none; stroke: #cecdc3; stroke-opacity: 0.9; stroke-width: 0.9; stroke-linecap: square"/>
     </g>
     <g id="line2d_44"/>
     <g id="text_31">
      <!-- 1,5 -->
      <g style="fill: #6f6e69" transform="translate(503.086429 278.491274) scale(0.105 -0.105)">
       <use xlink:href="#DejaVuSans-31"/>
       <use xlink:href="#DejaVuSans-2c" transform="translate(63.623047 0)"/>
       <use xlink:href="#DejaVuSans-35" transform="translate(95.410156 0)"/>
      </g>
     </g>
    </g>
    <g id="ytick_11">
     <g id="line2d_45">
      <path d="M 525.78471 248.475663 
L 940.52471 248.475663 
" clip-path="url(#p704aad1c01)" style="fill: none; stroke: #cecdc3; stroke-opacity: 0.9; stroke-width: 0.9; stroke-linecap: square"/>
     </g>
     <g id="line2d_46"/>
     <g id="text_32">
      <!-- 2 -->
      <g style="fill: #6f6e69" transform="translate(513.104085 252.464843) scale(0.105 -0.105)">
       <use xlink:href="#DejaVuSans-32"/>
      </g>
     </g>
    </g>
    <g id="ytick_12">
     <g id="line2d_47">
      <path d="M 525.78471 222.449233 
L 940.52471 222.449233 
" clip-path="url(#p704aad1c01)" style="fill: none; stroke: #cecdc3; stroke-opacity: 0.9; stroke-width: 0.9; stroke-linecap: square"/>
     </g>
     <g id="line2d_48"/>
     <g id="text_33">
      <!-- 2,5 -->
      <g style="fill: #6f6e69" transform="translate(503.086429 226.438412) scale(0.105 -0.105)">
       <use xlink:href="#DejaVuSans-32"/>
       <use xlink:href="#DejaVuSans-2c" transform="translate(63.623047 0)"/>
       <use xlink:href="#DejaVuSans-35" transform="translate(95.410156 0)"/>
      </g>
     </g>
    </g>
    <g id="ytick_13">
     <g id="line2d_49">
      <path d="M 525.78471 196.422802 
L 940.52471 196.422802 
" clip-path="url(#p704aad1c01)" style="fill: none; stroke: #cecdc3; stroke-opacity: 0.9; stroke-width: 0.9; stroke-linecap: square"/>
     </g>
     <g id="line2d_50"/>
     <g id="text_34">
      <!-- 3 -->
      <g style="fill: #6f6e69" transform="translate(513.104085 200.411982) scale(0.105 -0.105)">
       <use xlink:href="#DejaVuSans-33"/>
      </g>
     </g>
    </g>
    <g id="ytick_14">
     <g id="line2d_51">
      <path d="M 525.78471 170.396371 
L 940.52471 170.396371 
" clip-path="url(#p704aad1c01)" style="fill: none; stroke: #cecdc3; stroke-opacity: 0.9; stroke-width: 0.9; stroke-linecap: square"/>
     </g>
     <g id="line2d_52"/>
     <g id="text_35">
      <!-- 3,5 -->
      <g style="fill: #6f6e69" transform="translate(503.086429 174.385551) scale(0.105 -0.105)">
       <use xlink:href="#DejaVuSans-33"/>
       <use xlink:href="#DejaVuSans-2c" transform="translate(63.623047 0)"/>
       <use xlink:href="#DejaVuSans-35" transform="translate(95.410156 0)"/>
      </g>
     </g>
    </g>
    <g id="ytick_15">
     <g id="line2d_53">
      <path d="M 525.78471 144.369941 
L 940.52471 144.369941 
" clip-path="url(#p704aad1c01)" style="fill: none; stroke: #cecdc3; stroke-opacity: 0.9; stroke-width: 0.9; stroke-linecap: square"/>
     </g>
     <g id="line2d_54"/>
     <g id="text_36">
      <!-- 4 -->
      <g style="fill: #6f6e69" transform="translate(513.104085 148.359121) scale(0.105 -0.105)">
       <use xlink:href="#DejaVuSans-34"/>
      </g>
     </g>
    </g>
    <g id="ytick_16">
     <g id="line2d_55">
      <path d="M 525.78471 118.34351 
L 940.52471 118.34351 
" clip-path="url(#p704aad1c01)" style="fill: none; stroke: #cecdc3; stroke-opacity: 0.9; stroke-width: 0.9; stroke-linecap: square"/>
     </g>
     <g id="line2d_56"/>
     <g id="text_37">
      <!-- 4,5 -->
      <g style="fill: #6f6e69" transform="translate(503.086429 122.33269) scale(0.105 -0.105)">
       <use xlink:href="#DejaVuSans-34"/>
       <use xlink:href="#DejaVuSans-2c" transform="translate(63.623047 0)"/>
       <use xlink:href="#DejaVuSans-35" transform="translate(95.410156 0)"/>
      </g>
     </g>
    </g>
    <g id="text_38">
     <!-- Nível -->
     <g style="fill: #1c1b1a" transform="translate(490.902757 216.309565) rotate(-90) scale(0.105 -0.105)">
      <defs>
       <path id="DejaVuSans-ed" d="M 1322 5119 
L 1944 5119 
L 926 3944 
L 447 3944 
L 1322 5119 
z
M 603 3500 
L 1178 3500 
L 1178 0 
L 603 0 
L 603 3500 
z
M 891 3584 
L 891 3584 
z
" transform="scale(0.015625)"/>
      </defs>
      <use xlink:href="#DejaVuSans-4e"/>
      <use xlink:href="#DejaVuSans-ed" transform="translate(74.804688 0)"/>
      <use xlink:href="#DejaVuSans-76" transform="translate(102.587891 0)"/>
      <use xlink:href="#DejaVuSans-65" transform="translate(161.767578 0)"/>
      <use xlink:href="#DejaVuSans-6c" transform="translate(223.291016 0)"/>
     </g>
    </g>
   </g>
   <g id="line2d_57">
    <path d="M 544.636528 143.516399 
L 550.059815 140.972876 
L 555.718898 138.575531 
L 561.613775 136.330259 
L 567.744448 134.240426 
L 574.110915 132.30707 
L 580.948973 130.469568 
L 588.022826 128.798996 
L 595.568269 127.243462 
L 603.821098 125.774702 
L 612.545517 124.449285 
L 622.213116 123.212097 
L 632.5881 122.11107 
L 644.14206 121.112089 
L 657.11079 120.220506 
L 671.730086 119.444016 
L 688.707334 118.772902 
L 708.749917 118.212282 
L 733.272607 117.759602 
L 764.633356 117.415134 
L 808.255449 117.174504 
L 880.408749 117.027493 
L 921.672892 116.984545 
L 921.672892 116.984545 
" clip-path="url(#p704aad1c01)" style="fill: none; stroke: #3aa99f; stroke-width: 2.4; stroke-linecap: square"/>
   </g>
   <g id="line2d_58">
    <path d="M 544.636528 289.26974 
L 558.312644 288.462958 
L 574.110915 287.761076 
L 592.738728 287.165203 
L 615.139263 286.679397 
L 643.434675 286.298311 
L 681.633481 286.0212 
L 739.167485 285.847295 
L 852.349132 285.769157 
L 921.672892 285.763304 
L 921.672892 285.763304 
" clip-path="url(#p704aad1c01)" style="fill: none; stroke: #da702c; stroke-width: 2.4; stroke-linecap: square"/>
   </g>
   <g id="line2d_59">
    <path d="M 525.78471 116.986941 
L 940.52471 116.986941 
" clip-path="url(#p704aad1c01)" style="fill: none; stroke-dasharray: 1,1.65; stroke-dashoffset: 0; stroke: #3aa99f"/>
   </g>
   <g id="line2d_60">
    <path d="M 525.78471 285.758234 
L 940.52471 285.758234 
" clip-path="url(#p704aad1c01)" style="fill: none; stroke-dasharray: 1,1.65; stroke-dashoffset: 0; stroke: #da702c"/>
   </g>
   <g id="patch_7">
    <path d="M 525.78471 297.884 
L 525.78471 108.370286 
" style="fill: none; stroke: #cecdc3; stroke-width: 0.8; stroke-linejoin: miter; stroke-linecap: square"/>
   </g>
   <g id="patch_8">
    <path d="M 525.78471 297.884 
L 940.52471 297.884 
" style="fill: none; stroke: #cecdc3; stroke-width: 0.8; stroke-linejoin: miter; stroke-linecap: square"/>
   </g>
   <g id="legend_2">
    <g id="patch_9">
     <path d="M 839.971663 159.058723 
L 929.12471 159.058723 
Q 931.02471 159.058723 931.02471 157.158723 
L 931.02471 119.770286 
Q 931.02471 117.870286 929.12471 117.870286 
L 839.971663 117.870286 
Q 838.071663 117.870286 838.071663 119.770286 
L 838.071663 157.158723 
Q 838.071663 159.058723 839.971663 159.058723 
z
" style="fill: #fffcf0; opacity: 0.96; stroke: #cecdc3; stroke-width: 0.8; stroke-linejoin: miter"/>
    </g>
    <g id="line2d_61">
     <path d="M 845.196663 128.888801 
L 858.496663 128.888801 
L 871.796663 128.888801 
" style="fill: none; stroke: #3aa99f; stroke-width: 2.4; stroke-linecap: square"/>
    </g>
    <g id="text_39">
     <!-- Capital -->
     <g style="fill: #1c1b1a" transform="translate(879.396663 132.213801) scale(0.095 -0.095)">
      <use xlink:href="#DejaVuSans-43"/>
      <use xlink:href="#DejaVuSans-61" transform="translate(69.824219 0)"/>
      <use xlink:href="#DejaVuSans-70" transform="translate(131.103516 0)"/>
      <use xlink:href="#DejaVuSans-69" transform="translate(194.580078 0)"/>
      <use xlink:href="#DejaVuSans-74" transform="translate(222.363281 0)"/>
      <use xlink:href="#DejaVuSans-61" transform="translate(261.572266 0)"/>
      <use xlink:href="#DejaVuSans-6c" transform="translate(322.851562 0)"/>
     </g>
    </g>
    <g id="line2d_62">
     <path d="M 845.196663 146.63302 
L 858.496663 146.63302 
L 871.796663 146.63302 
" style="fill: none; stroke: #da702c; stroke-width: 2.4; stroke-linecap: square"/>
    </g>
    <g id="text_40">
     <!-- Consumo -->
     <g style="fill: #1c1b1a" transform="translate(879.396663 149.95802) scale(0.095 -0.095)">
      <use xlink:href="#DejaVuSans-43"/>
      <use xlink:href="#DejaVuSans-6f" transform="translate(69.824219 0)"/>
      <use xlink:href="#DejaVuSans-6e" transform="translate(131.005859 0)"/>
      <use xlink:href="#DejaVuSans-73" transform="translate(194.384766 0)"/>
      <use xlink:href="#DejaVuSans-75" transform="translate(246.484375 0)"/>
      <use xlink:href="#DejaVuSans-6d" transform="translate(309.863281 0)"/>
      <use xlink:href="#DejaVuSans-6f" transform="translate(407.275391 0)"/>
     </g>
    </g>
   </g>
  </g>
  <g id="text_41">
   <!-- Queda em rho no modelo RCK -->
   <g style="fill: #1c1b1a" transform="translate(15.72071 26.5575) scale(0.16 -0.16)">
    <defs>
     <path id="DejaVuSans-Bold-51" d="M 2847 -84 
L 2753 -84 
Q 1600 -84 959 553 
Q 319 1191 319 2328 
Q 319 3463 958 4106 
Q 1597 4750 2719 4750 
Q 3853 4750 4486 4112 
Q 5119 3475 5119 2328 
Q 5119 1541 4783 972 
Q 4447 403 3816 116 
L 4756 -934 
L 3609 -934 
L 2847 -84 
z
M 2719 3878 
Q 2169 3878 1866 3472 
Q 1563 3066 1563 2328 
Q 1563 1578 1859 1179 
Q 2156 781 2719 781 
Q 3272 781 3575 1187 
Q 3878 1594 3878 2328 
Q 3878 3066 3575 3472 
Q 3272 3878 2719 3878 
z
" transform="scale(0.015625)"/>
     <path id="DejaVuSans-Bold-75" d="M 500 1363 
L 500 3500 
L 1625 3500 
L 1625 3150 
Q 1625 2866 1622 2436 
Q 1619 2006 1619 1863 
Q 1619 1441 1641 1255 
Q 1663 1069 1716 984 
Q 1784 875 1895 815 
Q 2006 756 2150 756 
Q 2500 756 2700 1025 
Q 2900 1294 2900 1772 
L 2900 3500 
L 4019 3500 
L 4019 0 
L 2900 0 
L 2900 506 
Q 2647 200 2364 54 
Q 2081 -91 1741 -91 
Q 1134 -91 817 281 
Q 500 653 500 1363 
z
" transform="scale(0.015625)"/>
     <path id="DejaVuSans-Bold-65" d="M 4031 1759 
L 4031 1441 
L 1416 1441 
Q 1456 1047 1700 850 
Q 1944 653 2381 653 
Q 2734 653 3104 758 
Q 3475 863 3866 1075 
L 3866 213 
Q 3469 63 3072 -14 
Q 2675 -91 2278 -91 
Q 1328 -91 801 392 
Q 275 875 275 1747 
Q 275 2603 792 3093 
Q 1309 3584 2216 3584 
Q 3041 3584 3536 3087 
Q 4031 2591 4031 1759 
z
M 2881 2131 
Q 2881 2450 2695 2645 
Q 2509 2841 2209 2841 
Q 1884 2841 1681 2658 
Q 1478 2475 1428 2131 
L 2881 2131 
z
" transform="scale(0.015625)"/>
     <path id="DejaVuSans-Bold-64" d="M 2919 2988 
L 2919 4863 
L 4044 4863 
L 4044 0 
L 2919 0 
L 2919 506 
Q 2688 197 2409 53 
Q 2131 -91 1766 -91 
Q 1119 -91 703 423 
Q 288 938 288 1747 
Q 288 2556 703 3070 
Q 1119 3584 1766 3584 
Q 2128 3584 2408 3439 
Q 2688 3294 2919 2988 
z
M 2181 722 
Q 2541 722 2730 984 
Q 2919 1247 2919 1747 
Q 2919 2247 2730 2509 
Q 2541 2772 2181 2772 
Q 1825 2772 1636 2509 
Q 1447 2247 1447 1747 
Q 1447 1247 1636 984 
Q 1825 722 2181 722 
z
" transform="scale(0.015625)"/>
     <path id="DejaVuSans-Bold-61" d="M 2106 1575 
Q 1756 1575 1579 1456 
Q 1403 1338 1403 1106 
Q 1403 894 1545 773 
Q 1688 653 1941 653 
Q 2256 653 2472 879 
Q 2688 1106 2688 1447 
L 2688 1575 
L 2106 1575 
z
M 3816 1997 
L 3816 0 
L 2688 0 
L 2688 519 
Q 2463 200 2181 54 
Q 1900 -91 1497 -91 
Q 953 -91 614 226 
Q 275 544 275 1050 
Q 275 1666 698 1953 
Q 1122 2241 2028 2241 
L 2688 2241 
L 2688 2328 
Q 2688 2594 2478 2717 
Q 2269 2841 1825 2841 
Q 1466 2841 1156 2769 
Q 847 2697 581 2553 
L 581 3406 
Q 941 3494 1303 3539 
Q 1666 3584 2028 3584 
Q 2975 3584 3395 3211 
Q 3816 2838 3816 1997 
z
" transform="scale(0.015625)"/>
     <path id="DejaVuSans-Bold-20" transform="scale(0.015625)"/>
     <path id="DejaVuSans-Bold-6d" d="M 3781 2919 
Q 3994 3244 4286 3414 
Q 4578 3584 4928 3584 
Q 5531 3584 5847 3212 
Q 6163 2841 6163 2131 
L 6163 0 
L 5038 0 
L 5038 1825 
Q 5041 1866 5042 1909 
Q 5044 1953 5044 2034 
Q 5044 2406 4934 2573 
Q 4825 2741 4581 2741 
Q 4263 2741 4089 2478 
Q 3916 2216 3909 1719 
L 3909 0 
L 2784 0 
L 2784 1825 
Q 2784 2406 2684 2573 
Q 2584 2741 2328 2741 
Q 2006 2741 1831 2477 
Q 1656 2213 1656 1722 
L 1656 0 
L 531 0 
L 531 3500 
L 1656 3500 
L 1656 2988 
Q 1863 3284 2130 3434 
Q 2397 3584 2719 3584 
Q 3081 3584 3359 3409 
Q 3638 3234 3781 2919 
z
" transform="scale(0.015625)"/>
     <path id="DejaVuSans-Bold-72" d="M 3138 2547 
Q 2991 2616 2845 2648 
Q 2700 2681 2553 2681 
Q 2122 2681 1889 2404 
Q 1656 2128 1656 1613 
L 1656 0 
L 538 0 
L 538 3500 
L 1656 3500 
L 1656 2925 
Q 1872 3269 2151 3426 
Q 2431 3584 2822 3584 
Q 2878 3584 2943 3579 
Q 3009 3575 3134 3559 
L 3138 2547 
z
" transform="scale(0.015625)"/>
     <path id="DejaVuSans-Bold-68" d="M 4056 2131 
L 4056 0 
L 2931 0 
L 2931 347 
L 2931 1625 
Q 2931 2084 2911 2256 
Q 2891 2428 2841 2509 
Q 2775 2619 2662 2680 
Q 2550 2741 2406 2741 
Q 2056 2741 1856 2470 
Q 1656 2200 1656 1722 
L 1656 0 
L 538 0 
L 538 4863 
L 1656 4863 
L 1656 2988 
Q 1909 3294 2193 3439 
Q 2478 3584 2822 3584 
Q 3428 3584 3742 3212 
Q 4056 2841 4056 2131 
z
" transform="scale(0.015625)"/>
     <path id="DejaVuSans-Bold-6f" d="M 2203 2784 
Q 1831 2784 1636 2517 
Q 1441 2250 1441 1747 
Q 1441 1244 1636 976 
Q 1831 709 2203 709 
Q 2569 709 2762 976 
Q 2956 1244 2956 1747 
Q 2956 2250 2762 2517 
Q 2569 2784 2203 2784 
z
M 2203 3584 
Q 3106 3584 3614 3096 
Q 4122 2609 4122 1747 
Q 4122 884 3614 396 
Q 3106 -91 2203 -91 
Q 1297 -91 786 396 
Q 275 884 275 1747 
Q 275 2609 786 3096 
Q 1297 3584 2203 3584 
z
" transform="scale(0.015625)"/>
     <path id="DejaVuSans-Bold-6e" d="M 4056 2131 
L 4056 0 
L 2931 0 
L 2931 347 
L 2931 1631 
Q 2931 2084 2911 2256 
Q 2891 2428 2841 2509 
Q 2775 2619 2662 2680 
Q 2550 2741 2406 2741 
Q 2056 2741 1856 2470 
Q 1656 2200 1656 1722 
L 1656 0 
L 538 0 
L 538 3500 
L 1656 3500 
L 1656 2988 
Q 1909 3294 2193 3439 
Q 2478 3584 2822 3584 
Q 3428 3584 3742 3212 
Q 4056 2841 4056 2131 
z
" transform="scale(0.015625)"/>
     <path id="DejaVuSans-Bold-6c" d="M 538 4863 
L 1656 4863 
L 1656 0 
L 538 0 
L 538 4863 
z
" transform="scale(0.015625)"/>
     <path id="DejaVuSans-Bold-52" d="M 2297 2597 
Q 2675 2597 2839 2737 
Q 3003 2878 3003 3200 
Q 3003 3519 2839 3656 
Q 2675 3794 2297 3794 
L 1791 3794 
L 1791 2597 
L 2297 2597 
z
M 1791 1766 
L 1791 0 
L 588 0 
L 588 4666 
L 2425 4666 
Q 3347 4666 3776 4356 
Q 4206 4047 4206 3378 
Q 4206 2916 3982 2619 
Q 3759 2322 3309 2181 
Q 3556 2125 3751 1926 
Q 3947 1728 4147 1325 
L 4800 0 
L 3519 0 
L 2950 1159 
Q 2778 1509 2601 1637 
Q 2425 1766 2131 1766 
L 1791 1766 
z
" transform="scale(0.015625)"/>
     <path id="DejaVuSans-Bold-43" d="M 4288 256 
Q 3956 84 3597 -3 
Q 3238 -91 2847 -91 
Q 1681 -91 1000 561 
Q 319 1213 319 2328 
Q 319 3447 1000 4098 
Q 1681 4750 2847 4750 
Q 3238 4750 3597 4662 
Q 3956 4575 4288 4403 
L 4288 3438 
Q 3953 3666 3628 3772 
Q 3303 3878 2944 3878 
Q 2300 3878 1931 3465 
Q 1563 3053 1563 2328 
Q 1563 1606 1931 1193 
Q 2300 781 2944 781 
Q 3303 781 3628 887 
Q 3953 994 4288 1222 
L 4288 256 
z
" transform="scale(0.015625)"/>
     <path id="DejaVuSans-Bold-4b" d="M 588 4666 
L 1791 4666 
L 1791 2963 
L 3525 4666 
L 4922 4666 
L 2675 2456 
L 5153 0 
L 3647 0 
L 1791 1838 
L 1791 0 
L 588 0 
L 588 4666 
z
" transform="scale(0.015625)"/>
    </defs>
    <use xlink:href="#DejaVuSans-Bold-51"/>
    <use xlink:href="#DejaVuSans-Bold-75" transform="translate(85.009766 0)"/>
    <use xlink:href="#DejaVuSans-Bold-65" transform="translate(156.201172 0)"/>
    <use xlink:href="#DejaVuSans-Bold-64" transform="translate(224.023438 0)"/>
    <use xlink:href="#DejaVuSans-Bold-61" transform="translate(295.605469 0)"/>
    <use xlink:href="#DejaVuSans-Bold-20" transform="translate(363.085938 0)"/>
    <use xlink:href="#DejaVuSans-Bold-65" transform="translate(397.900391 0)"/>
    <use xlink:href="#DejaVuSans-Bold-6d" transform="translate(465.722656 0)"/>
    <use xlink:href="#DejaVuSans-Bold-20" transform="translate(569.921875 0)"/>
    <use xlink:href="#DejaVuSans-Bold-72" transform="translate(604.736328 0)"/>
    <use xlink:href="#DejaVuSans-Bold-68" transform="translate(654.052734 0)"/>
    <use xlink:href="#DejaVuSans-Bold-6f" transform="translate(725.244141 0)"/>
    <use xlink:href="#DejaVuSans-Bold-20" transform="translate(793.945312 0)"/>
    <use xlink:href="#DejaVuSans-Bold-6e" transform="translate(828.759766 0)"/>
    <use xlink:href="#DejaVuSans-Bold-6f" transform="translate(899.951172 0)"/>
    <use xlink:href="#DejaVuSans-Bold-20" transform="translate(968.652344 0)"/>
    <use xlink:href="#DejaVuSans-Bold-6d" transform="translate(1003.466797 0)"/>
    <use xlink:href="#DejaVuSans-Bold-6f" transform="translate(1107.666016 0)"/>
    <use xlink:href="#DejaVuSans-Bold-64" transform="translate(1176.367188 0)"/>
    <use xlink:href="#DejaVuSans-Bold-65" transform="translate(1247.949219 0)"/>
    <use xlink:href="#DejaVuSans-Bold-6c" transform="translate(1315.771484 0)"/>
    <use xlink:href="#DejaVuSans-Bold-6f" transform="translate(1350.048828 0)"/>
    <use xlink:href="#DejaVuSans-Bold-20" transform="translate(1418.75 0)"/>
    <use xlink:href="#DejaVuSans-Bold-52" transform="translate(1453.564453 0)"/>
    <use xlink:href="#DejaVuSans-Bold-43" transform="translate(1530.566406 0)"/>
    <use xlink:href="#DejaVuSans-Bold-4b" transform="translate(1603.955078 0)"/>
   </g>
  </g>
  <g id="text_42">
   <!-- Menor impaciência desloca a trajetória de sela e aumenta o capital de longo prazo compatível com o equilíbrio ótimo. -->
   <g style="fill: #6f6e69" transform="translate(15.72071 38.110406) scale(0.102 -0.102)">
    <defs>
     <path id="DejaVuSans-4d" d="M 628 4666 
L 1569 4666 
L 2759 1491 
L 3956 4666 
L 4897 4666 
L 4897 0 
L 4281 0 
L 4281 4097 
L 3078 897 
L 2444 897 
L 1241 4097 
L 1241 0 
L 628 0 
L 628 4666 
z
" transform="scale(0.015625)"/>
     <path id="DejaVuSans-ea" d="M 3597 1894 
L 3597 1613 
L 953 1613 
Q 991 1019 1311 708 
Q 1631 397 2203 397 
Q 2534 397 2845 478 
Q 3156 559 3463 722 
L 3463 178 
Q 3153 47 2828 -22 
Q 2503 -91 2169 -91 
Q 1331 -91 842 396 
Q 353 884 353 1716 
Q 353 2575 817 3079 
Q 1281 3584 2069 3584 
Q 2775 3584 3186 3129 
Q 3597 2675 3597 1894 
z
M 3022 2063 
Q 3016 2534 2758 2815 
Q 2500 3097 2075 3097 
Q 1594 3097 1305 2825 
Q 1016 2553 972 2059 
L 3022 2063 
z
M 1801 5119 
L 2263 5119 
L 3029 3944 
L 2595 3944 
L 2032 4709 
L 1470 3944 
L 1035 3944 
L 1801 5119 
z
" transform="scale(0.015625)"/>
     <path id="DejaVuSans-f3" d="M 1959 3097 
Q 1497 3097 1228 2736 
Q 959 2375 959 1747 
Q 959 1119 1226 758 
Q 1494 397 1959 397 
Q 2419 397 2687 759 
Q 2956 1122 2956 1747 
Q 2956 2369 2687 2733 
Q 2419 3097 1959 3097 
z
M 1959 3584 
Q 2709 3584 3137 3096 
Q 3566 2609 3566 1747 
Q 3566 888 3137 398 
Q 2709 -91 1959 -91 
Q 1206 -91 779 398 
Q 353 888 353 1747 
Q 353 2609 779 3096 
Q 1206 3584 1959 3584 
z
M 2394 5119 
L 3016 5119 
L 1998 3944 
L 1519 3944 
L 2394 5119 
z
" transform="scale(0.015625)"/>
     <path id="DejaVuSans-67" d="M 2906 1791 
Q 2906 2416 2648 2759 
Q 2391 3103 1925 3103 
Q 1463 3103 1205 2759 
Q 947 2416 947 1791 
Q 947 1169 1205 825 
Q 1463 481 1925 481 
Q 2391 481 2648 825 
Q 2906 1169 2906 1791 
z
M 3481 434 
Q 3481 -459 3084 -895 
Q 2688 -1331 1869 -1331 
Q 1566 -1331 1297 -1286 
Q 1028 -1241 775 -1147 
L 775 -588 
Q 1028 -725 1275 -790 
Q 1522 -856 1778 -856 
Q 2344 -856 2625 -561 
Q 2906 -266 2906 331 
L 2906 616 
Q 2728 306 2450 153 
Q 2172 0 1784 0 
Q 1141 0 747 490 
Q 353 981 353 1791 
Q 353 2603 747 3093 
Q 1141 3584 1784 3584 
Q 2172 3584 2450 3431 
Q 2728 3278 2906 2969 
L 2906 3500 
L 3481 3500 
L 3481 434 
z
" transform="scale(0.015625)"/>
     <path id="DejaVuSans-7a" d="M 353 3500 
L 3084 3500 
L 3084 2975 
L 922 459 
L 3084 459 
L 3084 0 
L 275 0 
L 275 525 
L 2438 3041 
L 353 3041 
L 353 3500 
z
" transform="scale(0.015625)"/>
     <path id="DejaVuSans-2e" d="M 684 794 
L 1344 794 
L 1344 0 
L 684 0 
L 684 794 
z
" transform="scale(0.015625)"/>
    </defs>
    <use xlink:href="#DejaVuSans-4d"/>
    <use xlink:href="#DejaVuSans-65" transform="translate(86.279297 0)"/>
    <use xlink:href="#DejaVuSans-6e" transform="translate(147.802734 0)"/>
    <use xlink:href="#DejaVuSans-6f" transform="translate(211.181641 0)"/>
    <use xlink:href="#DejaVuSans-72" transform="translate(272.363281 0)"/>
    <use xlink:href="#DejaVuSans-20" transform="translate(313.476562 0)"/>
    <use xlink:href="#DejaVuSans-69" transform="translate(345.263672 0)"/>
    <use xlink:href="#DejaVuSans-6d" transform="translate(373.046875 0)"/>
    <use xlink:href="#DejaVuSans-70" transform="translate(470.458984 0)"/>
    <use xlink:href="#DejaVuSans-61" transform="translate(533.935547 0)"/>
    <use xlink:href="#DejaVuSans-63" transform="translate(595.214844 0)"/>
    <use xlink:href="#DejaVuSans-69" transform="translate(650.195312 0)"/>
    <use xlink:href="#DejaVuSans-ea" transform="translate(677.978516 0)"/>
    <use xlink:href="#DejaVuSans-6e" transform="translate(739.501953 0)"/>
    <use xlink:href="#DejaVuSans-63" transform="translate(802.880859 0)"/>
    <use xlink:href="#DejaVuSans-69" transform="translate(857.861328 0)"/>
    <use xlink:href="#DejaVuSans-61" transform="translate(885.644531 0)"/>
    <use xlink:href="#DejaVuSans-20" transform="translate(946.923828 0)"/>
    <use xlink:href="#DejaVuSans-64" transform="translate(978.710938 0)"/>
    <use xlink:href="#DejaVuSans-65" transform="translate(1042.1875 0)"/>
    <use xlink:href="#DejaVuSans-73" transform="translate(1103.710938 0)"/>
    <use xlink:href="#DejaVuSans-6c" transform="translate(1155.810547 0)"/>
    <use xlink:href="#DejaVuSans-6f" transform="translate(1183.59375 0)"/>
    <use xlink:href="#DejaVuSans-63" transform="translate(1244.775391 0)"/>
    <use xlink:href="#DejaVuSans-61" transform="translate(1299.755859 0)"/>
    <use xlink:href="#DejaVuSans-20" transform="translate(1361.035156 0)"/>
    <use xlink:href="#DejaVuSans-61" transform="translate(1392.822266 0)"/>
    <use xlink:href="#DejaVuSans-20" transform="translate(1454.101562 0)"/>
    <use xlink:href="#DejaVuSans-74" transform="translate(1485.888672 0)"/>
    <use xlink:href="#DejaVuSans-72" transform="translate(1525.097656 0)"/>
    <use xlink:href="#DejaVuSans-61" transform="translate(1566.210938 0)"/>
    <use xlink:href="#DejaVuSans-6a" transform="translate(1627.490234 0)"/>
    <use xlink:href="#DejaVuSans-65" transform="translate(1655.273438 0)"/>
    <use xlink:href="#DejaVuSans-74" transform="translate(1716.796875 0)"/>
    <use xlink:href="#DejaVuSans-f3" transform="translate(1756.005859 0)"/>
    <use xlink:href="#DejaVuSans-72" transform="translate(1817.1875 0)"/>
    <use xlink:href="#DejaVuSans-69" transform="translate(1858.300781 0)"/>
    <use xlink:href="#DejaVuSans-61" transform="translate(1886.083984 0)"/>
    <use xlink:href="#DejaVuSans-20" transform="translate(1947.363281 0)"/>
    <use xlink:href="#DejaVuSans-64" transform="translate(1979.150391 0)"/>
    <use xlink:href="#DejaVuSans-65" transform="translate(2042.626953 0)"/>
    <use xlink:href="#DejaVuSans-20" transform="translate(2104.150391 0)"/>
    <use xlink:href="#DejaVuSans-73" transform="translate(2135.9375 0)"/>
    <use xlink:href="#DejaVuSans-65" transform="translate(2188.037109 0)"/>
    <use xlink:href="#DejaVuSans-6c" transform="translate(2249.560547 0)"/>
    <use xlink:href="#DejaVuSans-61" transform="translate(2277.34375 0)"/>
    <use xlink:href="#DejaVuSans-20" transform="translate(2338.623047 0)"/>
    <use xlink:href="#DejaVuSans-65" transform="translate(2370.410156 0)"/>
    <use xlink:href="#DejaVuSans-20" transform="translate(2431.933594 0)"/>
    <use xlink:href="#DejaVuSans-61" transform="translate(2463.720703 0)"/>
    <use xlink:href="#DejaVuSans-75" transform="translate(2525 0)"/>
    <use xlink:href="#DejaVuSans-6d" transform="translate(2588.378906 0)"/>
    <use xlink:href="#DejaVuSans-65" transform="translate(2685.791016 0)"/>
    <use xlink:href="#DejaVuSans-6e" transform="translate(2747.314453 0)"/>
    <use xlink:href="#DejaVuSans-74" transform="translate(2810.693359 0)"/>
    <use xlink:href="#DejaVuSans-61" transform="translate(2849.902344 0)"/>
    <use xlink:href="#DejaVuSans-20" transform="translate(2911.181641 0)"/>
    <use xlink:href="#DejaVuSans-6f" transform="translate(2942.96875 0)"/>
    <use xlink:href="#DejaVuSans-20" transform="translate(3004.150391 0)"/>
    <use xlink:href="#DejaVuSans-63" transform="translate(3035.9375 0)"/>
    <use xlink:href="#DejaVuSans-61" transform="translate(3090.917969 0)"/>
    <use xlink:href="#DejaVuSans-70" transform="translate(3152.197266 0)"/>
    <use xlink:href="#DejaVuSans-69" transform="translate(3215.673828 0)"/>
    <use xlink:href="#DejaVuSans-74" transform="translate(3243.457031 0)"/>
    <use xlink:href="#DejaVuSans-61" transform="translate(3282.666016 0)"/>
    <use xlink:href="#DejaVuSans-6c" transform="translate(3343.945312 0)"/>
    <use xlink:href="#DejaVuSans-20" transform="translate(3371.728516 0)"/>
    <use xlink:href="#DejaVuSans-64" transform="translate(3403.515625 0)"/>
    <use xlink:href="#DejaVuSans-65" transform="translate(3466.992188 0)"/>
    <use xlink:href="#DejaVuSans-20" transform="translate(3528.515625 0)"/>
    <use xlink:href="#DejaVuSans-6c" transform="translate(3560.302734 0)"/>
    <use xlink:href="#DejaVuSans-6f" transform="translate(3588.085938 0)"/>
    <use xlink:href="#DejaVuSans-6e" transform="translate(3649.267578 0)"/>
    <use xlink:href="#DejaVuSans-67" transform="translate(3712.646484 0)"/>
    <use xlink:href="#DejaVuSans-6f" transform="translate(3776.123047 0)"/>
    <use xlink:href="#DejaVuSans-20" transform="translate(3837.304688 0)"/>
    <use xlink:href="#DejaVuSans-70" transform="translate(3869.091797 0)"/>
    <use xlink:href="#DejaVuSans-72" transform="translate(3932.568359 0)"/>
    <use xlink:href="#DejaVuSans-61" transform="translate(3973.681641 0)"/>
    <use xlink:href="#DejaVuSans-7a" transform="translate(4034.960938 0)"/>
    <use xlink:href="#DejaVuSans-6f" transform="translate(4087.451172 0)"/>
    <use xlink:href="#DejaVuSans-20" transform="translate(4148.632812 0)"/>
    <use xlink:href="#DejaVuSans-63" transform="translate(4180.419922 0)"/>
    <use xlink:href="#DejaVuSans-6f" transform="translate(4235.400391 0)"/>
    <use xlink:href="#DejaVuSans-6d" transform="translate(4296.582031 0)"/>
    <use xlink:href="#DejaVuSans-70" transform="translate(4393.994141 0)"/>
    <use xlink:href="#DejaVuSans-61" transform="translate(4457.470703 0)"/>
    <use xlink:href="#DejaVuSans-74" transform="translate(4518.75 0)"/>
    <use xlink:href="#DejaVuSans-ed" transform="translate(4557.958984 0)"/>
    <use xlink:href="#DejaVuSans-76" transform="translate(4585.742188 0)"/>
    <use xlink:href="#DejaVuSans-65" transform="translate(4644.921875 0)"/>
    <use xlink:href="#DejaVuSans-6c" transform="translate(4706.445312 0)"/>
    <use xlink:href="#DejaVuSans-20" transform="translate(4734.228516 0)"/>
    <use xlink:href="#DejaVuSans-63" transform="translate(4766.015625 0)"/>
    <use xlink:href="#DejaVuSans-6f" transform="translate(4820.996094 0)"/>
    <use xlink:href="#DejaVuSans-6d" transform="translate(4882.177734 0)"/>
    <use xlink:href="#DejaVuSans-20" transform="translate(4979.589844 0)"/>
    <use xlink:href="#DejaVuSans-6f" transform="translate(5011.376953 0)"/>
    <use xlink:href="#DejaVuSans-20" transform="translate(5072.558594 0)"/>
    <use xlink:href="#DejaVuSans-65" transform="translate(5104.345703 0)"/>
    <use xlink:href="#DejaVuSans-71" transform="translate(5165.869141 0)"/>
    <use xlink:href="#DejaVuSans-75" transform="translate(5229.345703 0)"/>
    <use xlink:href="#DejaVuSans-69" transform="translate(5292.724609 0)"/>
    <use xlink:href="#DejaVuSans-6c" transform="translate(5320.507812 0)"/>
    <use xlink:href="#DejaVuSans-ed" transform="translate(5348.291016 0)"/>
    <use xlink:href="#DejaVuSans-62" transform="translate(5376.074219 0)"/>
    <use xlink:href="#DejaVuSans-72" transform="translate(5439.550781 0)"/>
    <use xlink:href="#DejaVuSans-69" transform="translate(5480.664062 0)"/>
    <use xlink:href="#DejaVuSans-6f" transform="translate(5508.447266 0)"/>
    <use xlink:href="#DejaVuSans-20" transform="translate(5569.628906 0)"/>
    <use xlink:href="#DejaVuSans-f3" transform="translate(5601.416016 0)"/>
    <use xlink:href="#DejaVuSans-74" transform="translate(5662.597656 0)"/>
    <use xlink:href="#DejaVuSans-69" transform="translate(5701.806641 0)"/>
    <use xlink:href="#DejaVuSans-6d" transform="translate(5729.589844 0)"/>
    <use xlink:href="#DejaVuSans-6f" transform="translate(5827.001953 0)"/>
    <use xlink:href="#DejaVuSans-2e" transform="translate(5886.433594 0)"/>
   </g>
  </g>
  <g id="text_43">
   <!-- Obs.: O painel da direita mostra a transição a partir do capital inicial do antigo estado estacionário. -->
   <g style="fill: #6f6e69" transform="translate(15.72071 383.894672) scale(0.087 -0.087)">
    <defs>
     <path id="DejaVuSans-4f" d="M 2522 4238 
Q 1834 4238 1429 3725 
Q 1025 3213 1025 2328 
Q 1025 1447 1429 934 
Q 1834 422 2522 422 
Q 3209 422 3611 934 
Q 4013 1447 4013 2328 
Q 4013 3213 3611 3725 
Q 3209 4238 2522 4238 
z
M 2522 4750 
Q 3503 4750 4090 4092 
Q 4678 3434 4678 2328 
Q 4678 1225 4090 567 
Q 3503 -91 2522 -91 
Q 1538 -91 948 565 
Q 359 1222 359 2328 
Q 359 3434 948 4092 
Q 1538 4750 2522 4750 
z
" transform="scale(0.015625)"/>
     <path id="DejaVuSans-3a" d="M 750 794 
L 1409 794 
L 1409 0 
L 750 0 
L 750 794 
z
M 750 3309 
L 1409 3309 
L 1409 2516 
L 750 2516 
L 750 3309 
z
" transform="scale(0.015625)"/>
     <path id="DejaVuSans-e7" d="M 3122 3366 
L 3122 2828 
Q 2878 2963 2633 3030 
Q 2388 3097 2138 3097 
Q 1578 3097 1268 2742 
Q 959 2388 959 1747 
Q 959 1106 1268 751 
Q 1578 397 2138 397 
Q 2388 397 2633 464 
Q 2878 531 3122 666 
L 3122 134 
Q 2881 22 2623 -34 
Q 2366 -91 2075 -91 
Q 1284 -91 818 406 
Q 353 903 353 1747 
Q 353 2603 823 3093 
Q 1294 3584 2113 3584 
Q 2378 3584 2631 3529 
Q 2884 3475 3122 3366 
z
M 2311 0 
Q 2482 -194 2566 -358 
Q 2651 -522 2651 -672 
Q 2651 -950 2463 -1092 
Q 2276 -1234 1907 -1234 
Q 1764 -1234 1628 -1215 
Q 1492 -1197 1357 -1159 
L 1357 -750 
Q 1464 -803 1579 -826 
Q 1695 -850 1842 -850 
Q 2026 -850 2120 -775 
Q 2214 -700 2214 -556 
Q 2214 -463 2146 -327 
Q 2079 -191 1939 0 
L 2311 0 
z
" transform="scale(0.015625)"/>
     <path id="DejaVuSans-e3" d="M 2194 1759 
Q 1497 1759 1228 1600 
Q 959 1441 959 1056 
Q 959 750 1161 570 
Q 1363 391 1709 391 
Q 2188 391 2477 730 
Q 2766 1069 2766 1631 
L 2766 1759 
L 2194 1759 
z
M 3341 1997 
L 3341 0 
L 2766 0 
L 2766 531 
Q 2569 213 2275 61 
Q 1981 -91 1556 -91 
Q 1019 -91 701 211 
Q 384 513 384 1019 
Q 384 1609 779 1909 
Q 1175 2209 1959 2209 
L 2766 2209 
L 2766 2266 
Q 2766 2663 2505 2880 
Q 2244 3097 1772 3097 
Q 1472 3097 1187 3025 
Q 903 2953 641 2809 
L 641 3341 
Q 956 3463 1253 3523 
Q 1550 3584 1831 3584 
Q 2591 3584 2966 3190 
Q 3341 2797 3341 1997 
z
M 1844 4281 
L 1665 4453 
Q 1597 4516 1545 4545 
Q 1494 4575 1453 4575 
Q 1334 4575 1278 4461 
Q 1222 4347 1215 4091 
L 825 4091 
Q 831 4513 990 4742 
Q 1150 4972 1434 4972 
Q 1553 4972 1653 4928 
Q 1753 4884 1869 4781 
L 2047 4609 
Q 2115 4547 2167 4517 
Q 2219 4488 2259 4488 
Q 2378 4488 2434 4602 
Q 2490 4716 2497 4972 
L 2887 4972 
Q 2881 4550 2721 4320 
Q 2562 4091 2278 4091 
Q 2159 4091 2059 4134 
Q 1959 4178 1844 4281 
z
" transform="scale(0.015625)"/>
     <path id="DejaVuSans-e1" d="M 2194 1759 
Q 1497 1759 1228 1600 
Q 959 1441 959 1056 
Q 959 750 1161 570 
Q 1363 391 1709 391 
Q 2188 391 2477 730 
Q 2766 1069 2766 1631 
L 2766 1759 
L 2194 1759 
z
M 3341 1997 
L 3341 0 
L 2766 0 
L 2766 531 
Q 2569 213 2275 61 
Q 1981 -91 1556 -91 
Q 1019 -91 701 211 
Q 384 513 384 1019 
Q 384 1609 779 1909 
Q 1175 2209 1959 2209 
L 2766 2209 
L 2766 2266 
Q 2766 2663 2505 2880 
Q 2244 3097 1772 3097 
Q 1472 3097 1187 3025 
Q 903 2953 641 2809 
L 641 3341 
Q 956 3463 1253 3523 
Q 1550 3584 1831 3584 
Q 2591 3584 2966 3190 
Q 3341 2797 3341 1997 
z
M 2290 5119 
L 2912 5119 
L 1894 3944 
L 1415 3944 
L 2290 5119 
z
" transform="scale(0.015625)"/>
    </defs>
    <use xlink:href="#DejaVuSans-4f"/>
    <use xlink:href="#DejaVuSans-62" transform="translate(78.710938 0)"/>
    <use xlink:href="#DejaVuSans-73" transform="translate(142.1875 0)"/>
    <use xlink:href="#DejaVuSans-2e" transform="translate(194.287109 0)"/>
    <use xlink:href="#DejaVuSans-3a" transform="translate(226.074219 0)"/>
    <use xlink:href="#DejaVuSans-20" transform="translate(259.765625 0)"/>
    <use xlink:href="#DejaVuSans-4f" transform="translate(291.552734 0)"/>
    <use xlink:href="#DejaVuSans-20" transform="translate(370.263672 0)"/>
    <use xlink:href="#DejaVuSans-70" transform="translate(402.050781 0)"/>
    <use xlink:href="#DejaVuSans-61" transform="translate(465.527344 0)"/>
    <use xlink:href="#DejaVuSans-69" transform="translate(526.806641 0)"/>
    <use xlink:href="#DejaVuSans-6e" transform="translate(554.589844 0)"/>
    <use xlink:href="#DejaVuSans-65" transform="translate(617.96875 0)"/>
    <use xlink:href="#DejaVuSans-6c" transform="translate(679.492188 0)"/>
    <use xlink:href="#DejaVuSans-20" transform="translate(707.275391 0)"/>
    <use xlink:href="#DejaVuSans-64" transform="translate(739.0625 0)"/>
    <use xlink:href="#DejaVuSans-61" transform="translate(802.539062 0)"/>
    <use xlink:href="#DejaVuSans-20" transform="translate(863.818359 0)"/>
    <use xlink:href="#DejaVuSans-64" transform="translate(895.605469 0)"/>
    <use xlink:href="#DejaVuSans-69" transform="translate(959.082031 0)"/>
    <use xlink:href="#DejaVuSans-72" transform="translate(986.865234 0)"/>
    <use xlink:href="#DejaVuSans-65" transform="translate(1025.728516 0)"/>
    <use xlink:href="#DejaVuSans-69" transform="translate(1087.251953 0)"/>
    <use xlink:href="#DejaVuSans-74" transform="translate(1115.035156 0)"/>
    <use xlink:href="#DejaVuSans-61" transform="translate(1154.244141 0)"/>
    <use xlink:href="#DejaVuSans-20" transform="translate(1215.523438 0)"/>
    <use xlink:href="#DejaVuSans-6d" transform="translate(1247.310547 0)"/>
    <use xlink:href="#DejaVuSans-6f" transform="translate(1344.722656 0)"/>
    <use xlink:href="#DejaVuSans-73" transform="translate(1405.904297 0)"/>
    <use xlink:href="#DejaVuSans-74" transform="translate(1458.003906 0)"/>
    <use xlink:href="#DejaVuSans-72" transform="translate(1497.212891 0)"/>
    <use xlink:href="#DejaVuSans-61" transform="translate(1538.326172 0)"/>
    <use xlink:href="#DejaVuSans-20" transform="translate(1599.605469 0)"/>
    <use xlink:href="#DejaVuSans-61" transform="translate(1631.392578 0)"/>
    <use xlink:href="#DejaVuSans-20" transform="translate(1692.671875 0)"/>
    <use xlink:href="#DejaVuSans-74" transform="translate(1724.458984 0)"/>
    <use xlink:href="#DejaVuSans-72" transform="translate(1763.667969 0)"/>
    <use xlink:href="#DejaVuSans-61" transform="translate(1804.78125 0)"/>
    <use xlink:href="#DejaVuSans-6e" transform="translate(1866.060547 0)"/>
    <use xlink:href="#DejaVuSans-73" transform="translate(1929.439453 0)"/>
    <use xlink:href="#DejaVuSans-69" transform="translate(1981.539062 0)"/>
    <use xlink:href="#DejaVuSans-e7" transform="translate(2009.322266 0)"/>
    <use xlink:href="#DejaVuSans-e3" transform="translate(2064.302734 0)"/>
    <use xlink:href="#DejaVuSans-6f" transform="translate(2125.582031 0)"/>
    <use xlink:href="#DejaVuSans-20" transform="translate(2186.763672 0)"/>
    <use xlink:href="#DejaVuSans-61" transform="translate(2218.550781 0)"/>
    <use xlink:href="#DejaVuSans-20" transform="translate(2279.830078 0)"/>
    <use xlink:href="#DejaVuSans-70" transform="translate(2311.617188 0)"/>
    <use xlink:href="#DejaVuSans-61" transform="translate(2375.09375 0)"/>
    <use xlink:href="#DejaVuSans-72" transform="translate(2436.373047 0)"/>
    <use xlink:href="#DejaVuSans-74" transform="translate(2477.486328 0)"/>
    <use xlink:href="#DejaVuSans-69" transform="translate(2516.695312 0)"/>
    <use xlink:href="#DejaVuSans-72" transform="translate(2544.478516 0)"/>
    <use xlink:href="#DejaVuSans-20" transform="translate(2585.591797 0)"/>
    <use xlink:href="#DejaVuSans-64" transform="translate(2617.378906 0)"/>
    <use xlink:href="#DejaVuSans-6f" transform="translate(2680.855469 0)"/>
    <use xlink:href="#DejaVuSans-20" transform="translate(2742.037109 0)"/>
    <use xlink:href="#DejaVuSans-63" transform="translate(2773.824219 0)"/>
    <use xlink:href="#DejaVuSans-61" transform="translate(2828.804688 0)"/>
    <use xlink:href="#DejaVuSans-70" transform="translate(2890.083984 0)"/>
    <use xlink:href="#DejaVuSans-69" transform="translate(2953.560547 0)"/>
    <use xlink:href="#DejaVuSans-74" transform="translate(2981.34375 0)"/>
    <use xlink:href="#DejaVuSans-61" transform="translate(3020.552734 0)"/>
    <use xlink:href="#DejaVuSans-6c" transform="translate(3081.832031 0)"/>
    <use xlink:href="#DejaVuSans-20" transform="translate(3109.615234 0)"/>
    <use xlink:href="#DejaVuSans-69" transform="translate(3141.402344 0)"/>
    <use xlink:href="#DejaVuSans-6e" transform="translate(3169.185547 0)"/>
    <use xlink:href="#DejaVuSans-69" transform="translate(3232.564453 0)"/>
    <use xlink:href="#DejaVuSans-63" transform="translate(3260.347656 0)"/>
    <use xlink:href="#DejaVuSans-69" transform="translate(3315.328125 0)"/>
    <use xlink:href="#DejaVuSans-61" transform="translate(3343.111328 0)"/>
    <use xlink:href="#DejaVuSans-6c" transform="translate(3404.390625 0)"/>
    <use xlink:href="#DejaVuSans-20" transform="translate(3432.173828 0)"/>
    <use xlink:href="#DejaVuSans-64" transform="translate(3463.960938 0)"/>
    <use xlink:href="#DejaVuSans-6f" transform="translate(3527.4375 0)"/>
    <use xlink:href="#DejaVuSans-20" transform="translate(3588.619141 0)"/>
    <use xlink:href="#DejaVuSans-61" transform="translate(3620.40625 0)"/>
    <use xlink:href="#DejaVuSans-6e" transform="translate(3681.685547 0)"/>
    <use xlink:href="#DejaVuSans-74" transform="translate(3745.064453 0)"/>
    <use xlink:href="#DejaVuSans-69" transform="translate(3784.273438 0)"/>
    <use xlink:href="#DejaVuSans-67" transform="translate(3812.056641 0)"/>
    <use xlink:href="#DejaVuSans-6f" transform="translate(3875.533203 0)"/>
    <use xlink:href="#DejaVuSans-20" transform="translate(3936.714844 0)"/>
    <use xlink:href="#DejaVuSans-65" transform="translate(3968.501953 0)"/>
    <use xlink:href="#DejaVuSans-73" transform="translate(4030.025391 0)"/>
    <use xlink:href="#DejaVuSans-74" transform="translate(4082.125 0)"/>
    <use xlink:href="#DejaVuSans-61" transform="translate(4121.333984 0)"/>
    <use xlink:href="#DejaVuSans-64" transform="translate(4182.613281 0)"/>
    <use xlink:href="#DejaVuSans-6f" transform="translate(4246.089844 0)"/>
    <use xlink:href="#DejaVuSans-20" transform="translate(4307.271484 0)"/>
    <use xlink:href="#DejaVuSans-65" transform="translate(4339.058594 0)"/>
    <use xlink:href="#DejaVuSans-73" transform="translate(4400.582031 0)"/>
    <use xlink:href="#DejaVuSans-74" transform="translate(4452.681641 0)"/>
    <use xlink:href="#DejaVuSans-61" transform="translate(4491.890625 0)"/>
    <use xlink:href="#DejaVuSans-63" transform="translate(4553.169922 0)"/>
    <use xlink:href="#DejaVuSans-69" transform="translate(4608.150391 0)"/>
    <use xlink:href="#DejaVuSans-6f" transform="translate(4635.933594 0)"/>
    <use xlink:href="#DejaVuSans-6e" transform="translate(4697.115234 0)"/>
    <use xlink:href="#DejaVuSans-e1" transform="translate(4760.494141 0)"/>
    <use xlink:href="#DejaVuSans-72" transform="translate(4821.773438 0)"/>
    <use xlink:href="#DejaVuSans-69" transform="translate(4862.886719 0)"/>
    <use xlink:href="#DejaVuSans-6f" transform="translate(4890.669922 0)"/>
    <use xlink:href="#DejaVuSans-2e" transform="translate(4950.101562 0)"/>
   </g>
  </g>
 </g>
 <defs>
  <clipPath id="p01e30667f8">
   <rect x="57.283281" y="108.370286" width="414.74" height="189.513714"/>
  </clipPath>
  <clipPath id="p704aad1c01">
   <rect x="525.78471" y="108.370286" width="414.74" height="189.513714"/>
  </clipPath>
 </defs>
</svg>
