<?xml version="1.0" encoding="utf-8" standalone="no"?>
<!DOCTYPE svg PUBLIC "-//W3C//DTD SVG 1.1//EN"
  "http://www.w3.org/Graphics/SVG/1.1/DTD/svg11.dtd">
<svg xmlns:xlink="http://www.w3.org/1999/xlink" width="670.056469pt" height="400.104pt" viewBox="0 0 670.056469 400.104" xmlns="http://www.w3.org/2000/svg" version="1.1">
 <metadata>
  <rdf:RDF xmlns:dc="http://purl.org/dc/elements/1.1/" xmlns:cc="http://creativecommons.org/ns#" xmlns:rdf="http://www.w3.org/1999/02/22-rdf-syntax-ns#">
   <cc:Work>
    <dc:type rdf:resource="http://purl.org/dc/dcmitype/StillImage"/>
    <dc:date>2026-04-02T15:04:22.586830</dc:date>
    <dc:format>image/svg+xml</dc:format>
    <dc:creator>
     <cc:Agent>
      <dc:title>Matplotlib v3.10.7, https://matplotlib.org/</dc:title>
     </cc:Agent>
    </dc:creator>
   </cc:Work>
  </rdf:RDF>
 </metadata>
 <defs>
  <style type="text/css">*{stroke-linejoin: round; stroke-linecap: butt}</style>
 </defs>
 <g id="figure_1">
  <g id="patch_1">
   <path d="M 0 400.104 
L 670.056469 400.104 
L 670.056469 0 
L 0 0 
z
" style="fill: #fffcf0"/>
  </g>
  <g id="axes_1">
   <g id="patch_2">
    <path d="M 60.714571 307.717143 
L 624.992256 307.717143 
L 624.992256 89.444571 
L 60.714571 89.444571 
z
" style="fill: #fffcf0"/>
   </g>
   <g id="matplotlib.axis_1">
    <g id="xtick_1">
     <g id="line2d_1"/>
     <g id="text_1">
      <!-- 0 -->
      <g style="fill: #6f6e69" transform="translate(96.289961 321.695502) scale(0.105 -0.105)">
       <defs>
        <path id="DejaVuSans-30" d="M 2034 4250 
Q 1547 4250 1301 3770 
Q 1056 3291 1056 2328 
Q 1056 1369 1301 889 
Q 1547 409 2034 409 
Q 2525 409 2770 889 
Q 3016 1369 3016 2328 
Q 3016 3291 2770 3770 
Q 2525 4250 2034 4250 
z
M 2034 4750 
Q 2819 4750 3233 4129 
Q 3647 3509 3647 2328 
Q 3647 1150 3233 529 
Q 2819 -91 2034 -91 
Q 1250 -91 836 529 
Q 422 1150 422 2328 
Q 422 3509 836 4129 
Q 1250 4750 2034 4750 
z
" transform="scale(0.015625)"/>
       </defs>
       <use xlink:href="#DejaVuSans-30"/>
      </g>
     </g>
    </g>
    <g id="xtick_2">
     <g id="line2d_2"/>
     <g id="text_2">
      <!-- 20 -->
      <g style="fill: #6f6e69" transform="translate(214.561219 321.695502) scale(0.105 -0.105)">
       <defs>
        <path id="DejaVuSans-32" d="M 1228 531 
L 3431 531 
L 3431 0 
L 469 0 
L 469 531 
Q 828 903 1448 1529 
Q 2069 2156 2228 2338 
Q 2531 2678 2651 2914 
Q 2772 3150 2772 3378 
Q 2772 3750 2511 3984 
Q 2250 4219 1831 4219 
Q 1534 4219 1204 4116 
Q 875 4013 500 3803 
L 500 4441 
Q 881 4594 1212 4672 
Q 1544 4750 1819 4750 
Q 2544 4750 2975 4387 
Q 3406 4025 3406 3419 
Q 3406 3131 3298 2873 
Q 3191 2616 2906 2266 
Q 2828 2175 2409 1742 
Q 1991 1309 1228 531 
z
" transform="scale(0.015625)"/>
       </defs>
       <use xlink:href="#DejaVuSans-32"/>
       <use xlink:href="#DejaVuSans-30" transform="translate(63.623047 0)"/>
      </g>
     </g>
    </g>
    <g id="xtick_3">
     <g id="line2d_3"/>
     <g id="text_3">
      <!-- 40 -->
      <g style="fill: #6f6e69" transform="translate(336.172789 321.695502) scale(0.105 -0.105)">
       <defs>
        <path id="DejaVuSans-34" d="M 2419 4116 
L 825 1625 
L 2419 1625 
L 2419 4116 
z
M 2253 4666 
L 3047 4666 
L 3047 1625 
L 3713 1625 
L 3713 1100 
L 3047 1100 
L 3047 0 
L 2419 0 
L 2419 1100 
L 313 1100 
L 313 1709 
L 2253 4666 
z
" transform="scale(0.015625)"/>
       </defs>
       <use xlink:href="#DejaVuSans-34"/>
       <use xlink:href="#DejaVuSans-30" transform="translate(63.623047 0)"/>
      </g>
     </g>
    </g>
    <g id="xtick_4">
     <g id="line2d_4"/>
     <g id="text_4">
      <!-- 60 -->
      <g style="fill: #6f6e69" transform="translate(457.784359 321.695502) scale(0.105 -0.105)">
       <defs>
        <path id="DejaVuSans-36" d="M 2113 2584 
Q 1688 2584 1439 2293 
Q 1191 2003 1191 1497 
Q 1191 994 1439 701 
Q 1688 409 2113 409 
Q 2538 409 2786 701 
Q 3034 994 3034 1497 
Q 3034 2003 2786 2293 
Q 2538 2584 2113 2584 
z
M 3366 4563 
L 3366 3988 
Q 3128 4100 2886 4159 
Q 2644 4219 2406 4219 
Q 1781 4219 1451 3797 
Q 1122 3375 1075 2522 
Q 1259 2794 1537 2939 
Q 1816 3084 2150 3084 
Q 2853 3084 3261 2657 
Q 3669 2231 3669 1497 
Q 3669 778 3244 343 
Q 2819 -91 2113 -91 
Q 1303 -91 875 529 
Q 447 1150 447 2328 
Q 447 3434 972 4092 
Q 1497 4750 2381 4750 
Q 2619 4750 2861 4703 
Q 3103 4656 3366 4563 
z
" transform="scale(0.015625)"/>
       </defs>
       <use xlink:href="#DejaVuSans-36"/>
       <use xlink:href="#DejaVuSans-30" transform="translate(63.623047 0)"/>
      </g>
     </g>
    </g>
    <g id="xtick_5">
     <g id="line2d_5"/>
     <g id="text_5">
      <!-- 80 -->
      <g style="fill: #6f6e69" transform="translate(579.395929 321.695502) scale(0.105 -0.105)">
       <defs>
        <path id="DejaVuSans-38" d="M 2034 2216 
Q 1584 2216 1326 1975 
Q 1069 1734 1069 1313 
Q 1069 891 1326 650 
Q 1584 409 2034 409 
Q 2484 409 2743 651 
Q 3003 894 3003 1313 
Q 3003 1734 2745 1975 
Q 2488 2216 2034 2216 
z
M 1403 2484 
Q 997 2584 770 2862 
Q 544 3141 544 3541 
Q 544 4100 942 4425 
Q 1341 4750 2034 4750 
Q 2731 4750 3128 4425 
Q 3525 4100 3525 3541 
Q 3525 3141 3298 2862 
Q 3072 2584 2669 2484 
Q 3125 2378 3379 2068 
Q 3634 1759 3634 1313 
Q 3634 634 3220 271 
Q 2806 -91 2034 -91 
Q 1263 -91 848 271 
Q 434 634 434 1313 
Q 434 1759 690 2068 
Q 947 2378 1403 2484 
z
M 1172 3481 
Q 1172 3119 1398 2916 
Q 1625 2713 2034 2713 
Q 2441 2713 2670 2916 
Q 2900 3119 2900 3481 
Q 2900 3844 2670 4047 
Q 2441 4250 2034 4250 
Q 1625 4250 1398 4047 
Q 1172 3844 1172 3481 
z
" transform="scale(0.015625)"/>
       </defs>
       <use xlink:href="#DejaVuSans-38"/>
       <use xlink:href="#DejaVuSans-30" transform="translate(63.623047 0)"/>
      </g>
     </g>
    </g>
    <g id="text_6">
     <!-- Tempo -->
     <g style="fill: #1c1b1a" transform="translate(325.64982 341.857533) scale(0.105 -0.105)">
      <defs>
       <path id="DejaVuSans-54" d="M -19 4666 
L 3928 4666 
L 3928 4134 
L 2272 4134 
L 2272 0 
L 1638 0 
L 1638 4134 
L -19 4134 
L -19 4666 
z
" transform="scale(0.015625)"/>
       <path id="DejaVuSans-65" d="M 3597 1894 
L 3597 1613 
L 953 1613 
Q 991 1019 1311 708 
Q 1631 397 2203 397 
Q 2534 397 2845 478 
Q 3156 559 3463 722 
L 3463 178 
Q 3153 47 2828 -22 
Q 2503 -91 2169 -91 
Q 1331 -91 842 396 
Q 353 884 353 1716 
Q 353 2575 817 3079 
Q 1281 3584 2069 3584 
Q 2775 3584 3186 3129 
Q 3597 2675 3597 1894 
z
M 3022 2063 
Q 3016 2534 2758 2815 
Q 2500 3097 2075 3097 
Q 1594 3097 1305 2825 
Q 1016 2553 972 2059 
L 3022 2063 
z
" transform="scale(0.015625)"/>
       <path id="DejaVuSans-6d" d="M 3328 2828 
Q 3544 3216 3844 3400 
Q 4144 3584 4550 3584 
Q 5097 3584 5394 3201 
Q 5691 2819 5691 2113 
L 5691 0 
L 5113 0 
L 5113 2094 
Q 5113 2597 4934 2840 
Q 4756 3084 4391 3084 
Q 3944 3084 3684 2787 
Q 3425 2491 3425 1978 
L 3425 0 
L 2847 0 
L 2847 2094 
Q 2847 2600 2669 2842 
Q 2491 3084 2119 3084 
Q 1678 3084 1418 2786 
Q 1159 2488 1159 1978 
L 1159 0 
L 581 0 
L 581 3500 
L 1159 3500 
L 1159 2956 
Q 1356 3278 1631 3431 
Q 1906 3584 2284 3584 
Q 2666 3584 2933 3390 
Q 3200 3197 3328 2828 
z
" transform="scale(0.015625)"/>
       <path id="DejaVuSans-70" d="M 1159 525 
L 1159 -1331 
L 581 -1331 
L 581 3500 
L 1159 3500 
L 1159 2969 
Q 1341 3281 1617 3432 
Q 1894 3584 2278 3584 
Q 2916 3584 3314 3078 
Q 3713 2572 3713 1747 
Q 3713 922 3314 415 
Q 2916 -91 2278 -91 
Q 1894 -91 1617 61 
Q 1341 213 1159 525 
z
M 3116 1747 
Q 3116 2381 2855 2742 
Q 2594 3103 2138 3103 
Q 1681 3103 1420 2742 
Q 1159 2381 1159 1747 
Q 1159 1113 1420 752 
Q 1681 391 2138 391 
Q 2594 391 2855 752 
Q 3116 1113 3116 1747 
z
" transform="scale(0.015625)"/>
       <path id="DejaVuSans-6f" d="M 1959 3097 
Q 1497 3097 1228 2736 
Q 959 2375 959 1747 
Q 959 1119 1226 758 
Q 1494 397 1959 397 
Q 2419 397 2687 759 
Q 2956 1122 2956 1747 
Q 2956 2369 2687 2733 
Q 2419 3097 1959 3097 
z
M 1959 3584 
Q 2709 3584 3137 3096 
Q 3566 2609 3566 1747 
Q 3566 888 3137 398 
Q 2709 -91 1959 -91 
Q 1206 -91 779 398 
Q 353 888 353 1747 
Q 353 2609 779 3096 
Q 1206 3584 1959 3584 
z
" transform="scale(0.015625)"/>
      </defs>
      <use xlink:href="#DejaVuSans-54"/>
      <use xlink:href="#DejaVuSans-65" transform="translate(44.083984 0)"/>
      <use xlink:href="#DejaVuSans-6d" transform="translate(105.607422 0)"/>
      <use xlink:href="#DejaVuSans-70" transform="translate(203.019531 0)"/>
      <use xlink:href="#DejaVuSans-6f" transform="translate(266.496094 0)"/>
     </g>
    </g>
   </g>
   <g id="matplotlib.axis_2">
    <g id="ytick_1">
     <g id="line2d_6">
      <path d="M 60.714571 301.041863 
L 624.992256 301.041863 
" clip-path="url(#p79b3ae8d68)" style="fill: none; stroke: #cecdc3; stroke-opacity: 0.9; stroke-width: 0.9; stroke-linecap: square"/>
     </g>
     <g id="line2d_7"/>
     <g id="text_7">
      <!-- 3,2 -->
      <g style="fill: #6f6e69" transform="translate(38.01629 305.031042) scale(0.105 -0.105)">
       <defs>
        <path id="DejaVuSans-33" d="M 2597 2516 
Q 3050 2419 3304 2112 
Q 3559 1806 3559 1356 
Q 3559 666 3084 287 
Q 2609 -91 1734 -91 
Q 1441 -91 1130 -33 
Q 819 25 488 141 
L 488 750 
Q 750 597 1062 519 
Q 1375 441 1716 441 
Q 2309 441 2620 675 
Q 2931 909 2931 1356 
Q 2931 1769 2642 2001 
Q 2353 2234 1838 2234 
L 1294 2234 
L 1294 2753 
L 1863 2753 
Q 2328 2753 2575 2939 
Q 2822 3125 2822 3475 
Q 2822 3834 2567 4026 
Q 2313 4219 1838 4219 
Q 1578 4219 1281 4162 
Q 984 4106 628 3988 
L 628 4550 
Q 988 4650 1302 4700 
Q 1616 4750 1894 4750 
Q 2613 4750 3031 4423 
Q 3450 4097 3450 3541 
Q 3450 3153 3228 2886 
Q 3006 2619 2597 2516 
z
" transform="scale(0.015625)"/>
        <path id="DejaVuSans-2c" d="M 750 794 
L 1409 794 
L 1409 256 
L 897 -744 
L 494 -744 
L 750 256 
L 750 794 
z
" transform="scale(0.015625)"/>
       </defs>
       <use xlink:href="#DejaVuSans-33"/>
       <use xlink:href="#DejaVuSans-2c" transform="translate(63.623047 0)"/>
       <use xlink:href="#DejaVuSans-32" transform="translate(95.410156 0)"/>
      </g>
     </g>
    </g>
    <g id="ytick_2">
     <g id="line2d_8">
      <path d="M 60.714571 276.295846 
L 624.992256 276.295846 
" clip-path="url(#p79b3ae8d68)" style="fill: none; stroke: #cecdc3; stroke-opacity: 0.9; stroke-width: 0.9; stroke-linecap: square"/>
     </g>
     <g id="line2d_9"/>
     <g id="text_8">
      <!-- 3,3 -->
      <g style="fill: #6f6e69" transform="translate(38.01629 280.285026) scale(0.105 -0.105)">
       <use xlink:href="#DejaVuSans-33"/>
       <use xlink:href="#DejaVuSans-2c" transform="translate(63.623047 0)"/>
       <use xlink:href="#DejaVuSans-33" transform="translate(95.410156 0)"/>
      </g>
     </g>
    </g>
    <g id="ytick_3">
     <g id="line2d_10">
      <path d="M 60.714571 251.549829 
L 624.992256 251.549829 
" clip-path="url(#p79b3ae8d68)" style="fill: none; stroke: #cecdc3; stroke-opacity: 0.9; stroke-width: 0.9; stroke-linecap: square"/>
     </g>
     <g id="line2d_11"/>
     <g id="text_9">
      <!-- 3,4 -->
      <g style="fill: #6f6e69" transform="translate(38.01629 255.539009) scale(0.105 -0.105)">
       <use xlink:href="#DejaVuSans-33"/>
       <use xlink:href="#DejaVuSans-2c" transform="translate(63.623047 0)"/>
       <use xlink:href="#DejaVuSans-34" transform="translate(95.410156 0)"/>
      </g>
     </g>
    </g>
    <g id="ytick_4">
     <g id="line2d_12">
      <path d="M 60.714571 226.803812 
L 624.992256 226.803812 
" clip-path="url(#p79b3ae8d68)" style="fill: none; stroke: #cecdc3; stroke-opacity: 0.9; stroke-width: 0.9; stroke-linecap: square"/>
     </g>
     <g id="line2d_13"/>
     <g id="text_10">
      <!-- 3,5 -->
      <g style="fill: #6f6e69" transform="translate(38.01629 230.792992) scale(0.105 -0.105)">
       <defs>
        <path id="DejaVuSans-35" d="M 691 4666 
L 3169 4666 
L 3169 4134 
L 1269 4134 
L 1269 2991 
Q 1406 3038 1543 3061 
Q 1681 3084 1819 3084 
Q 2600 3084 3056 2656 
Q 3513 2228 3513 1497 
Q 3513 744 3044 326 
Q 2575 -91 1722 -91 
Q 1428 -91 1123 -41 
Q 819 9 494 109 
L 494 744 
Q 775 591 1075 516 
Q 1375 441 1709 441 
Q 2250 441 2565 725 
Q 2881 1009 2881 1497 
Q 2881 1984 2565 2268 
Q 2250 2553 1709 2553 
Q 1456 2553 1204 2497 
Q 953 2441 691 2322 
L 691 4666 
z
" transform="scale(0.015625)"/>
       </defs>
       <use xlink:href="#DejaVuSans-33"/>
       <use xlink:href="#DejaVuSans-2c" transform="translate(63.623047 0)"/>
       <use xlink:href="#DejaVuSans-35" transform="translate(95.410156 0)"/>
      </g>
     </g>
    </g>
    <g id="ytick_5">
     <g id="line2d_14">
      <path d="M 60.714571 202.057795 
L 624.992256 202.057795 
" clip-path="url(#p79b3ae8d68)" style="fill: none; stroke: #cecdc3; stroke-opacity: 0.9; stroke-width: 0.9; stroke-linecap: square"/>
     </g>
     <g id="line2d_15"/>
     <g id="text_11">
      <!-- 3,6 -->
      <g style="fill: #6f6e69" transform="translate(38.01629 206.046975) scale(0.105 -0.105)">
       <use xlink:href="#DejaVuSans-33"/>
       <use xlink:href="#DejaVuSans-2c" transform="translate(63.623047 0)"/>
       <use xlink:href="#DejaVuSans-36" transform="translate(95.410156 0)"/>
      </g>
     </g>
    </g>
    <g id="ytick_6">
     <g id="line2d_16">
      <path d="M 60.714571 177.311778 
L 624.992256 177.311778 
" clip-path="url(#p79b3ae8d68)" style="fill: none; stroke: #cecdc3; stroke-opacity: 0.9; stroke-width: 0.9; stroke-linecap: square"/>
     </g>
     <g id="line2d_17"/>
     <g id="text_12">
      <!-- 3,7 -->
      <g style="fill: #6f6e69" transform="translate(38.01629 181.300958) scale(0.105 -0.105)">
       <defs>
        <path id="DejaVuSans-37" d="M 525 4666 
L 3525 4666 
L 3525 4397 
L 1831 0 
L 1172 0 
L 2766 4134 
L 525 4134 
L 525 4666 
z
" transform="scale(0.015625)"/>
       </defs>
       <use xlink:href="#DejaVuSans-33"/>
       <use xlink:href="#DejaVuSans-2c" transform="translate(63.623047 0)"/>
       <use xlink:href="#DejaVuSans-37" transform="translate(95.410156 0)"/>
      </g>
     </g>
    </g>
    <g id="ytick_7">
     <g id="line2d_18">
      <path d="M 60.714571 152.565761 
L 624.992256 152.565761 
" clip-path="url(#p79b3ae8d68)" style="fill: none; stroke: #cecdc3; stroke-opacity: 0.9; stroke-width: 0.9; stroke-linecap: square"/>
     </g>
     <g id="line2d_19"/>
     <g id="text_13">
      <!-- 3,8 -->
      <g style="fill: #6f6e69" transform="translate(38.01629 156.554941) scale(0.105 -0.105)">
       <use xlink:href="#DejaVuSans-33"/>
       <use xlink:href="#DejaVuSans-2c" transform="translate(63.623047 0)"/>
       <use xlink:href="#DejaVuSans-38" transform="translate(95.410156 0)"/>
      </g>
     </g>
    </g>
    <g id="ytick_8">
     <g id="line2d_20">
      <path d="M 60.714571 127.819744 
L 624.992256 127.819744 
" clip-path="url(#p79b3ae8d68)" style="fill: none; stroke: #cecdc3; stroke-opacity: 0.9; stroke-width: 0.9; stroke-linecap: square"/>
     </g>
     <g id="line2d_21"/>
     <g id="text_14">
      <!-- 3,9 -->
      <g style="fill: #6f6e69" transform="translate(38.01629 131.808924) scale(0.105 -0.105)">
       <defs>
        <path id="DejaVuSans-39" d="M 703 97 
L 703 672 
Q 941 559 1184 500 
Q 1428 441 1663 441 
Q 2288 441 2617 861 
Q 2947 1281 2994 2138 
Q 2813 1869 2534 1725 
Q 2256 1581 1919 1581 
Q 1219 1581 811 2004 
Q 403 2428 403 3163 
Q 403 3881 828 4315 
Q 1253 4750 1959 4750 
Q 2769 4750 3195 4129 
Q 3622 3509 3622 2328 
Q 3622 1225 3098 567 
Q 2575 -91 1691 -91 
Q 1453 -91 1209 -44 
Q 966 3 703 97 
z
M 1959 2075 
Q 2384 2075 2632 2365 
Q 2881 2656 2881 3163 
Q 2881 3666 2632 3958 
Q 2384 4250 1959 4250 
Q 1534 4250 1286 3958 
Q 1038 3666 1038 3163 
Q 1038 2656 1286 2365 
Q 1534 2075 1959 2075 
z
" transform="scale(0.015625)"/>
       </defs>
       <use xlink:href="#DejaVuSans-33"/>
       <use xlink:href="#DejaVuSans-2c" transform="translate(63.623047 0)"/>
       <use xlink:href="#DejaVuSans-39" transform="translate(95.410156 0)"/>
      </g>
     </g>
    </g>
    <g id="ytick_9">
     <g id="line2d_22">
      <path d="M 60.714571 103.073728 
L 624.992256 103.073728 
" clip-path="url(#p79b3ae8d68)" style="fill: none; stroke: #cecdc3; stroke-opacity: 0.9; stroke-width: 0.9; stroke-linecap: square"/>
     </g>
     <g id="line2d_23"/>
     <g id="text_15">
      <!-- 4 -->
      <g style="fill: #6f6e69" transform="translate(48.033946 107.062907) scale(0.105 -0.105)">
       <use xlink:href="#DejaVuSans-34"/>
      </g>
     </g>
    </g>
    <g id="text_16">
     <!-- Capital por trabalhador efetivo, $k(t)$ -->
     <g style="fill: #1c1b1a" transform="translate(25.81129 292.083357) rotate(-90) scale(0.105 -0.105)">
      <defs>
       <path id="DejaVuSans-43" d="M 4122 4306 
L 4122 3641 
Q 3803 3938 3442 4084 
Q 3081 4231 2675 4231 
Q 1875 4231 1450 3742 
Q 1025 3253 1025 2328 
Q 1025 1406 1450 917 
Q 1875 428 2675 428 
Q 3081 428 3442 575 
Q 3803 722 4122 1019 
L 4122 359 
Q 3791 134 3420 21 
Q 3050 -91 2638 -91 
Q 1578 -91 968 557 
Q 359 1206 359 2328 
Q 359 3453 968 4101 
Q 1578 4750 2638 4750 
Q 3056 4750 3426 4639 
Q 3797 4528 4122 4306 
z
" transform="scale(0.015625)"/>
       <path id="DejaVuSans-61" d="M 2194 1759 
Q 1497 1759 1228 1600 
Q 959 1441 959 1056 
Q 959 750 1161 570 
Q 1363 391 1709 391 
Q 2188 391 2477 730 
Q 2766 1069 2766 1631 
L 2766 1759 
L 2194 1759 
z
M 3341 1997 
L 3341 0 
L 2766 0 
L 2766 531 
Q 2569 213 2275 61 
Q 1981 -91 1556 -91 
Q 1019 -91 701 211 
Q 384 513 384 1019 
Q 384 1609 779 1909 
Q 1175 2209 1959 2209 
L 2766 2209 
L 2766 2266 
Q 2766 2663 2505 2880 
Q 2244 3097 1772 3097 
Q 1472 3097 1187 3025 
Q 903 2953 641 2809 
L 641 3341 
Q 956 3463 1253 3523 
Q 1550 3584 1831 3584 
Q 2591 3584 2966 3190 
Q 3341 2797 3341 1997 
z
" transform="scale(0.015625)"/>
       <path id="DejaVuSans-69" d="M 603 3500 
L 1178 3500 
L 1178 0 
L 603 0 
L 603 3500 
z
M 603 4863 
L 1178 4863 
L 1178 4134 
L 603 4134 
L 603 4863 
z
" transform="scale(0.015625)"/>
       <path id="DejaVuSans-74" d="M 1172 4494 
L 1172 3500 
L 2356 3500 
L 2356 3053 
L 1172 3053 
L 1172 1153 
Q 1172 725 1289 603 
Q 1406 481 1766 481 
L 2356 481 
L 2356 0 
L 1766 0 
Q 1100 0 847 248 
Q 594 497 594 1153 
L 594 3053 
L 172 3053 
L 172 3500 
L 594 3500 
L 594 4494 
L 1172 4494 
z
" transform="scale(0.015625)"/>
       <path id="DejaVuSans-6c" d="M 603 4863 
L 1178 4863 
L 1178 0 
L 603 0 
L 603 4863 
z
" transform="scale(0.015625)"/>
       <path id="DejaVuSans-20" transform="scale(0.015625)"/>
       <path id="DejaVuSans-72" d="M 2631 2963 
Q 2534 3019 2420 3045 
Q 2306 3072 2169 3072 
Q 1681 3072 1420 2755 
Q 1159 2438 1159 1844 
L 1159 0 
L 581 0 
L 581 3500 
L 1159 3500 
L 1159 2956 
Q 1341 3275 1631 3429 
Q 1922 3584 2338 3584 
Q 2397 3584 2469 3576 
Q 2541 3569 2628 3553 
L 2631 2963 
z
" transform="scale(0.015625)"/>
       <path id="DejaVuSans-62" d="M 3116 1747 
Q 3116 2381 2855 2742 
Q 2594 3103 2138 3103 
Q 1681 3103 1420 2742 
Q 1159 2381 1159 1747 
Q 1159 1113 1420 752 
Q 1681 391 2138 391 
Q 2594 391 2855 752 
Q 3116 1113 3116 1747 
z
M 1159 2969 
Q 1341 3281 1617 3432 
Q 1894 3584 2278 3584 
Q 2916 3584 3314 3078 
Q 3713 2572 3713 1747 
Q 3713 922 3314 415 
Q 2916 -91 2278 -91 
Q 1894 -91 1617 61 
Q 1341 213 1159 525 
L 1159 0 
L 581 0 
L 581 4863 
L 1159 4863 
L 1159 2969 
z
" transform="scale(0.015625)"/>
       <path id="DejaVuSans-68" d="M 3513 2113 
L 3513 0 
L 2938 0 
L 2938 2094 
Q 2938 2591 2744 2837 
Q 2550 3084 2163 3084 
Q 1697 3084 1428 2787 
Q 1159 2491 1159 1978 
L 1159 0 
L 581 0 
L 581 4863 
L 1159 4863 
L 1159 2956 
Q 1366 3272 1645 3428 
Q 1925 3584 2291 3584 
Q 2894 3584 3203 3211 
Q 3513 2838 3513 2113 
z
" transform="scale(0.015625)"/>
       <path id="DejaVuSans-64" d="M 2906 2969 
L 2906 4863 
L 3481 4863 
L 3481 0 
L 2906 0 
L 2906 525 
Q 2725 213 2448 61 
Q 2172 -91 1784 -91 
Q 1150 -91 751 415 
Q 353 922 353 1747 
Q 353 2572 751 3078 
Q 1150 3584 1784 3584 
Q 2172 3584 2448 3432 
Q 2725 3281 2906 2969 
z
M 947 1747 
Q 947 1113 1208 752 
Q 1469 391 1925 391 
Q 2381 391 2643 752 
Q 2906 1113 2906 1747 
Q 2906 2381 2643 2742 
Q 2381 3103 1925 3103 
Q 1469 3103 1208 2742 
Q 947 2381 947 1747 
z
" transform="scale(0.015625)"/>
       <path id="DejaVuSans-66" d="M 2375 4863 
L 2375 4384 
L 1825 4384 
Q 1516 4384 1395 4259 
Q 1275 4134 1275 3809 
L 1275 3500 
L 2222 3500 
L 2222 3053 
L 1275 3053 
L 1275 0 
L 697 0 
L 697 3053 
L 147 3053 
L 147 3500 
L 697 3500 
L 697 3744 
Q 697 4328 969 4595 
Q 1241 4863 1831 4863 
L 2375 4863 
z
" transform="scale(0.015625)"/>
       <path id="DejaVuSans-76" d="M 191 3500 
L 800 3500 
L 1894 563 
L 2988 3500 
L 3597 3500 
L 2284 0 
L 1503 0 
L 191 3500 
z
" transform="scale(0.015625)"/>
       <path id="DejaVuSans-Oblique-6b" d="M 1172 4863 
L 1747 4863 
L 1197 2028 
L 3169 3500 
L 3916 3500 
L 1716 1825 
L 3322 0 
L 2625 0 
L 1131 1709 
L 800 0 
L 225 0 
L 1172 4863 
z
" transform="scale(0.015625)"/>
       <path id="DejaVuSans-28" d="M 1984 4856 
Q 1566 4138 1362 3434 
Q 1159 2731 1159 2009 
Q 1159 1288 1364 580 
Q 1569 -128 1984 -844 
L 1484 -844 
Q 1016 -109 783 600 
Q 550 1309 550 2009 
Q 550 2706 781 3412 
Q 1013 4119 1484 4856 
L 1984 4856 
z
" transform="scale(0.015625)"/>
       <path id="DejaVuSans-Oblique-74" d="M 2706 3500 
L 2619 3053 
L 1472 3053 
L 1100 1153 
Q 1081 1047 1072 975 
Q 1063 903 1063 863 
Q 1063 663 1183 572 
Q 1303 481 1569 481 
L 2150 481 
L 2053 0 
L 1503 0 
Q 991 0 739 200 
Q 488 400 488 806 
Q 488 878 497 964 
Q 506 1050 525 1153 
L 897 3053 
L 409 3053 
L 500 3500 
L 978 3500 
L 1172 4494 
L 1747 4494 
L 1556 3500 
L 2706 3500 
z
" transform="scale(0.015625)"/>
       <path id="DejaVuSans-29" d="M 513 4856 
L 1013 4856 
Q 1481 4119 1714 3412 
Q 1947 2706 1947 2009 
Q 1947 1309 1714 600 
Q 1481 -109 1013 -844 
L 513 -844 
Q 928 -128 1133 580 
Q 1338 1288 1338 2009 
Q 1338 2731 1133 3434 
Q 928 4138 513 4856 
z
" transform="scale(0.015625)"/>
      </defs>
      <use xlink:href="#DejaVuSans-43" transform="translate(0 0.015625)"/>
      <use xlink:href="#DejaVuSans-61" transform="translate(69.824219 0.015625)"/>
      <use xlink:href="#DejaVuSans-70" transform="translate(131.103516 0.015625)"/>
      <use xlink:href="#DejaVuSans-69" transform="translate(194.580078 0.015625)"/>
      <use xlink:href="#DejaVuSans-74" transform="translate(222.363281 0.015625)"/>
      <use xlink:href="#DejaVuSans-61" transform="translate(261.572266 0.015625)"/>
      <use xlink:href="#DejaVuSans-6c" transform="translate(322.851562 0.015625)"/>
      <use xlink:href="#DejaVuSans-20" transform="translate(350.634766 0.015625)"/>
      <use xlink:href="#DejaVuSans-70" transform="translate(382.421875 0.015625)"/>
      <use xlink:href="#DejaVuSans-6f" transform="translate(445.898438 0.015625)"/>
      <use xlink:href="#DejaVuSans-72" transform="translate(507.080078 0.015625)"/>
      <use xlink:href="#DejaVuSans-20" transform="translate(548.193359 0.015625)"/>
      <use xlink:href="#DejaVuSans-74" transform="translate(579.980469 0.015625)"/>
      <use xlink:href="#DejaVuSans-72" transform="translate(619.189453 0.015625)"/>
      <use xlink:href="#DejaVuSans-61" transform="translate(660.302734 0.015625)"/>
      <use xlink:href="#DejaVuSans-62" transform="translate(721.582031 0.015625)"/>
      <use xlink:href="#DejaVuSans-61" transform="translate(785.058594 0.015625)"/>
      <use xlink:href="#DejaVuSans-6c" transform="translate(846.337891 0.015625)"/>
      <use xlink:href="#DejaVuSans-68" transform="translate(874.121094 0.015625)"/>
      <use xlink:href="#DejaVuSans-61" transform="translate(937.5 0.015625)"/>
      <use xlink:href="#DejaVuSans-64" transform="translate(998.779297 0.015625)"/>
      <use xlink:href="#DejaVuSans-6f" transform="translate(1062.255859 0.015625)"/>
      <use xlink:href="#DejaVuSans-72" transform="translate(1123.4375 0.015625)"/>
      <use xlink:href="#DejaVuSans-20" transform="translate(1164.550781 0.015625)"/>
      <use xlink:href="#DejaVuSans-65" transform="translate(1196.337891 0.015625)"/>
      <use xlink:href="#DejaVuSans-66" transform="translate(1257.861328 0.015625)"/>
      <use xlink:href="#DejaVuSans-65" transform="translate(1293.066406 0.015625)"/>
      <use xlink:href="#DejaVuSans-74" transform="translate(1354.589844 0.015625)"/>
      <use xlink:href="#DejaVuSans-69" transform="translate(1393.798828 0.015625)"/>
      <use xlink:href="#DejaVuSans-76" transform="translate(1421.582031 0.015625)"/>
      <use xlink:href="#DejaVuSans-6f" transform="translate(1480.761719 0.015625)"/>
      <use xlink:href="#DejaVuSans-2c" transform="translate(1541.943359 0.015625)"/>
      <use xlink:href="#DejaVuSans-20" transform="translate(1573.730469 0.015625)"/>
      <use xlink:href="#DejaVuSans-Oblique-6b" transform="translate(1605.517578 0.015625)"/>
      <use xlink:href="#DejaVuSans-28" transform="translate(1663.427734 0.015625)"/>
      <use xlink:href="#DejaVuSans-Oblique-74" transform="translate(1702.441406 0.015625)"/>
      <use xlink:href="#DejaVuSans-29" transform="translate(1741.650391 0.015625)"/>
     </g>
    </g>
   </g>
   <g id="line2d_24">
    <path d="M 99.630274 297.795662 
L 103.585122 286.193259 
L 107.539969 275.251856 
L 111.494817 264.935903 
L 115.449665 255.211466 
L 119.404513 246.046207 
L 123.359361 237.409342 
L 127.314208 229.271597 
L 131.269056 221.605163 
L 135.528123 213.845846 
L 139.78719 206.571341 
L 144.046257 199.752196 
L 148.305324 193.360631 
L 152.564391 187.370463 
L 156.823457 181.757026 
L 161.082524 176.497098 
L 165.341591 171.568823 
L 169.904877 166.633232 
L 174.468163 162.031058 
L 179.031449 157.740101 
L 183.594735 153.739591 
L 188.46224 149.770659 
L 193.329745 146.088125 
L 198.19725 142.671533 
L 203.368974 139.31154 
L 208.540698 136.209136 
L 214.016641 133.183252 
L 219.796803 130.25505 
L 225.576965 127.577056 
L 231.661347 125.005085 
L 238.049947 122.552802 
L 244.742766 120.23101 
L 251.739805 118.047724 
L 259.041062 116.008293 
L 266.646539 114.115579 
L 274.860453 112.307221 
L 283.378587 110.660045 
L 292.505159 109.120852 
L 302.240169 107.702477 
L 312.887836 106.377958 
L 324.448161 105.16751 
L 337.225361 104.059852 
L 351.219438 103.074351 
L 367.038829 102.190491 
L 384.987754 101.419139 
L 405.67465 100.761182 
L 430.012175 100.217357 
L 459.521424 99.788863 
L 496.027711 99.490142 
L 538.61838 99.366455 
L 577.55842 99.465309 
L 586.076554 99.524343 
L 586.076554 99.524343 
" clip-path="url(#p79b3ae8d68)" style="fill: none; stroke: #3aa99f; stroke-width: 2.4; stroke-linecap: square"/>
   </g>
   <g id="line2d_25">
    <path d="M 99.630274 297.795662 
L 105.102794 289.733182 
L 111.183373 281.19133 
L 117.263951 273.068805 
L 123.34453 265.346563 
L 129.425108 258.006252 
L 135.505687 251.030201 
L 141.586265 244.401421 
L 147.666844 238.103592 
L 153.747422 232.121055 
L 159.828001 226.438792 
L 165.908579 221.04242 
L 172.597216 215.420192 
L 179.285852 210.109742 
L 185.974489 205.094412 
L 192.663125 200.358364 
L 199.351761 195.88654 
L 206.040398 191.664637 
L 213.337092 187.32802 
L 220.633786 183.255987 
L 227.93048 179.43278 
L 235.835232 175.554543 
L 243.739984 171.93311 
L 251.644736 168.551797 
L 260.157546 165.160999 
L 268.670356 162.012288 
L 277.791224 158.88799 
L 286.912092 156.002597 
L 296.641017 153.167868 
L 306.369943 150.564214 
L 316.706926 148.030195 
L 327.651968 145.585723 
L 338.597009 143.364836 
L 350.150108 141.24073 
L 362.311265 139.225745 
L 375.08048 137.329348 
L 389.06581 135.482563 
L 403.659199 133.782988 
L 419.468703 132.172152 
L 436.494323 130.67072 
L 454.736058 129.29333 
L 474.193909 128.048844 
L 495.475934 126.911219 
L 519.19019 125.871414 
L 545.336678 124.951016 
L 575.131512 124.13113 
L 586.076554 123.880154 
L 586.076554 123.880154 
" clip-path="url(#p79b3ae8d68)" style="fill: none; stroke-dasharray: 8.88,3.84; stroke-dashoffset: 0; stroke: #da702c; stroke-width: 2.4"/>
   </g>
   <g id="line2d_26">
    <path d="M 60.714571 99.015977 
L 624.992256 99.015977 
" clip-path="url(#p79b3ae8d68)" style="fill: none; stroke-dasharray: 1.2,1.98; stroke-dashoffset: 0; stroke: #6f6e69; stroke-width: 1.2"/>
   </g>
   <g id="patch_3">
    <path d="M 60.714571 307.717143 
L 60.714571 89.444571 
" style="fill: none; stroke: #cecdc3; stroke-width: 0.8; stroke-linejoin: miter; stroke-linecap: square"/>
   </g>
   <g id="patch_4">
    <path d="M 60.714571 307.717143 
L 624.992256 307.717143 
" style="fill: none; stroke: #cecdc3; stroke-width: 0.8; stroke-linejoin: miter; stroke-linecap: square"/>
   </g>
   <g id="text_17">
    <!-- RCK -->
    <g style="fill: #3aa99f" transform="translate(594.076554 102.145749) scale(0.095 -0.095)">
     <defs>
      <path id="DejaVuSans-52" d="M 2841 2188 
Q 3044 2119 3236 1894 
Q 3428 1669 3622 1275 
L 4263 0 
L 3584 0 
L 2988 1197 
Q 2756 1666 2539 1819 
Q 2322 1972 1947 1972 
L 1259 1972 
L 1259 0 
L 628 0 
L 628 4666 
L 2053 4666 
Q 2853 4666 3247 4331 
Q 3641 3997 3641 3322 
Q 3641 2881 3436 2590 
Q 3231 2300 2841 2188 
z
M 1259 4147 
L 1259 2491 
L 2053 2491 
Q 2509 2491 2742 2702 
Q 2975 2913 2975 3322 
Q 2975 3731 2742 3939 
Q 2509 4147 2053 4147 
L 1259 4147 
z
" transform="scale(0.015625)"/>
      <path id="DejaVuSans-4b" d="M 628 4666 
L 1259 4666 
L 1259 2694 
L 3353 4666 
L 4166 4666 
L 1850 2491 
L 4331 0 
L 3500 0 
L 1259 2247 
L 1259 0 
L 628 0 
L 628 4666 
z
" transform="scale(0.015625)"/>
     </defs>
     <use xlink:href="#DejaVuSans-52"/>
     <use xlink:href="#DejaVuSans-43" transform="translate(64.482422 0)"/>
     <use xlink:href="#DejaVuSans-4b" transform="translate(134.306641 0)"/>
    </g>
   </g>
   <g id="text_18">
    <!-- Solow -->
    <g style="fill: #da702c" transform="translate(594.076554 136.50156) scale(0.095 -0.095)">
     <defs>
      <path id="DejaVuSans-53" d="M 3425 4513 
L 3425 3897 
Q 3066 4069 2747 4153 
Q 2428 4238 2131 4238 
Q 1616 4238 1336 4038 
Q 1056 3838 1056 3469 
Q 1056 3159 1242 3001 
Q 1428 2844 1947 2747 
L 2328 2669 
Q 3034 2534 3370 2195 
Q 3706 1856 3706 1288 
Q 3706 609 3251 259 
Q 2797 -91 1919 -91 
Q 1588 -91 1214 -16 
Q 841 59 441 206 
L 441 856 
Q 825 641 1194 531 
Q 1563 422 1919 422 
Q 2459 422 2753 634 
Q 3047 847 3047 1241 
Q 3047 1584 2836 1778 
Q 2625 1972 2144 2069 
L 1759 2144 
Q 1053 2284 737 2584 
Q 422 2884 422 3419 
Q 422 4038 858 4394 
Q 1294 4750 2059 4750 
Q 2388 4750 2728 4690 
Q 3069 4631 3425 4513 
z
" transform="scale(0.015625)"/>
      <path id="DejaVuSans-77" d="M 269 3500 
L 844 3500 
L 1563 769 
L 2278 3500 
L 2956 3500 
L 3675 769 
L 4391 3500 
L 4966 3500 
L 4050 0 
L 3372 0 
L 2619 2869 
L 1863 0 
L 1184 0 
L 269 3500 
z
" transform="scale(0.015625)"/>
     </defs>
     <use xlink:href="#DejaVuSans-53"/>
     <use xlink:href="#DejaVuSans-6f" transform="translate(63.476562 0)"/>
     <use xlink:href="#DejaVuSans-6c" transform="translate(124.658203 0)"/>
     <use xlink:href="#DejaVuSans-6f" transform="translate(152.441406 0)"/>
     <use xlink:href="#DejaVuSans-77" transform="translate(213.623047 0)"/>
    </g>
   </g>
  </g>
  <g id="text_19">
   <!-- RCK versus Solow: transição do capital -->
   <g style="fill: #1c1b1a" transform="translate(14.4 26.845) scale(0.16 -0.16)">
    <defs>
     <path id="DejaVuSans-Bold-52" d="M 2297 2597 
Q 2675 2597 2839 2737 
Q 3003 2878 3003 3200 
Q 3003 3519 2839 3656 
Q 2675 3794 2297 3794 
L 1791 3794 
L 1791 2597 
L 2297 2597 
z
M 1791 1766 
L 1791 0 
L 588 0 
L 588 4666 
L 2425 4666 
Q 3347 4666 3776 4356 
Q 4206 4047 4206 3378 
Q 4206 2916 3982 2619 
Q 3759 2322 3309 2181 
Q 3556 2125 3751 1926 
Q 3947 1728 4147 1325 
L 4800 0 
L 3519 0 
L 2950 1159 
Q 2778 1509 2601 1637 
Q 2425 1766 2131 1766 
L 1791 1766 
z
" transform="scale(0.015625)"/>
     <path id="DejaVuSans-Bold-43" d="M 4288 256 
Q 3956 84 3597 -3 
Q 3238 -91 2847 -91 
Q 1681 -91 1000 561 
Q 319 1213 319 2328 
Q 319 3447 1000 4098 
Q 1681 4750 2847 4750 
Q 3238 4750 3597 4662 
Q 3956 4575 4288 4403 
L 4288 3438 
Q 3953 3666 3628 3772 
Q 3303 3878 2944 3878 
Q 2300 3878 1931 3465 
Q 1563 3053 1563 2328 
Q 1563 1606 1931 1193 
Q 2300 781 2944 781 
Q 3303 781 3628 887 
Q 3953 994 4288 1222 
L 4288 256 
z
" transform="scale(0.015625)"/>
     <path id="DejaVuSans-Bold-4b" d="M 588 4666 
L 1791 4666 
L 1791 2963 
L 3525 4666 
L 4922 4666 
L 2675 2456 
L 5153 0 
L 3647 0 
L 1791 1838 
L 1791 0 
L 588 0 
L 588 4666 
z
" transform="scale(0.015625)"/>
     <path id="DejaVuSans-Bold-20" transform="scale(0.015625)"/>
     <path id="DejaVuSans-Bold-76" d="M 97 3500 
L 1216 3500 
L 2088 1081 
L 2956 3500 
L 4078 3500 
L 2700 0 
L 1472 0 
L 97 3500 
z
" transform="scale(0.015625)"/>
     <path id="DejaVuSans-Bold-65" d="M 4031 1759 
L 4031 1441 
L 1416 1441 
Q 1456 1047 1700 850 
Q 1944 653 2381 653 
Q 2734 653 3104 758 
Q 3475 863 3866 1075 
L 3866 213 
Q 3469 63 3072 -14 
Q 2675 -91 2278 -91 
Q 1328 -91 801 392 
Q 275 875 275 1747 
Q 275 2603 792 3093 
Q 1309 3584 2216 3584 
Q 3041 3584 3536 3087 
Q 4031 2591 4031 1759 
z
M 2881 2131 
Q 2881 2450 2695 2645 
Q 2509 2841 2209 2841 
Q 1884 2841 1681 2658 
Q 1478 2475 1428 2131 
L 2881 2131 
z
" transform="scale(0.015625)"/>
     <path id="DejaVuSans-Bold-72" d="M 3138 2547 
Q 2991 2616 2845 2648 
Q 2700 2681 2553 2681 
Q 2122 2681 1889 2404 
Q 1656 2128 1656 1613 
L 1656 0 
L 538 0 
L 538 3500 
L 1656 3500 
L 1656 2925 
Q 1872 3269 2151 3426 
Q 2431 3584 2822 3584 
Q 2878 3584 2943 3579 
Q 3009 3575 3134 3559 
L 3138 2547 
z
" transform="scale(0.015625)"/>
     <path id="DejaVuSans-Bold-73" d="M 3272 3391 
L 3272 2541 
Q 2913 2691 2578 2766 
Q 2244 2841 1947 2841 
Q 1628 2841 1473 2761 
Q 1319 2681 1319 2516 
Q 1319 2381 1436 2309 
Q 1553 2238 1856 2203 
L 2053 2175 
Q 2913 2066 3209 1816 
Q 3506 1566 3506 1031 
Q 3506 472 3093 190 
Q 2681 -91 1863 -91 
Q 1516 -91 1145 -36 
Q 775 19 384 128 
L 384 978 
Q 719 816 1070 734 
Q 1422 653 1784 653 
Q 2113 653 2278 743 
Q 2444 834 2444 1013 
Q 2444 1163 2330 1236 
Q 2216 1309 1875 1350 
L 1678 1375 
Q 931 1469 631 1722 
Q 331 1975 331 2491 
Q 331 3047 712 3315 
Q 1094 3584 1881 3584 
Q 2191 3584 2531 3537 
Q 2872 3491 3272 3391 
z
" transform="scale(0.015625)"/>
     <path id="DejaVuSans-Bold-75" d="M 500 1363 
L 500 3500 
L 1625 3500 
L 1625 3150 
Q 1625 2866 1622 2436 
Q 1619 2006 1619 1863 
Q 1619 1441 1641 1255 
Q 1663 1069 1716 984 
Q 1784 875 1895 815 
Q 2006 756 2150 756 
Q 2500 756 2700 1025 
Q 2900 1294 2900 1772 
L 2900 3500 
L 4019 3500 
L 4019 0 
L 2900 0 
L 2900 506 
Q 2647 200 2364 54 
Q 2081 -91 1741 -91 
Q 1134 -91 817 281 
Q 500 653 500 1363 
z
" transform="scale(0.015625)"/>
     <path id="DejaVuSans-Bold-53" d="M 3834 4519 
L 3834 3531 
Q 3450 3703 3084 3790 
Q 2719 3878 2394 3878 
Q 1963 3878 1756 3759 
Q 1550 3641 1550 3391 
Q 1550 3203 1689 3098 
Q 1828 2994 2194 2919 
L 2706 2816 
Q 3484 2659 3812 2340 
Q 4141 2022 4141 1434 
Q 4141 663 3683 286 
Q 3225 -91 2284 -91 
Q 1841 -91 1394 -6 
Q 947 78 500 244 
L 500 1259 
Q 947 1022 1364 901 
Q 1781 781 2169 781 
Q 2563 781 2772 912 
Q 2981 1044 2981 1288 
Q 2981 1506 2839 1625 
Q 2697 1744 2272 1838 
L 1806 1941 
Q 1106 2091 782 2419 
Q 459 2747 459 3303 
Q 459 4000 909 4375 
Q 1359 4750 2203 4750 
Q 2588 4750 2994 4692 
Q 3400 4634 3834 4519 
z
" transform="scale(0.015625)"/>
     <path id="DejaVuSans-Bold-6f" d="M 2203 2784 
Q 1831 2784 1636 2517 
Q 1441 2250 1441 1747 
Q 1441 1244 1636 976 
Q 1831 709 2203 709 
Q 2569 709 2762 976 
Q 2956 1244 2956 1747 
Q 2956 2250 2762 2517 
Q 2569 2784 2203 2784 
z
M 2203 3584 
Q 3106 3584 3614 3096 
Q 4122 2609 4122 1747 
Q 4122 884 3614 396 
Q 3106 -91 2203 -91 
Q 1297 -91 786 396 
Q 275 884 275 1747 
Q 275 2609 786 3096 
Q 1297 3584 2203 3584 
z
" transform="scale(0.015625)"/>
     <path id="DejaVuSans-Bold-6c" d="M 538 4863 
L 1656 4863 
L 1656 0 
L 538 0 
L 538 4863 
z
" transform="scale(0.015625)"/>
     <path id="DejaVuSans-Bold-77" d="M 225 3500 
L 1313 3500 
L 1900 1088 
L 2491 3500 
L 3425 3500 
L 4013 1113 
L 4603 3500 
L 5691 3500 
L 4769 0 
L 3547 0 
L 2956 2406 
L 2369 0 
L 1147 0 
L 225 3500 
z
" transform="scale(0.015625)"/>
     <path id="DejaVuSans-Bold-3a" d="M 716 3500 
L 1844 3500 
L 1844 2291 
L 716 2291 
L 716 3500 
z
M 716 1209 
L 1844 1209 
L 1844 0 
L 716 0 
L 716 1209 
z
" transform="scale(0.015625)"/>
     <path id="DejaVuSans-Bold-74" d="M 1759 4494 
L 1759 3500 
L 2913 3500 
L 2913 2700 
L 1759 2700 
L 1759 1216 
Q 1759 972 1856 886 
Q 1953 800 2241 800 
L 2816 800 
L 2816 0 
L 1856 0 
Q 1194 0 917 276 
Q 641 553 641 1216 
L 641 2700 
L 84 2700 
L 84 3500 
L 641 3500 
L 641 4494 
L 1759 4494 
z
" transform="scale(0.015625)"/>
     <path id="DejaVuSans-Bold-61" d="M 2106 1575 
Q 1756 1575 1579 1456 
Q 1403 1338 1403 1106 
Q 1403 894 1545 773 
Q 1688 653 1941 653 
Q 2256 653 2472 879 
Q 2688 1106 2688 1447 
L 2688 1575 
L 2106 1575 
z
M 3816 1997 
L 3816 0 
L 2688 0 
L 2688 519 
Q 2463 200 2181 54 
Q 1900 -91 1497 -91 
Q 953 -91 614 226 
Q 275 544 275 1050 
Q 275 1666 698 1953 
Q 1122 2241 2028 2241 
L 2688 2241 
L 2688 2328 
Q 2688 2594 2478 2717 
Q 2269 2841 1825 2841 
Q 1466 2841 1156 2769 
Q 847 2697 581 2553 
L 581 3406 
Q 941 3494 1303 3539 
Q 1666 3584 2028 3584 
Q 2975 3584 3395 3211 
Q 3816 2838 3816 1997 
z
" transform="scale(0.015625)"/>
     <path id="DejaVuSans-Bold-6e" d="M 4056 2131 
L 4056 0 
L 2931 0 
L 2931 347 
L 2931 1631 
Q 2931 2084 2911 2256 
Q 2891 2428 2841 2509 
Q 2775 2619 2662 2680 
Q 2550 2741 2406 2741 
Q 2056 2741 1856 2470 
Q 1656 2200 1656 1722 
L 1656 0 
L 538 0 
L 538 3500 
L 1656 3500 
L 1656 2988 
Q 1909 3294 2193 3439 
Q 2478 3584 2822 3584 
Q 3428 3584 3742 3212 
Q 4056 2841 4056 2131 
z
" transform="scale(0.015625)"/>
     <path id="DejaVuSans-Bold-69" d="M 538 3500 
L 1656 3500 
L 1656 0 
L 538 0 
L 538 3500 
z
M 538 4863 
L 1656 4863 
L 1656 3950 
L 538 3950 
L 538 4863 
z
" transform="scale(0.015625)"/>
     <path id="DejaVuSans-Bold-e7" d="M 3366 3391 
L 3366 2478 
Q 3138 2634 2908 2709 
Q 2678 2784 2431 2784 
Q 1963 2784 1702 2511 
Q 1441 2238 1441 1747 
Q 1441 1256 1702 982 
Q 1963 709 2431 709 
Q 2694 709 2930 787 
Q 3166 866 3366 1019 
L 3366 103 
Q 3103 6 2833 -42 
Q 2563 -91 2291 -91 
Q 1344 -91 809 395 
Q 275 881 275 1747 
Q 275 2613 809 3098 
Q 1344 3584 2291 3584 
Q 2566 3584 2833 3536 
Q 3100 3488 3366 3391 
z
M 2457 0 
Q 2639 -194 2724 -359 
Q 2810 -525 2810 -672 
Q 2810 -969 2618 -1111 
Q 2426 -1253 2029 -1253 
Q 1879 -1253 1719 -1233 
Q 1560 -1213 1398 -1172 
L 1395 -697 
Q 1551 -747 1680 -770 
Q 1810 -794 1914 -794 
Q 2095 -794 2196 -722 
Q 2298 -650 2298 -525 
Q 2298 -444 2231 -316 
Q 2164 -188 2023 0 
L 2457 0 
z
" transform="scale(0.015625)"/>
     <path id="DejaVuSans-Bold-e3" d="M 2106 1575 
Q 1756 1575 1579 1456 
Q 1403 1338 1403 1106 
Q 1403 894 1545 773 
Q 1688 653 1941 653 
Q 2256 653 2472 879 
Q 2688 1106 2688 1447 
L 2688 1575 
L 2106 1575 
z
M 3816 1997 
L 3816 0 
L 2688 0 
L 2688 519 
Q 2463 200 2181 54 
Q 1900 -91 1497 -91 
Q 953 -91 614 226 
Q 275 544 275 1050 
Q 275 1666 698 1953 
Q 1122 2241 2028 2241 
L 2688 2241 
L 2688 2328 
Q 2688 2594 2478 2717 
Q 2269 2841 1825 2841 
Q 1466 2841 1156 2769 
Q 847 2697 581 2553 
L 581 3406 
Q 941 3494 1303 3539 
Q 1666 3584 2028 3584 
Q 2975 3584 3395 3211 
Q 3816 2838 3816 1997 
z
M 2190 4263 
L 2018 4378 
Q 2006 4384 1987 4397 
Q 1840 4494 1762 4494 
Q 1650 4494 1590 4397 
Q 1531 4300 1531 4116 
L 1531 4091 
L 1097 4091 
Q 1097 4516 1257 4747 
Q 1418 4978 1709 4978 
Q 1822 4978 1936 4936 
Q 2050 4894 2178 4800 
L 2368 4666 
Q 2437 4619 2495 4594 
Q 2553 4569 2600 4569 
Q 2712 4569 2774 4669 
Q 2837 4769 2837 4947 
L 2837 4972 
L 3272 4972 
Q 3272 4547 3111 4315 
Q 2950 4084 2659 4084 
Q 2547 4084 2442 4121 
Q 2337 4159 2190 4263 
z
" transform="scale(0.015625)"/>
     <path id="DejaVuSans-Bold-64" d="M 2919 2988 
L 2919 4863 
L 4044 4863 
L 4044 0 
L 2919 0 
L 2919 506 
Q 2688 197 2409 53 
Q 2131 -91 1766 -91 
Q 1119 -91 703 423 
Q 288 938 288 1747 
Q 288 2556 703 3070 
Q 1119 3584 1766 3584 
Q 2128 3584 2408 3439 
Q 2688 3294 2919 2988 
z
M 2181 722 
Q 2541 722 2730 984 
Q 2919 1247 2919 1747 
Q 2919 2247 2730 2509 
Q 2541 2772 2181 2772 
Q 1825 2772 1636 2509 
Q 1447 2247 1447 1747 
Q 1447 1247 1636 984 
Q 1825 722 2181 722 
z
" transform="scale(0.015625)"/>
     <path id="DejaVuSans-Bold-63" d="M 3366 3391 
L 3366 2478 
Q 3138 2634 2908 2709 
Q 2678 2784 2431 2784 
Q 1963 2784 1702 2511 
Q 1441 2238 1441 1747 
Q 1441 1256 1702 982 
Q 1963 709 2431 709 
Q 2694 709 2930 787 
Q 3166 866 3366 1019 
L 3366 103 
Q 3103 6 2833 -42 
Q 2563 -91 2291 -91 
Q 1344 -91 809 395 
Q 275 881 275 1747 
Q 275 2613 809 3098 
Q 1344 3584 2291 3584 
Q 2566 3584 2833 3536 
Q 3100 3488 3366 3391 
z
" transform="scale(0.015625)"/>
     <path id="DejaVuSans-Bold-70" d="M 1656 506 
L 1656 -1331 
L 538 -1331 
L 538 3500 
L 1656 3500 
L 1656 2988 
Q 1888 3294 2169 3439 
Q 2450 3584 2816 3584 
Q 3463 3584 3878 3070 
Q 4294 2556 4294 1747 
Q 4294 938 3878 423 
Q 3463 -91 2816 -91 
Q 2450 -91 2169 54 
Q 1888 200 1656 506 
z
M 2400 2772 
Q 2041 2772 1848 2508 
Q 1656 2244 1656 1747 
Q 1656 1250 1848 986 
Q 2041 722 2400 722 
Q 2759 722 2948 984 
Q 3138 1247 3138 1747 
Q 3138 2247 2948 2509 
Q 2759 2772 2400 2772 
z
" transform="scale(0.015625)"/>
    </defs>
    <use xlink:href="#DejaVuSans-Bold-52"/>
    <use xlink:href="#DejaVuSans-Bold-43" transform="translate(77.001953 0)"/>
    <use xlink:href="#DejaVuSans-Bold-4b" transform="translate(150.390625 0)"/>
    <use xlink:href="#DejaVuSans-Bold-20" transform="translate(227.880859 0)"/>
    <use xlink:href="#DejaVuSans-Bold-76" transform="translate(262.695312 0)"/>
    <use xlink:href="#DejaVuSans-Bold-65" transform="translate(327.880859 0)"/>
    <use xlink:href="#DejaVuSans-Bold-72" transform="translate(395.703125 0)"/>
    <use xlink:href="#DejaVuSans-Bold-73" transform="translate(445.019531 0)"/>
    <use xlink:href="#DejaVuSans-Bold-75" transform="translate(504.541016 0)"/>
    <use xlink:href="#DejaVuSans-Bold-73" transform="translate(575.732422 0)"/>
    <use xlink:href="#DejaVuSans-Bold-20" transform="translate(635.253906 0)"/>
    <use xlink:href="#DejaVuSans-Bold-53" transform="translate(670.068359 0)"/>
    <use xlink:href="#DejaVuSans-Bold-6f" transform="translate(742.089844 0)"/>
    <use xlink:href="#DejaVuSans-Bold-6c" transform="translate(810.791016 0)"/>
    <use xlink:href="#DejaVuSans-Bold-6f" transform="translate(845.068359 0)"/>
    <use xlink:href="#DejaVuSans-Bold-77" transform="translate(913.769531 0)"/>
    <use xlink:href="#DejaVuSans-Bold-3a" transform="translate(1006.152344 0)"/>
    <use xlink:href="#DejaVuSans-Bold-20" transform="translate(1046.142578 0)"/>
    <use xlink:href="#DejaVuSans-Bold-74" transform="translate(1080.957031 0)"/>
    <use xlink:href="#DejaVuSans-Bold-72" transform="translate(1128.759766 0)"/>
    <use xlink:href="#DejaVuSans-Bold-61" transform="translate(1178.076172 0)"/>
    <use xlink:href="#DejaVuSans-Bold-6e" transform="translate(1245.556641 0)"/>
    <use xlink:href="#DejaVuSans-Bold-73" transform="translate(1316.748047 0)"/>
    <use xlink:href="#DejaVuSans-Bold-69" transform="translate(1376.269531 0)"/>
    <use xlink:href="#DejaVuSans-Bold-e7" transform="translate(1410.546875 0)"/>
    <use xlink:href="#DejaVuSans-Bold-e3" transform="translate(1469.824219 0)"/>
    <use xlink:href="#DejaVuSans-Bold-6f" transform="translate(1537.304688 0)"/>
    <use xlink:href="#DejaVuSans-Bold-20" transform="translate(1606.005859 0)"/>
    <use xlink:href="#DejaVuSans-Bold-64" transform="translate(1640.820312 0)"/>
    <use xlink:href="#DejaVuSans-Bold-6f" transform="translate(1712.402344 0)"/>
    <use xlink:href="#DejaVuSans-Bold-20" transform="translate(1781.103516 0)"/>
    <use xlink:href="#DejaVuSans-Bold-63" transform="translate(1815.917969 0)"/>
    <use xlink:href="#DejaVuSans-Bold-61" transform="translate(1875.195312 0)"/>
    <use xlink:href="#DejaVuSans-Bold-70" transform="translate(1942.675781 0)"/>
    <use xlink:href="#DejaVuSans-Bold-69" transform="translate(2014.257812 0)"/>
    <use xlink:href="#DejaVuSans-Bold-74" transform="translate(2048.535156 0)"/>
    <use xlink:href="#DejaVuSans-Bold-61" transform="translate(2096.337891 0)"/>
    <use xlink:href="#DejaVuSans-Bold-6c" transform="translate(2163.818359 0)"/>
   </g>
  </g>
  <g id="text_20">
   <!-- Com o mesmo capital inicial, o RCK ajusta o consumo de forma ótima e produz uma dinâmica distinta da economia de Solow. -->
   <g style="fill: #6f6e69" transform="translate(14.4 38.110406) scale(0.102 -0.102)">
    <defs>
     <path id="DejaVuSans-73" d="M 2834 3397 
L 2834 2853 
Q 2591 2978 2328 3040 
Q 2066 3103 1784 3103 
Q 1356 3103 1142 2972 
Q 928 2841 928 2578 
Q 928 2378 1081 2264 
Q 1234 2150 1697 2047 
L 1894 2003 
Q 2506 1872 2764 1633 
Q 3022 1394 3022 966 
Q 3022 478 2636 193 
Q 2250 -91 1575 -91 
Q 1294 -91 989 -36 
Q 684 19 347 128 
L 347 722 
Q 666 556 975 473 
Q 1284 391 1588 391 
Q 1994 391 2212 530 
Q 2431 669 2431 922 
Q 2431 1156 2273 1281 
Q 2116 1406 1581 1522 
L 1381 1569 
Q 847 1681 609 1914 
Q 372 2147 372 2553 
Q 372 3047 722 3315 
Q 1072 3584 1716 3584 
Q 2034 3584 2315 3537 
Q 2597 3491 2834 3397 
z
" transform="scale(0.015625)"/>
     <path id="DejaVuSans-63" d="M 3122 3366 
L 3122 2828 
Q 2878 2963 2633 3030 
Q 2388 3097 2138 3097 
Q 1578 3097 1268 2742 
Q 959 2388 959 1747 
Q 959 1106 1268 751 
Q 1578 397 2138 397 
Q 2388 397 2633 464 
Q 2878 531 3122 666 
L 3122 134 
Q 2881 22 2623 -34 
Q 2366 -91 2075 -91 
Q 1284 -91 818 406 
Q 353 903 353 1747 
Q 353 2603 823 3093 
Q 1294 3584 2113 3584 
Q 2378 3584 2631 3529 
Q 2884 3475 3122 3366 
z
" transform="scale(0.015625)"/>
     <path id="DejaVuSans-6e" d="M 3513 2113 
L 3513 0 
L 2938 0 
L 2938 2094 
Q 2938 2591 2744 2837 
Q 2550 3084 2163 3084 
Q 1697 3084 1428 2787 
Q 1159 2491 1159 1978 
L 1159 0 
L 581 0 
L 581 3500 
L 1159 3500 
L 1159 2956 
Q 1366 3272 1645 3428 
Q 1925 3584 2291 3584 
Q 2894 3584 3203 3211 
Q 3513 2838 3513 2113 
z
" transform="scale(0.015625)"/>
     <path id="DejaVuSans-6a" d="M 603 3500 
L 1178 3500 
L 1178 -63 
Q 1178 -731 923 -1031 
Q 669 -1331 103 -1331 
L -116 -1331 
L -116 -844 
L 38 -844 
Q 366 -844 484 -692 
Q 603 -541 603 -63 
L 603 3500 
z
M 603 4863 
L 1178 4863 
L 1178 4134 
L 603 4134 
L 603 4863 
z
" transform="scale(0.015625)"/>
     <path id="DejaVuSans-75" d="M 544 1381 
L 544 3500 
L 1119 3500 
L 1119 1403 
Q 1119 906 1312 657 
Q 1506 409 1894 409 
Q 2359 409 2629 706 
Q 2900 1003 2900 1516 
L 2900 3500 
L 3475 3500 
L 3475 0 
L 2900 0 
L 2900 538 
Q 2691 219 2414 64 
Q 2138 -91 1772 -91 
Q 1169 -91 856 284 
Q 544 659 544 1381 
z
M 1991 3584 
L 1991 3584 
z
" transform="scale(0.015625)"/>
     <path id="DejaVuSans-f3" d="M 1959 3097 
Q 1497 3097 1228 2736 
Q 959 2375 959 1747 
Q 959 1119 1226 758 
Q 1494 397 1959 397 
Q 2419 397 2687 759 
Q 2956 1122 2956 1747 
Q 2956 2369 2687 2733 
Q 2419 3097 1959 3097 
z
M 1959 3584 
Q 2709 3584 3137 3096 
Q 3566 2609 3566 1747 
Q 3566 888 3137 398 
Q 2709 -91 1959 -91 
Q 1206 -91 779 398 
Q 353 888 353 1747 
Q 353 2609 779 3096 
Q 1206 3584 1959 3584 
z
M 2394 5119 
L 3016 5119 
L 1998 3944 
L 1519 3944 
L 2394 5119 
z
" transform="scale(0.015625)"/>
     <path id="DejaVuSans-7a" d="M 353 3500 
L 3084 3500 
L 3084 2975 
L 922 459 
L 3084 459 
L 3084 0 
L 275 0 
L 275 525 
L 2438 3041 
L 353 3041 
L 353 3500 
z
" transform="scale(0.015625)"/>
     <path id="DejaVuSans-e2" d="M 2194 1759 
Q 1497 1759 1228 1600 
Q 959 1441 959 1056 
Q 959 750 1161 570 
Q 1363 391 1709 391 
Q 2188 391 2477 730 
Q 2766 1069 2766 1631 
L 2766 1759 
L 2194 1759 
z
M 3341 1997 
L 3341 0 
L 2766 0 
L 2766 531 
Q 2569 213 2275 61 
Q 1981 -91 1556 -91 
Q 1019 -91 701 211 
Q 384 513 384 1019 
Q 384 1609 779 1909 
Q 1175 2209 1959 2209 
L 2766 2209 
L 2766 2266 
Q 2766 2663 2505 2880 
Q 2244 3097 1772 3097 
Q 1472 3097 1187 3025 
Q 903 2953 641 2809 
L 641 3341 
Q 956 3463 1253 3523 
Q 1550 3584 1831 3584 
Q 2591 3584 2966 3190 
Q 3341 2797 3341 1997 
z
M 1625 5119 
L 2087 5119 
L 2853 3944 
L 2419 3944 
L 1856 4709 
L 1294 3944 
L 859 3944 
L 1625 5119 
z
" transform="scale(0.015625)"/>
     <path id="DejaVuSans-2e" d="M 684 794 
L 1344 794 
L 1344 0 
L 684 0 
L 684 794 
z
" transform="scale(0.015625)"/>
    </defs>
    <use xlink:href="#DejaVuSans-43"/>
    <use xlink:href="#DejaVuSans-6f" transform="translate(69.824219 0)"/>
    <use xlink:href="#DejaVuSans-6d" transform="translate(131.005859 0)"/>
    <use xlink:href="#DejaVuSans-20" transform="translate(228.417969 0)"/>
    <use xlink:href="#DejaVuSans-6f" transform="translate(260.205078 0)"/>
    <use xlink:href="#DejaVuSans-20" transform="translate(321.386719 0)"/>
    <use xlink:href="#DejaVuSans-6d" transform="translate(353.173828 0)"/>
    <use xlink:href="#DejaVuSans-65" transform="translate(450.585938 0)"/>
    <use xlink:href="#DejaVuSans-73" transform="translate(512.109375 0)"/>
    <use xlink:href="#DejaVuSans-6d" transform="translate(564.208984 0)"/>
    <use xlink:href="#DejaVuSans-6f" transform="translate(661.621094 0)"/>
    <use xlink:href="#DejaVuSans-20" transform="translate(722.802734 0)"/>
    <use xlink:href="#DejaVuSans-63" transform="translate(754.589844 0)"/>
    <use xlink:href="#DejaVuSans-61" transform="translate(809.570312 0)"/>
    <use xlink:href="#DejaVuSans-70" transform="translate(870.849609 0)"/>
    <use xlink:href="#DejaVuSans-69" transform="translate(934.326172 0)"/>
    <use xlink:href="#DejaVuSans-74" transform="translate(962.109375 0)"/>
    <use xlink:href="#DejaVuSans-61" transform="translate(1001.318359 0)"/>
    <use xlink:href="#DejaVuSans-6c" transform="translate(1062.597656 0)"/>
    <use xlink:href="#DejaVuSans-20" transform="translate(1090.380859 0)"/>
    <use xlink:href="#DejaVuSans-69" transform="translate(1122.167969 0)"/>
    <use xlink:href="#DejaVuSans-6e" transform="translate(1149.951172 0)"/>
    <use xlink:href="#DejaVuSans-69" transform="translate(1213.330078 0)"/>
    <use xlink:href="#DejaVuSans-63" transform="translate(1241.113281 0)"/>
    <use xlink:href="#DejaVuSans-69" transform="translate(1296.09375 0)"/>
    <use xlink:href="#DejaVuSans-61" transform="translate(1323.876953 0)"/>
    <use xlink:href="#DejaVuSans-6c" transform="translate(1385.15625 0)"/>
    <use xlink:href="#DejaVuSans-2c" transform="translate(1412.939453 0)"/>
    <use xlink:href="#DejaVuSans-20" transform="translate(1444.726562 0)"/>
    <use xlink:href="#DejaVuSans-6f" transform="translate(1476.513672 0)"/>
    <use xlink:href="#DejaVuSans-20" transform="translate(1537.695312 0)"/>
    <use xlink:href="#DejaVuSans-52" transform="translate(1569.482422 0)"/>
    <use xlink:href="#DejaVuSans-43" transform="translate(1633.964844 0)"/>
    <use xlink:href="#DejaVuSans-4b" transform="translate(1703.789062 0)"/>
    <use xlink:href="#DejaVuSans-20" transform="translate(1769.365234 0)"/>
    <use xlink:href="#DejaVuSans-61" transform="translate(1801.152344 0)"/>
    <use xlink:href="#DejaVuSans-6a" transform="translate(1862.431641 0)"/>
    <use xlink:href="#DejaVuSans-75" transform="translate(1890.214844 0)"/>
    <use xlink:href="#DejaVuSans-73" transform="translate(1953.59375 0)"/>
    <use xlink:href="#DejaVuSans-74" transform="translate(2005.693359 0)"/>
    <use xlink:href="#DejaVuSans-61" transform="translate(2044.902344 0)"/>
    <use xlink:href="#DejaVuSans-20" transform="translate(2106.181641 0)"/>
    <use xlink:href="#DejaVuSans-6f" transform="translate(2137.96875 0)"/>
    <use xlink:href="#DejaVuSans-20" transform="translate(2199.150391 0)"/>
    <use xlink:href="#DejaVuSans-63" transform="translate(2230.9375 0)"/>
    <use xlink:href="#DejaVuSans-6f" transform="translate(2285.917969 0)"/>
    <use xlink:href="#DejaVuSans-6e" transform="translate(2347.099609 0)"/>
    <use xlink:href="#DejaVuSans-73" transform="translate(2410.478516 0)"/>
    <use xlink:href="#DejaVuSans-75" transform="translate(2462.578125 0)"/>
    <use xlink:href="#DejaVuSans-6d" transform="translate(2525.957031 0)"/>
    <use xlink:href="#DejaVuSans-6f" transform="translate(2623.369141 0)"/>
    <use xlink:href="#DejaVuSans-20" transform="translate(2684.550781 0)"/>
    <use xlink:href="#DejaVuSans-64" transform="translate(2716.337891 0)"/>
    <use xlink:href="#DejaVuSans-65" transform="translate(2779.814453 0)"/>
    <use xlink:href="#DejaVuSans-20" transform="translate(2841.337891 0)"/>
    <use xlink:href="#DejaVuSans-66" transform="translate(2873.125 0)"/>
    <use xlink:href="#DejaVuSans-6f" transform="translate(2908.330078 0)"/>
    <use xlink:href="#DejaVuSans-72" transform="translate(2969.511719 0)"/>
    <use xlink:href="#DejaVuSans-6d" transform="translate(3008.875 0)"/>
    <use xlink:href="#DejaVuSans-61" transform="translate(3106.287109 0)"/>
    <use xlink:href="#DejaVuSans-20" transform="translate(3167.566406 0)"/>
    <use xlink:href="#DejaVuSans-f3" transform="translate(3199.353516 0)"/>
    <use xlink:href="#DejaVuSans-74" transform="translate(3260.535156 0)"/>
    <use xlink:href="#DejaVuSans-69" transform="translate(3299.744141 0)"/>
    <use xlink:href="#DejaVuSans-6d" transform="translate(3327.527344 0)"/>
    <use xlink:href="#DejaVuSans-61" transform="translate(3424.939453 0)"/>
    <use xlink:href="#DejaVuSans-20" transform="translate(3486.21875 0)"/>
    <use xlink:href="#DejaVuSans-65" transform="translate(3518.005859 0)"/>
    <use xlink:href="#DejaVuSans-20" transform="translate(3579.529297 0)"/>
    <use xlink:href="#DejaVuSans-70" transform="translate(3611.316406 0)"/>
    <use xlink:href="#DejaVuSans-72" transform="translate(3674.792969 0)"/>
    <use xlink:href="#DejaVuSans-6f" transform="translate(3713.65625 0)"/>
    <use xlink:href="#DejaVuSans-64" transform="translate(3774.837891 0)"/>
    <use xlink:href="#DejaVuSans-75" transform="translate(3838.314453 0)"/>
    <use xlink:href="#DejaVuSans-7a" transform="translate(3901.693359 0)"/>
    <use xlink:href="#DejaVuSans-20" transform="translate(3954.183594 0)"/>
    <use xlink:href="#DejaVuSans-75" transform="translate(3985.970703 0)"/>
    <use xlink:href="#DejaVuSans-6d" transform="translate(4049.349609 0)"/>
    <use xlink:href="#DejaVuSans-61" transform="translate(4146.761719 0)"/>
    <use xlink:href="#DejaVuSans-20" transform="translate(4208.041016 0)"/>
    <use xlink:href="#DejaVuSans-64" transform="translate(4239.828125 0)"/>
    <use xlink:href="#DejaVuSans-69" transform="translate(4303.304688 0)"/>
    <use xlink:href="#DejaVuSans-6e" transform="translate(4331.087891 0)"/>
    <use xlink:href="#DejaVuSans-e2" transform="translate(4394.466797 0)"/>
    <use xlink:href="#DejaVuSans-6d" transform="translate(4455.746094 0)"/>
    <use xlink:href="#DejaVuSans-69" transform="translate(4553.158203 0)"/>
    <use xlink:href="#DejaVuSans-63" transform="translate(4580.941406 0)"/>
    <use xlink:href="#DejaVuSans-61" transform="translate(4635.921875 0)"/>
    <use xlink:href="#DejaVuSans-20" transform="translate(4697.201172 0)"/>
    <use xlink:href="#DejaVuSans-64" transform="translate(4728.988281 0)"/>
    <use xlink:href="#DejaVuSans-69" transform="translate(4792.464844 0)"/>
    <use xlink:href="#DejaVuSans-73" transform="translate(4820.248047 0)"/>
    <use xlink:href="#DejaVuSans-74" transform="translate(4872.347656 0)"/>
    <use xlink:href="#DejaVuSans-69" transform="translate(4911.556641 0)"/>
    <use xlink:href="#DejaVuSans-6e" transform="translate(4939.339844 0)"/>
    <use xlink:href="#DejaVuSans-74" transform="translate(5002.71875 0)"/>
    <use xlink:href="#DejaVuSans-61" transform="translate(5041.927734 0)"/>
    <use xlink:href="#DejaVuSans-20" transform="translate(5103.207031 0)"/>
    <use xlink:href="#DejaVuSans-64" transform="translate(5134.994141 0)"/>
    <use xlink:href="#DejaVuSans-61" transform="translate(5198.470703 0)"/>
    <use xlink:href="#DejaVuSans-20" transform="translate(5259.75 0)"/>
    <use xlink:href="#DejaVuSans-65" transform="translate(5291.537109 0)"/>
    <use xlink:href="#DejaVuSans-63" transform="translate(5353.060547 0)"/>
    <use xlink:href="#DejaVuSans-6f" transform="translate(5408.041016 0)"/>
    <use xlink:href="#DejaVuSans-6e" transform="translate(5469.222656 0)"/>
    <use xlink:href="#DejaVuSans-6f" transform="translate(5532.601562 0)"/>
    <use xlink:href="#DejaVuSans-6d" transform="translate(5593.783203 0)"/>
    <use xlink:href="#DejaVuSans-69" transform="translate(5691.195312 0)"/>
    <use xlink:href="#DejaVuSans-61" transform="translate(5718.978516 0)"/>
    <use xlink:href="#DejaVuSans-20" transform="translate(5780.257812 0)"/>
    <use xlink:href="#DejaVuSans-64" transform="translate(5812.044922 0)"/>
    <use xlink:href="#DejaVuSans-65" transform="translate(5875.521484 0)"/>
    <use xlink:href="#DejaVuSans-20" transform="translate(5937.044922 0)"/>
    <use xlink:href="#DejaVuSans-53" transform="translate(5968.832031 0)"/>
    <use xlink:href="#DejaVuSans-6f" transform="translate(6032.308594 0)"/>
    <use xlink:href="#DejaVuSans-6c" transform="translate(6093.490234 0)"/>
    <use xlink:href="#DejaVuSans-6f" transform="translate(6121.273438 0)"/>
    <use xlink:href="#DejaVuSans-77" transform="translate(6182.455078 0)"/>
    <use xlink:href="#DejaVuSans-2e" transform="translate(6255.117188 0)"/>
   </g>
  </g>
  <g id="text_21">
   <!-- Obs.: A linha pontilhada marca o estado estacionário do RCK. -->
   <g style="fill: #6f6e69" transform="translate(14.4 383.894672) scale(0.087 -0.087)">
    <defs>
     <path id="DejaVuSans-4f" d="M 2522 4238 
Q 1834 4238 1429 3725 
Q 1025 3213 1025 2328 
Q 1025 1447 1429 934 
Q 1834 422 2522 422 
Q 3209 422 3611 934 
Q 4013 1447 4013 2328 
Q 4013 3213 3611 3725 
Q 3209 4238 2522 4238 
z
M 2522 4750 
Q 3503 4750 4090 4092 
Q 4678 3434 4678 2328 
Q 4678 1225 4090 567 
Q 3503 -91 2522 -91 
Q 1538 -91 948 565 
Q 359 1222 359 2328 
Q 359 3434 948 4092 
Q 1538 4750 2522 4750 
z
" transform="scale(0.015625)"/>
     <path id="DejaVuSans-3a" d="M 750 794 
L 1409 794 
L 1409 0 
L 750 0 
L 750 794 
z
M 750 3309 
L 1409 3309 
L 1409 2516 
L 750 2516 
L 750 3309 
z
" transform="scale(0.015625)"/>
     <path id="DejaVuSans-41" d="M 2188 4044 
L 1331 1722 
L 3047 1722 
L 2188 4044 
z
M 1831 4666 
L 2547 4666 
L 4325 0 
L 3669 0 
L 3244 1197 
L 1141 1197 
L 716 0 
L 50 0 
L 1831 4666 
z
" transform="scale(0.015625)"/>
     <path id="DejaVuSans-e1" d="M 2194 1759 
Q 1497 1759 1228 1600 
Q 959 1441 959 1056 
Q 959 750 1161 570 
Q 1363 391 1709 391 
Q 2188 391 2477 730 
Q 2766 1069 2766 1631 
L 2766 1759 
L 2194 1759 
z
M 3341 1997 
L 3341 0 
L 2766 0 
L 2766 531 
Q 2569 213 2275 61 
Q 1981 -91 1556 -91 
Q 1019 -91 701 211 
Q 384 513 384 1019 
Q 384 1609 779 1909 
Q 1175 2209 1959 2209 
L 2766 2209 
L 2766 2266 
Q 2766 2663 2505 2880 
Q 2244 3097 1772 3097 
Q 1472 3097 1187 3025 
Q 903 2953 641 2809 
L 641 3341 
Q 956 3463 1253 3523 
Q 1550 3584 1831 3584 
Q 2591 3584 2966 3190 
Q 3341 2797 3341 1997 
z
M 2290 5119 
L 2912 5119 
L 1894 3944 
L 1415 3944 
L 2290 5119 
z
" transform="scale(0.015625)"/>
    </defs>
    <use xlink:href="#DejaVuSans-4f"/>
    <use xlink:href="#DejaVuSans-62" transform="translate(78.710938 0)"/>
    <use xlink:href="#DejaVuSans-73" transform="translate(142.1875 0)"/>
    <use xlink:href="#DejaVuSans-2e" transform="translate(194.287109 0)"/>
    <use xlink:href="#DejaVuSans-3a" transform="translate(226.074219 0)"/>
    <use xlink:href="#DejaVuSans-20" transform="translate(259.765625 0)"/>
    <use xlink:href="#DejaVuSans-41" transform="translate(291.552734 0)"/>
    <use xlink:href="#DejaVuSans-20" transform="translate(359.960938 0)"/>
    <use xlink:href="#DejaVuSans-6c" transform="translate(391.748047 0)"/>
    <use xlink:href="#DejaVuSans-69" transform="translate(419.53125 0)"/>
    <use xlink:href="#DejaVuSans-6e" transform="translate(447.314453 0)"/>
    <use xlink:href="#DejaVuSans-68" transform="translate(510.693359 0)"/>
    <use xlink:href="#DejaVuSans-61" transform="translate(574.072266 0)"/>
    <use xlink:href="#DejaVuSans-20" transform="translate(635.351562 0)"/>
    <use xlink:href="#DejaVuSans-70" transform="translate(667.138672 0)"/>
    <use xlink:href="#DejaVuSans-6f" transform="translate(730.615234 0)"/>
    <use xlink:href="#DejaVuSans-6e" transform="translate(791.796875 0)"/>
    <use xlink:href="#DejaVuSans-74" transform="translate(855.175781 0)"/>
    <use xlink:href="#DejaVuSans-69" transform="translate(894.384766 0)"/>
    <use xlink:href="#DejaVuSans-6c" transform="translate(922.167969 0)"/>
    <use xlink:href="#DejaVuSans-68" transform="translate(949.951172 0)"/>
    <use xlink:href="#DejaVuSans-61" transform="translate(1013.330078 0)"/>
    <use xlink:href="#DejaVuSans-64" transform="translate(1074.609375 0)"/>
    <use xlink:href="#DejaVuSans-61" transform="translate(1138.085938 0)"/>
    <use xlink:href="#DejaVuSans-20" transform="translate(1199.365234 0)"/>
    <use xlink:href="#DejaVuSans-6d" transform="translate(1231.152344 0)"/>
    <use xlink:href="#DejaVuSans-61" transform="translate(1328.564453 0)"/>
    <use xlink:href="#DejaVuSans-72" transform="translate(1389.84375 0)"/>
    <use xlink:href="#DejaVuSans-63" transform="translate(1428.707031 0)"/>
    <use xlink:href="#DejaVuSans-61" transform="translate(1483.6875 0)"/>
    <use xlink:href="#DejaVuSans-20" transform="translate(1544.966797 0)"/>
    <use xlink:href="#DejaVuSans-6f" transform="translate(1576.753906 0)"/>
    <use xlink:href="#DejaVuSans-20" transform="translate(1637.935547 0)"/>
    <use xlink:href="#DejaVuSans-65" transform="translate(1669.722656 0)"/>
    <use xlink:href="#DejaVuSans-73" transform="translate(1731.246094 0)"/>
    <use xlink:href="#DejaVuSans-74" transform="translate(1783.345703 0)"/>
    <use xlink:href="#DejaVuSans-61" transform="translate(1822.554688 0)"/>
    <use xlink:href="#DejaVuSans-64" transform="translate(1883.833984 0)"/>
    <use xlink:href="#DejaVuSans-6f" transform="translate(1947.310547 0)"/>
    <use xlink:href="#DejaVuSans-20" transform="translate(2008.492188 0)"/>
    <use xlink:href="#DejaVuSans-65" transform="translate(2040.279297 0)"/>
    <use xlink:href="#DejaVuSans-73" transform="translate(2101.802734 0)"/>
    <use xlink:href="#DejaVuSans-74" transform="translate(2153.902344 0)"/>
    <use xlink:href="#DejaVuSans-61" transform="translate(2193.111328 0)"/>
    <use xlink:href="#DejaVuSans-63" transform="translate(2254.390625 0)"/>
    <use xlink:href="#DejaVuSans-69" transform="translate(2309.371094 0)"/>
    <use xlink:href="#DejaVuSans-6f" transform="translate(2337.154297 0)"/>
    <use xlink:href="#DejaVuSans-6e" transform="translate(2398.335938 0)"/>
    <use xlink:href="#DejaVuSans-e1" transform="translate(2461.714844 0)"/>
    <use xlink:href="#DejaVuSans-72" transform="translate(2522.994141 0)"/>
    <use xlink:href="#DejaVuSans-69" transform="translate(2564.107422 0)"/>
    <use xlink:href="#DejaVuSans-6f" transform="translate(2591.890625 0)"/>
    <use xlink:href="#DejaVuSans-20" transform="translate(2653.072266 0)"/>
    <use xlink:href="#DejaVuSans-64" transform="translate(2684.859375 0)"/>
    <use xlink:href="#DejaVuSans-6f" transform="translate(2748.335938 0)"/>
    <use xlink:href="#DejaVuSans-20" transform="translate(2809.517578 0)"/>
    <use xlink:href="#DejaVuSans-52" transform="translate(2841.304688 0)"/>
    <use xlink:href="#DejaVuSans-43" transform="translate(2905.787109 0)"/>
    <use xlink:href="#DejaVuSans-4b" transform="translate(2975.611328 0)"/>
    <use xlink:href="#DejaVuSans-2e" transform="translate(3041.1875 0)"/>
   </g>
  </g>
 </g>
 <defs>
  <clipPath id="p79b3ae8d68">
   <rect x="60.714571" y="89.444571" width="564.277685" height="218.272571"/>
  </clipPath>
 </defs>
</svg>
